<!-- rename classes based on neighborhood name .cls-1, .cls2,  -->


<svg xmlns="http://www.w3.org/2000/svg" viewBox="0 0 649.17 625.27">
  <defs>
    <style>
      .mainMap-cls-1 {
        fill: #ff7378;
      }

      .mainMap-cls-2 {
        fill: #619cb0;
      }

      .mainMap-cls-3 {
        fill: #769e6c;
      }

      .mainMap-cls-4 {
        fill: #ff9696;
      }

      .mainMap-cls-5 {
        fill: #fff891;
      }

      .mainMap-cls-6 {
        fill: #8699bd;
      }
    </style>
  </defs>
  <title>Asset 1</title>
  <g id="Layer_2" data-name="Layer 2">
    <g id="Layer_4" data-name="Layer 4">
      <g id="neighborhoods">

        <a href="#westHighlandMapPage"><polygon id="west_highlands" data-name="west highlands" class="mainMap-cls-1" points="0 237.77 0 403.77 328 403.27 328 237.27 0 237.77"/></a>

        <a href="#sloansLakeMapPage"><polygon ng-click='$ctrl.sloans_lake()' id="sloans_lake" data-name="sloans lake" class="mainMap-cls-2" points="269 403.49 217 403.55 162 403.6 106 403.66 0 403.77 0 460.27 0 487.77 0 625.27 162 625.27 203 625.27 269 625.27 328 625.27 328 569.27 328 515.27 328 460.27 328 403.43 269 403.49"/></a>

        <a href="#jeffersonParkMapPage"><polygon id="jefferson_park" data-name="jefferson park" class="mainMap-cls-3" points="499 420.27 485 403.27 328 403.27 328 569.27 399 569.27 410 571.27 441 571.27 452 531.27 508 476.27 526.5 462.74 530.06 456.24 531 450.27 499 420.27"/></a>

        <a href="#lowerHighlandMapPage"><polygon id="lower_highlands" data-name="lower highlands" class="mainMap-cls-4" points="649 271.27 643 237.27 328 237.27 328 403.27 482.83 403.27 505 425.89 531 451.27 571.6 384.25 576 377.27 582 372.27 590.28 368.54 622 359.27 636 351.27 649.17 308.44 649 271.27"/></a>

        <a href="#sunnysideMapPage"><path id="sunnyside" class="mainMap-cls-5" d="M629,99.27V34.78l-18.49-7A58.48,58.48,0,0,0,586.71,24l-39.71,2-4,.2-53-1-54-1h0l-54-1v1.38l0,0c0-2.49-1.14-4.73-3.75-7.15A22.14,22.14,0,0,0,365,11.81L328,8.73v228.8l53.34,0,54.66,0,54,0,57,0,52,0v-.06h44v-138Z"/></a>

        <a href="#berkeleyMapPage"><path id="berkeley" class="mainMap-cls-6" d="M324.28,8.42,267.4,14.23a10.27,10.27,0,0,1-6.7,4.59L239.27,23a12.92,12.92,0,0,1-2.56.25l-19.71,0-55,.05-40.5,0A64.58,64.58,0,0,1,106,21.52a65,65,0,0,1-13.85-5.08L70.08,5.36a50.32,50.32,0,0,0-44.36-.41L0,17.27v220.5l106-.08,56,0,55,0,52,0,59,0V8.73Z"/>
      </g></a>
      <g>
        <path class="mainMap-cls-5" d="M98.17,123.6h6a10.73,10.73,0,0,1,2.3.26,6.07,6.07,0,0,1,2.09.87,4.7,4.7,0,0,1,1.5,1.67,5.41,5.41,0,0,1,.58,2.64,4.62,4.62,0,0,1-1,2.93,4.52,4.52,0,0,1-2.6,1.63v.06a5,5,0,0,1,4.53,5.31,5.52,5.52,0,0,1-.52,2.42,5.24,5.24,0,0,1-1.49,1.86,7,7,0,0,1-2.35,1.19,10.73,10.73,0,0,1-3.12.42H98.17Zm2,9.3h4.12a6.39,6.39,0,0,0,1.49-.18,4,4,0,0,0,1.38-.61,3.23,3.23,0,0,0,1-1.16,3.73,3.73,0,0,0,.38-1.77,3.57,3.57,0,0,0-.38-1.72,3.29,3.29,0,0,0-1-1.16,4.33,4.33,0,0,0-1.53-.65,8.66,8.66,0,0,0-1.87-.19h-3.55Zm0,10.08H104a9.68,9.68,0,0,0,2.11-.23,5.25,5.25,0,0,0,1.76-.72,4.09,4.09,0,0,0,.31-6.33,6.15,6.15,0,0,0-3.82-1h-4.17Z"/>
        <path class="mainMap-cls-5" d="M129.13,137.4v.45a5,5,0,0,1,0,.51h-11a5.73,5.73,0,0,0,.4,2,5,5,0,0,0,1,1.62,4.92,4.92,0,0,0,1.53,1.09,4.49,4.49,0,0,0,1.9.41,4.54,4.54,0,0,0,2.6-.74A5.34,5.34,0,0,0,127.2,141l1.45,1.2a7.3,7.3,0,0,1-2.63,2.28,7,7,0,0,1-3.08.69,6.74,6.74,0,0,1-2.74-.55A6.41,6.41,0,0,1,118,143.1a7.36,7.36,0,0,1-1.43-2.34,8,8,0,0,1-.53-2.94,8.25,8.25,0,0,1,.51-2.94,7.17,7.17,0,0,1,1.42-2.34,6.54,6.54,0,0,1,2.13-1.55,6.31,6.31,0,0,1,2.64-.55,6.46,6.46,0,0,1,2.75.55,5.71,5.71,0,0,1,2,1.5,6.55,6.55,0,0,1,1.21,2.21A8.66,8.66,0,0,1,129.13,137.4Zm-2-.66a5.22,5.22,0,0,0-1.21-3.28,4,4,0,0,0-3.19-1.31,4.26,4.26,0,0,0-1.79.38,4.73,4.73,0,0,0-1.45,1,5.07,5.07,0,0,0-1,1.47,5,5,0,0,0-.43,1.73Z"/>
        <path class="mainMap-cls-5" d="M134.19,132.42q0-.9-.08-1.62h1.84q.06.57.09,1.26t0,1.14h.06a4.78,4.78,0,0,1,1.7-2,4.46,4.46,0,0,1,2.55-.77q.37,0,.67,0a3.5,3.5,0,0,1,.61.12l-.26,2a3.46,3.46,0,0,0-.57-.12,5.31,5.31,0,0,0-.79-.06,3.76,3.76,0,0,0-1.48.3,3.18,3.18,0,0,0-1.23.94,5,5,0,0,0-.85,1.65,7.82,7.82,0,0,0-.33,2.41v7.18h-1.93v-11Q134.21,133.32,134.19,132.42Z"/>
        <path class="mainMap-cls-5" d="M147.35,137.13h.09l6.13-6.33h2.78l-6.7,6.42,7.38,7.62h-2.84l-6.75-7.38h-.09v7.38h-1.93V122.16h1.93Z"/>
        <path class="mainMap-cls-5" d="M172.36,137.4v.45a5,5,0,0,1,0,.51h-11a5.73,5.73,0,0,0,.4,2,5,5,0,0,0,1,1.62,4.92,4.92,0,0,0,1.53,1.09,4.49,4.49,0,0,0,1.9.41,4.54,4.54,0,0,0,2.6-.74,5.34,5.34,0,0,0,1.66-1.69l1.45,1.2a7.3,7.3,0,0,1-2.63,2.28,7,7,0,0,1-3.08.69,6.74,6.74,0,0,1-2.74-.55,6.41,6.41,0,0,1-2.17-1.55,7.36,7.36,0,0,1-1.43-2.34,8,8,0,0,1-.53-2.94,8.25,8.25,0,0,1,.51-2.94,7.17,7.17,0,0,1,1.42-2.34,6.54,6.54,0,0,1,2.13-1.55,6.31,6.31,0,0,1,2.64-.55,6.46,6.46,0,0,1,2.75.55,5.71,5.71,0,0,1,2,1.5,6.55,6.55,0,0,1,1.21,2.21A8.66,8.66,0,0,1,172.36,137.4Zm-2-.66a5.22,5.22,0,0,0-1.21-3.28,4,4,0,0,0-3.19-1.31,4.26,4.26,0,0,0-1.79.38,4.73,4.73,0,0,0-1.45,1,5.07,5.07,0,0,0-1,1.47,5,5,0,0,0-.43,1.73Z"/>
        <path class="mainMap-cls-5" d="M179.43,144.84H177.5V122.16h1.93Z"/>
        <path class="mainMap-cls-5" d="M197.62,137.4v.45a5,5,0,0,1,0,.51h-11a5.73,5.73,0,0,0,.4,2,5,5,0,0,0,1,1.62,4.92,4.92,0,0,0,1.53,1.09,4.49,4.49,0,0,0,1.9.41,4.54,4.54,0,0,0,2.6-.74,5.34,5.34,0,0,0,1.66-1.69l1.45,1.2a7.3,7.3,0,0,1-2.63,2.28,7,7,0,0,1-3.08.69,6.74,6.74,0,0,1-2.74-.55,6.41,6.41,0,0,1-2.17-1.55,7.36,7.36,0,0,1-1.43-2.34,8,8,0,0,1-.53-2.94,8.25,8.25,0,0,1,.51-2.94,7.17,7.17,0,0,1,1.42-2.34,6.54,6.54,0,0,1,2.13-1.55,6.31,6.31,0,0,1,2.64-.55A6.46,6.46,0,0,1,194,131a5.71,5.71,0,0,1,2,1.5,6.55,6.55,0,0,1,1.21,2.21A8.66,8.66,0,0,1,197.62,137.4Zm-2-.66a5.22,5.22,0,0,0-1.21-3.28,4,4,0,0,0-3.19-1.31,4.26,4.26,0,0,0-1.79.38,4.73,4.73,0,0,0-1.45,1,5.07,5.07,0,0,0-1,1.47,5,5,0,0,0-.43,1.73Z"/>
        <path class="mainMap-cls-5" d="M207.27,142.65h.06l4.12-11.85h2.1l-6.61,17.67a7.49,7.49,0,0,1-1.52,2.6,3.48,3.48,0,0,1-2.65,1,8.34,8.34,0,0,1-1.73-.18l.2-1.86a4.25,4.25,0,0,0,1.42.24,2,2,0,0,0,1.56-.65,5.66,5.66,0,0,0,1-1.84l1.08-2.94-5.68-14h2.16Z"/>
      </g>
      <g>
        <path class="mainMap-cls-3" d="M419.18,128.95a5.18,5.18,0,0,0-1.77-1.55,5.41,5.41,0,0,0-2.61-.58,5.59,5.59,0,0,0-1.59.24,4.62,4.62,0,0,0-1.47.73,3.78,3.78,0,0,0-1.06,1.25,3.68,3.68,0,0,0-.4,1.77,3.28,3.28,0,0,0,.39,1.68,3.69,3.69,0,0,0,1,1.13,6,6,0,0,0,1.47.76l1.72.6q1.11.36,2.23.78a8,8,0,0,1,2,1.09,5.31,5.31,0,0,1,1.46,1.71,5.41,5.41,0,0,1,.57,2.63,5.83,5.83,0,0,1-.61,2.75,5.74,5.74,0,0,1-1.58,1.9,6.53,6.53,0,0,1-2.21,1.11,9,9,0,0,1-2.5.36,9.67,9.67,0,0,1-1.92-.19,8.73,8.73,0,0,1-1.83-.59,7.44,7.44,0,0,1-1.62-1,7.22,7.22,0,0,1-1.32-1.38l1.86-1.38a5.69,5.69,0,0,0,1.93,1.91,5.48,5.48,0,0,0,2.93.77,5.66,5.66,0,0,0,1.65-.26,4.63,4.63,0,0,0,1.51-.78,4.31,4.31,0,0,0,1.11-1.29,4,4,0,0,0,0-3.63,3.89,3.89,0,0,0-1.16-1.23,7.06,7.06,0,0,0-1.65-.83l-2-.66q-1.05-.33-2.07-.75a7,7,0,0,1-1.83-1.09,5.13,5.13,0,0,1-1.3-1.67,6.09,6.09,0,0,1,.12-5.07,5.56,5.56,0,0,1,1.6-1.83,6.74,6.74,0,0,1,2.19-1.05,8.91,8.91,0,0,1,2.37-.33,8.18,8.18,0,0,1,3.69.76,6.33,6.33,0,0,1,2.31,1.81Z"/>
        <path class="mainMap-cls-3" d="M436.88,146.77q-.06-.57-.09-1.26t0-1.14h-.06a4.62,4.62,0,0,1-2,2,5.69,5.69,0,0,1-2.85.76,4.93,4.93,0,0,1-4-1.59,6.32,6.32,0,0,1-1.33-4.2v-8.61h2v7.77a10.28,10.28,0,0,0,.18,2,4.21,4.21,0,0,0,.62,1.54,2.94,2.94,0,0,0,1.17,1,4.18,4.18,0,0,0,1.84.36,3.92,3.92,0,0,0,1.58-.33,3.86,3.86,0,0,0,1.37-1,5,5,0,0,0,1-1.71,7.45,7.45,0,0,0,.36-2.44v-7.2h2v11q0,.57,0,1.47t.09,1.62Z"/>
        <path class="mainMap-cls-3" d="M446.93,132.73q.06.57.09,1.26c0,.46,0,.84,0,1.14h.06a4.61,4.61,0,0,1,2-2,5.69,5.69,0,0,1,2.85-.77,4.93,4.93,0,0,1,4,1.59,6.32,6.32,0,0,1,1.33,4.2v8.61h-2V139a10.27,10.27,0,0,0-.18-2,4.22,4.22,0,0,0-.62-1.55,2.94,2.94,0,0,0-1.17-1,4.19,4.19,0,0,0-1.84-.36,3.94,3.94,0,0,0-1.58.33,3.88,3.88,0,0,0-1.37,1,5,5,0,0,0-1,1.71,7.48,7.48,0,0,0-.36,2.44v7.2h-2v-11q0-.57,0-1.47t-.09-1.62Z"/>
        <path class="mainMap-cls-3" d="M465.35,132.73q.06.57.09,1.26c0,.46,0,.84,0,1.14h.06a4.61,4.61,0,0,1,2-2,5.69,5.69,0,0,1,2.85-.77,4.93,4.93,0,0,1,4,1.59,6.32,6.32,0,0,1,1.33,4.2v8.61h-2V139a10.27,10.27,0,0,0-.18-2,4.22,4.22,0,0,0-.62-1.55,2.94,2.94,0,0,0-1.17-1,4.19,4.19,0,0,0-1.84-.36,3.94,3.94,0,0,0-1.58.33,3.88,3.88,0,0,0-1.37,1,5,5,0,0,0-1,1.71,7.48,7.48,0,0,0-.36,2.44v7.2h-2v-11q0-.57,0-1.47t-.09-1.62Z"/>
        <path class="mainMap-cls-3" d="M486.77,144.58h.06l4.35-11.85h2.22l-7,17.67a7.42,7.42,0,0,1-1.6,2.6,3.8,3.8,0,0,1-2.81,1,9.3,9.3,0,0,1-1.83-.18l.21-1.86a4.73,4.73,0,0,0,1.5.24,2.14,2.14,0,0,0,1.65-.65,5.58,5.58,0,0,0,1-1.84l1.14-2.94-6-14H482Z"/>
        <path class="mainMap-cls-3" d="M505,136.06a3.58,3.58,0,0,0-1.37-1.42,3.94,3.94,0,0,0-2.08-.56,5,5,0,0,0-1.08.12,3,3,0,0,0-1,.39,2.12,2.12,0,0,0-.67.69,1.87,1.87,0,0,0-.25,1,1.7,1.7,0,0,0,.81,1.52,7.78,7.78,0,0,0,2.55.88,8.53,8.53,0,0,1,3.67,1.48,3.22,3.22,0,0,1,1.18,2.63,3.88,3.88,0,0,1-1.68,3.38,4.9,4.9,0,0,1-1.7.75,8.17,8.17,0,0,1-1.9.23,7.61,7.61,0,0,1-3.09-.66A5.72,5.72,0,0,1,496,144.4l1.62-1.2a4.58,4.58,0,0,0,3.9,2.19,6.41,6.41,0,0,0,1.26-.12,2.88,2.88,0,0,0,1-.42,2.29,2.29,0,0,0,.72-.77,2.27,2.27,0,0,0,.27-1.15,1.78,1.78,0,0,0-1.07-1.67,13.92,13.92,0,0,0-3.07-1q-.63-.15-1.33-.37a4.57,4.57,0,0,1-1.31-.66,3.56,3.56,0,0,1-1-1.09,3.19,3.19,0,0,1-.39-1.65,3.78,3.78,0,0,1,.42-1.85,3.69,3.69,0,0,1,1.13-1.26,5,5,0,0,1,1.61-.74,7.2,7.2,0,0,1,1.86-.24,6.54,6.54,0,0,1,2.85.66,4.6,4.6,0,0,1,2.07,1.86Z"/>
        <path class="mainMap-cls-3" d="M514.37,127.33a1.33,1.33,0,0,1-.45,1,1.41,1.41,0,0,1-2,0,1.42,1.42,0,0,1,0-2.07,1.41,1.41,0,0,1,2,0A1.33,1.33,0,0,1,514.37,127.33Zm-.42,19.44h-2v-14h2Z"/>
        <path class="mainMap-cls-3" d="M531.92,144.4a5.76,5.76,0,0,1-2.34,2,6.8,6.8,0,0,1-3,.69,7.53,7.53,0,0,1-3-.57,6.79,6.79,0,0,1-2.28-1.56,7,7,0,0,1-1.47-2.34,8.32,8.32,0,0,1,0-5.82,7,7,0,0,1,1.47-2.34,6.8,6.8,0,0,1,2.28-1.56,7.54,7.54,0,0,1,3-.57,6.68,6.68,0,0,1,3,.71,5.8,5.8,0,0,1,2.34,2.08H532V124.09h2v22.68h-2V144.4Zm-10.41-4.65a6.66,6.66,0,0,0,.36,2.21,5.34,5.34,0,0,0,1,1.8,4.7,4.7,0,0,0,1.67,1.2,5.53,5.53,0,0,0,2.25.44,5.26,5.26,0,0,0,5-3.41,6.36,6.36,0,0,0,0-4.47,5.53,5.53,0,0,0-1.12-1.8,5.18,5.18,0,0,0-1.71-1.2,5.31,5.31,0,0,0-2.16-.44,5.38,5.38,0,0,0-2.25.45,4.87,4.87,0,0,0-1.67,1.22,5.34,5.34,0,0,0-1,1.8A6.66,6.66,0,0,0,521.51,139.75Z"/>
        <path class="mainMap-cls-3" d="M553.25,139.33v.45a4.75,4.75,0,0,1,0,.51H541.58a5.47,5.47,0,0,0,.42,2,5,5,0,0,0,1.08,1.62A5.2,5.2,0,0,0,544.7,145a5.36,5.36,0,0,0,4.75-.33,5.49,5.49,0,0,0,1.76-1.69l1.53,1.2a7.61,7.61,0,0,1-2.77,2.28,7.76,7.76,0,0,1-3.25.69,7.47,7.47,0,0,1-2.9-.55,6.78,6.78,0,0,1-2.29-1.55,7.29,7.29,0,0,1-1.51-2.34,7.63,7.63,0,0,1-.56-2.94,7.86,7.86,0,0,1,.54-2.94,7.13,7.13,0,0,1,1.5-2.34,6.9,6.9,0,0,1,2.25-1.55,7,7,0,0,1,2.79-.55,7.17,7.17,0,0,1,2.91.55,6,6,0,0,1,2.1,1.5,6.44,6.44,0,0,1,1.28,2.21A8.22,8.22,0,0,1,553.25,139.33Zm-2.07-.66a5.06,5.06,0,0,0-1.28-3.28,4.33,4.33,0,0,0-3.37-1.31,4.72,4.72,0,0,0-1.89.38,5,5,0,0,0-1.53,1,5.06,5.06,0,0,0-1,1.47,4.75,4.75,0,0,0-.45,1.73Z"/>
      </g>
      <g>
        <path class="mainMap-cls-2" d="M130.93,311.8H131l5.31-18.27h2.58l5.31,18.27h.06l5.19-18.27h2.28l-6.27,21.24h-2.52l-5.34-18.24h-.06l-5.34,18.24h-2.52l-6.27-21.24h2.28Z"/>
        <path class="mainMap-cls-2" d="M167.53,307.33v.45a4.73,4.73,0,0,1,0,.51H155.86a5.46,5.46,0,0,0,.42,2,5,5,0,0,0,1.08,1.62A5.2,5.2,0,0,0,159,313a5.36,5.36,0,0,0,4.75-.33,5.5,5.5,0,0,0,1.75-1.69l1.53,1.2a7.61,7.61,0,0,1-2.78,2.28,7.76,7.76,0,0,1-3.25.69,7.46,7.46,0,0,1-2.9-.56A6.76,6.76,0,0,1,155.8,313a7.32,7.32,0,0,1-1.52-2.34,7.66,7.66,0,0,1-.55-2.94,7.84,7.84,0,0,1,.54-2.94,7.1,7.1,0,0,1,1.5-2.34,6.89,6.89,0,0,1,2.25-1.54,7,7,0,0,1,2.79-.56,7.16,7.16,0,0,1,2.91.56,6,6,0,0,1,2.1,1.5,6.44,6.44,0,0,1,1.27,2.21A8.22,8.22,0,0,1,167.53,307.33Zm-2.07-.66a5.06,5.06,0,0,0-1.28-3.29,4.33,4.33,0,0,0-3.37-1.31,4.74,4.74,0,0,0-1.89.38,5,5,0,0,0-1.53,1,5.08,5.08,0,0,0-1,1.47,4.74,4.74,0,0,0-.45,1.73Z"/>
        <path class="mainMap-cls-2" d="M180.37,304.06a3.58,3.58,0,0,0-1.36-1.42,3.94,3.94,0,0,0-2.08-.56,5,5,0,0,0-1.08.12,2.92,2.92,0,0,0-1,.39,2.12,2.12,0,0,0-.68.69,1.87,1.87,0,0,0-.25,1,1.7,1.7,0,0,0,.81,1.51,7.77,7.77,0,0,0,2.55.89,8.52,8.52,0,0,1,3.68,1.48,3.23,3.23,0,0,1,1.19,2.63,3.88,3.88,0,0,1-1.68,3.38,4.88,4.88,0,0,1-1.69.75,8.18,8.18,0,0,1-1.91.23,7.6,7.6,0,0,1-3.09-.66,5.71,5.71,0,0,1-2.46-2.07l1.62-1.2a4.58,4.58,0,0,0,3.9,2.19,6.41,6.41,0,0,0,1.26-.12,2.9,2.9,0,0,0,1.05-.42,2.3,2.3,0,0,0,.72-.76,2.27,2.27,0,0,0,.27-1.16,1.78,1.78,0,0,0-1.06-1.67,13.94,13.94,0,0,0-3.08-1q-.63-.15-1.33-.37a4.59,4.59,0,0,1-1.3-.66,3.57,3.57,0,0,1-1-1.09,3.2,3.2,0,0,1-.39-1.65,3.77,3.77,0,0,1,.42-1.84,3.68,3.68,0,0,1,1.13-1.26,5,5,0,0,1,1.6-.74,7.18,7.18,0,0,1,1.86-.24,6.54,6.54,0,0,1,2.85.66,4.6,4.6,0,0,1,2.07,1.86Z"/>
        <path class="mainMap-cls-2" d="M193.54,302.44h-4v8.19a4.64,4.64,0,0,0,.15,1.29,1.83,1.83,0,0,0,.43.79,1.47,1.47,0,0,0,.68.39,3.21,3.21,0,0,0,.84.11,3.55,3.55,0,0,0,.89-.12,4.51,4.51,0,0,0,.88-.33l.09,1.77a6,6,0,0,1-1.12.32,7.29,7.29,0,0,1-1.27.1,5.2,5.2,0,0,1-1.2-.15,3,3,0,0,1-1.17-.57,3.12,3.12,0,0,1-.88-1.14,4.41,4.41,0,0,1-.35-1.89v-8.76h-2.91v-1.71h2.91v-4h2v4h4Z"/>
        <path class="mainMap-cls-2" d="M87.9,329.53h2.16v9.21h11.58v-9.21h2.16v21.24h-2.16v-10H90.06v10H87.9Z"/>
        <path class="mainMap-cls-2" d="M112.8,331.33a1.33,1.33,0,0,1-.45,1,1.41,1.41,0,0,1-2,0,1.42,1.42,0,0,1,0-2.07,1.41,1.41,0,0,1,2,0A1.33,1.33,0,0,1,112.8,331.33Zm-.42,19.44h-2v-14h2Z"/>
        <path class="mainMap-cls-2" d="M119.55,353.59a6.79,6.79,0,0,0,2.29,1.83,7.09,7.09,0,0,0,5.63.31,4.43,4.43,0,0,0,1.69-1.18,4.73,4.73,0,0,0,.94-1.75,7.48,7.48,0,0,0,.3-2.15V348h-.06a5.37,5.37,0,0,1-2.29,2,6.85,6.85,0,0,1-3,.72,7.89,7.89,0,0,1-3-.54,6.77,6.77,0,0,1-2.28-1.49,6.61,6.61,0,0,1-1.47-2.26,7.64,7.64,0,0,1-.52-2.85,7.56,7.56,0,0,1,.52-2.82,7.1,7.1,0,0,1,1.47-2.31,6.8,6.8,0,0,1,2.28-1.56,7.53,7.53,0,0,1,3-.57,6.75,6.75,0,0,1,3,.72,5.52,5.52,0,0,1,2.31,2.07h.06v-2.43h2v13.92a10.26,10.26,0,0,1-.31,2.43,6.12,6.12,0,0,1-1.17,2.37,6.62,6.62,0,0,1-2.33,1.8,8.69,8.69,0,0,1-3.81.72,9.46,9.46,0,0,1-3.72-.75,9,9,0,0,1-3-2.07Zm.39-10a6.09,6.09,0,0,0,.36,2.1,5.25,5.25,0,0,0,1,1.74,4.8,4.8,0,0,0,1.67,1.19,5.54,5.54,0,0,0,2.25.43,5.85,5.85,0,0,0,2.16-.39,4.94,4.94,0,0,0,1.71-1.11,5.1,5.1,0,0,0,1.13-1.72,5.93,5.93,0,0,0,.4-2.24,5.47,5.47,0,0,0-3.24-5,5.16,5.16,0,0,0-2.16-.45,5.38,5.38,0,0,0-2.25.45,5,5,0,0,0-1.67,1.2,5.26,5.26,0,0,0-1,1.74A6.09,6.09,0,0,0,119.94,343.57Z"/>
        <path class="mainMap-cls-2" d="M140.91,339a4.23,4.23,0,0,1,1.89-1.95,5.79,5.79,0,0,1,2.82-.72,4.93,4.93,0,0,1,4,1.59,6.32,6.32,0,0,1,1.33,4.2v8.61h-2V343a10.29,10.29,0,0,0-.18-2,4.22,4.22,0,0,0-.61-1.54,3,3,0,0,0-1.17-1,4.18,4.18,0,0,0-1.84-.36,4,4,0,0,0-1.58.33,3.89,3.89,0,0,0-1.36,1,5,5,0,0,0-1,1.71,7.44,7.44,0,0,0-.36,2.44v7.2h-2V328.09h2V339Z"/>
        <path class="mainMap-cls-2" d="M159.33,350.77h-2V328.09h2Z"/>
        <path class="mainMap-cls-2" d="M174.63,341.68a3.53,3.53,0,0,0-1-2.71,4,4,0,0,0-2.79-.89,6,6,0,0,0-2.34.45,5.6,5.6,0,0,0-1.83,1.2l-1.14-1.35a6.72,6.72,0,0,1,2.29-1.44,8.62,8.62,0,0,1,3.22-.57,7,7,0,0,1,2.13.32,5.06,5.06,0,0,1,1.74.95,4.28,4.28,0,0,1,1.17,1.59,5.57,5.57,0,0,1,.42,2.25v6.15q0,.81.06,1.68a11.76,11.76,0,0,0,.18,1.47H175q-.09-.51-.15-1.11a11.58,11.58,0,0,1-.06-1.17h-.06a5.92,5.92,0,0,1-2.17,2,6.43,6.43,0,0,1-2.93.62,6.56,6.56,0,0,1-1.66-.23,4.65,4.65,0,0,1-1.56-.74,4.16,4.16,0,0,1-1.17-1.33,3.94,3.94,0,0,1-.47-2,3.78,3.78,0,0,1,.83-2.57,5,5,0,0,1,2.21-1.42,13,13,0,0,1,3.17-.6q1.78-.13,3.7-.13Zm-.6,2.07q-1.26,0-2.54.1a11.07,11.07,0,0,0-2.31.42,4.37,4.37,0,0,0-1.69.92,2,2,0,0,0-.66,1.59,2.55,2.55,0,0,0,.29,1.26,2.32,2.32,0,0,0,.76.83,3.26,3.26,0,0,0,1.07.45,5.26,5.26,0,0,0,1.18.13,4.65,4.65,0,0,0,1.92-.37,4.07,4.07,0,0,0,1.41-1,4.51,4.51,0,0,0,.87-1.49,5.22,5.22,0,0,0,.3-1.77v-1Z"/>
        <path class="mainMap-cls-2" d="M184.61,336.73q.06.57.09,1.26c0,.46,0,.84,0,1.14h.06a4.62,4.62,0,0,1,2-2,5.7,5.7,0,0,1,2.85-.77,4.93,4.93,0,0,1,4,1.59,6.32,6.32,0,0,1,1.33,4.2v8.61h-2V343a10.29,10.29,0,0,0-.18-2,4.22,4.22,0,0,0-.61-1.54,3,3,0,0,0-1.17-1,4.18,4.18,0,0,0-1.85-.36,4,4,0,0,0-1.58.33,3.89,3.89,0,0,0-1.36,1,5,5,0,0,0-1,1.71,7.44,7.44,0,0,0-.36,2.44v7.2h-2v-11q0-.57,0-1.47t-.09-1.62Z"/>
        <path class="mainMap-cls-2" d="M212.75,348.4a5.76,5.76,0,0,1-2.34,2,6.8,6.8,0,0,1-3,.69,7.53,7.53,0,0,1-3-.57,6.81,6.81,0,0,1-2.28-1.56,7,7,0,0,1-1.47-2.34,8.33,8.33,0,0,1,0-5.82,7,7,0,0,1,1.47-2.34,6.8,6.8,0,0,1,2.28-1.56,7.53,7.53,0,0,1,3-.57,6.68,6.68,0,0,1,3,.71,5.81,5.81,0,0,1,2.34,2.08h.06V328.09h2v22.68h-2V348.4Zm-10.41-4.65a6.65,6.65,0,0,0,.36,2.2,5.34,5.34,0,0,0,1,1.8,4.71,4.71,0,0,0,1.67,1.2,5.52,5.52,0,0,0,2.25.44,5.3,5.3,0,0,0,3.87-1.62,5.37,5.37,0,0,0,1.13-1.79,6.37,6.37,0,0,0,0-4.47,5.53,5.53,0,0,0-1.12-1.8,5.17,5.17,0,0,0-1.71-1.2,5.31,5.31,0,0,0-2.16-.44,5.38,5.38,0,0,0-2.25.45,4.89,4.89,0,0,0-1.67,1.21,5.34,5.34,0,0,0-1,1.8A6.66,6.66,0,0,0,202.34,343.75Z"/>
        <path class="mainMap-cls-2" d="M228.77,340.06a3.58,3.58,0,0,0-1.36-1.42,3.94,3.94,0,0,0-2.08-.56,5,5,0,0,0-1.08.12,2.92,2.92,0,0,0-1,.39,2.12,2.12,0,0,0-.68.69,1.87,1.87,0,0,0-.25,1,1.7,1.7,0,0,0,.81,1.51,7.77,7.77,0,0,0,2.55.89,8.52,8.52,0,0,1,3.68,1.48,3.23,3.23,0,0,1,1.19,2.63,3.88,3.88,0,0,1-1.68,3.38,4.88,4.88,0,0,1-1.69.75,8.18,8.18,0,0,1-1.91.23,7.6,7.6,0,0,1-3.09-.66,5.71,5.71,0,0,1-2.46-2.07l1.62-1.2a4.58,4.58,0,0,0,3.9,2.19,6.41,6.41,0,0,0,1.26-.12,2.9,2.9,0,0,0,1.05-.42,2.3,2.3,0,0,0,.72-.76,2.27,2.27,0,0,0,.27-1.16,1.78,1.78,0,0,0-1.06-1.67,13.94,13.94,0,0,0-3.08-1q-.63-.15-1.33-.37a4.59,4.59,0,0,1-1.3-.66,3.57,3.57,0,0,1-1-1.09,3.2,3.2,0,0,1-.39-1.65,3.77,3.77,0,0,1,.42-1.84,3.68,3.68,0,0,1,1.13-1.26,5,5,0,0,1,1.6-.74,7.18,7.18,0,0,1,1.86-.24,6.54,6.54,0,0,1,2.85.66,4.6,4.6,0,0,1,2.07,1.86Z"/>
      </g>
      <g>
        <path class="mainMap-cls-6" d="M439.79,311.85h9.9v1.92H437.63V292.53h2.16Z"/>
        <path class="mainMap-cls-6" d="M467.21,306.75a7.65,7.65,0,0,1-.55,2.94,7.07,7.07,0,0,1-1.54,2.34,7,7,0,0,1-2.37,1.54,8.06,8.06,0,0,1-3,.55,8,8,0,0,1-3-.55,6.93,6.93,0,0,1-3.91-3.88,8.07,8.07,0,0,1,0-5.88,6.93,6.93,0,0,1,3.91-3.89,8,8,0,0,1,3-.55,8.08,8.08,0,0,1,3,.55,6.93,6.93,0,0,1,3.91,3.89A7.65,7.65,0,0,1,467.21,306.75Zm-2.16,0a6.44,6.44,0,0,0-.37-2.21,5.42,5.42,0,0,0-1.07-1.8,5,5,0,0,0-1.68-1.21,5.31,5.31,0,0,0-2.22-.45,5.21,5.21,0,0,0-2.21.45,5.09,5.09,0,0,0-1.66,1.21,5.38,5.38,0,0,0-1.07,1.8,6.67,6.67,0,0,0,0,4.41,5.39,5.39,0,0,0,1.07,1.8,4.89,4.89,0,0,0,1.66,1.2,5.37,5.37,0,0,0,2.21.43,5.48,5.48,0,0,0,2.22-.43,4.86,4.86,0,0,0,1.68-1.2,5.42,5.42,0,0,0,1.07-1.8A6.45,6.45,0,0,0,465,306.75Z"/>
        <path class="mainMap-cls-6" d="M472.85,299.73l3.39,11.4h.06l3.78-11.4h2l3.84,11.4H486l3.36-11.4h2.16l-4.44,14h-2.22l-3.75-11.37H481l-3.69,11.37H475.1l-4.44-14Z"/>
        <path class="mainMap-cls-6" d="M508.73,306.33v.45a4.74,4.74,0,0,1,0,.51H497.05a5.47,5.47,0,0,0,.42,2,5,5,0,0,0,1.08,1.62,5.2,5.2,0,0,0,1.62,1.09,5.36,5.36,0,0,0,4.75-.33,5.49,5.49,0,0,0,1.76-1.7l1.53,1.2a7.61,7.61,0,0,1-2.77,2.28,7.76,7.76,0,0,1-3.25.69,7.46,7.46,0,0,1-2.9-.55A6.77,6.77,0,0,1,497,312a7.29,7.29,0,0,1-1.51-2.34,7.63,7.63,0,0,1-.56-2.94,7.86,7.86,0,0,1,.54-2.94,7.13,7.13,0,0,1,1.5-2.34,6.91,6.91,0,0,1,2.25-1.55,7,7,0,0,1,2.79-.55,7.18,7.18,0,0,1,2.91.55,6,6,0,0,1,2.1,1.5,6.45,6.45,0,0,1,1.28,2.21A8.22,8.22,0,0,1,508.73,306.33Zm-2.07-.66a5.06,5.06,0,0,0-1.28-3.29,4.33,4.33,0,0,0-3.37-1.3,4.72,4.72,0,0,0-1.89.38,5,5,0,0,0-1.53,1,5.06,5.06,0,0,0-1,1.47,4.74,4.74,0,0,0-.45,1.73Z"/>
        <path class="mainMap-cls-6" d="M514.06,301.35c0-.6,0-1.14-.09-1.62h2q.06.57.09,1.26c0,.46,0,.84,0,1.14h.06a4.86,4.86,0,0,1,1.8-2,4.92,4.92,0,0,1,2.7-.77c.26,0,.5,0,.71,0a3.82,3.82,0,0,1,.64.12l-.27,2a3.85,3.85,0,0,0-.6-.12,5.94,5.94,0,0,0-.84-.06,4.16,4.16,0,0,0-1.56.3,3.36,3.36,0,0,0-1.3.94,5,5,0,0,0-.9,1.65,7.43,7.43,0,0,0-.34,2.41v7.18h-2v-11Q514.09,302.25,514.06,301.35Z"/>
        <path class="mainMap-cls-6" d="M407.9,328.53h2.16v9.21h11.58v-9.21h2.16v21.24h-2.16v-10H410.06v10H407.9Z"/>
        <path class="mainMap-cls-6" d="M432.8,330.33a1.33,1.33,0,0,1-.45,1,1.41,1.41,0,0,1-2,0,1.42,1.42,0,0,1,0-2.07,1.41,1.41,0,0,1,2,0A1.33,1.33,0,0,1,432.8,330.33Zm-.42,19.44h-2v-14h2Z"/>
        <path class="mainMap-cls-6" d="M439.55,352.59a6.8,6.8,0,0,0,2.29,1.83,7.09,7.09,0,0,0,5.63.31,4.42,4.42,0,0,0,1.69-1.18,4.72,4.72,0,0,0,.95-1.75,7.5,7.5,0,0,0,.3-2.15V347h-.06a5.37,5.37,0,0,1-2.29,2,6.85,6.85,0,0,1-3,.72,7.89,7.89,0,0,1-3-.54,6.76,6.76,0,0,1-2.28-1.49,6.61,6.61,0,0,1-1.47-2.26,7.65,7.65,0,0,1-.53-2.85,7.57,7.57,0,0,1,.53-2.82,7.1,7.1,0,0,1,1.47-2.31,6.79,6.79,0,0,1,2.28-1.56,7.53,7.53,0,0,1,3-.57,6.74,6.74,0,0,1,3,.72,5.52,5.52,0,0,1,2.31,2.07h.06v-2.43h2v13.92a10.26,10.26,0,0,1-.31,2.43,6.11,6.11,0,0,1-1.17,2.37,6.62,6.62,0,0,1-2.33,1.8,8.69,8.69,0,0,1-3.81.72,9.45,9.45,0,0,1-3.72-.75,9,9,0,0,1-3-2.07Zm.39-10a6.09,6.09,0,0,0,.36,2.1,5.25,5.25,0,0,0,1,1.74,4.81,4.81,0,0,0,1.67,1.19,5.54,5.54,0,0,0,2.25.43,5.85,5.85,0,0,0,2.16-.39,4.94,4.94,0,0,0,1.71-1.11,5.09,5.09,0,0,0,1.13-1.72,5.92,5.92,0,0,0,.41-2.24,5.47,5.47,0,0,0-3.24-5,5.16,5.16,0,0,0-2.16-.45,5.38,5.38,0,0,0-2.25.45,5,5,0,0,0-1.67,1.2,5.26,5.26,0,0,0-1,1.74A6.09,6.09,0,0,0,439.94,342.57Z"/>
        <path class="mainMap-cls-6" d="M460.91,338a4.23,4.23,0,0,1,1.89-1.95,5.8,5.8,0,0,1,2.82-.72,4.94,4.94,0,0,1,4,1.59,6.32,6.32,0,0,1,1.33,4.2v8.61h-2V342a10.28,10.28,0,0,0-.18-2,4.23,4.23,0,0,0-.61-1.54,3,3,0,0,0-1.17-1,4.18,4.18,0,0,0-1.84-.36,4,4,0,0,0-1.58.33,3.88,3.88,0,0,0-1.36,1,5,5,0,0,0-1,1.71,7.45,7.45,0,0,0-.36,2.44v7.2h-2V327.09h2V338Z"/>
        <path class="mainMap-cls-6" d="M479.33,349.77h-2V327.09h2Z"/>
        <path class="mainMap-cls-6" d="M494.63,340.68a3.53,3.53,0,0,0-1-2.71,4,4,0,0,0-2.79-.89,6,6,0,0,0-2.34.45,5.6,5.6,0,0,0-1.83,1.2l-1.14-1.35a6.73,6.73,0,0,1,2.29-1.44,8.62,8.62,0,0,1,3.22-.57,7,7,0,0,1,2.13.32,5.06,5.06,0,0,1,1.74.95,4.28,4.28,0,0,1,1.17,1.59,5.57,5.57,0,0,1,.42,2.25v6.15q0,.81.06,1.68a11.77,11.77,0,0,0,.18,1.47H495c-.06-.34-.11-.71-.15-1.11a11.44,11.44,0,0,1-.06-1.17h-.06a5.92,5.92,0,0,1-2.18,2,6.42,6.42,0,0,1-2.92.62,6.56,6.56,0,0,1-1.67-.23,4.66,4.66,0,0,1-1.56-.74,4.16,4.16,0,0,1-1.17-1.33,3.94,3.94,0,0,1-.46-2,3.78,3.78,0,0,1,.82-2.57,5,5,0,0,1,2.21-1.42,13,13,0,0,1,3.17-.6q1.79-.13,3.71-.13Zm-.6,2.07q-1.26,0-2.54.1a11.06,11.06,0,0,0-2.31.42,4.37,4.37,0,0,0-1.7.92,2,2,0,0,0-.66,1.59,2.55,2.55,0,0,0,.29,1.26,2.32,2.32,0,0,0,.76.83,3.26,3.26,0,0,0,1.07.45,5.25,5.25,0,0,0,1.18.13,4.65,4.65,0,0,0,1.92-.37,4.07,4.07,0,0,0,1.41-1,4.51,4.51,0,0,0,.87-1.49,5.24,5.24,0,0,0,.3-1.77v-1Z"/>
        <path class="mainMap-cls-6" d="M504.62,335.73q.06.57.09,1.26c0,.46,0,.84,0,1.14h.06a4.61,4.61,0,0,1,2-2,5.69,5.69,0,0,1,2.85-.77,4.93,4.93,0,0,1,4,1.59,6.32,6.32,0,0,1,1.33,4.2v8.61h-2V342a10.29,10.29,0,0,0-.18-2,4.22,4.22,0,0,0-.62-1.54,2.94,2.94,0,0,0-1.17-1,4.18,4.18,0,0,0-1.84-.36,3.94,3.94,0,0,0-1.58.33,3.89,3.89,0,0,0-1.37,1,5,5,0,0,0-1,1.71,7.47,7.47,0,0,0-.36,2.44v7.2h-2v-11q0-.57,0-1.47t-.09-1.62Z"/>
        <path class="mainMap-cls-6" d="M532.75,347.4a5.75,5.75,0,0,1-2.34,2,6.8,6.8,0,0,1-3,.69,7.53,7.53,0,0,1-3-.57,6.8,6.8,0,0,1-2.28-1.56,7,7,0,0,1-1.47-2.34,8.32,8.32,0,0,1,0-5.82,7,7,0,0,1,1.47-2.34,6.79,6.79,0,0,1,2.28-1.56,7.53,7.53,0,0,1,3-.57,6.68,6.68,0,0,1,3,.71,5.81,5.81,0,0,1,2.34,2.08h.06V327.09h2v22.68h-2V347.4Zm-10.41-4.65a6.65,6.65,0,0,0,.36,2.2,5.34,5.34,0,0,0,1,1.8,4.7,4.7,0,0,0,1.67,1.2,5.52,5.52,0,0,0,2.25.44,5.3,5.3,0,0,0,3.87-1.62,5.35,5.35,0,0,0,1.13-1.79,6.36,6.36,0,0,0,0-4.47,5.52,5.52,0,0,0-1.12-1.8,5.17,5.17,0,0,0-1.71-1.2,5.31,5.31,0,0,0-2.16-.44,5.38,5.38,0,0,0-2.25.45,4.87,4.87,0,0,0-1.67,1.21,5.34,5.34,0,0,0-1,1.8A6.66,6.66,0,0,0,522.34,342.75Z"/>
        <path class="mainMap-cls-6" d="M548.77,339.06a3.58,3.58,0,0,0-1.37-1.42,3.94,3.94,0,0,0-2.08-.56,5,5,0,0,0-1.08.12,2.93,2.93,0,0,0-1,.39,2.12,2.12,0,0,0-.67.69,1.87,1.87,0,0,0-.25,1,1.7,1.7,0,0,0,.81,1.51,7.78,7.78,0,0,0,2.55.89,8.52,8.52,0,0,1,3.67,1.48,3.22,3.22,0,0,1,1.18,2.63,3.88,3.88,0,0,1-1.68,3.38,4.89,4.89,0,0,1-1.7.75,8.17,8.17,0,0,1-1.9.23,7.61,7.61,0,0,1-3.09-.66,5.72,5.72,0,0,1-2.46-2.07l1.62-1.2a4.58,4.58,0,0,0,3.9,2.19,6.41,6.41,0,0,0,1.26-.12,2.89,2.89,0,0,0,1-.42,2.31,2.31,0,0,0,.72-.76,2.27,2.27,0,0,0,.27-1.16,1.78,1.78,0,0,0-1.07-1.67,13.92,13.92,0,0,0-3.07-1q-.63-.15-1.33-.37a4.59,4.59,0,0,1-1.31-.66,3.55,3.55,0,0,1-1-1.09,3.19,3.19,0,0,1-.39-1.65,3.78,3.78,0,0,1,.42-1.84,3.69,3.69,0,0,1,1.13-1.26,5,5,0,0,1,1.61-.74,7.18,7.18,0,0,1,1.86-.24,6.54,6.54,0,0,1,2.85.66,4.6,4.6,0,0,1,2.07,1.86Z"/>
      </g>
      <g>
        <path class="mainMap-cls-5" d="M120,491.95a5.2,5.2,0,0,0-1.77-1.54,5.41,5.41,0,0,0-2.61-.58,5.57,5.57,0,0,0-1.59.24,4.61,4.61,0,0,0-1.47.74,3.79,3.79,0,0,0-1.06,1.24,3.68,3.68,0,0,0-.4,1.77,3.27,3.27,0,0,0,.39,1.68,3.68,3.68,0,0,0,1,1.13,6,6,0,0,0,1.47.77l1.72.6q1.11.36,2.23.78a8,8,0,0,1,2,1.09,5.31,5.31,0,0,1,1.47,1.71,5.41,5.41,0,0,1,.57,2.63,5.83,5.83,0,0,1-.61,2.75,5.75,5.75,0,0,1-1.58,1.91,6.53,6.53,0,0,1-2.21,1.11,9,9,0,0,1-2.5.36,9.63,9.63,0,0,1-1.92-.2,8.69,8.69,0,0,1-1.83-.58,7.46,7.46,0,0,1-1.62-1,7.16,7.16,0,0,1-1.32-1.38l1.86-1.38a5.68,5.68,0,0,0,1.94,1.91,5.48,5.48,0,0,0,2.93.76,5.67,5.67,0,0,0,1.65-.25,4.63,4.63,0,0,0,1.51-.78,4.31,4.31,0,0,0,1.11-1.29,4,4,0,0,0,0-3.63,3.88,3.88,0,0,0-1.16-1.23,7.1,7.1,0,0,0-1.65-.83l-1.95-.66q-1.05-.33-2.07-.75a7,7,0,0,1-1.83-1.09,5.11,5.11,0,0,1-1.3-1.67,6.09,6.09,0,0,1,.12-5.07,5.57,5.57,0,0,1,1.6-1.83,6.75,6.75,0,0,1,2.19-1,8.92,8.92,0,0,1,2.37-.33,8.17,8.17,0,0,1,3.69.77,6.34,6.34,0,0,1,2.31,1.81Z"/>
        <path class="mainMap-cls-5" d="M129.6,509.77h-2V487.09h2Z"/>
        <path class="mainMap-cls-5" d="M150,502.75a7.66,7.66,0,0,1-.55,2.94A7.08,7.08,0,0,1,147.9,508a7,7,0,0,1-2.37,1.54,8.05,8.05,0,0,1-3,.56,8,8,0,0,1-3-.56,7,7,0,0,1-2.37-1.54,7.08,7.08,0,0,1-1.54-2.34,8.07,8.07,0,0,1,0-5.88,7.08,7.08,0,0,1,1.54-2.34,7,7,0,0,1,2.37-1.54,8,8,0,0,1,3-.56,8.05,8.05,0,0,1,3,.56,7,7,0,0,1,2.37,1.54,7.08,7.08,0,0,1,1.55,2.34A7.67,7.67,0,0,1,150,502.75Zm-2.16,0a6.43,6.43,0,0,0-.37-2.21,5.42,5.42,0,0,0-1.07-1.8,5,5,0,0,0-1.68-1.21,5.31,5.31,0,0,0-2.22-.45,5.21,5.21,0,0,0-2.21.45,5.08,5.08,0,0,0-1.67,1.21,5.41,5.41,0,0,0-1.06,1.8,6.67,6.67,0,0,0,0,4.41,5.41,5.41,0,0,0,1.06,1.8,4.89,4.89,0,0,0,1.67,1.2,5.34,5.34,0,0,0,2.21.44,5.45,5.45,0,0,0,2.22-.44,4.86,4.86,0,0,0,1.68-1.2,5.42,5.42,0,0,0,1.07-1.8A6.43,6.43,0,0,0,147.84,502.75Z"/>
        <path class="mainMap-cls-5" d="M164.22,500.68a3.53,3.53,0,0,0-1-2.71,4,4,0,0,0-2.79-.89,6,6,0,0,0-2.34.45,5.6,5.6,0,0,0-1.83,1.2l-1.14-1.35a6.72,6.72,0,0,1,2.29-1.44,8.62,8.62,0,0,1,3.22-.57,7,7,0,0,1,2.13.32,5.06,5.06,0,0,1,1.74.95,4.28,4.28,0,0,1,1.17,1.59,5.57,5.57,0,0,1,.42,2.25v6.15q0,.81.06,1.68a11.76,11.76,0,0,0,.18,1.47h-1.83q-.09-.51-.15-1.11a11.58,11.58,0,0,1-.06-1.17h-.06a5.92,5.92,0,0,1-2.17,2,6.43,6.43,0,0,1-2.93.62,6.56,6.56,0,0,1-1.66-.23,4.65,4.65,0,0,1-1.56-.74,4.16,4.16,0,0,1-1.17-1.33,3.94,3.94,0,0,1-.47-2,3.78,3.78,0,0,1,.83-2.57,5,5,0,0,1,2.21-1.42,13,13,0,0,1,3.17-.6q1.78-.13,3.7-.13Zm-.6,2.07q-1.26,0-2.54.1a11.07,11.07,0,0,0-2.31.42,4.37,4.37,0,0,0-1.69.92,2,2,0,0,0-.66,1.59,2.55,2.55,0,0,0,.29,1.26,2.32,2.32,0,0,0,.76.83,3.26,3.26,0,0,0,1.07.45,5.26,5.26,0,0,0,1.18.13,4.65,4.65,0,0,0,1.92-.37,4.07,4.07,0,0,0,1.41-1,4.51,4.51,0,0,0,.87-1.49,5.22,5.22,0,0,0,.3-1.77v-1Z"/>
        <path class="mainMap-cls-5" d="M174.21,495.73q.06.57.09,1.26c0,.46,0,.84,0,1.14h.06a4.62,4.62,0,0,1,2-2,5.7,5.7,0,0,1,2.85-.77,4.93,4.93,0,0,1,4,1.59,6.32,6.32,0,0,1,1.33,4.2v8.61h-2V502a10.29,10.29,0,0,0-.18-2,4.22,4.22,0,0,0-.61-1.54,3,3,0,0,0-1.17-1,4.18,4.18,0,0,0-1.85-.36,4,4,0,0,0-1.58.33,3.89,3.89,0,0,0-1.36,1,5,5,0,0,0-1,1.71,7.44,7.44,0,0,0-.36,2.44v7.2h-2v-11q0-.57,0-1.47t-.09-1.62Z"/>
        <path class="mainMap-cls-5" d="M191.07,495.58h-1.71l2-7h2.13Z"/>
        <path class="mainMap-cls-5" d="M204.47,499.06a3.58,3.58,0,0,0-1.36-1.42,3.94,3.94,0,0,0-2.08-.56,5,5,0,0,0-1.08.12,2.92,2.92,0,0,0-1,.39,2.12,2.12,0,0,0-.68.69,1.87,1.87,0,0,0-.25,1,1.7,1.7,0,0,0,.81,1.51,7.77,7.77,0,0,0,2.55.89,8.52,8.52,0,0,1,3.68,1.48,3.23,3.23,0,0,1,1.19,2.63,3.88,3.88,0,0,1-1.68,3.38,4.88,4.88,0,0,1-1.69.75,8.18,8.18,0,0,1-1.91.23,7.6,7.6,0,0,1-3.09-.66,5.71,5.71,0,0,1-2.46-2.07l1.62-1.2a4.58,4.58,0,0,0,3.9,2.19,6.41,6.41,0,0,0,1.26-.12,2.9,2.9,0,0,0,1.05-.42,2.3,2.3,0,0,0,.72-.76,2.27,2.27,0,0,0,.27-1.16,1.78,1.78,0,0,0-1.06-1.67,13.94,13.94,0,0,0-3.08-1q-.63-.15-1.33-.37a4.59,4.59,0,0,1-1.3-.66,3.57,3.57,0,0,1-1-1.09,3.2,3.2,0,0,1-.39-1.65,3.77,3.77,0,0,1,.42-1.84,3.68,3.68,0,0,1,1.13-1.26,5,5,0,0,1,1.6-.74,7.18,7.18,0,0,1,1.86-.24A6.54,6.54,0,0,1,204,496a4.6,4.6,0,0,1,2.07,1.86Z"/>
        <path class="mainMap-cls-5" d="M133.38,543.85h9.9v1.92H131.21V524.53h2.16Z"/>
        <path class="mainMap-cls-5" d="M156.23,536.68a3.53,3.53,0,0,0-1-2.71,4,4,0,0,0-2.79-.89,6,6,0,0,0-2.34.45,5.6,5.6,0,0,0-1.83,1.2l-1.14-1.35a6.72,6.72,0,0,1,2.29-1.44,8.62,8.62,0,0,1,3.22-.57,7,7,0,0,1,2.13.32,5.06,5.06,0,0,1,1.74.95,4.28,4.28,0,0,1,1.17,1.59,5.57,5.57,0,0,1,.42,2.25v6.15q0,.81.06,1.68a11.76,11.76,0,0,0,.18,1.47h-1.83q-.09-.51-.15-1.11a11.58,11.58,0,0,1-.06-1.17h-.06a5.92,5.92,0,0,1-2.17,2,6.43,6.43,0,0,1-2.93.62,6.56,6.56,0,0,1-1.66-.23,4.65,4.65,0,0,1-1.56-.74,4.16,4.16,0,0,1-1.17-1.33,3.94,3.94,0,0,1-.47-2,3.78,3.78,0,0,1,.83-2.57,5,5,0,0,1,2.21-1.42,13,13,0,0,1,3.17-.6q1.78-.13,3.7-.13Zm-.6,2.07q-1.26,0-2.54.1a11.07,11.07,0,0,0-2.31.42,4.37,4.37,0,0,0-1.69.92,2,2,0,0,0-.66,1.59,2.55,2.55,0,0,0,.29,1.26,2.32,2.32,0,0,0,.76.83,3.26,3.26,0,0,0,1.07.45,5.26,5.26,0,0,0,1.18.13,4.65,4.65,0,0,0,1.92-.37,4.07,4.07,0,0,0,1.41-1,4.51,4.51,0,0,0,.87-1.49,5.22,5.22,0,0,0,.3-1.77v-1Z"/>
        <path class="mainMap-cls-5" d="M166.49,538.06h.09l6.48-6.33H176l-7.08,6.42,7.8,7.62h-3l-7.14-7.38h-.09v7.38h-2V523.09h2Z"/>
        <path class="mainMap-cls-5" d="M192.92,538.33v.45a4.73,4.73,0,0,1,0,.51H181.25a5.46,5.46,0,0,0,.42,2,5,5,0,0,0,1.08,1.62,5.2,5.2,0,0,0,1.62,1.09,5.36,5.36,0,0,0,4.75-.33,5.5,5.5,0,0,0,1.75-1.69l1.53,1.2a7.61,7.61,0,0,1-2.78,2.28,7.76,7.76,0,0,1-3.25.69,7.46,7.46,0,0,1-2.9-.56,6.76,6.76,0,0,1-2.29-1.54,7.32,7.32,0,0,1-1.52-2.34,7.66,7.66,0,0,1-.55-2.94,7.84,7.84,0,0,1,.54-2.94,7.1,7.1,0,0,1,1.5-2.34,6.89,6.89,0,0,1,2.25-1.54,7,7,0,0,1,2.79-.56,7.16,7.16,0,0,1,2.91.56,6,6,0,0,1,2.1,1.5,6.44,6.44,0,0,1,1.27,2.21A8.22,8.22,0,0,1,192.92,538.33Zm-2.07-.66a5.06,5.06,0,0,0-1.28-3.29,4.33,4.33,0,0,0-3.37-1.31,4.74,4.74,0,0,0-1.89.38,5,5,0,0,0-1.53,1,5.08,5.08,0,0,0-1,1.47,4.74,4.74,0,0,0-.45,1.73Z"/>
      </g>
      <g>
        <path class="mainMap-cls-1" d="M339,464.42a3.87,3.87,0,0,0,1.13,2.11,3.2,3.2,0,0,0,2.33.86,3.71,3.71,0,0,0,1.83-.4,3.19,3.19,0,0,0,1.15-1.09,4.44,4.44,0,0,0,.6-1.57,10,10,0,0,0,.17-1.84V447.53h2.16v15.12a11.77,11.77,0,0,1-.23,2.22,6.15,6.15,0,0,1-.85,2.16,5,5,0,0,1-1.74,1.63,5.61,5.61,0,0,1-2.85.65,5.81,5.81,0,0,1-3.81-1.23A5.31,5.31,0,0,1,337,465Z"/>
        <path class="mainMap-cls-1" d="M367.46,461.33v.45a4.73,4.73,0,0,1,0,.51H355.79a5.47,5.47,0,0,0,.42,2,5,5,0,0,0,1.08,1.62,5.2,5.2,0,0,0,1.62,1.09,5.36,5.36,0,0,0,4.75-.33,5.5,5.5,0,0,0,1.76-1.69l1.53,1.2a7.61,7.61,0,0,1-2.78,2.28,7.76,7.76,0,0,1-3.25.69,7.46,7.46,0,0,1-2.9-.56,6.77,6.77,0,0,1-2.29-1.54,7.31,7.31,0,0,1-1.51-2.34,7.64,7.64,0,0,1-.55-2.94,7.86,7.86,0,0,1,.54-2.94,7.11,7.11,0,0,1,1.5-2.34,6.91,6.91,0,0,1,2.25-1.54,7,7,0,0,1,2.79-.56,7.16,7.16,0,0,1,2.91.56,6,6,0,0,1,2.1,1.5,6.46,6.46,0,0,1,1.27,2.21A8.21,8.21,0,0,1,367.46,461.33Zm-2.07-.66a5.06,5.06,0,0,0-1.28-3.29,4.33,4.33,0,0,0-3.37-1.31,4.74,4.74,0,0,0-1.89.38,5.06,5.06,0,0,0-2.58,2.49,4.75,4.75,0,0,0-.45,1.73Z"/>
        <path class="mainMap-cls-1" d="M378.78,456.44h-3.3v12.33h-2V456.44H370.5v-1.71h2.94v-3.84a5.67,5.67,0,0,1,1.17-3.78,4.46,4.46,0,0,1,3.6-1.38,8.37,8.37,0,0,1,.84,0,4.31,4.31,0,0,1,.84.17l-.36,1.8-.66-.15a4.22,4.22,0,0,0-.75-.06,2.91,2.91,0,0,0-1.34.27,1.92,1.92,0,0,0-.81.76,3.33,3.33,0,0,0-.39,1.16,9,9,0,0,0-.11,1.41v3.6h3.3Z"/>
        <path class="mainMap-cls-1" d="M388.08,456.44h-3.3v12.33h-2V456.44H379.8v-1.71h2.94v-3.84a5.67,5.67,0,0,1,1.17-3.78,4.46,4.46,0,0,1,3.6-1.38,8.39,8.39,0,0,1,.84,0,4.32,4.32,0,0,1,.84.17l-.36,1.8-.66-.15a4.22,4.22,0,0,0-.75-.06,2.91,2.91,0,0,0-1.34.27,1.93,1.93,0,0,0-.81.76,3.33,3.33,0,0,0-.39,1.16,9,9,0,0,0-.11,1.41v3.6h3.3Z"/>
        <path class="mainMap-cls-1" d="M404.76,461.33v.45a4.74,4.74,0,0,1,0,.51H393.08a5.47,5.47,0,0,0,.42,2,5,5,0,0,0,1.08,1.62,5.2,5.2,0,0,0,1.62,1.09,5.36,5.36,0,0,0,4.75-.33,5.49,5.49,0,0,0,1.76-1.69l1.53,1.2a7.6,7.6,0,0,1-2.77,2.28,7.77,7.77,0,0,1-3.25.69,7.46,7.46,0,0,1-2.9-.56A6.77,6.77,0,0,1,393,467a7.29,7.29,0,0,1-1.51-2.34,7.64,7.64,0,0,1-.56-2.94,7.86,7.86,0,0,1,.54-2.94,7.13,7.13,0,0,1,1.5-2.34,6.89,6.89,0,0,1,2.25-1.54,7,7,0,0,1,2.79-.56,7.16,7.16,0,0,1,2.91.56,6,6,0,0,1,2.1,1.5,6.43,6.43,0,0,1,1.28,2.21A8.21,8.21,0,0,1,404.76,461.33Zm-2.07-.66a5.06,5.06,0,0,0-1.28-3.29,4.33,4.33,0,0,0-3.37-1.31,4.74,4.74,0,0,0-1.89.38,5,5,0,0,0-1.53,1,5.07,5.07,0,0,0-1,1.47,4.75,4.75,0,0,0-.45,1.73Z"/>
        <path class="mainMap-cls-1" d="M410.09,456.35q0-.9-.09-1.62h2q.06.57.09,1.26c0,.46,0,.84,0,1.14h.06a4.86,4.86,0,0,1,1.8-2,4.92,4.92,0,0,1,2.7-.77c.26,0,.5,0,.71,0a3.92,3.92,0,0,1,.64.12l-.27,2a3.85,3.85,0,0,0-.6-.12,5.94,5.94,0,0,0-.84-.06,4.18,4.18,0,0,0-1.56.3,3.35,3.35,0,0,0-1.3.94,4.94,4.94,0,0,0-.9,1.65,7.43,7.43,0,0,0-.34,2.41v7.18h-2v-11Q410.13,457.25,410.09,456.35Z"/>
        <path class="mainMap-cls-1" d="M429.38,458.06a3.58,3.58,0,0,0-1.37-1.42,3.94,3.94,0,0,0-2.08-.56,5,5,0,0,0-1.08.12,2.93,2.93,0,0,0-1,.39,2.12,2.12,0,0,0-.67.69,1.87,1.87,0,0,0-.25,1,1.7,1.7,0,0,0,.81,1.51,7.78,7.78,0,0,0,2.55.89,8.52,8.52,0,0,1,3.67,1.48,3.22,3.22,0,0,1,1.18,2.63,3.88,3.88,0,0,1-1.68,3.38,4.89,4.89,0,0,1-1.7.75,8.17,8.17,0,0,1-1.9.23,7.61,7.61,0,0,1-3.09-.66,5.72,5.72,0,0,1-2.46-2.07l1.62-1.2a4.58,4.58,0,0,0,3.9,2.19,6.41,6.41,0,0,0,1.26-.12,2.89,2.89,0,0,0,1-.42,2.31,2.31,0,0,0,.72-.76,2.27,2.27,0,0,0,.27-1.16,1.78,1.78,0,0,0-1.07-1.67,13.92,13.92,0,0,0-3.07-1q-.63-.15-1.33-.37a4.59,4.59,0,0,1-1.31-.66,3.55,3.55,0,0,1-1-1.09,3.19,3.19,0,0,1-.39-1.65,3.78,3.78,0,0,1,.42-1.84,3.69,3.69,0,0,1,1.13-1.26,5,5,0,0,1,1.61-.74,7.18,7.18,0,0,1,1.86-.24,6.54,6.54,0,0,1,2.85.66,4.6,4.6,0,0,1,2.07,1.86Z"/>
        <path class="mainMap-cls-1" d="M450.17,461.75a7.66,7.66,0,0,1-.56,2.94,7.07,7.07,0,0,1-1.54,2.34,7,7,0,0,1-2.37,1.54,8,8,0,0,1-3,.56,8,8,0,0,1-3-.56A7,7,0,0,1,437.3,467a7.05,7.05,0,0,1-1.54-2.34,8.06,8.06,0,0,1,0-5.88,6.93,6.93,0,0,1,3.92-3.88,8,8,0,0,1,3-.56,8,8,0,0,1,3,.56,6.93,6.93,0,0,1,3.92,3.88A7.66,7.66,0,0,1,450.17,461.75Zm-2.16,0a6.42,6.42,0,0,0-.37-2.21,5.43,5.43,0,0,0-1.07-1.8,5,5,0,0,0-1.68-1.21,5.31,5.31,0,0,0-2.22-.45,5.2,5.2,0,0,0-2.21.45,5.08,5.08,0,0,0-1.67,1.21,5.39,5.39,0,0,0-1.07,1.8,6.67,6.67,0,0,0,0,4.41,5.39,5.39,0,0,0,1.07,1.8,4.89,4.89,0,0,0,1.67,1.2,5.34,5.34,0,0,0,2.21.44,5.45,5.45,0,0,0,2.22-.44,4.85,4.85,0,0,0,1.68-1.2,5.43,5.43,0,0,0,1.07-1.8A6.42,6.42,0,0,0,448,461.75Z"/>
        <path class="mainMap-cls-1" d="M457.37,454.73q.06.57.09,1.26c0,.46,0,.84,0,1.14h.06a4.61,4.61,0,0,1,2-2,5.69,5.69,0,0,1,2.85-.77,4.93,4.93,0,0,1,4,1.59,6.32,6.32,0,0,1,1.33,4.2v8.61h-2V461a10.29,10.29,0,0,0-.18-2,4.22,4.22,0,0,0-.62-1.54,2.94,2.94,0,0,0-1.17-1,4.18,4.18,0,0,0-1.84-.36,3.94,3.94,0,0,0-1.58.33,3.89,3.89,0,0,0-1.37,1,5,5,0,0,0-1,1.71,7.47,7.47,0,0,0-.36,2.44v7.2h-2v-11q0-.57,0-1.47t-.09-1.62Z"/>
        <path class="mainMap-cls-1" d="M380,483.53h6a11.6,11.6,0,0,1,2.94.35,6.49,6.49,0,0,1,2.27,1,4.73,4.73,0,0,1,1.46,1.77,5.75,5.75,0,0,1,.51,2.5,5.61,5.61,0,0,1-.53,2.5,4.84,4.84,0,0,1-1.47,1.77,6.67,6.67,0,0,1-2.28,1.06,11.33,11.33,0,0,1-3,.36h-3.78v9.87H380Zm2.16,9.54h3.66a6.38,6.38,0,0,0,3.87-1A3.38,3.38,0,0,0,391,489.2a3.23,3.23,0,0,0-1.37-2.89,6.82,6.82,0,0,0-3.83-.92h-3.66Z"/>
        <path class="mainMap-cls-1" d="M405.29,495.68a3.53,3.53,0,0,0-1-2.71,4,4,0,0,0-2.79-.89,6,6,0,0,0-2.34.45,5.6,5.6,0,0,0-1.83,1.2l-1.14-1.35a6.73,6.73,0,0,1,2.29-1.44,8.62,8.62,0,0,1,3.22-.57,7,7,0,0,1,2.13.32,5.06,5.06,0,0,1,1.74.95,4.28,4.28,0,0,1,1.17,1.59,5.57,5.57,0,0,1,.42,2.25v6.15q0,.81.06,1.68a11.77,11.77,0,0,0,.18,1.47h-1.83c-.06-.34-.11-.71-.15-1.11a11.44,11.44,0,0,1-.06-1.17h-.06a5.92,5.92,0,0,1-2.18,2,6.42,6.42,0,0,1-2.92.62,6.56,6.56,0,0,1-1.67-.23,4.66,4.66,0,0,1-1.56-.74,4.16,4.16,0,0,1-1.17-1.33,3.94,3.94,0,0,1-.46-2,3.78,3.78,0,0,1,.82-2.57,5,5,0,0,1,2.21-1.42,13,13,0,0,1,3.17-.6q1.79-.13,3.71-.13Zm-.6,2.07q-1.26,0-2.54.1a11.06,11.06,0,0,0-2.31.42,4.37,4.37,0,0,0-1.7.92,2,2,0,0,0-.66,1.59,2.55,2.55,0,0,0,.29,1.26,2.32,2.32,0,0,0,.76.83,3.26,3.26,0,0,0,1.07.45,5.25,5.25,0,0,0,1.18.13,4.65,4.65,0,0,0,1.92-.37,4.07,4.07,0,0,0,1.41-1,4.51,4.51,0,0,0,.87-1.49,5.24,5.24,0,0,0,.3-1.77v-1Z"/>
        <path class="mainMap-cls-1" d="M413.42,492.35q0-.9-.09-1.62h2q.06.57.09,1.26c0,.46,0,.84,0,1.14h.06a4.86,4.86,0,0,1,1.8-2,4.92,4.92,0,0,1,2.7-.77c.26,0,.5,0,.71,0a3.92,3.92,0,0,1,.64.12l-.27,2a3.85,3.85,0,0,0-.6-.12,5.94,5.94,0,0,0-.84-.06,4.18,4.18,0,0,0-1.56.3,3.35,3.35,0,0,0-1.3.94,4.94,4.94,0,0,0-.9,1.65,7.43,7.43,0,0,0-.34,2.41v7.18h-2v-11Q413.46,493.25,413.42,492.35Z"/>
        <path class="mainMap-cls-1" d="M427.34,497.06h.09l6.48-6.33h2.94l-7.08,6.42,7.8,7.62h-3l-7.14-7.38h-.09v7.38h-2V482.09h2Z"/>
      </g>
    </g>
  </g>
</svg>
