<svg xmlns="http://www.w3.org/2000/svg" viewBox="0 0 503 261">
  <defs>
    <style>
      .west-highland-cls-1 {
        fill: #ff7378;
      }

      .west-highland-cls-1, .west-highland-west-highland-cls-2, .west-highland-cls-3, .west-highland-cls-4, .west-highland-cls-5 {
        stroke: #000;
        stroke-miterlimit: 10;
        stroke-width: 2px;
      }

      .west-highland-cls-2 {
        fill: none;
      }

      .west-highland-cls-3 {
        fill: #ffd5d5;
      }

      .west-highland-cls-4 {
        fill: #769e6c;
      }

      .west-highland-cls-5 {
        fill: #ffd5d5;
      }
    </style>
  </defs>
  <title>Asset 4</title>
  <g id="Layer_2" data-name="Layer 2">
    <g id="westhighland">
      <polygon class="west-highland-cls-1" points="83.07 88.83 1 88.83 1 1 82.5 1 82.79 46.38 83.07 88.83"/>
      <polygon class="west-highland-cls-1" points="83.6 171.5 1 171.5 1 88.83 83.07 88.83 83.33 129.5 48.5 129.5 48.5 150.5 83.33 150.5 83.33 129.72 83.6 171.5"/>
      <polygon class="west-highland-cls-1" points="84.17 259.83 1 260 1 171.5 83.6 171.5 84.17 259.83"/>
      <polygon class="west-highland-cls-1" points="166.17 259.67 84.17 259.83 83.6 171.5 165.94 171.5 166.17 259.67"/>
      <rect class="west-highland-cls-2" x="48.5" y="129.5" width="34.83" height="21"/>
      <polygon class="west-highland-cls-1" points="247.61 88.83 165.73 88.83 165.5 1 247.5 1 247.61 88.83"/>
      <polygon class="west-highland-cls-1" points="165.73 88.83 83.07 88.83 82.79 46.38 82.5 1 165.5 1 165.73 88.83"/>
      <polygon class="west-highland-cls-1" points="328.95 88.83 247.61 88.83 247.5 1 328.5 1 328.95 88.83"/>
      <polygon class="west-highland-cls-1" points="247.83 259.51 166.17 259.67 165.94 171.5 247.72 171.5 247.83 259.51"/>
      <polygon class="west-highland-cls-1" points="329.83 259.34 247.83 259.51 247.72 171.5 297.5 171.5 297.5 180.5 329.42 180.5 329.83 259.34"/>
      <polygon class="west-highland-cls-1" points="410.5 171.5 410.5 259.18 329.83 259.34 329.42 180.5 372.5 180.5 372.5 171.5 410.5 171.5"/>
      <polygon class="west-highland-cls-1" points="502 218.83 502 259 410.5 259.18 410.5 171.5 432.5 171.5 453.5 190.5 470.5 197.5 478.69 203.05 502 218.83"/>
      <rect class="west-highland-cls-3" x="297.5" y="159.5" width="75" height="21"/>
      <polygon class="west-highland-cls-1" points="411.83 1 411.04 88.83 328.95 88.83 328.5 1 411.83 1"/>
      <polygon class="west-highland-cls-1" points="502 1 502 88.83 411.04 88.83 411.83 1 502 1"/>
      <rect class="west-highland-cls-1" x="452.5" y="88.83" width="49.5" height="22.67"/>
      <polygon class="west-highland-cls-1" points="502 111.5 502 145.5 479.5 139.5 468.5 132.5 452.5 130.5 452.5 111.5 502 111.5"/>
      <polygon class="west-highland-cls-1" points="452.5 111.5 452.5 128.25 417.83 111.5 452.5 111.5"/>
      <polygon class="west-highland-cls-1" points="502 173.5 502 218.83 478.69 203.05 478.5 187.5 457.5 178.5 451.5 174.5 441.11 164 451.5 156.5 465.5 169.5 477.5 173.5 502 173.5"/>
      <polygon class="west-highland-cls-4" points="502 145.5 502 173.5 477.5 173.5 465.5 169.5 451.5 156.5 447.5 147.5 447.5 138.5 452.5 130.5 468.5 132.5 479.5 139.5 502 145.5"/>
      <polygon class="west-highland-cls-1" points="165.94 171.5 83.6 171.5 83.33 129.72 83.33 129.5 83.07 88.83 165.73 88.83 165.94 171.5"/>
      <polygon class="west-highland-cls-1" points="247.72 171.5 165.94 171.5 165.73 88.83 247.61 88.83 247.72 171.5"/>
      <polygon class="west-highland-cls-1" points="432.5 171.5 372.5 171.5 372.5 159.5 329.31 159.5 328.95 88.83 411.04 88.83 410.83 111.5 410.69 127.82 410.5 148.5 423.73 162.33 431.77 170.74 432.5 171.5"/>
      <polygon class="west-highland-cls-1" points="329.31 159.5 297.5 159.5 297.5 171.5 247.72 171.5 247.61 88.83 328.95 88.83 329.31 159.5"/>
      <polyline class="west-highland-cls-2" points="372.5 171.5 329.38 171.5 297.5 171.5"/>
      <line class="west-highland-cls-2" x1="84.17" y1="260" x2="84.17" y2="259.83"/>
      <line class="west-highland-cls-2" x1="166.17" y1="260" x2="166.17" y2="259.67"/>
      <line class="west-highland-cls-2" x1="329.83" y1="260" x2="329.83" y2="259.34"/>
      <polyline class="west-highland-cls-2" points="329.42 180.5 329.38 171.5 329.31 159.5"/>
      <line class="west-highland-cls-2" x1="410.5" y1="259.51" x2="410.5" y2="259.18"/>
      <polygon class="west-highland-cls-1" points="447.5 138.5 447.5 147.5 451.5 156.5 441.11 164 431.77 170.74 423.73 162.33 446.5 147.5 410.69 127.82 410.83 111.5 417.83 111.5 452.5 128.25 452.5 130.5 447.5 138.5"/>
      <polygon class="west-highland-cls-1" points="478.69 203.05 470.5 197.5 453.5 190.5 432.5 171.5 431.77 170.74 441.11 164 451.5 174.5 457.5 178.5 478.5 187.5 478.69 203.05"/>
      <polygon class="west-highland-cls-1" points="446.5 147.5 423.73 162.33 410.5 148.5 410.69 127.82 446.5 147.5"/>
      <line class="west-highland-cls-2" x1="423.73" y1="162.33" x2="423.11" y2="162.73"/>
      <line class="west-highland-cls-2" x1="410.69" y1="127.82" x2="409.5" y2="127.17"/>
      <polygon class="west-highland-cls-1" points="452.5 88.83 452.5 111.5 410.83 111.5 411.04 88.83 452.5 88.83"/>
      <line class="west-highland-cls-2" x1="410.83" y1="111.5" x2="410.5" y2="111.5"/>
      <line class="west-highland-cls-2" x1="297.5" y1="159.5" x2="296.5" y2="159.5"/>
      <rect class="west-highland-cls-4" x="48.5" y="129.5" width="34.83" height="21"/>
      <polygon class="west-highland-cls-2" points="147.5 22.5 147.5 46.5 82.79 46.38 82.79 22.5 147.5 22.5"/>
      <rect class="west-highland-cls-5" x="83.07" y="22.5" width="64.43" height="24"/>
      <g>
        <path d="M9.69,20.61A2.08,2.08,0,0,0,9,20a2.17,2.17,0,0,0-1-.23,2.23,2.23,0,0,0-.64.1,1.84,1.84,0,0,0-.59.29,1.51,1.51,0,0,0-.43.5,1.47,1.47,0,0,0-.16.71,1.31,1.31,0,0,0,.16.67,1.49,1.49,0,0,0,.41.45,2.37,2.37,0,0,0,.59.31L8,23l.89.31a3.2,3.2,0,0,1,.81.44,2.11,2.11,0,0,1,.59.68,2.17,2.17,0,0,1,.23,1.05,2.33,2.33,0,0,1-.24,1.1,2.29,2.29,0,0,1-.63.76,2.6,2.6,0,0,1-.88.44,3.58,3.58,0,0,1-1,.14A3.86,3.86,0,0,1,7,27.88a3.48,3.48,0,0,1-.73-.23,3,3,0,0,1-.65-.4A2.87,2.87,0,0,1,5,26.69l.74-.55a2.28,2.28,0,0,0,.77.76,2.19,2.19,0,0,0,1.17.31,2.27,2.27,0,0,0,.66-.1A1.85,1.85,0,0,0,9,26.79a1.72,1.72,0,0,0,.44-.52,1.6,1.6,0,0,0,0-1.45A1.56,1.56,0,0,0,9,24.33,2.82,2.82,0,0,0,8.33,24l-.78-.26c-.28-.09-.56-.19-.83-.3A2.81,2.81,0,0,1,6,23a2.07,2.07,0,0,1-.52-.67,2.44,2.44,0,0,1,0-2,2.24,2.24,0,0,1,.64-.73A2.69,2.69,0,0,1,7,19.16,3.56,3.56,0,0,1,8,19a3.27,3.27,0,0,1,1.48.31,2.53,2.53,0,0,1,.92.73Z"/>
        <path d="M6.28,35.86A1.69,1.69,0,0,1,7,35.08a2.32,2.32,0,0,1,1.13-.29,2,2,0,0,1,1.6.64,2.52,2.52,0,0,1,.53,1.68v3.44H9.48V37.44a4.13,4.13,0,0,0-.07-.8A1.68,1.68,0,0,0,9.17,36a1.18,1.18,0,0,0-.47-.4A1.68,1.68,0,0,0,8,35.48a1.58,1.58,0,0,0-.63.13,1.54,1.54,0,0,0-.55.4,2,2,0,0,0-.38.68,3,3,0,0,0-.14,1v2.88H5.44V31.48h.82v4.38Z"/>
        <path d="M10.59,50.39v.18a1.91,1.91,0,0,1,0,.2H5.93a2.18,2.18,0,0,0,.17.79,2,2,0,0,0,.43.65,2.08,2.08,0,0,0,.65.44,2.14,2.14,0,0,0,1.9-.13,2.2,2.2,0,0,0,.7-.68l.61.48a3,3,0,0,1-1.11.91,3.11,3.11,0,0,1-1.3.28,3,3,0,0,1-1.16-.22,2.71,2.71,0,0,1-.92-.62,2.94,2.94,0,0,1-.61-.94,3.07,3.07,0,0,1-.22-1.18,3.15,3.15,0,0,1,.22-1.18,2.84,2.84,0,0,1,.6-.94,2.76,2.76,0,0,1,.9-.62,2.79,2.79,0,0,1,1.12-.22,2.86,2.86,0,0,1,1.16.22,2.4,2.4,0,0,1,.84.6,2.57,2.57,0,0,1,.51.88A3.28,3.28,0,0,1,10.59,50.39Zm-.83-.26a2,2,0,0,0-.51-1.31,1.73,1.73,0,0,0-1.35-.52,1.89,1.89,0,0,0-.76.15,2,2,0,0,0-.61.41,2,2,0,0,0-.42.59,1.9,1.9,0,0,0-.18.69Z"/>
        <path d="M6.74,61.22q0-.36,0-.65h.78c0,.15,0,.32,0,.5s0,.34,0,.46h0a2,2,0,0,1,1.8-1.1h.28l.26,0-.11.78-.24,0-.34,0a1.67,1.67,0,0,0-.62.12,1.34,1.34,0,0,0-.52.38,2,2,0,0,0-.36.66,3,3,0,0,0-.14,1v2.87H6.75V61.81Q6.75,61.58,6.74,61.22Z"/>
        <path d="M8.41,71.23a.54.54,0,0,1-.18.41.57.57,0,0,1-.79,0,.57.57,0,0,1,0-.83.57.57,0,0,1,.79,0A.53.53,0,0,1,8.41,71.23ZM8.24,79H7.42V73.38h.82Z"/>
        <path d="M9.71,90.87a2.3,2.3,0,0,1-.94.82A2.72,2.72,0,0,1,7.59,92a3,3,0,0,1-1.19-.23,2.72,2.72,0,0,1-.91-.62,2.82,2.82,0,0,1-.59-.94,3.33,3.33,0,0,1,0-2.33,2.82,2.82,0,0,1,.59-.94,2.74,2.74,0,0,1,.91-.62,3,3,0,0,1,1.19-.23,2.67,2.67,0,0,1,1.19.28,2.32,2.32,0,0,1,.94.83h0V82.75h.82v9.07H9.73v-.95ZM5.55,89a2.68,2.68,0,0,0,.14.88,2.15,2.15,0,0,0,.41.72,1.89,1.89,0,0,0,.67.48,2.22,2.22,0,0,0,.9.17,2.11,2.11,0,0,0,2-1.36,2.55,2.55,0,0,0,0-1.79,2.22,2.22,0,0,0-.45-.72,2.07,2.07,0,0,0-.68-.48,2.13,2.13,0,0,0-.86-.17,2.15,2.15,0,0,0-.9.18,2,2,0,0,0-.67.49,2.15,2.15,0,0,0-.41.72A2.67,2.67,0,0,0,5.55,89Z"/>
        <path d="M9.25,101a1.41,1.41,0,0,0-.38-1.08,1.59,1.59,0,0,0-1.12-.36,2.41,2.41,0,0,0-.94.18,2.25,2.25,0,0,0-.73.48l-.46-.54a2.69,2.69,0,0,1,.92-.58,3.45,3.45,0,0,1,1.29-.23,2.79,2.79,0,0,1,.85.13,2,2,0,0,1,.7.38,1.71,1.71,0,0,1,.47.64,2.23,2.23,0,0,1,.17.9v2.46q0,.32,0,.67a4.6,4.6,0,0,0,.07.59H9.38c0-.14,0-.28-.06-.44a4.53,4.53,0,0,1,0-.47h0a2.37,2.37,0,0,1-.87.81,2.57,2.57,0,0,1-1.17.25,2.6,2.6,0,0,1-.67-.09,1.84,1.84,0,0,1-.62-.29,1.66,1.66,0,0,1-.47-.53,1.58,1.58,0,0,1-.19-.79,1.51,1.51,0,0,1,.33-1,2,2,0,0,1,.88-.57,5.18,5.18,0,0,1,1.27-.24q.71-.05,1.48-.05Zm-.24.83q-.5,0-1,0a4.43,4.43,0,0,0-.92.17,1.74,1.74,0,0,0-.68.37.82.82,0,0,0-.26.64,1,1,0,0,0,.11.5.93.93,0,0,0,.31.33,1.31,1.31,0,0,0,.43.18,2.1,2.1,0,0,0,.47.05,1.85,1.85,0,0,0,.77-.15,1.63,1.63,0,0,0,.56-.41,1.81,1.81,0,0,0,.35-.59,2.09,2.09,0,0,0,.12-.71v-.42Z"/>
        <path d="M6.16,111.83c0,.15,0,.32,0,.5s0,.34,0,.46h0A1.85,1.85,0,0,1,7,112a2.28,2.28,0,0,1,1.14-.31,2,2,0,0,1,1.6.64,2.53,2.53,0,0,1,.53,1.68v3.44H9.47v-3.11a4.13,4.13,0,0,0-.07-.8,1.68,1.68,0,0,0-.25-.62,1.17,1.17,0,0,0-.47-.4,1.68,1.68,0,0,0-.74-.14,1.58,1.58,0,0,0-.63.13,1.54,1.54,0,0,0-.55.4,2,2,0,0,0-.38.68,3,3,0,0,0-.14,1v2.88H5.43v-4.38q0-.23,0-.59t0-.65Z"/>
        <path d="M5.15,129.4H7.68a4.79,4.79,0,0,1,1,.1,2.64,2.64,0,0,1,.88.35,1.92,1.92,0,0,1,.64.67,2.07,2.07,0,0,1,.25,1.06,1.79,1.79,0,0,1-.41,1.17,1.92,1.92,0,0,1-1.1.65v0a2.24,2.24,0,0,1,1.37.64,2,2,0,0,1,.54,1.48,2.09,2.09,0,0,1-.85,1.71,3,3,0,0,1-1,.47,4.77,4.77,0,0,1-1.32.17H5.15ZM6,133.12H7.75a2.83,2.83,0,0,0,.63-.07A1.75,1.75,0,0,0,9,132.8a1.31,1.31,0,0,0,.43-.46,1.43,1.43,0,0,0,.16-.71,1.37,1.37,0,0,0-.16-.69,1.35,1.35,0,0,0-.44-.46,1.87,1.87,0,0,0-.65-.26,3.84,3.84,0,0,0-.79-.08H6Zm0,4H7.62a4.31,4.31,0,0,0,.89-.09,2.3,2.3,0,0,0,.74-.29,1.53,1.53,0,0,0,.51-.52,1.64,1.64,0,0,0-.38-2,2.71,2.71,0,0,0-1.61-.41H6Z"/>
        <path d="M10.83,147.9a3.07,3.07,0,0,1-.22,1.18A2.84,2.84,0,0,1,10,150a2.81,2.81,0,0,1-.95.62,3.22,3.22,0,0,1-1.21.22,3.19,3.19,0,0,1-1.2-.22,2.81,2.81,0,0,1-.95-.62,2.84,2.84,0,0,1-.62-.94,3.23,3.23,0,0,1,0-2.35,2.84,2.84,0,0,1,.62-.94,2.81,2.81,0,0,1,.95-.62,3.19,3.19,0,0,1,1.2-.22,3.22,3.22,0,0,1,1.21.22,2.81,2.81,0,0,1,.95.62,2.84,2.84,0,0,1,.62.94A3.07,3.07,0,0,1,10.83,147.9Zm-.86,0a2.58,2.58,0,0,0-.15-.88,2.17,2.17,0,0,0-.43-.72,2,2,0,0,0-.67-.49,2.12,2.12,0,0,0-.89-.18,2.08,2.08,0,0,0-.88.18,2,2,0,0,0-.67.49,2.17,2.17,0,0,0-.43.72,2.68,2.68,0,0,0,0,1.76,2.16,2.16,0,0,0,.43.72,2,2,0,0,0,.67.48,2.14,2.14,0,0,0,.88.17,2.18,2.18,0,0,0,.89-.17,1.94,1.94,0,0,0,.67-.48,2.16,2.16,0,0,0,.43-.72A2.58,2.58,0,0,0,10,147.9Z"/>
        <path d="M9.51,163.53c0-.15,0-.32,0-.5s0-.34,0-.46h0a1.85,1.85,0,0,1-.78.8,2.27,2.27,0,0,1-1.14.31,2,2,0,0,1-1.6-.64,2.52,2.52,0,0,1-.53-1.68v-3.44h.82V161a4.12,4.12,0,0,0,.07.8,1.68,1.68,0,0,0,.25.62,1.17,1.17,0,0,0,.47.4,1.67,1.67,0,0,0,.74.14,1.58,1.58,0,0,0,.63-.13,1.55,1.55,0,0,0,.55-.4,2,2,0,0,0,.38-.68,3,3,0,0,0,.14-1v-2.88h.82v4.38q0,.23,0,.59t0,.65Z"/>
        <path d="M8.24,176.34H7.42v-9.07h.82Z"/>
        <path d="M10.59,186.18v.18a1.91,1.91,0,0,1,0,.2H5.93a2.18,2.18,0,0,0,.17.79,2,2,0,0,0,.43.65,2.08,2.08,0,0,0,.65.44,2.14,2.14,0,0,0,1.9-.13,2.2,2.2,0,0,0,.7-.68l.61.48a3,3,0,0,1-1.11.91,3.11,3.11,0,0,1-1.3.28,3,3,0,0,1-1.16-.22,2.71,2.71,0,0,1-.92-.62,2.94,2.94,0,0,1-.61-.94,3.07,3.07,0,0,1-.22-1.18,3.15,3.15,0,0,1,.22-1.18,2.84,2.84,0,0,1,.6-.94,2.76,2.76,0,0,1,.9-.62,2.79,2.79,0,0,1,1.12-.22,2.86,2.86,0,0,1,1.16.22,2.4,2.4,0,0,1,.84.6,2.57,2.57,0,0,1,.51.88A3.28,3.28,0,0,1,10.59,186.18Zm-.83-.26a2,2,0,0,0-.51-1.31,1.73,1.73,0,0,0-1.35-.52,1.89,1.89,0,0,0-.76.15,2,2,0,0,0-.61.41,2,2,0,0,0-.42.59,1.9,1.9,0,0,0-.18.69Z"/>
        <path d="M8.29,202h-.9L5.1,196.36H6l1.82,4.75h0l1.84-4.75h.88Z"/>
        <path d="M9.25,211.16a1.41,1.41,0,0,0-.38-1.08,1.59,1.59,0,0,0-1.12-.36,2.41,2.41,0,0,0-.94.18,2.25,2.25,0,0,0-.73.48l-.46-.54a2.69,2.69,0,0,1,.92-.58A3.45,3.45,0,0,1,7.83,209a2.79,2.79,0,0,1,.85.13,2,2,0,0,1,.7.38,1.71,1.71,0,0,1,.47.64,2.23,2.23,0,0,1,.17.9v2.46q0,.32,0,.67a4.6,4.6,0,0,0,.07.59H9.38c0-.14,0-.28-.06-.44a4.53,4.53,0,0,1,0-.47h0a2.37,2.37,0,0,1-.87.81,2.57,2.57,0,0,1-1.17.25,2.6,2.6,0,0,1-.67-.09,1.84,1.84,0,0,1-.62-.29,1.66,1.66,0,0,1-.47-.53,1.58,1.58,0,0,1-.19-.79,1.51,1.51,0,0,1,.33-1,2,2,0,0,1,.88-.57,5.18,5.18,0,0,1,1.27-.24q.71-.05,1.48-.05ZM9,212q-.5,0-1,0a4.43,4.43,0,0,0-.92.17,1.74,1.74,0,0,0-.68.37.82.82,0,0,0-.26.64,1,1,0,0,0,.11.5.93.93,0,0,0,.31.33,1.31,1.31,0,0,0,.43.18,2.1,2.1,0,0,0,.47.05,1.85,1.85,0,0,0,.77-.15,1.63,1.63,0,0,0,.56-.41,1.81,1.81,0,0,0,.35-.59,2.09,2.09,0,0,0,.12-.71V212Z"/>
        <path d="M6.74,222.64q0-.36,0-.65h.78c0,.15,0,.32,0,.5s0,.34,0,.46h0a2,2,0,0,1,1.8-1.1h.28l.26,0-.11.78-.24,0-.34,0a1.67,1.67,0,0,0-.62.12,1.34,1.34,0,0,0-.52.38,2,2,0,0,0-.36.66,3,3,0,0,0-.14,1v2.87H6.75v-4.38Q6.75,223,6.74,222.64Z"/>
        <path d="M9.71,239.48a2.3,2.3,0,0,1-.94.82,2.72,2.72,0,0,1-1.19.28,3,3,0,0,1-1.19-.23,2.72,2.72,0,0,1-.91-.62,2.82,2.82,0,0,1-.59-.94,3.33,3.33,0,0,1,0-2.33,2.82,2.82,0,0,1,.59-.94,2.74,2.74,0,0,1,.91-.62,3,3,0,0,1,1.19-.23,2.67,2.67,0,0,1,1.19.28,2.32,2.32,0,0,1,.94.83h0v-4.43h.82v9.07H9.73v-.95Zm-4.16-1.86a2.68,2.68,0,0,0,.14.88,2.15,2.15,0,0,0,.41.72,1.89,1.89,0,0,0,.67.48,2.22,2.22,0,0,0,.9.17,2.11,2.11,0,0,0,2-1.36,2.55,2.55,0,0,0,0-1.79,2.22,2.22,0,0,0-.45-.72,2.07,2.07,0,0,0-.68-.48,2.13,2.13,0,0,0-.86-.17,2.15,2.15,0,0,0-.9.18,2,2,0,0,0-.67.49,2.15,2.15,0,0,0-.41.72A2.67,2.67,0,0,0,5.55,237.62Z"/>
      </g>
      <g>
        <path d="M491.12,33.48h-.86V25h5.12v.77h-4.26v2.94h4v.77h-4Z"/>
        <path d="M495.26,43.32v.18a1.91,1.91,0,0,1,0,.2h-4.66a2.18,2.18,0,0,0,.17.79,2,2,0,0,0,.43.65,2.08,2.08,0,0,0,.65.44,2.14,2.14,0,0,0,1.9-.13,2.2,2.2,0,0,0,.7-.68l.61.48a3,3,0,0,1-1.11.91,3.11,3.11,0,0,1-1.3.28,3,3,0,0,1-1.16-.22,2.71,2.71,0,0,1-.92-.62,2.94,2.94,0,0,1-.61-.94,3.07,3.07,0,0,1-.22-1.18,3.15,3.15,0,0,1,.22-1.18,2.84,2.84,0,0,1,.6-.94,2.76,2.76,0,0,1,.9-.62,2.79,2.79,0,0,1,1.12-.22,2.86,2.86,0,0,1,1.16.22,2.4,2.4,0,0,1,.84.6,2.57,2.57,0,0,1,.51.88A3.28,3.28,0,0,1,495.26,43.32Zm-.83-.26a2,2,0,0,0-.51-1.31,1.73,1.73,0,0,0-1.35-.52,1.89,1.89,0,0,0-.76.15,2,2,0,0,0-.61.41,2,2,0,0,0-.42.59,1.9,1.9,0,0,0-.18.69Z"/>
        <path d="M494.38,58.16a2.3,2.3,0,0,1-.94.82,2.72,2.72,0,0,1-1.19.28,3,3,0,0,1-1.19-.23,2.72,2.72,0,0,1-.91-.62,2.82,2.82,0,0,1-.59-.94,3.33,3.33,0,0,1,0-2.33,2.82,2.82,0,0,1,.59-.94,2.74,2.74,0,0,1,.91-.62,3,3,0,0,1,1.19-.23,2.67,2.67,0,0,1,1.19.28,2.32,2.32,0,0,1,.94.83h0V50h.82v9.07h-.82v-.95Zm-4.16-1.86a2.68,2.68,0,0,0,.14.88,2.15,2.15,0,0,0,.41.72,1.89,1.89,0,0,0,.67.48,2.22,2.22,0,0,0,.9.17,2.11,2.11,0,0,0,2-1.36,2.55,2.55,0,0,0,0-1.79,2.22,2.22,0,0,0-.45-.72,2.07,2.07,0,0,0-.68-.48,2.13,2.13,0,0,0-.86-.17,2.15,2.15,0,0,0-.9.18,2,2,0,0,0-.67.49,2.15,2.15,0,0,0-.41.72A2.67,2.67,0,0,0,490.21,56.3Z"/>
        <path d="M495.26,69v.18a1.91,1.91,0,0,1,0,.2h-4.66a2.18,2.18,0,0,0,.17.79,2,2,0,0,0,.43.65,2.08,2.08,0,0,0,.65.44,2.14,2.14,0,0,0,1.9-.13,2.2,2.2,0,0,0,.7-.68l.61.48a3,3,0,0,1-1.11.91,3.11,3.11,0,0,1-1.3.28,3,3,0,0,1-1.16-.22,2.71,2.71,0,0,1-.92-.62,2.94,2.94,0,0,1-.61-.94,3.07,3.07,0,0,1-.22-1.18,3.15,3.15,0,0,1,.22-1.18,2.84,2.84,0,0,1,.6-.94,2.76,2.76,0,0,1,.9-.62,2.79,2.79,0,0,1,1.12-.22,2.86,2.86,0,0,1,1.16.22,2.4,2.4,0,0,1,.84.6,2.57,2.57,0,0,1,.51.88A3.28,3.28,0,0,1,495.26,69Zm-.83-.26a2,2,0,0,0-.51-1.31,1.73,1.73,0,0,0-1.35-.52,1.89,1.89,0,0,0-.76.15,2,2,0,0,0-.61.41,2,2,0,0,0-.42.59,1.9,1.9,0,0,0-.18.69Z"/>
        <path d="M491.41,79.77q0-.36,0-.65h.78c0,.15,0,.32,0,.5s0,.34,0,.46h0A2,2,0,0,1,494,79h.28l.26,0-.11.78-.24,0-.34,0a1.67,1.67,0,0,0-.62.12,1.34,1.34,0,0,0-.52.38,2,2,0,0,0-.36.66,3,3,0,0,0-.14,1v2.87h-.82V80.36Q491.42,80.13,491.41,79.77Z"/>
        <path d="M493.92,93.92a1.41,1.41,0,0,0-.38-1.08,1.59,1.59,0,0,0-1.12-.36,2.41,2.41,0,0,0-.94.18,2.25,2.25,0,0,0-.73.48l-.46-.54a2.69,2.69,0,0,1,.92-.58,3.45,3.45,0,0,1,1.29-.23,2.79,2.79,0,0,1,.85.13,2,2,0,0,1,.7.38,1.71,1.71,0,0,1,.47.64,2.23,2.23,0,0,1,.17.9V96.3q0,.32,0,.67a4.6,4.6,0,0,0,.07.59H494c0-.14,0-.28-.06-.44a4.53,4.53,0,0,1,0-.47h0a2.37,2.37,0,0,1-.87.81,2.57,2.57,0,0,1-1.17.25,2.6,2.6,0,0,1-.67-.09,1.84,1.84,0,0,1-.62-.29,1.66,1.66,0,0,1-.47-.53A1.58,1.58,0,0,1,490,96a1.51,1.51,0,0,1,.33-1,2,2,0,0,1,.88-.57,5.18,5.18,0,0,1,1.27-.24q.71-.05,1.48-.05Zm-.24.83q-.5,0-1,0a4.43,4.43,0,0,0-.92.17,1.74,1.74,0,0,0-.68.37.82.82,0,0,0-.26.64,1,1,0,0,0,.11.5.93.93,0,0,0,.31.33,1.31,1.31,0,0,0,.43.18,2.1,2.1,0,0,0,.47.05,1.85,1.85,0,0,0,.77-.15,1.63,1.63,0,0,0,.56-.41,1.81,1.81,0,0,0,.35-.59,2.09,2.09,0,0,0,.12-.71v-.42Z"/>
        <path d="M492.91,110.37h-.82V101.3h.82Z"/>
        <path d="M489.81,122.33h2.53a4.79,4.79,0,0,1,1,.1,2.64,2.64,0,0,1,.88.35,1.92,1.92,0,0,1,.64.67,2.07,2.07,0,0,1,.25,1.06,1.79,1.79,0,0,1-.41,1.17,1.92,1.92,0,0,1-1.1.65v0a2.24,2.24,0,0,1,1.37.64,2,2,0,0,1,.54,1.48,2.09,2.09,0,0,1-.85,1.71,3,3,0,0,1-1,.47,4.77,4.77,0,0,1-1.32.17h-2.51Zm.86,3.72h1.74A2.83,2.83,0,0,0,493,126a1.75,1.75,0,0,0,.58-.25,1.31,1.31,0,0,0,.43-.46,1.43,1.43,0,0,0,.16-.71,1.37,1.37,0,0,0-.16-.69,1.35,1.35,0,0,0-.44-.46,1.87,1.87,0,0,0-.65-.26,3.84,3.84,0,0,0-.79-.08h-1.5Zm0,4h1.61a4.31,4.31,0,0,0,.89-.09,2.3,2.3,0,0,0,.74-.29,1.53,1.53,0,0,0,.51-.52,1.64,1.64,0,0,0-.38-2,2.71,2.71,0,0,0-1.61-.41h-1.76Z"/>
        <path d="M495.49,140.83a3.07,3.07,0,0,1-.22,1.18,2.84,2.84,0,0,1-.62.94,2.81,2.81,0,0,1-.95.62,3.22,3.22,0,0,1-1.21.22,3.19,3.19,0,0,1-1.2-.22,2.81,2.81,0,0,1-.95-.62,2.84,2.84,0,0,1-.62-.94,3.23,3.23,0,0,1,0-2.35,2.84,2.84,0,0,1,.62-.94,2.81,2.81,0,0,1,.95-.62,3.19,3.19,0,0,1,1.2-.22,3.22,3.22,0,0,1,1.21.22,2.81,2.81,0,0,1,.95.62,2.84,2.84,0,0,1,.62.94A3.07,3.07,0,0,1,495.49,140.83Zm-.86,0a2.58,2.58,0,0,0-.15-.88,2.17,2.17,0,0,0-.43-.72,2,2,0,0,0-.67-.49,2.12,2.12,0,0,0-.89-.18,2.08,2.08,0,0,0-.88.18,2,2,0,0,0-.67.49,2.17,2.17,0,0,0-.43.72,2.68,2.68,0,0,0,0,1.76,2.16,2.16,0,0,0,.43.72,2,2,0,0,0,.67.48,2.14,2.14,0,0,0,.88.17,2.18,2.18,0,0,0,.89-.17,1.94,1.94,0,0,0,.67-.48,2.16,2.16,0,0,0,.43-.72A2.58,2.58,0,0,0,494.63,140.83Z"/>
        <path d="M494.17,156.45c0-.15,0-.32,0-.5s0-.34,0-.46h0a1.85,1.85,0,0,1-.78.8,2.27,2.27,0,0,1-1.14.31,2,2,0,0,1-1.6-.64,2.52,2.52,0,0,1-.53-1.68v-3.44h.82v3.11a4.12,4.12,0,0,0,.07.8,1.68,1.68,0,0,0,.25.62,1.17,1.17,0,0,0,.47.4,1.67,1.67,0,0,0,.74.14,1.58,1.58,0,0,0,.63-.13,1.55,1.55,0,0,0,.55-.4,2,2,0,0,0,.38-.68,3,3,0,0,0,.14-1v-2.88h.82v4.38q0,.23,0,.59t0,.65Z"/>
        <path d="M492.91,169.27h-.82V160.2h.82Z"/>
        <path d="M495.26,179.11v.18a1.91,1.91,0,0,1,0,.2h-4.66a2.18,2.18,0,0,0,.17.79,2,2,0,0,0,.43.65,2.08,2.08,0,0,0,.65.44,2.14,2.14,0,0,0,1.9-.13,2.2,2.2,0,0,0,.7-.68l.61.48a3,3,0,0,1-1.11.91,3.11,3.11,0,0,1-1.3.28,3,3,0,0,1-1.16-.22,2.71,2.71,0,0,1-.92-.62,2.94,2.94,0,0,1-.61-.94,3.07,3.07,0,0,1-.22-1.18,3.15,3.15,0,0,1,.22-1.18,2.84,2.84,0,0,1,.6-.94,2.76,2.76,0,0,1,.9-.62,2.79,2.79,0,0,1,1.12-.22,2.86,2.86,0,0,1,1.16.22,2.4,2.4,0,0,1,.84.6,2.57,2.57,0,0,1,.51.88A3.28,3.28,0,0,1,495.26,179.11Zm-.83-.26a2,2,0,0,0-.51-1.31,1.73,1.73,0,0,0-1.35-.52,1.89,1.89,0,0,0-.76.15,2,2,0,0,0-.61.41,2,2,0,0,0-.42.59,1.9,1.9,0,0,0-.18.69Z"/>
        <path d="M493,194.9h-.9l-2.29-5.62h.91L492.5,194h0l1.84-4.75h.88Z"/>
        <path d="M493.92,204.08a1.41,1.41,0,0,0-.38-1.08,1.59,1.59,0,0,0-1.12-.36,2.41,2.41,0,0,0-.94.18,2.25,2.25,0,0,0-.73.48l-.46-.54a2.69,2.69,0,0,1,.92-.58,3.45,3.45,0,0,1,1.29-.23,2.79,2.79,0,0,1,.85.13,2,2,0,0,1,.7.38,1.71,1.71,0,0,1,.47.64,2.23,2.23,0,0,1,.17.9v2.46q0,.32,0,.67a4.6,4.6,0,0,0,.07.59H494c0-.14,0-.28-.06-.44a4.53,4.53,0,0,1,0-.47h0a2.37,2.37,0,0,1-.87.81,2.57,2.57,0,0,1-1.17.25,2.6,2.6,0,0,1-.67-.09,1.84,1.84,0,0,1-.62-.29,1.66,1.66,0,0,1-.47-.53,1.58,1.58,0,0,1-.19-.79,1.51,1.51,0,0,1,.33-1,2,2,0,0,1,.88-.57,5.18,5.18,0,0,1,1.27-.24q.71-.05,1.48-.05Zm-.24.83q-.5,0-1,0a4.43,4.43,0,0,0-.92.17,1.74,1.74,0,0,0-.68.37.82.82,0,0,0-.26.64,1,1,0,0,0,.11.5.93.93,0,0,0,.31.33,1.31,1.31,0,0,0,.43.18,2.1,2.1,0,0,0,.47.05,1.85,1.85,0,0,0,.77-.15,1.63,1.63,0,0,0,.56-.41,1.81,1.81,0,0,0,.35-.59,2.09,2.09,0,0,0,.12-.71v-.42Z"/>
        <path d="M491.41,215.57q0-.36,0-.65h.78c0,.15,0,.32,0,.5s0,.34,0,.46h0a2,2,0,0,1,1.8-1.1h.28l.26,0-.11.78-.24,0-.34,0a1.67,1.67,0,0,0-.62.12,1.34,1.34,0,0,0-.52.38,2,2,0,0,0-.36.66,3,3,0,0,0-.14,1v2.87h-.82v-4.38Q491.42,215.93,491.41,215.57Z"/>
        <path d="M494.38,232.4a2.3,2.3,0,0,1-.94.82,2.72,2.72,0,0,1-1.19.28,3,3,0,0,1-1.19-.23,2.72,2.72,0,0,1-.91-.62,2.82,2.82,0,0,1-.59-.94,3.33,3.33,0,0,1,0-2.33,2.82,2.82,0,0,1,.59-.94,2.74,2.74,0,0,1,.91-.62,3,3,0,0,1,1.19-.23,2.67,2.67,0,0,1,1.19.28,2.32,2.32,0,0,1,.94.83h0v-4.43h.82v9.07h-.82v-.95Zm-4.16-1.86a2.68,2.68,0,0,0,.14.88,2.15,2.15,0,0,0,.41.72,1.89,1.89,0,0,0,.67.48,2.22,2.22,0,0,0,.9.17,2.11,2.11,0,0,0,2-1.36,2.55,2.55,0,0,0,0-1.79,2.22,2.22,0,0,0-.45-.72,2.07,2.07,0,0,0-.68-.48,2.13,2.13,0,0,0-.86-.17,2.15,2.15,0,0,0-.9.18,2,2,0,0,0-.67.49,2.15,2.15,0,0,0-.41.72A2.67,2.67,0,0,0,490.21,230.54Z"/>
      </g>
      <g>
        <path d="M88.18,122.05h0l2.12-7.31h1l2.12,7.31h0l2.08-7.31h.91L94,123.24H93l-2.14-7.3h0l-2.14,7.3h-1l-2.51-8.5h.91Z"/>
        <path d="M93.83,133.25a3.07,3.07,0,0,1-.22,1.18,2.84,2.84,0,0,1-.62.94A2.81,2.81,0,0,1,92,136a3.22,3.22,0,0,1-1.21.22,3.19,3.19,0,0,1-1.2-.22,2.81,2.81,0,0,1-.95-.62,2.84,2.84,0,0,1-.62-.94,3.23,3.23,0,0,1,0-2.35,2.84,2.84,0,0,1,.62-.94,2.81,2.81,0,0,1,.95-.62,3.19,3.19,0,0,1,1.2-.22,3.22,3.22,0,0,1,1.21.22,2.81,2.81,0,0,1,.95.62,2.84,2.84,0,0,1,.62.94A3.07,3.07,0,0,1,93.83,133.25Zm-.86,0a2.58,2.58,0,0,0-.15-.88,2.17,2.17,0,0,0-.43-.72,2,2,0,0,0-.67-.49,2.12,2.12,0,0,0-.89-.18,2.08,2.08,0,0,0-.88.18,2,2,0,0,0-.67.49,2.17,2.17,0,0,0-.43.72,2.68,2.68,0,0,0,0,1.76,2.16,2.16,0,0,0,.43.72,2,2,0,0,0,.67.48,2.14,2.14,0,0,0,.88.17,2.18,2.18,0,0,0,.89-.17,1.94,1.94,0,0,0,.67-.48,2.16,2.16,0,0,0,.43-.72A2.58,2.58,0,0,0,93,133.25Z"/>
        <path d="M91.24,148.87h-.82V139.8h.82Z"/>
        <path d="M92.52,156.76H91.2v4.93h-.82v-4.93H89.21v-.68h1.18v-1.54a2.26,2.26,0,0,1,.47-1.51,1.78,1.78,0,0,1,1.44-.55l.34,0a1.74,1.74,0,0,1,.34.07l-.14.72-.26-.06-.3,0a1.16,1.16,0,0,0-.53.11.77.77,0,0,0-.32.31,1.34,1.34,0,0,0-.16.46,3.56,3.56,0,0,0,0,.56v1.44h1.32Z"/>
        <path d="M92.52,169.57H91.2v4.93h-.82v-4.93H89.21v-.68h1.18v-1.54a2.26,2.26,0,0,1,.47-1.51,1.78,1.78,0,0,1,1.44-.55l.34,0a1.74,1.74,0,0,1,.34.07l-.14.72-.26-.06-.3,0a1.16,1.16,0,0,0-.53.11.77.77,0,0,0-.32.31,1.34,1.34,0,0,0-.16.46,3.56,3.56,0,0,0,0,.56v1.44h1.32Z"/>
        <path d="M92.69,191.64A2.08,2.08,0,0,0,92,191a2.17,2.17,0,0,0-1-.23,2.23,2.23,0,0,0-.64.1,1.84,1.84,0,0,0-.59.29,1.51,1.51,0,0,0-.43.5,1.47,1.47,0,0,0-.16.71,1.31,1.31,0,0,0,.16.67,1.49,1.49,0,0,0,.41.45,2.37,2.37,0,0,0,.59.31l.69.24.89.31a3.2,3.2,0,0,1,.81.44,2.11,2.11,0,0,1,.59.68,2.17,2.17,0,0,1,.23,1.05,2.33,2.33,0,0,1-.24,1.1,2.29,2.29,0,0,1-.63.76,2.6,2.6,0,0,1-.88.44,3.58,3.58,0,0,1-1,.14,3.86,3.86,0,0,1-.77-.08,3.48,3.48,0,0,1-.73-.23,3,3,0,0,1-.65-.4,2.87,2.87,0,0,1-.53-.55l.74-.55a2.28,2.28,0,0,0,.77.76,2.19,2.19,0,0,0,1.17.31,2.27,2.27,0,0,0,.66-.1,1.85,1.85,0,0,0,.61-.31,1.72,1.72,0,0,0,.44-.52,1.6,1.6,0,0,0,0-1.45,1.56,1.56,0,0,0-.46-.49,2.82,2.82,0,0,0-.66-.33l-.78-.26c-.28-.09-.56-.19-.83-.3A2.81,2.81,0,0,1,89,194a2.07,2.07,0,0,1-.52-.67,2.44,2.44,0,0,1,0-2,2.24,2.24,0,0,1,.64-.73,2.69,2.69,0,0,1,.88-.42,3.56,3.56,0,0,1,.95-.13,3.27,3.27,0,0,1,1.48.31,2.53,2.53,0,0,1,.92.73Z"/>
        <path d="M92.54,206.65H91v3.28a1.86,1.86,0,0,0,.06.52.73.73,0,0,0,.17.32.59.59,0,0,0,.27.16,1.27,1.27,0,0,0,.34,0,1.43,1.43,0,0,0,.35,0,1.8,1.8,0,0,0,.35-.13l0,.71a2.4,2.4,0,0,1-.45.13,2.86,2.86,0,0,1-.51,0,2.1,2.1,0,0,1-.48-.06,1.21,1.21,0,0,1-.47-.23,1.24,1.24,0,0,1-.35-.46,1.77,1.77,0,0,1-.14-.76v-3.5H89V206h1.16v-1.58H91V206h1.58Z"/>
      </g>
      <g>
        <path d="M173.6,123.26h-.86v-7.73h-2.84v-.77h6.55v.77H173.6Z"/>
        <path d="M175.93,133.1v.18a1.91,1.91,0,0,1,0,.2h-4.66a2.18,2.18,0,0,0,.17.79,2,2,0,0,0,.43.65,2.08,2.08,0,0,0,.65.44,2.14,2.14,0,0,0,1.9-.13,2.2,2.2,0,0,0,.7-.68l.61.48a3,3,0,0,1-1.11.91,3.11,3.11,0,0,1-1.3.28,3,3,0,0,1-1.16-.22,2.71,2.71,0,0,1-.92-.62,2.94,2.94,0,0,1-.61-.94,3.07,3.07,0,0,1-.22-1.18,3.15,3.15,0,0,1,.22-1.18,2.84,2.84,0,0,1,.6-.94,2.76,2.76,0,0,1,.9-.62,2.79,2.79,0,0,1,1.12-.22,2.86,2.86,0,0,1,1.16.22,2.4,2.4,0,0,1,.84.6,2.57,2.57,0,0,1,.51.88A3.28,3.28,0,0,1,175.93,133.1Zm-.83-.26a2,2,0,0,0-.51-1.31,1.73,1.73,0,0,0-1.35-.52,1.89,1.89,0,0,0-.76.15,2,2,0,0,0-.61.41,2,2,0,0,0-.42.59,1.9,1.9,0,0,0-.18.69Z"/>
        <path d="M171.49,143.28c0,.15,0,.32,0,.5s0,.34,0,.46h0a1.85,1.85,0,0,1,.78-.8,2.28,2.28,0,0,1,1.14-.31,2,2,0,0,1,1.6.64,2.53,2.53,0,0,1,.53,1.68v3.44h-.82v-3.11a4.13,4.13,0,0,0-.07-.8,1.68,1.68,0,0,0-.25-.62,1.17,1.17,0,0,0-.47-.4,1.68,1.68,0,0,0-.74-.14,1.58,1.58,0,0,0-.63.13,1.54,1.54,0,0,0-.55.4,2,2,0,0,0-.38.68,3,3,0,0,0-.14,1v2.88h-.82v-4.38q0-.23,0-.59t0-.65Z"/>
        <path d="M171.49,156.09c0,.15,0,.32,0,.5s0,.34,0,.46h0a1.85,1.85,0,0,1,.78-.8,2.28,2.28,0,0,1,1.14-.31,2,2,0,0,1,1.6.64,2.53,2.53,0,0,1,.53,1.68v3.44h-.82V158.6a4.13,4.13,0,0,0-.07-.8,1.68,1.68,0,0,0-.25-.62,1.17,1.17,0,0,0-.47-.4,1.68,1.68,0,0,0-.74-.14,1.58,1.58,0,0,0-.63.13,1.54,1.54,0,0,0-.55.4,2,2,0,0,0-.38.68,3,3,0,0,0-.14,1v2.88h-.82v-4.38q0-.23,0-.59t0-.65Z"/>
        <path d="M173.25,173.65h0l1.74-4.74h.89l-2.8,7.07a3,3,0,0,1-.64,1,1.52,1.52,0,0,1-1.12.39,3.73,3.73,0,0,1-.73-.07l.08-.74a1.89,1.89,0,0,0,.6.1.86.86,0,0,0,.66-.26,2.22,2.22,0,0,0,.42-.74l.46-1.18-2.4-5.6h.91Z"/>
        <path d="M174.57,183.06a1.44,1.44,0,0,0-.55-.57,1.58,1.58,0,0,0-.83-.22,2,2,0,0,0-.43,0,1.18,1.18,0,0,0-.38.16.85.85,0,0,0-.27.28.75.75,0,0,0-.1.4.68.68,0,0,0,.32.61,3.1,3.1,0,0,0,1,.35,3.42,3.42,0,0,1,1.47.59,1.29,1.29,0,0,1,.47,1,1.56,1.56,0,0,1-.67,1.35,2,2,0,0,1-.68.3,3.31,3.31,0,0,1-.76.09,3,3,0,0,1-1.24-.26,2.28,2.28,0,0,1-1-.83l.65-.48a1.84,1.84,0,0,0,1.56.88,2.55,2.55,0,0,0,.5,0,1.15,1.15,0,0,0,.42-.17.86.86,0,0,0,.4-.77.71.71,0,0,0-.43-.67,5.57,5.57,0,0,0-1.23-.41l-.53-.15a1.82,1.82,0,0,1-.52-.26,1.43,1.43,0,0,1-.4-.44,1.28,1.28,0,0,1-.16-.66,1.51,1.51,0,0,1,.17-.74,1.49,1.49,0,0,1,.45-.5,2,2,0,0,1,.64-.29,2.87,2.87,0,0,1,.74-.1,2.62,2.62,0,0,1,1.14.26,1.85,1.85,0,0,1,.83.74Z"/>
        <path d="M176.16,197.35a3.07,3.07,0,0,1-.22,1.18,2.84,2.84,0,0,1-.62.94,2.81,2.81,0,0,1-.95.62,3.22,3.22,0,0,1-1.21.22,3.19,3.19,0,0,1-1.2-.22,2.81,2.81,0,0,1-.95-.62,2.84,2.84,0,0,1-.62-.94,3.23,3.23,0,0,1,0-2.35,2.84,2.84,0,0,1,.62-.94,2.81,2.81,0,0,1,.95-.62,3.19,3.19,0,0,1,1.2-.22,3.22,3.22,0,0,1,1.21.22,2.81,2.81,0,0,1,.95.62,2.84,2.84,0,0,1,.62.94A3.07,3.07,0,0,1,176.16,197.35Zm-.86,0a2.58,2.58,0,0,0-.15-.88,2.17,2.17,0,0,0-.43-.72,2,2,0,0,0-.67-.49,2.12,2.12,0,0,0-.89-.18,2.08,2.08,0,0,0-.88.18,2,2,0,0,0-.67.49,2.17,2.17,0,0,0-.43.72,2.68,2.68,0,0,0,0,1.76,2.16,2.16,0,0,0,.43.72,2,2,0,0,0,.67.48,2.14,2.14,0,0,0,.88.17,2.18,2.18,0,0,0,.89-.17,1.94,1.94,0,0,0,.67-.48,2.16,2.16,0,0,0,.43-.72A2.58,2.58,0,0,0,175.3,197.35Z"/>
        <path d="M171.49,207.36c0,.15,0,.32,0,.5s0,.34,0,.46h0a1.85,1.85,0,0,1,.78-.8,2.28,2.28,0,0,1,1.14-.31,2,2,0,0,1,1.6.64,2.53,2.53,0,0,1,.53,1.68V213h-.82v-3.11a4.13,4.13,0,0,0-.07-.8,1.68,1.68,0,0,0-.25-.62,1.17,1.17,0,0,0-.47-.4,1.68,1.68,0,0,0-.74-.14,1.58,1.58,0,0,0-.63.13,1.54,1.54,0,0,0-.55.4,2,2,0,0,0-.38.68,3,3,0,0,0-.14,1V213h-.82v-4.38q0-.23,0-.59t0-.65Z"/>
        <path d="M175,226.29a2.08,2.08,0,0,0-.71-.62,2.17,2.17,0,0,0-1-.23,2.23,2.23,0,0,0-.64.1,1.84,1.84,0,0,0-.59.29,1.51,1.51,0,0,0-.43.5,1.47,1.47,0,0,0-.16.71,1.31,1.31,0,0,0,.16.67,1.49,1.49,0,0,0,.41.45,2.37,2.37,0,0,0,.59.31l.69.24.89.31a3.2,3.2,0,0,1,.81.44,2.11,2.11,0,0,1,.59.68,2.17,2.17,0,0,1,.23,1.05,2.33,2.33,0,0,1-.24,1.1,2.29,2.29,0,0,1-.63.76,2.6,2.6,0,0,1-.88.44,3.58,3.58,0,0,1-1,.14,3.86,3.86,0,0,1-.77-.08,3.48,3.48,0,0,1-.73-.23,3,3,0,0,1-.65-.4,2.87,2.87,0,0,1-.53-.55l.74-.55a2.28,2.28,0,0,0,.77.76,2.19,2.19,0,0,0,1.17.31,2.27,2.27,0,0,0,.66-.1,1.85,1.85,0,0,0,.61-.31,1.72,1.72,0,0,0,.44-.52,1.6,1.6,0,0,0,0-1.45,1.56,1.56,0,0,0-.46-.49,2.82,2.82,0,0,0-.66-.33l-.78-.26c-.28-.09-.56-.19-.83-.3a2.81,2.81,0,0,1-.73-.44,2.07,2.07,0,0,1-.52-.67,2.44,2.44,0,0,1,0-2,2.24,2.24,0,0,1,.64-.73,2.69,2.69,0,0,1,.88-.42,3.56,3.56,0,0,1,.95-.13,3.27,3.27,0,0,1,1.48.31,2.53,2.53,0,0,1,.92.73Z"/>
        <path d="M174.88,241.3h-1.58v3.28a1.86,1.86,0,0,0,.06.52.73.73,0,0,0,.17.32.59.59,0,0,0,.27.16,1.27,1.27,0,0,0,.34,0,1.43,1.43,0,0,0,.35,0,1.8,1.8,0,0,0,.35-.13l0,.71a2.4,2.4,0,0,1-.45.13,2.86,2.86,0,0,1-.51,0,2.1,2.1,0,0,1-.48-.06A1.21,1.21,0,0,1,173,246a1.24,1.24,0,0,1-.35-.46,1.77,1.77,0,0,1-.14-.76v-3.5h-1.16v-.68h1.16V239h.82v1.58h1.58Z"/>
      </g>
      <g>
        <path d="M256.48,116.32h2.4a4.66,4.66,0,0,1,1.18.14,2.6,2.6,0,0,1,.91.42,1.9,1.9,0,0,1,.58.71,2.3,2.3,0,0,1,.2,1,2.23,2.23,0,0,1-.21,1,1.94,1.94,0,0,1-.59.71,2.67,2.67,0,0,1-.91.43,4.55,4.55,0,0,1-1.18.14h-1.51v3.95h-.86Zm.86,3.82h1.46a2.55,2.55,0,0,0,1.55-.4,1.35,1.35,0,0,0,.53-1.15,1.3,1.3,0,0,0-.55-1.16,2.73,2.73,0,0,0-1.53-.37h-1.46Z"/>
        <path d="M261.59,134.66v.18a1.91,1.91,0,0,1,0,.2h-4.66a2.18,2.18,0,0,0,.17.79,2,2,0,0,0,.43.65,2.08,2.08,0,0,0,.65.44,2.14,2.14,0,0,0,1.9-.13,2.2,2.2,0,0,0,.7-.68l.61.48a3,3,0,0,1-1.11.91,3.11,3.11,0,0,1-1.3.28,3,3,0,0,1-1.16-.22,2.71,2.71,0,0,1-.92-.62,2.94,2.94,0,0,1-.61-.94,3.07,3.07,0,0,1-.22-1.18,3.15,3.15,0,0,1,.22-1.18,2.84,2.84,0,0,1,.6-.94,2.76,2.76,0,0,1,.9-.62,2.79,2.79,0,0,1,1.12-.22,2.86,2.86,0,0,1,1.16.22,2.4,2.4,0,0,1,.84.6,2.57,2.57,0,0,1,.51.88A3.28,3.28,0,0,1,261.59,134.66Zm-.83-.26a2,2,0,0,0-.51-1.31,1.73,1.73,0,0,0-1.35-.52,1.89,1.89,0,0,0-.76.15,2,2,0,0,0-.61.41,2,2,0,0,0-.42.59,1.9,1.9,0,0,0-.18.69Z"/>
        <path d="M257.74,145.48q0-.36,0-.65h.78c0,.15,0,.32,0,.5s0,.34,0,.46h0a2,2,0,0,1,1.8-1.1h.28l.26,0-.11.78-.24,0-.34,0a1.67,1.67,0,0,0-.62.12,1.34,1.34,0,0,0-.52.38,2,2,0,0,0-.36.66,3,3,0,0,0-.14,1v2.87h-.82v-4.38Q257.75,145.84,257.74,145.48Z"/>
        <path d="M257.74,158.3q0-.36,0-.65h.78c0,.15,0,.32,0,.5s0,.34,0,.46h0a2,2,0,0,1,1.8-1.1h.28l.26,0-.11.78-.24,0-.34,0a1.67,1.67,0,0,0-.62.12,1.34,1.34,0,0,0-.52.38,2,2,0,0,0-.36.66,3,3,0,0,0-.14,1v2.87h-.82v-4.38Q257.75,158.66,257.74,158.3Z"/>
        <path d="M258.92,175.21h0l1.74-4.74h.89l-2.8,7.07a3,3,0,0,1-.64,1A1.52,1.52,0,0,1,257,179a3.73,3.73,0,0,1-.73-.07l.08-.74a1.89,1.89,0,0,0,.6.1.86.86,0,0,0,.66-.26,2.22,2.22,0,0,0,.42-.74l.46-1.18-2.4-5.6H257Z"/>
        <path d="M260.69,189.4a2.08,2.08,0,0,0-.71-.62,2.17,2.17,0,0,0-1-.23,2.23,2.23,0,0,0-.64.1,1.84,1.84,0,0,0-.59.29,1.51,1.51,0,0,0-.43.5,1.47,1.47,0,0,0-.16.71,1.31,1.31,0,0,0,.16.67,1.49,1.49,0,0,0,.41.45,2.37,2.37,0,0,0,.59.31l.69.24.89.31a3.2,3.2,0,0,1,.81.44,2.11,2.11,0,0,1,.59.68,2.17,2.17,0,0,1,.23,1.05,2.33,2.33,0,0,1-.24,1.1,2.29,2.29,0,0,1-.63.76,2.6,2.6,0,0,1-.88.44,3.58,3.58,0,0,1-1,.14,3.86,3.86,0,0,1-.77-.08,3.48,3.48,0,0,1-.73-.23,3,3,0,0,1-.65-.4,2.87,2.87,0,0,1-.53-.55l.74-.55a2.28,2.28,0,0,0,.77.76,2.19,2.19,0,0,0,1.17.31,2.27,2.27,0,0,0,.66-.1,1.85,1.85,0,0,0,.61-.31,1.72,1.72,0,0,0,.44-.52,1.6,1.6,0,0,0,0-1.45,1.56,1.56,0,0,0-.46-.49,2.82,2.82,0,0,0-.66-.33l-.78-.26c-.28-.09-.56-.19-.83-.3a2.81,2.81,0,0,1-.73-.44,2.07,2.07,0,0,1-.52-.67,2.44,2.44,0,0,1,0-2,2.24,2.24,0,0,1,.64-.73,2.69,2.69,0,0,1,.88-.42,3.56,3.56,0,0,1,.95-.13,3.27,3.27,0,0,1,1.48.31,2.53,2.53,0,0,1,.92.73Z"/>
        <path d="M260.54,204.41H259v3.28a1.86,1.86,0,0,0,.06.52.73.73,0,0,0,.17.32.59.59,0,0,0,.27.16,1.27,1.27,0,0,0,.34,0,1.43,1.43,0,0,0,.35,0,1.8,1.8,0,0,0,.35-.13l0,.71a2.4,2.4,0,0,1-.45.13,2.86,2.86,0,0,1-.51,0,2.1,2.1,0,0,1-.48-.06,1.21,1.21,0,0,1-.47-.23,1.24,1.24,0,0,1-.35-.46,1.77,1.77,0,0,1-.14-.76v-3.5H257v-.68h1.16v-1.58H259v1.58h1.58Z"/>
      </g>
      <g>
        <path d="M336.43,13.83h4v.77h-4.82V6.1h.86Z"/>
        <path d="M340.49,24.6a3.07,3.07,0,0,1-.22,1.18,2.84,2.84,0,0,1-.62.94,2.81,2.81,0,0,1-.95.62,3.22,3.22,0,0,1-1.21.22,3.19,3.19,0,0,1-1.2-.22,2.81,2.81,0,0,1-.95-.62,2.84,2.84,0,0,1-.62-.94,3.23,3.23,0,0,1,0-2.35,2.84,2.84,0,0,1,.62-.94,2.81,2.81,0,0,1,.95-.62,3.19,3.19,0,0,1,1.2-.22,3.22,3.22,0,0,1,1.21.22,2.81,2.81,0,0,1,.95.62,2.84,2.84,0,0,1,.62.94A3.07,3.07,0,0,1,340.49,24.6Zm-.86,0a2.58,2.58,0,0,0-.15-.88,2.17,2.17,0,0,0-.43-.72,2,2,0,0,0-.67-.49,2.12,2.12,0,0,0-.89-.18,2.08,2.08,0,0,0-.88.18,2,2,0,0,0-.67.49,2.17,2.17,0,0,0-.43.72,2.68,2.68,0,0,0,0,1.76,2.16,2.16,0,0,0,.43.72,2,2,0,0,0,.67.48,2.14,2.14,0,0,0,.88.17,2.18,2.18,0,0,0,.89-.17,1.94,1.94,0,0,0,.67-.48,2.16,2.16,0,0,0,.43-.72A2.58,2.58,0,0,0,339.63,24.6Z"/>
        <path d="M334.21,34.61l1.36,4.56h0l1.51-4.56h.79l1.54,4.56h0l1.34-4.56h.86l-1.78,5.62H339l-1.5-4.55h0L336,40.23h-.89l-1.78-5.62Z"/>
        <path d="M340.26,50.07v.18a1.91,1.91,0,0,1,0,.2h-4.66a2.18,2.18,0,0,0,.17.79,2,2,0,0,0,.43.65,2.08,2.08,0,0,0,.65.44,2.14,2.14,0,0,0,1.9-.13,2.2,2.2,0,0,0,.7-.68l.61.48a3,3,0,0,1-1.11.91,3.11,3.11,0,0,1-1.3.28,3,3,0,0,1-1.16-.22,2.71,2.71,0,0,1-.92-.62,2.94,2.94,0,0,1-.61-.94,3.07,3.07,0,0,1-.22-1.18,3.15,3.15,0,0,1,.22-1.18,2.84,2.84,0,0,1,.6-.94,2.76,2.76,0,0,1,.9-.62,2.79,2.79,0,0,1,1.12-.22,2.86,2.86,0,0,1,1.16.22,2.4,2.4,0,0,1,.84.6,2.57,2.57,0,0,1,.51.88A3.28,3.28,0,0,1,340.26,50.07Zm-.83-.26a2,2,0,0,0-.51-1.31,1.73,1.73,0,0,0-1.35-.52,1.89,1.89,0,0,0-.76.15,2,2,0,0,0-.61.41,2,2,0,0,0-.42.59,1.9,1.9,0,0,0-.18.69Z"/>
        <path d="M337.91,65.86h-.82V56.79h.82Z"/>
        <path d="M337.91,78.67h-.82V69.6h.82Z"/>
        <path d="M334.81,90.63h2.53a4.79,4.79,0,0,1,1,.1,2.64,2.64,0,0,1,.88.35,1.92,1.92,0,0,1,.64.67,2.07,2.07,0,0,1,.25,1.06,1.79,1.79,0,0,1-.41,1.17,1.92,1.92,0,0,1-1.1.65v0a2.24,2.24,0,0,1,1.37.64,2,2,0,0,1,.54,1.48,2.09,2.09,0,0,1-.85,1.71,3,3,0,0,1-1,.47,4.77,4.77,0,0,1-1.32.17h-2.51Zm.86,3.72h1.74a2.83,2.83,0,0,0,.63-.07,1.75,1.75,0,0,0,.58-.25,1.31,1.31,0,0,0,.43-.46,1.43,1.43,0,0,0,.16-.71,1.37,1.37,0,0,0-.16-.69,1.35,1.35,0,0,0-.44-.46,1.87,1.87,0,0,0-.65-.26,3.84,3.84,0,0,0-.79-.08h-1.5Zm0,4h1.61a4.31,4.31,0,0,0,.89-.09,2.3,2.3,0,0,0,.74-.29,1.53,1.53,0,0,0,.51-.52,1.64,1.64,0,0,0-.38-2,2.71,2.71,0,0,0-1.61-.41h-1.76Z"/>
        <path d="M337.91,111.94h-.82v-9.07h.82Z"/>
        <path d="M338,124.75h-.9l-2.29-5.62h.91l1.82,4.75h0l1.84-4.75h.88Z"/>
        <path d="M339.38,136.62a2.3,2.3,0,0,1-.94.82,2.72,2.72,0,0,1-1.19.28,3,3,0,0,1-1.19-.23,2.72,2.72,0,0,1-.91-.62,2.82,2.82,0,0,1-.59-.94,3.33,3.33,0,0,1,0-2.33,2.82,2.82,0,0,1,.59-.94,2.74,2.74,0,0,1,.91-.62,3,3,0,0,1,1.19-.23,2.67,2.67,0,0,1,1.19.28,2.32,2.32,0,0,1,.94.83h0V128.5h.82v9.07h-.82v-.95Zm-4.16-1.86a2.68,2.68,0,0,0,.14.88,2.15,2.15,0,0,0,.41.72,1.89,1.89,0,0,0,.67.48,2.22,2.22,0,0,0,.9.17,2.11,2.11,0,0,0,2-1.36,2.55,2.55,0,0,0,0-1.79,2.22,2.22,0,0,0-.45-.72,2.07,2.07,0,0,0-.68-.48,2.13,2.13,0,0,0-.86-.17,2.15,2.15,0,0,0-.9.18,2,2,0,0,0-.67.49,2.15,2.15,0,0,0-.41.72A2.67,2.67,0,0,0,335.21,134.76Z"/>
      </g>
      <g>
        <path d="M400.27,16.74h-.86V8.25h.86Z"/>
        <path d="M398.74,24.59q0-.36,0-.65h.78c0,.15,0,.32,0,.5s0,.34,0,.46h0a2,2,0,0,1,1.8-1.1h.28l.26,0-.11.78-.24,0-.34,0a1.67,1.67,0,0,0-.62.12,1.34,1.34,0,0,0-.52.38,2,2,0,0,0-.36.66,3,3,0,0,0-.14,1v2.87h-.82V25.18Q398.75,25,398.74,24.59Z"/>
        <path d="M400.29,42.37h-.9l-2.29-5.62H398l1.82,4.75h0l1.84-4.75h.88Z"/>
        <path d="M400.41,47.41a.54.54,0,0,1-.18.41.57.57,0,0,1-.79,0,.57.57,0,0,1,0-.83.57.57,0,0,1,.79,0A.53.53,0,0,1,400.41,47.41Zm-.17,7.78h-.82V49.57h.82Z"/>
        <path d="M398.16,62.39c0,.15,0,.32,0,.5s0,.34,0,.46h0a1.85,1.85,0,0,1,.78-.8,2.28,2.28,0,0,1,1.14-.31,2,2,0,0,1,1.6.64,2.53,2.53,0,0,1,.53,1.68V68h-.82V64.9a4.13,4.13,0,0,0-.07-.8,1.68,1.68,0,0,0-.25-.62,1.17,1.17,0,0,0-.47-.4,1.68,1.68,0,0,0-.74-.14,1.58,1.58,0,0,0-.63.13,1.54,1.54,0,0,0-.55.4,2,2,0,0,0-.38.68,3,3,0,0,0-.14,1V68h-.82V63.63q0-.23,0-.59t0-.65Z"/>
        <path d="M397.42,82a2.71,2.71,0,0,0,.92.73,2.84,2.84,0,0,0,2.25.13,1.76,1.76,0,0,0,.68-.47,1.88,1.88,0,0,0,.38-.7,3,3,0,0,0,.12-.86V79.72h0a2.15,2.15,0,0,1-.92.82,2.74,2.74,0,0,1-1.21.29,3.16,3.16,0,0,1-1.19-.22,2.72,2.72,0,0,1-.91-.59,2.64,2.64,0,0,1-.59-.91,3.07,3.07,0,0,1-.21-1.14,3,3,0,0,1,.21-1.13,2.84,2.84,0,0,1,.59-.92,2.74,2.74,0,0,1,.91-.62,3,3,0,0,1,1.19-.23,2.7,2.7,0,0,1,1.2.29,2.22,2.22,0,0,1,.92.83h0v-1h.82v5.57a4.1,4.1,0,0,1-.13,1,2.46,2.46,0,0,1-.47.95,2.64,2.64,0,0,1-.93.72,3.46,3.46,0,0,1-1.52.29,3.78,3.78,0,0,1-1.49-.3,3.59,3.59,0,0,1-1.21-.83Zm.16-4a2.45,2.45,0,0,0,.14.84,2.11,2.11,0,0,0,.41.7,1.93,1.93,0,0,0,.67.47,2.22,2.22,0,0,0,.9.17,2.34,2.34,0,0,0,.86-.16,2,2,0,0,0,.68-.44,2,2,0,0,0,.45-.69,2.38,2.38,0,0,0,.16-.89,2.19,2.19,0,0,0-1.3-2,2.07,2.07,0,0,0-.86-.18,2.15,2.15,0,0,0-.9.18,2,2,0,0,0-.67.48,2.12,2.12,0,0,0-.41.7A2.45,2.45,0,0,0,397.58,77.94Z"/>
        <path d="M401.69,94.14a2.08,2.08,0,0,0-.71-.62,2.17,2.17,0,0,0-1-.23,2.23,2.23,0,0,0-.64.1,1.84,1.84,0,0,0-.59.29,1.51,1.51,0,0,0-.43.5,1.47,1.47,0,0,0-.16.71,1.31,1.31,0,0,0,.16.67,1.49,1.49,0,0,0,.41.45,2.37,2.37,0,0,0,.59.31l.69.24.89.31a3.2,3.2,0,0,1,.81.44,2.11,2.11,0,0,1,.59.68,2.17,2.17,0,0,1,.23,1.05,2.33,2.33,0,0,1-.24,1.1,2.29,2.29,0,0,1-.63.76,2.6,2.6,0,0,1-.88.44,3.58,3.58,0,0,1-1,.14,3.86,3.86,0,0,1-.77-.08,3.48,3.48,0,0,1-.73-.23,3,3,0,0,1-.65-.4,2.87,2.87,0,0,1-.53-.55l.74-.55a2.28,2.28,0,0,0,.77.76,2.19,2.19,0,0,0,1.17.31,2.27,2.27,0,0,0,.66-.1,1.85,1.85,0,0,0,.61-.31,1.72,1.72,0,0,0,.44-.52,1.6,1.6,0,0,0,0-1.45,1.56,1.56,0,0,0-.46-.49,2.82,2.82,0,0,0-.66-.33l-.78-.26c-.28-.09-.56-.19-.83-.3a2.81,2.81,0,0,1-.73-.44,2.07,2.07,0,0,1-.52-.67,2.44,2.44,0,0,1,0-2,2.24,2.24,0,0,1,.64-.73,2.69,2.69,0,0,1,.88-.42,3.56,3.56,0,0,1,.95-.13,3.27,3.27,0,0,1,1.48.31,2.53,2.53,0,0,1,.92.73Z"/>
        <path d="M401.54,109.15H400v3.28a1.86,1.86,0,0,0,.06.52.73.73,0,0,0,.17.32.59.59,0,0,0,.27.16,1.27,1.27,0,0,0,.34,0,1.43,1.43,0,0,0,.35,0,1.8,1.8,0,0,0,.35-.13l0,.71a2.4,2.4,0,0,1-.45.13,2.86,2.86,0,0,1-.51,0,2.1,2.1,0,0,1-.48-.06,1.21,1.21,0,0,1-.47-.23,1.24,1.24,0,0,1-.35-.46,1.77,1.77,0,0,1-.14-.76v-3.5H398v-.68h1.16v-1.58H400v1.58h1.58Z"/>
      </g>
      <g>
        <path d="M90.27,79.68h.37a3.37,3.37,0,0,0,.77-.08,1.81,1.81,0,0,0,.63-.27,1.31,1.31,0,0,0,.43-.49,1.54,1.54,0,0,0,.16-.72,1.58,1.58,0,0,0-.13-.65,1.49,1.49,0,0,0-.37-.5,1.69,1.69,0,0,0-.54-.32,1.83,1.83,0,0,0-.64-.11,1.73,1.73,0,0,0-1.62,1l-.73-.38a2.59,2.59,0,0,1,1-1A2.88,2.88,0,0,1,91,75.79a3,3,0,0,1,1,.15,2.43,2.43,0,0,1,.79.44,2.06,2.06,0,0,1,.55.71,2.27,2.27,0,0,1,.2,1,1.93,1.93,0,0,1-.42,1.27A2,2,0,0,1,92,80v0a2.2,2.2,0,0,1,1.22.7,2,2,0,0,1,.49,1.41,2.54,2.54,0,0,1-.22,1.09,2.45,2.45,0,0,1-.59.8,2.57,2.57,0,0,1-.87.5,3.17,3.17,0,0,1-1,.17,2.94,2.94,0,0,1-1.63-.45A2.81,2.81,0,0,1,88.29,83l.82-.3a1.87,1.87,0,0,0,.72,1,2.07,2.07,0,0,0,1.85.22,1.81,1.81,0,0,0,.6-.36,1.76,1.76,0,0,0,.41-.57,1.81,1.81,0,0,0,.16-.77,1.63,1.63,0,0,0-.19-.81,1.52,1.52,0,0,0-.5-.53,2.15,2.15,0,0,0-.71-.29,3.69,3.69,0,0,0-.82-.09h-.37Z"/>
        <path d="M101.18,76.77H97.64l-.06,2.63a3.35,3.35,0,0,1,.58-.14,3.83,3.83,0,0,1,.59,0,3.06,3.06,0,0,1,1.1.19,2.58,2.58,0,0,1,.87.55,2.45,2.45,0,0,1,.57.85,2.8,2.8,0,0,1,.2,1.08,3.13,3.13,0,0,1-.2,1.13,2.58,2.58,0,0,1-1.46,1.49,3,3,0,0,1-1.15.22,2.76,2.76,0,0,1-1.56-.42,2.8,2.8,0,0,1-1-1.13l.78-.35a1.89,1.89,0,0,0,.69.84,1.8,1.8,0,0,0,1,.31,2.07,2.07,0,0,0,.8-.15,1.84,1.84,0,0,0,.63-.42,1.94,1.94,0,0,0,.41-.64,2.26,2.26,0,0,0,0-1.65,1.89,1.89,0,0,0-.44-.64,2,2,0,0,0-.67-.41,2.37,2.37,0,0,0-.84-.14,3.35,3.35,0,0,0-.91.13,4.33,4.33,0,0,0-.86.34L96.84,76h4.33Z"/>
        <path d="M106.87,79.57h-1.58v3.28a1.86,1.86,0,0,0,.06.52.73.73,0,0,0,.17.32.59.59,0,0,0,.27.16,1.27,1.27,0,0,0,.34,0,1.43,1.43,0,0,0,.35,0,1.8,1.8,0,0,0,.35-.13l0,.71a2.4,2.4,0,0,1-.45.13,2.86,2.86,0,0,1-.51,0,2.1,2.1,0,0,1-.48-.06,1.21,1.21,0,0,1-.47-.23,1.24,1.24,0,0,1-.35-.46,1.77,1.77,0,0,1-.14-.76v-3.5H103.3v-.68h1.16V77.3h.82v1.58h1.58Z"/>
        <path d="M109.82,79.81a1.69,1.69,0,0,1,.76-.78,2.32,2.32,0,0,1,1.13-.29,2,2,0,0,1,1.6.64,2.52,2.52,0,0,1,.53,1.68V84.5H113V81.39a4.13,4.13,0,0,0-.07-.8,1.68,1.68,0,0,0-.25-.62,1.18,1.18,0,0,0-.47-.4,1.68,1.68,0,0,0-.74-.14,1.58,1.58,0,0,0-.63.13,1.54,1.54,0,0,0-.55.4,2,2,0,0,0-.38.68,3,3,0,0,0-.14,1V84.5H109V75.43h.82v4.38Z"/>
        <path d="M128.56,77.37a2.08,2.08,0,0,0-.71-.62,2.17,2.17,0,0,0-1-.23,2.23,2.23,0,0,0-.64.1,1.84,1.84,0,0,0-.59.29,1.51,1.51,0,0,0-.43.5,1.47,1.47,0,0,0-.16.71,1.31,1.31,0,0,0,.16.67,1.49,1.49,0,0,0,.41.45,2.37,2.37,0,0,0,.59.31l.69.24.89.31a3.2,3.2,0,0,1,.81.44,2.11,2.11,0,0,1,.59.68,2.17,2.17,0,0,1,.23,1.05,2.33,2.33,0,0,1-.24,1.1,2.29,2.29,0,0,1-.63.76,2.6,2.6,0,0,1-.88.44,3.58,3.58,0,0,1-1,.14,3.86,3.86,0,0,1-.77-.08,3.48,3.48,0,0,1-.73-.23,3,3,0,0,1-.65-.4,2.87,2.87,0,0,1-.53-.55l.74-.55a2.28,2.28,0,0,0,.77.76,2.19,2.19,0,0,0,1.17.31,2.27,2.27,0,0,0,.66-.1,1.85,1.85,0,0,0,.61-.31,1.72,1.72,0,0,0,.44-.52,1.6,1.6,0,0,0,0-1.45,1.56,1.56,0,0,0-.46-.49,2.82,2.82,0,0,0-.66-.33l-.78-.26c-.28-.09-.56-.19-.83-.3a2.81,2.81,0,0,1-.73-.44,2.07,2.07,0,0,1-.52-.67,2.44,2.44,0,0,1,0-2,2.24,2.24,0,0,1,.64-.73,2.69,2.69,0,0,1,.88-.42,3.56,3.56,0,0,1,.95-.13,3.27,3.27,0,0,1,1.48.31,2.53,2.53,0,0,1,.92.73Z"/>
        <path d="M134.44,79.57h-1.58v3.28a1.86,1.86,0,0,0,.06.52.73.73,0,0,0,.17.32.59.59,0,0,0,.27.16,1.27,1.27,0,0,0,.34,0,1.43,1.43,0,0,0,.35,0,1.8,1.8,0,0,0,.35-.13l0,.71a2.4,2.4,0,0,1-.45.13,2.86,2.86,0,0,1-.51,0,2.1,2.1,0,0,1-.48-.06,1.21,1.21,0,0,1-.47-.23,1.24,1.24,0,0,1-.35-.46,1.77,1.77,0,0,1-.14-.76v-3.5h-1.16v-.68H132V77.3h.82v1.58h1.58Z"/>
      </g>
      <g>
        <path d="M191.69,162.34h.37a3.37,3.37,0,0,0,.77-.08,1.81,1.81,0,0,0,.63-.27,1.31,1.31,0,0,0,.43-.49,1.54,1.54,0,0,0,.16-.72,1.58,1.58,0,0,0-.13-.65,1.49,1.49,0,0,0-.37-.5,1.69,1.69,0,0,0-.54-.32,1.83,1.83,0,0,0-.64-.11,1.73,1.73,0,0,0-1.62,1l-.73-.38a2.59,2.59,0,0,1,1-1,2.88,2.88,0,0,1,1.39-.33,3,3,0,0,1,1,.15,2.43,2.43,0,0,1,.79.44,2.06,2.06,0,0,1,.55.71,2.27,2.27,0,0,1,.2,1,1.93,1.93,0,0,1-.42,1.27,2,2,0,0,1-1.06.68v0a2.2,2.2,0,0,1,1.22.7,2,2,0,0,1,.49,1.41,2.54,2.54,0,0,1-.22,1.09,2.45,2.45,0,0,1-.59.8,2.57,2.57,0,0,1-.87.5,3.17,3.17,0,0,1-1,.17,2.94,2.94,0,0,1-1.63-.45,2.81,2.81,0,0,1-1.06-1.29l.82-.3a1.87,1.87,0,0,0,.72,1,2.07,2.07,0,0,0,1.85.22,1.81,1.81,0,0,0,.6-.36,1.76,1.76,0,0,0,.41-.57,1.81,1.81,0,0,0,.16-.77,1.63,1.63,0,0,0-.19-.81,1.52,1.52,0,0,0-.5-.53,2.15,2.15,0,0,0-.71-.29,3.69,3.69,0,0,0-.82-.09h-.37Z"/>
        <path d="M202.94,167.17h-5.42v-.9l3.48-3.52q.19-.19.38-.41a3.57,3.57,0,0,0,.33-.46,2.34,2.34,0,0,0,.23-.51,1.88,1.88,0,0,0,.08-.56,1.66,1.66,0,0,0-.13-.67,1.5,1.5,0,0,0-.37-.51,1.69,1.69,0,0,0-.54-.32,1.83,1.83,0,0,0-.64-.11,1.65,1.65,0,0,0-1.15.43,1.94,1.94,0,0,0-.6,1.09l-.85-.17a2.45,2.45,0,0,1,.32-.83,2.53,2.53,0,0,1,.58-.66,2.67,2.67,0,0,1,.77-.43,2.75,2.75,0,0,1,.94-.16,3.15,3.15,0,0,1,1,.15,2.35,2.35,0,0,1,.81.44,2.17,2.17,0,0,1,.55.73,2.34,2.34,0,0,1,.21,1,2.44,2.44,0,0,1-.11.76,3.28,3.28,0,0,1-.3.66,3.85,3.85,0,0,1-.44.59q-.25.28-.53.56l-3.06,3h4.5Z"/>
        <path d="M206.49,161.55c0,.15,0,.32,0,.5s0,.34,0,.46h0a1.85,1.85,0,0,1,.78-.8,2.28,2.28,0,0,1,1.14-.31,2,2,0,0,1,1.6.64,2.53,2.53,0,0,1,.53,1.68v3.44h-.82v-3.11a4.13,4.13,0,0,0-.07-.8,1.68,1.68,0,0,0-.25-.62,1.17,1.17,0,0,0-.47-.4,1.68,1.68,0,0,0-.74-.14,1.58,1.58,0,0,0-.63.13,1.54,1.54,0,0,0-.55.4,2,2,0,0,0-.38.68,3,3,0,0,0-.14,1v2.88h-.82v-4.38q0-.23,0-.59t0-.65Z"/>
        <path d="M218.17,166.22a2.3,2.3,0,0,1-.94.82,2.72,2.72,0,0,1-1.19.28,3,3,0,0,1-1.19-.23,2.72,2.72,0,0,1-.91-.62,2.82,2.82,0,0,1-.59-.94,3.33,3.33,0,0,1,0-2.33,2.82,2.82,0,0,1,.59-.94,2.74,2.74,0,0,1,.91-.62,3,3,0,0,1,1.19-.23,2.67,2.67,0,0,1,1.19.28,2.32,2.32,0,0,1,.94.83h0v-4.43H219v9.07h-.82v-.95ZM214,164.36a2.68,2.68,0,0,0,.14.88,2.15,2.15,0,0,0,.41.72,1.89,1.89,0,0,0,.67.48,2.22,2.22,0,0,0,.9.17,2.11,2.11,0,0,0,2-1.36,2.55,2.55,0,0,0,0-1.79,2.22,2.22,0,0,0-.45-.72,2.07,2.07,0,0,0-.68-.48,2.13,2.13,0,0,0-.86-.17,2.15,2.15,0,0,0-.9.18,2,2,0,0,0-.67.49,2.15,2.15,0,0,0-.41.72A2.67,2.67,0,0,0,214,164.36Z"/>
        <path d="M233.8,160a2.08,2.08,0,0,0-.71-.62,2.17,2.17,0,0,0-1-.23,2.23,2.23,0,0,0-.64.1,1.84,1.84,0,0,0-.59.29,1.51,1.51,0,0,0-.43.5,1.47,1.47,0,0,0-.16.71,1.31,1.31,0,0,0,.16.67,1.49,1.49,0,0,0,.41.45,2.37,2.37,0,0,0,.59.31l.69.24.89.31a3.2,3.2,0,0,1,.81.44,2.11,2.11,0,0,1,.59.68,2.17,2.17,0,0,1,.23,1.05,2.33,2.33,0,0,1-.24,1.1,2.29,2.29,0,0,1-.63.76,2.6,2.6,0,0,1-.88.44,3.58,3.58,0,0,1-1,.14,3.86,3.86,0,0,1-.77-.08,3.48,3.48,0,0,1-.73-.23,3,3,0,0,1-.65-.4,2.87,2.87,0,0,1-.53-.55l.74-.55a2.28,2.28,0,0,0,.77.76,2.19,2.19,0,0,0,1.17.31,2.27,2.27,0,0,0,.66-.1,1.85,1.85,0,0,0,.61-.31,1.72,1.72,0,0,0,.44-.52,1.6,1.6,0,0,0,0-1.45,1.56,1.56,0,0,0-.46-.49,2.82,2.82,0,0,0-.66-.33l-.78-.26c-.28-.09-.56-.19-.83-.3a2.81,2.81,0,0,1-.73-.44,2.07,2.07,0,0,1-.52-.67,2.44,2.44,0,0,1,0-2,2.24,2.24,0,0,1,.64-.73,2.69,2.69,0,0,1,.88-.42,3.56,3.56,0,0,1,.95-.13,3.27,3.27,0,0,1,1.48.31,2.53,2.53,0,0,1,.92.73Z"/>
        <path d="M239.68,162.23H238.1v3.28a1.86,1.86,0,0,0,.06.52.73.73,0,0,0,.17.32.59.59,0,0,0,.27.16,1.27,1.27,0,0,0,.34,0,1.43,1.43,0,0,0,.35,0,1.8,1.8,0,0,0,.35-.13l0,.71a2.4,2.4,0,0,1-.45.13,2.86,2.86,0,0,1-.51,0,2.1,2.1,0,0,1-.48-.06,1.21,1.21,0,0,1-.47-.23,1.24,1.24,0,0,1-.35-.46,1.77,1.77,0,0,1-.14-.76v-3.5h-1.16v-.68h1.16V160h.82v1.58h1.58Z"/>
      </g>
      <g>
        <path d="M283.74,254.5h-5.42v-.9l3.48-3.52q.19-.19.38-.41a3.57,3.57,0,0,0,.33-.46,2.34,2.34,0,0,0,.23-.51,1.88,1.88,0,0,0,.08-.56,1.66,1.66,0,0,0-.13-.67,1.5,1.5,0,0,0-.37-.51,1.69,1.69,0,0,0-.54-.32,1.83,1.83,0,0,0-.64-.11,1.65,1.65,0,0,0-1.15.43,1.94,1.94,0,0,0-.6,1.09l-.85-.17a2.45,2.45,0,0,1,.32-.83,2.53,2.53,0,0,1,.58-.66,2.67,2.67,0,0,1,.77-.43,2.75,2.75,0,0,1,.94-.16,3.15,3.15,0,0,1,1,.15,2.35,2.35,0,0,1,.81.44,2.17,2.17,0,0,1,.55.73,2.34,2.34,0,0,1,.21,1,2.44,2.44,0,0,1-.11.76,3.28,3.28,0,0,1-.3.66,3.85,3.85,0,0,1-.44.59q-.25.28-.53.56l-3.06,3h4.5Z"/>
        <path d="M290,250.79l0,0a1.48,1.48,0,0,1-.54.23,2.86,2.86,0,0,1-.67.08,2.71,2.71,0,0,1-1-.19,2.49,2.49,0,0,1-.82-.53,2.42,2.42,0,0,1-.55-.83,2.77,2.77,0,0,1-.2-1.06,2.83,2.83,0,0,1,.2-1.09,2.37,2.37,0,0,1,.58-.85,2.72,2.72,0,0,1,.88-.55,3.18,3.18,0,0,1,2.21,0,2.74,2.74,0,0,1,.88.55,2.38,2.38,0,0,1,.58.85,2.83,2.83,0,0,1,.2,1.09,3.25,3.25,0,0,1-.23,1.22,7.58,7.58,0,0,1-.54,1.08l-2.32,3.73h-1Zm.83-2.33a2.13,2.13,0,0,0-.14-.77,1.78,1.78,0,0,0-.39-.62,1.86,1.86,0,0,0-.6-.41,2,2,0,0,0-1.54,0,1.86,1.86,0,0,0-.6.41,1.78,1.78,0,0,0-.39.62,2.13,2.13,0,0,0-.14.77,2.17,2.17,0,0,0,.13.76,1.77,1.77,0,0,0,.38.61,1.71,1.71,0,0,0,.6.4,2.22,2.22,0,0,0,1.57,0,1.71,1.71,0,0,0,.6-.4,1.77,1.77,0,0,0,.38-.61A2.17,2.17,0,0,0,290.88,248.46Z"/>
        <path d="M296.87,249.57h-1.58v3.28a1.86,1.86,0,0,0,.06.52.73.73,0,0,0,.17.32.59.59,0,0,0,.27.16,1.27,1.27,0,0,0,.34,0,1.43,1.43,0,0,0,.35,0,1.8,1.8,0,0,0,.35-.13l0,.71a2.4,2.4,0,0,1-.45.13,2.86,2.86,0,0,1-.51,0,2.1,2.1,0,0,1-.48-.06,1.21,1.21,0,0,1-.47-.23,1.24,1.24,0,0,1-.35-.46,1.77,1.77,0,0,1-.14-.76v-3.5H293.3v-.68h1.16V247.3h.82v1.58h1.58Z"/>
        <path d="M299.82,249.81a1.69,1.69,0,0,1,.76-.78,2.32,2.32,0,0,1,1.13-.29,2,2,0,0,1,1.6.64,2.52,2.52,0,0,1,.53,1.68v3.44H303v-3.11a4.13,4.13,0,0,0-.07-.8,1.68,1.68,0,0,0-.25-.62,1.18,1.18,0,0,0-.47-.4,1.68,1.68,0,0,0-.74-.14,1.58,1.58,0,0,0-.63.13,1.54,1.54,0,0,0-.55.4,2,2,0,0,0-.38.68,3,3,0,0,0-.14,1v2.88H299v-9.07h.82v4.38Z"/>
        <path d="M318.56,247.37a2.08,2.08,0,0,0-.71-.62,2.17,2.17,0,0,0-1-.23,2.23,2.23,0,0,0-.64.1,1.84,1.84,0,0,0-.59.29,1.51,1.51,0,0,0-.43.5,1.47,1.47,0,0,0-.16.71,1.31,1.31,0,0,0,.16.67,1.49,1.49,0,0,0,.41.45,2.37,2.37,0,0,0,.59.31l.69.24.89.31a3.2,3.2,0,0,1,.81.44,2.11,2.11,0,0,1,.59.68,2.17,2.17,0,0,1,.23,1.05,2.33,2.33,0,0,1-.24,1.1,2.29,2.29,0,0,1-.63.76,2.6,2.6,0,0,1-.88.44,3.58,3.58,0,0,1-1,.14,3.86,3.86,0,0,1-.77-.08,3.48,3.48,0,0,1-.73-.23,3,3,0,0,1-.65-.4,2.87,2.87,0,0,1-.53-.55l.74-.55a2.28,2.28,0,0,0,.77.76,2.19,2.19,0,0,0,1.17.31,2.27,2.27,0,0,0,.66-.1,1.85,1.85,0,0,0,.61-.31,1.72,1.72,0,0,0,.44-.52,1.6,1.6,0,0,0,0-1.45,1.56,1.56,0,0,0-.46-.49,2.82,2.82,0,0,0-.66-.33l-.78-.26c-.28-.09-.56-.19-.83-.3a2.81,2.81,0,0,1-.73-.44,2.07,2.07,0,0,1-.52-.67,2.44,2.44,0,0,1,0-2,2.24,2.24,0,0,1,.64-.73,2.69,2.69,0,0,1,.88-.42,3.56,3.56,0,0,1,.95-.13,3.27,3.27,0,0,1,1.48.31,2.53,2.53,0,0,1,.92.73Z"/>
        <path d="M324.44,249.57h-1.58v3.28a1.86,1.86,0,0,0,.06.52.73.73,0,0,0,.17.32.59.59,0,0,0,.27.16,1.27,1.27,0,0,0,.34,0,1.43,1.43,0,0,0,.35,0,1.8,1.8,0,0,0,.35-.13l0,.71a2.4,2.4,0,0,1-.45.13,2.86,2.86,0,0,1-.51,0,2.1,2.1,0,0,1-.48-.06,1.21,1.21,0,0,1-.47-.23,1.24,1.24,0,0,1-.35-.46,1.77,1.77,0,0,1-.14-.76v-3.5h-1.16v-.68H322V247.3h.82v1.58h1.58Z"/>
      </g>
      <g>
        <path d="M33.27,9.34h.37a3.37,3.37,0,0,0,.77-.08A1.81,1.81,0,0,0,35,9a1.31,1.31,0,0,0,.43-.49,1.54,1.54,0,0,0,.16-.72,1.58,1.58,0,0,0-.13-.65,1.49,1.49,0,0,0-.37-.5,1.69,1.69,0,0,0-.54-.32,1.83,1.83,0,0,0-.64-.11,1.73,1.73,0,0,0-1.62,1l-.73-.38a2.59,2.59,0,0,1,1-1A2.88,2.88,0,0,1,34,5.45a3,3,0,0,1,1,.15,2.43,2.43,0,0,1,.79.44,2.06,2.06,0,0,1,.55.71,2.27,2.27,0,0,1,.2,1A1.93,1.93,0,0,1,36.07,9,2,2,0,0,1,35,9.68v0a2.2,2.2,0,0,1,1.22.7,2,2,0,0,1,.49,1.41,2.54,2.54,0,0,1-.22,1.09,2.45,2.45,0,0,1-.59.8,2.57,2.57,0,0,1-.87.5,3.17,3.17,0,0,1-1,.17,2.94,2.94,0,0,1-1.63-.45,2.81,2.81,0,0,1-1.06-1.29l.82-.3a1.87,1.87,0,0,0,.72,1,2.07,2.07,0,0,0,1.85.22,1.81,1.81,0,0,0,.6-.36,1.76,1.76,0,0,0,.41-.57,1.81,1.81,0,0,0,.16-.77,1.63,1.63,0,0,0-.19-.81,1.52,1.52,0,0,0-.5-.53,2.15,2.15,0,0,0-.71-.29,3.69,3.69,0,0,0-.82-.09h-.37Z"/>
        <path d="M43.07,9.67a2.2,2.2,0,0,1,1.15.8,2.35,2.35,0,0,1,.46,1.46,2.27,2.27,0,0,1-.22,1,2.4,2.4,0,0,1-.59.77,2.68,2.68,0,0,1-.87.49,3.18,3.18,0,0,1-2.08,0,2.68,2.68,0,0,1-.87-.49,2.4,2.4,0,0,1-.59-.77,2.27,2.27,0,0,1-.22-1,2.55,2.55,0,0,1,.12-.8,2.35,2.35,0,0,1,.34-.66,2.16,2.16,0,0,1,.51-.5,2.33,2.33,0,0,1,.64-.31v0a1.68,1.68,0,0,1-.52-.28,1.83,1.83,0,0,1-.4-.44,2.28,2.28,0,0,1-.26-.56,2.11,2.11,0,0,1-.1-.63,2.21,2.21,0,0,1,.19-.94,2.12,2.12,0,0,1,.52-.71A2.4,2.4,0,0,1,41,5.62a2.7,2.7,0,0,1,1.84,0,2.39,2.39,0,0,1,.77.46,2.15,2.15,0,0,1,.52.71,2.24,2.24,0,0,1,.19.94,2.11,2.11,0,0,1-.1.63,2.28,2.28,0,0,1-.26.56,1.83,1.83,0,0,1-.4.44,1.68,1.68,0,0,1-.52.28Zm-3,2.17a2,2,0,0,0,.13.72,1.61,1.61,0,0,0,.38.58,1.8,1.8,0,0,0,.59.38,2.18,2.18,0,0,0,1.52,0,1.8,1.8,0,0,0,.59-.38,1.61,1.61,0,0,0,.38-.58,2,2,0,0,0,.13-.72,1.86,1.86,0,0,0-.13-.71,1.65,1.65,0,0,0-.38-.56,1.73,1.73,0,0,0-.59-.37,2.27,2.27,0,0,0-1.52,0,1.73,1.73,0,0,0-.59.37,1.65,1.65,0,0,0-.38.56A1.86,1.86,0,0,0,40.1,11.84Zm.3-4.07a1.51,1.51,0,0,0,.12.61,1.45,1.45,0,0,0,.34.48,1.57,1.57,0,0,0,.5.32,1.61,1.61,0,0,0,1.71-.32,1.45,1.45,0,0,0,.34-.48,1.51,1.51,0,0,0,.12-.61,1.65,1.65,0,0,0-.12-.63,1.51,1.51,0,0,0-.33-.5,1.53,1.53,0,0,0-.49-.33,1.65,1.65,0,0,0-1.24,0,1.53,1.53,0,0,0-.49.33,1.5,1.5,0,0,0-.33.5A1.65,1.65,0,0,0,40.4,7.77Z"/>
        <path d="M49.87,9.23H48.28v3.28a1.86,1.86,0,0,0,.06.52.73.73,0,0,0,.17.32.59.59,0,0,0,.27.16,1.27,1.27,0,0,0,.34,0,1.43,1.43,0,0,0,.35,0,1.8,1.8,0,0,0,.35-.13l0,.71a2.4,2.4,0,0,1-.45.13,2.86,2.86,0,0,1-.51,0,2.1,2.1,0,0,1-.48-.06A1.21,1.21,0,0,1,48,14a1.24,1.24,0,0,1-.35-.46,1.77,1.77,0,0,1-.14-.76V9.23H46.3V8.55h1.16V7h.82V8.55h1.58Z"/>
        <path d="M52.82,9.47a1.69,1.69,0,0,1,.76-.78,2.32,2.32,0,0,1,1.13-.29A2,2,0,0,1,56.3,9a2.52,2.52,0,0,1,.53,1.68v3.44H56V11.06a4.13,4.13,0,0,0-.07-.8,1.68,1.68,0,0,0-.25-.62,1.18,1.18,0,0,0-.47-.4,1.68,1.68,0,0,0-.74-.14,1.58,1.58,0,0,0-.63.13,1.54,1.54,0,0,0-.55.4,2,2,0,0,0-.38.68,3,3,0,0,0-.14,1v2.88H52V5.09h.82V9.47Z"/>
        <path d="M71.56,7a2.08,2.08,0,0,0-.71-.62,2.17,2.17,0,0,0-1-.23,2.23,2.23,0,0,0-.64.1,1.84,1.84,0,0,0-.59.29,1.51,1.51,0,0,0-.43.5,1.47,1.47,0,0,0-.16.71,1.31,1.31,0,0,0,.16.67,1.49,1.49,0,0,0,.41.45,2.37,2.37,0,0,0,.59.31l.69.24.89.31a3.2,3.2,0,0,1,.81.44,2.11,2.11,0,0,1,.59.68,2.17,2.17,0,0,1,.23,1.05,2.33,2.33,0,0,1-.24,1.1,2.29,2.29,0,0,1-.63.76,2.6,2.6,0,0,1-.88.44,3.58,3.58,0,0,1-1,.14,3.86,3.86,0,0,1-.77-.08,3.48,3.48,0,0,1-.73-.23,3,3,0,0,1-.65-.4,2.87,2.87,0,0,1-.53-.55l.74-.55a2.28,2.28,0,0,0,.77.76,2.19,2.19,0,0,0,1.17.31,2.27,2.27,0,0,0,.66-.1,1.85,1.85,0,0,0,.61-.31,1.72,1.72,0,0,0,.44-.52,1.6,1.6,0,0,0,0-1.45,1.56,1.56,0,0,0-.46-.49,2.82,2.82,0,0,0-.66-.33l-.78-.26c-.28-.09-.56-.19-.83-.3a2.81,2.81,0,0,1-.73-.44,2.07,2.07,0,0,1-.52-.67,2.16,2.16,0,0,1-.2-1,2.15,2.15,0,0,1,.25-1.06A2.24,2.24,0,0,1,68,6a2.69,2.69,0,0,1,.88-.42,3.56,3.56,0,0,1,.95-.13,3.27,3.27,0,0,1,1.48.31,2.53,2.53,0,0,1,.92.73Z"/>
        <path d="M77.44,9.23H75.86v3.28a1.86,1.86,0,0,0,.06.52.73.73,0,0,0,.17.32.59.59,0,0,0,.27.16,1.27,1.27,0,0,0,.34,0,1.43,1.43,0,0,0,.35,0,1.8,1.8,0,0,0,.35-.13l0,.71a2.4,2.4,0,0,1-.45.13,2.86,2.86,0,0,1-.51,0,2.1,2.1,0,0,1-.48-.06,1.21,1.21,0,0,1-.47-.23,1.24,1.24,0,0,1-.35-.46,1.77,1.77,0,0,1-.14-.76V9.23H73.88V8.55H75V7h.82V8.55h1.58Z"/>
      </g>
    </g>
  </g>
</svg>
