<svg xmlns="http://www.w3.org/2000/svg" viewBox="0 0 660.01 492.88">
  <defs>
    <style>
      .lower-highland-cls-1 {
        fill: none;
      }

      .lower-highland-cls-1, .lower-highland-cls-2, .lower-highland-cls-3, .lower-highland-cls-4, .lower-highland-cls-5, .lower-highland-cls-6 {
        stroke: #000;
        stroke-miterlimit: 10;
        stroke-width: 2px;
      }

      .lower-highland-cls-2 {
        fill: #999;
      }

      .lower-highland-cls-3 {
        fill: #ffd5d5;
      }

      .lower-highland-cls-4 {
        fill: #ff9696;
      }

      .lower-highland-cls-5 {
        fill: #769e6c;
      }

      .lower-highland-cls-6 {
        fill: #619cb0;
      }
    </style>
  </defs>
  <title>Asset 5</title>
  <g id="Layer_2" data-name="Layer 2">
    <g id="lowerhighlands">
      <path class="lower-highland-cls-1" d="M439.91,235.53l8.6-7.32v-.71ZM466,239l-10.28,9.35.59.47,10-9.6,10.16-9.74ZM381.51,227.5l-.29.3h.6Zm-29.06,144,1.06,1h0Z"/>
      <path class="lower-highland-cls-2" d="M355.05,390l-3.5,15.31a3.11,3.11,0,0,0-.07.42l-1.24,14a3.11,3.11,0,0,1-5.71,1.41l-.51-.8a3.11,3.11,0,0,0-1.39-1.17l-5.18-2.22a3.11,3.11,0,0,0-1.94-.17L324,419.48a3.11,3.11,0,0,1-2.85-5.29L349.89,387h0A3.11,3.11,0,0,1,355.05,390Z"/>
      <path class="lower-highland-cls-2" d="M349.45,428.72l-1.59,17.82a13.18,13.18,0,0,1-2.84,7.07l-2.09,2.61a13.44,13.44,0,0,1-8.87,4.95l-8.94,1.09-35.18-18.62,14.94-14.1,8,7.58a14.31,14.31,0,0,0,11,3.88l10.5-.84a16.5,16.5,0,0,0,12.56-7.52Z"/>
      <polygon class="lower-highland-cls-2" points="412.75 429.49 402.51 444.5 380.51 460.5 357.34 479.31 351.23 476.07 363.51 459.5 352.51 426.5 379.77 397.75 412.75 429.49"/>
      <path class="lower-highland-cls-2" d="M352.51,426.5l11,33-12.28,16.57-26.11-13.82,9.33-1.13a10.44,10.44,0,0,0,7.69-5l1.84-3.06a16.38,16.38,0,0,0,2.07-5.51l3.41-18.83h0l2.06-23.21,5.83-25.5,2-1.9,20.42,19.64Z"/>
      <polygon class="lower-highland-cls-2" points="282.67 402.46 258.04 426.75 249.35 422.15 252.51 405.5 281.51 403.5 282.67 402.46"/>
      <polygon class="lower-highland-cls-2" points="349.89 387.04 312.69 422.15 304.88 429.54 289.94 443.63 258.04 426.75 282.67 402.46 291.51 394.5 349.89 387.04"/>
      <polygon class="lower-highland-cls-3" points="489.71 255.03 359.35 378.11 353.52 372.5 411.96 312.32 426.49 297.36 440.59 282.83 453.77 269.26 454.51 268.5 454.51 249.5 455.75 248.38 456.34 248.84 466.35 239.25 489.71 255.03"/>
      <polygon class="lower-highland-cls-4" points="355.58 254.66 352.66 257.71 338.37 272.68 338.2 237.5 355.58 254.66"/>
      <polygon class="lower-highland-cls-3" points="386.64 285.32 384.25 287.55 371 299.94 354.99 314.88 343.52 304.19 372.51 276.5 352.66 257.71 355.58 254.66 386.64 285.32"/>
      <polygon class="lower-highland-cls-3" points="426.49 297.36 411.96 312.32 384.25 287.55 386.64 285.32 400.17 272.68 426.49 297.36"/>
      <polygon class="lower-highland-cls-4" points="381.22 227.81 368.33 241.31 355.58 254.66 338.2 237.5 338.15 228 381.22 227.81"/>
      <polygon class="lower-highland-cls-4" points="229.3 286.75 218.51 279.86 218.51 269.5 222.23 260.06 229.27 264.12 229.3 286.75"/>
      <polygon class="lower-highland-cls-4" points="218.51 269.5 218.51 279.85 194.51 264.5 179.26 264.44 174.51 264.44 174.51 257.5 197.51 257.5 218.51 269.5"/>
      <polygon class="lower-highland-cls-4" points="174.51 257.5 174.51 264.44 125.94 264.25 120.51 259.5 120.46 247.25 129.26 247.28 129.51 257.5 174.51 257.5"/>
      <polygon class="lower-highland-cls-4" points="179.26 264.44 179.26 284.75 139.9 279.55 135.51 271.5 128.51 266.5 125.94 264.25 174.51 264.44 179.26 264.44"/>
      <polygon class="lower-highland-cls-4" points="229.27 264.12 222.23 260.06 200.51 247.5 174.51 247.43 174.51 228.74 192.67 228.66 229.21 228.49 229.27 264.12"/>
      <polygon class="lower-highland-cls-4" points="174.51 228.74 174.51 247.43 129.26 247.28 120.46 247.25 120.39 228.97 174.51 228.74"/>
      <polygon class="lower-highland-cls-4" points="229.37 324.43 199.51 307.5 171.51 304.5 155.51 296.5 141.51 282.5 139.9 279.55 179.26 284.75 179.26 264.44 194.51 264.5 218.51 279.85 218.51 279.86 229.3 286.75 229.3 286.75 229.37 324.43"/>
      <polygon class="lower-highland-cls-4" points="148.51 341.12 148.51 368.79 96.01 341 148.51 341.12"/>
      <polygon class="lower-highland-cls-4" points="201.51 375.5 201.03 396.58 148.51 368.79 148.51 341.12 175.95 341.18 198.51 365.5 201.51 375.5"/>
      <polygon class="lower-highland-cls-4" points="201.03 396.58 201.51 375.5 198.51 365.5 175.95 341.18 229.39 341.3 229.51 411.65 201.03 396.58"/>
      <polygon class="lower-highland-cls-3" points="353.52 372.5 359.35 378.11 357.34 380 349.89 387.04 291.51 394.5 282.67 402.46 281.51 403.5 252.51 405.5 249.35 422.15 229.51 411.65 229.39 341.3 326.51 341.5 354.99 314.88 371 299.94 384.25 287.55 411.96 312.32 353.52 372.5 352.45 371.46 353.51 372.5 353.52 372.5"/>
      <polygon class="lower-highland-cls-4" points="192.67 228.66 174.51 228.74 120.39 228.97 120.25 192.06 192.53 191.78 192.67 228.66"/>
      <polygon class="lower-highland-cls-4" points="476.51 190.69 476.51 226.5 450.51 226.5 448.51 228.22 448.51 227.5 448.34 190.79 476.51 190.69"/>
      <polygon class="lower-highland-cls-4" points="570.6 122.5 524.51 190.5 502.64 190.59 502.95 122.42 570.6 122.5"/>
      <polygon class="lower-highland-cls-4" points="502.95 122.42 502.64 190.59 476.51 190.69 476.51 122.39 502.95 122.42"/>
      <path class="lower-highland-cls-4" d="M448,122.35l.3,68.44,28.17-.11V122.39Zm15.47,68.15h-15v-11h15Z"/>
      <polygon class="lower-highland-cls-4" points="448.34 190.79 337.96 191.22 337.61 122.22 448.04 122.36 448.34 190.79"/>
      <polygon class="lower-highland-cls-4" points="337.96 191.22 229.15 191.63 229.03 122.11 337.61 122.22 337.96 191.22"/>
      <polygon class="lower-highland-cls-4" points="229.15 191.63 192.53 191.78 192.28 122.06 229.03 122.11 229.15 191.63"/>
      <polygon class="lower-highland-cls-4" points="192.53 191.78 120.25 192.06 119.97 121.97 192.28 122.06 192.53 191.78"/>
      <polygon class="lower-highland-cls-2" points="229.39 341.3 175.95 341.18 148.51 341.12 96.01 341 95.7 341 2.61 274.18 2.35 229.5 120.39 228.97 120.46 247.25 120.51 259.5 125.94 264.25 128.51 266.5 135.51 271.5 139.9 279.55 141.51 282.5 155.51 296.5 171.51 304.5 199.51 307.5 229.37 324.43 229.39 341.3"/>
      <polygon class="lower-highland-cls-4" points="120.39 228.97 2.35 229.5 2.13 192.5 120.25 192.06 120.39 228.97"/>
      <polygon class="lower-highland-cls-4" points="120.25 192.06 2.13 192.5 1.71 121.83 119.97 121.97 120.25 192.06"/>
      <polygon class="lower-highland-cls-4" points="659.01 1 659.01 68.25 612.51 96.5 585.51 120.5 512.51 233.5 489.71 255.03 466.35 239.25 476.51 229.5 476.51 227.5 495.51 227.5 502.51 218.5 502.64 190.59 524.51 190.5 570.6 122.5 585.51 100.5 585.51 1.34 659.01 1"/>
      <polygon class="lower-highland-cls-4" points="503.51 1.72 502.95 122.42 476.51 122.39 476.51 1.83 503.51 1.72"/>
      <polygon class="lower-highland-cls-4" points="476.51 1.83 476.51 122.39 448.04 122.36 447.51 1.97 476.51 1.83"/>
      <polygon class="lower-highland-cls-4" points="448.04 122.36 337.61 122.22 337.01 2.48 447.51 1.97 448.04 122.36"/>
      <polygon class="lower-highland-cls-4" points="337.61 122.22 229.03 122.11 192.28 122.06 191.84 3.13 337.01 2.48 337.61 122.22"/>
      <polygon class="lower-highland-cls-4" points="192.28 122.06 119.97 121.97 119.51 3.46 191.84 3.13 192.28 122.06"/>
      <polygon class="lower-highland-cls-4" points="119.97 121.97 1.71 121.83 1.01 4 119.51 3.46 119.97 121.97"/>
      <polygon class="lower-highland-cls-5" points="445.3 460.8 423.92 483.17 414.51 471.5 411.51 447.5 420.03 436.49 445.3 460.8"/>
      <path class="lower-highland-cls-5" d="M626.15,237.5l-12.44,32a23.2,23.2,0,0,1-13.21,13.21L556,300l-16,21.36a16.09,16.09,0,0,1-4.83,4.28L517.22,336a21.86,21.86,0,0,0-8.15,8.26l-9,16a19.19,19.19,0,0,0-2.39,8l-1.28,17.33a35.91,35.91,0,0,0,.82,10.73l2.49,10.79a20,20,0,0,1-4.36,17.6L485.62,436a22.5,22.5,0,0,1-6.1,5L449.17,457.8a16.32,16.32,0,0,0-3.87,3h0L420,436.48l8.48-11,41-60,6-23,20-22,21.56-31.44A25.16,25.16,0,0,1,523,283l3.87-2.82,12.46-9.06a23.29,23.29,0,0,1,4.66-2.63l14-5.92a18.13,18.13,0,0,1,5.14-1.32l14.58-1.53a25.19,25.19,0,0,0,3.47-.61l11.86-3a13.18,13.18,0,0,0,4.46-2.06l19-13.55Z"/>
      <line class="lower-highland-cls-1" x1="572.51" y1="122.5" x2="570.6" y2="122.5"/>
      <line class="lower-highland-cls-1" x1="1.71" y1="121.83" x2="1.69" y2="121.83"/>
      <polygon class="lower-highland-cls-4" points="585.51 1.34 585.51 100.5 570.6 122.5 502.95 122.42 503.51 1.72 585.51 1.34"/>
      <line class="lower-highland-cls-1" x1="2.13" y1="192.5" x2="1.51" y2="192.5"/>
      <polygon class="lower-highland-cls-5" points="95.7 341 3.01 341 2.61 274.18 95.7 341"/>
      <polygon class="lower-highland-cls-4" points="354.99 314.88 326.51 341.5 229.39 341.3 229.37 324.43 229.3 286.75 229.3 286.75 229.27 264.12 229.21 228.49 338.15 228 338.2 237.5 338.37 272.68 338.51 299.5 343.52 304.19 354.99 314.88"/>
      <polygon class="lower-highland-cls-4" points="338.15 228 229.21 228.49 229.15 191.63 337.96 191.22 338.15 228"/>
      <line class="lower-highland-cls-1" x1="229.51" y1="324.5" x2="229.37" y2="324.42"/>
      <polygon class="lower-highland-cls-4" points="229.21 228.49 192.67 228.66 192.53 191.78 229.15 191.63 229.21 228.49"/>
      <line class="lower-highland-cls-1" x1="229.03" y1="122.1" x2="228.84" y2="3.46"/>
      <polygon class="lower-highland-cls-4" points="448.51 227.5 381.82 227.81 381.51 227.5 381.22 227.81 338.15 228 337.96 191.22 448.34 190.79 448.51 227.5"/>
      <line class="lower-highland-cls-3" x1="383.51" y1="341.5" x2="354.99" y2="314.88"/>
      <line class="lower-highland-cls-1" x1="448.51" y1="228.5" x2="448.51" y2="228.21"/>
      <polygon class="lower-highland-cls-4" points="414.63 259.17 400.17 272.68 368.33 241.31 381.22 227.81 381.82 227.81 414.63 259.17"/>
      <polygon class="lower-highland-cls-4" points="448.51 227.5 439.91 235.53 439.87 235.57 428.54 246.16 414.63 259.17 381.82 227.81 448.51 227.5"/>
      <polygon class="lower-highland-cls-3" points="455.75 248.38 454.51 249.5 454.51 268.5 453.77 269.26 428.54 246.16 439.87 235.57 455.75 248.38"/>
      <polygon class="lower-highland-cls-3" points="453.77 269.26 440.59 282.83 414.63 259.17 428.54 246.16 453.77 269.26"/>
      <polygon class="lower-highland-cls-3" points="440.59 282.83 426.49 297.36 400.17 272.68 414.63 259.17 440.59 282.83"/>
      <polyline class="lower-highland-cls-4" points="352.45 371.46 352.25 371.27 321.84 341.5"/>
      <polygon class="lower-highland-cls-5" points="502.64 190.59 502.51 218.5 495.51 227.5 476.51 227.5 476.51 190.69 502.64 190.59"/>
      <line class="lower-highland-cls-1" x1="555.51" y1="299.5" x2="526.87" y2="280.14"/>
      <line class="lower-highland-cls-1" x1="466.35" y1="239.24" x2="466.03" y2="239.02"/>
      <line class="lower-highland-cls-1" x1="229.51" y1="264.25" x2="229.27" y2="264.11"/>
      <line class="lower-highland-cls-1" x1="229.31" y1="286.75" x2="229.3" y2="286.75"/>
      <polyline class="lower-highland-cls-1" points="179.26 284.75 192.51 286.5 229.31 305.5"/>
      <polygon class="lower-highland-cls-4" points="174.51 247.43 174.51 257.5 129.51 257.5 129.26 247.28 174.51 247.43"/>
      <line class="lower-highland-cls-1" x1="129.26" y1="247.28" x2="129.26" y2="247.25"/>
      <polygon class="lower-highland-cls-4" points="222.23 260.06 218.51 269.5 197.51 257.5 174.51 257.5 174.51 247.43 200.51 247.5 222.23 260.06"/>
      <line class="lower-highland-cls-1" x1="352.45" y1="371.46" x2="352.25" y2="371.27"/>
      <polygon class="lower-highland-cls-2" points="508.75 267.9 379.77 397.75 359.35 378.11 489.71 255.03 508.75 267.9"/>
      <path class="lower-highland-cls-2" d="M517,273.44l-.33.15a23.53,23.53,0,0,0-9.76,8.62L489.51,309.5l-27,39-6,16-39,58-4.76,7-33-31.74,129-129.84Z"/>
      <line class="lower-highland-cls-1" x1="536.06" y1="325.13" x2="503.16" y2="273.53"/>
      <polygon class="lower-highland-cls-4" points="400.17 272.68 386.64 285.32 355.58 254.66 368.33 241.31 400.17 272.68"/>
      <line class="lower-highland-cls-1" x1="370.99" y1="299.94" x2="398.51" y2="325.5"/>
      <line class="lower-highland-cls-1" x1="175.95" y1="341.17" x2="175.89" y2="341.11"/>
      <polyline class="lower-highland-cls-1" points="148.5 352.13 170.51 352.5 182.51 366.5 192.51 359.5"/>
      <path class="lower-highland-cls-5" d="M659,68.25V153l-24.62,63.3-13.56,5.89a28.42,28.42,0,0,0-9.31,6.52l-10.09,10.65a20.83,20.83,0,0,1-9.4,5.7l-15.52,4.43-14.32,2.39a23.72,23.72,0,0,0-7,2.33L529.51,267.5,517,273.44l-8.21-5.54-19-12.87,22.8-21.53,73-113,27-24Z"/>
      <path class="lower-highland-cls-2" d="M349.45,428.71h0l-2.72,4.22a15.76,15.76,0,0,1-12,7.18l-8.78.7a19,19,0,0,1-14.59-5.15l-2.65-2.51a5,5,0,0,1,0-7.27l2.45-2.32a7.76,7.76,0,0,1,3.54-1.91l17.76-4.21a12.55,12.55,0,0,1,7.84.68h0a11.36,11.36,0,0,1,5.07,4.29Z"/>
      <polygon class="lower-highland-cls-5" points="372.51 276.5 343.52 304.19 338.51 299.5 338.37 272.68 352.66 257.71 372.51 276.5"/>
      <path class="lower-highland-cls-6" d="M525.42,281.2l-1.43,1a32.28,32.28,0,0,0-7.62,7.84l-20.21,29.47a17,17,0,0,1-1.44,1.82l-15.43,17a22.89,22.89,0,0,0-5.21,9.62l-2.86,11a39.21,39.21,0,0,1-5.57,12.23l-37.13,54.34,0,.06-7.6,9.84a1.26,1.26,0,0,1-1.87.14l-5.5-5.29a1.26,1.26,0,0,1-.17-1.62l4.16-6.1,38.13-56.71a13.31,13.31,0,0,0,1.42-2.75l5-13.32a10.51,10.51,0,0,1,1.2-2.29l26.26-37.93,17.55-27.58a22.28,22.28,0,0,1,9.25-8.17h0a1.26,1.26,0,0,1,1.24.09l7.83,5.29A1.26,1.26,0,0,1,525.42,281.2Z"/>
      <path class="lower-highland-cls-6" d="M423.92,483.16l-7.56,7.91-6.07-14.68a25.39,25.39,0,0,1-1.25-3.88l-2.5-10.62a2.83,2.83,0,0,0-4.54-1.55l-31.8,25.77-12.87-6.81,23-18.66.36-.28,19.8-14.4a14.37,14.37,0,0,0,3.42-3.53l8.84-13,7.28,7-5.25,6.8a12.94,12.94,0,0,0-2.6,9.52l1.6,12.81a20.85,20.85,0,0,0,4.46,10.51Z"/>
      <path class="lower-highland-cls-6" d="M634.39,216.3l-8.24,21.2-5.45,1.7a27.29,27.29,0,0,0-7.75,3.85l-13.81,9.87a23.42,23.42,0,0,1-7.93,3.66L581.37,259a27.31,27.31,0,0,1-3.77.67l-12,1.26a34.56,34.56,0,0,0-9.79,2.52L545.15,268a34.27,34.27,0,0,0-6.85,3.86l-11.44,8.31-9.91-6.7,12.55-5.94L554,254.84a32.32,32.32,0,0,1,9.54-3.17l11.67-1.95a23.45,23.45,0,0,0,2.59-.58l12.55-3.59a27.27,27.27,0,0,0,12.31-7.47l7.74-8.17a36.54,36.54,0,0,1,12-8.39Z"/>
      <polygon class="lower-highland-cls-5" points="476.51 226.5 476.51 229.5 466.03 239.03 455.75 248.38 439.87 235.57 439.91 235.53 448.51 228.22 450.51 226.5 476.51 226.5"/>
      <polygon class="lower-highland-cls-1" points="476.51 229.5 466.35 239.25 456.34 248.84 455.75 248.38 466.03 239.03 476.51 229.5"/>
      <rect class="lower-highland-cls-5" x="448.51" y="179.5" width="15" height="11"/>
      <polygon class="lower-highland-cls-4" points="229.51 341.5 229.51 411.5 249.51 422.5 252.51 405.5 281.51 403.5 291.51 394.5 349.51 387.5 358.64 378.77 320.67 341.49 229.51 341.5"/>
      <polygon class="lower-highland-cls-3" points="343.52 325.61 317.51 299.5 338.51 299.5 354.51 315.5 343.52 325.61"/>
      <g>
        <path d="M28,11.68h.37a3.37,3.37,0,0,0,.77-.08,1.81,1.81,0,0,0,.63-.27,1.31,1.31,0,0,0,.43-.49,1.54,1.54,0,0,0,.16-.72,1.58,1.58,0,0,0-.13-.65,1.49,1.49,0,0,0-.37-.5,1.69,1.69,0,0,0-.54-.32,1.83,1.83,0,0,0-.64-.11,1.73,1.73,0,0,0-1.62,1l-.73-.38a2.59,2.59,0,0,1,1-1,2.88,2.88,0,0,1,1.39-.33,3,3,0,0,1,1,.15,2.43,2.43,0,0,1,.79.44,2.06,2.06,0,0,1,.55.71,2.27,2.27,0,0,1,.2,1,1.93,1.93,0,0,1-.42,1.27,2,2,0,0,1-1.06.68v0a2.2,2.2,0,0,1,1.22.7,2,2,0,0,1,.49,1.41,2.54,2.54,0,0,1-.22,1.09,2.45,2.45,0,0,1-.59.8,2.57,2.57,0,0,1-.87.5,3.17,3.17,0,0,1-1,.17,2.94,2.94,0,0,1-1.63-.45A2.81,2.81,0,0,1,26.05,15l.82-.3a1.87,1.87,0,0,0,.72,1,2.07,2.07,0,0,0,1.85.22,1.81,1.81,0,0,0,.6-.36,1.76,1.76,0,0,0,.41-.57,1.81,1.81,0,0,0,.16-.77,1.63,1.63,0,0,0-.19-.81,1.52,1.52,0,0,0-.5-.53,2.15,2.15,0,0,0-.71-.29,3.69,3.69,0,0,0-.82-.09H28Z"/>
        <path d="M37.84,12a2.2,2.2,0,0,1,1.15.8,2.35,2.35,0,0,1,.46,1.46,2.27,2.27,0,0,1-.22,1,2.4,2.4,0,0,1-.59.77,2.68,2.68,0,0,1-.87.49,3.18,3.18,0,0,1-2.08,0,2.68,2.68,0,0,1-.87-.49,2.4,2.4,0,0,1-.59-.77,2.27,2.27,0,0,1-.22-1,2.55,2.55,0,0,1,.12-.8,2.35,2.35,0,0,1,.34-.66,2.16,2.16,0,0,1,.51-.5,2.33,2.33,0,0,1,.64-.31v0a1.68,1.68,0,0,1-.52-.28,1.83,1.83,0,0,1-.4-.44,2.28,2.28,0,0,1-.26-.56,2.11,2.11,0,0,1-.1-.63,2.21,2.21,0,0,1,.19-.94A2.12,2.12,0,0,1,35,8.41,2.4,2.4,0,0,1,35.8,8a2.7,2.7,0,0,1,1.84,0,2.39,2.39,0,0,1,.77.46,2.15,2.15,0,0,1,.52.71,2.24,2.24,0,0,1,.19.94,2.11,2.11,0,0,1-.1.63,2.28,2.28,0,0,1-.26.56,1.83,1.83,0,0,1-.4.44,1.68,1.68,0,0,1-.52.28Zm-3,2.17a2,2,0,0,0,.13.72,1.61,1.61,0,0,0,.38.58,1.8,1.8,0,0,0,.59.38,2.18,2.18,0,0,0,1.52,0,1.8,1.8,0,0,0,.59-.38,1.61,1.61,0,0,0,.38-.58,2,2,0,0,0,.13-.72,1.86,1.86,0,0,0-.13-.71,1.65,1.65,0,0,0-.38-.56,1.73,1.73,0,0,0-.59-.37,2.27,2.27,0,0,0-1.52,0,1.73,1.73,0,0,0-.59.37,1.65,1.65,0,0,0-.38.56A1.86,1.86,0,0,0,34.86,14.18Zm.3-4.07a1.51,1.51,0,0,0,.12.61,1.45,1.45,0,0,0,.34.48,1.57,1.57,0,0,0,.5.32,1.61,1.61,0,0,0,1.71-.32,1.45,1.45,0,0,0,.34-.48,1.51,1.51,0,0,0,.12-.61,1.65,1.65,0,0,0-.12-.63,1.51,1.51,0,0,0-.33-.5,1.53,1.53,0,0,0-.49-.33,1.65,1.65,0,0,0-1.24,0,1.53,1.53,0,0,0-.49.33,1.5,1.5,0,0,0-.33.5A1.65,1.65,0,0,0,35.16,10.11Z"/>
        <path d="M44.63,11.57H43v3.28a1.86,1.86,0,0,0,.06.52.73.73,0,0,0,.17.32.59.59,0,0,0,.27.16,1.27,1.27,0,0,0,.34,0,1.43,1.43,0,0,0,.35,0,1.8,1.8,0,0,0,.35-.13l0,.71a2.4,2.4,0,0,1-.45.13,2.86,2.86,0,0,1-.51,0,2.1,2.1,0,0,1-.48-.06,1.21,1.21,0,0,1-.47-.23,1.24,1.24,0,0,1-.35-.46,1.77,1.77,0,0,1-.14-.76v-3.5H41.07v-.68h1.16V9.3H43v1.58h1.58Z"/>
        <path d="M47.58,11.81a1.69,1.69,0,0,1,.76-.78,2.32,2.32,0,0,1,1.13-.29,2,2,0,0,1,1.6.64,2.52,2.52,0,0,1,.53,1.68V16.5h-.82V13.4a4.13,4.13,0,0,0-.07-.8,1.68,1.68,0,0,0-.25-.62,1.18,1.18,0,0,0-.47-.4,1.68,1.68,0,0,0-.74-.14,1.58,1.58,0,0,0-.63.13,1.54,1.54,0,0,0-.55.4,2,2,0,0,0-.38.68,3,3,0,0,0-.14,1V16.5h-.82V7.43h.82v4.38Z"/>
        <path d="M61.93,16.5H61L64.66,8h.84l3.65,8.5h-1l-.94-2.23H62.86Zm1.25-3h3.74L65.05,9Z"/>
        <path d="M73.39,16.5h-.9L70.2,10.89h.91l1.82,4.75h0l1.84-4.75h.88Z"/>
        <path d="M82.87,13.53v.18a1.91,1.91,0,0,1,0,.2H78.21a2.18,2.18,0,0,0,.17.79,2,2,0,0,0,.43.65,2.08,2.08,0,0,0,.65.44,2.14,2.14,0,0,0,1.9-.13,2.2,2.2,0,0,0,.7-.68l.61.48a3,3,0,0,1-1.11.91,3.11,3.11,0,0,1-1.3.28,3,3,0,0,1-1.16-.22,2.71,2.71,0,0,1-.92-.62,2.94,2.94,0,0,1-.61-.94,3.07,3.07,0,0,1-.22-1.18,3.15,3.15,0,0,1,.22-1.18,2.84,2.84,0,0,1,.6-.94,2.76,2.76,0,0,1,.9-.62,2.79,2.79,0,0,1,1.12-.22,2.86,2.86,0,0,1,1.16.22,2.4,2.4,0,0,1,.84.6,2.57,2.57,0,0,1,.51.88A3.28,3.28,0,0,1,82.87,13.53ZM82,13.26A2,2,0,0,0,81.54,12a1.73,1.73,0,0,0-1.35-.52,1.89,1.89,0,0,0-.76.15,2,2,0,0,0-.61.41,2,2,0,0,0-.42.59,1.9,1.9,0,0,0-.18.69Z"/>
      </g>
      <g>
        <path d="M24,113.35h.37a3.37,3.37,0,0,0,.77-.08,1.81,1.81,0,0,0,.63-.27,1.31,1.31,0,0,0,.43-.49,1.54,1.54,0,0,0,.16-.72,1.58,1.58,0,0,0-.13-.65,1.49,1.49,0,0,0-.37-.5,1.69,1.69,0,0,0-.54-.32,1.83,1.83,0,0,0-.64-.11,1.73,1.73,0,0,0-1.62,1l-.73-.38a2.59,2.59,0,0,1,1-1,2.88,2.88,0,0,1,1.39-.33,3,3,0,0,1,1,.15,2.43,2.43,0,0,1,.79.44,2.06,2.06,0,0,1,.55.71,2.27,2.27,0,0,1,.2,1,1.93,1.93,0,0,1-.42,1.27,2,2,0,0,1-1.06.68v0a2.2,2.2,0,0,1,1.22.7,2,2,0,0,1,.49,1.41,2.54,2.54,0,0,1-.22,1.09,2.45,2.45,0,0,1-.59.8,2.57,2.57,0,0,1-.87.5,3.17,3.17,0,0,1-1,.17,2.94,2.94,0,0,1-1.63-.45,2.81,2.81,0,0,1-1.06-1.29l.82-.3a1.87,1.87,0,0,0,.72,1,2.07,2.07,0,0,0,1.85.22,1.81,1.81,0,0,0,.6-.36,1.76,1.76,0,0,0,.41-.57,1.81,1.81,0,0,0,.16-.77,1.63,1.63,0,0,0-.19-.81,1.52,1.52,0,0,0-.5-.53,2.15,2.15,0,0,0-.71-.29,3.69,3.69,0,0,0-.82-.09H24Z"/>
        <path d="M34.94,110.44H31.4l-.06,2.63a3.35,3.35,0,0,1,.58-.14,3.83,3.83,0,0,1,.59,0,3.06,3.06,0,0,1,1.1.19,2.58,2.58,0,0,1,.87.55,2.45,2.45,0,0,1,.57.85,2.8,2.8,0,0,1,.2,1.08,3.13,3.13,0,0,1-.2,1.13,2.58,2.58,0,0,1-1.46,1.49,3,3,0,0,1-1.15.22A2.76,2.76,0,0,1,30.9,118a2.8,2.8,0,0,1-1-1.13l.78-.35a1.89,1.89,0,0,0,.69.84,1.8,1.8,0,0,0,1,.31,2.07,2.07,0,0,0,.8-.15,1.84,1.84,0,0,0,.63-.42,1.94,1.94,0,0,0,.41-.64,2.26,2.26,0,0,0,0-1.65,1.89,1.89,0,0,0-.44-.64,2,2,0,0,0-.67-.41,2.37,2.37,0,0,0-.84-.14,3.35,3.35,0,0,0-.91.13,4.33,4.33,0,0,0-.86.34l.08-4.38h4.33Z"/>
        <path d="M40.63,113.24H39v3.28a1.86,1.86,0,0,0,.06.52.73.73,0,0,0,.17.32.59.59,0,0,0,.27.16,1.27,1.27,0,0,0,.34,0,1.43,1.43,0,0,0,.35,0,1.8,1.8,0,0,0,.35-.13l0,.71a2.4,2.4,0,0,1-.45.13,2.86,2.86,0,0,1-.51,0,2.1,2.1,0,0,1-.48-.06,1.21,1.21,0,0,1-.47-.23,1.24,1.24,0,0,1-.35-.46,1.77,1.77,0,0,1-.14-.76v-3.5H37.07v-.68h1.16V111H39v1.58h1.58Z"/>
        <path d="M43.58,113.48a1.69,1.69,0,0,1,.76-.78,2.32,2.32,0,0,1,1.13-.29,2,2,0,0,1,1.6.64,2.52,2.52,0,0,1,.53,1.68v3.44h-.82v-3.11a4.13,4.13,0,0,0-.07-.8,1.68,1.68,0,0,0-.25-.62,1.18,1.18,0,0,0-.47-.4,1.68,1.68,0,0,0-.74-.14,1.58,1.58,0,0,0-.63.13,1.54,1.54,0,0,0-.55.4,2,2,0,0,0-.38.68,3,3,0,0,0-.14,1v2.88h-.82V109.1h.82v4.38Z"/>
        <path d="M57.93,118.17H57l3.67-8.5h.84l3.65,8.5h-1l-.94-2.23H58.86Zm1.25-3h3.74l-1.87-4.51Z"/>
        <path d="M69.39,118.17h-.9l-2.29-5.62h.91l1.82,4.75h0l1.84-4.75h.88Z"/>
        <path d="M78.87,115.2v.18a1.91,1.91,0,0,1,0,.2H74.21a2.18,2.18,0,0,0,.17.79,2,2,0,0,0,.43.65,2.08,2.08,0,0,0,.65.44,2.14,2.14,0,0,0,1.9-.13,2.2,2.2,0,0,0,.7-.68l.61.48a3,3,0,0,1-1.11.91,3.11,3.11,0,0,1-1.3.28,3,3,0,0,1-1.16-.22,2.71,2.71,0,0,1-.92-.62,2.94,2.94,0,0,1-.61-.94,3.07,3.07,0,0,1-.22-1.18,3.15,3.15,0,0,1,.22-1.18,2.84,2.84,0,0,1,.6-.94,2.76,2.76,0,0,1,.9-.62,2.79,2.79,0,0,1,1.12-.22,2.86,2.86,0,0,1,1.16.22,2.4,2.4,0,0,1,.84.6,2.57,2.57,0,0,1,.51.88A3.28,3.28,0,0,1,78.87,115.2Zm-.83-.26a2,2,0,0,0-.51-1.31,1.73,1.73,0,0,0-1.35-.52,1.89,1.89,0,0,0-.76.15,2,2,0,0,0-.61.41,2,2,0,0,0-.42.59,1.9,1.9,0,0,0-.18.69Z"/>
      </g>
      <g>
        <path d="M27.23,182.68h.37a3.37,3.37,0,0,0,.77-.08,1.81,1.81,0,0,0,.63-.27,1.31,1.31,0,0,0,.43-.49,1.54,1.54,0,0,0,.16-.72,1.58,1.58,0,0,0-.13-.65,1.49,1.49,0,0,0-.37-.5,1.69,1.69,0,0,0-.54-.32,1.83,1.83,0,0,0-.64-.11,1.73,1.73,0,0,0-1.62,1l-.73-.38a2.59,2.59,0,0,1,1-1,2.88,2.88,0,0,1,1.39-.33,3,3,0,0,1,1,.15,2.43,2.43,0,0,1,.79.44,2.06,2.06,0,0,1,.55.71,2.27,2.27,0,0,1,.2,1,1.93,1.93,0,0,1-.42,1.27A2,2,0,0,1,29,183v0a2.2,2.2,0,0,1,1.22.7,2,2,0,0,1,.49,1.41,2.54,2.54,0,0,1-.22,1.09,2.45,2.45,0,0,1-.59.8,2.57,2.57,0,0,1-.87.5,3.17,3.17,0,0,1-1,.17,2.94,2.94,0,0,1-1.63-.45A2.81,2.81,0,0,1,25.25,186l.82-.3a1.87,1.87,0,0,0,.72,1,2.07,2.07,0,0,0,1.85.22,1.81,1.81,0,0,0,.6-.36,1.76,1.76,0,0,0,.41-.57,1.81,1.81,0,0,0,.16-.77,1.63,1.63,0,0,0-.19-.81,1.52,1.52,0,0,0-.5-.53,2.15,2.15,0,0,0-.71-.29,3.69,3.69,0,0,0-.82-.09h-.37Z"/>
        <path d="M35,182.68h.37a3.37,3.37,0,0,0,.77-.08,1.81,1.81,0,0,0,.63-.27,1.31,1.31,0,0,0,.43-.49,1.54,1.54,0,0,0,.16-.72,1.58,1.58,0,0,0-.13-.65,1.49,1.49,0,0,0-.37-.5,1.69,1.69,0,0,0-.54-.32,1.83,1.83,0,0,0-.64-.11,1.73,1.73,0,0,0-1.62,1l-.73-.38a2.59,2.59,0,0,1,1-1,2.88,2.88,0,0,1,1.39-.33,3,3,0,0,1,1,.15,2.43,2.43,0,0,1,.79.44,2.06,2.06,0,0,1,.55.71,2.27,2.27,0,0,1,.2,1,1.93,1.93,0,0,1-.42,1.27,2,2,0,0,1-1.06.68v0a2.2,2.2,0,0,1,1.22.7,2,2,0,0,1,.49,1.41,2.54,2.54,0,0,1-.22,1.09,2.45,2.45,0,0,1-.59.8,2.57,2.57,0,0,1-.87.5,3.17,3.17,0,0,1-1,.17,2.94,2.94,0,0,1-1.63-.45A2.81,2.81,0,0,1,33,186l.82-.3a1.87,1.87,0,0,0,.72,1,2.07,2.07,0,0,0,1.85.22,1.81,1.81,0,0,0,.6-.36,1.76,1.76,0,0,0,.41-.57,1.81,1.81,0,0,0,.16-.77,1.63,1.63,0,0,0-.19-.81,1.52,1.52,0,0,0-.5-.53,2.15,2.15,0,0,0-.71-.29,3.69,3.69,0,0,0-.82-.09H35Z"/>
        <path d="M41.28,182.54q0-.36,0-.65H42c0,.15,0,.32,0,.5s0,.34,0,.46h0a2,2,0,0,1,1.8-1.1h.28l.26,0-.11.78-.24,0-.34,0a1.67,1.67,0,0,0-.62.12,1.34,1.34,0,0,0-.52.38,2,2,0,0,0-.36.66,3,3,0,0,0-.14,1v2.87h-.82v-4.38Q41.29,182.9,41.28,182.54Z"/>
        <path d="M50.83,186.56a2.3,2.3,0,0,1-.94.82,2.72,2.72,0,0,1-1.19.28,3,3,0,0,1-1.19-.23,2.72,2.72,0,0,1-.91-.62,2.82,2.82,0,0,1-.59-.94,3.33,3.33,0,0,1,0-2.33,2.82,2.82,0,0,1,.59-.94,2.74,2.74,0,0,1,.91-.62,3,3,0,0,1,1.19-.23,2.67,2.67,0,0,1,1.19.28,2.32,2.32,0,0,1,.94.83h0v-4.43h.82v9.07h-.82v-.95Zm-4.16-1.86a2.68,2.68,0,0,0,.14.88,2.15,2.15,0,0,0,.41.72,1.89,1.89,0,0,0,.67.48,2.22,2.22,0,0,0,.9.17,2.11,2.11,0,0,0,2-1.36,2.55,2.55,0,0,0,0-1.79,2.22,2.22,0,0,0-.45-.72,2.07,2.07,0,0,0-.68-.48,2.13,2.13,0,0,0-.86-.17,2.15,2.15,0,0,0-.9.18,2,2,0,0,0-.67.49,2.15,2.15,0,0,0-.41.72A2.67,2.67,0,0,0,46.67,184.7Z"/>
        <path d="M62.08,187.5h-.95L64.8,179h.84l3.65,8.5h-1l-.94-2.23H63Zm1.25-3h3.74L65.2,180Z"/>
        <path d="M73.53,187.5h-.9l-2.29-5.62h.91l1.82,4.75h0l1.84-4.75h.88Z"/>
        <path d="M83,184.53v.18a1.91,1.91,0,0,1,0,.2H78.35a2.18,2.18,0,0,0,.17.79,2,2,0,0,0,.43.65,2.08,2.08,0,0,0,.65.44,2.14,2.14,0,0,0,1.9-.13,2.2,2.2,0,0,0,.7-.68l.61.48a3,3,0,0,1-1.11.91,3.11,3.11,0,0,1-1.3.28,3,3,0,0,1-1.16-.22,2.71,2.71,0,0,1-.92-.62,2.94,2.94,0,0,1-.61-.94,3.07,3.07,0,0,1-.22-1.18,3.15,3.15,0,0,1,.22-1.18,2.84,2.84,0,0,1,.6-.94,2.76,2.76,0,0,1,.9-.62,2.79,2.79,0,0,1,1.12-.22,2.86,2.86,0,0,1,1.16.22,2.4,2.4,0,0,1,.84.6,2.57,2.57,0,0,1,.51.88A3.28,3.28,0,0,1,83,184.53Zm-.83-.26a2,2,0,0,0-.51-1.31,1.73,1.73,0,0,0-1.35-.52,1.89,1.89,0,0,0-.76.15A2,2,0,0,0,79,183a2,2,0,0,0-.42.59,1.9,1.9,0,0,0-.18.69Z"/>
      </g>
      <g>
        <path d="M26.13,222.35h.37a3.37,3.37,0,0,0,.77-.08,1.81,1.81,0,0,0,.63-.27,1.31,1.31,0,0,0,.43-.49,1.54,1.54,0,0,0,.16-.72,1.58,1.58,0,0,0-.13-.65,1.49,1.49,0,0,0-.37-.5,1.69,1.69,0,0,0-.54-.32,1.83,1.83,0,0,0-.64-.11,1.73,1.73,0,0,0-1.62,1l-.73-.38a2.59,2.59,0,0,1,1-1,2.88,2.88,0,0,1,1.39-.33,3,3,0,0,1,1,.15,2.43,2.43,0,0,1,.79.44,2.06,2.06,0,0,1,.55.71,2.27,2.27,0,0,1,.2,1,1.93,1.93,0,0,1-.42,1.27,2,2,0,0,1-1.06.68v0a2.2,2.2,0,0,1,1.22.7,2,2,0,0,1,.49,1.41,2.54,2.54,0,0,1-.22,1.09,2.45,2.45,0,0,1-.59.8,2.57,2.57,0,0,1-.87.5,3.17,3.17,0,0,1-1,.17,2.94,2.94,0,0,1-1.63-.45,2.81,2.81,0,0,1-1.06-1.29l.82-.3a1.87,1.87,0,0,0,.72,1,2.07,2.07,0,0,0,1.85.22,1.81,1.81,0,0,0,.6-.36,1.76,1.76,0,0,0,.41-.57,1.81,1.81,0,0,0,.16-.77,1.63,1.63,0,0,0-.19-.81,1.52,1.52,0,0,0-.5-.53,2.15,2.15,0,0,0-.71-.29,3.69,3.69,0,0,0-.82-.09h-.37Z"/>
        <path d="M37.37,227.17H31.95v-.9l3.48-3.52q.19-.19.38-.41a3.57,3.57,0,0,0,.33-.46,2.34,2.34,0,0,0,.23-.51,1.88,1.88,0,0,0,.08-.56,1.66,1.66,0,0,0-.13-.67,1.5,1.5,0,0,0-.37-.51,1.69,1.69,0,0,0-.54-.32,1.83,1.83,0,0,0-.64-.11,1.65,1.65,0,0,0-1.15.43,1.94,1.94,0,0,0-.6,1.09l-.85-.17a2.45,2.45,0,0,1,.32-.83,2.53,2.53,0,0,1,.58-.66,2.67,2.67,0,0,1,.77-.43,2.75,2.75,0,0,1,.94-.16,3.15,3.15,0,0,1,1,.15,2.35,2.35,0,0,1,.81.44,2.17,2.17,0,0,1,.55.73,2.34,2.34,0,0,1,.21,1,2.44,2.44,0,0,1-.11.76,3.28,3.28,0,0,1-.3.66,3.85,3.85,0,0,1-.44.59q-.25.28-.53.56l-3.06,3h4.5Z"/>
        <path d="M40.92,221.55c0,.15,0,.32,0,.5s0,.34,0,.46h0a1.85,1.85,0,0,1,.78-.8,2.28,2.28,0,0,1,1.14-.31,2,2,0,0,1,1.6.64,2.53,2.53,0,0,1,.53,1.68v3.44h-.82v-3.11a4.13,4.13,0,0,0-.07-.8,1.68,1.68,0,0,0-.25-.62,1.17,1.17,0,0,0-.47-.4,1.68,1.68,0,0,0-.74-.14,1.58,1.58,0,0,0-.63.13,1.54,1.54,0,0,0-.55.4,2,2,0,0,0-.38.68,3,3,0,0,0-.14,1v2.88h-.82v-4.38q0-.23,0-.59t0-.65Z"/>
        <path d="M52.6,226.22a2.3,2.3,0,0,1-.94.82,2.72,2.72,0,0,1-1.19.28,3,3,0,0,1-1.19-.23,2.72,2.72,0,0,1-.91-.62,2.82,2.82,0,0,1-.59-.94,3.33,3.33,0,0,1,0-2.33,2.82,2.82,0,0,1,.59-.94,2.74,2.74,0,0,1,.91-.62,3,3,0,0,1,1.19-.23,2.67,2.67,0,0,1,1.19.28,2.32,2.32,0,0,1,.94.83h0V218.1h.82v9.07h-.82v-.95Zm-4.16-1.86a2.68,2.68,0,0,0,.14.88A2.15,2.15,0,0,0,49,226a1.89,1.89,0,0,0,.67.48,2.22,2.22,0,0,0,.9.17,2.11,2.11,0,0,0,2-1.36,2.55,2.55,0,0,0,0-1.79,2.22,2.22,0,0,0-.45-.72,2.07,2.07,0,0,0-.68-.48,2.13,2.13,0,0,0-.86-.17,2.15,2.15,0,0,0-.9.18,2,2,0,0,0-.67.49,2.15,2.15,0,0,0-.41.72A2.67,2.67,0,0,0,48.43,224.36Z"/>
        <path d="M63.84,227.17h-.95l3.67-8.5h.84l3.65,8.5h-1l-.94-2.23H64.77Zm1.25-3h3.74L67,219.64Z"/>
        <path d="M75.3,227.17h-.9l-2.29-5.62H73l1.82,4.75h0l1.84-4.75h.88Z"/>
        <path d="M84.78,224.2v.18a1.91,1.91,0,0,1,0,.2H80.11a2.18,2.18,0,0,0,.17.79,2,2,0,0,0,.43.65,2.08,2.08,0,0,0,.65.44,2.14,2.14,0,0,0,1.9-.13,2.2,2.2,0,0,0,.7-.68l.61.48a3,3,0,0,1-1.11.91,3.11,3.11,0,0,1-1.3.28,3,3,0,0,1-1.16-.22,2.71,2.71,0,0,1-.92-.62,2.94,2.94,0,0,1-.61-.94,3.07,3.07,0,0,1-.22-1.18,3.15,3.15,0,0,1,.22-1.18,2.84,2.84,0,0,1,.6-.94,2.76,2.76,0,0,1,.9-.62,2.79,2.79,0,0,1,1.12-.22,2.86,2.86,0,0,1,1.16.22,2.4,2.4,0,0,1,.84.6,2.57,2.57,0,0,1,.51.88A3.28,3.28,0,0,1,84.78,224.2Zm-.83-.26a2,2,0,0,0-.51-1.31,1.73,1.73,0,0,0-1.35-.52,1.89,1.89,0,0,0-.76.15,2,2,0,0,0-.61.41,2,2,0,0,0-.42.59,1.9,1.9,0,0,0-.18.69Z"/>
      </g>
      <g>
        <path d="M25.26,274.22a2.1,2.1,0,0,0-.23-.91,2.16,2.16,0,0,0-.73-.78,2.24,2.24,0,0,0-.58-.28,1.84,1.84,0,0,0-.65-.09,1.49,1.49,0,0,0-.63.17,1.47,1.47,0,0,0-.54.49,1.32,1.32,0,0,0-.25.64,1.53,1.53,0,0,0,.09.61,2.39,2.39,0,0,0,.31.58l.43.59c.19.25.38.5.56.76a3.23,3.23,0,0,1,.42.82,2.11,2.11,0,0,1,.1.89,2.16,2.16,0,0,1-.41,1,2.32,2.32,0,0,1-.82.77,2.29,2.29,0,0,1-.95.27,2.62,2.62,0,0,1-1-.13,3.59,3.59,0,0,1-.91-.45,3.91,3.91,0,0,1-.59-.5,3.45,3.45,0,0,1-.47-.61,3,3,0,0,1-.31-.69,2.88,2.88,0,0,1-.12-.75l.93,0a2.28,2.28,0,0,0,.21,1.07,2.19,2.19,0,0,0,.79.91,2.33,2.33,0,0,0,.6.29,1.86,1.86,0,0,0,.68.09,1.72,1.72,0,0,0,.66-.18,1.42,1.42,0,0,0,.55-.49,1.44,1.44,0,0,0,.27-.71,1.55,1.55,0,0,0-.1-.67,2.78,2.78,0,0,0-.36-.65l-.49-.66c-.18-.23-.35-.47-.51-.72a2.77,2.77,0,0,1-.36-.77,2.08,2.08,0,0,1-.05-.85,2.17,2.17,0,0,1,.39-.91,2.15,2.15,0,0,1,.8-.73,2.24,2.24,0,0,1,.94-.24,2.7,2.7,0,0,1,1,.15,3.61,3.61,0,0,1,.86.43,3.25,3.25,0,0,1,1,1.09,2.49,2.49,0,0,1,.35,1.12Z"/>
        <path d="M23.09,284.87l-.67-.46,4.81-7,.67.46-.55.8,0,0a2.23,2.23,0,0,1,1.24-.16,2.68,2.68,0,0,1,1.13.44,3,3,0,0,1,.86.86,2.74,2.74,0,0,1,.4,1,2.84,2.84,0,0,1,0,1.1,3.33,3.33,0,0,1-1.32,1.92,2.81,2.81,0,0,1-1,.44,2.74,2.74,0,0,1-1.11,0,3,3,0,0,1-1.11-.49,2.68,2.68,0,0,1-.81-.9,2.28,2.28,0,0,1-.31-1.2l0,0Zm6.67-2.32a2.66,2.66,0,0,0,.38-.81,2.15,2.15,0,0,0,.07-.83,2,2,0,0,0-.27-.78,2.29,2.29,0,0,0-1.45-1,2.07,2.07,0,0,0-.83,0,2.21,2.21,0,0,0-.78.34,2.57,2.57,0,0,0-1,1.47,2.19,2.19,0,0,0,0,.84,2.12,2.12,0,0,0,.91,1.41,2.2,2.2,0,0,0,.84.37,1.88,1.88,0,0,0,.82,0,2.17,2.17,0,0,0,.75-.36A2.65,2.65,0,0,0,29.76,282.54Z"/>
        <path d="M36.9,287.24l-.1.15-.13.16-3.84-2.63a2.15,2.15,0,0,0-.31.75,2,2,0,0,0,0,.78,2.05,2.05,0,0,0,.29.73,2,2,0,0,0,.57.59,2,2,0,0,0,1.07.38,2.22,2.22,0,0,0,1-.16l.23.74a3,3,0,0,1-1.43.12,3.12,3.12,0,0,1-1.23-.51,3,3,0,0,1-.83-.84,2.72,2.72,0,0,1-.41-1,3,3,0,0,1,0-1.12,3.11,3.11,0,0,1,.48-1.1,3.15,3.15,0,0,1,.84-.85,2.83,2.83,0,0,1,1-.43,2.77,2.77,0,0,1,2.14.45,2.85,2.85,0,0,1,.83.84,2.41,2.41,0,0,1,.35,1,2.58,2.58,0,0,1-.08,1A3.3,3.3,0,0,1,36.9,287.24Zm-.53-.69a2,2,0,0,0,.32-1.37,1.73,1.73,0,0,0-.82-1.19,1.89,1.89,0,0,0-.71-.3,2,2,0,0,0-.74,0,2.06,2.06,0,0,0-.68.25,1.9,1.9,0,0,0-.54.47Z"/>
        <path d="M43.24,291.58l-.1.15-.13.16-3.84-2.63a2.22,2.22,0,0,0-.31.75,2,2,0,0,0,0,.78,2.06,2.06,0,0,0,.29.73,2.14,2.14,0,0,0,1.64,1,2.22,2.22,0,0,0,1-.16l.23.74a3.06,3.06,0,0,1-1.43.12,3.1,3.1,0,0,1-1.23-.51,3,3,0,0,1-.83-.84,2.71,2.71,0,0,1-.41-1,3,3,0,0,1,0-1.12,3.07,3.07,0,0,1,.48-1.1,3.12,3.12,0,0,1,.84-.85,2.85,2.85,0,0,1,1-.43,2.77,2.77,0,0,1,1.09,0,2.8,2.8,0,0,1,1,.45,2.87,2.87,0,0,1,.83.84,2.4,2.4,0,0,1,.35,1,2.58,2.58,0,0,1-.08,1A3.25,3.25,0,0,1,43.24,291.58Zm-.53-.69a2,2,0,0,0,.32-1.37,1.73,1.73,0,0,0-.82-1.19,1.88,1.88,0,0,0-.71-.3,2,2,0,0,0-.74,0,2.06,2.06,0,0,0-.68.25,1.93,1.93,0,0,0-.54.47Z"/>
        <path d="M46.47,291.39c.13-.2.24-.39.34-.55l.64.44c-.07.13-.16.28-.26.44l-.25.38h0a1.94,1.94,0,0,1,1-.25,2,2,0,0,1,1.06.36l.23.17a1.58,1.58,0,0,1,.19.19l-.53.58-.17-.18a2.26,2.26,0,0,0-.26-.21,1.66,1.66,0,0,0-.58-.25,1.34,1.34,0,0,0-.64,0,2,2,0,0,0-.67.34,3,3,0,0,0-.66.72L44.34,296l-.67-.46,2.48-3.61Z"/>
        <path d="M59,295.74l2.09,1.43a4.82,4.82,0,0,1,.74.63,2.64,2.64,0,0,1,.53.79,1.91,1.91,0,0,1,.15.91,2.07,2.07,0,0,1-.39,1,1.79,1.79,0,0,1-1,.73,1.93,1.93,0,0,1-1.28-.08v0a2.24,2.24,0,0,1,.77,1.31,2,2,0,0,1-.39,1.53,2.08,2.08,0,0,1-1.67.93,3,3,0,0,1-1.09-.17,4.75,4.75,0,0,1-1.18-.61l-2.07-1.42Zm-3.67,6.88,1.32.91a4.41,4.41,0,0,0,.79.43,2.31,2.31,0,0,0,.78.18A1.53,1.53,0,0,0,59,304a1.64,1.64,0,0,0,.83-1.88,2.7,2.7,0,0,0-1.1-1.25l-1.45-1Zm2.28-3.32,1.43,1a2.84,2.84,0,0,0,.56.3,1.75,1.75,0,0,0,.62.13,1.3,1.3,0,0,0,.61-.14,1.43,1.43,0,0,0,.53-.49,1.37,1.37,0,0,0,.26-.66,1.34,1.34,0,0,0-.1-.63,1.87,1.87,0,0,0-.39-.58,3.86,3.86,0,0,0-.61-.51l-1.24-.85Z"/>
        <path d="M61.86,308l-.67-.46L66.31,300l.67.46Z"/>
        <path d="M66.23,311l-.74-.51,1.29-5.93.75.52-1.19,5h0l4.2-2.88.72.5Z"/>
        <path d="M74.18,315.27a2.3,2.3,0,0,1-1.23.14,2.71,2.71,0,0,1-1.13-.44,3,3,0,0,1-.86-.86,2.71,2.71,0,0,1-.4-1,2.83,2.83,0,0,1,0-1.11,3.34,3.34,0,0,1,1.32-1.92,2.82,2.82,0,0,1,1-.44,2.74,2.74,0,0,1,1.11,0,3,3,0,0,1,1.11.49,2.67,2.67,0,0,1,.82.9,2.32,2.32,0,0,1,.3,1.22h0l2.5-3.65.67.46-5.13,7.48-.67-.46.54-.78Zm-2.38-3.89a2.7,2.7,0,0,0-.38.81,2.15,2.15,0,0,0-.07.83,1.89,1.89,0,0,0,.28.77,2.21,2.21,0,0,0,.64.65,2.1,2.1,0,0,0,2.42,0,2.55,2.55,0,0,0,1-1.47,2.19,2.19,0,0,0,0-.85,2.06,2.06,0,0,0-.29-.78,2.13,2.13,0,0,0-.61-.63,2.16,2.16,0,0,0-.84-.36,2,2,0,0,0-.82,0,2.15,2.15,0,0,0-.75.36A2.67,2.67,0,0,0,71.8,311.38Z"/>
      </g>
      <g>
        <path d="M104.17,336.84H98.75v-.9l3.48-3.52q.19-.19.38-.41a3.57,3.57,0,0,0,.33-.46,2.34,2.34,0,0,0,.23-.51,1.88,1.88,0,0,0,.08-.56,1.66,1.66,0,0,0-.13-.67,1.5,1.5,0,0,0-.37-.51,1.69,1.69,0,0,0-.54-.32,1.83,1.83,0,0,0-.64-.11,1.65,1.65,0,0,0-1.15.43,1.94,1.94,0,0,0-.6,1.09L99,330.2a2.45,2.45,0,0,1,.32-.83,2.53,2.53,0,0,1,.58-.66,2.67,2.67,0,0,1,.77-.43,2.75,2.75,0,0,1,.94-.16,3.15,3.15,0,0,1,1,.15,2.35,2.35,0,0,1,.81.44,2.17,2.17,0,0,1,.55.73,2.34,2.34,0,0,1,.21,1,2.44,2.44,0,0,1-.11.76,3.28,3.28,0,0,1-.3.66,3.85,3.85,0,0,1-.44.59q-.25.28-.53.56l-3.06,3h4.5Z"/>
        <path d="M110.48,333.13l0,0a1.48,1.48,0,0,1-.54.23,2.86,2.86,0,0,1-.67.08,2.71,2.71,0,0,1-1-.19,2.49,2.49,0,0,1-.82-.53,2.42,2.42,0,0,1-.55-.83,2.77,2.77,0,0,1-.2-1.06,2.83,2.83,0,0,1,.2-1.09,2.37,2.37,0,0,1,.58-.85,2.72,2.72,0,0,1,.88-.55,3.18,3.18,0,0,1,2.21,0,2.74,2.74,0,0,1,.88.55,2.38,2.38,0,0,1,.58.85,2.83,2.83,0,0,1,.2,1.09,3.25,3.25,0,0,1-.23,1.22,7.58,7.58,0,0,1-.54,1.08l-2.32,3.73h-1Zm.83-2.33a2.13,2.13,0,0,0-.14-.77,1.78,1.78,0,0,0-.39-.62,1.86,1.86,0,0,0-.6-.41,2,2,0,0,0-1.54,0,1.86,1.86,0,0,0-.6.41,1.78,1.78,0,0,0-.39.62,2.13,2.13,0,0,0-.14.77,2.17,2.17,0,0,0,.13.76,1.77,1.77,0,0,0,.38.61,1.71,1.71,0,0,0,.6.4,2.22,2.22,0,0,0,1.57,0,1.71,1.71,0,0,0,.6-.4,1.77,1.77,0,0,0,.38-.61A2.17,2.17,0,0,0,111.31,330.8Z"/>
        <path d="M117.3,331.91h-1.58v3.28a1.86,1.86,0,0,0,.06.52.73.73,0,0,0,.17.32.59.59,0,0,0,.27.16,1.27,1.27,0,0,0,.34,0,1.43,1.43,0,0,0,.35,0,1.8,1.8,0,0,0,.35-.13l0,.71a2.4,2.4,0,0,1-.45.13,2.86,2.86,0,0,1-.51,0,2.1,2.1,0,0,1-.48-.06,1.21,1.21,0,0,1-.47-.23,1.24,1.24,0,0,1-.35-.46,1.77,1.77,0,0,1-.14-.76v-3.5h-1.16v-.68h1.16v-1.58h.82v1.58h1.58Z"/>
        <path d="M120.25,332.15a1.69,1.69,0,0,1,.76-.78,2.32,2.32,0,0,1,1.13-.29,2,2,0,0,1,1.6.64,2.52,2.52,0,0,1,.53,1.68v3.44h-.82v-3.11a4.13,4.13,0,0,0-.07-.8,1.68,1.68,0,0,0-.25-.62,1.18,1.18,0,0,0-.47-.4,1.68,1.68,0,0,0-.74-.14,1.58,1.58,0,0,0-.63.13,1.54,1.54,0,0,0-.55.4,2,2,0,0,0-.38.68,3,3,0,0,0-.14,1v2.88h-.82v-9.07h.82v4.38Z"/>
        <path d="M134.6,336.84h-.95l3.67-8.5h.84l3.65,8.5h-1l-.94-2.23h-4.39Zm1.25-3h3.74l-1.87-4.51Z"/>
        <path d="M146.06,336.84h-.9l-2.29-5.62h.91L145.6,336h0l1.84-4.75h.88Z"/>
        <path d="M155.54,333.86V334a1.91,1.91,0,0,1,0,.2h-4.66a2.18,2.18,0,0,0,.17.79,2,2,0,0,0,.43.65,2.08,2.08,0,0,0,.65.44A2.14,2.14,0,0,0,154,336a2.2,2.2,0,0,0,.7-.68l.61.48a3,3,0,0,1-1.11.91,3.11,3.11,0,0,1-1.3.28,3,3,0,0,1-1.16-.22,2.71,2.71,0,0,1-.92-.62,2.94,2.94,0,0,1-.61-.94A3.07,3.07,0,0,1,150,334a3.15,3.15,0,0,1,.22-1.18,2.84,2.84,0,0,1,.6-.94,2.76,2.76,0,0,1,.9-.62,2.79,2.79,0,0,1,1.12-.22,2.86,2.86,0,0,1,1.16.22,2.4,2.4,0,0,1,.84.6,2.57,2.57,0,0,1,.51.88A3.28,3.28,0,0,1,155.54,333.86Zm-.83-.26a2,2,0,0,0-.51-1.31,1.73,1.73,0,0,0-1.35-.52,1.89,1.89,0,0,0-.76.15,2,2,0,0,0-.61.41,2,2,0,0,0-.42.59,1.9,1.9,0,0,0-.18.69Z"/>
      </g>
      <g>
        <path d="M129.47,34.85a3.58,3.58,0,0,1-.52.61,3.39,3.39,0,0,1-.71.51,3.94,3.94,0,0,1-.89.35,4.16,4.16,0,0,1-1.06.13,4.62,4.62,0,0,1-1.78-.34,4.19,4.19,0,0,1-1.4-.93,4.24,4.24,0,0,1-.92-1.41,4.73,4.73,0,0,1-.33-1.79,4.66,4.66,0,0,1,.34-1.79,4.22,4.22,0,0,1,2.33-2.34,4.54,4.54,0,0,1,1.76-.34,4.39,4.39,0,0,1,1.76.37,3.61,3.61,0,0,1,.72.42,2.48,2.48,0,0,1,.54.56l-.72.53a2.17,2.17,0,0,0-.35-.41,2.42,2.42,0,0,0-.52-.36,3.32,3.32,0,0,0-.65-.25,2.91,2.91,0,0,0-.76-.1,3.53,3.53,0,0,0-1.48.3,3.35,3.35,0,0,0-1.11.81,3.53,3.53,0,0,0-.7,1.18,4.15,4.15,0,0,0-.24,1.41,4.06,4.06,0,0,0,.25,1.41,3.59,3.59,0,0,0,.7,1.18,3.33,3.33,0,0,0,1.11.81,3.5,3.5,0,0,0,1.47.3,3.32,3.32,0,0,0,1.39-.3,2.64,2.64,0,0,0,1.1-1Z"/>
        <path d="M125.91,49h-.82V40h.82Z"/>
        <path d="M126.92,58.23a1.41,1.41,0,0,0-.38-1.08,1.59,1.59,0,0,0-1.12-.36,2.41,2.41,0,0,0-.94.18,2.25,2.25,0,0,0-.73.48l-.46-.54a2.69,2.69,0,0,1,.92-.58,3.45,3.45,0,0,1,1.29-.23,2.79,2.79,0,0,1,.85.13,2,2,0,0,1,.7.38,1.71,1.71,0,0,1,.47.64,2.23,2.23,0,0,1,.17.9V60.6q0,.32,0,.67a4.6,4.6,0,0,0,.07.59h-.73c0-.14,0-.28-.06-.44a4.53,4.53,0,0,1,0-.47h0a2.37,2.37,0,0,1-.87.81,2.57,2.57,0,0,1-1.17.25,2.6,2.6,0,0,1-.67-.09,1.84,1.84,0,0,1-.62-.29,1.66,1.66,0,0,1-.47-.53,1.58,1.58,0,0,1-.19-.79,1.51,1.51,0,0,1,.33-1,2,2,0,0,1,.88-.57,5.18,5.18,0,0,1,1.27-.24q.71-.05,1.48-.05Zm-.24.83q-.5,0-1,0a4.43,4.43,0,0,0-.92.17,1.74,1.74,0,0,0-.68.37.82.82,0,0,0-.26.64,1,1,0,0,0,.11.5.93.93,0,0,0,.31.33,1.31,1.31,0,0,0,.43.18,2.1,2.1,0,0,0,.47.05,1.85,1.85,0,0,0,.77-.15,1.63,1.63,0,0,0,.56-.41,1.81,1.81,0,0,0,.35-.59,2.09,2.09,0,0,0,.12-.71v-.42Z"/>
        <path d="M125.59,73.8h0l1.74-4.74h.89l-2.8,7.07a3,3,0,0,1-.64,1,1.52,1.52,0,0,1-1.12.39,3.73,3.73,0,0,1-.73-.07l.08-.74a1.89,1.89,0,0,0,.6.1.86.86,0,0,0,.66-.26,2.22,2.22,0,0,0,.42-.74l.46-1.18-2.4-5.6h.91Z"/>
        <path d="M127.37,88a2.08,2.08,0,0,0-.71-.62,2.17,2.17,0,0,0-1-.23,2.23,2.23,0,0,0-.64.1,1.84,1.84,0,0,0-.59.29,1.51,1.51,0,0,0-.43.5,1.47,1.47,0,0,0-.16.71,1.31,1.31,0,0,0,.16.67,1.49,1.49,0,0,0,.41.45,2.37,2.37,0,0,0,.59.31l.69.24.89.31a3.2,3.2,0,0,1,.81.44,2.11,2.11,0,0,1,.59.68,2.17,2.17,0,0,1,.23,1.05,2.33,2.33,0,0,1-.24,1.1,2.29,2.29,0,0,1-.63.76,2.6,2.6,0,0,1-.88.44,3.58,3.58,0,0,1-1,.14,3.86,3.86,0,0,1-.77-.08,3.48,3.48,0,0,1-.73-.23,3,3,0,0,1-.65-.4,2.87,2.87,0,0,1-.53-.55l.74-.55a2.28,2.28,0,0,0,.77.76,2.19,2.19,0,0,0,1.17.31,2.27,2.27,0,0,0,.66-.1,1.85,1.85,0,0,0,.61-.31,1.72,1.72,0,0,0,.44-.52,1.6,1.6,0,0,0,0-1.45,1.56,1.56,0,0,0-.46-.49,2.82,2.82,0,0,0-.66-.33l-.78-.26c-.28-.09-.56-.19-.83-.3a2.81,2.81,0,0,1-.73-.44,2.07,2.07,0,0,1-.52-.67,2.44,2.44,0,0,1,0-2,2.24,2.24,0,0,1,.64-.73,2.69,2.69,0,0,1,.88-.42,3.56,3.56,0,0,1,.95-.13,3.27,3.27,0,0,1,1.48.31,2.53,2.53,0,0,1,.92.73Z"/>
        <path d="M127.22,103h-1.58v3.28a1.86,1.86,0,0,0,.06.52.73.73,0,0,0,.17.32.59.59,0,0,0,.27.16,1.27,1.27,0,0,0,.34,0,1.43,1.43,0,0,0,.35,0,1.8,1.8,0,0,0,.35-.13l0,.71a2.4,2.4,0,0,1-.45.13,2.86,2.86,0,0,1-.51,0,2.1,2.1,0,0,1-.48-.06,1.21,1.21,0,0,1-.47-.23,1.24,1.24,0,0,1-.35-.46,1.77,1.77,0,0,1-.14-.76V103h-1.16v-.68h1.16v-1.58h.82v1.58h1.58Z"/>
      </g>
      <g>
        <path d="M198,33.08h-.95l3.67-8.5h.84l3.65,8.5h-1l-.94-2.23H199Zm1.25-3H203l-1.87-4.51Z"/>
        <path d="M201.58,45.9h-.82V36.82h.82Z"/>
        <path d="M203.3,54.38a1.55,1.55,0,0,0-.59-.53,1.76,1.76,0,0,0-.85-.21,2.18,2.18,0,0,0-.89.17,2,2,0,0,0-.68.48,2.11,2.11,0,0,0-.43.72,2.62,2.62,0,0,0-.15.89,2.56,2.56,0,0,0,.15.89,2.18,2.18,0,0,0,.43.71A1.93,1.93,0,0,0,201,58a2.18,2.18,0,0,0,.89.17,1.79,1.79,0,0,0,1.52-.73l.61.46a2.65,2.65,0,0,1-.88.71,2.75,2.75,0,0,1-1.25.26,3.29,3.29,0,0,1-1.24-.22,2.74,2.74,0,0,1-.94-.62,2.82,2.82,0,0,1-.61-.94,3.31,3.31,0,0,1,0-2.35,2.81,2.81,0,0,1,.61-.94,2.74,2.74,0,0,1,.94-.62,3.29,3.29,0,0,1,1.24-.22,2.94,2.94,0,0,1,1.15.25,2.25,2.25,0,0,1,.94.73Z"/>
        <path d="M204.17,68.72a3.07,3.07,0,0,1-.22,1.18,2.84,2.84,0,0,1-.62.94,2.81,2.81,0,0,1-.95.62,3.22,3.22,0,0,1-1.21.22,3.19,3.19,0,0,1-1.2-.22,2.81,2.81,0,0,1-.95-.62,2.84,2.84,0,0,1-.62-.94,3.23,3.23,0,0,1,0-2.35,2.84,2.84,0,0,1,.62-.94A2.81,2.81,0,0,1,200,66a3.19,3.19,0,0,1,1.2-.22,3.22,3.22,0,0,1,1.21.22,2.81,2.81,0,0,1,.95.62,2.84,2.84,0,0,1,.62.94A3.07,3.07,0,0,1,204.17,68.72Zm-.86,0a2.58,2.58,0,0,0-.15-.88,2.17,2.17,0,0,0-.43-.72,2,2,0,0,0-.67-.49,2.12,2.12,0,0,0-.89-.18,2.08,2.08,0,0,0-.88.18,2,2,0,0,0-.67.49,2.17,2.17,0,0,0-.43.72,2.68,2.68,0,0,0,0,1.76,2.16,2.16,0,0,0,.43.72,2,2,0,0,0,.67.48,2.14,2.14,0,0,0,.88.17,2.18,2.18,0,0,0,.89-.17,1.94,1.94,0,0,0,.67-.48,2.16,2.16,0,0,0,.43-.72A2.58,2.58,0,0,0,203.3,68.72Z"/>
        <path d="M202.88,79.41H201.3v3.28a1.86,1.86,0,0,0,.06.52.73.73,0,0,0,.17.32.59.59,0,0,0,.27.16,1.27,1.27,0,0,0,.34,0,1.43,1.43,0,0,0,.35,0,1.8,1.8,0,0,0,.35-.13l0,.71a2.4,2.4,0,0,1-.45.13,2.86,2.86,0,0,1-.51,0,2.1,2.1,0,0,1-.48-.06,1.21,1.21,0,0,1-.47-.23,1.24,1.24,0,0,1-.35-.46,1.77,1.77,0,0,1-.14-.76v-3.5h-1.16v-.68h1.16V77.14h.82v1.58h1.58Z"/>
        <path d="M202.88,92.23H201.3V95.5a1.86,1.86,0,0,0,.06.52.73.73,0,0,0,.17.32.59.59,0,0,0,.27.16,1.27,1.27,0,0,0,.34,0,1.43,1.43,0,0,0,.35,0,1.8,1.8,0,0,0,.35-.13l0,.71a2.4,2.4,0,0,1-.45.13,2.86,2.86,0,0,1-.51,0,2.1,2.1,0,0,1-.48-.06,1.21,1.21,0,0,1-.47-.23,1.24,1.24,0,0,1-.35-.46,1.77,1.77,0,0,1-.14-.76v-3.5h-1.16v-.68h1.16V90h.82v1.58h1.58Z"/>
        <path d="M203,110.48a2.08,2.08,0,0,0-.71-.62,2.17,2.17,0,0,0-1-.23,2.23,2.23,0,0,0-.64.1,1.84,1.84,0,0,0-.59.29,1.51,1.51,0,0,0-.43.5,1.47,1.47,0,0,0-.16.71,1.31,1.31,0,0,0,.16.67,1.49,1.49,0,0,0,.41.45,2.37,2.37,0,0,0,.59.31l.69.24.89.31a3.2,3.2,0,0,1,.81.44,2.11,2.11,0,0,1,.59.68,2.17,2.17,0,0,1,.23,1.05,2.33,2.33,0,0,1-.24,1.1,2.29,2.29,0,0,1-.63.76,2.6,2.6,0,0,1-.88.44,3.58,3.58,0,0,1-1,.14,3.86,3.86,0,0,1-.77-.08,3.48,3.48,0,0,1-.73-.23,3,3,0,0,1-.65-.4,2.87,2.87,0,0,1-.53-.55l.74-.55a2.28,2.28,0,0,0,.77.76,2.19,2.19,0,0,0,1.17.31,2.27,2.27,0,0,0,.66-.1,1.85,1.85,0,0,0,.61-.31,1.72,1.72,0,0,0,.44-.52,1.6,1.6,0,0,0,0-1.45,1.56,1.56,0,0,0-.46-.49,2.82,2.82,0,0,0-.66-.33l-.78-.26c-.28-.09-.56-.19-.83-.3a2.81,2.81,0,0,1-.73-.44,2.07,2.07,0,0,1-.52-.67,2.44,2.44,0,0,1,0-2,2.24,2.24,0,0,1,.64-.73,2.69,2.69,0,0,1,.88-.42,3.56,3.56,0,0,1,.95-.13,3.27,3.27,0,0,1,1.48.31,2.53,2.53,0,0,1,.92.73Z"/>
        <path d="M202.88,125.49H201.3v3.28a1.86,1.86,0,0,0,.06.52.73.73,0,0,0,.17.32.59.59,0,0,0,.27.16,1.27,1.27,0,0,0,.34,0,1.43,1.43,0,0,0,.35,0,1.8,1.8,0,0,0,.35-.13l0,.71a2.4,2.4,0,0,1-.45.13,2.86,2.86,0,0,1-.51,0,2.1,2.1,0,0,1-.48-.06,1.21,1.21,0,0,1-.47-.23,1.24,1.24,0,0,1-.35-.46,1.77,1.77,0,0,1-.14-.76v-3.5h-1.16v-.68h1.16v-1.58h.82v1.58h1.58Z"/>
      </g>
      <g>
        <path d="M241.16,26.79l-5,7h5v.77h-6.12v-.72l5-7h-4.84v-.77h5.92Z"/>
        <path d="M239.85,47.38c0-.15,0-.32,0-.5s0-.34,0-.46h0a1.85,1.85,0,0,1-.78.8,2.27,2.27,0,0,1-1.14.31,2,2,0,0,1-1.6-.64,2.52,2.52,0,0,1-.53-1.68V41.76h.82v3.11a4.12,4.12,0,0,0,.07.8,1.68,1.68,0,0,0,.25.62,1.17,1.17,0,0,0,.47.4,1.67,1.67,0,0,0,.74.14,1.58,1.58,0,0,0,.63-.13,1.55,1.55,0,0,0,.55-.4,2,2,0,0,0,.38-.68,3,3,0,0,0,.14-1V41.76h.82v4.38q0,.23,0,.59t0,.65Z"/>
        <path d="M236.5,54.58c0,.15,0,.32,0,.5s0,.34,0,.46h0a1.85,1.85,0,0,1,.78-.8,2.28,2.28,0,0,1,1.14-.31,2,2,0,0,1,1.6.64,2.53,2.53,0,0,1,.53,1.68v3.44h-.82V57.09a4.13,4.13,0,0,0-.07-.8,1.68,1.68,0,0,0-.25-.62,1.17,1.17,0,0,0-.47-.4,1.68,1.68,0,0,0-.74-.14,1.58,1.58,0,0,0-.63.13,1.54,1.54,0,0,0-.55.4,2,2,0,0,0-.38.68,3,3,0,0,0-.14,1v2.88h-.82V55.81q0-.23,0-.59t0-.65Z"/>
        <path d="M238.75,65.24a.54.54,0,0,1-.18.41.57.57,0,0,1-.79,0,.57.57,0,0,1,0-.83.57.57,0,0,1,.79,0A.53.53,0,0,1,238.75,65.24ZM238.58,73h-.82V67.39h.82Z"/>
        <path d="M240,86.33a2.08,2.08,0,0,0-.71-.62,2.17,2.17,0,0,0-1-.23,2.23,2.23,0,0,0-.64.1,1.84,1.84,0,0,0-.59.29,1.51,1.51,0,0,0-.43.5,1.47,1.47,0,0,0-.16.71,1.31,1.31,0,0,0,.16.67,1.49,1.49,0,0,0,.41.45,2.37,2.37,0,0,0,.59.31l.69.24.89.31a3.2,3.2,0,0,1,.81.44,2.11,2.11,0,0,1,.59.68,2.17,2.17,0,0,1,.23,1.05,2.33,2.33,0,0,1-.24,1.1,2.29,2.29,0,0,1-.63.76,2.6,2.6,0,0,1-.88.44,3.58,3.58,0,0,1-1,.14,3.86,3.86,0,0,1-.77-.08,3.48,3.48,0,0,1-.73-.23,3,3,0,0,1-.65-.4,2.87,2.87,0,0,1-.53-.55l.74-.55a2.28,2.28,0,0,0,.77.76,2.19,2.19,0,0,0,1.17.31,2.27,2.27,0,0,0,.66-.1,1.85,1.85,0,0,0,.61-.31,1.72,1.72,0,0,0,.44-.52,1.6,1.6,0,0,0,0-1.45,1.56,1.56,0,0,0-.46-.49,2.82,2.82,0,0,0-.66-.33l-.78-.26c-.28-.09-.56-.19-.83-.3a2.81,2.81,0,0,1-.73-.44,2.07,2.07,0,0,1-.52-.67,2.44,2.44,0,0,1,0-2,2.24,2.24,0,0,1,.64-.73,2.69,2.69,0,0,1,.88-.42,3.56,3.56,0,0,1,.95-.13,3.27,3.27,0,0,1,1.48.31,2.53,2.53,0,0,1,.92.73Z"/>
        <path d="M239.88,101.34H238.3v3.28a1.86,1.86,0,0,0,.06.52.73.73,0,0,0,.17.32.59.59,0,0,0,.27.16,1.27,1.27,0,0,0,.34,0,1.43,1.43,0,0,0,.35,0,1.8,1.8,0,0,0,.35-.13l0,.71a2.4,2.4,0,0,1-.45.13,2.86,2.86,0,0,1-.51,0,2.1,2.1,0,0,1-.48-.06,1.21,1.21,0,0,1-.47-.23,1.24,1.24,0,0,1-.35-.46,1.77,1.77,0,0,1-.14-.76v-3.5h-1.16v-.68h1.16V99.07h.82v1.58h1.58Z"/>
      </g>
      <g>
        <path d="M347.6,36.82h-.86V29.09H343.9v-.77h6.55v.77H347.6Z"/>
        <path d="M349.93,46.66v.18a1.91,1.91,0,0,1,0,.2h-4.66a2.18,2.18,0,0,0,.17.79,2,2,0,0,0,.43.65,2.08,2.08,0,0,0,.65.44,2.14,2.14,0,0,0,1.9-.13,2.2,2.2,0,0,0,.7-.68l.61.48a3,3,0,0,1-1.11.91,3.11,3.11,0,0,1-1.3.28,3,3,0,0,1-1.16-.22,2.71,2.71,0,0,1-.92-.62,2.94,2.94,0,0,1-.61-.94,3.07,3.07,0,0,1-.22-1.18,3.15,3.15,0,0,1,.22-1.18,2.84,2.84,0,0,1,.6-.94,2.76,2.76,0,0,1,.9-.62,2.79,2.79,0,0,1,1.12-.22,2.86,2.86,0,0,1,1.16.22,2.4,2.4,0,0,1,.84.6,2.57,2.57,0,0,1,.51.88A3.28,3.28,0,0,1,349.93,46.66Zm-.83-.26a2,2,0,0,0-.51-1.31,1.73,1.73,0,0,0-1.35-.52,1.89,1.89,0,0,0-.76.15,2,2,0,0,0-.61.41,2,2,0,0,0-.42.59,1.9,1.9,0,0,0-.18.69Z"/>
        <path d="M345.46,64.57l.26.05.26,0a.81.81,0,0,0,.41-.09.62.62,0,0,0,.24-.25,1.13,1.13,0,0,0,.11-.38,3.74,3.74,0,0,0,0-.49v-6.6h.82v6.73a2.9,2.9,0,0,1-.07.65,1.5,1.5,0,0,1-.25.56,1.29,1.29,0,0,1-.49.4,1.79,1.79,0,0,1-.79.15l-.31,0a1.73,1.73,0,0,1-.34-.07Zm2.29-9.89a.53.53,0,0,1-.18.41.57.57,0,0,1-.79,0,.56.56,0,0,1,0-.83.56.56,0,0,1,.79,0A.53.53,0,0,1,347.75,54.68Z"/>
        <path d="M350.17,72.46a3.07,3.07,0,0,1-.22,1.18,2.84,2.84,0,0,1-.62.94,2.81,2.81,0,0,1-.95.62,3.22,3.22,0,0,1-1.21.22,3.19,3.19,0,0,1-1.2-.22,2.81,2.81,0,0,1-.95-.62,2.84,2.84,0,0,1-.62-.94,3.23,3.23,0,0,1,0-2.35,2.84,2.84,0,0,1,.62-.94,2.81,2.81,0,0,1,.95-.62,3.19,3.19,0,0,1,1.2-.22,3.22,3.22,0,0,1,1.21.22,2.81,2.81,0,0,1,.95.62,2.84,2.84,0,0,1,.62.94A3.07,3.07,0,0,1,350.17,72.46Zm-.86,0a2.58,2.58,0,0,0-.15-.88,2.17,2.17,0,0,0-.43-.72,2,2,0,0,0-.67-.49,2.12,2.12,0,0,0-.89-.18,2.08,2.08,0,0,0-.88.18,2,2,0,0,0-.67.49,2.17,2.17,0,0,0-.43.72,2.68,2.68,0,0,0,0,1.76,2.16,2.16,0,0,0,.43.72,2,2,0,0,0,.67.48,2.14,2.14,0,0,0,.88.17,2.18,2.18,0,0,0,.89-.17,1.94,1.94,0,0,0,.67-.48,2.16,2.16,0,0,0,.43-.72A2.58,2.58,0,0,0,349.3,72.46Z"/>
        <path d="M345.5,82.47c0,.15,0,.32,0,.5s0,.34,0,.46h0a1.85,1.85,0,0,1,.78-.8,2.28,2.28,0,0,1,1.14-.31,2,2,0,0,1,1.6.64,2.53,2.53,0,0,1,.53,1.68v3.44h-.82V85a4.13,4.13,0,0,0-.07-.8,1.68,1.68,0,0,0-.25-.62,1.17,1.17,0,0,0-.47-.4,1.68,1.68,0,0,0-.74-.14,1.58,1.58,0,0,0-.63.13,1.54,1.54,0,0,0-.55.4,2,2,0,0,0-.38.68,3,3,0,0,0-.14,1v2.88h-.82V83.71q0-.23,0-.59t0-.65Z"/>
        <path d="M349,101.41a2.08,2.08,0,0,0-.71-.62,2.17,2.17,0,0,0-1-.23,2.23,2.23,0,0,0-.64.1,1.84,1.84,0,0,0-.59.29,1.51,1.51,0,0,0-.43.5,1.47,1.47,0,0,0-.16.71,1.31,1.31,0,0,0,.16.67,1.49,1.49,0,0,0,.41.45,2.37,2.37,0,0,0,.59.31l.69.24.89.31a3.2,3.2,0,0,1,.81.44,2.11,2.11,0,0,1,.59.68,2.17,2.17,0,0,1,.23,1.05,2.33,2.33,0,0,1-.24,1.1,2.29,2.29,0,0,1-.63.76,2.6,2.6,0,0,1-.88.44,3.58,3.58,0,0,1-1,.14,3.86,3.86,0,0,1-.77-.08,3.48,3.48,0,0,1-.73-.23,3,3,0,0,1-.65-.4,2.87,2.87,0,0,1-.53-.55l.74-.55a2.28,2.28,0,0,0,.77.76,2.19,2.19,0,0,0,1.17.31,2.27,2.27,0,0,0,.66-.1,1.85,1.85,0,0,0,.61-.31,1.72,1.72,0,0,0,.44-.52,1.6,1.6,0,0,0,0-1.45,1.56,1.56,0,0,0-.46-.49,2.82,2.82,0,0,0-.66-.33l-.78-.26c-.28-.09-.56-.19-.83-.3a2.81,2.81,0,0,1-.73-.44,2.07,2.07,0,0,1-.52-.67,2.44,2.44,0,0,1,0-2,2.24,2.24,0,0,1,.64-.73,2.69,2.69,0,0,1,.88-.42,3.56,3.56,0,0,1,.95-.13,3.27,3.27,0,0,1,1.48.31,2.53,2.53,0,0,1,.92.73Z"/>
        <path d="M348.88,116.42H347.3v3.28a1.86,1.86,0,0,0,.06.52.73.73,0,0,0,.17.32.59.59,0,0,0,.27.16,1.27,1.27,0,0,0,.34,0,1.43,1.43,0,0,0,.35,0,1.8,1.8,0,0,0,.35-.13l0,.71a2.4,2.4,0,0,1-.45.13,2.86,2.86,0,0,1-.51,0,2.1,2.1,0,0,1-.48-.06,1.21,1.21,0,0,1-.47-.23,1.24,1.24,0,0,1-.35-.46,1.77,1.77,0,0,1-.14-.76v-3.5h-1.16v-.68h1.16v-1.58h.82v1.58h1.58Z"/>
      </g>
      <g>
        <path d="M451.82,21.66h2.4a4.66,4.66,0,0,1,1.18.14,2.6,2.6,0,0,1,.91.42,1.9,1.9,0,0,1,.58.71,2.3,2.3,0,0,1,.2,1,2.23,2.23,0,0,1-.21,1,1.94,1.94,0,0,1-.59.71,2.67,2.67,0,0,1-.91.43,4.55,4.55,0,0,1-1.18.14h-1.51v3.95h-.86Zm.86,3.82h1.46a2.55,2.55,0,0,0,1.55-.4,1.35,1.35,0,0,0,.53-1.15,1.3,1.3,0,0,0-.55-1.16,2.73,2.73,0,0,0-1.53-.37h-1.46Z"/>
        <path d="M456.93,40v.18a1.91,1.91,0,0,1,0,.2h-4.66a2.18,2.18,0,0,0,.17.79,2,2,0,0,0,.43.65,2.08,2.08,0,0,0,.65.44,2.14,2.14,0,0,0,1.9-.13,2.2,2.2,0,0,0,.7-.68l.61.48a3,3,0,0,1-1.11.91,3.11,3.11,0,0,1-1.3.28,3,3,0,0,1-1.16-.22,2.71,2.71,0,0,1-.92-.62,2.94,2.94,0,0,1-.61-.94,3.07,3.07,0,0,1-.22-1.18,3.15,3.15,0,0,1,.22-1.18,2.84,2.84,0,0,1,.6-.94,2.76,2.76,0,0,1,.9-.62,2.79,2.79,0,0,1,1.12-.22,2.86,2.86,0,0,1,1.16.22,2.4,2.4,0,0,1,.84.6,2.57,2.57,0,0,1,.51.88A3.28,3.28,0,0,1,456.93,40Zm-.83-.26a2,2,0,0,0-.51-1.31,1.73,1.73,0,0,0-1.35-.52,1.89,1.89,0,0,0-.76.15,2,2,0,0,0-.61.41,2,2,0,0,0-.42.59,1.9,1.9,0,0,0-.18.69Z"/>
        <path d="M456.3,51.45a1.55,1.55,0,0,0-.59-.53,1.76,1.76,0,0,0-.85-.21,2.18,2.18,0,0,0-.89.17,2,2,0,0,0-.68.48,2.11,2.11,0,0,0-.43.72,2.62,2.62,0,0,0-.15.89,2.56,2.56,0,0,0,.15.89,2.18,2.18,0,0,0,.43.71,1.93,1.93,0,0,0,.67.48,2.18,2.18,0,0,0,.89.17,1.79,1.79,0,0,0,1.52-.73L457,55a2.65,2.65,0,0,1-.88.71,2.75,2.75,0,0,1-1.25.26,3.29,3.29,0,0,1-1.24-.22,2.74,2.74,0,0,1-.94-.62,2.82,2.82,0,0,1-.61-.94,3.31,3.31,0,0,1,0-2.35,2.81,2.81,0,0,1,.61-.94,2.74,2.74,0,0,1,.94-.62,3.29,3.29,0,0,1,1.24-.22,2.94,2.94,0,0,1,1.15.25,2.25,2.25,0,0,1,.94.73Z"/>
        <path d="M457.17,65.79a3.07,3.07,0,0,1-.22,1.18,2.84,2.84,0,0,1-.62.94,2.81,2.81,0,0,1-.95.62,3.22,3.22,0,0,1-1.21.22,3.19,3.19,0,0,1-1.2-.22,2.81,2.81,0,0,1-.95-.62,2.84,2.84,0,0,1-.62-.94,3.23,3.23,0,0,1,0-2.35,2.84,2.84,0,0,1,.62-.94,2.81,2.81,0,0,1,.95-.62,3.19,3.19,0,0,1,1.2-.22,3.22,3.22,0,0,1,1.21.22,2.81,2.81,0,0,1,.95.62,2.84,2.84,0,0,1,.62.94A3.07,3.07,0,0,1,457.17,65.79Zm-.86,0a2.58,2.58,0,0,0-.15-.88,2.17,2.17,0,0,0-.43-.72,2,2,0,0,0-.67-.49,2.12,2.12,0,0,0-.89-.18,2.08,2.08,0,0,0-.88.18,2,2,0,0,0-.67.49,2.17,2.17,0,0,0-.43.72,2.68,2.68,0,0,0,0,1.76,2.16,2.16,0,0,0,.43.72,2,2,0,0,0,.67.48,2.14,2.14,0,0,0,.88.17,2.18,2.18,0,0,0,.89-.17,1.94,1.94,0,0,0,.67-.48,2.16,2.16,0,0,0,.43-.72A2.58,2.58,0,0,0,456.3,65.79Z"/>
        <path d="M455.58,77.13a1.44,1.44,0,0,0-.55-.57,1.58,1.58,0,0,0-.83-.22,2,2,0,0,0-.43,0,1.18,1.18,0,0,0-.38.16.85.85,0,0,0-.27.28.75.75,0,0,0-.1.4.68.68,0,0,0,.32.61,3.1,3.1,0,0,0,1,.35,3.42,3.42,0,0,1,1.47.59,1.29,1.29,0,0,1,.47,1,1.56,1.56,0,0,1-.67,1.35,2,2,0,0,1-.68.3,3.31,3.31,0,0,1-.76.09,3,3,0,0,1-1.24-.26,2.28,2.28,0,0,1-1-.83l.65-.48a1.84,1.84,0,0,0,1.56.88,2.55,2.55,0,0,0,.5,0,1.15,1.15,0,0,0,.42-.17.86.86,0,0,0,.4-.77.71.71,0,0,0-.43-.67,5.57,5.57,0,0,0-1.23-.41l-.53-.15a1.82,1.82,0,0,1-.52-.26,1.43,1.43,0,0,1-.4-.44,1.28,1.28,0,0,1-.16-.66,1.51,1.51,0,0,1,.17-.74,1.49,1.49,0,0,1,.45-.5,2,2,0,0,1,.64-.29,2.87,2.87,0,0,1,.74-.1,2.62,2.62,0,0,1,1.14.26,1.85,1.85,0,0,1,.83.74Z"/>
        <path d="M456,94.74a2.08,2.08,0,0,0-.71-.62,2.17,2.17,0,0,0-1-.23,2.23,2.23,0,0,0-.64.1,1.84,1.84,0,0,0-.59.29,1.51,1.51,0,0,0-.43.5,1.47,1.47,0,0,0-.16.71,1.31,1.31,0,0,0,.16.67,1.49,1.49,0,0,0,.41.45,2.37,2.37,0,0,0,.59.31l.69.24.89.31a3.2,3.2,0,0,1,.81.44,2.11,2.11,0,0,1,.59.68,2.17,2.17,0,0,1,.23,1.05,2.33,2.33,0,0,1-.24,1.1,2.29,2.29,0,0,1-.63.76,2.6,2.6,0,0,1-.88.44,3.58,3.58,0,0,1-1,.14,3.86,3.86,0,0,1-.77-.08,3.48,3.48,0,0,1-.73-.23,3,3,0,0,1-.65-.4,2.87,2.87,0,0,1-.53-.55l.74-.55a2.28,2.28,0,0,0,.77.76,2.19,2.19,0,0,0,1.17.31,2.27,2.27,0,0,0,.66-.1,1.85,1.85,0,0,0,.61-.31,1.72,1.72,0,0,0,.44-.52,1.6,1.6,0,0,0,0-1.45,1.56,1.56,0,0,0-.46-.49,2.82,2.82,0,0,0-.66-.33l-.78-.26c-.28-.09-.56-.19-.83-.3a2.81,2.81,0,0,1-.73-.44,2.07,2.07,0,0,1-.52-.67,2.44,2.44,0,0,1,0-2,2.24,2.24,0,0,1,.64-.73,2.69,2.69,0,0,1,.88-.42,3.56,3.56,0,0,1,.95-.13,3.27,3.27,0,0,1,1.48.31,2.53,2.53,0,0,1,.92.73Z"/>
        <path d="M455.88,109.75H454.3V113a1.86,1.86,0,0,0,.06.52.73.73,0,0,0,.17.32.59.59,0,0,0,.27.16,1.27,1.27,0,0,0,.34,0,1.43,1.43,0,0,0,.35,0,1.8,1.8,0,0,0,.35-.13l0,.71a2.4,2.4,0,0,1-.45.13,2.86,2.86,0,0,1-.51,0,2.1,2.1,0,0,1-.48-.06,1.21,1.21,0,0,1-.47-.23,1.24,1.24,0,0,1-.35-.46,1.77,1.77,0,0,1-.14-.76v-3.5h-1.16v-.68h1.16v-1.58h.82v1.58h1.58Z"/>
      </g>
      <g>
        <path d="M488.6,25.57a4.66,4.66,0,0,1-.34,1.79,4.22,4.22,0,0,1-2.33,2.34,4.77,4.77,0,0,1-3.52,0,4.22,4.22,0,0,1-2.33-2.34,4.93,4.93,0,0,1,0-3.58,4.22,4.22,0,0,1,2.33-2.34,4.77,4.77,0,0,1,3.52,0,4.22,4.22,0,0,1,2.33,2.34A4.66,4.66,0,0,1,488.6,25.57Zm-.91,0a4.16,4.16,0,0,0-.24-1.41,3.52,3.52,0,0,0-.7-1.18,3.33,3.33,0,0,0-1.11-.81,3.76,3.76,0,0,0-2.94,0,3.34,3.34,0,0,0-1.11.81,3.54,3.54,0,0,0-.7,1.18,4.28,4.28,0,0,0,0,2.83,3.47,3.47,0,0,0,.7,1.17,3.39,3.39,0,0,0,1.11.8,3.75,3.75,0,0,0,2.94,0,3.37,3.37,0,0,0,1.11-.8,3.46,3.46,0,0,0,.7-1.17A4.16,4.16,0,0,0,487.69,25.58Z"/>
        <path d="M485.58,38.35a1.44,1.44,0,0,0-.55-.57,1.58,1.58,0,0,0-.83-.22,2,2,0,0,0-.43,0,1.18,1.18,0,0,0-.38.16.85.85,0,0,0-.27.28.75.75,0,0,0-.1.4.68.68,0,0,0,.32.61,3.1,3.1,0,0,0,1,.35,3.42,3.42,0,0,1,1.47.59,1.29,1.29,0,0,1,.47,1,1.56,1.56,0,0,1-.67,1.35,2,2,0,0,1-.68.3,3.31,3.31,0,0,1-.76.09,3,3,0,0,1-1.24-.26,2.28,2.28,0,0,1-1-.83l.65-.48a1.84,1.84,0,0,0,1.56.88,2.55,2.55,0,0,0,.5,0,1.15,1.15,0,0,0,.42-.17.86.86,0,0,0,.4-.77.71.71,0,0,0-.43-.67,5.57,5.57,0,0,0-1.23-.41l-.53-.15a1.82,1.82,0,0,1-.52-.26,1.43,1.43,0,0,1-.4-.44,1.28,1.28,0,0,1-.16-.66,1.51,1.51,0,0,1,.17-.74,1.49,1.49,0,0,1,.45-.5,2,2,0,0,1,.64-.29,2.87,2.87,0,0,1,.74-.1,2.62,2.62,0,0,1,1.14.26,1.85,1.85,0,0,1,.83.74Z"/>
        <path d="M485.59,51.82a1.41,1.41,0,0,0-.38-1.08,1.59,1.59,0,0,0-1.12-.36,2.41,2.41,0,0,0-.94.18,2.25,2.25,0,0,0-.73.48L482,50.5a2.69,2.69,0,0,1,.92-.58,3.45,3.45,0,0,1,1.29-.23,2.79,2.79,0,0,1,.85.13,2,2,0,0,1,.7.38,1.71,1.71,0,0,1,.47.64,2.23,2.23,0,0,1,.17.9v2.46q0,.32,0,.67a4.6,4.6,0,0,0,.07.59h-.73c0-.14,0-.28-.06-.44a4.53,4.53,0,0,1,0-.47h0a2.37,2.37,0,0,1-.87.81,2.57,2.57,0,0,1-1.17.25,2.6,2.6,0,0,1-.67-.09,1.84,1.84,0,0,1-.62-.29,1.66,1.66,0,0,1-.47-.53,1.58,1.58,0,0,1-.19-.79,1.51,1.51,0,0,1,.33-1,2,2,0,0,1,.88-.57,5.18,5.18,0,0,1,1.27-.24q.71-.05,1.48-.05Zm-.24.83q-.5,0-1,0a4.43,4.43,0,0,0-.92.17,1.74,1.74,0,0,0-.68.37.82.82,0,0,0-.26.64,1,1,0,0,0,.11.5.93.93,0,0,0,.31.33,1.31,1.31,0,0,0,.43.18,2.1,2.1,0,0,0,.47.05,1.85,1.85,0,0,0,.77-.15,1.63,1.63,0,0,0,.56-.41,1.81,1.81,0,0,0,.35-.59,2.09,2.09,0,0,0,.12-.71v-.42Z"/>
        <path d="M481.76,69.4a2.71,2.71,0,0,0,.92.73,2.84,2.84,0,0,0,2.25.13,1.76,1.76,0,0,0,.68-.47,1.88,1.88,0,0,0,.38-.7,3,3,0,0,0,.12-.86V67.17h0a2.15,2.15,0,0,1-.92.82,2.74,2.74,0,0,1-1.21.29,3.16,3.16,0,0,1-1.19-.22,2.72,2.72,0,0,1-.91-.59,2.64,2.64,0,0,1-.59-.91,3.07,3.07,0,0,1-.21-1.14,3,3,0,0,1,.21-1.13,2.84,2.84,0,0,1,.59-.92,2.74,2.74,0,0,1,.91-.62,3,3,0,0,1,1.19-.23,2.7,2.7,0,0,1,1.2.29,2.22,2.22,0,0,1,.92.83h0v-1h.82v5.57a4.1,4.1,0,0,1-.13,1,2.46,2.46,0,0,1-.47.95,2.64,2.64,0,0,1-.93.72,3.46,3.46,0,0,1-1.52.29,3.78,3.78,0,0,1-1.49-.3,3.59,3.59,0,0,1-1.21-.83Zm.16-4a2.45,2.45,0,0,0,.14.84,2.11,2.11,0,0,0,.41.7,1.93,1.93,0,0,0,.67.47,2.22,2.22,0,0,0,.9.17,2.34,2.34,0,0,0,.86-.16,2,2,0,0,0,.68-.44,2,2,0,0,0,.45-.69,2.38,2.38,0,0,0,.16-.89,2.19,2.19,0,0,0-1.3-2,2.07,2.07,0,0,0-.86-.18,2.15,2.15,0,0,0-.9.18,2,2,0,0,0-.67.48,2.12,2.12,0,0,0-.41.7A2.45,2.45,0,0,0,481.92,65.39Z"/>
        <path d="M486.93,78.11v.18a1.91,1.91,0,0,1,0,.2h-4.66a2.18,2.18,0,0,0,.17.79,2,2,0,0,0,.43.65,2.08,2.08,0,0,0,.65.44,2.14,2.14,0,0,0,1.9-.13,2.2,2.2,0,0,0,.7-.68l.61.48a3,3,0,0,1-1.11.91,3.11,3.11,0,0,1-1.3.28,3,3,0,0,1-1.16-.22,2.71,2.71,0,0,1-.92-.62,2.94,2.94,0,0,1-.61-.94,3.07,3.07,0,0,1-.22-1.18,3.15,3.15,0,0,1,.22-1.18,2.84,2.84,0,0,1,.6-.94,2.76,2.76,0,0,1,.9-.62,2.79,2.79,0,0,1,1.12-.22,2.86,2.86,0,0,1,1.16.22,2.4,2.4,0,0,1,.84.6,2.57,2.57,0,0,1,.51.88A3.28,3.28,0,0,1,486.93,78.11Zm-.83-.26a2,2,0,0,0-.51-1.31,1.73,1.73,0,0,0-1.35-.52,1.89,1.89,0,0,0-.76.15,2,2,0,0,0-.61.41,2,2,0,0,0-.42.59,1.9,1.9,0,0,0-.18.69Z"/>
        <path d="M486,94.41a2.08,2.08,0,0,0-.71-.62,2.17,2.17,0,0,0-1-.23,2.23,2.23,0,0,0-.64.1,1.84,1.84,0,0,0-.59.29,1.51,1.51,0,0,0-.43.5,1.47,1.47,0,0,0-.16.71,1.31,1.31,0,0,0,.16.67,1.49,1.49,0,0,0,.41.45,2.37,2.37,0,0,0,.59.31l.69.24.89.31a3.2,3.2,0,0,1,.81.44,2.11,2.11,0,0,1,.59.68,2.17,2.17,0,0,1,.23,1.05,2.33,2.33,0,0,1-.24,1.1,2.29,2.29,0,0,1-.63.76,2.6,2.6,0,0,1-.88.44,3.58,3.58,0,0,1-1,.14,3.86,3.86,0,0,1-.77-.08,3.48,3.48,0,0,1-.73-.23,3,3,0,0,1-.65-.4,2.87,2.87,0,0,1-.53-.55l.74-.55a2.28,2.28,0,0,0,.77.76,2.19,2.19,0,0,0,1.17.31,2.27,2.27,0,0,0,.66-.1,1.85,1.85,0,0,0,.61-.31,1.72,1.72,0,0,0,.44-.52,1.6,1.6,0,0,0,0-1.45,1.56,1.56,0,0,0-.46-.49,2.82,2.82,0,0,0-.66-.33l-.78-.26c-.28-.09-.56-.19-.83-.3a2.81,2.81,0,0,1-.73-.44,2.07,2.07,0,0,1-.52-.67,2.44,2.44,0,0,1,0-2,2.24,2.24,0,0,1,.64-.73,2.69,2.69,0,0,1,.88-.42,3.56,3.56,0,0,1,.95-.13,3.27,3.27,0,0,1,1.48.31,2.53,2.53,0,0,1,.92.73Z"/>
        <path d="M485.88,109.42H484.3v3.28a1.86,1.86,0,0,0,.06.52.73.73,0,0,0,.17.32.59.59,0,0,0,.27.16,1.27,1.27,0,0,0,.34,0,1.43,1.43,0,0,0,.35,0,1.8,1.8,0,0,0,.35-.13l0,.71a2.4,2.4,0,0,1-.45.13,2.86,2.86,0,0,1-.51,0,2.1,2.1,0,0,1-.48-.06,1.21,1.21,0,0,1-.47-.23,1.24,1.24,0,0,1-.35-.46,1.77,1.77,0,0,1-.14-.76v-3.5h-1.16v-.68h1.16v-1.58h.82v1.58h1.58Z"/>
      </g>
      <g>
        <path d="M514.74,29.15h0V21.92h.86v8.5h-1.08l-4.94-7.31h0v7.31h-.86v-8.5h1.08Z"/>
        <path d="M513.59,39.59a1.41,1.41,0,0,0-.38-1.08,1.59,1.59,0,0,0-1.12-.36,2.41,2.41,0,0,0-.94.18,2.25,2.25,0,0,0-.73.48l-.46-.54a2.69,2.69,0,0,1,.92-.58,3.45,3.45,0,0,1,1.29-.23,2.79,2.79,0,0,1,.85.13,2,2,0,0,1,.7.38,1.71,1.71,0,0,1,.47.64,2.23,2.23,0,0,1,.17.9V42q0,.32,0,.67a4.6,4.6,0,0,0,.07.59h-.73c0-.14,0-.28-.06-.44a4.53,4.53,0,0,1,0-.47h0a2.37,2.37,0,0,1-.87.81,2.57,2.57,0,0,1-1.17.25,2.6,2.6,0,0,1-.67-.09,1.84,1.84,0,0,1-.62-.29,1.66,1.66,0,0,1-.47-.53,1.58,1.58,0,0,1-.19-.79,1.51,1.51,0,0,1,.33-1,2,2,0,0,1,.88-.57,5.18,5.18,0,0,1,1.27-.24q.71-.05,1.48-.05Zm-.24.83q-.5,0-1,0a4.43,4.43,0,0,0-.92.17,1.74,1.74,0,0,0-.68.37.82.82,0,0,0-.26.64,1,1,0,0,0,.11.5.93.93,0,0,0,.31.33,1.31,1.31,0,0,0,.43.18,2.1,2.1,0,0,0,.47.05,1.85,1.85,0,0,0,.77-.15,1.63,1.63,0,0,0,.56-.41,1.81,1.81,0,0,0,.35-.59,2.09,2.09,0,0,0,.12-.71v-.42Z"/>
        <path d="M512.63,56h-.9l-2.29-5.62h.91l1.82,4.75h0L514,50.43h.88Z"/>
        <path d="M513.59,65.23a1.41,1.41,0,0,0-.38-1.08,1.59,1.59,0,0,0-1.12-.36,2.41,2.41,0,0,0-.94.18,2.25,2.25,0,0,0-.73.48l-.46-.54a2.69,2.69,0,0,1,.92-.58,3.45,3.45,0,0,1,1.29-.23,2.79,2.79,0,0,1,.85.13,2,2,0,0,1,.7.38,1.71,1.71,0,0,1,.47.64,2.23,2.23,0,0,1,.17.9V67.6q0,.32,0,.67a4.6,4.6,0,0,0,.07.59h-.73c0-.14,0-.28-.06-.44a4.53,4.53,0,0,1,0-.47h0a2.37,2.37,0,0,1-.87.81,2.57,2.57,0,0,1-1.17.25,2.6,2.6,0,0,1-.67-.09,1.84,1.84,0,0,1-.62-.29,1.66,1.66,0,0,1-.47-.53,1.58,1.58,0,0,1-.19-.79,1.51,1.51,0,0,1,.33-1,2,2,0,0,1,.88-.57,5.18,5.18,0,0,1,1.27-.24q.71-.05,1.48-.05Zm-.24.83q-.5,0-1,0a4.43,4.43,0,0,0-.92.17,1.74,1.74,0,0,0-.68.37.82.82,0,0,0-.26.64,1,1,0,0,0,.11.5.93.93,0,0,0,.31.33,1.31,1.31,0,0,0,.43.18,2.1,2.1,0,0,0,.47.05,1.85,1.85,0,0,0,.77-.15,1.63,1.63,0,0,0,.56-.41,1.81,1.81,0,0,0,.35-.59,2.09,2.09,0,0,0,.12-.71v-.42Z"/>
        <path d="M510.46,83.79l.26.05.26,0a.81.81,0,0,0,.41-.09.62.62,0,0,0,.24-.25,1.13,1.13,0,0,0,.11-.38,3.74,3.74,0,0,0,0-.49v-6.6h.82v6.73a2.9,2.9,0,0,1-.07.65,1.5,1.5,0,0,1-.25.56,1.29,1.29,0,0,1-.49.4,1.79,1.79,0,0,1-.79.15l-.31,0a1.73,1.73,0,0,1-.34-.07Zm2.29-9.89a.53.53,0,0,1-.18.41.57.57,0,0,1-.79,0,.56.56,0,0,1,0-.83.56.56,0,0,1,.79,0A.53.53,0,0,1,512.75,73.9Z"/>
        <path d="M515.17,91.69a3.07,3.07,0,0,1-.22,1.18,2.84,2.84,0,0,1-.62.94,2.81,2.81,0,0,1-.95.62,3.22,3.22,0,0,1-1.21.22,3.19,3.19,0,0,1-1.2-.22,2.81,2.81,0,0,1-.95-.62,2.84,2.84,0,0,1-.62-.94,3.23,3.23,0,0,1,0-2.35,2.84,2.84,0,0,1,.62-.94A2.81,2.81,0,0,1,511,89a3.19,3.19,0,0,1,1.2-.22,3.22,3.22,0,0,1,1.21.22,2.81,2.81,0,0,1,.95.62,2.84,2.84,0,0,1,.62.94A3.07,3.07,0,0,1,515.17,91.69Zm-.86,0a2.58,2.58,0,0,0-.15-.88,2.17,2.17,0,0,0-.43-.72,2,2,0,0,0-.67-.49,2.12,2.12,0,0,0-.89-.18,2.08,2.08,0,0,0-.88.18,2,2,0,0,0-.67.49,2.17,2.17,0,0,0-.43.72,2.68,2.68,0,0,0,0,1.76,2.16,2.16,0,0,0,.43.72,2,2,0,0,0,.67.48,2.14,2.14,0,0,0,.88.17,2.18,2.18,0,0,0,.89-.17,1.94,1.94,0,0,0,.67-.48,2.16,2.16,0,0,0,.43-.72A2.58,2.58,0,0,0,514.3,91.69Z"/>
        <path d="M514,107.81a2.08,2.08,0,0,0-.71-.62,2.17,2.17,0,0,0-1-.23,2.23,2.23,0,0,0-.64.1,1.84,1.84,0,0,0-.59.29,1.51,1.51,0,0,0-.43.5,1.47,1.47,0,0,0-.16.71,1.31,1.31,0,0,0,.16.67,1.49,1.49,0,0,0,.41.45,2.37,2.37,0,0,0,.59.31l.69.24.89.31a3.2,3.2,0,0,1,.81.44,2.11,2.11,0,0,1,.59.68,2.17,2.17,0,0,1,.23,1.05,2.33,2.33,0,0,1-.24,1.1,2.29,2.29,0,0,1-.63.76,2.6,2.6,0,0,1-.88.44,3.58,3.58,0,0,1-1,.14,3.86,3.86,0,0,1-.77-.08,3.48,3.48,0,0,1-.73-.23,3,3,0,0,1-.65-.4,2.87,2.87,0,0,1-.53-.55l.74-.55a2.28,2.28,0,0,0,.77.76,2.19,2.19,0,0,0,1.17.31,2.27,2.27,0,0,0,.66-.1,1.85,1.85,0,0,0,.61-.31,1.72,1.72,0,0,0,.44-.52,1.6,1.6,0,0,0,0-1.45,1.56,1.56,0,0,0-.46-.49,2.82,2.82,0,0,0-.66-.33l-.78-.26c-.28-.09-.56-.19-.83-.3a2.81,2.81,0,0,1-.73-.44,2.07,2.07,0,0,1-.52-.67,2.44,2.44,0,0,1,0-2,2.24,2.24,0,0,1,.64-.73,2.69,2.69,0,0,1,.88-.42,3.56,3.56,0,0,1,.95-.13,3.27,3.27,0,0,1,1.48.31,2.53,2.53,0,0,1,.92.73Z"/>
        <path d="M513.88,122.83H512.3v3.28a1.86,1.86,0,0,0,.06.52.73.73,0,0,0,.17.32.59.59,0,0,0,.27.16,1.27,1.27,0,0,0,.34,0,1.43,1.43,0,0,0,.35,0,1.8,1.8,0,0,0,.35-.13l0,.71a2.4,2.4,0,0,1-.45.13,2.86,2.86,0,0,1-.51,0,2.1,2.1,0,0,1-.48-.06,1.21,1.21,0,0,1-.47-.23,1.24,1.24,0,0,1-.35-.46,1.77,1.77,0,0,1-.14-.76v-3.5h-1.16v-.68h1.16v-1.58h.82v1.58h1.58Z"/>
      </g>
      <g>
        <path d="M317.7,334l1.86-1.72a4.77,4.77,0,0,1,.78-.59,2.61,2.61,0,0,1,.88-.34,1.93,1.93,0,0,1,.92.06,2.09,2.09,0,0,1,.9.61,1.78,1.78,0,0,1,.49,1.14,1.92,1.92,0,0,1-.36,1.23l0,0a2.24,2.24,0,0,1,1.44-.46,2,2,0,0,1,1.41.72,2.09,2.09,0,0,1,.54,1.83,3,3,0,0,1-.41,1,4.77,4.77,0,0,1-.85,1l-1.84,1.71Zm3.16,2.14,1.28-1.18a2.84,2.84,0,0,0,.41-.48,1.75,1.75,0,0,0,.26-.58,1.33,1.33,0,0,0,0-.63,1.42,1.42,0,0,0-.36-.63,1.37,1.37,0,0,0-.59-.4,1.33,1.33,0,0,0-.63,0,1.88,1.88,0,0,0-.65.25,3.88,3.88,0,0,0-.63.48l-1.1,1Zm2.74,3,1.18-1.09a4.33,4.33,0,0,0,.59-.67,2.3,2.3,0,0,0,.35-.72,1.53,1.53,0,0,0,0-.72,1.64,1.64,0,0,0-1.65-1.22,2.71,2.71,0,0,0-1.47.79l-1.29,1.2Z"/>
        <path d="M331.82,328.67a3.1,3.1,0,0,1,.64,1,2.85,2.85,0,0,1,.18,1.11,2.81,2.81,0,0,1-.28,1.1,3.22,3.22,0,0,1-.74,1,3.18,3.18,0,0,1-1,.65,2.77,2.77,0,0,1-2.21-.08,3.24,3.24,0,0,1-1.6-1.73,2.83,2.83,0,0,1-.18-1.11,2.78,2.78,0,0,1,.28-1.1,3.19,3.19,0,0,1,.73-1,3.23,3.23,0,0,1,1-.66,2.77,2.77,0,0,1,2.21.08A3.07,3.07,0,0,1,331.82,328.67Zm-.63.59a2.6,2.6,0,0,0-.71-.55,2.17,2.17,0,0,0-.8-.24,2,2,0,0,0-.82.1,2.14,2.14,0,0,0-.77.47,2.09,2.09,0,0,0-.52.73,2,2,0,0,0-.16.81,2.17,2.17,0,0,0,.18.82,2.66,2.66,0,0,0,1.2,1.29,2.15,2.15,0,0,0,.8.24,2,2,0,0,0,.82-.1,2.12,2.12,0,0,0,.76-.47,2.15,2.15,0,0,0,.53-.73,1.93,1.93,0,0,0,.17-.81,2.16,2.16,0,0,0-.17-.82A2.62,2.62,0,0,0,331.18,329.25Z"/>
        <path d="M338.6,326.21l-.37-.35-.32-.33,0,0a1.84,1.84,0,0,1,0,1.12,2.28,2.28,0,0,1-.63,1,2,2,0,0,1-1.61.62,2.52,2.52,0,0,1-1.53-.87l-2.34-2.53.6-.55,2.11,2.28a4.14,4.14,0,0,0,.6.54,1.66,1.66,0,0,0,.6.29,1.17,1.17,0,0,0,.62,0,1.66,1.66,0,0,0,.64-.4,1.58,1.58,0,0,0,.37-.52,1.55,1.55,0,0,0,.13-.67,2,2,0,0,0-.18-.76,3,3,0,0,0-.56-.82l-2-2.11.6-.55,3,3.21.41.42.47.45Z"/>
        <path d="M341.94,323.12l-.6.55L335.18,317l.6-.55Z"/>
        <path d="M346.89,317.25a2.3,2.3,0,0,1-.13,1.24,2.73,2.73,0,0,1-.69,1,3,3,0,0,1-1,.64,2.72,2.72,0,0,1-1.09.16,2.81,2.81,0,0,1-1.07-.29,3.33,3.33,0,0,1-1.58-1.71,2.83,2.83,0,0,1-.2-1.09,2.73,2.73,0,0,1,.24-1.08,3,3,0,0,1,.72-1,2.67,2.67,0,0,1,1.06-.6,2.32,2.32,0,0,1,1.25,0l0,0-3-3.25.6-.55,6.16,6.66-.6.55-.64-.7Zm-4.32,1.46a2.69,2.69,0,0,0,.71.55,2.15,2.15,0,0,0,.79.25,1.89,1.89,0,0,0,.81-.1,2.2,2.2,0,0,0,.78-.48,2.12,2.12,0,0,0,.7-1.53,2.17,2.17,0,0,0-.15-.83,2.54,2.54,0,0,0-1.21-1.31,2.22,2.22,0,0,0-.82-.22,2.08,2.08,0,0,0-.83.11,2.12,2.12,0,0,0-.75.46,2.16,2.16,0,0,0-.54.74,1.94,1.94,0,0,0-.16.81,2.16,2.16,0,0,0,.18.81A2.71,2.71,0,0,0,342.57,318.71Z"/>
        <path d="M352.08,309.68l.12.13.13.16-3.42,3.16a2.15,2.15,0,0,0,.66.47,2,2,0,0,0,.76.18,2.07,2.07,0,0,0,.77-.12,2,2,0,0,0,.7-.43,2,2,0,0,0,.61-1,2.23,2.23,0,0,0,.05-1l.78-.06a3,3,0,0,1-.2,1.42,3.12,3.12,0,0,1-.77,1.09,3,3,0,0,1-1,.62,2.71,2.71,0,0,1-1.09.17,2.94,2.94,0,0,1-1.08-.27,3.05,3.05,0,0,1-1-.71,3.12,3.12,0,0,1-.64-1,2.83,2.83,0,0,1-.2-1.1,2.74,2.74,0,0,1,.24-1.06,2.77,2.77,0,0,1,.67-.92,2.86,2.86,0,0,1,1-.63,2.4,2.4,0,0,1,1-.13,2.56,2.56,0,0,1,1,.3A3.26,3.26,0,0,1,352.08,309.68Zm-.79.37a2,2,0,0,0-1.27-.62,1.73,1.73,0,0,0-1.34.53,1.88,1.88,0,0,0-.45.62,2,2,0,0,0-.17.72,2.06,2.06,0,0,0,.09.72,1.91,1.91,0,0,0,.34.63Z"/>
        <path d="M352.6,306.48l-.47-.45.57-.53.37.35.32.33,0,0a2,2,0,0,1,0-1.07,2,2,0,0,1,.58-1l.22-.18.22-.14.45.65-.21.13a2.38,2.38,0,0,0-.26.21,1.66,1.66,0,0,0-.38.51,1.34,1.34,0,0,0-.13.63,2,2,0,0,0,.18.73,3,3,0,0,0,.55.8l2,2.11-.6.55-3-3.21Z"/>
        <path d="M363.57,293.39a2.09,2.09,0,0,0-.94,0,2.17,2.17,0,0,0-.92.54,2.24,2.24,0,0,0-.4.5,1.83,1.83,0,0,0-.23.62,1.51,1.51,0,0,0,0,.65,1.48,1.48,0,0,0,.36.63,1.3,1.3,0,0,0,.57.39,1.48,1.48,0,0,0,.61,0,2.34,2.34,0,0,0,.64-.17l.67-.29.87-.38a3.22,3.22,0,0,1,.89-.23,2.12,2.12,0,0,1,.9.1,2.18,2.18,0,0,1,.88.62,2.33,2.33,0,0,1,.57,1,2.29,2.29,0,0,1,.06,1,2.63,2.63,0,0,1-.35.93,3.6,3.6,0,0,1-.64.79,3.81,3.81,0,0,1-.62.47,3.46,3.46,0,0,1-.7.32,3,3,0,0,1-.74.15,2.9,2.9,0,0,1-.76,0l.17-.91a2.28,2.28,0,0,0,1.09,0,2.19,2.19,0,0,0,1.07-.57A2.28,2.28,0,0,0,367,299a1.83,1.83,0,0,0,.23-.64,1.76,1.76,0,0,0,0-.68,1.61,1.61,0,0,0-1-1.07,1.56,1.56,0,0,0-.67,0,2.82,2.82,0,0,0-.71.21l-.75.34q-.4.19-.81.34a2.82,2.82,0,0,1-.83.18,2.06,2.06,0,0,1-.83-.13,2.17,2.17,0,0,1-.81-.58,2.14,2.14,0,0,1-.54-.94,2.23,2.23,0,0,1,0-1,2.67,2.67,0,0,1,.36-.9,3.6,3.6,0,0,1,.61-.74,3.28,3.28,0,0,1,1.29-.78,2.53,2.53,0,0,1,1.17-.1Z"/>
        <path d="M369.37,291l-1.16,1.08,2.23,2.4a1.85,1.85,0,0,0,.39.34.73.73,0,0,0,.34.12.61.61,0,0,0,.31-.07,1.29,1.29,0,0,0,.27-.2,1.38,1.38,0,0,0,.23-.28,1.67,1.67,0,0,0,.17-.34l.51.5a2.37,2.37,0,0,1-.24.4,2.87,2.87,0,0,1-.35.38,2.12,2.12,0,0,1-.39.28,1.22,1.22,0,0,1-.5.15,1.25,1.25,0,0,1-.57-.09,1.77,1.77,0,0,1-.62-.46l-2.38-2.57-.85.79-.46-.5.85-.79L366.07,291l.6-.55,1.08,1.16,1.16-1.08Z"/>
      </g>
      <g>
        <path d="M357.89,359.26a3.56,3.56,0,0,1,0,.8,3.41,3.41,0,0,1-.16.86,4,4,0,0,1-.4.86,4.18,4.18,0,0,1-.68.83,4.62,4.62,0,0,1-1.51,1,4.2,4.2,0,0,1-1.66.3,4.25,4.25,0,0,1-1.64-.38,4.75,4.75,0,0,1-1.47-1.06,4.67,4.67,0,0,1-1-1.52,4.23,4.23,0,0,1,.07-3.3,4.54,4.54,0,0,1,1-1.46,4.37,4.37,0,0,1,1.53-1,3.62,3.62,0,0,1,.81-.19,2.48,2.48,0,0,1,.78,0l-.16.88a2.13,2.13,0,0,0-.54,0,2.38,2.38,0,0,0-.63.1,3.35,3.35,0,0,0-.65.27,2.9,2.9,0,0,0-.62.46,3.53,3.53,0,0,0-.86,1.24,3.36,3.36,0,0,0-.24,1.35,3.54,3.54,0,0,0,.31,1.33,4.16,4.16,0,0,0,.8,1.19,4.06,4.06,0,0,0,1.15.85,3.59,3.59,0,0,0,1.32.37,3.31,3.31,0,0,0,1.36-.18,3.48,3.48,0,0,0,1.27-.8,3.3,3.3,0,0,0,.8-1.18,2.63,2.63,0,0,0,.13-1.46Z"/>
        <path d="M362,353.11l.13.13.13.16-3.36,3.22a2.17,2.17,0,0,0,.67.46,2,2,0,0,0,.76.17,2.08,2.08,0,0,0,.77-.13,2.14,2.14,0,0,0,1.28-1.41,2.2,2.2,0,0,0,0-1l.78-.08a3.06,3.06,0,0,1-.17,1.43,3.13,3.13,0,0,1-.75,1.1,3,3,0,0,1-1,.64,2.72,2.72,0,0,1-1.09.19,2.93,2.93,0,0,1-1.09-.26,3.08,3.08,0,0,1-1-.7,3.16,3.16,0,0,1-.66-1,2.84,2.84,0,0,1-.21-1.09,2.75,2.75,0,0,1,.22-1.07,2.79,2.79,0,0,1,.65-.93,2.85,2.85,0,0,1,1-.64,2.39,2.39,0,0,1,1-.15,2.56,2.56,0,0,1,1,.28A3.26,3.26,0,0,1,362,353.11Zm-.78.38a2,2,0,0,0-1.28-.6,1.73,1.73,0,0,0-1.34.56,1.88,1.88,0,0,0-.44.63,2,2,0,0,0-.16.72,2,2,0,0,0,.1.72,1.9,1.9,0,0,0,.35.62Z"/>
        <path d="M362.56,348.92l.37.34.33.32,0,0a1.85,1.85,0,0,1,0-1.12,2.28,2.28,0,0,1,.61-1,2,2,0,0,1,1.6-.65,2.54,2.54,0,0,1,1.55.84l2.38,2.49-.59.56-2.15-2.25a4.11,4.11,0,0,0-.61-.53,1.66,1.66,0,0,0-.6-.28,1.17,1.17,0,0,0-.62,0,1.68,1.68,0,0,0-.63.41,1.56,1.56,0,0,0-.36.53,1.54,1.54,0,0,0-.12.67,2,2,0,0,0,.2.76,3,3,0,0,0,.57.81l2,2.08-.59.56-3-3.16-.41-.42-.47-.44Z"/>
        <path d="M370,342.79l-1.14,1.09,2.26,2.37a1.87,1.87,0,0,0,.4.33.73.73,0,0,0,.34.11.6.6,0,0,0,.3-.07,1.3,1.3,0,0,0,.27-.2,1.46,1.46,0,0,0,.22-.28,1.85,1.85,0,0,0,.16-.34l.52.49a2.37,2.37,0,0,1-.24.4,2.82,2.82,0,0,1-.34.38,2.1,2.1,0,0,1-.39.29,1.21,1.21,0,0,1-.5.16,1.24,1.24,0,0,1-.57-.08,1.76,1.76,0,0,1-.62-.45l-2.42-2.53-.84.81-.47-.49.84-.81-1.09-1.14.59-.56,1.09,1.14,1.14-1.09Z"/>
        <path d="M371.44,341.32l-.47-.44.56-.54.38.34.32.32,0,0a2,2,0,0,1,0-1.07,2,2,0,0,1,.57-1l.21-.19.22-.14.46.64-.21.13-.26.21a1.69,1.69,0,0,0-.37.52,1.35,1.35,0,0,0-.12.63,2,2,0,0,0,.2.72,3,3,0,0,0,.57.79l2,2.08-.59.56-3-3.16Z"/>
        <path d="M378.53,336.38a1.41,1.41,0,0,0-1-.52,1.59,1.59,0,0,0-1.05.51,2.41,2.41,0,0,0-.55.78,2.25,2.25,0,0,0-.2.85l-.7-.07a2.7,2.7,0,0,1,.26-1.05,3.44,3.44,0,0,1,.77-1.06,2.81,2.81,0,0,1,.7-.5,2,2,0,0,1,.76-.21,1.71,1.71,0,0,1,.78.14,2.23,2.23,0,0,1,.74.53l1.7,1.78c.15.16.31.31.48.47a4.64,4.64,0,0,0,.46.38l-.53.51-.35-.28c-.12-.1-.24-.21-.34-.32l0,0a2.38,2.38,0,0,1-.07,1.19,2.58,2.58,0,0,1-.68,1,2.64,2.64,0,0,1-.54.39,1.85,1.85,0,0,1-.66.22,1.66,1.66,0,0,1-.7-.06,1.58,1.58,0,0,1-.68-.45,1.51,1.51,0,0,1-.47-1,2,2,0,0,1,.25-1,5.17,5.17,0,0,1,.75-1q.48-.53,1-1.06Zm.4.76q-.36.35-.7.73a4.48,4.48,0,0,0-.55.76,1.75,1.75,0,0,0-.24.73.82.82,0,0,0,.25.64,1,1,0,0,0,.43.29.92.92,0,0,0,.45,0,1.32,1.32,0,0,0,.43-.16,2.09,2.09,0,0,0,.38-.29,1.84,1.84,0,0,0,.45-.64,1.61,1.61,0,0,0,.13-.68,1.82,1.82,0,0,0-.16-.67,2.09,2.09,0,0,0-.4-.59l-.29-.3Z"/>
        <path d="M384.31,335.88l-.59.56-6.27-6.55.59-.56Z"/>
        <path d="M390.08,320.5a2.08,2.08,0,0,0-.94,0,2.16,2.16,0,0,0-.92.55,2.2,2.2,0,0,0-.39.51,1.86,1.86,0,0,0-.22.62,1.52,1.52,0,0,0,0,.65,1.47,1.47,0,0,0,.37.62,1.3,1.3,0,0,0,.58.38,1.49,1.49,0,0,0,.61,0,2.34,2.34,0,0,0,.64-.18l.66-.3.86-.39a3.22,3.22,0,0,1,.89-.24,2.11,2.11,0,0,1,.9.09,2.17,2.17,0,0,1,.89.6,2.34,2.34,0,0,1,.58,1,2.3,2.3,0,0,1,.07,1,2.59,2.59,0,0,1-.33.93,3.55,3.55,0,0,1-.62.8,3.82,3.82,0,0,1-.61.48,3.48,3.48,0,0,1-.69.34,3,3,0,0,1-.74.16,2.86,2.86,0,0,1-.76,0l.16-.91a2.29,2.29,0,0,0,1.09,0,2.19,2.19,0,0,0,1.06-.59,2.29,2.29,0,0,0,.41-.53,1.87,1.87,0,0,0,.22-.64,1.72,1.72,0,0,0,0-.68,1.41,1.41,0,0,0-.37-.64,1.42,1.42,0,0,0-.64-.41,1.55,1.55,0,0,0-.67,0,2.81,2.81,0,0,0-.71.22l-.75.35c-.26.13-.53.25-.81.36a2.79,2.79,0,0,1-.83.19,2.07,2.07,0,0,1-.84-.12,2.45,2.45,0,0,1-1.37-1.5,2.25,2.25,0,0,1,0-1,2.7,2.7,0,0,1,.34-.91,3.57,3.57,0,0,1,.59-.75,3.26,3.26,0,0,1,1.28-.8,2.53,2.53,0,0,1,1.17-.11Z"/>
        <path d="M395.84,318l-1.14,1.1,2.26,2.37a1.86,1.86,0,0,0,.4.33.73.73,0,0,0,.34.11.6.6,0,0,0,.3-.07,1.3,1.3,0,0,0,.27-.2,1.46,1.46,0,0,0,.22-.28,1.85,1.85,0,0,0,.16-.34l.52.49a2.37,2.37,0,0,1-.24.4,2.88,2.88,0,0,1-.34.38,2.1,2.1,0,0,1-.39.29,1.21,1.21,0,0,1-.5.16,1.25,1.25,0,0,1-.57-.08,1.77,1.77,0,0,1-.62-.45l-2.42-2.53-.84.81-.47-.49.84-.81L392.54,318l.59-.56,1.09,1.14,1.14-1.1Z"/>
      </g>
      <g>
        <path d="M518.09,218.64l-.41.76-7.46-4.07.41-.76Z"/>
        <path d="M518.33,212.84,517,215.2l-.6-.33,1.29-2.36Z"/>
        <path d="M524.14,207.54l-2.59,4.76-.79-.43-1.42-4.74c-.05-.17-.11-.35-.18-.53a3.58,3.58,0,0,0-.25-.51,2.34,2.34,0,0,0-.34-.44,1.88,1.88,0,0,0-.45-.34,1.65,1.65,0,0,0-.65-.21,1.5,1.5,0,0,0-.62.08,1.71,1.71,0,0,0-.54.32,1.82,1.82,0,0,0-.41.51,1.65,1.65,0,0,0-.18,1.21,1.94,1.94,0,0,0,.67,1l-.56.67a2.44,2.44,0,0,1-.57-.68,2.53,2.53,0,0,1-.3-.82,2.67,2.67,0,0,1,0-.89,2.77,2.77,0,0,1,.31-.9,3.14,3.14,0,0,1,.6-.79,2.35,2.35,0,0,1,.78-.5,2.17,2.17,0,0,1,.91-.13,2.34,2.34,0,0,1,1,.3,2.44,2.44,0,0,1,.61.46,3.25,3.25,0,0,1,.44.58,3.83,3.83,0,0,1,.31.67q.13.36.24.73l1.2,4.14,2.15-4Z"/>
        <path d="M520.91,197.31l-1.69,3.11,2.28,1.31a3.39,3.39,0,0,1,.15-.58,3.87,3.87,0,0,1,.24-.54,3.07,3.07,0,0,1,.69-.87,2.6,2.6,0,0,1,.9-.51,2.47,2.47,0,0,1,1-.1,2.8,2.8,0,0,1,1,.34,3.13,3.13,0,0,1,.9.72,2.61,2.61,0,0,1,.52.93,2.65,2.65,0,0,1,.1,1.07,3,3,0,0,1-.36,1.11,2.77,2.77,0,0,1-1.12,1.17,2.8,2.8,0,0,1-1.46.32l.07-.85a1.89,1.89,0,0,0,1.07-.2A1.79,1.79,0,0,0,526,203a2.07,2.07,0,0,0,.25-.77,1.82,1.82,0,0,0-.07-.75,2,2,0,0,0-.37-.67,2.14,2.14,0,0,0-.63-.52,2.11,2.11,0,0,0-.82-.26,1.87,1.87,0,0,0-.78.08,2,2,0,0,0-.68.39,2.35,2.35,0,0,0-.53.67,3.28,3.28,0,0,0-.32.86,4.36,4.36,0,0,0-.11.92l-3.81-2.17,2.07-3.8Z"/>
      </g>
      <g>
        <path d="M372.89,384.21l1.72-1.68a4.66,4.66,0,0,1,.94-.72,2.63,2.63,0,0,1,.94-.33,1.91,1.91,0,0,1,.91.1,2.29,2.29,0,0,1,.85.57,2.22,2.22,0,0,1,.55.86,2,2,0,0,1,.08.92,2.68,2.68,0,0,1-.35.94,4.57,4.57,0,0,1-.74.93l-1.08,1.06,2.76,2.82-.62.6Zm3.29,2.12,1-1a2.55,2.55,0,0,0,.83-1.37,1.35,1.35,0,0,0-.43-1.19,1.29,1.29,0,0,0-1.2-.45,2.72,2.72,0,0,0-1.35.81l-1,1Z"/>
        <path d="M385,384.29l-.58.57L378,378.38l.58-.57Z"/>
        <path d="M387.09,377.12a1.41,1.41,0,0,0-1-.51,1.58,1.58,0,0,0-1,.53,2.43,2.43,0,0,0-.54.78,2.27,2.27,0,0,0-.19.86l-.7-.07a2.71,2.71,0,0,1,.25-1.05,3.46,3.46,0,0,1,.76-1.06,2.78,2.78,0,0,1,.7-.51,2,2,0,0,1,.76-.22,1.73,1.73,0,0,1,.78.13,2.26,2.26,0,0,1,.75.53l1.72,1.76c.15.15.31.31.49.46a4.59,4.59,0,0,0,.46.37l-.52.51-.35-.28A4.49,4.49,0,0,1,389,379l0,0a2.37,2.37,0,0,1-.05,1.19,2.61,2.61,0,0,1-.67,1,2.58,2.58,0,0,1-.54.4,1.85,1.85,0,0,1-.65.23,1.66,1.66,0,0,1-.71-.05,1.58,1.58,0,0,1-.69-.44,1.52,1.52,0,0,1-.48-1,2,2,0,0,1,.23-1,5.14,5.14,0,0,1,.74-1.06q.47-.54,1-1.08Zm.41.76c-.24.24-.47.48-.7.74a4.37,4.37,0,0,0-.54.77,1.73,1.73,0,0,0-.23.74.82.82,0,0,0,.26.64,1,1,0,0,0,.44.28.93.93,0,0,0,.45,0,1.31,1.31,0,0,0,.43-.17,2.19,2.19,0,0,0,.38-.29,1.86,1.86,0,0,0,.44-.64,1.64,1.64,0,0,0,.12-.69,1.81,1.81,0,0,0-.17-.67A2.08,2.08,0,0,0,388,378l-.29-.3Z"/>
        <path d="M390.54,371.93,389.41,373l2.29,2.34a1.88,1.88,0,0,0,.4.33.74.74,0,0,0,.35.11.61.61,0,0,0,.3-.08,1.24,1.24,0,0,0,.27-.21,1.45,1.45,0,0,0,.22-.28,1.85,1.85,0,0,0,.16-.34l.52.48a2.51,2.51,0,0,1-.23.41,3,3,0,0,1-.33.39,2.07,2.07,0,0,1-.39.29,1.2,1.2,0,0,1-.49.17,1.26,1.26,0,0,1-.57-.08,1.76,1.76,0,0,1-.63-.44l-2.45-2.5-.83.81-.48-.49.83-.81L387.24,372l.58-.57,1.11,1.13,1.13-1.11Z"/>
        <path d="M393.74,368.8l-1.13,1.11,2.29,2.34a1.83,1.83,0,0,0,.4.33.71.71,0,0,0,.35.11.58.58,0,0,0,.3-.08,1.24,1.24,0,0,0,.27-.2,1.43,1.43,0,0,0,.22-.28,1.78,1.78,0,0,0,.16-.34l.52.48a2.47,2.47,0,0,1-.23.41,3,3,0,0,1-.33.39,2.21,2.21,0,0,1-.39.29,1.22,1.22,0,0,1-.49.16,1.26,1.26,0,0,1-.57-.08,1.76,1.76,0,0,1-.63-.44l-2.45-2.5-.83.81-.48-.49.83-.81-1.11-1.13.58-.57,1.11,1.13,1.13-1.11Z"/>
        <path d="M400.25,365.16l.13.13.13.15-3.33,3.25a2.17,2.17,0,0,0,.67.45,2,2,0,0,0,.76.16,2.07,2.07,0,0,0,.77-.14,2.14,2.14,0,0,0,1.27-1.42,2.22,2.22,0,0,0,0-1l.77-.08a3,3,0,0,1-.16,1.43,3.11,3.11,0,0,1-.74,1.11,3,3,0,0,1-1,.65,2.69,2.69,0,0,1-1.09.2,3,3,0,0,1-1.09-.24,3.07,3.07,0,0,1-1-.69,3.15,3.15,0,0,1-.67-1,2.88,2.88,0,0,1-.23-1.09,2.79,2.79,0,0,1,.21-1.07,2.82,2.82,0,0,1,.64-.94,2.87,2.87,0,0,1,1-.66,2.39,2.39,0,0,1,1-.16,2.59,2.59,0,0,1,1,.27A3.29,3.29,0,0,1,400.25,365.16Zm-.78.39a2,2,0,0,0-1.28-.58,1.73,1.73,0,0,0-1.33.57,1.9,1.9,0,0,0-.44.64,2,2,0,0,0-.15.72,2,2,0,0,0,.11.71,1.91,1.91,0,0,0,.35.62Z"/>
        <path d="M407.62,352.15a2.08,2.08,0,0,0-.94.05,2.16,2.16,0,0,0-.91.56,2.24,2.24,0,0,0-.39.51,1.85,1.85,0,0,0-.22.62,1.52,1.52,0,0,0,0,.65,1.48,1.48,0,0,0,.38.62,1.32,1.32,0,0,0,.58.37,1.49,1.49,0,0,0,.61,0,2.4,2.4,0,0,0,.63-.19l.66-.31.85-.4a3.18,3.18,0,0,1,.88-.25,2.11,2.11,0,0,1,.9.08,2.18,2.18,0,0,1,.9.59,2.33,2.33,0,0,1,.59,1,2.28,2.28,0,0,1,.08,1,2.61,2.61,0,0,1-.32.94,3.58,3.58,0,0,1-.62.8,3.88,3.88,0,0,1-.6.48,3.47,3.47,0,0,1-.69.34,3,3,0,0,1-.74.17,2.88,2.88,0,0,1-.76,0l.15-.92a2.28,2.28,0,0,0,1.09,0,2.19,2.19,0,0,0,1-.6,2.28,2.28,0,0,0,.4-.53,1.87,1.87,0,0,0,.21-.65,1.71,1.71,0,0,0,0-.68,1.4,1.4,0,0,0-.37-.63,1.44,1.44,0,0,0-.64-.41,1.57,1.57,0,0,0-.67,0,2.88,2.88,0,0,0-.7.23l-.74.36c-.26.13-.53.25-.8.36a2.8,2.8,0,0,1-.83.2,2,2,0,0,1-.84-.11,2.44,2.44,0,0,1-1.38-1.48,2.23,2.23,0,0,1-.05-1,2.7,2.7,0,0,1,.33-.91,3.6,3.6,0,0,1,.58-.76,3.27,3.27,0,0,1,1.27-.81,2.53,2.53,0,0,1,1.17-.13Z"/>
        <path d="M413.35,349.6l-1.13,1.11,2.29,2.34a1.89,1.89,0,0,0,.4.33.73.73,0,0,0,.35.11.59.59,0,0,0,.3-.08,1.24,1.24,0,0,0,.27-.2,1.42,1.42,0,0,0,.22-.28,1.8,1.8,0,0,0,.16-.34l.52.48a2.49,2.49,0,0,1-.23.41,3,3,0,0,1-.33.39,2.1,2.1,0,0,1-.39.29,1.2,1.2,0,0,1-.49.16,1.25,1.25,0,0,1-.57-.08,1.75,1.75,0,0,1-.63-.44l-2.45-2.5-.83.81-.48-.49.83-.81-1.11-1.13.58-.57,1.11,1.13,1.13-1.11Z"/>
      </g>
      <g>
        <path d="M406.47,416.43l1.37-2a4.64,4.64,0,0,1,.79-.89,2.62,2.62,0,0,1,.86-.5,1.9,1.9,0,0,1,.91-.07,2.3,2.3,0,0,1,.94.41,2.23,2.23,0,0,1,.7.75,2,2,0,0,1,.24.89,2.67,2.67,0,0,1-.17,1,4.47,4.47,0,0,1-.56,1.05l-.87,1.24,3.24,2.26-.49.71Zm3.62,1.47.84-1.2a2.55,2.55,0,0,0,.56-1.5,1.35,1.35,0,0,0-.64-1.09,1.29,1.29,0,0,0-1.26-.21,2.72,2.72,0,0,0-1.18,1l-.84,1.2Z"/>
        <path d="M418.34,414.27l-.47.67-7.44-5.19.47-.67Z"/>
        <path d="M419.11,406.83a1.41,1.41,0,0,0-1.11-.31,1.58,1.58,0,0,0-.93.71,2.43,2.43,0,0,0-.39.87,2.25,2.25,0,0,0,0,.88l-.7.06A2.72,2.72,0,0,1,416,408a3.46,3.46,0,0,1,.55-1.19,2.81,2.81,0,0,1,.59-.63,2,2,0,0,1,.71-.36,1.72,1.72,0,0,1,.79,0,2.24,2.24,0,0,1,.83.38l2,1.41.56.37a4.81,4.81,0,0,0,.52.28l-.42.6-.4-.21-.4-.25v0a2.38,2.38,0,0,1,.17,1.18,2.77,2.77,0,0,1-.92,1.59,1.89,1.89,0,0,1-.6.34,1.65,1.65,0,0,1-.7.08,1.57,1.57,0,0,1-.76-.3,1.51,1.51,0,0,1-.65-.86,2,2,0,0,1,0-1,5.2,5.2,0,0,1,.53-1.17q.36-.62.8-1.25Zm.54.67c-.19.28-.37.56-.55.86a4.42,4.42,0,0,0-.39.85,1.76,1.76,0,0,0-.09.77.82.82,0,0,0,.37.58,1,1,0,0,0,.48.2.92.92,0,0,0,.45-.06,1.31,1.31,0,0,0,.39-.25,2.09,2.09,0,0,0,.32-.36,1.89,1.89,0,0,0,.32-.72,1.65,1.65,0,0,0,0-.7,1.82,1.82,0,0,0-.29-.62,2.08,2.08,0,0,0-.51-.5l-.34-.24Z"/>
        <path d="M421.53,401.08l-.91,1.3,2.69,1.88a1.86,1.86,0,0,0,.46.25.72.72,0,0,0,.36,0,.6.6,0,0,0,.28-.13,1.26,1.26,0,0,0,.23-.25,1.39,1.39,0,0,0,.16-.32,1.78,1.78,0,0,0,.09-.37l.6.38a2.47,2.47,0,0,1-.15.44,3,3,0,0,1-.26.44,2.08,2.08,0,0,1-.32.36,1.2,1.2,0,0,1-.46.25,1.23,1.23,0,0,1-.58,0,1.76,1.76,0,0,1-.7-.32l-2.87-2-.67,1-.56-.39.67-1-1.3-.91.47-.67,1.3.91.91-1.3Z"/>
        <path d="M424.09,397.41l-.91,1.3,2.69,1.88a1.84,1.84,0,0,0,.46.25.73.73,0,0,0,.36,0,.59.59,0,0,0,.28-.13,1.29,1.29,0,0,0,.23-.25,1.43,1.43,0,0,0,.16-.32,1.8,1.8,0,0,0,.09-.37l.6.38a2.55,2.55,0,0,1-.16.44,3,3,0,0,1-.26.44,2.12,2.12,0,0,1-.33.36,1.19,1.19,0,0,1-.45.25,1.23,1.23,0,0,1-.58,0,1.76,1.76,0,0,1-.7-.32l-2.87-2-.67,1-.56-.39.67-1-1.3-.91.47-.67,1.3.91.91-1.3Z"/>
        <path d="M429.82,392.63l.15.1.16.13-2.66,3.82a2.16,2.16,0,0,0,.75.32,2,2,0,0,0,.78,0,2.06,2.06,0,0,0,.73-.28,2.14,2.14,0,0,0,1-1.63,2.19,2.19,0,0,0-.15-1l.74-.23a3,3,0,0,1,.11,1.43,3.12,3.12,0,0,1-.52,1.23,3,3,0,0,1-.84.82,2.71,2.71,0,0,1-1,.4,2.91,2.91,0,0,1-1.11,0,3.07,3.07,0,0,1-1.09-.49,3.15,3.15,0,0,1-.84-.85,2.86,2.86,0,0,1-.42-1,2.77,2.77,0,0,1,.46-2.13,2.87,2.87,0,0,1,.85-.83,2.41,2.41,0,0,1,1-.35,2.61,2.61,0,0,1,1,.09A3.31,3.31,0,0,1,429.82,392.63Zm-.69.53a2,2,0,0,0-1.37-.33,1.72,1.72,0,0,0-1.2.81,1.9,1.9,0,0,0-.31.71,2,2,0,0,0,0,.74,2,2,0,0,0,.24.68,1.9,1.9,0,0,0,.46.54Z"/>
        <path d="M438.62,385.22l-.5.71-7-4.86,1.43-2a5.25,5.25,0,0,1,.76-.88,2.62,2.62,0,0,1,.85-.54,1.86,1.86,0,0,1,.92-.1,2.35,2.35,0,0,1,1,.43,2.07,2.07,0,0,1,.89,1.38,2.19,2.19,0,0,1,0,.82,3,3,0,0,1-.32.83l4.74.28-.6.87-4.6-.34-.82,1.18Zm-3.87-2.7.86-1.23a2.88,2.88,0,0,0,.61-1.54,1.27,1.27,0,0,0-.61-1.11,1.47,1.47,0,0,0-.67-.28,1.27,1.27,0,0,0-.63.09,2,2,0,0,0-.6.4,4.17,4.17,0,0,0-.57.67l-.88,1.26Z"/>
        <path d="M436.87,374.14a.54.54,0,0,1,.24.38.57.57,0,0,1-.46.65.57.57,0,0,1-.68-.47.57.57,0,0,1,.45-.65A.54.54,0,0,1,436.87,374.14Zm6.28,4.59-.47.67-4.61-3.21.47-.67Z"/>
        <path d="M446.18,374.39l-.51.74-5.92-1.33.52-.75,4.94,1.22v0L442.38,370l.5-.72Z"/>
        <path d="M449.16,364.91l.15.1.16.13L446.81,369a2.16,2.16,0,0,0,.75.31,2,2,0,0,0,.78,0,2.08,2.08,0,0,0,.73-.28,2,2,0,0,0,.59-.57,2,2,0,0,0,.39-1.07,2.2,2.2,0,0,0-.16-1l.75-.23a3.05,3.05,0,0,1,.11,1.43,3.11,3.11,0,0,1-.52,1.23,3,3,0,0,1-.84.82,2.69,2.69,0,0,1-1,.4,2.92,2.92,0,0,1-1.11,0,3.07,3.07,0,0,1-1.09-.49,3.17,3.17,0,0,1-.84-.85,2.86,2.86,0,0,1-.42-1,2.76,2.76,0,0,1,.46-2.13,2.88,2.88,0,0,1,.85-.83,2.4,2.4,0,0,1,1-.35,2.59,2.59,0,0,1,1,.09A3.26,3.26,0,0,1,449.16,364.91Zm-.69.53a2,2,0,0,0-1.37-.33,1.72,1.72,0,0,0-1.2.81,1.9,1.9,0,0,0-.31.71,2,2,0,0,0,0,.74,2.05,2.05,0,0,0,.24.68,1.89,1.89,0,0,0,.46.54Z"/>
        <path d="M449,361.67l-.55-.34.45-.64.43.26.38.25v0a2,2,0,0,1,.13-2.11l.17-.22a1.49,1.49,0,0,1,.19-.18l.58.54-.18.17a2.38,2.38,0,0,0-.21.26,1.67,1.67,0,0,0-.26.58,1.35,1.35,0,0,0,0,.64,2,2,0,0,0,.33.67,3,3,0,0,0,.71.66l2.36,1.64-.47.67L449.48,362Z"/>
      </g>
      <polygon class="lower-highland-cls-3" points="191.51 213.5 228.84 213.5 229.51 228.5 192.51 228.5 191.51 213.5"/>
      <polygon class="lower-highland-cls-3" points="337.96 213.5 338.51 227.5 229.51 228.5 228.51 213.5 337.96 213.5"/>
      <polygon class="lower-highland-cls-3" points="192.51 228.5 192.51 243.5 228.51 243.5 229.51 228.5 192.51 228.5"/>
      <polygon class="lower-highland-cls-3" points="338.51 243.5 338.51 227.5 229.51 228.5 228.51 243.5 338.51 243.5"/>
    </g>
  </g>
</svg>
