<svg xmlns="http://www.w3.org/2000/svg" viewBox="0 0 986 719">
  <defs>
    <style>
      .cls-1 {
        fill: none;
      }

      .cls-1, .cls-2, .cls-3, .cls-4 {
        stroke: #000;
        stroke-miterlimit: 10;
        stroke-width: 2px;
      }

      .cls-2 {
        fill: #a0c4d0;
      }

      .cls-3 {
        fill: #769e6c;
      }

      .cls-4 {
        fill: #619cb0;
      }
    </style>
  </defs>
  <title>Asset 6</title>
  <g id="Layer_2" data-name="Layer 2">
    <g id="SloansLake">
      <path class="cls-1" d="M818.38,495.84V553h.16Z"/>
      <polygon class="cls-2" points="985 662.5 985 718 819 718 818.85 662.5 985 662.5"/>
      <polygon class="cls-2" points="819 718 1 718 1 662.5 818.85 662.5 819 718"/>
      <polygon class="cls-2" points="985 553 985 662.5 818.85 662.5 818.54 553 985 553"/>
      <polygon class="cls-2" points="985 334 985 553 818.54 553 818.38 495.84 818.38 495.5 817.93 334 985 334"/>
      <polygon class="cls-2" points="985 165.33 985 334 817.93 334 817.46 165.33 985 165.33"/>
      <polygon class="cls-2" points="985 1 985 165.33 817.46 165.33 817 1.34 985 1"/>
      <polygon class="cls-2" points="817.46 165.33 656.15 165.33 656 1.67 817 1.34 817.46 165.33"/>
      <path class="cls-2" d="M656,1.67,490,2V165.33H656.15ZM602,34H563l.5-32H602Z"/>
      <polygon class="cls-2" points="492 498 451 498 424 485 396 485 379 474 366 458 366 334 491.01 334 492 498"/>
      <polygon class="cls-2" points="490 2.01 490 165.33 326.33 165.33 326.33 2.34 490 2.01"/>
      <polygon class="cls-2" points="256 165.33 256 246 1 245.52 1 165.33 256 165.33"/>
      <polygon class="cls-2" points="326.33 2.34 326.33 165.33 1 165.33 1 3 326.33 2.34"/>
      <path class="cls-3" d="M574,553V498H451l-27-13H396l-17-11-13-16V165.33H256V246L1,245.52v417H618V553Zm-1,80-12,15-40,6-28-14-34-10-38-4-35,5L280,570l-19-23H244l-13,15-2,13-15,23-56,20-44,9L49,565,27,520,17,406l10-47,2-25,8-30,12-5,16-8,71,17,42-9,17,9h19l15,9h18l1-8-11-5-23-5-11-8V272l20-5h33l10,10,20,15,14,12,55,128-5,22-14,18,14,13h16l42,8,51,21,50,22,43,37,14,8,12,34Z"/>
      <polygon class="cls-2" points="656.3 334 491.01 334 490 165.33 656.15 165.33 656.3 334"/>
      <polygon class="cls-2" points="818.85 662.5 618 662.5 618 553 818.54 553 818.85 662.5"/>
      <polygon class="cls-2" points="656.5 553 574 553 574 498 492 498 491.01 334 656.3 334 656.5 553"/>
      <polygon class="cls-2" points="817.93 334 656.3 334 656.15 165.33 817.46 165.33 817.93 334"/>
      <polygon class="cls-2" points="818.38 495.5 763 496 763 553 656.5 553 656.3 334 817.93 334 818.38 495.5"/>
      <polygon class="cls-2" points="491.01 334 366 334 366 165.33 490 165.33 491.01 334"/>
      <line class="cls-1" x1="492" y1="498.25" x2="492" y2="498"/>
      <path class="cls-4" d="M566,581l-14-8-43-37-50-22-51-21-42-8H350l-14-13,14-18,5-22L300,304l-14-12-20-15-10-10H223l-20,5v19l11,8,23,5,11,5-1,8H229l-15-9H195l-17-9-42,9L65,291l-16,8-12,5-8,30-2,25L17,406,27,520l22,45,65,62,44-9,56-20,15-23,2-13,13-15h17l19,23,106,61,35-5,38,4,34,10,28,14,40-6,12-15,5-18ZM319,505l-22,17H284l7-24,16-21h12Z"/>
      <polygon class="cls-3" points="319 477 319 505 297 522 284 522 291 498 307 477 319 477"/>
      <polygon class="cls-3" points="818.38 495.5 818.38 553 763 553 763 496 818.38 495.5"/>
      <polygon class="cls-3" points="602 2.01 602 34 563 34 563.5 2.01 602 2.01"/>
      <line class="cls-1" x1="492" y1="718" x2="492" y2="662.5"/>
      <line class="cls-1" x1="656.5" y1="718" x2="656.5" y2="662.5"/>
      <g>
        <path d="M54.66,25h-9V23.5l5.8-5.86q.32-.32.63-.69a6.07,6.07,0,0,0,.55-.77,3.91,3.91,0,0,0,.38-.85,3.13,3.13,0,0,0,.14-.93,2.76,2.76,0,0,0-.22-1.12,2.46,2.46,0,0,0-.61-.85,2.83,2.83,0,0,0-.9-.54,3.06,3.06,0,0,0-1.07-.19,2.75,2.75,0,0,0-1.92.71,3.24,3.24,0,0,0-1,1.81L46,13.94a4.1,4.1,0,0,1,.53-1.38,4.24,4.24,0,0,1,1-1.1,4.42,4.42,0,0,1,1.29-.72,4.55,4.55,0,0,1,1.56-.26,5.23,5.23,0,0,1,1.63.25,3.9,3.9,0,0,1,1.34.74,3.59,3.59,0,0,1,.92,1.22,3.9,3.9,0,0,1,.35,1.69,4,4,0,0,1-.19,1.26,5.38,5.38,0,0,1-.5,1.1,6.36,6.36,0,0,1-.73,1q-.42.47-.88.93l-5.1,5.06h7.5Z"/>
        <path d="M65.18,18.82l0,0a2.48,2.48,0,0,1-.9.38,4.75,4.75,0,0,1-1.12.14A4.52,4.52,0,0,1,61.41,19,4.16,4.16,0,0,1,60,18.09a4,4,0,0,1-.91-1.38,4.63,4.63,0,0,1-.33-1.77,4.74,4.74,0,0,1,.34-1.81,4,4,0,0,1,1-1.41,4.56,4.56,0,0,1,1.46-.91,5.31,5.31,0,0,1,3.68,0,4.55,4.55,0,0,1,1.46.91,4,4,0,0,1,1,1.41A4.74,4.74,0,0,1,68,14.94a5.38,5.38,0,0,1-.38,2,12.58,12.58,0,0,1-.9,1.8L62.86,25H61.2Zm1.38-3.88a3.55,3.55,0,0,0-.23-1.28,3,3,0,0,0-.65-1,3.11,3.11,0,0,0-1-.68,3.4,3.4,0,0,0-2.56,0,3.11,3.11,0,0,0-1,.68,3,3,0,0,0-.65,1,3.55,3.55,0,0,0-.23,1.28,3.59,3.59,0,0,0,.22,1.27,3,3,0,0,0,.63,1,2.84,2.84,0,0,0,1,.67,3.71,3.71,0,0,0,2.62,0,2.86,2.86,0,0,0,1-.67,3,3,0,0,0,.63-1A3.61,3.61,0,0,0,66.56,14.94Z"/>
        <path d="M76.54,16.78H73.9v5.46a3.07,3.07,0,0,0,.1.86,1.22,1.22,0,0,0,.29.53,1,1,0,0,0,.45.26,2.14,2.14,0,0,0,.56.07,2.35,2.35,0,0,0,.59-.08,2.93,2.93,0,0,0,.59-.22l.06,1.18a4,4,0,0,1-.75.21,4.79,4.79,0,0,1-.85.07,3.42,3.42,0,0,1-.8-.1,2,2,0,0,1-.78-.38,2.07,2.07,0,0,1-.59-.76,2.94,2.94,0,0,1-.23-1.26V16.78H70.6V15.64h1.94V13H73.9v2.64h2.64Z"/>
        <path d="M81.46,17.18a2.82,2.82,0,0,1,1.26-1.3,3.86,3.86,0,0,1,1.88-.48,3.29,3.29,0,0,1,2.67,1.06,4.21,4.21,0,0,1,.89,2.8V25H86.8V19.82a6.85,6.85,0,0,0-.12-1.34,2.81,2.81,0,0,0-.41-1,2,2,0,0,0-.78-.67,2.78,2.78,0,0,0-1.23-.24,2.63,2.63,0,0,0-1,.22,2.59,2.59,0,0,0-.91.67,3.35,3.35,0,0,0-.64,1.14,5,5,0,0,0-.24,1.63V25H80.06V9.88h1.36v7.3Z"/>
        <path d="M105.38,25H103.8l6.12-14.16h1.4L117.4,25h-1.6l-1.56-3.72h-7.32Zm2.08-5h6.24l-3.12-7.52Z"/>
        <path d="M124.48,25H123l-3.82-9.36h1.52l3,7.92h0l3.06-7.92h1.46Z"/>
        <path d="M140.28,20v.3a3,3,0,0,1,0,.34H132.5a3.63,3.63,0,0,0,.28,1.32,3.33,3.33,0,0,0,.72,1.08,3.47,3.47,0,0,0,1.08.73,3.57,3.57,0,0,0,3.17-.22,3.66,3.66,0,0,0,1.17-1.13l1,.8a5.08,5.08,0,0,1-1.85,1.52,5.17,5.17,0,0,1-2.17.46,5,5,0,0,1-1.93-.37,4.52,4.52,0,0,1-1.53-1,4.86,4.86,0,0,1-1-1.56,5.1,5.1,0,0,1-.37-2,5.22,5.22,0,0,1,.36-2,4.72,4.72,0,0,1,1-1.56,4.59,4.59,0,0,1,1.5-1,4.66,4.66,0,0,1,1.86-.37,4.79,4.79,0,0,1,1.94.37,4,4,0,0,1,1.4,1,4.31,4.31,0,0,1,.85,1.47A5.5,5.5,0,0,1,140.28,20Zm-1.38-.44a3.38,3.38,0,0,0-.85-2.19,2.88,2.88,0,0,0-2.25-.87,3.14,3.14,0,0,0-1.26.25,3.36,3.36,0,0,0-1.72,1.66,3.16,3.16,0,0,0-.3,1.15Z"/>
      </g>
      <g>
        <path d="M47.11,152.53h-9V151l5.8-5.86q.32-.32.63-.69a6.07,6.07,0,0,0,.55-.77,3.91,3.91,0,0,0,.38-.85,3.13,3.13,0,0,0,.14-.93,2.76,2.76,0,0,0-.22-1.12,2.46,2.46,0,0,0-.61-.85,2.83,2.83,0,0,0-.9-.54,3.06,3.06,0,0,0-1.07-.19,2.75,2.75,0,0,0-1.92.71,3.24,3.24,0,0,0-1,1.81l-1.42-.28a4.1,4.1,0,0,1,.53-1.38,4.24,4.24,0,0,1,1-1.1,4.42,4.42,0,0,1,1.29-.72,4.55,4.55,0,0,1,1.56-.26,5.23,5.23,0,0,1,1.63.25,3.9,3.9,0,0,1,1.34.74,3.59,3.59,0,0,1,.92,1.22,3.9,3.9,0,0,1,.35,1.69,4,4,0,0,1-.19,1.26,5.38,5.38,0,0,1-.5,1.1,6.36,6.36,0,0,1-.73,1q-.42.47-.88.93l-5.1,5.06h7.5Z"/>
        <path d="M54,144.55l0,0a2.5,2.5,0,0,1,.9-.38,4.8,4.8,0,0,1,1.12-.14,4.5,4.5,0,0,1,1.71.32,4.16,4.16,0,0,1,1.37.89,4.06,4.06,0,0,1,.91,1.38,4.65,4.65,0,0,1,.33,1.77,4.71,4.71,0,0,1-.34,1.82,4,4,0,0,1-1,1.4,4.55,4.55,0,0,1-1.46.91,5.29,5.29,0,0,1-3.68,0,4.56,4.56,0,0,1-1.46-.91,4,4,0,0,1-1-1.4,4.71,4.71,0,0,1-.34-1.82,5.38,5.38,0,0,1,.38-2,12.5,12.5,0,0,1,.9-1.8l3.86-6.22H58Zm-1.38,3.88a3.52,3.52,0,0,0,.23,1.29,3,3,0,0,0,.65,1,3.08,3.08,0,0,0,1,.68,3.4,3.4,0,0,0,2.56,0,3.08,3.08,0,0,0,1-.68,3,3,0,0,0,.65-1,3.54,3.54,0,0,0,.23-1.29,3.61,3.61,0,0,0-.22-1.27,3,3,0,0,0-.63-1,2.83,2.83,0,0,0-1-.67,3.69,3.69,0,0,0-2.62,0,2.81,2.81,0,0,0-1,.67,3,3,0,0,0-.63,1A3.59,3.59,0,0,0,52.65,148.43Z"/>
        <path d="M69,144.31H66.35v5.46a3.07,3.07,0,0,0,.1.86,1.22,1.22,0,0,0,.29.53,1,1,0,0,0,.45.26,2.14,2.14,0,0,0,.56.07,2.35,2.35,0,0,0,.59-.08,2.93,2.93,0,0,0,.59-.22l.06,1.18a4,4,0,0,1-.75.21,4.79,4.79,0,0,1-.85.07,3.42,3.42,0,0,1-.8-.1,2,2,0,0,1-.78-.38,2.07,2.07,0,0,1-.59-.76,2.94,2.94,0,0,1-.23-1.26v-5.84H63.05v-1.14H65v-2.64h1.36v2.64H69Z"/>
        <path d="M73.91,144.71a2.82,2.82,0,0,1,1.26-1.3,3.86,3.86,0,0,1,1.88-.48A3.29,3.29,0,0,1,79.72,144a4.21,4.21,0,0,1,.89,2.8v5.74H79.25v-5.18a6.85,6.85,0,0,0-.12-1.34,2.81,2.81,0,0,0-.41-1,2,2,0,0,0-.78-.67,2.78,2.78,0,0,0-1.23-.24,2.63,2.63,0,0,0-1,.22,2.59,2.59,0,0,0-.91.67,3.35,3.35,0,0,0-.64,1.14,5,5,0,0,0-.24,1.63v4.8H72.51V137.41h1.36v7.3Z"/>
        <path d="M97.83,152.53H96.25l6.12-14.16h1.4l6.08,14.16h-1.6l-1.56-3.72H99.37Zm2.08-5h6.24L103,140Z"/>
        <path d="M116.93,152.53h-1.5l-3.82-9.36h1.52l3,7.92h0l3.06-7.92h1.46Z"/>
        <path d="M132.73,147.57v.3a3,3,0,0,1,0,.34H125a3.63,3.63,0,0,0,.28,1.32,3.33,3.33,0,0,0,.72,1.08,3.47,3.47,0,0,0,1.08.73,3.57,3.57,0,0,0,3.17-.22,3.66,3.66,0,0,0,1.17-1.13l1,.8a5.08,5.08,0,0,1-1.85,1.52,5.17,5.17,0,0,1-2.17.46,5,5,0,0,1-1.93-.37,4.52,4.52,0,0,1-1.53-1,4.86,4.86,0,0,1-1-1.56,5.1,5.1,0,0,1-.37-2,5.22,5.22,0,0,1,.36-2,4.72,4.72,0,0,1,1-1.56,4.59,4.59,0,0,1,1.5-1,4.66,4.66,0,0,1,1.86-.37,4.79,4.79,0,0,1,1.94.37,4,4,0,0,1,1.4,1,4.31,4.31,0,0,1,.85,1.47A5.5,5.5,0,0,1,132.73,147.57Zm-1.38-.44a3.38,3.38,0,0,0-.85-2.19,2.88,2.88,0,0,0-2.25-.87,3.14,3.14,0,0,0-1.26.25,3.36,3.36,0,0,0-1.72,1.66,3.16,3.16,0,0,0-.3,1.15Z"/>
      </g>
      <g>
        <path d="M43,217.86h4.22a8,8,0,0,1,1.62.17,4.41,4.41,0,0,1,1.47.58,3.2,3.2,0,0,1,1.06,1.11,3.44,3.44,0,0,1,.41,1.76,3,3,0,0,1-.68,2,3.21,3.21,0,0,1-1.83,1.09v0a3.73,3.73,0,0,1,2.29,1.07,3.34,3.34,0,0,1,.91,2.47A3.47,3.47,0,0,1,51,231a5,5,0,0,1-1.66.79,7.94,7.94,0,0,1-2.2.28H43Zm1.44,6.2h2.9a4.73,4.73,0,0,0,1-.12,2.93,2.93,0,0,0,1-.41,2.21,2.21,0,0,0,.71-.77,2.38,2.38,0,0,0,.27-1.18,2.28,2.28,0,0,0-.27-1.15,2.25,2.25,0,0,0-.73-.77,3.16,3.16,0,0,0-1.08-.43,6.4,6.4,0,0,0-1.32-.13h-2.5Zm0,6.72h2.68a7.23,7.23,0,0,0,1.49-.15,3.85,3.85,0,0,0,1.24-.48,2.57,2.57,0,0,0,.85-.86,2.74,2.74,0,0,0-.63-3.36,4.52,4.52,0,0,0-2.69-.69H44.44Z"/>
        <path d="M60.21,230.56h0l2.9-7.9h1.48L60,234.44a5,5,0,0,1-1.07,1.73,2.53,2.53,0,0,1-1.87.65,6.19,6.19,0,0,1-1.22-.12l.14-1.24a3.15,3.15,0,0,0,1,.16,1.43,1.43,0,0,0,1.1-.43,3.71,3.71,0,0,0,.7-1.23l.76-2-4-9.34H57Z"/>
        <path d="M68.09,223.74q0-.6-.06-1.08h1.3c0,.25,0,.53.06.84s0,.56,0,.76h0a3.24,3.24,0,0,1,1.2-1.33,3.28,3.28,0,0,1,1.8-.51l.47,0a2.59,2.59,0,0,1,.43.08l-.18,1.3a2.69,2.69,0,0,0-.4-.08,4,4,0,0,0-.56,0,2.76,2.76,0,0,0-1,.2,2.23,2.23,0,0,0-.87.63,3.31,3.31,0,0,0-.6,1.1,5,5,0,0,0-.23,1.61V232H68.11v-7.3Q68.11,224.34,68.09,223.74Z"/>
        <path d="M85.61,227.34a5.12,5.12,0,0,1-.37,2,4.73,4.73,0,0,1-1,1.56,4.67,4.67,0,0,1-1.58,1,5.38,5.38,0,0,1-2,.37,5.32,5.32,0,0,1-2-.37A4.62,4.62,0,0,1,76,229.3a5.37,5.37,0,0,1,0-3.92,4.61,4.61,0,0,1,2.61-2.59,5.32,5.32,0,0,1,2-.37,5.38,5.38,0,0,1,2,.37,4.62,4.62,0,0,1,2.61,2.59A5.11,5.11,0,0,1,85.61,227.34Zm-1.44,0a4.3,4.3,0,0,0-.25-1.47,3.6,3.6,0,0,0-.71-1.2,3.36,3.36,0,0,0-1.12-.81,3.54,3.54,0,0,0-1.48-.3,3.46,3.46,0,0,0-1.47.3,3.38,3.38,0,0,0-1.11.81,3.6,3.6,0,0,0-.71,1.2,4.45,4.45,0,0,0,0,2.94A3.61,3.61,0,0,0,78,230a3.27,3.27,0,0,0,1.11.8,3.57,3.57,0,0,0,1.47.29,3.64,3.64,0,0,0,1.48-.29,3.25,3.25,0,0,0,1.12-.8,3.61,3.61,0,0,0,.71-1.2A4.3,4.3,0,0,0,84.17,227.34Z"/>
        <path d="M91.11,222.66c0,.25,0,.53.06.84s0,.56,0,.76h0a3.08,3.08,0,0,1,1.3-1.33,3.79,3.79,0,0,1,1.9-.51,3.29,3.29,0,0,1,2.67,1.06,4.21,4.21,0,0,1,.89,2.8V232H96.63v-5.18a6.85,6.85,0,0,0-.12-1.34,2.81,2.81,0,0,0-.41-1,2,2,0,0,0-.78-.67,2.79,2.79,0,0,0-1.23-.24,2.63,2.63,0,0,0-1,.22,2.59,2.59,0,0,0-.91.67,3.35,3.35,0,0,0-.64,1.14,5,5,0,0,0-.24,1.63V232H89.89v-7.3q0-.38,0-1t-.06-1.08Z"/>
        <path d="M115.67,217.86h4a7.75,7.75,0,0,1,2,.23,4.33,4.33,0,0,1,1.51.7,3.16,3.16,0,0,1,1,1.18,3.83,3.83,0,0,1,.34,1.67,3.74,3.74,0,0,1-.35,1.67,3.23,3.23,0,0,1-1,1.18,4.45,4.45,0,0,1-1.52.71,7.55,7.55,0,0,1-2,.24h-2.52V232h-1.44Zm1.44,6.36h2.44a4.25,4.25,0,0,0,2.58-.66,2.25,2.25,0,0,0,.88-1.92,2.15,2.15,0,0,0-.91-1.93,4.54,4.54,0,0,0-2.55-.61h-2.44Z"/>
        <path d="M130,232h-1.36V216.9H130Z"/>
      </g>
      <g>
        <path d="M31.72,685.5H30.28V673.12l-2.56,2.18-.88-1,3.6-3h1.28Z"/>
        <path d="M47.48,672.66l-5.7,12.84H40.16L46,672.62H39.08v-1.28h8.4Z"/>
        <path d="M56.5,677.28H53.86v5.46a3.07,3.07,0,0,0,.1.86,1.22,1.22,0,0,0,.29.53,1,1,0,0,0,.45.26,2.14,2.14,0,0,0,.56.07,2.35,2.35,0,0,0,.59-.08,2.93,2.93,0,0,0,.59-.22l.06,1.18a4,4,0,0,1-.75.21,4.79,4.79,0,0,1-.85.07,3.42,3.42,0,0,1-.8-.1,2,2,0,0,1-.78-.38,2.07,2.07,0,0,1-.59-.76,2.94,2.94,0,0,1-.23-1.26v-5.84H50.56v-1.14H52.5V673.5h1.36v2.64H56.5Z"/>
        <path d="M61.42,677.68a2.82,2.82,0,0,1,1.26-1.3,3.86,3.86,0,0,1,1.88-.48A3.29,3.29,0,0,1,67.22,677a4.21,4.21,0,0,1,.89,2.8v5.74H66.75v-5.18a6.85,6.85,0,0,0-.12-1.34,2.81,2.81,0,0,0-.41-1,2,2,0,0,0-.78-.67,2.78,2.78,0,0,0-1.23-.24,2.63,2.63,0,0,0-1,.22,2.59,2.59,0,0,0-.91.67,3.35,3.35,0,0,0-.64,1.14,5,5,0,0,0-.24,1.63v4.8H60V670.38h1.36v7.3Z"/>
        <path d="M85.33,685.5H83.75l6.12-14.16h1.4l6.08,14.16h-1.6l-1.56-3.72H86.88Zm2.08-5h6.24l-3.12-7.52Z"/>
        <path d="M104.43,685.5h-1.5l-3.82-9.36h1.52l3,7.92h0l3.06-7.92h1.46Z"/>
        <path d="M120.24,680.54v.3a3,3,0,0,1,0,.34h-7.76a3.63,3.63,0,0,0,.28,1.32,3.33,3.33,0,0,0,.72,1.08,3.47,3.47,0,0,0,1.08.73,3.57,3.57,0,0,0,3.17-.22,3.66,3.66,0,0,0,1.17-1.13l1,.8a5.08,5.08,0,0,1-1.85,1.52,5.17,5.17,0,0,1-2.17.46,5,5,0,0,1-1.93-.37,4.52,4.52,0,0,1-1.53-1,4.86,4.86,0,0,1-1-1.56,5.1,5.1,0,0,1-.37-2,5.22,5.22,0,0,1,.36-2,4.72,4.72,0,0,1,1-1.56,4.59,4.59,0,0,1,1.5-1,4.66,4.66,0,0,1,1.86-.37,4.79,4.79,0,0,1,1.94.37,4,4,0,0,1,1.4,1,4.31,4.31,0,0,1,.85,1.47A5.5,5.5,0,0,1,120.24,680.54Zm-1.38-.44a3.38,3.38,0,0,0-.85-2.19,2.88,2.88,0,0,0-2.25-.87,3.14,3.14,0,0,0-1.26.25,3.36,3.36,0,0,0-1.72,1.66,3.16,3.16,0,0,0-.3,1.15Z"/>
      </g>
      <g>
        <path d="M392.81,324.52h-9V323l5.8-5.86q.32-.32.63-.69a6.07,6.07,0,0,0,.55-.77,3.91,3.91,0,0,0,.38-.85,3.13,3.13,0,0,0,.14-.93,2.76,2.76,0,0,0-.22-1.12,2.46,2.46,0,0,0-.61-.85,2.83,2.83,0,0,0-.9-.54,3.06,3.06,0,0,0-1.07-.19,2.75,2.75,0,0,0-1.92.71,3.24,3.24,0,0,0-1,1.81l-1.42-.28a4.1,4.1,0,0,1,.53-1.38,4.24,4.24,0,0,1,1-1.1,4.42,4.42,0,0,1,1.29-.72,4.55,4.55,0,0,1,1.56-.26,5.23,5.23,0,0,1,1.63.25,3.9,3.9,0,0,1,1.34.74,3.59,3.59,0,0,1,.92,1.22,3.9,3.9,0,0,1,.35,1.69,4,4,0,0,1-.19,1.26,5.38,5.38,0,0,1-.5,1.1,6.36,6.36,0,0,1-.73,1q-.42.47-.88.93l-5.1,5.06h7.5Z"/>
        <path d="M400,316.48h.62a5.64,5.64,0,0,0,1.28-.14,3.06,3.06,0,0,0,1.05-.45,2.2,2.2,0,0,0,.71-.81,2.57,2.57,0,0,0,.26-1.2,2.64,2.64,0,0,0-.22-1.09,2.5,2.5,0,0,0-.61-.84,2.82,2.82,0,0,0-.9-.54,3.05,3.05,0,0,0-1.07-.19,2.88,2.88,0,0,0-2.7,1.66l-1.22-.64a4.3,4.3,0,0,1,1.68-1.69,4.8,4.8,0,0,1,2.32-.55,5,5,0,0,1,1.59.25,4,4,0,0,1,1.33.73,3.45,3.45,0,0,1,.91,1.19,3.79,3.79,0,0,1,.33,1.63,3.21,3.21,0,0,1-.7,2.11,3.33,3.33,0,0,1-1.76,1.13v0a3.67,3.67,0,0,1,2,1.17,3.4,3.4,0,0,1,.81,2.35,4.23,4.23,0,0,1-.37,1.81,4.09,4.09,0,0,1-1,1.34,4.31,4.31,0,0,1-1.45.84,5.29,5.29,0,0,1-1.75.29,4.9,4.9,0,0,1-2.72-.75,4.67,4.67,0,0,1-1.76-2.15l1.36-.5a3.12,3.12,0,0,0,1.2,1.59,3.46,3.46,0,0,0,3.09.36,3,3,0,0,0,1-.6,2.93,2.93,0,0,0,.69-.95,3,3,0,0,0,.26-1.28,2.71,2.71,0,0,0-.31-1.35,2.53,2.53,0,0,0-.83-.89,3.61,3.61,0,0,0-1.18-.49,6.14,6.14,0,0,0-1.36-.15H400Z"/>
        <path d="M410.45,316.24q0-.6-.06-1.08h1.3c0,.25,0,.53.06.84s0,.56,0,.76h0a3.24,3.24,0,0,1,1.2-1.33,3.28,3.28,0,0,1,1.8-.51l.47,0a2.59,2.59,0,0,1,.43.08l-.18,1.3a2.69,2.69,0,0,0-.4-.08,4,4,0,0,0-.56,0,2.76,2.76,0,0,0-1,.2,2.23,2.23,0,0,0-.87.63,3.31,3.31,0,0,0-.6,1.1,5,5,0,0,0-.23,1.61v4.79h-1.36v-7.3Q410.47,316.84,410.45,316.24Z"/>
        <path d="M426.37,322.94a3.85,3.85,0,0,1-1.56,1.36,4.54,4.54,0,0,1-2,.46,5,5,0,0,1-2-.38,4.55,4.55,0,0,1-1.52-1,4.7,4.7,0,0,1-1-1.56,5.56,5.56,0,0,1,0-3.88,4.7,4.7,0,0,1,1-1.56,4.52,4.52,0,0,1,1.52-1,5,5,0,0,1,2-.38,4.46,4.46,0,0,1,2,.47,3.87,3.87,0,0,1,1.56,1.39h0V309.4h1.36v15.12h-1.36v-1.58Zm-6.94-3.1a4.44,4.44,0,0,0,.24,1.47,3.56,3.56,0,0,0,.69,1.2,3.15,3.15,0,0,0,1.11.8,3.7,3.7,0,0,0,1.5.29,3.51,3.51,0,0,0,3.33-2.27,4.24,4.24,0,0,0,0-3,3.68,3.68,0,0,0-.75-1.2,3.45,3.45,0,0,0-1.14-.8,3.54,3.54,0,0,0-1.44-.29,3.59,3.59,0,0,0-1.5.3,3.25,3.25,0,0,0-1.11.81,3.56,3.56,0,0,0-.69,1.2A4.44,4.44,0,0,0,419.43,319.84Z"/>
        <path d="M445.11,324.52h-1.58l6.12-14.16H451l6.08,14.16h-1.6L454,320.8h-7.32Zm2.08-5h6.24L450.31,312Z"/>
        <path d="M464.21,324.52h-1.5l-3.82-9.36h1.52l3,7.92h0l3.06-7.92H468Z"/>
        <path d="M480,319.56v.3a3,3,0,0,1,0,.34h-7.76a3.63,3.63,0,0,0,.28,1.32,3.33,3.33,0,0,0,.72,1.08,3.47,3.47,0,0,0,1.08.73,3.57,3.57,0,0,0,3.17-.22,3.66,3.66,0,0,0,1.17-1.13l1,.8a5.08,5.08,0,0,1-1.85,1.52,5.17,5.17,0,0,1-2.17.46,5,5,0,0,1-1.93-.37,4.52,4.52,0,0,1-1.53-1,4.86,4.86,0,0,1-1-1.56,5.1,5.1,0,0,1-.37-2,5.22,5.22,0,0,1,.36-2,4.72,4.72,0,0,1,1-1.56,4.59,4.59,0,0,1,1.5-1,4.66,4.66,0,0,1,1.86-.37,4.79,4.79,0,0,1,1.94.37,4,4,0,0,1,1.4,1,4.31,4.31,0,0,1,.85,1.47A5.5,5.5,0,0,1,480,319.56Zm-1.38-.44a3.38,3.38,0,0,0-.85-2.19,2.88,2.88,0,0,0-2.25-.87,3.14,3.14,0,0,0-1.26.25,3.36,3.36,0,0,0-1.72,1.66,3.16,3.16,0,0,0-.3,1.15Z"/>
      </g>
      <g>
        <path d="M667.18,544h-1.44V531.63l-2.56,2.18-.88-1,3.6-3h1.28Z"/>
        <path d="M680.6,537.83l0,0a2.48,2.48,0,0,1-.9.38,4.75,4.75,0,0,1-1.12.14,4.52,4.52,0,0,1-1.71-.32,4.16,4.16,0,0,1-1.37-.89,4,4,0,0,1-.91-1.38,4.63,4.63,0,0,1-.33-1.77,4.74,4.74,0,0,1,.34-1.81,4,4,0,0,1,1-1.41,4.56,4.56,0,0,1,1.46-.91,5.31,5.31,0,0,1,3.68,0,4.55,4.55,0,0,1,1.46.91,4,4,0,0,1,1,1.41,4.74,4.74,0,0,1,.34,1.81,5.38,5.38,0,0,1-.38,2,12.58,12.58,0,0,1-.9,1.8L678.28,544h-1.66Zm1.38-3.88a3.55,3.55,0,0,0-.23-1.28,3,3,0,0,0-.65-1,3.11,3.11,0,0,0-1-.68,3.4,3.4,0,0,0-2.56,0,3.11,3.11,0,0,0-1,.68,3,3,0,0,0-.65,1,3.55,3.55,0,0,0-.23,1.28,3.59,3.59,0,0,0,.22,1.27,3,3,0,0,0,.63,1,2.84,2.84,0,0,0,1,.67,3.71,3.71,0,0,0,2.62,0,2.86,2.86,0,0,0,1-.67,3,3,0,0,0,.63-1A3.61,3.61,0,0,0,682,533.95Z"/>
        <path d="M692,535.79h-2.64v5.46a3.07,3.07,0,0,0,.1.86,1.22,1.22,0,0,0,.29.53,1,1,0,0,0,.45.26,2.14,2.14,0,0,0,.56.07,2.35,2.35,0,0,0,.59-.08,2.93,2.93,0,0,0,.59-.22l.06,1.18a4,4,0,0,1-.75.21,4.79,4.79,0,0,1-.85.07,3.42,3.42,0,0,1-.8-.1,2,2,0,0,1-.78-.38,2.07,2.07,0,0,1-.59-.76,2.94,2.94,0,0,1-.23-1.26v-5.84H686v-1.14H688V532h1.36v2.64H692Z"/>
        <path d="M696.88,536.19a2.82,2.82,0,0,1,1.26-1.3,3.86,3.86,0,0,1,1.88-.48,3.29,3.29,0,0,1,2.67,1.06,4.21,4.21,0,0,1,.89,2.8V544h-1.36v-5.18a6.85,6.85,0,0,0-.12-1.34,2.81,2.81,0,0,0-.41-1,2,2,0,0,0-.78-.67,2.78,2.78,0,0,0-1.23-.24,2.63,2.63,0,0,0-1,.22,2.59,2.59,0,0,0-.91.67,3.35,3.35,0,0,0-.64,1.14,5,5,0,0,0-.24,1.63V544h-1.36V528.89h1.36v7.3Z"/>
        <path d="M720.8,544h-1.58l6.12-14.16h1.4L732.82,544h-1.6l-1.56-3.72h-7.32Zm2.08-5h6.24L726,531.45Z"/>
        <path d="M739.9,544h-1.5l-3.82-9.36h1.52l3,7.92h0l3.06-7.92h1.46Z"/>
        <path d="M755.7,539v.3a3,3,0,0,1,0,.34h-7.76a3.63,3.63,0,0,0,.28,1.32,3.33,3.33,0,0,0,.72,1.08,3.47,3.47,0,0,0,1.08.73,3.57,3.57,0,0,0,3.17-.22,3.66,3.66,0,0,0,1.17-1.13l1,.8a5.08,5.08,0,0,1-1.85,1.52,5.17,5.17,0,0,1-2.17.46,5,5,0,0,1-1.93-.37,4.52,4.52,0,0,1-1.53-1,4.86,4.86,0,0,1-1-1.56,5.1,5.1,0,0,1-.37-2,5.22,5.22,0,0,1,.36-2,4.72,4.72,0,0,1,1-1.56,4.59,4.59,0,0,1,1.5-1,4.66,4.66,0,0,1,1.86-.37,4.79,4.79,0,0,1,1.94.37,4,4,0,0,1,1.4,1,4.31,4.31,0,0,1,.85,1.47A5.5,5.5,0,0,1,755.7,539Zm-1.38-.44a3.38,3.38,0,0,0-.85-2.19,2.88,2.88,0,0,0-2.25-.87,3.14,3.14,0,0,0-1.26.25,3.36,3.36,0,0,0-1.72,1.66,3.16,3.16,0,0,0-.3,1.15Z"/>
      </g>
      <g>
        <path d="M16.06,30.49a3.45,3.45,0,0,0-1.18-1,3.61,3.61,0,0,0-1.74-.39,3.73,3.73,0,0,0-1.06.16,3.07,3.07,0,0,0-1,.49,2.52,2.52,0,0,0-.71.83,2.45,2.45,0,0,0-.27,1.18,2.19,2.19,0,0,0,.26,1.12,2.47,2.47,0,0,0,.69.75,4,4,0,0,0,1,.51l1.15.4q.74.24,1.49.52a5.36,5.36,0,0,1,1.35.73,3.54,3.54,0,0,1,1,1.14,3.6,3.6,0,0,1,.38,1.75,3.89,3.89,0,0,1-.4,1.83,3.83,3.83,0,0,1-1,1.27,4.35,4.35,0,0,1-1.48.74,6,6,0,0,1-1.67.24,6.47,6.47,0,0,1-1.28-.13,5.83,5.83,0,0,1-1.22-.39,4.93,4.93,0,0,1-1.08-.66,4.79,4.79,0,0,1-.88-.92l1.24-.92A3.8,3.8,0,0,0,10.85,41a3.65,3.65,0,0,0,2,.51,3.78,3.78,0,0,0,1.1-.17,3.09,3.09,0,0,0,1-.52,2.87,2.87,0,0,0,.74-.86,2.67,2.67,0,0,0,0-2.42,2.57,2.57,0,0,0-.77-.82,4.71,4.71,0,0,0-1.1-.55l-1.3-.44q-.7-.22-1.38-.5a4.66,4.66,0,0,1-1.22-.73A3.42,3.42,0,0,1,9,33.37,4.06,4.06,0,0,1,9.09,30a3.71,3.71,0,0,1,1.07-1.22,4.48,4.48,0,0,1,1.46-.7,6,6,0,0,1,1.58-.22,5.45,5.45,0,0,1,2.46.51,4.22,4.22,0,0,1,1.54,1.21Z"/>
        <path d="M10.37,55.91a2.82,2.82,0,0,1,1.26-1.3,3.86,3.86,0,0,1,1.88-.48,3.29,3.29,0,0,1,2.67,1.06,4.21,4.21,0,0,1,.89,2.8v5.74H15.71V58.55a6.85,6.85,0,0,0-.12-1.34,2.81,2.81,0,0,0-.41-1,2,2,0,0,0-.78-.67,2.78,2.78,0,0,0-1.23-.24,2.63,2.63,0,0,0-1,.22,2.59,2.59,0,0,0-.91.67,3.35,3.35,0,0,0-.64,1.14,5,5,0,0,0-.24,1.63v4.8H9V48.61h1.36v7.3Z"/>
        <path d="M17.56,80.13v.3a3,3,0,0,1,0,.34H9.78a3.63,3.63,0,0,0,.28,1.32,3.33,3.33,0,0,0,.72,1.08,3.47,3.47,0,0,0,1.08.73A3.57,3.57,0,0,0,15,83.68a3.66,3.66,0,0,0,1.17-1.13l1,.8a5.08,5.08,0,0,1-1.85,1.52,5.17,5.17,0,0,1-2.17.46A5,5,0,0,1,11.27,85a4.52,4.52,0,0,1-1.53-1,4.86,4.86,0,0,1-1-1.56,5.1,5.1,0,0,1-.37-2,5.22,5.22,0,0,1,.36-2,4.72,4.72,0,0,1,1-1.56,4.59,4.59,0,0,1,1.5-1,4.66,4.66,0,0,1,1.86-.37,4.79,4.79,0,0,1,1.94.37,4,4,0,0,1,1.4,1,4.31,4.31,0,0,1,.85,1.47A5.5,5.5,0,0,1,17.56,80.13Zm-1.38-.44a3.38,3.38,0,0,0-.85-2.19,2.88,2.88,0,0,0-2.25-.87,3.14,3.14,0,0,0-1.26.25,3.36,3.36,0,0,0-1.72,1.66,3.16,3.16,0,0,0-.3,1.15Z"/>
        <path d="M11.14,98.17q0-.6-.06-1.08h1.3c0,.25,0,.53.06.84s0,.56,0,.76h0a3.24,3.24,0,0,1,1.2-1.33,3.28,3.28,0,0,1,1.8-.51l.47,0a2.59,2.59,0,0,1,.43.08l-.18,1.3a2.69,2.69,0,0,0-.4-.08,4,4,0,0,0-.56,0,2.76,2.76,0,0,0-1,.2,2.23,2.23,0,0,0-.87.63,3.31,3.31,0,0,0-.6,1.1,5,5,0,0,0-.23,1.61v4.79H11.16v-7.3Q11.16,98.77,11.14,98.17Z"/>
        <path d="M13.92,114.85a.89.89,0,0,1-.3.69.94.94,0,0,1-1.32,0,.94.94,0,0,1,0-1.38.94.94,0,0,1,1.32,0A.89.89,0,0,1,13.92,114.85Zm-.28,13H12.28v-9.36h1.36Z"/>
        <path d="M16.09,147.59a3.85,3.85,0,0,1-1.56,1.36,4.54,4.54,0,0,1-2,.46,5,5,0,0,1-2-.38A4.55,4.55,0,0,1,9,148a4.7,4.7,0,0,1-1-1.56,5.56,5.56,0,0,1,0-3.88A4.7,4.7,0,0,1,9,141a4.52,4.52,0,0,1,1.52-1,5,5,0,0,1,2-.38,4.46,4.46,0,0,1,2,.47,3.87,3.87,0,0,1,1.56,1.39h0V134h1.36v15.12H16.13v-1.58Zm-6.94-3.1A4.44,4.44,0,0,0,9.39,146a3.56,3.56,0,0,0,.69,1.2,3.15,3.15,0,0,0,1.11.8,3.7,3.7,0,0,0,1.5.29A3.51,3.51,0,0,0,16,146a4.24,4.24,0,0,0,0-3,3.68,3.68,0,0,0-.75-1.2,3.45,3.45,0,0,0-1.14-.8,3.54,3.54,0,0,0-1.44-.29,3.59,3.59,0,0,0-1.5.3,3.25,3.25,0,0,0-1.11.81,3.56,3.56,0,0,0-.69,1.2A4.44,4.44,0,0,0,9.15,144.49Z"/>
        <path d="M15.32,164.47a2.35,2.35,0,0,0-.64-1.81,2.63,2.63,0,0,0-1.86-.6,4,4,0,0,0-1.56.3,3.74,3.74,0,0,0-1.22.8l-.76-.9a4.48,4.48,0,0,1,1.53-1,5.75,5.75,0,0,1,2.15-.38,4.64,4.64,0,0,1,1.42.21,3.35,3.35,0,0,1,1.16.63,2.86,2.86,0,0,1,.78,1.06,3.72,3.72,0,0,1,.28,1.5v4.1c0,.36,0,.73,0,1.12a8.09,8.09,0,0,0,.12,1H15.54c0-.23-.07-.47-.1-.74a7.63,7.63,0,0,1,0-.78h0a4,4,0,0,1-1.45,1.35,4.28,4.28,0,0,1-2,.41,4.37,4.37,0,0,1-1.11-.15,3.09,3.09,0,0,1-1-.49,2.76,2.76,0,0,1-.78-.88,2.63,2.63,0,0,1-.31-1.32,2.52,2.52,0,0,1,.55-1.72,3.31,3.31,0,0,1,1.47-.94,8.67,8.67,0,0,1,2.11-.4q1.19-.09,2.47-.09Zm-.4,1.38q-.84,0-1.69.07a7.4,7.4,0,0,0-1.54.28,2.91,2.91,0,0,0-1.13.61,1.36,1.36,0,0,0-.44,1.06,1.7,1.7,0,0,0,.19.84,1.54,1.54,0,0,0,.51.55,2.19,2.19,0,0,0,.71.3,3.53,3.53,0,0,0,.79.09,3.11,3.11,0,0,0,1.28-.25,2.72,2.72,0,0,0,.94-.68,3,3,0,0,0,.58-1,3.49,3.49,0,0,0,.2-1.18v-.7Z"/>
        <path d="M10.17,182.53c0,.25,0,.53.06.84s0,.56,0,.76h0a3.08,3.08,0,0,1,1.3-1.33,3.79,3.79,0,0,1,1.9-.51,3.29,3.29,0,0,1,2.67,1.06,4.21,4.21,0,0,1,.89,2.8v5.74H15.69v-5.18a6.85,6.85,0,0,0-.12-1.34,2.81,2.81,0,0,0-.41-1,2,2,0,0,0-.78-.67,2.79,2.79,0,0,0-1.23-.24,2.63,2.63,0,0,0-1,.22,2.59,2.59,0,0,0-.91.67,3.35,3.35,0,0,0-.64,1.14,5,5,0,0,0-.24,1.63v4.8H8.95v-7.3q0-.38,0-1t-.06-1.08Z"/>
        <path d="M8.48,211.81H12.7a8,8,0,0,1,1.62.17,4.41,4.41,0,0,1,1.47.58,3.2,3.2,0,0,1,1.06,1.11,3.44,3.44,0,0,1,.41,1.76,3,3,0,0,1-.68,2,3.21,3.21,0,0,1-1.83,1.09v0A3.73,3.73,0,0,1,17,219.58a3.34,3.34,0,0,1,.91,2.47,3.47,3.47,0,0,1-1.42,2.85,5,5,0,0,1-1.66.79,7.94,7.94,0,0,1-2.2.28H8.48ZM9.92,218h2.9a4.73,4.73,0,0,0,1-.12,2.93,2.93,0,0,0,1-.41,2.21,2.21,0,0,0,.71-.77,2.38,2.38,0,0,0,.27-1.18,2.28,2.28,0,0,0-.27-1.15,2.25,2.25,0,0,0-.73-.77,3.16,3.16,0,0,0-1.08-.43,6.4,6.4,0,0,0-1.32-.13H9.92Zm0,6.72H12.6a7.23,7.23,0,0,0,1.49-.15,3.85,3.85,0,0,0,1.24-.48,2.57,2.57,0,0,0,.85-.86,2.74,2.74,0,0,0-.63-3.36,4.52,4.52,0,0,0-2.69-.69H9.92Z"/>
        <path d="M17.95,242.65a5.12,5.12,0,0,1-.37,2,4.73,4.73,0,0,1-1,1.56,4.67,4.67,0,0,1-1.58,1,5.38,5.38,0,0,1-2,.37,5.32,5.32,0,0,1-2-.37,4.62,4.62,0,0,1-2.61-2.59,5.37,5.37,0,0,1,0-3.92,4.61,4.61,0,0,1,2.61-2.59,5.32,5.32,0,0,1,2-.37,5.38,5.38,0,0,1,2,.37,4.62,4.62,0,0,1,2.61,2.59A5.11,5.11,0,0,1,17.95,242.65Zm-1.44,0a4.3,4.3,0,0,0-.25-1.47,3.6,3.6,0,0,0-.71-1.2,3.36,3.36,0,0,0-1.12-.81,3.54,3.54,0,0,0-1.48-.3,3.46,3.46,0,0,0-1.47.3,3.38,3.38,0,0,0-1.11.81,3.6,3.6,0,0,0-.71,1.2,4.45,4.45,0,0,0,0,2.94,3.61,3.61,0,0,0,.71,1.2,3.27,3.27,0,0,0,1.11.8,3.57,3.57,0,0,0,1.47.29,3.64,3.64,0,0,0,1.48-.29,3.25,3.25,0,0,0,1.12-.8,3.61,3.61,0,0,0,.71-1.2A4.3,4.3,0,0,0,16.51,242.65Z"/>
        <path d="M15.75,268.69c0-.25,0-.53-.06-.84s0-.56,0-.76h0a3.09,3.09,0,0,1-1.3,1.33,3.8,3.8,0,0,1-1.9.51,3.29,3.29,0,0,1-2.67-1.06,4.21,4.21,0,0,1-.89-2.8v-5.74h1.36v5.18a6.85,6.85,0,0,0,.12,1.34,2.82,2.82,0,0,0,.41,1,2,2,0,0,0,.78.67,2.81,2.81,0,0,0,1.23.24,2.61,2.61,0,0,0,1-.22,2.58,2.58,0,0,0,.91-.67,3.35,3.35,0,0,0,.64-1.14,5,5,0,0,0,.24-1.63v-4.8H17v7.3c0,.25,0,.58,0,1s0,.76.06,1.08Z"/>
        <path d="M13.64,290H12.28V274.93h1.36Z"/>
        <path d="M17.56,306.45v.3a3,3,0,0,1,0,.34H9.78a3.63,3.63,0,0,0,.28,1.32,3.33,3.33,0,0,0,.72,1.08,3.47,3.47,0,0,0,1.08.73A3.57,3.57,0,0,0,15,310a3.66,3.66,0,0,0,1.17-1.13l1,.8a5.08,5.08,0,0,1-1.85,1.52,5.17,5.17,0,0,1-2.17.46,5,5,0,0,1-1.93-.37,4.52,4.52,0,0,1-1.53-1,4.86,4.86,0,0,1-1-1.56,5.1,5.1,0,0,1-.37-2,5.22,5.22,0,0,1,.36-2,4.72,4.72,0,0,1,1-1.56,4.59,4.59,0,0,1,1.5-1,4.66,4.66,0,0,1,1.86-.37,4.79,4.79,0,0,1,1.94.37,4,4,0,0,1,1.4,1,4.31,4.31,0,0,1,.85,1.47A5.5,5.5,0,0,1,17.56,306.45ZM16.18,306a3.38,3.38,0,0,0-.85-2.19,2.88,2.88,0,0,0-2.25-.87,3.14,3.14,0,0,0-1.26.25,3.36,3.36,0,0,0-1.72,1.66A3.16,3.16,0,0,0,9.8,306Z"/>
        <path d="M13.72,332.77h-1.5L8.4,323.41H9.92l3,7.92h0l3.06-7.92h1.46Z"/>
        <path d="M15.32,348.07a2.35,2.35,0,0,0-.64-1.81,2.63,2.63,0,0,0-1.86-.6,4,4,0,0,0-1.56.3,3.74,3.74,0,0,0-1.22.8l-.76-.9a4.48,4.48,0,0,1,1.53-1,5.75,5.75,0,0,1,2.15-.38,4.64,4.64,0,0,1,1.42.21,3.35,3.35,0,0,1,1.16.63,2.86,2.86,0,0,1,.78,1.06,3.72,3.72,0,0,1,.28,1.5V352c0,.36,0,.73,0,1.12a8.09,8.09,0,0,0,.12,1H15.54c0-.23-.07-.47-.1-.74a7.63,7.63,0,0,1,0-.78h0A4,4,0,0,1,13.91,354a4.28,4.28,0,0,1-2,.41,4.37,4.37,0,0,1-1.11-.15,3.09,3.09,0,0,1-1-.49,2.76,2.76,0,0,1-.78-.88,2.63,2.63,0,0,1-.31-1.32,2.52,2.52,0,0,1,.55-1.72,3.31,3.31,0,0,1,1.47-.94,8.67,8.67,0,0,1,2.11-.4q1.19-.09,2.47-.09Zm-.4,1.38q-.84,0-1.69.07a7.4,7.4,0,0,0-1.54.28,2.91,2.91,0,0,0-1.13.61,1.36,1.36,0,0,0-.44,1.06,1.7,1.7,0,0,0,.19.84,1.54,1.54,0,0,0,.51.55,2.19,2.19,0,0,0,.71.3,3.53,3.53,0,0,0,.79.09A3.11,3.11,0,0,0,13.6,353a2.72,2.72,0,0,0,.94-.68,3,3,0,0,0,.58-1,3.49,3.49,0,0,0,.2-1.18v-.7Z"/>
        <path d="M11.14,367.21q0-.6-.06-1.08h1.3c0,.25,0,.53.06.84s0,.56,0,.76h0a3.24,3.24,0,0,1,1.2-1.33,3.28,3.28,0,0,1,1.8-.51l.47,0a2.59,2.59,0,0,1,.43.08l-.18,1.3a2.69,2.69,0,0,0-.4-.08,4,4,0,0,0-.56,0,2.76,2.76,0,0,0-1,.2,2.23,2.23,0,0,0-.87.63,3.31,3.31,0,0,0-.6,1.1,5,5,0,0,0-.23,1.61v4.79H11.16v-7.3Q11.16,367.81,11.14,367.21Z"/>
        <path d="M16.09,395.27a3.85,3.85,0,0,1-1.56,1.36,4.54,4.54,0,0,1-2,.46,5,5,0,0,1-2-.38,4.55,4.55,0,0,1-1.52-1,4.7,4.7,0,0,1-1-1.56,5.56,5.56,0,0,1,0-3.88,4.7,4.7,0,0,1,1-1.56,4.52,4.52,0,0,1,1.52-1,5,5,0,0,1,2-.38,4.46,4.46,0,0,1,2,.47,3.87,3.87,0,0,1,1.56,1.39h0v-7.38h1.36v15.12H16.13v-1.58Zm-6.94-3.1a4.44,4.44,0,0,0,.24,1.47,3.56,3.56,0,0,0,.69,1.2,3.15,3.15,0,0,0,1.11.8,3.7,3.7,0,0,0,1.5.29A3.51,3.51,0,0,0,16,393.66a4.24,4.24,0,0,0,0-3,3.68,3.68,0,0,0-.75-1.2,3.45,3.45,0,0,0-1.14-.8,3.54,3.54,0,0,0-1.44-.29,3.59,3.59,0,0,0-1.5.3,3.25,3.25,0,0,0-1.11.81,3.56,3.56,0,0,0-.69,1.2A4.44,4.44,0,0,0,9.15,392.17Z"/>
      </g>
      <g>
        <path d="M963.11,87h-1.44V72.89h8.54v1.28h-7.1v4.9h6.6v1.28h-6.6Z"/>
        <path d="M970,103.45v.3a3,3,0,0,1,0,.34h-7.76a3.63,3.63,0,0,0,.28,1.32,3.33,3.33,0,0,0,.72,1.08,3.47,3.47,0,0,0,1.08.73,3.57,3.57,0,0,0,3.17-.22,3.66,3.66,0,0,0,1.17-1.13l1,.8a5.08,5.08,0,0,1-1.85,1.52,5.17,5.17,0,0,1-2.17.46,5,5,0,0,1-1.93-.37,4.52,4.52,0,0,1-1.53-1,4.86,4.86,0,0,1-1-1.56,5.1,5.1,0,0,1-.37-2,5.22,5.22,0,0,1,.36-2,4.72,4.72,0,0,1,1-1.56,4.59,4.59,0,0,1,1.5-1,4.66,4.66,0,0,1,1.86-.37,4.79,4.79,0,0,1,1.94.37,4,4,0,0,1,1.4,1,4.31,4.31,0,0,1,.85,1.47A5.5,5.5,0,0,1,970,103.45Zm-1.38-.44a3.38,3.38,0,0,0-.85-2.19,2.88,2.88,0,0,0-2.25-.87,3.14,3.14,0,0,0-1.26.25,3.36,3.36,0,0,0-1.72,1.66,3.16,3.16,0,0,0-.3,1.15Z"/>
        <path d="M968.54,128.19a3.85,3.85,0,0,1-1.56,1.36,4.54,4.54,0,0,1-2,.46,5,5,0,0,1-2-.38,4.55,4.55,0,0,1-1.52-1,4.7,4.7,0,0,1-1-1.56,5.56,5.56,0,0,1,0-3.88,4.7,4.7,0,0,1,1-1.56,4.52,4.52,0,0,1,1.52-1,5,5,0,0,1,2-.38,4.46,4.46,0,0,1,2,.47,3.87,3.87,0,0,1,1.56,1.39h0v-7.38h1.36v15.12h-1.36v-1.58Zm-6.94-3.1a4.44,4.44,0,0,0,.24,1.47,3.56,3.56,0,0,0,.69,1.2,3.15,3.15,0,0,0,1.11.8,3.7,3.7,0,0,0,1.5.29,3.51,3.51,0,0,0,3.33-2.27,4.24,4.24,0,0,0,0-3,3.68,3.68,0,0,0-.75-1.2,3.45,3.45,0,0,0-1.14-.8,3.54,3.54,0,0,0-1.44-.29,3.59,3.59,0,0,0-1.5.3,3.25,3.25,0,0,0-1.11.81,3.56,3.56,0,0,0-.69,1.2A4.44,4.44,0,0,0,961.6,125.09Z"/>
        <path d="M970,146.17v.3a3,3,0,0,1,0,.34h-7.76a3.63,3.63,0,0,0,.28,1.32,3.33,3.33,0,0,0,.72,1.08,3.47,3.47,0,0,0,1.08.73,3.57,3.57,0,0,0,3.17-.22,3.66,3.66,0,0,0,1.17-1.13l1,.8a5.08,5.08,0,0,1-1.85,1.52,5.17,5.17,0,0,1-2.17.46,5,5,0,0,1-1.93-.37,4.52,4.52,0,0,1-1.53-1,4.86,4.86,0,0,1-1-1.56,5.1,5.1,0,0,1-.37-2,5.22,5.22,0,0,1,.36-2,4.72,4.72,0,0,1,1-1.56,4.59,4.59,0,0,1,1.5-1,4.66,4.66,0,0,1,1.86-.37,4.79,4.79,0,0,1,1.94.37,4,4,0,0,1,1.4,1,4.31,4.31,0,0,1,.85,1.47A5.5,5.5,0,0,1,970,146.17Zm-1.38-.44a3.38,3.38,0,0,0-.85-2.19,2.88,2.88,0,0,0-2.25-.87,3.14,3.14,0,0,0-1.26.25,3.36,3.36,0,0,0-1.72,1.66,3.16,3.16,0,0,0-.3,1.15Z"/>
        <path d="M963.59,164.21q0-.6-.06-1.08h1.3c0,.25,0,.53.06.84s0,.56,0,.76h0a3.24,3.24,0,0,1,1.2-1.33,3.28,3.28,0,0,1,1.8-.51l.47,0a2.59,2.59,0,0,1,.43.08l-.18,1.3a2.69,2.69,0,0,0-.4-.08,4,4,0,0,0-.56,0,2.76,2.76,0,0,0-1,.2,2.23,2.23,0,0,0-.87.63,3.31,3.31,0,0,0-.6,1.1,5,5,0,0,0-.23,1.61v4.79h-1.36v-7.3Q963.61,164.81,963.59,164.21Z"/>
        <path d="M967.77,187.79a2.35,2.35,0,0,0-.64-1.81,2.63,2.63,0,0,0-1.86-.6,4,4,0,0,0-1.56.3,3.74,3.74,0,0,0-1.22.8l-.76-.9a4.48,4.48,0,0,1,1.53-1,5.75,5.75,0,0,1,2.15-.38,4.64,4.64,0,0,1,1.42.21,3.35,3.35,0,0,1,1.16.63,2.86,2.86,0,0,1,.78,1.06,3.72,3.72,0,0,1,.28,1.5v4.1c0,.36,0,.73,0,1.12a8.09,8.09,0,0,0,.12,1H968c0-.23-.07-.47-.1-.74a7.63,7.63,0,0,1,0-.78h0a4,4,0,0,1-1.45,1.35,4.28,4.28,0,0,1-2,.41,4.37,4.37,0,0,1-1.11-.15,3.09,3.09,0,0,1-1-.49,2.76,2.76,0,0,1-.78-.88,2.63,2.63,0,0,1-.31-1.32,2.52,2.52,0,0,1,.55-1.72,3.31,3.31,0,0,1,1.47-.94,8.67,8.67,0,0,1,2.11-.4q1.19-.09,2.47-.09Zm-.4,1.38q-.84,0-1.69.07a7.4,7.4,0,0,0-1.54.28,2.91,2.91,0,0,0-1.13.61,1.36,1.36,0,0,0-.44,1.06,1.7,1.7,0,0,0,.19.84,1.54,1.54,0,0,0,.51.55,2.19,2.19,0,0,0,.71.3,3.53,3.53,0,0,0,.79.09,3.11,3.11,0,0,0,1.28-.25A2.72,2.72,0,0,0,967,192a3,3,0,0,0,.58-1,3.49,3.49,0,0,0,.2-1.18v-.7Z"/>
        <path d="M966.09,215.21h-1.36V200.09h1.36Z"/>
        <path d="M960.93,235.13h4.22a8,8,0,0,1,1.62.17,4.41,4.41,0,0,1,1.47.58A3.2,3.2,0,0,1,969.3,237a3.44,3.44,0,0,1,.41,1.76,3,3,0,0,1-.68,2,3.21,3.21,0,0,1-1.83,1.09v0a3.73,3.73,0,0,1,2.29,1.07,3.34,3.34,0,0,1,.91,2.47,3.47,3.47,0,0,1-1.42,2.85,5,5,0,0,1-1.66.79,7.94,7.94,0,0,1-2.2.28h-4.19Zm1.44,6.2h2.9a4.73,4.73,0,0,0,1-.12,2.93,2.93,0,0,0,1-.41A2.21,2.21,0,0,0,968,240a2.38,2.38,0,0,0,.27-1.18,2.28,2.28,0,0,0-.27-1.15,2.25,2.25,0,0,0-.73-.77,3.16,3.16,0,0,0-1.08-.43,6.4,6.4,0,0,0-1.32-.13h-2.5Zm0,6.72h2.68a7.23,7.23,0,0,0,1.49-.15,3.85,3.85,0,0,0,1.24-.48,2.57,2.57,0,0,0,.85-.86,2.74,2.74,0,0,0-.63-3.36,4.52,4.52,0,0,0-2.69-.69h-2.94Z"/>
        <path d="M970.4,266a5.12,5.12,0,0,1-.37,2,4.73,4.73,0,0,1-1,1.56,4.67,4.67,0,0,1-1.58,1,5.38,5.38,0,0,1-2,.37,5.32,5.32,0,0,1-2-.37,4.62,4.62,0,0,1-2.61-2.59,5.37,5.37,0,0,1,0-3.92,4.61,4.61,0,0,1,2.61-2.59,5.32,5.32,0,0,1,2-.37,5.38,5.38,0,0,1,2,.37A4.62,4.62,0,0,1,970,264,5.11,5.11,0,0,1,970.4,266ZM969,266a4.3,4.3,0,0,0-.25-1.47,3.6,3.6,0,0,0-.71-1.2,3.36,3.36,0,0,0-1.12-.81,3.54,3.54,0,0,0-1.48-.3,3.46,3.46,0,0,0-1.47.3,3.38,3.38,0,0,0-1.11.81,3.6,3.6,0,0,0-.71,1.2,4.45,4.45,0,0,0,0,2.94,3.61,3.61,0,0,0,.71,1.2,3.27,3.27,0,0,0,1.11.8,3.57,3.57,0,0,0,1.47.29,3.64,3.64,0,0,0,1.48-.29,3.25,3.25,0,0,0,1.12-.8,3.61,3.61,0,0,0,.71-1.2A4.3,4.3,0,0,0,969,266Z"/>
        <path d="M968.2,292c0-.25,0-.53-.06-.84s0-.56,0-.76h0a3.09,3.09,0,0,1-1.3,1.33,3.8,3.8,0,0,1-1.9.51,3.29,3.29,0,0,1-2.67-1.06,4.21,4.21,0,0,1-.89-2.8v-5.74h1.36v5.18a6.85,6.85,0,0,0,.12,1.34,2.82,2.82,0,0,0,.41,1,2,2,0,0,0,.78.67,2.81,2.81,0,0,0,1.23.24,2.61,2.61,0,0,0,1-.22,2.58,2.58,0,0,0,.91-.67,3.35,3.35,0,0,0,.64-1.14,5,5,0,0,0,.24-1.63v-4.8h1.36v7.3c0,.25,0,.58,0,1s0,.76.06,1.08Z"/>
        <path d="M966.09,313.37h-1.36V298.25h1.36Z"/>
        <path d="M970,329.77v.3a3,3,0,0,1,0,.34h-7.76a3.63,3.63,0,0,0,.28,1.32,3.33,3.33,0,0,0,.72,1.08,3.47,3.47,0,0,0,1.08.73,3.57,3.57,0,0,0,3.17-.22,3.66,3.66,0,0,0,1.17-1.13l1,.8a5.08,5.08,0,0,1-1.85,1.52,5.17,5.17,0,0,1-2.17.46,5,5,0,0,1-1.93-.37,4.52,4.52,0,0,1-1.53-1,4.86,4.86,0,0,1-1-1.56,5.1,5.1,0,0,1-.37-2,5.22,5.22,0,0,1,.36-2,4.72,4.72,0,0,1,1-1.56,4.59,4.59,0,0,1,1.5-1,4.66,4.66,0,0,1,1.86-.37,4.79,4.79,0,0,1,1.94.37,4,4,0,0,1,1.4,1,4.31,4.31,0,0,1,.85,1.47A5.5,5.5,0,0,1,970,329.77Zm-1.38-.44a3.38,3.38,0,0,0-.85-2.19,2.88,2.88,0,0,0-2.25-.87,3.14,3.14,0,0,0-1.26.25,3.36,3.36,0,0,0-1.72,1.66,3.16,3.16,0,0,0-.3,1.15Z"/>
        <path d="M966.17,356.09h-1.5l-3.82-9.36h1.52l3,7.92h0l3.06-7.92H970Z"/>
        <path d="M967.77,371.39a2.35,2.35,0,0,0-.64-1.81,2.63,2.63,0,0,0-1.86-.6,4,4,0,0,0-1.56.3,3.74,3.74,0,0,0-1.22.8l-.76-.9a4.48,4.48,0,0,1,1.53-1,5.75,5.75,0,0,1,2.15-.38,4.64,4.64,0,0,1,1.42.21,3.35,3.35,0,0,1,1.16.63,2.86,2.86,0,0,1,.78,1.06,3.72,3.72,0,0,1,.28,1.5v4.1c0,.36,0,.73,0,1.12a8.09,8.09,0,0,0,.12,1H968c0-.23-.07-.47-.1-.74a7.63,7.63,0,0,1,0-.78h0a4,4,0,0,1-1.45,1.35,4.28,4.28,0,0,1-2,.41,4.37,4.37,0,0,1-1.11-.15,3.09,3.09,0,0,1-1-.49,2.76,2.76,0,0,1-.78-.88,2.63,2.63,0,0,1-.31-1.32,2.52,2.52,0,0,1,.55-1.72,3.31,3.31,0,0,1,1.47-.94,8.67,8.67,0,0,1,2.11-.4q1.19-.09,2.47-.09Zm-.4,1.38q-.84,0-1.69.07a7.4,7.4,0,0,0-1.54.28,2.91,2.91,0,0,0-1.13.61,1.36,1.36,0,0,0-.44,1.06,1.7,1.7,0,0,0,.19.84,1.54,1.54,0,0,0,.51.55,2.19,2.19,0,0,0,.71.3,3.53,3.53,0,0,0,.79.09,3.11,3.11,0,0,0,1.28-.25,2.72,2.72,0,0,0,.94-.68,3,3,0,0,0,.58-1,3.49,3.49,0,0,0,.2-1.18v-.7Z"/>
        <path d="M963.59,390.53q0-.6-.06-1.08h1.3c0,.25,0,.53.06.84s0,.56,0,.76h0a3.24,3.24,0,0,1,1.2-1.33,3.28,3.28,0,0,1,1.8-.51l.47,0a2.59,2.59,0,0,1,.43.08l-.18,1.3a2.69,2.69,0,0,0-.4-.08,4,4,0,0,0-.56,0,2.76,2.76,0,0,0-1,.2,2.23,2.23,0,0,0-.87.63,3.31,3.31,0,0,0-.6,1.1A5,5,0,0,0,965,394v4.79h-1.36v-7.3Q963.61,391.13,963.59,390.53Z"/>
        <path d="M968.54,418.59a3.85,3.85,0,0,1-1.56,1.36,4.54,4.54,0,0,1-2,.46,5,5,0,0,1-2-.38,4.55,4.55,0,0,1-1.52-1,4.7,4.7,0,0,1-1-1.56,5.56,5.56,0,0,1,0-3.88,4.7,4.7,0,0,1,1-1.56,4.52,4.52,0,0,1,1.52-1,5,5,0,0,1,2-.38,4.46,4.46,0,0,1,2,.47,3.87,3.87,0,0,1,1.56,1.39h0V405h1.36v15.12h-1.36v-1.58Zm-6.94-3.1a4.44,4.44,0,0,0,.24,1.47,3.56,3.56,0,0,0,.69,1.2,3.15,3.15,0,0,0,1.11.8,3.7,3.7,0,0,0,1.5.29,3.51,3.51,0,0,0,3.33-2.27,4.24,4.24,0,0,0,0-3,3.68,3.68,0,0,0-.75-1.2,3.45,3.45,0,0,0-1.14-.8,3.54,3.54,0,0,0-1.44-.29,3.59,3.59,0,0,0-1.5.3,3.25,3.25,0,0,0-1.11.81,3.56,3.56,0,0,0-.69,1.2A4.44,4.44,0,0,0,961.6,415.49Z"/>
      </g>
      <g>
        <path d="M830.14,107H828.7V92.83h1.44Z"/>
        <path d="M827.6,120.07q0-.6-.06-1.08h1.3c0,.25,0,.53.06.84s0,.56,0,.76h0a3.24,3.24,0,0,1,1.2-1.33,3.28,3.28,0,0,1,1.8-.51l.47,0a2.59,2.59,0,0,1,.43.08l-.18,1.3a2.69,2.69,0,0,0-.4-.08,4,4,0,0,0-.56,0,2.76,2.76,0,0,0-1,.2,2.23,2.23,0,0,0-.87.63,3.31,3.31,0,0,0-.6,1.1,5,5,0,0,0-.23,1.61v4.79h-1.36V121Q827.62,120.67,827.6,120.07Z"/>
        <path d="M830.18,149.71h-1.5l-3.82-9.36h1.52l3,7.92h0l3.06-7.92H834Z"/>
        <path d="M830.38,158.11a.89.89,0,0,1-.3.69.94.94,0,0,1-1.32,0,.94.94,0,0,1,0-1.38.94.94,0,0,1,1.32,0A.89.89,0,0,1,830.38,158.11Zm-.28,13h-1.36v-9.36h1.36Z"/>
        <path d="M826.63,183.07c0,.25,0,.53.06.84s0,.56,0,.76h0a3.08,3.08,0,0,1,1.3-1.33,3.79,3.79,0,0,1,1.9-.51,3.29,3.29,0,0,1,2.67,1.06,4.21,4.21,0,0,1,.89,2.8v5.74h-1.36v-5.18a6.85,6.85,0,0,0-.12-1.34,2.81,2.81,0,0,0-.41-1,2,2,0,0,0-.78-.67,2.79,2.79,0,0,0-1.23-.24,2.63,2.63,0,0,0-1,.22,2.59,2.59,0,0,0-.91.67A3.35,3.35,0,0,0,827,186a5,5,0,0,0-.24,1.63v4.8h-1.36v-7.3q0-.38,0-1t-.06-1.08Z"/>
        <path d="M825.4,215.67a4.51,4.51,0,0,0,1.53,1.22,4.73,4.73,0,0,0,3.75.21,2.94,2.94,0,0,0,1.13-.79,3.15,3.15,0,0,0,.63-1.17,5,5,0,0,0,.2-1.43v-1.76h0a3.57,3.57,0,0,1-1.53,1.36,4.56,4.56,0,0,1-2,.48,5.26,5.26,0,0,1-2-.36,4.5,4.5,0,0,1-1.52-1,4.42,4.42,0,0,1-1-1.51,5.28,5.28,0,0,1,0-3.78,4.74,4.74,0,0,1,1-1.54,4.52,4.52,0,0,1,1.52-1,5,5,0,0,1,2-.38,4.5,4.5,0,0,1,2,.48A3.68,3.68,0,0,1,832.6,206h0v-1.62H834v9.28a6.86,6.86,0,0,1-.21,1.62,4.1,4.1,0,0,1-.78,1.58,4.42,4.42,0,0,1-1.55,1.2,5.8,5.8,0,0,1-2.54.48,6.3,6.3,0,0,1-2.48-.5,6,6,0,0,1-2-1.38Zm.26-6.68a4.06,4.06,0,0,0,.24,1.4,3.51,3.51,0,0,0,.69,1.16,3.2,3.2,0,0,0,1.11.79,3.7,3.7,0,0,0,1.5.29,3.89,3.89,0,0,0,1.44-.26,3.28,3.28,0,0,0,1.14-.74,3.4,3.4,0,0,0,.75-1.15,3.94,3.94,0,0,0,.27-1.49,3.65,3.65,0,0,0-2.16-3.36,3.44,3.44,0,0,0-1.44-.3,3.59,3.59,0,0,0-1.5.3,3.33,3.33,0,0,0-1.11.8,3.53,3.53,0,0,0-.69,1.16A4.07,4.07,0,0,0,825.66,209Z"/>
        <path d="M832.52,236a3.45,3.45,0,0,0-1.18-1,3.61,3.61,0,0,0-1.74-.39,3.73,3.73,0,0,0-1.06.16,3.07,3.07,0,0,0-1,.49,2.52,2.52,0,0,0-.71.83,2.45,2.45,0,0,0-.27,1.18,2.19,2.19,0,0,0,.26,1.12,2.47,2.47,0,0,0,.69.75,4,4,0,0,0,1,.51l1.15.4q.74.24,1.49.52a5.36,5.36,0,0,1,1.35.73,3.54,3.54,0,0,1,1,1.14,3.6,3.6,0,0,1,.38,1.75,3.89,3.89,0,0,1-.4,1.83,3.83,3.83,0,0,1-1,1.27,4.35,4.35,0,0,1-1.48.74,6,6,0,0,1-1.67.24,6.47,6.47,0,0,1-1.28-.13,5.83,5.83,0,0,1-1.22-.39,4.93,4.93,0,0,1-1.08-.66,4.79,4.79,0,0,1-.88-.92l1.24-.92a3.8,3.8,0,0,0,1.29,1.27,3.65,3.65,0,0,0,2,.51,3.78,3.78,0,0,0,1.1-.17,3.09,3.09,0,0,0,1-.52,2.87,2.87,0,0,0,.74-.86,2.67,2.67,0,0,0,0-2.42,2.57,2.57,0,0,0-.77-.82,4.71,4.71,0,0,0-1.1-.55l-1.3-.44q-.7-.22-1.38-.5a4.66,4.66,0,0,1-1.22-.73,3.42,3.42,0,0,1-.87-1.11,4.06,4.06,0,0,1,.08-3.38,3.71,3.71,0,0,1,1.07-1.22,4.48,4.48,0,0,1,1.46-.7,6,6,0,0,1,1.58-.22,5.45,5.45,0,0,1,2.46.51,4.22,4.22,0,0,1,1.54,1.21Z"/>
        <path d="M832.27,261h-2.64v5.46a3.07,3.07,0,0,0,.1.86,1.22,1.22,0,0,0,.29.53,1,1,0,0,0,.45.26,2.14,2.14,0,0,0,.56.07,2.35,2.35,0,0,0,.59-.08,2.93,2.93,0,0,0,.59-.22l.06,1.18a4,4,0,0,1-.75.21,4.79,4.79,0,0,1-.85.07,3.42,3.42,0,0,1-.8-.1,2,2,0,0,1-.78-.38,2.07,2.07,0,0,1-.59-.76,2.94,2.94,0,0,1-.23-1.26V261h-1.94v-1.14h1.94v-2.64h1.36v2.64h2.64Z"/>
      </g>
      <g>
        <path d="M667.14,108.34h6.6v1.28h-8V95.46h1.44Z"/>
        <path d="M673.91,126.3a5.12,5.12,0,0,1-.37,2,4.73,4.73,0,0,1-1,1.56,4.67,4.67,0,0,1-1.58,1,5.38,5.38,0,0,1-2,.37,5.32,5.32,0,0,1-2-.37,4.62,4.62,0,0,1-2.61-2.59,5.37,5.37,0,0,1,0-3.92,4.61,4.61,0,0,1,2.61-2.59,5.32,5.32,0,0,1,2-.37,5.38,5.38,0,0,1,2,.37,4.62,4.62,0,0,1,2.61,2.59A5.11,5.11,0,0,1,673.91,126.3Zm-1.44,0a4.3,4.3,0,0,0-.25-1.47,3.6,3.6,0,0,0-.71-1.2,3.36,3.36,0,0,0-1.12-.81,3.54,3.54,0,0,0-1.48-.3,3.46,3.46,0,0,0-1.47.3,3.38,3.38,0,0,0-1.11.81,3.6,3.6,0,0,0-.71,1.2,4.45,4.45,0,0,0,0,2.94,3.61,3.61,0,0,0,.71,1.2,3.27,3.27,0,0,0,1.11.8,3.57,3.57,0,0,0,1.47.29,3.64,3.64,0,0,0,1.48-.29,3.25,3.25,0,0,0,1.12-.8,3.61,3.61,0,0,0,.71-1.2A4.3,4.3,0,0,0,672.47,126.3Z"/>
        <path d="M663.44,143l2.26,7.6h0l2.52-7.6h1.32l2.56,7.6h0l2.24-7.6h1.44l-3,9.36h-1.48l-2.5-7.58h0l-2.46,7.58h-1.48L662,143Z"/>
        <path d="M673.52,168.74v.3a3,3,0,0,1,0,.34h-7.76a3.63,3.63,0,0,0,.28,1.32,3.33,3.33,0,0,0,.72,1.08,3.47,3.47,0,0,0,1.08.73,3.57,3.57,0,0,0,3.17-.22,3.66,3.66,0,0,0,1.17-1.13l1,.8a5.08,5.08,0,0,1-1.85,1.52,5.17,5.17,0,0,1-2.17.46,5,5,0,0,1-1.93-.37,4.52,4.52,0,0,1-1.53-1,4.86,4.86,0,0,1-1-1.56,5.1,5.1,0,0,1-.37-2,5.22,5.22,0,0,1,.36-2,4.72,4.72,0,0,1,1-1.56,4.59,4.59,0,0,1,1.5-1,4.66,4.66,0,0,1,1.86-.37,4.79,4.79,0,0,1,1.94.37,4,4,0,0,1,1.4,1,4.31,4.31,0,0,1,.85,1.47A5.5,5.5,0,0,1,673.52,168.74Zm-1.38-.44a3.38,3.38,0,0,0-.85-2.19,2.88,2.88,0,0,0-2.25-.87,3.14,3.14,0,0,0-1.26.25,3.36,3.36,0,0,0-1.72,1.66,3.16,3.16,0,0,0-.3,1.15Z"/>
        <path d="M669.6,195.06h-1.36V179.94h1.36Z"/>
        <path d="M669.6,216.42h-1.36V201.3h1.36Z"/>
        <path d="M664.44,236.34h4.22a8,8,0,0,1,1.62.17,4.41,4.41,0,0,1,1.47.58,3.2,3.2,0,0,1,1.06,1.11,3.44,3.44,0,0,1,.41,1.76,3,3,0,0,1-.68,2,3.21,3.21,0,0,1-1.83,1.09v0a3.73,3.73,0,0,1,2.29,1.07,3.34,3.34,0,0,1,.91,2.47,3.47,3.47,0,0,1-1.42,2.85,5,5,0,0,1-1.66.79,7.94,7.94,0,0,1-2.2.28h-4.19Zm1.44,6.2h2.9a4.73,4.73,0,0,0,1-.12,2.93,2.93,0,0,0,1-.41,2.21,2.21,0,0,0,.71-.77,2.38,2.38,0,0,0,.27-1.18,2.28,2.28,0,0,0-.27-1.15,2.25,2.25,0,0,0-.73-.77,3.16,3.16,0,0,0-1.08-.43,6.4,6.4,0,0,0-1.32-.13h-2.5Zm0,6.72h2.68a7.23,7.23,0,0,0,1.49-.15,3.85,3.85,0,0,0,1.24-.48,2.57,2.57,0,0,0,.85-.86,2.74,2.74,0,0,0-.63-3.36,4.52,4.52,0,0,0-2.69-.69h-2.94Z"/>
        <path d="M669.6,271.86h-1.36V256.74h1.36Z"/>
        <path d="M669.68,293.22h-1.5l-3.82-9.36h1.52l3,7.92h0l3.06-7.92h1.46Z"/>
        <path d="M672.05,313a3.85,3.85,0,0,1-1.56,1.36,4.54,4.54,0,0,1-2,.46,5,5,0,0,1-2-.38,4.55,4.55,0,0,1-1.52-1,4.7,4.7,0,0,1-1-1.56,5.56,5.56,0,0,1,0-3.88,4.7,4.7,0,0,1,1-1.56,4.52,4.52,0,0,1,1.52-1,5,5,0,0,1,2-.38,4.46,4.46,0,0,1,2,.47,3.87,3.87,0,0,1,1.56,1.39h0v-7.38h1.36v15.12h-1.36V313Zm-6.94-3.1a4.44,4.44,0,0,0,.24,1.47,3.56,3.56,0,0,0,.69,1.2,3.15,3.15,0,0,0,1.11.8,3.7,3.7,0,0,0,1.5.29,3.51,3.51,0,0,0,3.33-2.27,4.24,4.24,0,0,0,0-3,3.68,3.68,0,0,0-.75-1.2,3.45,3.45,0,0,0-1.14-.8,3.54,3.54,0,0,0-1.44-.29,3.59,3.59,0,0,0-1.5.3,3.25,3.25,0,0,0-1.11.81,3.56,3.56,0,0,0-.69,1.2A4.44,4.44,0,0,0,665.11,309.9Z"/>
      </g>
      <g>
        <path d="M505,97h4a7.75,7.75,0,0,1,2,.23,4.33,4.33,0,0,1,1.51.7,3.16,3.16,0,0,1,1,1.18,3.83,3.83,0,0,1,.34,1.67,3.74,3.74,0,0,1-.35,1.67,3.23,3.23,0,0,1-1,1.18,4.45,4.45,0,0,1-1.52.71,7.55,7.55,0,0,1-2,.24h-2.52v6.58H505Zm1.44,6.36h2.44a4.25,4.25,0,0,0,2.58-.66,2.25,2.25,0,0,0,.88-1.92,2.15,2.15,0,0,0-.91-1.93,4.54,4.54,0,0,0-2.55-.61h-2.44Z"/>
        <path d="M513.53,127.57v.3a3,3,0,0,1,0,.34h-7.76a3.63,3.63,0,0,0,.28,1.32,3.33,3.33,0,0,0,.72,1.08,3.47,3.47,0,0,0,1.08.73,3.57,3.57,0,0,0,3.17-.22,3.66,3.66,0,0,0,1.17-1.13l1,.8a5.08,5.08,0,0,1-1.85,1.52,5.17,5.17,0,0,1-2.17.46,5,5,0,0,1-1.93-.37,4.52,4.52,0,0,1-1.53-1,4.86,4.86,0,0,1-1-1.56,5.1,5.1,0,0,1-.37-2,5.22,5.22,0,0,1,.36-2,4.72,4.72,0,0,1,1-1.56,4.59,4.59,0,0,1,1.5-1,4.66,4.66,0,0,1,1.86-.37,4.79,4.79,0,0,1,1.94.37,4,4,0,0,1,1.4,1,4.31,4.31,0,0,1,.85,1.47A5.5,5.5,0,0,1,513.53,127.57Zm-1.38-.44a3.38,3.38,0,0,0-.85-2.19,2.88,2.88,0,0,0-2.25-.87,3.14,3.14,0,0,0-1.26.25,3.36,3.36,0,0,0-1.72,1.66,3.16,3.16,0,0,0-.3,1.15Z"/>
        <path d="M507.11,145.6q0-.6-.06-1.08h1.3c0,.25,0,.53.06.84s0,.56,0,.76h0a3.24,3.24,0,0,1,1.2-1.33,3.28,3.28,0,0,1,1.8-.51l.47,0a2.59,2.59,0,0,1,.43.08l-.18,1.3a2.69,2.69,0,0,0-.4-.08,4,4,0,0,0-.56,0,2.76,2.76,0,0,0-1,.2,2.23,2.23,0,0,0-.87.63,3.31,3.31,0,0,0-.6,1.1,5,5,0,0,0-.23,1.61v4.79h-1.36v-7.3Q507.13,146.21,507.11,145.6Z"/>
        <path d="M507.11,167q0-.6-.06-1.08h1.3c0,.25,0,.53.06.84s0,.56,0,.76h0a3.24,3.24,0,0,1,1.2-1.33,3.28,3.28,0,0,1,1.8-.51l.47,0a2.59,2.59,0,0,1,.43.08l-.18,1.3a2.69,2.69,0,0,0-.4-.08,4,4,0,0,0-.56,0,2.76,2.76,0,0,0-1,.2,2.23,2.23,0,0,0-.87.63,3.31,3.31,0,0,0-.6,1.1,5,5,0,0,0-.23,1.61v4.79h-1.36v-7.3Q507.13,167.57,507.11,167Z"/>
        <path d="M509.07,195.15h0l2.9-7.9h1.48L508.83,199a5,5,0,0,1-1.07,1.73,2.53,2.53,0,0,1-1.87.65,6.19,6.19,0,0,1-1.22-.12l.14-1.24a3.15,3.15,0,0,0,1,.16,1.43,1.43,0,0,0,1.1-.43,3.71,3.71,0,0,0,.7-1.23l.76-2-4-9.34h1.52Z"/>
        <path d="M512,218.8a3.45,3.45,0,0,0-1.18-1,3.61,3.61,0,0,0-1.74-.39,3.73,3.73,0,0,0-1.06.16,3.07,3.07,0,0,0-1,.49,2.52,2.52,0,0,0-.71.83,2.45,2.45,0,0,0-.27,1.18,2.19,2.19,0,0,0,.26,1.12,2.47,2.47,0,0,0,.69.75,4,4,0,0,0,1,.51l1.15.4q.74.24,1.49.52a5.36,5.36,0,0,1,1.35.73,3.54,3.54,0,0,1,1,1.14,3.6,3.6,0,0,1,.38,1.75,3.89,3.89,0,0,1-.4,1.83,3.83,3.83,0,0,1-1,1.27,4.35,4.35,0,0,1-1.48.74,6,6,0,0,1-1.67.24,6.47,6.47,0,0,1-1.28-.13,5.83,5.83,0,0,1-1.22-.39,4.93,4.93,0,0,1-1.08-.66,4.79,4.79,0,0,1-.88-.92l1.24-.92a3.8,3.8,0,0,0,1.29,1.27,3.65,3.65,0,0,0,2,.51,3.78,3.78,0,0,0,1.1-.17,3.09,3.09,0,0,0,1-.52,2.87,2.87,0,0,0,.74-.86,2.67,2.67,0,0,0,0-2.42,2.57,2.57,0,0,0-.77-.82,4.71,4.71,0,0,0-1.1-.55l-1.3-.44q-.7-.22-1.38-.5a4.66,4.66,0,0,1-1.22-.73,3.42,3.42,0,0,1-.87-1.11,4.06,4.06,0,0,1,.08-3.38,3.71,3.71,0,0,1,1.07-1.22,4.48,4.48,0,0,1,1.46-.7,6,6,0,0,1,1.58-.22,5.45,5.45,0,0,1,2.46.51,4.22,4.22,0,0,1,1.54,1.21Z"/>
        <path d="M511.78,243.83h-2.64v5.46a3.07,3.07,0,0,0,.1.86,1.22,1.22,0,0,0,.29.53,1,1,0,0,0,.45.26,2.14,2.14,0,0,0,.56.07,2.35,2.35,0,0,0,.59-.08,2.93,2.93,0,0,0,.59-.22l.06,1.18a4,4,0,0,1-.75.21,4.79,4.79,0,0,1-.85.07,3.42,3.42,0,0,1-.8-.1,2,2,0,0,1-.78-.38,2.07,2.07,0,0,1-.59-.76,2.94,2.94,0,0,1-.23-1.26v-5.84h-1.94v-1.14h1.94V240h1.36v2.64h2.64Z"/>
      </g>
      <g>
        <path d="M341.16,22.13h-1.44V9.25H335V8H345.9V9.25h-4.74Z"/>
        <path d="M345,38.53v.3a3,3,0,0,1,0,.34h-7.76a3.63,3.63,0,0,0,.28,1.32,3.33,3.33,0,0,0,.72,1.08,3.47,3.47,0,0,0,1.08.73,3.57,3.57,0,0,0,3.17-.22,3.66,3.66,0,0,0,1.17-1.13l1,.8a5.08,5.08,0,0,1-1.85,1.52,5.17,5.17,0,0,1-2.17.46,5,5,0,0,1-1.93-.37,4.52,4.52,0,0,1-1.53-1,4.86,4.86,0,0,1-1-1.56,5.1,5.1,0,0,1-.37-2,5.22,5.22,0,0,1,.36-2,4.72,4.72,0,0,1,1-1.56,4.59,4.59,0,0,1,1.5-1,4.66,4.66,0,0,1,1.86-.37,4.79,4.79,0,0,1,1.94.37,4,4,0,0,1,1.4,1,4.31,4.31,0,0,1,.85,1.47A5.5,5.5,0,0,1,345,38.53Zm-1.38-.44a3.38,3.38,0,0,0-.85-2.19,2.88,2.88,0,0,0-2.25-.87,3.14,3.14,0,0,0-1.26.25,3.36,3.36,0,0,0-1.72,1.66,3.16,3.16,0,0,0-.3,1.15Z"/>
        <path d="M337.65,55.49c0,.25,0,.53.06.84s0,.56,0,.76h0a3.08,3.08,0,0,1,1.3-1.33,3.79,3.79,0,0,1,1.9-.51,3.29,3.29,0,0,1,2.67,1.06,4.21,4.21,0,0,1,.89,2.8v5.74h-1.36V59.67a6.85,6.85,0,0,0-.12-1.34,2.81,2.81,0,0,0-.41-1,2,2,0,0,0-.78-.67,2.79,2.79,0,0,0-1.23-.24,2.63,2.63,0,0,0-1,.22,2.59,2.59,0,0,0-.91.67,3.35,3.35,0,0,0-.64,1.14,5,5,0,0,0-.24,1.63v4.8h-1.36v-7.3q0-.38,0-1t-.06-1.08Z"/>
        <path d="M337.65,76.85c0,.25,0,.53.06.84s0,.56,0,.76h0a3.08,3.08,0,0,1,1.3-1.33,3.79,3.79,0,0,1,1.9-.51,3.29,3.29,0,0,1,2.67,1.06,4.21,4.21,0,0,1,.89,2.8v5.74h-1.36V81a6.85,6.85,0,0,0-.12-1.34,2.81,2.81,0,0,0-.41-1,2,2,0,0,0-.78-.67,2.79,2.79,0,0,0-1.23-.24,2.63,2.63,0,0,0-1,.22,2.59,2.59,0,0,0-.91.67,3.35,3.35,0,0,0-.64,1.14,5,5,0,0,0-.24,1.63v4.8h-1.36v-7.3q0-.38,0-1t-.06-1.08Z"/>
        <path d="M340.58,106.11h0l2.9-7.9H345L340.34,110a5,5,0,0,1-1.07,1.73,2.53,2.53,0,0,1-1.87.65,6.19,6.19,0,0,1-1.22-.12l.14-1.24a3.15,3.15,0,0,0,1,.16,1.43,1.43,0,0,0,1.1-.43,3.71,3.71,0,0,0,.7-1.23l.76-2-4-9.34h1.52Z"/>
        <path d="M342.78,121.79a2.4,2.4,0,0,0-.91-1,2.62,2.62,0,0,0-1.39-.37,3.29,3.29,0,0,0-.72.08,2,2,0,0,0-.64.26,1.42,1.42,0,0,0-.45.46,1.25,1.25,0,0,0-.17.66,1.13,1.13,0,0,0,.54,1,5.17,5.17,0,0,0,1.7.59,5.7,5.7,0,0,1,2.45,1,2.15,2.15,0,0,1,.79,1.75,2.59,2.59,0,0,1-1.12,2.25,3.27,3.27,0,0,1-1.13.5,5.44,5.44,0,0,1-1.27.15,5.07,5.07,0,0,1-2.06-.44,3.81,3.81,0,0,1-1.64-1.38l1.08-.8a3.06,3.06,0,0,0,2.6,1.46,4.25,4.25,0,0,0,.84-.08,1.91,1.91,0,0,0,.7-.28,1.53,1.53,0,0,0,.48-.51,1.51,1.51,0,0,0,.18-.77,1.19,1.19,0,0,0-.71-1.11,9.27,9.27,0,0,0-2-.69q-.42-.1-.89-.25a3,3,0,0,1-.87-.44,2.38,2.38,0,0,1-.66-.73,2.13,2.13,0,0,1-.26-1.1,2.52,2.52,0,0,1,.28-1.23,2.45,2.45,0,0,1,.75-.84,3.36,3.36,0,0,1,1.07-.49,4.8,4.8,0,0,1,1.24-.16,4.36,4.36,0,0,1,1.9.44,3.08,3.08,0,0,1,1.38,1.24Z"/>
        <path d="M345.43,145.61a5.12,5.12,0,0,1-.37,2,4.73,4.73,0,0,1-1,1.56,4.67,4.67,0,0,1-1.58,1,5.38,5.38,0,0,1-2,.37,5.32,5.32,0,0,1-2-.37,4.62,4.62,0,0,1-2.61-2.59,5.37,5.37,0,0,1,0-3.92,4.61,4.61,0,0,1,2.61-2.59,5.32,5.32,0,0,1,2-.37,5.38,5.38,0,0,1,2,.37,4.62,4.62,0,0,1,2.61,2.59A5.11,5.11,0,0,1,345.43,145.61Zm-1.44,0a4.3,4.3,0,0,0-.25-1.47,3.6,3.6,0,0,0-.71-1.2,3.36,3.36,0,0,0-1.12-.81,3.54,3.54,0,0,0-1.48-.3,3.46,3.46,0,0,0-1.47.3,3.38,3.38,0,0,0-1.11.81,3.6,3.6,0,0,0-.71,1.2,4.45,4.45,0,0,0,0,2.94,3.61,3.61,0,0,0,.71,1.2,3.27,3.27,0,0,0,1.11.8,3.57,3.57,0,0,0,1.47.29,3.64,3.64,0,0,0,1.48-.29,3.25,3.25,0,0,0,1.12-.8,3.61,3.61,0,0,0,.71-1.2A4.3,4.3,0,0,0,344,145.61Z"/>
        <path d="M337.65,162.29c0,.25,0,.53.06.84s0,.56,0,.76h0a3.08,3.08,0,0,1,1.3-1.33A3.79,3.79,0,0,1,341,162a3.29,3.29,0,0,1,2.67,1.06,4.21,4.21,0,0,1,.89,2.8v5.74h-1.36v-5.18a6.85,6.85,0,0,0-.12-1.34,2.81,2.81,0,0,0-.41-1,2,2,0,0,0-.78-.67,2.79,2.79,0,0,0-1.23-.24,2.63,2.63,0,0,0-1,.22,2.59,2.59,0,0,0-.91.67,3.35,3.35,0,0,0-.64,1.14,5,5,0,0,0-.24,1.63v4.8h-1.36v-7.3q0-.38,0-1t-.06-1.08Z"/>
        <path d="M343.54,193.85a3.45,3.45,0,0,0-1.18-1,3.61,3.61,0,0,0-1.74-.39,3.73,3.73,0,0,0-1.06.16,3.07,3.07,0,0,0-1,.49,2.52,2.52,0,0,0-.71.83,2.45,2.45,0,0,0-.27,1.18,2.19,2.19,0,0,0,.26,1.12,2.47,2.47,0,0,0,.69.75,4,4,0,0,0,1,.51l1.15.4q.74.24,1.49.52a5.36,5.36,0,0,1,1.35.73,3.54,3.54,0,0,1,1,1.14,3.6,3.6,0,0,1,.38,1.75,3.89,3.89,0,0,1-.4,1.83,3.83,3.83,0,0,1-1,1.27,4.35,4.35,0,0,1-1.48.74,6,6,0,0,1-1.67.24A6.47,6.47,0,0,1,339,206a5.83,5.83,0,0,1-1.22-.39,4.93,4.93,0,0,1-1.08-.66,4.79,4.79,0,0,1-.88-.92l1.24-.92a3.8,3.8,0,0,0,1.29,1.27,3.65,3.65,0,0,0,2,.51,3.78,3.78,0,0,0,1.1-.17,3.09,3.09,0,0,0,1-.52,2.87,2.87,0,0,0,.74-.86,2.67,2.67,0,0,0,0-2.42,2.57,2.57,0,0,0-.77-.82,4.71,4.71,0,0,0-1.1-.55l-1.3-.44q-.7-.22-1.38-.5a4.66,4.66,0,0,1-1.22-.73,3.42,3.42,0,0,1-.87-1.11,4.06,4.06,0,0,1,.08-3.38,3.71,3.71,0,0,1,1.07-1.22,4.48,4.48,0,0,1,1.46-.7,6,6,0,0,1,1.58-.22,5.45,5.45,0,0,1,2.46.51,4.22,4.22,0,0,1,1.54,1.21Z"/>
        <path d="M343.29,218.87h-2.64v5.46a3.07,3.07,0,0,0,.1.86,1.22,1.22,0,0,0,.29.53,1,1,0,0,0,.45.26,2.14,2.14,0,0,0,.56.07,2.35,2.35,0,0,0,.59-.08,2.93,2.93,0,0,0,.59-.22l.06,1.18a4,4,0,0,1-.75.21,4.79,4.79,0,0,1-.85.07,3.42,3.42,0,0,1-.8-.1,2,2,0,0,1-.78-.38,2.07,2.07,0,0,1-.59-.76,2.94,2.94,0,0,1-.23-1.26v-5.84h-1.94v-1.14h1.94v-2.64h1.36v2.64h2.64Z"/>
      </g>
    </g>
  </g>
</svg>
