<svg xmlns="http://www.w3.org/2000/svg" viewBox="0 0 571.29 514.2">
  <defs>
    <style>
      .jefferson-park-cls-1, .jefferson-park-cls-7 {
        fill: none;
      }

      .jefferson-park-cls-1, .jefferson-park-cls-2, .jefferson-park-cls-3, .jefferson-park-cls-4, .jefferson-park-cls-5, .jefferson-park-cls-6, .jefferson-park-cls-7 {
        stroke: #000;
        stroke-miterlimit: 10;
      }

      .jefferson-park-cls-1, .jefferson-park-cls-2, .jefferson-park-cls-3, .jefferson-park-cls-4, .jefferson-park-cls-5 {
        stroke-width: 2px;
      }

      .jefferson-park-cls-2 {
        fill: #adc5a7;
      }

      .jefferson-park-cls-3 {
        fill: #999;
      }

      .jefferson-park-cls-4 {
        fill: #619cb0;
      }

      .jefferson-park-cls-5 {
        fill: #769e6c;
      }

      .jefferson-park-cls-6 {
        fill: #ffd5d5;
      }
    </style>
  </defs>
  <title>Asset 8</title>
  <g id="Layer_2" data-name="Layer 2">
    <g id="Jefferson_Park" data-name="Jefferson Park">
      <path class="jefferson-park-cls-1" d="M589,319.52,603.5,306.2l19-18Zm-81.46,74.93a28.14,28.14,0,0,0-5.19,6.26l-1.71,2.8a54.43,54.43,0,0,1,7.81-9.88Z" transform="translate(-95.48)"/>
      <polygon class="jefferson-park-cls-2" points="190.44 336.99 190.35 512.71 82.35 512.99 82.35 392.2 190.35 392.2 190.35 337.2 82.35 337.2 82.35 336.82 190.44 336.99"/>
      <polygon class="jefferson-park-cls-2" points="82.35 336.82 82.35 337.7 1.02 336.71 1.02 336.7 82.35 336.82"/>
      <polygon class="jefferson-park-cls-2" points="1.02 353.2 82.35 353.2 82.35 512.99 1.02 513.2 1.02 353.2"/>
      <path class="jefferson-park-cls-2" d="M390.5,263.52v73.63L285.92,337,286,172l95,.67.44,54.57a32.46,32.46,0,0,0,3.76,14.92,45.41,45.41,0,0,1,5.3,21.32Z" transform="translate(-95.48)"/>
      <polygon class="jefferson-park-cls-2" points="82.35 171.27 82.35 321.87 1.02 321.87 1.02 170.7 82.35 171.27"/>
      <path class="jefferson-park-cls-2" d="M500,138.79l-18.19,16.63a19.41,19.41,0,0,0-6.33,14.35,129.48,129.48,0,0,1-24.05,75.16L417.9,292a111.7,111.7,0,0,0-19,45.17h-8.4V263.52a45.41,45.41,0,0,0-5.3-21.32,32.46,32.46,0,0,1-3.76-14.92L381,172.71l69.5.49,1-59.41Z" transform="translate(-95.48)"/>
      <polygon class="jefferson-park-cls-2" points="356.02 113.79 355.02 173.2 285.52 172.71 285.52 77.46 356.02 113.79"/>
      <polygon class="jefferson-park-cls-2" points="285.52 77.46 285.52 172.71 190.53 172.04 82.35 171.27 82.35 1.28 191.02 28.2 285.02 77.2 285.52 77.46"/>
      <polygon class="jefferson-park-cls-2" points="82.35 1.28 82.35 171.27 1.02 170.7 1.02 1.2 82.02 1.2 82.35 1.28"/>
      <polygon class="jefferson-park-cls-3" points="321.24 337.19 307.37 387.54 272.95 512.5 190.35 512.71 190.44 336.99 295.02 337.15 303.42 337.16 321.24 337.19"/>
      <path class="jefferson-park-cls-3" d="M543.46,161.18l-47.67,52.28L470.5,241.2,456,263.92,429.41,305.4a84.57,84.57,0,0,0-10.31,23.16l-2.38,8.63-17.82,0a111.7,111.7,0,0,1,19-45.17l33.55-47.06a129.48,129.48,0,0,0,24.05-75.16,19.41,19.41,0,0,1,6.33-14.35L500,138.79Z" transform="translate(-95.48)"/>
      <path class="jefferson-park-cls-3" d="M456.9,317.76a39.28,39.28,0,0,0,.22-5.21L456,263.92,470.5,241.2l25.29-27.74,47.67-52.28,0,0,9.17,4.66L606.5,193.2l33.73,17.86Z" transform="translate(-95.48)"/>
      <path class="jefferson-park-cls-4" d="M665.5,241.2l-43,47L589,319.52l-.19.17L510.13,392c-.57.52-1.12,1.05-1.66,1.6h0l-.91.82a28.14,28.14,0,0,0-5.19,6.26l-1.71,2.8L488.5,423.38l-.13.22-.94,1.54a33.49,33.49,0,0,0-4.93,17.5V512.2l-41,.11,5.33-61a132.38,132.38,0,0,1,44.85-88.21l2.6-2.27q4.2-3.66,8.73-6.9l47.78-34.13A64.06,64.06,0,0,0,568.34,301l11-18a98.08,98.08,0,0,1,17.36-21.16l50.71-46.71.12.07Z" transform="translate(-95.48)"/>
      <path class="jefferson-park-cls-5" d="M647.38,215.13l-50.71,46.71A98.08,98.08,0,0,0,579.31,283l-11,18a64.06,64.06,0,0,1-17.53,18.84L503,354q-4.53,3.24-8.73,6.9l-2.6,2.27a132.38,132.38,0,0,0-44.85,88.21l-5.33,61-73.09.19,34.42-125,44-47.82a38.73,38.73,0,0,0,10-22l183.33-106.7.27.14Z" transform="translate(-95.48)"/>
      <line class="jefferson-park-cls-1" x1="356.02" y1="113.79" x2="356.02" y2="113.75"/>
      <polygon class="jefferson-park-cls-2" points="190.53 172.04 190.44 336.99 82.51 336.82 82.35 336.82 82.35 171.27 190.53 172.04"/>
      <line class="jefferson-park-cls-1" x1="82.35" y1="513.2" x2="82.35" y2="512.99"/>
      <line class="jefferson-park-cls-1" x1="82.35" y1="1.28" x2="82.35" y2="0.9"/>
      <line class="jefferson-park-cls-1" x1="190.35" y1="512.87" x2="190.35" y2="512.71"/>
      <line class="jefferson-park-cls-1" x1="190.6" y1="28.55" x2="190.53" y2="172.04"/>
      <line class="jefferson-park-cls-1" x1="295.02" y1="337.2" x2="295.02" y2="337.15"/>
      <line class="jefferson-park-cls-1" x1="285.52" y1="77.46" x2="285.52" y2="77.44"/>
      <rect class="jefferson-park-cls-5" x="82.35" y="337.2" width="108" height="55"/>
      <polyline class="jefferson-park-cls-1" points="412.99 393.62 450.02 360.2 493.34 319.69"/>
      <path class="jefferson-park-cls-1" d="M482.5,444.71a40.89,40.89,0,0,1,5.87-21.11" transform="translate(-95.48)"/>
      <line class="jefferson-park-cls-1" x1="387.02" y1="512.52" x2="387.02" y2="512.2"/>
      <line class="jefferson-park-cls-1" x1="346.04" y1="512.31" x2="346.02" y2="512.52"/>
      <path class="jefferson-park-cls-3" d="M456.9,317.76a38.73,38.73,0,0,1-10,22l-44,47.82,13.87-50.35h6.78Z" transform="translate(-95.48)"/>
      <path class="jefferson-park-cls-3" d="M457.12,312.55a39.28,39.28,0,0,1-.22,5.21L423.5,337.2h-6.78l2.38-8.63a84.57,84.57,0,0,1,10.31-23.16L456,263.92Z" transform="translate(-95.48)"/>
      <line class="jefferson-park-cls-1" x1="448.02" y1="161.13" x2="447.98" y2="161.18"/>
      <line class="jefferson-park-cls-1" x1="272.95" y1="512.5" x2="272.94" y2="512.52"/>
      <line class="jefferson-park-cls-1" x1="404.58" y1="138.76" x2="404.54" y2="138.79"/>
      <path class="jefferson-park-cls-1" d="M394.83,416.63l2.41-64a112,112,0,0,1,1.66-15.44" transform="translate(-95.48)"/>
      <path class="jefferson-park-cls-1" d="M495.79,213.46l60.73-3.61a68.87,68.87,0,0,0,21.21-4.69l29-11.46" transform="translate(-95.48)"/>
      <path class="jefferson-park-cls-1" d="M552.67,165.85l-4.88,11.56a29.85,29.85,0,0,0-2,16.15h0a7.88,7.88,0,0,0,5.14,6.22l5.24,1.87a36.49,36.49,0,0,0,8.93,2l7.83.72a11.29,11.29,0,0,0,9.36-3.62h0a12.28,12.28,0,0,0,3.22-8.29h0a20.92,20.92,0,0,0-2.46-9.85l-.81-1.51" transform="translate(-95.48)"/>
      <g>
        <path d="M106.78,68H105.7V57.35h6.41v1h-5.33V62h5v1h-5Z" transform="translate(-95.48)"/>
        <path d="M112,80.27v.22a2.38,2.38,0,0,1,0,.25h-5.82a2.73,2.73,0,0,0,.21,1,2.48,2.48,0,0,0,.54.81,2.59,2.59,0,0,0,.81.55,2.69,2.69,0,0,0,2.38-.17,2.75,2.75,0,0,0,.88-.85l.77.6a3.8,3.8,0,0,1-1.39,1.14,3.89,3.89,0,0,1-1.63.34,3.72,3.72,0,0,1-1.45-.28,3.38,3.38,0,0,1-1.15-.77,3.66,3.66,0,0,1-.76-1.17,3.84,3.84,0,0,1-.28-1.47,3.91,3.91,0,0,1,.27-1.47,3.56,3.56,0,0,1,.75-1.17,3.44,3.44,0,0,1,1.13-.77,3.5,3.5,0,0,1,1.39-.28,3.59,3.59,0,0,1,1.46.28,3,3,0,0,1,1,.75,3.23,3.23,0,0,1,.64,1.1A4.12,4.12,0,0,1,112,80.27Zm-1-.33a2.53,2.53,0,0,0-.64-1.64,2.16,2.16,0,0,0-1.69-.65,2.36,2.36,0,0,0-.95.19,2.5,2.5,0,0,0-.76.51,2.53,2.53,0,0,0-.53.74,2.36,2.36,0,0,0-.22.86Z" transform="translate(-95.48)"/>
        <path d="M110.85,98.83a2.88,2.88,0,0,1-1.17,1,3.41,3.41,0,0,1-1.49.34,3.75,3.75,0,0,1-1.49-.29,3.38,3.38,0,0,1-1.14-.78,3.52,3.52,0,0,1-.74-1.17,4.16,4.16,0,0,1,0-2.91,3.51,3.51,0,0,1,.74-1.17,3.4,3.4,0,0,1,1.14-.78,3.77,3.77,0,0,1,1.49-.29,3.35,3.35,0,0,1,1.49.35,2.9,2.9,0,0,1,1.17,1h0V88.67h1V100h-1V98.83Zm-5.21-2.33a3.36,3.36,0,0,0,.18,1.1,2.68,2.68,0,0,0,.52.9,2.37,2.37,0,0,0,.83.6,2.78,2.78,0,0,0,1.13.22,2.63,2.63,0,0,0,2.5-1.7,3.18,3.18,0,0,0,0-2.24,2.76,2.76,0,0,0-.56-.9,2.6,2.6,0,0,0-.85-.6,2.66,2.66,0,0,0-1.08-.22,2.7,2.7,0,0,0-1.12.22,2.45,2.45,0,0,0-.83.61,2.68,2.68,0,0,0-.52.9A3.35,3.35,0,0,0,105.64,96.5Z" transform="translate(-95.48)"/>
        <path d="M112,112.31v.22a2.38,2.38,0,0,1,0,.25h-5.82a2.73,2.73,0,0,0,.21,1,2.48,2.48,0,0,0,.54.81,2.59,2.59,0,0,0,.81.55,2.69,2.69,0,0,0,2.38-.17,2.75,2.75,0,0,0,.88-.85l.77.6a3.8,3.8,0,0,1-1.39,1.14,3.89,3.89,0,0,1-1.63.34,3.72,3.72,0,0,1-1.45-.28,3.38,3.38,0,0,1-1.15-.77,3.66,3.66,0,0,1-.76-1.17,3.84,3.84,0,0,1-.28-1.47,3.91,3.91,0,0,1,.27-1.47,3.56,3.56,0,0,1,.75-1.17,3.44,3.44,0,0,1,1.13-.77,3.5,3.5,0,0,1,1.39-.28,3.59,3.59,0,0,1,1.46.28,3,3,0,0,1,1,.75,3.23,3.23,0,0,1,.64,1.1A4.12,4.12,0,0,1,112,112.31Zm-1-.33a2.53,2.53,0,0,0-.64-1.64,2.16,2.16,0,0,0-1.69-.65,2.36,2.36,0,0,0-.95.19,2.5,2.5,0,0,0-.76.51,2.53,2.53,0,0,0-.53.74,2.36,2.36,0,0,0-.22.86Z" transform="translate(-95.48)"/>
        <path d="M107.13,125.84c0-.3,0-.57,0-.81h1q0,.28,0,.63c0,.23,0,.42,0,.57h0a2.43,2.43,0,0,1,.9-1,2.46,2.46,0,0,1,1.35-.38l.35,0,.32.06-.14,1-.3-.06a3,3,0,0,0-.42,0,2.07,2.07,0,0,0-.78.15,1.68,1.68,0,0,0-.65.47,2.48,2.48,0,0,0-.45.82,3.71,3.71,0,0,0-.17,1.2v3.59h-1v-5.47Q107.15,126.29,107.13,125.84Z" transform="translate(-95.48)"/>
        <path d="M110.27,143.53a1.77,1.77,0,0,0-.48-1.36,2,2,0,0,0-1.39-.45,3,3,0,0,0-1.17.22,2.79,2.79,0,0,0-.92.6l-.57-.68a3.37,3.37,0,0,1,1.15-.72,4.32,4.32,0,0,1,1.61-.29,3.51,3.51,0,0,1,1.07.16,2.55,2.55,0,0,1,.87.47,2.16,2.16,0,0,1,.58.79,2.8,2.8,0,0,1,.21,1.13v3.08c0,.27,0,.55,0,.84a5.8,5.8,0,0,0,.09.74h-.92q0-.25-.08-.55a5.74,5.74,0,0,1,0-.58h0a3,3,0,0,1-1.09,1,3.21,3.21,0,0,1-1.46.31,3.25,3.25,0,0,1-.83-.11,2.32,2.32,0,0,1-.78-.37,2.07,2.07,0,0,1-.58-.66,2,2,0,0,1-.23-1,1.89,1.89,0,0,1,.41-1.29,2.48,2.48,0,0,1,1.1-.71,6.48,6.48,0,0,1,1.58-.3q.89-.07,1.85-.07Zm-.3,1q-.63,0-1.27.05a5.5,5.5,0,0,0-1.15.21,2.17,2.17,0,0,0-.85.46,1,1,0,0,0-.33.79,1.27,1.27,0,0,0,.14.63,1.17,1.17,0,0,0,.38.41,1.63,1.63,0,0,0,.53.22,2.63,2.63,0,0,0,.59.07,2.34,2.34,0,0,0,1-.19,2,2,0,0,0,.71-.51,2.26,2.26,0,0,0,.43-.74,2.62,2.62,0,0,0,.15-.89v-.52Z" transform="translate(-95.48)"/>
        <path d="M109,164.09h-1V152.75h1Z" transform="translate(-95.48)"/>
        <path d="M105.14,174.26h3.17a6,6,0,0,1,1.21.13,3.3,3.3,0,0,1,1.1.43,2.39,2.39,0,0,1,.79.83,2.58,2.58,0,0,1,.31,1.32,2.23,2.23,0,0,1-.51,1.46,2.41,2.41,0,0,1-1.37.82v0a2.8,2.8,0,0,1,1.71.8,2.51,2.51,0,0,1,.68,1.85,2.61,2.61,0,0,1-1.06,2.14,3.78,3.78,0,0,1-1.24.59,6,6,0,0,1-1.65.21h-3.14Zm1.08,4.65h2.17a3.58,3.58,0,0,0,.79-.09,2.2,2.2,0,0,0,.73-.31,1.66,1.66,0,0,0,.53-.58,1.78,1.78,0,0,0,.2-.88,1.71,1.71,0,0,0-.2-.86,1.68,1.68,0,0,0-.55-.58,2.36,2.36,0,0,0-.81-.32,4.87,4.87,0,0,0-1-.1h-1.87Zm0,5h2a5.38,5.38,0,0,0,1.12-.11,2.85,2.85,0,0,0,.93-.36,1.91,1.91,0,0,0,.64-.65,2.05,2.05,0,0,0-.47-2.52,3.39,3.39,0,0,0-2-.52h-2.21Z" transform="translate(-95.48)"/>
        <path d="M112.24,197.39a3.84,3.84,0,0,1-.28,1.47,3.54,3.54,0,0,1-.77,1.17,3.5,3.5,0,0,1-1.19.77,4,4,0,0,1-1.51.28,4,4,0,0,1-1.5-.28,3.5,3.5,0,0,1-1.19-.77,3.54,3.54,0,0,1-.77-1.17,4,4,0,0,1,0-2.94,3.55,3.55,0,0,1,.77-1.17A3.51,3.51,0,0,1,107,194a4,4,0,0,1,1.5-.28A4,4,0,0,1,110,194a3.51,3.51,0,0,1,1.19.77,3.55,3.55,0,0,1,.77,1.17A3.84,3.84,0,0,1,112.24,197.39Zm-1.08,0a3.21,3.21,0,0,0-.19-1.1,2.71,2.71,0,0,0-.53-.9,2.53,2.53,0,0,0-.84-.61,2.66,2.66,0,0,0-1.11-.22,2.61,2.61,0,0,0-1.1.22,2.55,2.55,0,0,0-.83.61,2.71,2.71,0,0,0-.53.9,3.34,3.34,0,0,0,0,2.21,2.71,2.71,0,0,0,.53.9,2.47,2.47,0,0,0,.83.6,2.68,2.68,0,0,0,1.1.22,2.73,2.73,0,0,0,1.11-.22,2.45,2.45,0,0,0,.84-.6,2.71,2.71,0,0,0,.53-.9A3.22,3.22,0,0,0,111.16,197.39Z" transform="translate(-95.48)"/>
        <path d="M110.59,216.92q0-.28,0-.63c0-.23,0-.42,0-.57h0a2.31,2.31,0,0,1-1,1,2.85,2.85,0,0,1-1.42.38,2.47,2.47,0,0,1-2-.79,3.16,3.16,0,0,1-.67-2.1v-4.3h1v3.88a5.09,5.09,0,0,0,.09,1,2.1,2.1,0,0,0,.31.77,1.46,1.46,0,0,0,.59.5,2.08,2.08,0,0,0,.92.18,2,2,0,0,0,.79-.17,1.93,1.93,0,0,0,.68-.5,2.51,2.51,0,0,0,.48-.85,3.73,3.73,0,0,0,.18-1.22v-3.6h1v5.47c0,.19,0,.43,0,.74s0,.57,0,.81Z" transform="translate(-95.48)"/>
        <path d="M109,232.94h-1V221.6h1Z" transform="translate(-95.48)"/>
        <path d="M112,245.24v.22a2.38,2.38,0,0,1,0,.25h-5.82a2.73,2.73,0,0,0,.21,1,2.48,2.48,0,0,0,.54.81,2.59,2.59,0,0,0,.81.55,2.69,2.69,0,0,0,2.38-.17,2.75,2.75,0,0,0,.88-.85l.77.6a3.8,3.8,0,0,1-1.39,1.14,3.89,3.89,0,0,1-1.63.34,3.72,3.72,0,0,1-1.45-.28,3.38,3.38,0,0,1-1.15-.77,3.66,3.66,0,0,1-.76-1.17,3.84,3.84,0,0,1-.28-1.47,3.91,3.91,0,0,1,.27-1.47,3.56,3.56,0,0,1,.75-1.17,3.44,3.44,0,0,1,1.13-.77,3.5,3.5,0,0,1,1.39-.28A3.59,3.59,0,0,1,110,242a3,3,0,0,1,1,.75,3.23,3.23,0,0,1,.64,1.1A4.12,4.12,0,0,1,112,245.24Zm-1-.33a2.53,2.53,0,0,0-.64-1.64,2.16,2.16,0,0,0-1.69-.65,2.36,2.36,0,0,0-.95.19,2.5,2.5,0,0,0-.76.51,2.53,2.53,0,0,0-.53.74,2.36,2.36,0,0,0-.22.86Z" transform="translate(-95.48)"/>
        <path d="M109.07,265h-1.12l-2.87-7h1.14l2.28,5.94h0l2.29-5.94h1.09Z" transform="translate(-95.48)"/>
        <path d="M110.27,276.46a1.77,1.77,0,0,0-.48-1.36,2,2,0,0,0-1.39-.45,3,3,0,0,0-1.17.22,2.79,2.79,0,0,0-.92.6l-.57-.68a3.37,3.37,0,0,1,1.15-.72,4.32,4.32,0,0,1,1.61-.29,3.51,3.51,0,0,1,1.07.16,2.55,2.55,0,0,1,.87.47,2.16,2.16,0,0,1,.58.79,2.8,2.8,0,0,1,.21,1.13v3.08c0,.27,0,.55,0,.84a5.8,5.8,0,0,0,.09.74h-.92q0-.25-.08-.55a5.74,5.74,0,0,1,0-.58h0a3,3,0,0,1-1.09,1,3.21,3.21,0,0,1-1.46.31,3.25,3.25,0,0,1-.83-.11,2.32,2.32,0,0,1-.78-.37,2.07,2.07,0,0,1-.58-.66,2,2,0,0,1-.23-1,1.89,1.89,0,0,1,.41-1.29,2.48,2.48,0,0,1,1.1-.71,6.48,6.48,0,0,1,1.58-.3q.89-.07,1.85-.07Zm-.3,1q-.63,0-1.27.05a5.5,5.5,0,0,0-1.15.21,2.17,2.17,0,0,0-.85.46,1,1,0,0,0-.33.79,1.27,1.27,0,0,0,.14.63,1.17,1.17,0,0,0,.38.41,1.63,1.63,0,0,0,.53.22,2.63,2.63,0,0,0,.59.07,2.34,2.34,0,0,0,1-.19,2,2,0,0,0,.71-.51,2.26,2.26,0,0,0,.43-.74,2.62,2.62,0,0,0,.15-.89v-.52Z" transform="translate(-95.48)"/>
        <path d="M107.13,290.81c0-.3,0-.57,0-.81h1q0,.28,0,.63c0,.23,0,.42,0,.57h0a2.43,2.43,0,0,1,.9-1,2.46,2.46,0,0,1,1.35-.38l.35,0,.32.06-.14,1-.3-.06a3,3,0,0,0-.42,0,2.07,2.07,0,0,0-.78.15,1.68,1.68,0,0,0-.65.47,2.48,2.48,0,0,0-.45.82,3.71,3.71,0,0,0-.17,1.2V297h-1v-5.47Q107.15,291.26,107.13,290.81Z" transform="translate(-95.48)"/>
        <path d="M110.85,311.86a2.88,2.88,0,0,1-1.17,1,3.41,3.41,0,0,1-1.49.34,3.75,3.75,0,0,1-1.49-.29,3.38,3.38,0,0,1-1.14-.78,3.52,3.52,0,0,1-.74-1.17,4.16,4.16,0,0,1,0-2.91,3.51,3.51,0,0,1,.74-1.17,3.4,3.4,0,0,1,1.14-.78,3.77,3.77,0,0,1,1.49-.29,3.35,3.35,0,0,1,1.49.35,2.9,2.9,0,0,1,1.17,1h0V301.7h1V313h-1v-1.18Zm-5.21-2.33a3.36,3.36,0,0,0,.18,1.1,2.68,2.68,0,0,0,.52.9,2.37,2.37,0,0,0,.83.6,2.78,2.78,0,0,0,1.13.22,2.63,2.63,0,0,0,2.5-1.7,3.18,3.18,0,0,0,0-2.24,2.76,2.76,0,0,0-.56-.9,2.6,2.6,0,0,0-.85-.6,2.66,2.66,0,0,0-1.08-.22,2.7,2.7,0,0,0-1.12.22,2.45,2.45,0,0,0-.83.61,2.68,2.68,0,0,0-.52.9A3.35,3.35,0,0,0,105.64,309.53Z" transform="translate(-95.48)"/>
      </g>
      <g>
        <path d="M186.55,38.72h5.68v1h-6.76V29.06h6.58v1h-5.5v3.65h5.14v1h-5.14Z" transform="translate(-95.48)"/>
        <path d="M189,55.7h-1V44.36h1Z" transform="translate(-95.48)"/>
        <path d="M189.22,62a.67.67,0,0,1-.22.52.71.71,0,0,1-1,0,.71.71,0,0,1,0-1,.7.7,0,0,1,1,0A.67.67,0,0,1,189.22,62ZM189,71.72h-1v-7h1Z" transform="translate(-95.48)"/>
        <path d="M192.24,84.23A3.84,3.84,0,0,1,192,85.7a3.54,3.54,0,0,1-.77,1.17,3.5,3.5,0,0,1-1.19.77,4,4,0,0,1-1.51.28,4,4,0,0,1-1.5-.28,3.5,3.5,0,0,1-1.19-.77A3.54,3.54,0,0,1,185,85.7a4,4,0,0,1,0-2.94,3.55,3.55,0,0,1,.77-1.17,3.51,3.51,0,0,1,1.19-.77,4,4,0,0,1,1.5-.28,4,4,0,0,1,1.51.28,3.51,3.51,0,0,1,1.19.77,3.55,3.55,0,0,1,.77,1.17A3.84,3.84,0,0,1,192.24,84.23Zm-1.08,0a3.21,3.21,0,0,0-.19-1.1,2.71,2.71,0,0,0-.53-.9,2.53,2.53,0,0,0-.84-.61,2.66,2.66,0,0,0-1.11-.22,2.61,2.61,0,0,0-1.1.22,2.55,2.55,0,0,0-.83.61,2.71,2.71,0,0,0-.53.9,3.34,3.34,0,0,0,0,2.21,2.71,2.71,0,0,0,.53.9,2.47,2.47,0,0,0,.83.6,2.68,2.68,0,0,0,1.1.22,2.73,2.73,0,0,0,1.11-.22,2.45,2.45,0,0,0,.84-.6,2.71,2.71,0,0,0,.53-.9A3.22,3.22,0,0,0,191.16,84.23Z" transform="translate(-95.48)"/>
        <path d="M190.64,97.59h-2v4.09a2.3,2.3,0,0,0,.08.65.92.92,0,0,0,.22.4.75.75,0,0,0,.34.2,1.6,1.6,0,0,0,.42.05,1.77,1.77,0,0,0,.44-.06,2.2,2.2,0,0,0,.44-.17l0,.88a3,3,0,0,1-.56.16,3.59,3.59,0,0,1-.64.05,2.6,2.6,0,0,1-.6-.08,1.52,1.52,0,0,1-.58-.28,1.57,1.57,0,0,1-.44-.57,2.2,2.2,0,0,1-.17-.95V97.59h-1.46v-.85h1.46v-2h1v2h2Z" transform="translate(-95.48)"/>
        <path d="M190.83,120.41a2.6,2.6,0,0,0-.88-.77,2.7,2.7,0,0,0-1.3-.29,2.81,2.81,0,0,0-.79.12,2.32,2.32,0,0,0-.74.37,1.89,1.89,0,0,0-.53.62,1.84,1.84,0,0,0-.2.88,1.64,1.64,0,0,0,.19.84,1.85,1.85,0,0,0,.52.56,3,3,0,0,0,.73.38l.86.3,1.11.39a4,4,0,0,1,1,.55,2.64,2.64,0,0,1,.73.85,2.7,2.7,0,0,1,.28,1.31,2.92,2.92,0,0,1-.3,1.37,2.88,2.88,0,0,1-.79,1,3.28,3.28,0,0,1-1.11.55,4.49,4.49,0,0,1-1.25.18,4.85,4.85,0,0,1-1-.1,4.37,4.37,0,0,1-.92-.29,3.73,3.73,0,0,1-.81-.5A3.56,3.56,0,0,1,185,128l.93-.69a2.85,2.85,0,0,0,1,1,2.73,2.73,0,0,0,1.46.38,2.82,2.82,0,0,0,.82-.13,2.3,2.3,0,0,0,.76-.39,2.14,2.14,0,0,0,.55-.64,2,2,0,0,0,0-1.82,1.93,1.93,0,0,0-.58-.62,3.54,3.54,0,0,0-.83-.41l-1-.33q-.53-.16-1-.37a3.49,3.49,0,0,1-.92-.55,2.56,2.56,0,0,1-.65-.83,3,3,0,0,1,.06-2.54,2.78,2.78,0,0,1,.8-.92,3.35,3.35,0,0,1,1.09-.52,4.44,4.44,0,0,1,1.19-.17,4.09,4.09,0,0,1,1.84.38,3.17,3.17,0,0,1,1.16.91Z" transform="translate(-95.48)"/>
        <path d="M190.64,139.17h-2v4.09a2.3,2.3,0,0,0,.08.65.92.92,0,0,0,.22.4.75.75,0,0,0,.34.2,1.6,1.6,0,0,0,.42.05,1.77,1.77,0,0,0,.44-.06,2.2,2.2,0,0,0,.44-.17l0,.88a3,3,0,0,1-.56.16,3.59,3.59,0,0,1-.64.05,2.6,2.6,0,0,1-.6-.08,1.52,1.52,0,0,1-.58-.28,1.57,1.57,0,0,1-.44-.57,2.2,2.2,0,0,1-.17-.95v-4.38h-1.46v-.85h1.46v-2h1v2h2Z" transform="translate(-95.48)"/>
      </g>
      <g>
        <path d="M299.45,73a4.47,4.47,0,0,1-.65.77,4.24,4.24,0,0,1-.88.63,5,5,0,0,1-1.11.43,5.2,5.2,0,0,1-1.33.16,5.77,5.77,0,0,1-2.22-.42,5.22,5.22,0,0,1-1.75-1.16,5.28,5.28,0,0,1-1.15-1.76,5.9,5.9,0,0,1-.41-2.23,5.81,5.81,0,0,1,.42-2.24,5.27,5.27,0,0,1,2.92-2.92,5.67,5.67,0,0,1,2.2-.42,5.43,5.43,0,0,1,2.21.46,4.52,4.52,0,0,1,.9.53,3.13,3.13,0,0,1,.67.7l-.9.66a2.71,2.71,0,0,0-.44-.51,3,3,0,0,0-.65-.45,4.09,4.09,0,0,0-.82-.31,3.63,3.63,0,0,0-1-.12,4.41,4.41,0,0,0-1.85.37,4.17,4.17,0,0,0-1.39,1,4.38,4.38,0,0,0-.87,1.47,5.19,5.19,0,0,0-.3,1.76,5.07,5.07,0,0,0,.31,1.76,4.5,4.5,0,0,0,.88,1.47,4.16,4.16,0,0,0,1.39,1,4.37,4.37,0,0,0,1.84.37,4.14,4.14,0,0,0,1.74-.37,3.29,3.29,0,0,0,1.38-1.2Z" transform="translate(-95.48)"/>
        <path d="M295,90.71h-1V79.37h1Z" transform="translate(-95.48)"/>
        <path d="M296.27,102.18a1.77,1.77,0,0,0-.48-1.36,2,2,0,0,0-1.39-.45,3,3,0,0,0-1.17.22,2.79,2.79,0,0,0-.92.6l-.57-.68a3.37,3.37,0,0,1,1.15-.72,4.32,4.32,0,0,1,1.61-.29,3.51,3.51,0,0,1,1.07.16,2.55,2.55,0,0,1,.87.47,2.16,2.16,0,0,1,.58.79,2.8,2.8,0,0,1,.21,1.13v3.08c0,.27,0,.55,0,.84a5.8,5.8,0,0,0,.09.74h-.92q0-.25-.08-.55a5.74,5.74,0,0,1,0-.58h0a3,3,0,0,1-1.09,1,3.21,3.21,0,0,1-1.46.31,3.25,3.25,0,0,1-.83-.11,2.32,2.32,0,0,1-.78-.37,2.07,2.07,0,0,1-.58-.66,2,2,0,0,1-.23-1,1.89,1.89,0,0,1,.41-1.29,2.48,2.48,0,0,1,1.1-.71,6.48,6.48,0,0,1,1.58-.3q.89-.07,1.85-.07Zm-.3,1q-.63,0-1.27.05a5.5,5.5,0,0,0-1.15.21,2.17,2.17,0,0,0-.85.46,1,1,0,0,0-.33.79,1.27,1.27,0,0,0,.14.63,1.17,1.17,0,0,0,.38.41,1.63,1.63,0,0,0,.53.22,2.63,2.63,0,0,0,.59.07,2.34,2.34,0,0,0,1-.19,2,2,0,0,0,.71-.51,2.26,2.26,0,0,0,.43-.74,2.62,2.62,0,0,0,.15-.89v-.52Z" transform="translate(-95.48)"/>
        <path d="M294.6,121.65h0l2.17-5.92h1.11l-3.5,8.83a3.7,3.7,0,0,1-.8,1.3,1.9,1.9,0,0,1-1.4.49,4.61,4.61,0,0,1-.92-.09l.11-.93a2.35,2.35,0,0,0,.75.12,1.07,1.07,0,0,0,.82-.32,2.8,2.8,0,0,0,.53-.92l.57-1.47-3-7h1.14Z" transform="translate(-95.48)"/>
        <path d="M296.83,139.4a2.6,2.6,0,0,0-.88-.77,2.7,2.7,0,0,0-1.3-.29,2.81,2.81,0,0,0-.79.12,2.32,2.32,0,0,0-.74.37,1.89,1.89,0,0,0-.53.62,1.84,1.84,0,0,0-.2.88,1.64,1.64,0,0,0,.19.84,1.85,1.85,0,0,0,.52.56,3,3,0,0,0,.73.38l.86.3,1.11.39a4,4,0,0,1,1,.55,2.64,2.64,0,0,1,.73.85,2.7,2.7,0,0,1,.28,1.31,2.92,2.92,0,0,1-.3,1.37,2.88,2.88,0,0,1-.79,1,3.28,3.28,0,0,1-1.11.55,4.49,4.49,0,0,1-1.25.18,4.85,4.85,0,0,1-1-.1,4.37,4.37,0,0,1-.92-.29,3.73,3.73,0,0,1-.81-.5A3.56,3.56,0,0,1,291,147l.93-.69a2.85,2.85,0,0,0,1,1,2.73,2.73,0,0,0,1.46.38,2.82,2.82,0,0,0,.82-.13,2.3,2.3,0,0,0,.76-.39,2.14,2.14,0,0,0,.55-.64,2,2,0,0,0,0-1.82,1.93,1.93,0,0,0-.58-.62,3.54,3.54,0,0,0-.83-.41l-1-.33q-.53-.16-1-.37a3.49,3.49,0,0,1-.92-.55,2.56,2.56,0,0,1-.65-.83,3,3,0,0,1,.06-2.54,2.78,2.78,0,0,1,.8-.92,3.35,3.35,0,0,1,1.09-.52,4.44,4.44,0,0,1,1.19-.17,4.09,4.09,0,0,1,1.84.38,3.17,3.17,0,0,1,1.16.91Z" transform="translate(-95.48)"/>
        <path d="M296.64,158.16h-2v4.09a2.3,2.3,0,0,0,.08.65.92.92,0,0,0,.22.4.75.75,0,0,0,.34.2,1.6,1.6,0,0,0,.42.05,1.77,1.77,0,0,0,.44-.06,2.2,2.2,0,0,0,.44-.17l0,.88a3,3,0,0,1-.56.16,3.59,3.59,0,0,1-.64.05,2.6,2.6,0,0,1-.6-.08,1.52,1.52,0,0,1-.58-.28,1.57,1.57,0,0,1-.44-.57,2.2,2.2,0,0,1-.17-.95v-4.38h-1.46v-.85h1.46v-2h1v2h2Z" transform="translate(-95.48)"/>
      </g>
      <g>
        <path d="M394.58,193.67H393.4L398,183h1l4.56,10.62h-1.2l-1.17-2.79h-5.49Zm1.56-3.78h4.68l-2.34-5.64Z" transform="translate(-95.48)"/>
        <path d="M399,209.69h-1V198.35h1Z" transform="translate(-95.48)"/>
        <path d="M401.16,220.29a1.94,1.94,0,0,0-.74-.67,2.18,2.18,0,0,0-1.06-.26,2.74,2.74,0,0,0-1.11.22,2.52,2.52,0,0,0-.85.6,2.63,2.63,0,0,0-.54.9,3.26,3.26,0,0,0-.19,1.12,3.19,3.19,0,0,0,.19,1.11,2.72,2.72,0,0,0,.53.89,2.45,2.45,0,0,0,.84.6,2.73,2.73,0,0,0,1.11.22,2.24,2.24,0,0,0,1.91-.92l.76.57a3.33,3.33,0,0,1-1.1.88,3.43,3.43,0,0,1-1.57.33,4.1,4.1,0,0,1-1.54-.28,3.42,3.42,0,0,1-1.18-.77,3.49,3.49,0,0,1-.76-1.17,4.13,4.13,0,0,1,0-2.94,3.5,3.5,0,0,1,.76-1.17,3.43,3.43,0,0,1,1.18-.77,4.11,4.11,0,0,1,1.54-.28,3.66,3.66,0,0,1,1.43.31,2.81,2.81,0,0,1,1.18.91Z" transform="translate(-95.48)"/>
        <path d="M402.24,238.22a3.84,3.84,0,0,1-.28,1.47,3.54,3.54,0,0,1-.77,1.17,3.5,3.5,0,0,1-1.19.77,4,4,0,0,1-1.51.28,4,4,0,0,1-1.5-.28,3.5,3.5,0,0,1-1.19-.77,3.54,3.54,0,0,1-.77-1.17,4,4,0,0,1,0-2.94,3.55,3.55,0,0,1,.77-1.17,3.51,3.51,0,0,1,1.19-.77,4,4,0,0,1,1.5-.28,4,4,0,0,1,1.51.28,3.51,3.51,0,0,1,1.19.77,3.55,3.55,0,0,1,.77,1.17A3.84,3.84,0,0,1,402.24,238.22Zm-1.08,0a3.21,3.21,0,0,0-.19-1.1,2.71,2.71,0,0,0-.53-.9,2.53,2.53,0,0,0-.84-.61,2.66,2.66,0,0,0-1.11-.22,2.61,2.61,0,0,0-1.1.22,2.55,2.55,0,0,0-.83.61,2.71,2.71,0,0,0-.53.9,3.34,3.34,0,0,0,0,2.21,2.71,2.71,0,0,0,.53.9,2.47,2.47,0,0,0,.83.6,2.68,2.68,0,0,0,1.1.22,2.73,2.73,0,0,0,1.11-.22,2.45,2.45,0,0,0,.84-.6,2.71,2.71,0,0,0,.53-.9A3.22,3.22,0,0,0,401.16,238.22Z" transform="translate(-95.48)"/>
        <path d="M400.64,251.58h-2v4.09a2.3,2.3,0,0,0,.08.65.92.92,0,0,0,.22.4.75.75,0,0,0,.34.2,1.6,1.6,0,0,0,.42.05,1.77,1.77,0,0,0,.44-.06,2.2,2.2,0,0,0,.44-.17l0,.88a3,3,0,0,1-.56.16,3.59,3.59,0,0,1-.64.05,2.6,2.6,0,0,1-.6-.08,1.52,1.52,0,0,1-.58-.28,1.57,1.57,0,0,1-.44-.57,2.2,2.2,0,0,1-.17-.95v-4.38h-1.46v-.85h1.46v-2h1v2h2Z" transform="translate(-95.48)"/>
        <path d="M400.64,267.6h-2v4.09a2.3,2.3,0,0,0,.08.65.92.92,0,0,0,.22.4.75.75,0,0,0,.34.2,1.6,1.6,0,0,0,.42.05,1.77,1.77,0,0,0,.44-.06,2.2,2.2,0,0,0,.44-.17l0,.88a3,3,0,0,1-.56.16,3.59,3.59,0,0,1-.64.05,2.6,2.6,0,0,1-.6-.08,1.52,1.52,0,0,1-.58-.28,1.57,1.57,0,0,1-.44-.57,2.2,2.2,0,0,1-.17-.95V267.6h-1.46v-.85h1.46v-2h1v2h2Z" transform="translate(-95.48)"/>
        <path d="M400.83,290.42a2.6,2.6,0,0,0-.88-.77,2.7,2.7,0,0,0-1.3-.29,2.81,2.81,0,0,0-.79.12,2.32,2.32,0,0,0-.74.37,1.89,1.89,0,0,0-.53.62,1.84,1.84,0,0,0-.2.88,1.64,1.64,0,0,0,.19.84,1.85,1.85,0,0,0,.52.56,3,3,0,0,0,.73.38l.86.3,1.11.39a4,4,0,0,1,1,.55,2.64,2.64,0,0,1,.73.85,2.7,2.7,0,0,1,.28,1.31,2.92,2.92,0,0,1-.3,1.37,2.88,2.88,0,0,1-.79,1,3.28,3.28,0,0,1-1.11.55,4.49,4.49,0,0,1-1.25.18,4.85,4.85,0,0,1-1-.1,4.37,4.37,0,0,1-.92-.29,3.73,3.73,0,0,1-.81-.5A3.56,3.56,0,0,1,395,298l.93-.69a2.85,2.85,0,0,0,1,1,2.73,2.73,0,0,0,1.46.38,2.82,2.82,0,0,0,.82-.13,2.3,2.3,0,0,0,.76-.39,2.14,2.14,0,0,0,.55-.64,2,2,0,0,0,0-1.82,1.93,1.93,0,0,0-.58-.62,3.54,3.54,0,0,0-.83-.41l-1-.33q-.53-.16-1-.37a3.49,3.49,0,0,1-.92-.55,2.56,2.56,0,0,1-.65-.83,3,3,0,0,1,.06-2.54,2.78,2.78,0,0,1,.8-.92,3.35,3.35,0,0,1,1.09-.52,4.44,4.44,0,0,1,1.19-.17,4.09,4.09,0,0,1,1.84.38,3.17,3.17,0,0,1,1.16.91Z" transform="translate(-95.48)"/>
        <path d="M400.64,309.18h-2v4.09a2.3,2.3,0,0,0,.08.65.92.92,0,0,0,.22.4.75.75,0,0,0,.34.2,1.6,1.6,0,0,0,.42.05,1.77,1.77,0,0,0,.44-.06,2.2,2.2,0,0,0,.44-.17l0,.88a3,3,0,0,1-.56.16,3.59,3.59,0,0,1-.64.05,2.6,2.6,0,0,1-.6-.08,1.52,1.52,0,0,1-.58-.28,1.57,1.57,0,0,1-.44-.57,2.2,2.2,0,0,1-.17-.95v-4.38h-1.46v-.85h1.46v-2h1v2h2Z" transform="translate(-95.48)"/>
      </g>
      <g>
        <path d="M514.38,179.13l-.84-.67,6.61-8.31.85.67Z" transform="translate(-95.48)"/>
        <path d="M508.37,186.54,499,198.28l-.7-.56L507.67,186Z" transform="translate(-95.48)"/>
        <path d="M493.54,209.59l-5.31-4.22.7-.88,6.14-.73c.22,0,.46-.06.69-.11a4.58,4.58,0,0,0,.68-.2,2.87,2.87,0,0,0,.62-.32,2.36,2.36,0,0,0,.52-.48,2.05,2.05,0,0,0,.39-.76,1.83,1.83,0,0,0,0-.79,2.09,2.09,0,0,0-.28-.74,2.31,2.31,0,0,0-.54-.61,2.06,2.06,0,0,0-1.46-.48,2.41,2.41,0,0,0-1.43.59l-.7-.83a3.07,3.07,0,0,1,1-.56,3.17,3.17,0,0,1,1.08-.2,3.28,3.28,0,0,1,1.09.18,3.41,3.41,0,0,1,1,.58,3.89,3.89,0,0,1,.84.91,2.92,2.92,0,0,1,.44,1.06,2.7,2.7,0,0,1,0,1.15,2.94,2.94,0,0,1-.59,1.15,3,3,0,0,1-.7.65,4,4,0,0,1-.81.41,4.9,4.9,0,0,1-.89.24l-1,.13-5.36.59,4.4,3.5Z" transform="translate(-95.48)"/>
        <path d="M489.25,214.3l-3.46-2.75-2.1,2.52a4.17,4.17,0,0,1,.68.31,4.79,4.79,0,0,1,.62.41,3.81,3.81,0,0,1,.93,1,3.24,3.24,0,0,1,.43,1.21,3,3,0,0,1-.1,1.28,3.49,3.49,0,0,1-.64,1.21,3.9,3.9,0,0,1-1.08,1,3.21,3.21,0,0,1-2.59.32,3.7,3.7,0,0,1-1.29-.68,3.35,3.35,0,0,1-1.28-3.49l1,.27a2.38,2.38,0,0,0,0,1.36,2.25,2.25,0,0,0,.76,1.1,2.59,2.59,0,0,0,.9.47,2.32,2.32,0,0,0,.94.08,2.41,2.41,0,0,0,.9-.31,2.83,2.83,0,0,0,1.27-1.62,2.34,2.34,0,0,0,.07-1,2.46,2.46,0,0,0-.33-.92,3,3,0,0,0-.71-.79,4.17,4.17,0,0,0-1-.58,5.31,5.31,0,0,0-1.11-.33l3.49-4.22,4.24,3.37Z" transform="translate(-95.48)"/>
      </g>
      <g>
        <path d="M304.14,44.73a2.6,2.6,0,0,0-.41-1.1,2.72,2.72,0,0,0-1-.88,2.83,2.83,0,0,0-.75-.28,2.28,2.28,0,0,0-.82,0,1.8,1.8,0,0,0-1.37,1,1.66,1.66,0,0,0-.23.83,1.86,1.86,0,0,0,.19.74,3,3,0,0,0,.46.69l.61.67c.27.28.53.57.79.88a4,4,0,0,1,.63,1,2.65,2.65,0,0,1,.24,1.1,2.7,2.7,0,0,1-.38,1.29,2.9,2.9,0,0,1-.92,1.06,2.87,2.87,0,0,1-1.15.46,3.31,3.31,0,0,1-1.24,0,4.51,4.51,0,0,1-1.19-.44,4.87,4.87,0,0,1-.8-.54,4.37,4.37,0,0,1-.66-.7,3.73,3.73,0,0,1-.47-.82,3.62,3.62,0,0,1-.25-.92l1.15-.16a2.85,2.85,0,0,0,.4,1.3,2.89,2.89,0,0,0,1.89,1.32,2.27,2.27,0,0,0,.85,0,2.13,2.13,0,0,0,.79-.3,2,2,0,0,0,.87-1.6,1.91,1.91,0,0,0-.21-.81,3.48,3.48,0,0,0-.53-.76l-.7-.76c-.26-.26-.5-.54-.73-.82a3.5,3.5,0,0,1-.54-.92,2.55,2.55,0,0,1-.18-1,3,3,0,0,1,1.26-2.2,2.78,2.78,0,0,1,1.14-.42,3.3,3.3,0,0,1,1.21.06,4.37,4.37,0,0,1,1.12.42,4.08,4.08,0,0,1,1.44,1.22,3.17,3.17,0,0,1,.58,1.35Z" transform="translate(-95.48)"/>
        <path d="M302.82,58.25l-.9-.49L307,48.43l.9.49L307.31,50l0,0a2.81,2.81,0,0,1,1.52-.36,3.39,3.39,0,0,1,1.47.4,3.77,3.77,0,0,1,1.18,1,3.41,3.41,0,0,1,.63,1.23,3.55,3.55,0,0,1,.09,1.38,4.19,4.19,0,0,1-1.39,2.56,3.53,3.53,0,0,1-1.21.68,3.39,3.39,0,0,1-1.37.14,3.76,3.76,0,0,1-1.45-.46,3.36,3.36,0,0,1-1.13-1,2.85,2.85,0,0,1-.54-1.45l0,0Zm8-3.74a3.33,3.33,0,0,0,.37-1.05,2.67,2.67,0,0,0,0-1,2.44,2.44,0,0,0-.44-.93,2.87,2.87,0,0,0-1.93-1.06,2.61,2.61,0,0,0-1,.12,2.82,2.82,0,0,0-.92.52,3.06,3.06,0,0,0-.71.89,3,3,0,0,0-.36,1.08,2.7,2.7,0,0,0,.07,1.05,2.65,2.65,0,0,0,1.31,1.64,2.8,2.8,0,0,0,1.09.35,2.39,2.39,0,0,0,1-.13,2.67,2.67,0,0,0,.88-.54A3.34,3.34,0,0,0,310.81,54.5Z" transform="translate(-95.48)"/>
        <path d="M320.3,59.42l-.11.2-.14.22-5.11-2.78a2.71,2.71,0,0,0-.29,1,2.49,2.49,0,0,0,.09,1,2.63,2.63,0,0,0,.45.87,2.68,2.68,0,0,0,2.17,1,2.73,2.73,0,0,0,1.18-.33l.38.89a3.8,3.8,0,0,1-1.76.34,3.88,3.88,0,0,1-1.59-.47,3.74,3.74,0,0,1-1.14-.94,3.39,3.39,0,0,1-.64-1.23,3.65,3.65,0,0,1-.11-1.39,3.82,3.82,0,0,1,.46-1.42,3.91,3.91,0,0,1,.94-1.16,3.56,3.56,0,0,1,1.22-.67,3.45,3.45,0,0,1,1.36-.14,3.51,3.51,0,0,1,1.36.42,3.59,3.59,0,0,1,1.14.94,3,3,0,0,1,.56,1.16,3.22,3.22,0,0,1,0,1.27A4.13,4.13,0,0,1,320.3,59.42Zm-.75-.79a2.53,2.53,0,0,0,.22-1.75,2.16,2.16,0,0,0-1.17-1.38,2.31,2.31,0,0,0-.92-.29,2.47,2.47,0,0,0-.91.08,2.54,2.54,0,0,0-.81.39,2.36,2.36,0,0,0-.61.65Z" transform="translate(-95.48)"/>
        <path d="M328.73,64l-.11.2-.14.22-5.11-2.78a2.76,2.76,0,0,0-.29,1,2.52,2.52,0,0,0,.09,1,2.59,2.59,0,0,0,.45.87,2.69,2.69,0,0,0,2.17,1,2.75,2.75,0,0,0,1.18-.33l.38.89a3.79,3.79,0,0,1-1.76.34,3.93,3.93,0,0,1-1.59-.47,3.76,3.76,0,0,1-1.14-.94,3.37,3.37,0,0,1-.64-1.23,3.63,3.63,0,0,1-.11-1.39,3.82,3.82,0,0,1,.46-1.42,3.92,3.92,0,0,1,.94-1.16,3.56,3.56,0,0,1,1.22-.67,3.45,3.45,0,0,1,1.36-.14,3.51,3.51,0,0,1,1.36.42,3.6,3.6,0,0,1,1.15.94,3,3,0,0,1,.56,1.16,3.22,3.22,0,0,1,0,1.27A4.14,4.14,0,0,1,328.73,64Zm-.75-.79a2.53,2.53,0,0,0,.22-1.75A2.16,2.16,0,0,0,327,60.1a2.37,2.37,0,0,0-.92-.29,2.51,2.51,0,0,0-1.73.48,2.37,2.37,0,0,0-.61.65Z" transform="translate(-95.48)"/>
        <path d="M332.73,63.35c.13-.27.25-.51.35-.73l.86.46c-.07.18-.16.37-.26.57s-.19.38-.26.51h0a2.42,2.42,0,0,1,1.27-.45,2.44,2.44,0,0,1,1.37.31l.3.18a1.82,1.82,0,0,1,.25.21l-.58.79a1.73,1.73,0,0,0-.24-.2,3,3,0,0,0-.35-.23,2.07,2.07,0,0,0-.76-.24,1.68,1.68,0,0,0-.8.1,2.5,2.5,0,0,0-.79.51,3.76,3.76,0,0,0-.73,1l-1.72,3.15-.9-.49L332.39,64Z" transform="translate(-95.48)"/>
        <path d="M348.92,67.13l2.78,1.51a6.08,6.08,0,0,1,1,.69,3.28,3.28,0,0,1,.76.91,2.4,2.4,0,0,1,.3,1.11,2.57,2.57,0,0,1-.36,1.31,2.22,2.22,0,0,1-1.15,1,2.4,2.4,0,0,1-1.6.06v0a2.8,2.8,0,0,1,1.12,1.52,2.51,2.51,0,0,1-.29,2,2.61,2.61,0,0,1-2,1.37,3.76,3.76,0,0,1-1.38-.07,6.08,6.08,0,0,1-1.54-.6l-2.76-1.5Zm-3.68,9,1.77,1a5.34,5.34,0,0,0,1,.44,2.9,2.9,0,0,0,1,.13,1.91,1.91,0,0,0,.87-.26,2.05,2.05,0,0,0,.79-2.44,3.39,3.39,0,0,0-1.53-1.42l-1.94-1.05Zm2.41-4.43,1.91,1a3.68,3.68,0,0,0,.73.3,2.21,2.21,0,0,0,.79.08,1.67,1.67,0,0,0,.74-.25,1.79,1.79,0,0,0,.6-.68,1.71,1.71,0,0,0,.24-.86,1.67,1.67,0,0,0-.21-.77,2.37,2.37,0,0,0-.56-.67,4.82,4.82,0,0,0-.82-.56l-1.65-.9Z" transform="translate(-95.48)"/>
        <path d="M354,82l-.9-.49,5.42-10,.9.49Z" transform="translate(-95.48)"/>
        <path d="M359.82,85.15l-1-.54.84-7.53,1,.54-.83,6.31h0l4.85-4.12,1,.52Z" transform="translate(-95.48)"/>
        <path d="M370.25,89.48a2.9,2.9,0,0,1-1.52.34,3.42,3.42,0,0,1-1.47-.41,3.75,3.75,0,0,1-1.18-1,3.39,3.39,0,0,1-.63-1.23,3.52,3.52,0,0,1-.09-1.38,4.15,4.15,0,0,1,1.39-2.56,3.48,3.48,0,0,1,1.2-.68,3.39,3.39,0,0,1,1.37-.14,3.74,3.74,0,0,1,1.45.46,3.35,3.35,0,0,1,1.14,1,2.9,2.9,0,0,1,.53,1.47l0,0,2.65-4.86.9.49-5.42,10-.9-.49.57-1Zm-3.46-4.53a3.36,3.36,0,0,0-.37,1.05,2.67,2.67,0,0,0,0,1,2.38,2.38,0,0,0,.45.93,2.78,2.78,0,0,0,.88.73,2.65,2.65,0,0,0,1.05.32,2.61,2.61,0,0,0,1-.11,2.7,2.7,0,0,0,.92-.52,3.18,3.18,0,0,0,1.07-2,2.74,2.74,0,0,0-.06-1.06,2.61,2.61,0,0,0-.46-.94,2.67,2.67,0,0,0-.85-.71,2.71,2.71,0,0,0-1.1-.34,2.44,2.44,0,0,0-1,.14,2.67,2.67,0,0,0-.88.54A3.39,3.39,0,0,0,366.79,84.95Z" transform="translate(-95.48)"/>
      </g>
      <g>
        <path d="M197.75,166.2H191v-1.12l4.35-4.39c.16-.16.32-.33.47-.52a4.63,4.63,0,0,0,.41-.58,2.9,2.9,0,0,0,.29-.64,2.35,2.35,0,0,0,.1-.7,2.06,2.06,0,0,0-.17-.84,1.84,1.84,0,0,0-.46-.64,2.1,2.1,0,0,0-.67-.4,2.26,2.26,0,0,0-.8-.14,2.06,2.06,0,0,0-1.44.53,2.43,2.43,0,0,0-.75,1.36l-1.06-.21a3.05,3.05,0,0,1,.4-1,3.18,3.18,0,0,1,.72-.83,3.36,3.36,0,0,1,1-.54,3.42,3.42,0,0,1,1.17-.19,3.94,3.94,0,0,1,1.22.19,2.94,2.94,0,0,1,1,.55,2.71,2.71,0,0,1,.69.92,2.93,2.93,0,0,1,.26,1.27,3,3,0,0,1-.14.95,4.05,4.05,0,0,1-.37.82,4.81,4.81,0,0,1-.55.74q-.31.35-.66.7l-3.83,3.79h5.63Z" transform="translate(-95.48)"/>
        <path d="M202.93,160.21l0,0a1.85,1.85,0,0,1,.67-.29,3.61,3.61,0,0,1,.84-.1,3.4,3.4,0,0,1,1.28.24,3.12,3.12,0,0,1,1,.67,3,3,0,0,1,.68,1,3.49,3.49,0,0,1,.25,1.33,3.53,3.53,0,0,1-.25,1.37,3,3,0,0,1-.72,1,3.41,3.41,0,0,1-1.09.68,4,4,0,0,1-2.76,0,3.4,3.4,0,0,1-1.09-.68,3,3,0,0,1-.72-1,3.52,3.52,0,0,1-.25-1.37,4.06,4.06,0,0,1,.28-1.53,9.41,9.41,0,0,1,.68-1.35l2.89-4.67h1.25Zm-1,2.91a2.64,2.64,0,0,0,.17,1,2.25,2.25,0,0,0,.49.76,2.31,2.31,0,0,0,.75.51,2.55,2.55,0,0,0,1.92,0,2.31,2.31,0,0,0,.75-.51,2.25,2.25,0,0,0,.49-.76,2.66,2.66,0,0,0,.17-1,2.69,2.69,0,0,0-.17-1,2.22,2.22,0,0,0-.47-.77,2.13,2.13,0,0,0-.75-.5,2.78,2.78,0,0,0-2,0,2.13,2.13,0,0,0-.75.5,2.23,2.23,0,0,0-.47.77A2.72,2.72,0,0,0,201.9,163.12Z" transform="translate(-95.48)"/>
        <path d="M214.15,160h-2v4.09a2.3,2.3,0,0,0,.08.65.92.92,0,0,0,.22.4.75.75,0,0,0,.34.2,1.6,1.6,0,0,0,.42.05,1.77,1.77,0,0,0,.44-.06,2.2,2.2,0,0,0,.44-.17l0,.88a3,3,0,0,1-.56.16,3.59,3.59,0,0,1-.64.05,2.6,2.6,0,0,1-.6-.08,1.52,1.52,0,0,1-.58-.28,1.57,1.57,0,0,1-.44-.57,2.2,2.2,0,0,1-.17-.95V160H209.7v-.85h1.46v-2h1v2h2Z" transform="translate(-95.48)"/>
        <path d="M217.84,160.33a2.12,2.12,0,0,1,.95-1,2.9,2.9,0,0,1,1.41-.36,2.47,2.47,0,0,1,2,.79,3.16,3.16,0,0,1,.67,2.1v4.3h-1v-3.88a5.1,5.1,0,0,0-.09-1,2.08,2.08,0,0,0-.31-.77,1.47,1.47,0,0,0-.58-.5,2.09,2.09,0,0,0-.92-.18,2,2,0,0,0-.79.17,1.93,1.93,0,0,0-.68.5,2.51,2.51,0,0,0-.48.86,3.72,3.72,0,0,0-.18,1.22v3.6h-1V154.86h1v5.47Z" transform="translate(-95.48)"/>
        <path d="M235.78,166.2H234.6l4.59-10.62h1l4.56,10.62h-1.2l-1.17-2.79h-5.49Zm1.56-3.78H242l-2.34-5.64Z" transform="translate(-95.48)"/>
        <path d="M250.11,166.2H249l-2.87-7h1.14l2.28,5.94h0l2.29-5.94H253Z" transform="translate(-95.48)"/>
        <path d="M262,162.48v.22a2.38,2.38,0,0,1,0,.25h-5.82a2.73,2.73,0,0,0,.21,1,2.48,2.48,0,0,0,.54.81,2.59,2.59,0,0,0,.81.55,2.69,2.69,0,0,0,2.38-.17,2.75,2.75,0,0,0,.88-.85l.77.6a3.8,3.8,0,0,1-1.39,1.14,3.89,3.89,0,0,1-1.63.34,3.72,3.72,0,0,1-1.45-.28,3.38,3.38,0,0,1-1.15-.77,3.66,3.66,0,0,1-.76-1.17,3.84,3.84,0,0,1-.28-1.47,3.91,3.91,0,0,1,.27-1.47,3.56,3.56,0,0,1,.75-1.17,3.44,3.44,0,0,1,1.13-.77,3.5,3.5,0,0,1,1.39-.28,3.59,3.59,0,0,1,1.46.28,3,3,0,0,1,1,.75,3.23,3.23,0,0,1,.64,1.1A4.12,4.12,0,0,1,262,162.48Zm-1-.33a2.53,2.53,0,0,0-.64-1.64,2.16,2.16,0,0,0-1.69-.65,2.36,2.36,0,0,0-.95.19,2.5,2.5,0,0,0-.76.51,2.53,2.53,0,0,0-.53.74,2.36,2.36,0,0,0-.22.86Z" transform="translate(-95.48)"/>
      </g>
      <g>
        <path d="M110.75,17.2H104V16.07l4.35-4.39c.16-.16.32-.33.47-.52a4.63,4.63,0,0,0,.41-.58,2.9,2.9,0,0,0,.29-.64,2.35,2.35,0,0,0,.1-.7,2.06,2.06,0,0,0-.17-.84,1.84,1.84,0,0,0-.46-.64,2.1,2.1,0,0,0-.67-.4,2.26,2.26,0,0,0-.8-.14,2.06,2.06,0,0,0-1.44.53,2.43,2.43,0,0,0-.75,1.36l-1.06-.21a3.05,3.05,0,0,1,.4-1,3.18,3.18,0,0,1,.72-.83,3.36,3.36,0,0,1,1-.54,3.42,3.42,0,0,1,1.17-.19,3.94,3.94,0,0,1,1.22.19,2.94,2.94,0,0,1,1,.55,2.71,2.71,0,0,1,.69.92,2.93,2.93,0,0,1,.26,1.27,3,3,0,0,1-.14.95,4.05,4.05,0,0,1-.37.82,4.81,4.81,0,0,1-.55.74q-.31.35-.66.7l-3.83,3.79h5.63Z" transform="translate(-95.48)"/>
        <path d="M118.63,12.56l0,0a1.85,1.85,0,0,1-.67.29,3.55,3.55,0,0,1-.84.1,3.38,3.38,0,0,1-1.28-.24,3.11,3.11,0,0,1-1-.67,3,3,0,0,1-.68-1,3.48,3.48,0,0,1-.25-1.33,3.55,3.55,0,0,1,.25-1.36,3,3,0,0,1,.72-1.06,3.4,3.4,0,0,1,1.09-.68,4,4,0,0,1,2.76,0,3.42,3.42,0,0,1,1.1.68,3,3,0,0,1,.72,1.06,3.55,3.55,0,0,1,.25,1.36,4.06,4.06,0,0,1-.29,1.53,9.51,9.51,0,0,1-.67,1.35l-2.9,4.67h-1.24Zm1-2.91a2.65,2.65,0,0,0-.17-1,2.23,2.23,0,0,0-.49-.77,2.32,2.32,0,0,0-.75-.51,2.55,2.55,0,0,0-1.92,0,2.32,2.32,0,0,0-.75.51,2.23,2.23,0,0,0-.49.77,2.65,2.65,0,0,0-.17,1,2.69,2.69,0,0,0,.17,1,2.22,2.22,0,0,0,.47.77,2.13,2.13,0,0,0,.75.5,2.76,2.76,0,0,0,2,0,2.13,2.13,0,0,0,.75-.5,2.22,2.22,0,0,0,.47-.77A2.69,2.69,0,0,0,119.67,9.65Z" transform="translate(-95.48)"/>
        <path d="M127.15,11h-2v4.09a2.3,2.3,0,0,0,.08.65.92.92,0,0,0,.22.4.75.75,0,0,0,.34.2,1.6,1.6,0,0,0,.42.05,1.77,1.77,0,0,0,.44-.06,2.2,2.2,0,0,0,.44-.17l0,.88a3,3,0,0,1-.56.16,3.59,3.59,0,0,1-.64.05,2.6,2.6,0,0,1-.6-.08,1.52,1.52,0,0,1-.58-.28,1.57,1.57,0,0,1-.44-.57,2.2,2.2,0,0,1-.17-.95V11H122.7v-.85h1.46v-2h1v2h2Z" transform="translate(-95.48)"/>
        <path d="M130.84,11.33a2.12,2.12,0,0,1,.95-1A2.9,2.9,0,0,1,133.2,10a2.47,2.47,0,0,1,2,.79,3.16,3.16,0,0,1,.67,2.1v4.3h-1V13.31a5.1,5.1,0,0,0-.09-1,2.08,2.08,0,0,0-.31-.77,1.47,1.47,0,0,0-.58-.5,2.09,2.09,0,0,0-.92-.18,2,2,0,0,0-.79.17,1.93,1.93,0,0,0-.68.5,2.51,2.51,0,0,0-.48.86,3.72,3.72,0,0,0-.18,1.22v3.6h-1V5.86h1v5.47Z" transform="translate(-95.48)"/>
        <path d="M148.78,17.2H147.6l4.59-10.62h1L157.8,17.2h-1.2l-1.17-2.79h-5.49Zm1.56-3.78H155l-2.34-5.64Z" transform="translate(-95.48)"/>
        <path d="M163.11,17.2H162l-2.87-7h1.14l2.28,5.94h0l2.29-5.94H166Z" transform="translate(-95.48)"/>
        <path d="M175,13.48v.22a2.38,2.38,0,0,1,0,.25h-5.82a2.73,2.73,0,0,0,.21,1,2.48,2.48,0,0,0,.54.81,2.59,2.59,0,0,0,.81.55,2.69,2.69,0,0,0,2.38-.17,2.75,2.75,0,0,0,.88-.85l.77.6A3.8,3.8,0,0,1,173.32,17a3.89,3.89,0,0,1-1.63.34,3.72,3.72,0,0,1-1.45-.28,3.38,3.38,0,0,1-1.15-.77,3.66,3.66,0,0,1-.76-1.17,3.84,3.84,0,0,1-.28-1.47,3.91,3.91,0,0,1,.27-1.47,3.56,3.56,0,0,1,.75-1.17,3.44,3.44,0,0,1,1.13-.77A3.5,3.5,0,0,1,171.6,10a3.59,3.59,0,0,1,1.46.28,3,3,0,0,1,1,.75,3.23,3.23,0,0,1,.64,1.1A4.12,4.12,0,0,1,175,13.48Zm-1-.33a2.53,2.53,0,0,0-.64-1.64,2.16,2.16,0,0,0-1.69-.65,2.36,2.36,0,0,0-.95.19,2.5,2.5,0,0,0-.76.51,2.53,2.53,0,0,0-.53.74,2.36,2.36,0,0,0-.22.86Z" transform="translate(-95.48)"/>
      </g>
      <g>
        <path d="M299.15,330.2h-6.78v-1.12l4.35-4.39c.16-.16.32-.33.47-.52a4.63,4.63,0,0,0,.41-.58,2.9,2.9,0,0,0,.29-.64,2.35,2.35,0,0,0,.1-.7,2.06,2.06,0,0,0-.17-.84,1.84,1.84,0,0,0-.46-.64,2.1,2.1,0,0,0-.67-.4,2.26,2.26,0,0,0-.8-.14,2.06,2.06,0,0,0-1.44.53,2.43,2.43,0,0,0-.75,1.36l-1.06-.21a3.05,3.05,0,0,1,.4-1,3.18,3.18,0,0,1,.72-.83,3.36,3.36,0,0,1,1-.54,3.42,3.42,0,0,1,1.17-.19,3.94,3.94,0,0,1,1.22.19,2.94,2.94,0,0,1,1,.55,2.71,2.71,0,0,1,.69.92,2.93,2.93,0,0,1,.26,1.27,3,3,0,0,1-.14.95,4.05,4.05,0,0,1-.37.82,4.81,4.81,0,0,1-.55.74q-.31.35-.66.7l-3.83,3.79h5.63Z" transform="translate(-95.48)"/>
        <path d="M304.54,324.17H305a4.2,4.2,0,0,0,1-.1,2.3,2.3,0,0,0,.79-.34,1.64,1.64,0,0,0,.53-.61,1.93,1.93,0,0,0,.2-.9,2,2,0,0,0-.17-.82,1.88,1.88,0,0,0-.46-.63,2.1,2.1,0,0,0-.67-.4,2.21,2.21,0,0,0-2.83,1.1l-.92-.48a3.23,3.23,0,0,1,1.26-1.27,3.61,3.61,0,0,1,1.74-.41,3.75,3.75,0,0,1,1.19.19,3,3,0,0,1,1,.55,2.58,2.58,0,0,1,.68.89,2.83,2.83,0,0,1,.25,1.22,2.41,2.41,0,0,1-.53,1.58,2.5,2.5,0,0,1-1.32.85v0a2.75,2.75,0,0,1,1.52.88,2.55,2.55,0,0,1,.61,1.76,3.16,3.16,0,0,1-.28,1.36,3.07,3.07,0,0,1-.74,1,3.24,3.24,0,0,1-1.09.63,4,4,0,0,1-1.31.22,3.68,3.68,0,0,1-2-.56,3.5,3.5,0,0,1-1.32-1.61l1-.37a2.33,2.33,0,0,0,.9,1.19,2.5,2.5,0,0,0,1.44.43,2.53,2.53,0,0,0,.88-.16,2.27,2.27,0,0,0,.75-.45,2.2,2.2,0,0,0,.52-.71,2.25,2.25,0,0,0,.19-1,2,2,0,0,0-.23-1,1.9,1.9,0,0,0-.62-.67,2.69,2.69,0,0,0-.88-.37,4.58,4.58,0,0,0-1-.11h-.46Z" transform="translate(-95.48)"/>
        <path d="M312.38,324c0-.3,0-.57,0-.81h1q0,.28,0,.63c0,.23,0,.42,0,.57h0a2.43,2.43,0,0,1,.9-1,2.46,2.46,0,0,1,1.35-.38l.35,0,.32.06-.14,1-.3-.06a3,3,0,0,0-.42,0,2.07,2.07,0,0,0-.78.15,1.68,1.68,0,0,0-.65.47,2.48,2.48,0,0,0-.45.82,3.71,3.71,0,0,0-.17,1.2v3.59h-1v-5.47Q312.4,324.44,312.38,324Z" transform="translate(-95.48)"/>
        <path d="M324.32,329a2.88,2.88,0,0,1-1.17,1,3.41,3.41,0,0,1-1.49.34,3.75,3.75,0,0,1-1.49-.29,3.38,3.38,0,0,1-1.14-.78,3.52,3.52,0,0,1-.74-1.17,4.16,4.16,0,0,1,0-2.91,3.51,3.51,0,0,1,.74-1.17,3.4,3.4,0,0,1,1.14-.78,3.77,3.77,0,0,1,1.49-.29,3.35,3.35,0,0,1,1.49.35,2.9,2.9,0,0,1,1.17,1h0v-5.54h1V330.2h-1V329Zm-5.21-2.33a3.36,3.36,0,0,0,.18,1.1,2.68,2.68,0,0,0,.52.9,2.37,2.37,0,0,0,.83.6,2.78,2.78,0,0,0,1.13.22,2.63,2.63,0,0,0,2.5-1.7,3.18,3.18,0,0,0,0-2.24,2.76,2.76,0,0,0-.56-.9,2.6,2.6,0,0,0-.85-.6,2.66,2.66,0,0,0-1.08-.22,2.7,2.7,0,0,0-1.12.22,2.45,2.45,0,0,0-.83.61,2.68,2.68,0,0,0-.52.9A3.35,3.35,0,0,0,319.12,326.69Z" transform="translate(-95.48)"/>
        <path d="M338.38,330.2h-1.18l4.59-10.62h1l4.56,10.62h-1.2L345,327.41h-5.49Zm1.56-3.78h4.68l-2.34-5.64Z" transform="translate(-95.48)"/>
        <path d="M352.7,330.2h-1.12l-2.87-7h1.14l2.28,5.94h0l2.29-5.94h1.09Z" transform="translate(-95.48)"/>
        <path d="M364.55,326.48v.22a2.38,2.38,0,0,1,0,.25h-5.82a2.73,2.73,0,0,0,.21,1,2.48,2.48,0,0,0,.54.81,2.59,2.59,0,0,0,.81.55,2.69,2.69,0,0,0,2.38-.17,2.75,2.75,0,0,0,.88-.85l.77.6a3.8,3.8,0,0,1-1.39,1.14,3.89,3.89,0,0,1-1.63.34,3.72,3.72,0,0,1-1.45-.28,3.38,3.38,0,0,1-1.15-.77,3.66,3.66,0,0,1-.76-1.17,3.84,3.84,0,0,1-.28-1.47,3.91,3.91,0,0,1,.27-1.47,3.56,3.56,0,0,1,.75-1.17,3.44,3.44,0,0,1,1.13-.77,3.5,3.5,0,0,1,1.39-.28,3.59,3.59,0,0,1,1.46.28,3,3,0,0,1,1,.75,3.23,3.23,0,0,1,.64,1.1A4.12,4.12,0,0,1,364.55,326.48Zm-1-.33a2.53,2.53,0,0,0-.64-1.64,2.16,2.16,0,0,0-1.69-.65,2.36,2.36,0,0,0-.95.19,2.5,2.5,0,0,0-.76.51,2.53,2.53,0,0,0-.53.74,2.36,2.36,0,0,0-.22.86Z" transform="translate(-95.48)"/>
      </g>
      <g>
        <path d="M299.75,505.2H293v-1.12l4.35-4.39c.16-.16.32-.33.47-.52a4.63,4.63,0,0,0,.41-.58,2.9,2.9,0,0,0,.29-.64,2.35,2.35,0,0,0,.1-.7,2.06,2.06,0,0,0-.17-.84,1.84,1.84,0,0,0-.46-.64,2.1,2.1,0,0,0-.67-.4,2.26,2.26,0,0,0-.8-.14,2.06,2.06,0,0,0-1.44.53,2.43,2.43,0,0,0-.75,1.36l-1.06-.21a3.05,3.05,0,0,1,.4-1,3.18,3.18,0,0,1,.72-.83,3.36,3.36,0,0,1,1-.54,3.42,3.42,0,0,1,1.17-.19,3.94,3.94,0,0,1,1.22.19,2.94,2.94,0,0,1,1,.55,2.71,2.71,0,0,1,.69.92,2.93,2.93,0,0,1,.26,1.27,3,3,0,0,1-.14.95,4.05,4.05,0,0,1-.37.82,4.81,4.81,0,0,1-.55.74q-.31.35-.66.7l-3.83,3.79h5.63Z" transform="translate(-95.48)"/>
        <path d="M306.26,494.31a2.72,2.72,0,0,1,1.65.49,3.57,3.57,0,0,1,1.07,1.27,6.18,6.18,0,0,1,.58,1.79,12,12,0,0,1,.17,2,11.88,11.88,0,0,1-.17,2,6.18,6.18,0,0,1-.58,1.79,3.5,3.5,0,0,1-1.07,1.27,3.12,3.12,0,0,1-3.32,0,3.5,3.5,0,0,1-1.07-1.27,6.06,6.06,0,0,1-.57-1.79,12.51,12.51,0,0,1-.16-2,12.64,12.64,0,0,1,.16-2,6.06,6.06,0,0,1,.57-1.79,3.57,3.57,0,0,1,1.07-1.27A2.75,2.75,0,0,1,306.26,494.31Zm0,.92a1.65,1.65,0,0,0-1.17.43,3,3,0,0,0-.74,1.11,6.08,6.08,0,0,0-.38,1.51,13,13,0,0,0-.11,1.63,12.76,12.76,0,0,0,.11,1.62,6,6,0,0,0,.38,1.49,3,3,0,0,0,.74,1.09,1.67,1.67,0,0,0,1.17.43,1.65,1.65,0,0,0,1.16-.43,3,3,0,0,0,.74-1.09,6.18,6.18,0,0,0,.38-1.49,12,12,0,0,0,.11-1.62,12.13,12.13,0,0,0-.11-1.63,6.3,6.3,0,0,0-.38-1.51,3,3,0,0,0-.74-1.11A1.63,1.63,0,0,0,306.26,495.22Z" transform="translate(-95.48)"/>
        <path d="M316.15,499h-2v4.09a2.3,2.3,0,0,0,.08.65.92.92,0,0,0,.22.4.75.75,0,0,0,.34.2,1.6,1.6,0,0,0,.42.05,1.77,1.77,0,0,0,.44-.06,2.2,2.2,0,0,0,.44-.17l0,.88a3,3,0,0,1-.56.16,3.59,3.59,0,0,1-.64.05,2.6,2.6,0,0,1-.6-.08,1.52,1.52,0,0,1-.58-.28,1.57,1.57,0,0,1-.44-.57,2.2,2.2,0,0,1-.17-.95V499H311.7v-.85h1.46v-2h1v2h2Z" transform="translate(-95.48)"/>
        <path d="M319.84,499.33a2.12,2.12,0,0,1,.95-1,2.9,2.9,0,0,1,1.41-.36,2.47,2.47,0,0,1,2,.79,3.16,3.16,0,0,1,.67,2.1v4.3h-1v-3.88a5.1,5.1,0,0,0-.09-1,2.08,2.08,0,0,0-.31-.77,1.47,1.47,0,0,0-.58-.5,2.09,2.09,0,0,0-.92-.18,2,2,0,0,0-.79.17,1.93,1.93,0,0,0-.68.5,2.51,2.51,0,0,0-.48.86,3.72,3.72,0,0,0-.18,1.22v3.6h-1V493.86h1v5.47Z" transform="translate(-95.48)"/>
        <path d="M337.78,505.2H336.6l4.59-10.62h1l4.56,10.62h-1.2l-1.17-2.79h-5.49Zm1.56-3.78H344l-2.34-5.64Z" transform="translate(-95.48)"/>
        <path d="M352.11,505.2H351l-2.87-7h1.14l2.28,5.94h0l2.29-5.94H355Z" transform="translate(-95.48)"/>
        <path d="M364,501.48v.22a2.38,2.38,0,0,1,0,.25h-5.82a2.73,2.73,0,0,0,.21,1,2.48,2.48,0,0,0,.54.81,2.59,2.59,0,0,0,.81.55,2.69,2.69,0,0,0,2.38-.17,2.75,2.75,0,0,0,.88-.85l.77.6a3.8,3.8,0,0,1-1.39,1.14,3.89,3.89,0,0,1-1.63.34,3.72,3.72,0,0,1-1.45-.28,3.38,3.38,0,0,1-1.15-.77,3.66,3.66,0,0,1-.76-1.17,3.84,3.84,0,0,1-.28-1.47,3.91,3.91,0,0,1,.27-1.47,3.56,3.56,0,0,1,.75-1.17,3.44,3.44,0,0,1,1.13-.77,3.5,3.5,0,0,1,1.39-.28,3.59,3.59,0,0,1,1.46.28,3,3,0,0,1,1,.75,3.23,3.23,0,0,1,.64,1.1A4.12,4.12,0,0,1,364,501.48Zm-1-.33a2.53,2.53,0,0,0-.64-1.64,2.16,2.16,0,0,0-1.69-.65,2.36,2.36,0,0,0-.95.19,2.5,2.5,0,0,0-.76.51,2.53,2.53,0,0,0-.53.74,2.36,2.36,0,0,0-.22.86Z" transform="translate(-95.48)"/>
      </g>
      <polygon class="jefferson-park-cls-6" points="82.35 321.87 82.35 336.82 1.02 336.7 1.02 321.87 82.35 321.87"/>
      <polygon class="jefferson-park-cls-7" points="82.52 337.7 82.35 337.7 1.02 336.71 0.52 336.7 1.02 321.87 1.02 336.7 82.35 336.82 82.35 321.87 82.51 336.82 82.51 337.2 82.52 337.7"/>
      <polygon class="jefferson-park-cls-6" points="82.35 337.7 82.35 353.2 1.02 353.2 1.02 336.71 82.35 337.7"/>
      <polygon class="jefferson-park-cls-7" points="82.35 336.82 82.35 337.7 1.02 336.71 1.02 353.2 0.52 336.7 1.02 336.7 82.35 336.82"/>
    </g>
  </g>
</svg>
