<svg xmlns="http://www.w3.org/2000/svg" xmlns:xlink="http://www.w3.org/1999/xlink" viewBox="0 0 700.72 672.62">
  <defs>
    <style>
      .jefferson_park-cls-1 {
        fill: none;
      }

      .jefferson_park-cls-1, .jefferson_park-cls-2, .jefferson_park-cls-3, .jefferson_park-cls-4, .jefferson_park-cls-5, .jefferson_park-cls-7 {
        stroke: #000;
        stroke-miterlimit: 10;
        stroke-width: 0.5px;
      }

      .jefferson_park-cls-2 {
        fill: #adc5a7;
      }

      .jefferson_park-cls-3 {
        fill: #999;
      }

      .jefferson_park-cls-4 {
        fill: #619cb0;
      }

      .jefferson_park-cls-5 {
        fill: #769e6c;
      }

      .jefferson_park-cls-6 {
        fill: #5d5f60;
      }

      .jefferson_park-cls-7 {
        fill: #ffd5d5;
      }
    </style>
  </defs>
  <title>jefferson_park_final</title>
  <g id="Layer_2" data-name="Layer 2">
    <g id="neighborhoods">
      <g id="Jefferson_Park" data-name="Jefferson Park">
        <path class="jefferson_park-cls-1" d="M606.36,418.17l17.83-17.48,23.36-23.62ZM506.21,516.51a36.51,36.51,0,0,0-6.38,8.22l-2.1,3.67a70.93,70.93,0,0,1,9.6-13Z"/>
        <polygon class="jefferson_park-cls-2" points="233.75 441.1 233.64 671.72 100.86 672.09 100.86 513.56 233.64 513.56 233.64 441.38 100.86 441.38 100.86 440.88 233.75 441.1"/>
        <polygon class="jefferson_park-cls-2" points="100.86 440.88 100.86 442.03 0.87 440.73 0.87 440.72 100.86 440.88"/>
        <polygon class="jefferson_park-cls-2" points="0.87 462.37 100.86 462.37 100.86 672.09 0.87 672.37 0.87 462.37"/>
        <path class="jefferson_park-cls-2" d="M362.32,344.67v96.64l-128.57-.2.1-216.55,116.79.88.54,71.62a44.91,44.91,0,0,0,4.62,19.58,62.84,62.84,0,0,1,6.52,28Z"/>
        <polygon class="jefferson_park-cls-2" points="100.86 223.6 100.86 421.25 0.87 421.25 0.87 222.85 100.86 223.6"/>
        <path class="jefferson_park-cls-2" d="M496.94,181,474.58,202.8a26.29,26.29,0,0,0-7.78,18.83,177.89,177.89,0,0,1-29.57,98.64L396,382.05a152,152,0,0,0-23.36,59.28H362.32V344.67a62.84,62.84,0,0,0-6.52-28,44.91,44.91,0,0,1-4.62-19.58l-.54-71.62,85.44.64,1.23-78Z"/>
        <polygon class="jefferson_park-cls-2" points="437.31 148.16 436.08 226.13 350.64 225.49 350.64 100.48 437.31 148.16"/>
        <polygon class="jefferson_park-cls-2" points="350.64 100.48 350.64 225.49 233.86 224.61 100.86 223.6 100.86 0.5 234.46 35.83 350.02 100.14 350.64 100.48"/>
        <polygon class="jefferson_park-cls-2" points="100.86 0.5 100.86 223.6 0.87 222.85 0.87 0.39 100.45 0.39 100.86 0.5"/>
        <polygon class="jefferson_park-cls-3" points="394.55 441.36 377.5 507.44 335.19 671.45 233.64 671.72 233.75 441.1 362.32 441.31 372.65 441.32 394.55 441.36"/>
        <path class="jefferson_park-cls-3" d="M550.37,210.36,491.76,279l-31.09,36.41L442.84,345.2l-32.69,54.44A114.85,114.85,0,0,0,397.48,430l-2.93,11.33H372.65A152,152,0,0,1,396,382.08l41.25-61.76a177.89,177.89,0,0,0,29.57-98.64,26.29,26.29,0,0,1,7.78-18.83L496.94,181Z"/>
        <path class="jefferson_park-cls-3" d="M444,415.86a55,55,0,0,0,.27-6.84l-1.38-63.82,17.83-29.82L491.76,279l58.61-68.61h0l11.27,6.12,66.23,35.91,41.47,23.44Z"/>
        <path class="jefferson_park-cls-4" d="M700.41,315.38l-52.86,61.68-41.19,41.11-.23.22-96.73,94.9c-.7.68-1.38,1.38-2,2.1h0l-1.12,1.08a36.51,36.51,0,0,0-6.38,8.22l-2.1,3.67L482.8,554.48l-.16.29-1.16,2a46.2,46.2,0,0,0-6.06,23v91.29L425,671.2l6.55-80.06c3.67-44.75,23.43-86.24,55.14-115.77l3.2-3q5.16-4.8,10.73-9.06l58.74-44.79A82.17,82.17,0,0,0,581,393.86l13.52-23.62a127.36,127.36,0,0,1,21.34-27.77l62.34-61.3.15.09Z"/>
        <path class="jefferson_park-cls-5" d="M678.13,281.16l-62.34,61.3a127.36,127.36,0,0,0-21.34,27.77l-13.52,23.62a82.19,82.19,0,0,1-21.55,24.73l-58.74,44.83q-5.57,4.25-10.73,9.06l-3.2,3c-31.71,29.53-51.47,71-55.14,115.77L425,671.29l-89.86.25,42.32-164.06,54.09-62.76a52.45,52.45,0,0,0,12.29-28.87l225.39-140,.33.18Z"/>
        <line class="jefferson_park-cls-1" x1="437.31" y1="148.16" x2="437.31" y2="148.11"/>
        <polygon class="jefferson_park-cls-2" points="233.86 224.61 233.75 441.1 101.06 440.88 100.86 440.88 100.86 223.6 233.86 224.61"/>
        <line class="jefferson_park-cls-1" x1="100.86" y1="672.36" x2="100.86" y2="672.09"/>
        <line class="jefferson_park-cls-1" x1="100.86" y1="0.5" x2="100.86"/>
        <line class="jefferson_park-cls-1" x1="233.64" y1="671.93" x2="233.64" y2="671.72"/>
        <line class="jefferson_park-cls-1" x1="233.94" y1="36.29" x2="233.86" y2="224.61"/>
        <line class="jefferson_park-cls-1" x1="362.32" y1="441.37" x2="362.32" y2="441.31"/>
        <line class="jefferson_park-cls-1" x1="350.64" y1="100.48" x2="350.64" y2="100.45"/>
        <rect class="jefferson_park-cls-5" x="100.86" y="441.37" width="132.78" height="72.18"/>
        <polyline class="jefferson_park-cls-1" points="507.35 515.42 552.88 471.56 606.13 418.39"/>
        <path class="jefferson_park-cls-1" d="M475.42,582.48a56.42,56.42,0,0,1,7.22-27.71"/>
        <line class="jefferson_park-cls-1" x1="475.42" y1="671.47" x2="475.42" y2="671.05"/>
        <line class="jefferson_park-cls-1" x1="425.04" y1="671.2" x2="425.02" y2="671.47"/>
        <path class="jefferson_park-cls-3" d="M444,415.86a52.45,52.45,0,0,1-12.29,28.87L377.56,507.5l17.05-66.08H403Z"/>
        <path class="jefferson_park-cls-3" d="M444.22,409a55,55,0,0,1-.27,6.84l-41.06,25.51h-8.34L397.48,430a114.85,114.85,0,0,1,12.68-30.4l32.69-54.45Z"/>
        <line class="jefferson_park-cls-1" x1="550.42" y1="210.29" x2="550.37" y2="210.36"/>
        <line class="jefferson_park-cls-1" x1="335.19" y1="671.45" x2="335.17" y2="671.47"/>
        <line class="jefferson_park-cls-1" x1="497.01" y1="180.93" x2="496.96" y2="180.97"/>
        <path class="jefferson_park-cls-1" d="M367.64,545.62l3-84a156.57,156.57,0,0,1,2-20.26"/>
        <path class="jefferson_park-cls-1" d="M491.76,279l74.66-4.74a80.15,80.15,0,0,0,26.08-6.16l35.65-15"/>
        <path class="jefferson_park-cls-1" d="M561.69,216.49l-6,15.17a41.61,41.61,0,0,0-2.46,21.2h0a10.2,10.2,0,0,0,6.32,8.16l6.44,2.45a42.46,42.46,0,0,0,11,2.62l9.63.94a13.43,13.43,0,0,0,11.51-4.75h0a16.74,16.74,0,0,0,4-10.88h0a29,29,0,0,0-3-12.93l-1-2"/>
        <g>
          <path class="jefferson_park-cls-6" d="M13.51,88.06H12.18v-14h7.88V75.4H13.51v4.79h6.15V81.5H13.51Z"/>
          <path class="jefferson_park-cls-6" d="M19.93,104.17v.29q0,.16,0,.33H12.77A3.79,3.79,0,0,0,13,106.1a3.28,3.28,0,0,0,.66,1.06,3.18,3.18,0,0,0,1,.72,3.12,3.12,0,0,0,2.93-.22,3.49,3.49,0,0,0,1.08-1.12l.95.79a4.75,4.75,0,0,1-1.71,1.5,4.53,4.53,0,0,1-2,.45,4.32,4.32,0,0,1-1.78-.37,4.15,4.15,0,0,1-1.41-1,4.85,4.85,0,0,1-.93-1.54,5.34,5.34,0,0,1-.34-1.93,5.44,5.44,0,0,1,.33-1.93,4.72,4.72,0,0,1,.92-1.54,4.23,4.23,0,0,1,1.39-1,4.07,4.07,0,0,1,1.71-.37,4.17,4.17,0,0,1,1.79.37,3.72,3.72,0,0,1,1.23,1,4.31,4.31,0,0,1,.79,1.44A5.73,5.73,0,0,1,19.93,104.17Zm-1.23-.43a3.45,3.45,0,0,0-.79-2.15,2.57,2.57,0,0,0-2.08-.85,2.74,2.74,0,0,0-1.17.25,3.07,3.07,0,0,0-.93.67,3.32,3.32,0,0,0-.65,1,3.27,3.27,0,0,0-.27,1.13Z"/>
          <path class="jefferson_park-cls-6" d="M18.51,128.53a3.62,3.62,0,0,1-1.44,1.31,4,4,0,0,1-1.83.45,4.36,4.36,0,0,1-1.83-.38,4.16,4.16,0,0,1-1.4-1,4.67,4.67,0,0,1-.91-1.54,5.81,5.81,0,0,1,0-3.82A4.66,4.66,0,0,1,12,122a4.18,4.18,0,0,1,1.4-1,4.38,4.38,0,0,1,1.83-.38,3.91,3.91,0,0,1,1.83.46,3.64,3.64,0,0,1,1.44,1.31h0v-7.17h1.23v14.87H18.51Zm-6.41-3.06a4.68,4.68,0,0,0,.22,1.44,3.58,3.58,0,0,0,.64,1.18,2.93,2.93,0,0,0,1,.79,3.29,3.29,0,0,0,4.46-1.94,4.44,4.44,0,0,0,0-2.94,3.67,3.67,0,0,0-.69-1.18,3.21,3.21,0,0,0-1-.79,3.09,3.09,0,0,0-1.33-.29A3.14,3.14,0,0,0,14,122a3,3,0,0,0-1,.8,3.58,3.58,0,0,0-.64,1.18A4.66,4.66,0,0,0,12.11,125.47Z"/>
          <path class="jefferson_park-cls-6" d="M19.93,146.22v.29q0,.16,0,.33H12.77a3.79,3.79,0,0,0,.26,1.31,3.28,3.28,0,0,0,.66,1.06,3.18,3.18,0,0,0,1,.72,3.12,3.12,0,0,0,2.93-.22,3.49,3.49,0,0,0,1.08-1.12l.95.79a4.75,4.75,0,0,1-1.71,1.5,4.53,4.53,0,0,1-2,.45,4.32,4.32,0,0,1-1.78-.37,4.15,4.15,0,0,1-1.41-1,4.85,4.85,0,0,1-.93-1.54,5.34,5.34,0,0,1-.34-1.93,5.44,5.44,0,0,1,.33-1.93,4.72,4.72,0,0,1,.92-1.54,4.23,4.23,0,0,1,1.39-1,4.07,4.07,0,0,1,1.71-.37,4.17,4.17,0,0,1,1.79.37,3.72,3.72,0,0,1,1.23,1,4.31,4.31,0,0,1,.79,1.44A5.73,5.73,0,0,1,19.93,146.22Zm-1.23-.43a3.45,3.45,0,0,0-.79-2.15,2.57,2.57,0,0,0-2.08-.85,2.74,2.74,0,0,0-1.17.25,3.07,3.07,0,0,0-.93.67,3.32,3.32,0,0,0-.65,1,3.27,3.27,0,0,0-.27,1.13Z"/>
          <path class="jefferson_park-cls-6" d="M13.94,164v-1.06h1.23v1.57h0a3.13,3.13,0,0,1,1.11-1.31,2.88,2.88,0,0,1,1.66-.5h.43l.39.08-.17,1.31-.37-.08a3.46,3.46,0,0,0-.52,0,2.4,2.4,0,0,0-1,.2,2.08,2.08,0,0,0-.8.62,3.33,3.33,0,0,0-.55,1.08,5.17,5.17,0,0,0-.21,1.57v4.71H14V165Q14,164.57,13.94,164Z"/>
          <path class="jefferson_park-cls-6" d="M17.8,187.19a2.42,2.42,0,0,0-.59-1.78,2.36,2.36,0,0,0-1.71-.59,3.48,3.48,0,0,0-1.44.29,3.42,3.42,0,0,0-1.13.79l-.7-.89a4.11,4.11,0,0,1,1.41-.94,5,5,0,0,1,2-.38,4.06,4.06,0,0,1,1.32.21,3.08,3.08,0,0,1,1.07.62,2.83,2.83,0,0,1,.71,1A3.89,3.89,0,0,1,19,187v5.14a8.1,8.1,0,0,0,.11,1H18a3,3,0,0,0-.1-.72q0-.38,0-.76h0A3.79,3.79,0,0,1,16.52,193a4,4,0,0,1-2.82.26,2.78,2.78,0,0,1-1-.49,2.67,2.67,0,0,1-.71-.87,2.77,2.77,0,0,1-.28-1.31,2.59,2.59,0,0,1,.5-1.69,3,3,0,0,1,1.35-.93,7.52,7.52,0,0,1,1.94-.39q1.09-.09,2.27-.09Zm-.37,1.31q-.77,0-1.56.07a6.38,6.38,0,0,0-1.41.28,2.62,2.62,0,0,0-1,.6,1.36,1.36,0,0,0-.41,1,1.76,1.76,0,0,0,.17.83,1.5,1.5,0,0,0,.47.54,1.94,1.94,0,0,0,.65.29,3,3,0,0,0,.73.09,2.72,2.72,0,0,0,1.23-.25,2.47,2.47,0,0,0,.87-.67,3,3,0,0,0,.53-1,3.65,3.65,0,0,0,.18-1.17v-.68Z"/>
          <path class="jefferson_park-cls-6" d="M16.24,214.18H15V199.29h1.23Z"/>
          <path class="jefferson_park-cls-6" d="M11.49,227.53h3.9a6.93,6.93,0,0,1,1.49.17,3.91,3.91,0,0,1,1.35.56,3.06,3.06,0,0,1,1,1.09,3.57,3.57,0,0,1,.38,1.73A3.05,3.05,0,0,1,19,233a2.93,2.93,0,0,1-1.68,1.08h0a3.35,3.35,0,0,1,2.1,1,3.43,3.43,0,0,1,.84,2.43,3.51,3.51,0,0,1-1.3,2.81,4.53,4.53,0,0,1-1.52.77,6.94,6.94,0,0,1-2,.28H11.49Zm1.33,6.1h2.67a4.14,4.14,0,0,0,1-.12,2.62,2.62,0,0,0,.9-.41,2.13,2.13,0,0,0,.65-.76,2.47,2.47,0,0,0,.25-1.15,2.37,2.37,0,0,0-.25-1.13,2.15,2.15,0,0,0-.68-.76,2.8,2.8,0,0,0-1-.42,5.62,5.62,0,0,0-1.23-.13h-2.3Zm0,6.56h2.46a6.21,6.21,0,0,0,1.38-.14,3.37,3.37,0,0,0,1.14-.47,2.44,2.44,0,0,0,.79-.85,2.82,2.82,0,0,0-.58-3.31,4,4,0,0,0-2.46-.68H12.83Z"/>
          <path class="jefferson_park-cls-6" d="M20.22,257.88a5.34,5.34,0,0,1-.34,1.93,4.68,4.68,0,0,1-.95,1.54,4.28,4.28,0,0,1-1.46,1,4.84,4.84,0,0,1-3.7,0,4.28,4.28,0,0,1-1.46-1,4.68,4.68,0,0,1-.95-1.54,5.58,5.58,0,0,1,0-3.86,4.7,4.7,0,0,1,.95-1.54,4.28,4.28,0,0,1,1.48-1,4.81,4.81,0,0,1,3.69,0,4.3,4.3,0,0,1,1.46,1,4.7,4.7,0,0,1,.95,1.54A5.34,5.34,0,0,1,20.22,257.88Zm-1.33,0a4.47,4.47,0,0,0-.23-1.44,3.62,3.62,0,0,0-.65-1.18,3.13,3.13,0,0,0-1-.8,3.09,3.09,0,0,0-1.36-.29,3,3,0,0,0-1.35.29,3.16,3.16,0,0,0-1,.8,3.62,3.62,0,0,0-.65,1.18,4.66,4.66,0,0,0,0,2.9,3.62,3.62,0,0,0,.65,1.18,3.05,3.05,0,0,0,1,.79,3.12,3.12,0,0,0,1.35.29,3.17,3.17,0,0,0,1.36-.29,3,3,0,0,0,1-.79,3.62,3.62,0,0,0,.65-1.18A4.48,4.48,0,0,0,18.9,257.88Z"/>
          <path class="jefferson_park-cls-6" d="M18.19,283.51v-1.57h0A2.94,2.94,0,0,1,17,283.25a3.33,3.33,0,0,1-1.75.5,2.94,2.94,0,0,1-2.46-1,4.34,4.34,0,0,1-.82-2.76v-5.64h1.23v5.09a7.12,7.12,0,0,0,.11,1.31,2.86,2.86,0,0,0,.38,1,1.83,1.83,0,0,0,.73.66,2.42,2.42,0,0,0,1.13.24,2.33,2.33,0,0,0,1-.22,2.39,2.39,0,0,0,.84-.66,3.36,3.36,0,0,0,.59-1.12,5.2,5.2,0,0,0,.22-1.6V274.3h1.23v9.21Z"/>
          <path class="jefferson_park-cls-6" d="M16.24,304.54H15V289.66h1.23Z"/>
          <path class="jefferson_park-cls-6" d="M19.93,320.68V321q0,.16,0,.33H12.77a3.79,3.79,0,0,0,.26,1.31,3.28,3.28,0,0,0,.66,1.06,3.18,3.18,0,0,0,1,.72,3.12,3.12,0,0,0,2.93-.22,3.49,3.49,0,0,0,1.08-1.12l.95.79a4.75,4.75,0,0,1-1.71,1.5,4.53,4.53,0,0,1-2,.45,4.32,4.32,0,0,1-1.78-.37,4.15,4.15,0,0,1-1.41-1,4.85,4.85,0,0,1-.93-1.54,5.34,5.34,0,0,1-.34-1.93,5.44,5.44,0,0,1,.33-1.93,4.72,4.72,0,0,1,.92-1.54,4.23,4.23,0,0,1,1.39-1,4.07,4.07,0,0,1,1.71-.37,4.17,4.17,0,0,1,1.66.33,3.72,3.72,0,0,1,1.23,1,4.31,4.31,0,0,1,.79,1.44A5.7,5.7,0,0,1,19.93,320.68Zm-1.23-.43a3.45,3.45,0,0,0-.79-2.15,2.57,2.57,0,0,0-2.08-.85,2.74,2.74,0,0,0-1.17.25,3.07,3.07,0,0,0-.93.67,3.32,3.32,0,0,0-.65,1,3.27,3.27,0,0,0-.27,1.13Z"/>
          <path class="jefferson_park-cls-6" d="M16.33,346.62H14.95l-3.53-9.19h1.4l2.8,7.8h0l2.82-7.8h1.34Z"/>
          <path class="jefferson_park-cls-6" d="M17.8,361.66a2.42,2.42,0,0,0-.59-1.78,2.36,2.36,0,0,0-1.71-.59,3.48,3.48,0,0,0-1.44.29,3.42,3.42,0,0,0-1.13.79l-.7-.89a4.11,4.11,0,0,1,1.41-.94,5,5,0,0,1,2-.38,4.06,4.06,0,0,1,1.32.21A3.08,3.08,0,0,1,18,359a2.83,2.83,0,0,1,.71,1,3.89,3.89,0,0,1,.26,1.48v5.14a8.1,8.1,0,0,0,.11,1H18a3,3,0,0,0-.1-.72q0-.38,0-.76h0a3.79,3.79,0,0,1-1.34,1.31,4,4,0,0,1-2.82.26,2.78,2.78,0,0,1-1-.49,2.67,2.67,0,0,1-.71-.87,2.77,2.77,0,0,1-.28-1.31,2.59,2.59,0,0,1,.5-1.69,3,3,0,0,1,1.35-.93,7.52,7.52,0,0,1,1.94-.39q1.09-.09,2.27-.09ZM17.43,363q-.77,0-1.56.07a6.38,6.38,0,0,0-1.41.28,2.62,2.62,0,0,0-1,.6,1.36,1.36,0,0,0-.41,1,1.76,1.76,0,0,0,.17.83,1.5,1.5,0,0,0,.47.54,1.94,1.94,0,0,0,.65.29,3,3,0,0,0,.73.09,2.72,2.72,0,0,0,1.23-.25,2.47,2.47,0,0,0,.87-.67,3,3,0,0,0,.53-1,3.65,3.65,0,0,0,.18-1.17V363Z"/>
          <path class="jefferson_park-cls-6" d="M13.94,380.49v-1.06h1.23V381h0a3.13,3.13,0,0,1,1.11-1.31,2.88,2.88,0,0,1,1.66-.5h.43l.39.08-.17,1.31-.37-.08a3.45,3.45,0,0,0-.52,0,2.4,2.4,0,0,0-1,.2,2.08,2.08,0,0,0-.8.62,3.33,3.33,0,0,0-.55,1.08,5.17,5.17,0,0,0-.21,1.57v4.65H14v-7.18Q14,381.08,13.94,380.49Z"/>
          <path class="jefferson_park-cls-6" d="M18.51,408.12a3.62,3.62,0,0,1-1.44,1.31,4,4,0,0,1-1.83.45,4.36,4.36,0,0,1-1.83-.38,4.16,4.16,0,0,1-1.4-1,4.67,4.67,0,0,1-.91-1.54,5.81,5.81,0,0,1,0-3.82,4.66,4.66,0,0,1,.91-1.54,4.18,4.18,0,0,1,1.4-1,4.38,4.38,0,0,1,1.83-.38,3.91,3.91,0,0,1,1.83.46,3.64,3.64,0,0,1,1.44,1.31h0v-7.17h1.23v14.83H18.51v-1.5Zm-6.41-3.06a4.68,4.68,0,0,0,.22,1.44,3.58,3.58,0,0,0,.64,1.18,2.93,2.93,0,0,0,1,.79,3.29,3.29,0,0,0,4.46-1.94,4.44,4.44,0,0,0,0-2.94,3.67,3.67,0,0,0-.69-1.18,3.21,3.21,0,0,0-1-.79,3.09,3.09,0,0,0-1.33-.29,3.14,3.14,0,0,0-1.38.29,3,3,0,0,0-1,.8,3.58,3.58,0,0,0-.64,1.18A4.66,4.66,0,0,0,12.11,405.06Z"/>
        </g>
        <g>
          <path class="jefferson_park-cls-6" d="M111.58,49.64h7v1.31h-8.31V37h8.09v1.31h-6.76v4.79h6.32v1.31h-6.32Z"/>
          <path class="jefferson_park-cls-6" d="M114.59,71.92h-1.23V57h1.23Z"/>
          <path class="jefferson_park-cls-6" d="M114.86,80.19a.91.91,0,0,1-.27.68.83.83,0,0,1-1.23,0,1,1,0,0,1,0-1.31.82.82,0,0,1,1.22,0h0A.91.91,0,0,1,114.86,80.19Zm-.27,12.76h-1.23V83.76h1.23Z"/>
          <path class="jefferson_park-cls-6" d="M118.58,109.37a5.35,5.35,0,0,1-.3,1.93,4.68,4.68,0,0,1-.95,1.54,4.28,4.28,0,0,1-1.46,1,4.84,4.84,0,0,1-3.7,0,4.28,4.28,0,0,1-1.46-1,4.65,4.65,0,0,1-1-1.54,5.58,5.58,0,0,1,0-3.86,4.7,4.7,0,0,1,.95-1.54,4.3,4.3,0,0,1,1.46-1,4.84,4.84,0,0,1,3.7,0,4.3,4.3,0,0,1,1.46,1,4.7,4.7,0,0,1,.95,1.54A5.33,5.33,0,0,1,118.58,109.37Zm-1.33,0a4.47,4.47,0,0,0-.23-1.44,3.62,3.62,0,0,0-.65-1.18,3.13,3.13,0,0,0-1-.8,3.09,3.09,0,0,0-1.36-.29,3,3,0,0,0-1.35.29,3.16,3.16,0,0,0-1,.8,3.62,3.62,0,0,0-.65,1.18,4.66,4.66,0,0,0,0,2.9,3.62,3.62,0,0,0,.65,1.18,3.05,3.05,0,0,0,1,.79,3.12,3.12,0,0,0,1.35.29,3.17,3.17,0,0,0,1.36-.29,3,3,0,0,0,1-.79,3.62,3.62,0,0,0,.65-1.18A4.48,4.48,0,0,0,117.25,109.37Z"/>
          <path class="jefferson_park-cls-6" d="M116.61,126.9h-2.46v5.37a3.21,3.21,0,0,0,.1.85,1.23,1.23,0,0,0,.27.52.91.91,0,0,0,.42.26,1.85,1.85,0,0,0,.52.07,2,2,0,0,0,.54-.08,2.6,2.6,0,0,0,.54-.22v1.15a3.51,3.51,0,0,1-.69.21,4.14,4.14,0,0,1-.79.07,3,3,0,0,1-.74-.1,1.82,1.82,0,0,1-.71-.37,2,2,0,0,1-.54-.75,3.06,3.06,0,0,1-.21-1.25V126.9h-1.79v-1.12h1.79v-2.62h1.23v2.62h2.46Z"/>
          <path class="jefferson_park-cls-6" d="M116.84,156.85a3.27,3.27,0,0,0-1.08-1,3.15,3.15,0,0,0-1.6-.38,3.25,3.25,0,0,0-1,.16,2.79,2.79,0,0,0-.91.49,2.44,2.44,0,0,0-.65.81,2.55,2.55,0,0,0-.25,1.15,2.27,2.27,0,0,0,.23,1.1,2.37,2.37,0,0,0,.64.73,3.61,3.61,0,0,0,.9.5l1.06.39,1.36.51a4.83,4.83,0,0,1,1.23.72,3.41,3.41,0,0,1,.9,1.12,3.75,3.75,0,0,1,.34,1.72,4.05,4.05,0,0,1-.37,1.8,3.75,3.75,0,0,1-1,1.31,3.94,3.94,0,0,1-1.36.72,5.2,5.2,0,0,1-1.54.24,5.6,5.6,0,0,1-1.23-.13,5.13,5.13,0,0,1-1.13-.38,4.55,4.55,0,0,1-1-.66,4.6,4.6,0,0,1-.77-1l1.14-.91a3.63,3.63,0,0,0,1.23,1.31,3.19,3.19,0,0,0,1.79.5,3.27,3.27,0,0,0,1-.17,2.66,2.66,0,0,0,1.61-3.74,2.48,2.48,0,0,0-.71-.81,4.25,4.25,0,0,0-1-.54L113.5,162a9.92,9.92,0,0,1-1.23-.49,4.24,4.24,0,0,1-1.13-.72,3.34,3.34,0,0,1-.8-1.09,4.18,4.18,0,0,1,.07-3.33,3.59,3.59,0,0,1,1-1.21,4,4,0,0,1,1.34-.68,5.14,5.14,0,0,1,1.46-.22,4.76,4.76,0,0,1,2.26.5,4,4,0,0,1,1.43,1.19Z"/>
          <path class="jefferson_park-cls-6" d="M116.61,181.47h-2.46v5.37a3.21,3.21,0,0,0,.1.85,1.23,1.23,0,0,0,.27.52.91.91,0,0,0,.42.26,1.85,1.85,0,0,0,.52.07,2,2,0,0,0,.54-.08,2.6,2.6,0,0,0,.54-.22v1.15a3.51,3.51,0,0,1-.69.21,4.14,4.14,0,0,1-.79.07,3,3,0,0,1-.74-.1,1.82,1.82,0,0,1-.71-.37,2,2,0,0,1-.54-.75,3.06,3.06,0,0,1-.21-1.25v-5.75h-1.79v-1.12h1.79v-2.62h1.23v2.62h2.46Z"/>
        </g>
        <g>
          <path class="jefferson_park-cls-6" d="M250.38,94.63a5.79,5.79,0,0,1-.8,1,5.24,5.24,0,0,1-1.08.83,5.92,5.92,0,0,1-1.36.56,6,6,0,0,1-1.64.21,6.7,6.7,0,0,1-2.73-.55,6.4,6.4,0,0,1-2.15-1.52,7,7,0,0,1-1.41-2.31,8.21,8.21,0,0,1-.5-2.93,8.08,8.08,0,0,1,.52-2.94,6.71,6.71,0,0,1,3.59-3.83,6.59,6.59,0,0,1,2.7-.55,6.32,6.32,0,0,1,2.72.6,5.49,5.49,0,0,1,1.11.7,4,4,0,0,1,.82.92l-1.11.87a3.5,3.5,0,0,0-.54-.67,3.69,3.69,0,0,0-.8-.59,4.83,4.83,0,0,0-1-.41,4.2,4.2,0,0,0-1.23-.16,5.08,5.08,0,0,0-4,1.8,5.84,5.84,0,0,0-1.07,1.93,7.23,7.23,0,0,0-.37,2.31,7.06,7.06,0,0,0,.38,2.31,6,6,0,0,0,1.08,1.93,5.14,5.14,0,0,0,1.71,1.31,5.08,5.08,0,0,0,2.26.49,4.82,4.82,0,0,0,2.14-.49,4.14,4.14,0,0,0,1.7-1.57Z"/>
          <path class="jefferson_park-cls-6" d="M244.91,117.87h-1.23V103h1.23Z"/>
          <path class="jefferson_park-cls-6" d="M246.47,132.92a2.42,2.42,0,0,0-.59-1.78,2.36,2.36,0,0,0-1.71-.59,3.48,3.48,0,0,0-1.44.29,3.42,3.42,0,0,0-1.13.79l-.7-.89a4.11,4.11,0,0,1,1.41-.94,5,5,0,0,1,2-.38,4.06,4.06,0,0,1,1.32.21,3.08,3.08,0,0,1,1.07.62,2.83,2.83,0,0,1,.71,1,3.89,3.89,0,0,1,.26,1.48v5.14a8.1,8.1,0,0,0,.11,1h-1.13a3,3,0,0,0-.1-.72q0-.38,0-.76h0a3.79,3.79,0,0,1-1.34,1.31,4,4,0,0,1-2.82.26,2.78,2.78,0,0,1-1-.49,2.67,2.67,0,0,1-.71-.87,2.77,2.77,0,0,1-.28-1.31,2.59,2.59,0,0,1,.5-1.69,3,3,0,0,1,1.35-.93,7.52,7.52,0,0,1,1.94-.39q1.09-.09,2.27-.09Zm-.37,1.31q-.77,0-1.56.07a6.38,6.38,0,0,0-1.41.28,2.62,2.62,0,0,0-1,.6,1.36,1.36,0,0,0-.41,1,1.76,1.76,0,0,0,.17.83,1.5,1.5,0,0,0,.47.54,1.94,1.94,0,0,0,.65.29,3,3,0,0,0,.73.09,2.72,2.72,0,0,0,1.23-.25,2.47,2.47,0,0,0,.87-.67,3,3,0,0,0,.53-1,3.65,3.65,0,0,0,.18-1.17v-.68Z"/>
          <path class="jefferson_park-cls-6" d="M244.42,158.48h0l2.67-7.77h1.36l-4.3,11.59a4.92,4.92,0,0,1-1,1.71,2.25,2.25,0,0,1-1.72.64,5.32,5.32,0,0,1-1.13-.12l.14-1.22a2.72,2.72,0,0,0,.92.16,1.27,1.27,0,0,0,1-.42,3.74,3.74,0,0,0,.65-1.21l.7-1.93L240,150.72h1.4Z"/>
          <path class="jefferson_park-cls-6" d="M247.16,181.77a3.27,3.27,0,0,0-1.08-1,3.15,3.15,0,0,0-1.6-.38,3.25,3.25,0,0,0-1,.16,2.79,2.79,0,0,0-.91.49,2.44,2.44,0,0,0-.65.81,2.55,2.55,0,0,0-.25,1.15,2.27,2.27,0,0,0,.23,1.1,2.37,2.37,0,0,0,.64.73,3.61,3.61,0,0,0,.9.5l1.06.39,1.36.51a4.83,4.83,0,0,1,1.23.72,3.41,3.41,0,0,1,.9,1.12,3.75,3.75,0,0,1,.34,1.72,4,4,0,0,1-.37,1.8,3.75,3.75,0,0,1-1,1.31,3.94,3.94,0,0,1-1.36.72,5.2,5.2,0,0,1-1.54.24,5.6,5.6,0,0,1-1.23-.13,5.13,5.13,0,0,1-1.13-.38,4.55,4.55,0,0,1-1-.66,4.6,4.6,0,0,1-.77-.94l1.14-.91a3.63,3.63,0,0,0,1.23,1.31,3.19,3.19,0,0,0,1.79.5,3.27,3.27,0,0,0,1-.17,2.66,2.66,0,0,0,1.61-3.74,2.48,2.48,0,0,0-.71-.81,4.25,4.25,0,0,0-1-.54l-1.23-.43a9.92,9.92,0,0,1-1.23-.49,4.24,4.24,0,0,1-1.13-.72,3.34,3.34,0,0,1-.8-1.09,4.18,4.18,0,0,1,.07-3.33,3.59,3.59,0,0,1,1-1.21,4,4,0,0,1,1.34-.68,5.14,5.14,0,0,1,1.46-.22,4.76,4.76,0,0,1,2.26.5,4,4,0,0,1,1.43,1.19Z"/>
          <path class="jefferson_park-cls-6" d="M246.93,206.39h-2.46v5.37a3.21,3.21,0,0,0,.1.85,1.23,1.23,0,0,0,.27.52.91.91,0,0,0,.42.26,1.85,1.85,0,0,0,.52.07,2,2,0,0,0,.54-.08,2.6,2.6,0,0,0,.54-.22v1.15a3.51,3.51,0,0,1-.69.21,4.14,4.14,0,0,1-.79.07,3,3,0,0,1-.74-.1,1.82,1.82,0,0,1-.71-.37,2,2,0,0,1-.54-.75,3.06,3.06,0,0,1-.21-1.25v-5.75h-1.79v-1.12h1.79v-2.62h1.23v2.62h2.46Z"/>
        </g>
        <g>
          <path class="jefferson_park-cls-6" d="M367.33,253h-1.45l5.66-14h1.23l5.61,13.94H376.9l-1.44-3.66h-6.75Zm1.92-5H375l-2.88-7.4Z"/>
          <path class="jefferson_park-cls-6" d="M372.77,274h-1.23V259.14h1.23Z"/>
          <path class="jefferson_park-cls-6" d="M375.42,287.94a2.45,2.45,0,0,0-.91-.88,2.55,2.55,0,0,0-1.3-.34,3.18,3.18,0,0,0-1.36.29,3.11,3.11,0,0,0-1,.79,3.5,3.5,0,0,0-.66,1.18,4.54,4.54,0,0,0-.23,1.47,4.44,4.44,0,0,0,.23,1.46,3.63,3.63,0,0,0,.65,1.17,3,3,0,0,0,1,.79,3.17,3.17,0,0,0,1.36.29,2.69,2.69,0,0,0,2.35-1.21l.93.75a4.15,4.15,0,0,1-1.35,1.15,4,4,0,0,1-1.93.43,4.76,4.76,0,0,1-1.89-.37,4.19,4.19,0,0,1-1.45-1,4.62,4.62,0,0,1-.93-1.54,5.76,5.76,0,0,1,0-3.86,4.64,4.64,0,0,1,.93-1.54,4.2,4.2,0,0,1,1.45-1,4.77,4.77,0,0,1,1.89-.37,4.26,4.26,0,0,1,1.76.41,3.49,3.49,0,0,1,1.45,1.19Z"/>
          <path class="jefferson_park-cls-6" d="M376.75,311.47a5.34,5.34,0,0,1-.34,1.93,4.68,4.68,0,0,1-.95,1.54,4.28,4.28,0,0,1-1.46,1,4.84,4.84,0,0,1-3.7,0,4.28,4.28,0,0,1-1.46-1,4.68,4.68,0,0,1-.95-1.54,5.58,5.58,0,0,1,0-3.86,4.7,4.7,0,0,1,.95-1.54,4.3,4.3,0,0,1,1.46-1,4.84,4.84,0,0,1,3.7,0,4.3,4.3,0,0,1,1.46,1,4.7,4.7,0,0,1,.95,1.54A5.34,5.34,0,0,1,376.75,311.47Zm-1.33,0a4.47,4.47,0,0,0-.23-1.44,3.62,3.62,0,0,0-.65-1.18,3.13,3.13,0,0,0-1-.8,3.09,3.09,0,0,0-1.36-.29,3,3,0,0,0-1.35.29,3.16,3.16,0,0,0-1,.8,3.62,3.62,0,0,0-.65,1.18,4.66,4.66,0,0,0,0,2.9,3.62,3.62,0,0,0,.65,1.18,3.05,3.05,0,0,0,1,.79,3.12,3.12,0,0,0,1.35.29,3.17,3.17,0,0,0,1.36-.29,3,3,0,0,0,1-.79,3.62,3.62,0,0,0,.65-1.18A4.48,4.48,0,0,0,375.42,311.47Z"/>
          <path class="jefferson_park-cls-6" d="M374.78,329h-2.46v5.37a3.21,3.21,0,0,0,.1.85,1.23,1.23,0,0,0,.27.52.91.91,0,0,0,.42.26,1.85,1.85,0,0,0,.52.07,2,2,0,0,0,.54-.08,2.6,2.6,0,0,0,.54-.22v1.15a3.51,3.51,0,0,1-.69.21,4.14,4.14,0,0,1-.79.07,3,3,0,0,1-.74-.1,1.82,1.82,0,0,1-.71-.37,2,2,0,0,1-.54-.75,3.06,3.06,0,0,1-.21-1.25V329h-1.79v-1.12H371v-2.62h1.23v2.62h2.46Z"/>
          <path class="jefferson_park-cls-6" d="M374.78,350h-2.46v5.37a3.21,3.21,0,0,0,.1.85,1.23,1.23,0,0,0,.27.52.91.91,0,0,0,.42.26,1.85,1.85,0,0,0,.52.07,2,2,0,0,0,.54-.08,2.6,2.6,0,0,0,.54-.22V358a3.51,3.51,0,0,1-.69.21,4.14,4.14,0,0,1-.79.07,3,3,0,0,1-.74-.1,1.82,1.82,0,0,1-.71-.37,2,2,0,0,1-.54-.75,3.06,3.06,0,0,1-.21-1.25V350h-1.79v-1.12H371v-2.62h1.23v2.62h2.46Z"/>
          <path class="jefferson_park-cls-6" d="M375,380a3.27,3.27,0,0,0-1.08-1,3.15,3.15,0,0,0-1.6-.38,3.25,3.25,0,0,0-1,.16,2.79,2.79,0,0,0-.91.49,2.44,2.44,0,0,0-.65.81,2.55,2.55,0,0,0-.25,1.15,2.27,2.27,0,0,0,.23,1.1,2.37,2.37,0,0,0,.64.73,3.61,3.61,0,0,0,.9.5l1.06.39,1.36.51a4.83,4.83,0,0,1,1.23.72,3.41,3.41,0,0,1,.9,1.12,3.75,3.75,0,0,1,.34,1.72,4.05,4.05,0,0,1-.37,1.8,3.75,3.75,0,0,1-1,1.31,3.94,3.94,0,0,1-1.36.72,5.2,5.2,0,0,1-1.54.24,5.6,5.6,0,0,1-1.23-.13,5.13,5.13,0,0,1-1.13-.38,4.55,4.55,0,0,1-1-.66,4.61,4.61,0,0,1-.77-1L369,389a3.63,3.63,0,0,0,1.23,1.31,3.19,3.19,0,0,0,1.79.5,3.27,3.27,0,0,0,1-.17,2.66,2.66,0,0,0,1.61-3.74,2.48,2.48,0,0,0-.71-.81,4.25,4.25,0,0,0-1-.54l-1.23-.43a9.92,9.92,0,0,1-1.23-.49,4.24,4.24,0,0,1-1.13-.72,3.34,3.34,0,0,1-.8-1.09,4.18,4.18,0,0,1,.07-3.33,3.59,3.59,0,0,1,1-1.21,4,4,0,0,1,1.34-.68,5.14,5.14,0,0,1,1.46-.22,4.76,4.76,0,0,1,2.26.5,4,4,0,0,1,1.43,1.19Z"/>
          <path class="jefferson_park-cls-6" d="M374.78,404.6h-2.46V410a3.21,3.21,0,0,0,.1.85,1.23,1.23,0,0,0,.27.52.91.91,0,0,0,.42.26,1.85,1.85,0,0,0,.52.07,2,2,0,0,0,.54-.08,2.6,2.6,0,0,0,.54-.22v1.15a3.51,3.51,0,0,1-.69.21,4.14,4.14,0,0,1-.79.07,3,3,0,0,1-.74-.1,1.82,1.82,0,0,1-.71-.37,2,2,0,0,1-.54-.75,3.06,3.06,0,0,1-.21-1.25v-5.75h-1.79v-1.12H371v-2.62h1.23v2.62h2.46Z"/>
        </g>
        <g>
          <path class="jefferson_park-cls-6" d="M514.62,233.92l-1-.88,8.13-10.91,1,.88Z"/>
          <path class="jefferson_park-cls-6" d="M507.23,243.64l-11.52,15.41-.86-.73,11.52-15.38Z"/>
          <path class="jefferson_park-cls-6" d="M489,273.89l-6.53-5.54.86-1.15,7.55-1a4,4,0,0,0,.85-.14,5.36,5.36,0,0,0,.84-.26,3.45,3.45,0,0,0,.76-.42,3,3,0,0,0,.64-.63,2.76,2.76,0,0,0,.48-1,2.56,2.56,0,0,0,0-1,2.86,2.86,0,0,0-.34-1,3,3,0,0,0-.66-.8,2.43,2.43,0,0,0-1.79-.63,2.87,2.87,0,0,0-1.76.77L489,260a4.07,4.07,0,0,1,2.56-1,3.8,3.8,0,0,1,1.34.24,4.14,4.14,0,0,1,1.23.76,5,5,0,0,1,1,1.19,4,4,0,0,1,.54,1.39,3.78,3.78,0,0,1,0,1.51,4,4,0,0,1-.73,1.51,3.79,3.79,0,0,1-.86.85,4.81,4.81,0,0,1-1,.54,5.72,5.72,0,0,1-1.09.31l-1.23.17-6.59.77,5.41,4.59Z"/>
          <path class="jefferson_park-cls-6" d="M483.72,280.08l-4.25-3.61-2.58,3.31a5,5,0,0,1,.84.41,5.87,5.87,0,0,1,.76.54,4.89,4.89,0,0,1,1.14,1.31,4.44,4.44,0,0,1,.53,1.59,4.19,4.19,0,0,1-.12,1.68,4.69,4.69,0,0,1-.79,1.59,4.93,4.93,0,0,1-1.33,1.31,3.73,3.73,0,0,1-3.18.42,4.46,4.46,0,0,1-1.59-.89,4.55,4.55,0,0,1-1.57-4.58l1.23.35a3.33,3.33,0,0,0,0,1.78,3,3,0,0,0,.93,1.44,3.12,3.12,0,0,0,1.11.62,2.68,2.68,0,0,0,1.16.1,2.84,2.84,0,0,0,1.11-.41,3.69,3.69,0,0,0,1.56-2.13,3.27,3.27,0,0,0,.09-1.31,3.37,3.37,0,0,0-.41-1.21,3.86,3.86,0,0,0-.87-1,5.06,5.06,0,0,0-1.23-.76,6.22,6.22,0,0,0-1.36-.43l4.29-5.54,5.21,4.42Z"/>
        </g>
        <g>
          <path class="jefferson_park-cls-6" d="M256.15,57.52a3.56,3.56,0,0,0-.5-1.44,3.42,3.42,0,0,0-1.23-1.15,3.35,3.35,0,0,0-.92-.37,2.63,2.63,0,0,0-1,0,2.23,2.23,0,0,0-1.68,1.31,2.29,2.29,0,0,0-.28,1.09,2.57,2.57,0,0,0,.23,1,4,4,0,0,0,.57.91l.75.88c.33.37.65.75,1,1.15a5.31,5.31,0,0,1,.77,1.31,3.68,3.68,0,0,1,.3,1.44,4.32,4.32,0,0,1-1.6,3.08,3.4,3.4,0,0,1-1.41.6,3.82,3.82,0,0,1-1.52,0,5.33,5.33,0,0,1-1.46-.58,6,6,0,0,1-1-.71,5.6,5.6,0,0,1-.81-.92,5.08,5.08,0,0,1-.89-2.28l1.41-.21a3.92,3.92,0,0,0,.49,1.71,3.57,3.57,0,0,0,2.32,1.73,2.62,2.62,0,0,0,1,0,2.52,2.52,0,0,0,1-.39,2.67,2.67,0,0,0,1.07-2.1,2.64,2.64,0,0,0-.26-1.06,4.58,4.58,0,0,0-.65-1l-.86-1c-.32-.34-.61-.71-.9-1.08a4.67,4.67,0,0,1-.66-1.21,3.55,3.55,0,0,1-.22-1.31A4,4,0,0,1,250.74,54a3.29,3.29,0,0,1,1.4-.55,3.81,3.81,0,0,1,1.49.08,5.49,5.49,0,0,1,3.15,2.15,4.31,4.31,0,0,1,.71,1.77Z"/>
          <path class="jefferson_park-cls-6" d="M254.52,75.27l-1.11-.64,6.25-12.25,1.11.64L260,64.44h0a3.28,3.28,0,0,1,1.87-.47,4,4,0,0,1,1.81.52,4.73,4.73,0,0,1,1.45,1.31,4.59,4.59,0,0,1,.77,1.61,5,5,0,0,1,.11,1.81,5.61,5.61,0,0,1-1.71,3.36,4.27,4.27,0,0,1-1.49.89,3.92,3.92,0,0,1-1.68.18,4.42,4.42,0,0,1-1.78-.6A4.23,4.23,0,0,1,258,71.75a3.9,3.9,0,0,1-.66-1.9h0Zm9.84-4.91a4.57,4.57,0,0,0,.45-1.38,3.74,3.74,0,0,0,0-1.31,3.3,3.3,0,0,0-.54-1.22,3.48,3.48,0,0,0-2.37-1.39,3,3,0,0,0-1.23.16,3.42,3.42,0,0,0-1.13.68,4,4,0,0,0-.87,1.17,4.12,4.12,0,0,0-.44,1.42,3.78,3.78,0,0,0,.09,1.38A3.45,3.45,0,0,0,259.92,72a3.29,3.29,0,0,0,1.34.46,2.77,2.77,0,0,0,1.23-.17,3.25,3.25,0,0,0,1.08-.71,4.42,4.42,0,0,0,.77-1.25Z"/>
          <path class="jefferson_park-cls-6" d="M276,76.8l-.14.26-.17.29-6.28-3.65a3.74,3.74,0,0,0-.36,1.31,3.48,3.48,0,0,0,.11,1.31,3.54,3.54,0,0,0,.55,1.14,3.1,3.1,0,0,0,4.12.88l.47,1.17a4.42,4.42,0,0,1-2.16.45,4.55,4.55,0,0,1-2-.62,4.68,4.68,0,0,1-1.4-1.23A4.56,4.56,0,0,1,268,76.5a5.1,5.1,0,0,1-.14-1.82,5.25,5.25,0,0,1,.57-1.86,5.08,5.08,0,0,1,1.16-1.52,4.3,4.3,0,0,1,1.5-.88,4,4,0,0,1,1.67-.18,4.12,4.12,0,0,1,1.67.55,4.49,4.49,0,0,1,1.4,1.23,4.05,4.05,0,0,1,.69,1.52,4.51,4.51,0,0,1,0,1.67A5.67,5.67,0,0,1,276,76.8Zm-.92-1a3.52,3.52,0,0,0,.27-2.3,2.79,2.79,0,0,0-1.44-1.81,2.71,2.71,0,0,0-1.13-.38,2.85,2.85,0,0,0-1.12.1,3,3,0,0,0-1.75,1.36Z"/>
          <path class="jefferson_park-cls-6" d="M286.38,82.82l-.14.26-.17.29-6.28-3.65a3.81,3.81,0,0,0-.36,1.31,3.52,3.52,0,0,0,.11,1.31,3.49,3.49,0,0,0,.55,1.14,3.1,3.1,0,0,0,4.12.88l.47,1.17a4.41,4.41,0,0,1-2.16.45,4.61,4.61,0,0,1-2-.62,4.7,4.7,0,0,1-1.4-1.23,4.53,4.53,0,0,1-.79-1.61,5.07,5.07,0,0,1-.14-1.82,5.25,5.25,0,0,1,.57-1.86A5.1,5.1,0,0,1,280,77.3a4.3,4.3,0,0,1,1.5-.88,4,4,0,0,1,1.67-.18,4.12,4.12,0,0,1,1.67.55A4.5,4.5,0,0,1,286.22,78a4.05,4.05,0,0,1,.69,1.52,4.51,4.51,0,0,1,0,1.67A5.68,5.68,0,0,1,286.38,82.82Zm-.92-1a3.52,3.52,0,0,0,.27-2.3,3.21,3.21,0,0,0-2.61-2.17,3,3,0,0,0-2.13.63,3,3,0,0,0-.75.85Z"/>
          <path class="jefferson_park-cls-6" d="M291.3,82c.16-.35.31-.67.43-1l1.06.6c-.09.24-.2.49-.32.75l-.32.67h0a2.88,2.88,0,0,1,3.25-.18l.37.24a2.28,2.28,0,0,1,.31.28l-.71,1a2.16,2.16,0,0,0-.3-.26,3.68,3.68,0,0,0-.43-.3,2.43,2.43,0,0,0-.93-.31,1.94,1.94,0,0,0-1,.13,3.06,3.06,0,0,0-1,.67,4.93,4.93,0,0,0-.9,1.31l-2.11,4.13-1.11-.64,3.26-6.3Z"/>
          <path class="jefferson_park-cls-6" d="M311.2,86.92l3.42,2a7.48,7.48,0,0,1,1.23.91,4.25,4.25,0,0,1,.93,1.19,3.32,3.32,0,0,1,.37,1.46,3.55,3.55,0,0,1-.44,1.72,2.81,2.81,0,0,1-3.38,1.39h0a3.67,3.67,0,0,1,1.38,2,3.49,3.49,0,0,1-.36,2.62,3.22,3.22,0,0,1-2.46,1.8,4.34,4.34,0,0,1-1.7-.09,7.2,7.2,0,0,1-1.89-.79l-3.39-2Zm-4.52,11.81,2.18,1.31a6.36,6.36,0,0,0,1.23.58,3.35,3.35,0,0,0,1.23.17,2.24,2.24,0,0,0,1.07-.34,2.79,2.79,0,0,0,1-3.2,4.29,4.29,0,0,0-1.88-1.86L309.09,94Zm3-5.81L312,94.23a4.37,4.37,0,0,0,.9.39,2.55,2.55,0,0,0,1,.1,2,2,0,0,0,.91-.33,2.31,2.31,0,0,0,.74-.89,2.36,2.36,0,0,0,.3-1.13,2.31,2.31,0,0,0-.26-1,3.07,3.07,0,0,0-.69-.88,5.92,5.92,0,0,0-1-.73l-2-1.18Z"/>
          <path class="jefferson_park-cls-6" d="M317.45,106.44l-1.11-.64L323,92.67l1.11.64Z"/>
          <path class="jefferson_park-cls-6" d="M324.6,110.57l-1.23-.71,1-9.88,1.23.71-1,8.28h0l6-5.41,1.23.68Z"/>
          <path class="jefferson_park-cls-6" d="M337.42,116.26a3.38,3.38,0,0,1-1.87.45,4,4,0,0,1-1.81-.54,4.7,4.7,0,0,1-1.45-1.31,4.57,4.57,0,0,1-.77-1.61,4.92,4.92,0,0,1-.11-1.81,5.56,5.56,0,0,1,1.71-3.36,4.22,4.22,0,0,1,1.48-.89,3.92,3.92,0,0,1,1.68-.18,4.39,4.39,0,0,1,1.78.6,4.22,4.22,0,0,1,1.4,1.31,4,4,0,0,1,.65,1.93h0l3.26-6.38,1.11.64-6.66,13.12-1.11-.64.7-1.31Zm-4.25-5.95a4.61,4.61,0,0,0-.45,1.38,3.74,3.74,0,0,0,0,1.31,3.22,3.22,0,0,0,.55,1.22,3.48,3.48,0,0,0,1.08,1,3.11,3.11,0,0,0,1.29.42,3,3,0,0,0,1.23-.14,3.27,3.27,0,0,0,1.13-.68,4.26,4.26,0,0,0,1.32-2.62,3.83,3.83,0,0,0-.07-1.39,3.52,3.52,0,0,0-.57-1.23,3.34,3.34,0,0,0-1-.93,3.18,3.18,0,0,0-1.35-.45,2.83,2.83,0,0,0-1.23.18A3.25,3.25,0,0,0,334,109,4.48,4.48,0,0,0,333.17,110.31Z"/>
        </g>
        <g>
          <path class="jefferson_park-cls-6" d="M125.35,216.95h-8.3v-1.47l5.35-5.76A7.66,7.66,0,0,0,123,209a6.09,6.09,0,0,0,.5-.76,3.94,3.94,0,0,0,.36-.84,3.28,3.28,0,0,0,.12-.92,2.86,2.86,0,0,0-.21-1.1,2.42,2.42,0,0,0-.57-.84,2.55,2.55,0,0,0-.82-.52,2.62,2.62,0,0,0-1-.18,2.44,2.44,0,0,0-1.77.7,3.25,3.25,0,0,0-.92,1.78l-1.3-.28a4.16,4.16,0,0,1,.49-1.31,4.11,4.11,0,0,1,.89-1.09A4.06,4.06,0,0,1,120,203a4,4,0,0,1,1.44-.25,4.56,4.56,0,0,1,1.5.25,3.42,3.42,0,0,1,2.08,1.93,4.07,4.07,0,0,1,.32,1.67,4.18,4.18,0,0,1-.17,1.25,5.5,5.5,0,0,1-.45,1.08,6.3,6.3,0,0,1-.68,1q-.38.46-.81.92l-4.71,5h6.92Z"/>
          <path class="jefferson_park-cls-6" d="M131.72,209.09h0a2.2,2.2,0,0,1,.82-.38,4.17,4.17,0,0,1,1-.13,4,4,0,0,1,1.57.31,3.83,3.83,0,0,1,1.23.88,4,4,0,0,1,.84,1.31,4.85,4.85,0,0,1,.31,1.75,4.91,4.91,0,0,1-.31,1.8,3.94,3.94,0,0,1-.89,1.31,4.16,4.16,0,0,1-1.34.89,4.63,4.63,0,0,1-3.39,0,4.15,4.15,0,0,1-1.34-.89,3.94,3.94,0,0,1-.89-1.31,4.9,4.9,0,0,1-.31-1.8,5.65,5.65,0,0,1,.34-2,12.7,12.7,0,0,1,.84-1.77l3.55-6.13h1.54Zm-1.23,3.82a3.68,3.68,0,0,0,.21,1.31,3,3,0,0,0,.6,1,2.84,2.84,0,0,0,.92.67,3,3,0,0,0,2.36,0,2.84,2.84,0,0,0,.92-.67,3,3,0,0,0,.6-1,3.7,3.7,0,0,0,.21-1.31,3.75,3.75,0,0,0-.21-1.31,3,3,0,0,0-.58-1,2.61,2.61,0,0,0-.92-.66,3.22,3.22,0,0,0-2.46,0,2.61,2.61,0,0,0-.92.66,3,3,0,0,0-.58,1,3.79,3.79,0,0,0-.2,1.31Z"/>
          <path class="jefferson_park-cls-6" d="M145.51,208.81h-2.46v5.37a3.21,3.21,0,0,0,.1.85,1.23,1.23,0,0,0,.27.52.91.91,0,0,0,.42.26,1.85,1.85,0,0,0,.52.07,2,2,0,0,0,.54-.08,2.6,2.6,0,0,0,.54-.22v1.15a3.51,3.51,0,0,1-.69.21,4.14,4.14,0,0,1-.79.07,3,3,0,0,1-.74-.1,1.82,1.82,0,0,1-.71-.37,2,2,0,0,1-.54-.75,3.06,3.06,0,0,1-.21-1.25v-5.74H140v-1.12h1.79v-2.62h1.23v2.62h2.46Z"/>
          <path class="jefferson_park-cls-6" d="M150,209.24a2.71,2.71,0,0,1,1.17-1.31,3.39,3.39,0,0,1,1.73-.47,2.94,2.94,0,0,1,2.46,1,4.34,4.34,0,0,1,.82,2.76v5.64H155V211.8a7.13,7.13,0,0,0-.11-1.31,2.84,2.84,0,0,0-.38-1,1.85,1.85,0,0,0-.71-.66,2.43,2.43,0,0,0-1.13-.24,2.33,2.33,0,0,0-1,.22,2.39,2.39,0,0,0-.84.66,3.36,3.36,0,0,0-.59,1.13,5.19,5.19,0,0,0-.22,1.6v4.72h-1.23V202.06H150v7.18Z"/>
          <path class="jefferson_park-cls-6" d="M172.1,216.95h-1.45L176.3,203h1.23l5.61,13.94h-1.48l-1.44-3.66h-6.75Zm1.92-5h5.73l-2.88-7.4Z"/>
          <path class="jefferson_park-cls-6" d="M189.72,216.95h-1.36l-3.53-9.19h1.4l2.8,7.8h0l2.82-7.8h1.43Z"/>
          <path class="jefferson_park-cls-6" d="M204.34,212.06v.29q0,.16,0,.33h-7.16a3.79,3.79,0,0,0,.26,1.31,3.28,3.28,0,0,0,.66,1.06,3.18,3.18,0,0,0,1,.72,3.12,3.12,0,0,0,2.93-.22,3.49,3.49,0,0,0,1.08-1.12l.95.79a4.75,4.75,0,0,1-1.71,1.5,4.53,4.53,0,0,1-2,.45,4.32,4.32,0,0,1-1.78-.37,4.15,4.15,0,0,1-1.41-1,4.85,4.85,0,0,1-.93-1.54,5.34,5.34,0,0,1-.34-1.93,5.44,5.44,0,0,1,.33-1.93,4.72,4.72,0,0,1,.92-1.54,4.23,4.23,0,0,1,1.39-1,4.07,4.07,0,0,1,1.71-.37,4.17,4.17,0,0,1,1.79.37,3.72,3.72,0,0,1,1.23,1,4.31,4.31,0,0,1,.79,1.44A5.73,5.73,0,0,1,204.34,212.06Zm-1.23-.43a3.45,3.45,0,0,0-.79-2.15,2.57,2.57,0,0,0-2.08-.85,2.74,2.74,0,0,0-1.17.25,3.07,3.07,0,0,0-.93.67,3.32,3.32,0,0,0-.65,1,3.27,3.27,0,0,0-.27,1.13Z"/>
        </g>
        <g>
          <path class="jefferson_park-cls-6" d="M18.39,21.39h-8.3V19.91l5.35-5.76a7.66,7.66,0,0,0,.58-.68,6.09,6.09,0,0,0,.5-.76,3.94,3.94,0,0,0,.36-.84,3.28,3.28,0,0,0,.12-.92,2.86,2.86,0,0,0-.21-1.1A2.42,2.42,0,0,0,16.23,9a2.55,2.55,0,0,0-.82-.52,2.62,2.62,0,0,0-1-.18,2.44,2.44,0,0,0-1.77.7,3.25,3.25,0,0,0-.92,1.78l-1.3-.28a4.16,4.16,0,0,1,.49-1.31A4.11,4.11,0,0,1,11.8,8.1,4.06,4.06,0,0,1,13,7.39a4,4,0,0,1,1.44-.25,4.56,4.56,0,0,1,1.5.25A3.42,3.42,0,0,1,18,9.32,4.07,4.07,0,0,1,18.37,11a4.18,4.18,0,0,1-.17,1.25,5.5,5.5,0,0,1-.45,1.08,6.3,6.3,0,0,1-.68,1q-.38.46-.81.92l-4.71,5h6.92Z"/>
          <path class="jefferson_park-cls-6" d="M28.08,15.3h0a2.2,2.2,0,0,1-.82.38,4.1,4.1,0,0,1-1,.13,3.92,3.92,0,0,1-1.57-.31,3.82,3.82,0,0,1-1.23-.88,4,4,0,0,1-.84-1.31,4.84,4.84,0,0,1-.31-1.75,4.94,4.94,0,0,1,.31-1.78,4,4,0,0,1,.89-1.39,4.15,4.15,0,0,1,1.34-.89,4.63,4.63,0,0,1,3.39,0,4.17,4.17,0,0,1,1.35.89,4,4,0,0,1,.89,1.39,4.94,4.94,0,0,1,.31,1.78,5.65,5.65,0,0,1-.36,2,12.84,12.84,0,0,1-.82,1.77L26,21.47H24.48Zm1.23-3.82a3.69,3.69,0,0,0-.21-1.31,3,3,0,0,0-.6-1,2.85,2.85,0,0,0-.92-.67,3,3,0,0,0-2.36,0,2.85,2.85,0,0,0-.92.67,3,3,0,0,0-.6,1,3.69,3.69,0,0,0-.21,1.31,3.75,3.75,0,0,0,.21,1.31,3,3,0,0,0,.58,1,2.61,2.61,0,0,0,.92.66,3.19,3.19,0,0,0,2.46,0,2.61,2.61,0,0,0,.92-.66,3,3,0,0,0,.58-1,3.75,3.75,0,0,0,.21-1.31Z"/>
          <path class="jefferson_park-cls-6" d="M38.55,13.26H36.1v5.37a3.21,3.21,0,0,0,.1.85,1.23,1.23,0,0,0,.27.52.91.91,0,0,0,.42.26,1.85,1.85,0,0,0,.52.07,2,2,0,0,0,.54-.08,2.6,2.6,0,0,0,.54-.22v1.15a3.51,3.51,0,0,1-.69.21,4.14,4.14,0,0,1-.79.07,3,3,0,0,1-.74-.1,1.82,1.82,0,0,1-.71-.37,2,2,0,0,1-.54-.75A3.06,3.06,0,0,1,34.8,19V13.26H33.08V12.14h1.79V9.52h1.23v2.62h2.46Z"/>
          <path class="jefferson_park-cls-6" d="M43.09,13.69a2.71,2.71,0,0,1,1.17-1.31A3.38,3.38,0,0,1,46,11.94a2.94,2.94,0,0,1,2.46,1,4.34,4.34,0,0,1,.82,2.76v5.64H48V16.29A7.13,7.13,0,0,0,47.93,15a2.84,2.84,0,0,0-.38-1,1.85,1.85,0,0,0-.71-.66,2.43,2.43,0,0,0-1.13-.24,2.33,2.33,0,0,0-1,.22,2.39,2.39,0,0,0-.84.66,3.36,3.36,0,0,0-.59,1.13,5.19,5.19,0,0,0-.22,1.6v4.72H41.86V6.51h1.23v7.18Z"/>
          <path class="jefferson_park-cls-6" d="M65.15,21.39H63.7L69.34,7.45h1.23l5.67,13.94H74.76l-1.44-3.66H66.57Zm1.92-5h5.73L69.92,9Z"/>
          <path class="jefferson_park-cls-6" d="M82.76,21.39H81.4l-3.53-9.19h1.4l2.8,7.8h0l2.82-7.8h1.43Z"/>
          <path class="jefferson_park-cls-6" d="M97.38,16.51v.29q0,.16,0,.33H90.23a3.79,3.79,0,0,0,.26,1.31,3.28,3.28,0,0,0,.66,1.06,3.18,3.18,0,0,0,1,.72A3.12,3.12,0,0,0,95.07,20a3.49,3.49,0,0,0,1.08-1.12l.95.79a4.72,4.72,0,0,1-1.78,1.46,4.53,4.53,0,0,1-2,.45,4.32,4.32,0,0,1-1.78-.37,4.15,4.15,0,0,1-1.41-1,4.85,4.85,0,0,1-.93-1.54,5.34,5.34,0,0,1-.34-1.93,5.44,5.44,0,0,1,.33-1.93,4.72,4.72,0,0,1,.92-1.54,4.23,4.23,0,0,1,1.39-1,4.06,4.06,0,0,1,1.72-.31,4.17,4.17,0,0,1,1.79.37,3.72,3.72,0,0,1,1.23,1A4.31,4.31,0,0,1,97,14.74,5.72,5.72,0,0,1,97.38,16.51Zm-1.23-.43a3.45,3.45,0,0,0-.79-2.15,2.57,2.57,0,0,0-2.08-.85,2.74,2.74,0,0,0-1.17.25,3.07,3.07,0,0,0-.93.67,3.32,3.32,0,0,0-.65,1,3.27,3.27,0,0,0-.27,1.13Z"/>
        </g>
        <g>
          <path class="jefferson_park-cls-6" d="M250,432.19h-8.34v-1.47L247,425a7.66,7.66,0,0,0,.58-.68,6.09,6.09,0,0,0,.5-.76,3.94,3.94,0,0,0,.36-.84,3.28,3.28,0,0,0,.12-.92,2.86,2.86,0,0,0-.21-1.1,2.42,2.42,0,0,0-.57-.84,2.55,2.55,0,0,0-.82-.52,2.62,2.62,0,0,0-1-.18,2.44,2.44,0,0,0-1.77.7,3.25,3.25,0,0,0-.92,1.78l-1.3-.28a4.16,4.16,0,0,1,.49-1.31,4.11,4.11,0,0,1,.89-1.09,4.06,4.06,0,0,1,1.23-.71,4,4,0,0,1,1.44-.25,4.56,4.56,0,0,1,1.5.25,3.42,3.42,0,0,1,2.08,1.93,4.07,4.07,0,0,1,.32,1.67,4.18,4.18,0,0,1-.17,1.25,5.5,5.5,0,0,1-.45,1.08,6.3,6.3,0,0,1-.68,1q-.38.46-.81.92l-4.71,5H250Z"/>
          <path class="jefferson_park-cls-6" d="M256.64,424.27h.57a4.85,4.85,0,0,0,1.23-.13,2.74,2.74,0,0,0,1-.45,2.12,2.12,0,0,0,.65-.8,2.68,2.68,0,0,0,.25-1.18,2.78,2.78,0,0,0-.21-1.08,2.47,2.47,0,0,0-.57-.83,2.55,2.55,0,0,0-.82-.52,2.65,2.65,0,0,0-3.48,1.44l-1.13-.63a4.12,4.12,0,0,1,1.55-1.67,4.21,4.21,0,0,1,2.14-.54,4.34,4.34,0,0,1,1.46.25,3.63,3.63,0,0,1,1.23.72,3.37,3.37,0,0,1,.84,1.17,3.93,3.93,0,0,1,.31,1.6,3.3,3.3,0,0,1-.65,2.07,3.06,3.06,0,0,1-1.62,1.12h0a3.34,3.34,0,0,1,1.87,1.15,3.49,3.49,0,0,1,.75,2.31,4.39,4.39,0,0,1-.34,1.78,4,4,0,0,1-.91,1.31,3.93,3.93,0,0,1-1.34.83,4.64,4.64,0,0,1-1.61.29,4.31,4.31,0,0,1-2.46-.73,4.54,4.54,0,0,1-1.62-2.11l1.23-.49a3,3,0,0,0,1.11,1.56,3,3,0,0,0,2.85.35,2.76,2.76,0,0,0,.92-.59,2.89,2.89,0,0,0,.64-.93,3.13,3.13,0,0,0,.23-1.31,2.77,2.77,0,0,0-.28-1.31,2.44,2.44,0,0,0-.76-.88,3.2,3.2,0,0,0-1.08-.49,5.29,5.29,0,0,0-1.23-.14h-.57Z"/>
          <path class="jefferson_park-cls-6" d="M266.28,424.05V423h1.23v1.57h0a3.13,3.13,0,0,1,1.11-1.31,2.88,2.88,0,0,1,1.66-.5h.43l.39.08-.17,1.31-.37-.08a3.45,3.45,0,0,0-.52,0,2.4,2.4,0,0,0-1,.2,2.08,2.08,0,0,0-.8.62,3.33,3.33,0,0,0-.55,1.08,5.17,5.17,0,0,0-.21,1.57v4.71h-1.23v-7.18Q266.3,424.63,266.28,424.05Z"/>
          <path class="jefferson_park-cls-6" d="M281,430.61a3.61,3.61,0,0,1-1.44,1.31,4,4,0,0,1-1.83.45,4.36,4.36,0,0,1-1.83-.38,4.16,4.16,0,0,1-1.4-1,4.67,4.67,0,0,1-.91-1.54,5.81,5.81,0,0,1,0-3.82,4.66,4.66,0,0,1,.91-1.54,4.18,4.18,0,0,1,1.4-1,4.38,4.38,0,0,1,1.83-.38,3.91,3.91,0,0,1,1.83.46,3.64,3.64,0,0,1,1.44,1.31h0v-7.27h1.23v15H281Zm-6.41-3.06a4.68,4.68,0,0,0,.22,1.44,3.58,3.58,0,0,0,.64,1.18,2.93,2.93,0,0,0,1,.79,3.29,3.29,0,0,0,4.46-1.94,4.44,4.44,0,0,0,0-2.94,3.67,3.67,0,0,0-.69-1.18,3.21,3.21,0,0,0-1-.79,3.09,3.09,0,0,0-1.33-.29,3.14,3.14,0,0,0-1.38.29,3,3,0,0,0-1,.8,3.58,3.58,0,0,0-.64,1.18,4.67,4.67,0,0,0-.23,1.48Z"/>
          <path class="jefferson_park-cls-6" d="M298.24,432.19h-1.45l5.64-13.94h1.23l5.61,13.94h-1.48l-1.41-3.66h-6.75Zm1.92-5h5.75l-2.88-7.4Z"/>
          <path class="jefferson_park-cls-6" d="M315.85,432.19h-1.38L310.94,423h1.4l2.8,7.8h0L318,423h1.34Z"/>
          <path class="jefferson_park-cls-6" d="M330.42,427.31v.29q0,.16,0,.33h-7.16a3.79,3.79,0,0,0,.26,1.31,3.28,3.28,0,0,0,.66,1.06,3.18,3.18,0,0,0,1,.72,3.12,3.12,0,0,0,2.93-.22,3.49,3.49,0,0,0,1.08-1.12l.95.79a4.75,4.75,0,0,1-1.71,1.5,4.53,4.53,0,0,1-2,.45,4.32,4.32,0,0,1-1.78-.37,4.15,4.15,0,0,1-1.41-1,4.85,4.85,0,0,1-.93-1.54,5.34,5.34,0,0,1-.34-1.93,5.44,5.44,0,0,1,.33-1.93,4.72,4.72,0,0,1,.92-1.54,4.23,4.23,0,0,1,1.39-1,4.07,4.07,0,0,1,1.71-.37,4.17,4.17,0,0,1,1.79.37,3.72,3.72,0,0,1,1.23,1,4.31,4.31,0,0,1,.79,1.44A5.73,5.73,0,0,1,330.42,427.31Zm-1.23-.43a3.45,3.45,0,0,0-.79-2.15,2.57,2.57,0,0,0-2.08-.85,2.74,2.74,0,0,0-1.17.25,3.07,3.07,0,0,0-.93.67,3.33,3.33,0,0,0-.65,1,3.27,3.27,0,0,0-.27,1.13Z"/>
        </g>
        <g>
          <path class="jefferson_park-cls-6" d="M250.75,661.87h-8.3V660.4l5.35-5.76a7.66,7.66,0,0,0,.58-.68,6.09,6.09,0,0,0,.5-.76,3.94,3.94,0,0,0,.36-.84,3.28,3.28,0,0,0,.12-.92,2.86,2.86,0,0,0-.21-1.1,2.42,2.42,0,0,0-.57-.84,2.55,2.55,0,0,0-.82-.52,2.62,2.62,0,0,0-1-.18,2.44,2.44,0,0,0-1.77.7,3.25,3.25,0,0,0-.92,1.78l-1.3-.28a4.16,4.16,0,0,1,.49-1.31,4.11,4.11,0,0,1,.89-1.09,4.06,4.06,0,0,1,1.23-.71,4,4,0,0,1,1.44-.25,4.56,4.56,0,0,1,1.5.25,3.42,3.42,0,0,1,2.08,1.93,4.07,4.07,0,0,1,.32,1.67,4.18,4.18,0,0,1-.17,1.25,5.5,5.5,0,0,1-.45,1.08,6.3,6.3,0,0,1-.68,1q-.38.46-.81.92l-4.71,5h6.92Z"/>
          <path class="jefferson_park-cls-6" d="M258.75,647.57a3.2,3.2,0,0,1,2,.64,4.62,4.62,0,0,1,1.32,1.67,8.5,8.5,0,0,1,.71,2.35,16.79,16.79,0,0,1,.21,2.62,16.62,16.62,0,0,1-.21,2.62,8.5,8.5,0,0,1-.71,2.35,4.53,4.53,0,0,1-1.32,1.67,3.63,3.63,0,0,1-4.08,0,4.53,4.53,0,0,1-1.32-1.67,8.34,8.34,0,0,1-.7-2.35,17.51,17.51,0,0,1-.2-2.62,17.69,17.69,0,0,1,.2-2.62,8.34,8.34,0,0,1,.7-2.35,4.62,4.62,0,0,1,1.32-1.67A3.23,3.23,0,0,1,258.75,647.57Zm0,1.21a2,2,0,0,0-1.44.56,4,4,0,0,0-.91,1.46,8.42,8.42,0,0,0-.47,2,18.19,18.19,0,0,0-.14,2.14,17.86,17.86,0,0,0,.14,2.13,8.31,8.31,0,0,0,.47,2,4,4,0,0,0,.91,1.43,2,2,0,0,0,1.44.56,2,2,0,0,0,1.43-.56,4,4,0,0,0,.91-1.43,8.56,8.56,0,0,0,.47-2,16.8,16.8,0,0,0,.14-2.13,17,17,0,0,0-.14-2.14,8.73,8.73,0,0,0-.47-2,4,4,0,0,0-.91-1.46,1.93,1.93,0,0,0-1.43-.58Z"/>
          <path class="jefferson_park-cls-6" d="M270.91,653.73h-2.46v5.37a3.21,3.21,0,0,0,.1.85,1.23,1.23,0,0,0,.27.52.91.91,0,0,0,.42.26,1.85,1.85,0,0,0,.52.07,2,2,0,0,0,.54-.08,2.6,2.6,0,0,0,.54-.22v1.15a3.51,3.51,0,0,1-.69.21,4.14,4.14,0,0,1-.79.07,3,3,0,0,1-.74-.1,1.82,1.82,0,0,1-.71-.37,2,2,0,0,1-.54-.75,3.06,3.06,0,0,1-.21-1.25v-5.74h-1.72v-1.12h1.79V650h1.23v2.62h2.46Z"/>
          <path class="jefferson_park-cls-6" d="M275.45,654.16a2.71,2.71,0,0,1,1.17-1.31,3.39,3.39,0,0,1,1.73-.47,2.94,2.94,0,0,1,2.46,1,4.34,4.34,0,0,1,.82,2.76v5.64H280.4v-5.09a7.13,7.13,0,0,0-.11-1.31,2.84,2.84,0,0,0-.38-1,1.85,1.85,0,0,0-.71-.66,2.43,2.43,0,0,0-1.13-.24,2.33,2.33,0,0,0-1,.22,2.39,2.39,0,0,0-.84.66,3.36,3.36,0,0,0-.59,1.13,5.19,5.19,0,0,0-.22,1.6v4.72h-1.23V647h1.23v7.18Z"/>
          <path class="jefferson_park-cls-6" d="M297.5,661.87h-1.45l5.64-13.94h1.23l5.61,13.94h-1.48l-1.44-3.66h-6.75Zm1.92-5h5.73l-2.88-7.4Z"/>
          <path class="jefferson_park-cls-6" d="M315.12,661.87h-1.36l-3.53-9.19h1.4l2.8,7.8h0l2.82-7.8h1.43Z"/>
          <path class="jefferson_park-cls-6" d="M329.74,657v.29q0,.16,0,.33h-7.16a3.79,3.79,0,0,0,.26,1.31,3.28,3.28,0,0,0,.66,1.06,3.18,3.18,0,0,0,1,.72,3.12,3.12,0,0,0,2.93-.22,3.49,3.49,0,0,0,1.08-1.12l.95.79a4.75,4.75,0,0,1-1.71,1.5,4.53,4.53,0,0,1-2,.45,4.32,4.32,0,0,1-1.78-.37,4.15,4.15,0,0,1-1.41-1,4.85,4.85,0,0,1-.93-1.54,5.34,5.34,0,0,1-.34-1.93,5.44,5.44,0,0,1,.33-1.93,4.72,4.72,0,0,1,.92-1.54,4.23,4.23,0,0,1,1.39-1,4.07,4.07,0,0,1,1.71-.37,4.17,4.17,0,0,1,1.79.37,3.72,3.72,0,0,1,1.23,1,4.31,4.31,0,0,1,.79,1.44A5.73,5.73,0,0,1,329.74,657Zm-1.23-.43a3.45,3.45,0,0,0-.79-2.15,2.57,2.57,0,0,0-2.08-.85,2.74,2.74,0,0,0-1.17.25,3.07,3.07,0,0,0-.93.67,3.33,3.33,0,0,0-.65,1,3.27,3.27,0,0,0-.27,1.13Z"/>
        </g>
        <polygon class="jefferson_park-cls-7" points="100.86 421.25 100.86 440.88 0.87 440.72 0.87 421.25 100.86 421.25"/>
        <polygon class="jefferson_park-cls-1" points="101.07 442.03 100.86 442.03 0.87 440.73 0.26 440.72 0.87 421.25 0.87 440.72 100.86 440.88 100.86 421.25 101.06 440.88 101.06 441.38 101.07 442.03"/>
        <polygon class="jefferson_park-cls-7" points="100.86 442.03 100.86 462.37 0.87 462.37 0.87 440.73 100.86 442.03"/>
        <polygon class="jefferson_park-cls-1" points="100.86 440.88 100.86 442.03 0.87 440.73 0.87 462.37 0.26 440.72 0.87 440.72 100.86 440.88"/>
      </g>
    </g>
    <g id="landmarks">
      <image id="anderson_house" width="256" height="256" transform="translate(48.28 377.83) scale(0.21 0.15)" xlink:href="/assets/maps/denvericons/021-home-1.png"/>
      <image id="sassafrass_american_eatery" width="256" height="256" transform="translate(208.7 222.13) scale(0.22 0.21)" xlink:href="/assets/maps/denvericons/022-store.png"/>
      <image id="briar_common_brewery" width="256" height="256" transform="translate(236.41 440.01) scale(0.2 0.17)" xlink:href="/assets/maps/denvericons/013-online-store.png"/>
      <image id="fire_station_12" width="256" height="256" transform="translate(22.39 224.89) scale(0.19 0.19)" xlink:href="/assets/maps/denvericons/006-fire-station.png"/>
      <image id="adams_mystery_playhouse" width="256" height="256" transform="translate(22.39 313.27) scale(0.16 0.14)" xlink:href="/assets/maps/denvericons/007-stage.png"/>
      <image id="_7_11" data-name="7_11" width="256" height="256" transform="translate(26.8 182.93) scale(0.15 0.15)" xlink:href="/assets/maps/denvericons/001-location.png"/>
      <image id="aquarium" width="256" height="256" transform="translate(464.59 400.08) scale(0.21 0.2)" xlink:href="/assets/maps/denvericons/005-bank.png"/>
    </g>
  </g>
</svg>
