<svg xmlns="http://www.w3.org/2000/svg" xmlns:xlink="http://www.w3.org/1999/xlink" viewBox="0 0 898.64 667">
  <defs>
    <style>
      .lower-highland-cls-1 {
        fill: none;
      }

      .lower-highland-cls-1, .lower-highland-cls-2, .lower-highland-cls-3, .lower-highland-cls-4, .lower-highland-cls-5, .lower-highland-cls-6 {
        stroke: #000;
        stroke-miterlimit: 10;
        stroke-width: 0.5px;
      }

      .lower-highland-cls-2 {
        fill: #999;
      }

      .lower-highland-cls-3 {
        fill: #ffd5d5;
      }

      .lower-highland-cls-4 {
        fill: #ff9696;
      }

      .lower-highland-cls-5 {
        fill: #769e6c;
      }

      .lower-highland-cls-6 {
        fill: #619cb0;
      }

      .lower-highland-cls-7 {
        fill: #5d5f60;
      }
    </style>
    <image id="image" width="256" height="256" xlink:href="../../../../../../../denvericons/024-home.png"/>
    <image id="image-2" width="256" height="256" xlink:href="../../../../../../../denvericons/014-monastery.png"/>
    <image id="image-3" width="256" height="256" xlink:href="../../../../../../../denvericons/011-cafe.png"/>
  </defs>
  <title>lower_highland_final</title>
  <g id="Layer_2" data-name="Layer 2">
    <g id="neighborhoods">
      <g id="lowerhighland">
        <g id="lowerhighlands">
          <path class="lower-highland-cls-1" d="M599.33,319.12l11.74-10v-1Zm35.61,4.72-14,12.71.81.64,13.65-13.05,13.87-13.24ZM519.62,308.2l-.4.41H520ZM480,504l1.45,1.36h0Z"/>
          <path class="lower-highland-cls-2" d="M483.5,529.13l-4.78,20.82-.1.64-1.69,19c-.21,2.33-1.08,9.54-1.08,12.22-1.3-.12-6-9.21-6.72-10.31h0a8.34,8.34,0,0,0-3.75-3.17l-4.61-2a8.62,8.62,0,0,0-5.34-.47l-14.32,3.35c-2.28.54-13.64,4.72-14.18,2.45-.35-1.47,9.18-8.6,10.29-9.64l39.23-37h0c1.7-1.61,8.12-9.22,9.73-7.53C487.18,518.57,483.85,527.73,483.5,529.13Z"/>
          <path class="lower-highland-cls-2" d="M475.86,581.78,473.69,606a17.88,17.88,0,0,1-3.88,9.61L467,619.16a18.36,18.36,0,0,1-12.11,6.73l-12.2,1.48-48-25.32L415,582.89l10.92,10.31a19.58,19.58,0,0,0,15,5.28l14.33-1.14a22.54,22.54,0,0,0,17.14-10.22Z"/>
          <polygon class="lower-highland-cls-2" points="562.26 582.82 548.28 603.23 518.25 624.98 486.63 650.56 478.29 646.15 495.05 623.62 480.03 578.76 517.24 539.67 562.26 582.82"/>
          <path class="lower-highland-cls-2" d="M480,578.76l15,44.87-16.76,22.53-35.64-18.79,12.74-1.54a14.25,14.25,0,0,0,10.5-6.8l2.51-4.16a22.22,22.22,0,0,0,2.83-7.49l4.65-25.6h0l2.81-31.56,8-34.67,2.73-2.58,27.87,26.7Z"/>
          <polygon class="lower-highland-cls-2" points="384.7 546.07 351.09 579.1 339.23 572.84 343.54 550.21 383.12 547.49 384.7 546.07"/>
          <polygon class="lower-highland-cls-2" points="476.46 525.11 425.68 572.84 415.02 582.89 394.63 602.05 351.09 579.1 384.7 546.07 396.77 535.25 476.46 525.11"/>
          <polygon class="lower-highland-cls-3" points="667.31 345.63 489.37 512.97 481.41 505.34 561.18 423.52 581.01 403.18 600.26 383.43 618.25 364.98 619.26 363.94 619.26 338.11 620.95 336.59 621.76 337.21 635.42 324.17 667.31 345.63"/>
          <polygon class="lower-highland-cls-4" points="484.22 345.13 480.24 349.27 460.73 369.63 460.5 321.8 484.22 345.13"/>
          <polygon class="lower-highland-cls-3" points="526.62 386.81 523.36 389.84 505.27 406.69 483.42 427 467.76 412.47 507.33 374.82 480.24 349.27 484.22 345.13 526.62 386.81"/>
          <polygon class="lower-highland-cls-3" points="581.01 403.18 561.18 423.52 523.36 389.84 526.62 386.81 545.09 369.63 581.01 403.18"/>
          <polygon class="lower-highland-cls-4" points="519.22 308.62 501.63 326.98 484.22 345.13 460.5 321.8 460.43 308.88 519.22 308.62"/>
          <polygon class="lower-highland-cls-4" points="311.86 388.75 297.13 379.39 297.13 365.3 302.21 352.47 311.82 357.99 311.86 388.75"/>
          <polygon class="lower-highland-cls-4" points="297.13 365.3 297.13 379.37 264.37 358.5 243.56 358.42 237.07 358.42 237.07 348.99 268.46 348.99 297.13 365.3"/>
          <polygon class="lower-highland-cls-4" points="237.07 348.99 237.07 358.42 170.78 358.16 163.36 351.71 163.3 335.05 175.31 335.09 175.65 348.99 237.07 348.99"/>
          <polygon class="lower-highland-cls-4" points="243.56 358.42 243.56 386.04 189.83 378.97 183.84 368.02 174.28 361.22 170.78 358.16 237.07 358.42 243.56 358.42"/>
          <polygon class="lower-highland-cls-4" points="311.82 357.99 302.21 352.47 272.56 335.39 237.07 335.3 237.07 309.88 261.86 309.78 311.74 309.55 311.82 357.99"/>
          <polygon class="lower-highland-cls-4" points="237.07 309.88 237.07 335.3 175.31 335.09 163.3 335.05 163.2 310.2 237.07 309.88"/>
          <polygon class="lower-highland-cls-4" points="311.95 439.98 271.19 416.97 232.98 412.89 211.14 402.01 192.03 382.98 189.83 378.97 243.56 386.04 243.56 358.42 264.37 358.5 297.13 379.37 297.13 379.39 311.86 388.75 311.86 388.75 311.95 439.98"/>
          <polygon class="lower-highland-cls-4" points="201.58 462.68 201.58 500.3 129.92 462.51 201.58 462.68"/>
          <polygon class="lower-highland-cls-4" points="273.93 509.42 273.27 538.08 201.58 500.3 201.58 462.68 239.04 462.76 269.83 495.82 273.93 509.42"/>
          <polygon class="lower-highland-cls-4" points="273.27 538.08 273.93 509.42 269.83 495.82 239.04 462.76 311.98 462.92 312.14 558.57 273.27 538.08"/>
          <polygon class="lower-highland-cls-3" points="481.41 505.34 489.37 512.97 486.63 515.54 476.46 525.11 396.77 535.25 384.7 546.07 383.12 547.49 343.54 550.21 339.23 572.84 312.14 558.57 311.98 462.92 444.55 463.19 483.42 427 505.27 406.69 523.36 389.84 561.18 423.52 481.41 505.34 479.95 503.93 481.4 505.34 481.41 505.34"/>
          <polygon class="lower-highland-cls-4" points="261.86 309.78 237.07 309.88 163.2 310.2 163.01 260.01 261.67 259.63 261.86 309.78"/>
          <polygon class="lower-highland-cls-4" points="649.29 258.15 649.29 306.84 613.8 306.84 611.07 309.18 611.07 308.2 610.84 258.29 649.29 258.15"/>
          <polygon class="lower-highland-cls-4" points="777.72 165.44 714.81 257.89 684.96 258.02 685.38 165.33 777.72 165.44"/>
          <polygon class="lower-highland-cls-4" points="685.38 165.33 684.96 258.02 649.29 258.15 649.29 165.29 685.38 165.33"/>
          <path class="lower-highland-cls-4" d="M610.37,165.24l.41,93.05,38.45-.15V165.29Zm21.12,92.66H611v-15h20.47Z"/>
          <polygon class="lower-highland-cls-4" points="610.84 258.29 460.17 258.87 459.7 165.06 610.43 165.25 610.84 258.29"/>
          <polygon class="lower-highland-cls-4" points="460.17 258.87 311.65 259.43 311.49 164.91 459.7 165.06 460.17 258.87"/>
          <polygon class="lower-highland-cls-4" points="311.65 259.43 261.67 259.63 261.33 164.84 311.49 164.91 311.65 259.43"/>
          <polygon class="lower-highland-cls-4" points="261.67 259.63 163.01 260.01 162.63 164.72 261.33 164.84 261.67 259.63"/>
          <polygon class="lower-highland-cls-2" points="311.98 462.92 239.04 462.76 201.58 462.68 129.92 462.51 129.5 462.51 2.44 371.67 2.08 310.92 163.2 310.2 163.3 335.05 163.36 351.71 170.78 358.16 174.28 361.22 183.84 368.02 189.83 378.97 192.03 382.98 211.14 402.01 232.98 412.89 271.19 416.97 311.95 439.98 311.98 462.92"/>
          <polygon class="lower-highland-cls-4" points="163.2 310.2 2.08 310.92 1.78 260.61 163.01 260.01 163.2 310.2"/>
          <polygon class="lower-highland-cls-4" points="163.01 260.01 1.78 260.61 1.21 164.53 162.63 164.72 163.01 260.01"/>
          <polygon class="lower-highland-cls-4" points="898.39 0.25 898.39 91.68 834.92 130.09 798.07 162.72 698.43 316.36 667.31 345.63 635.42 324.17 649.29 310.92 649.29 308.2 675.22 308.2 684.78 295.96 684.96 258.02 714.81 257.89 777.72 165.44 798.07 135.53 798.07 0.71 898.39 0.25"/>
          <polygon class="lower-highland-cls-4" points="686.14 1.23 685.38 165.33 649.29 165.29 649.29 1.38 686.14 1.23"/>
          <polygon class="lower-highland-cls-4" points="649.29 1.38 649.29 165.29 610.43 165.25 609.71 1.57 649.29 1.38"/>
          <polygon class="lower-highland-cls-4" points="610.43 165.25 459.7 165.06 458.88 2.26 609.71 1.57 610.43 165.25"/>
          <polygon class="lower-highland-cls-4" points="459.7 165.06 311.49 164.91 261.33 164.84 260.73 3.15 458.88 2.26 459.7 165.06"/>
          <polygon class="lower-highland-cls-4" points="261.33 164.84 162.63 164.72 162 3.6 260.73 3.15 261.33 164.84"/>
          <polygon class="lower-highland-cls-4" points="162.63 164.72 1.21 164.53 0.25 4.33 162 3.6 162.63 164.72"/>
          <polygon class="lower-highland-cls-5" points="606.69 625.39 577.5 655.81 564.66 639.94 560.57 607.31 572.2 592.34 606.69 625.39"/>
          <path class="lower-highland-cls-5" d="M853.54,321.79l-17,43.51a31.6,31.6,0,0,1-18,18l-60.74,23.51-21.84,29a21.94,21.94,0,0,1-6.59,5.82l-24.5,14.09a29.78,29.78,0,0,0-11.12,11.23L681.45,488.7a26,26,0,0,0-3.26,10.88l-1.75,23.56a48.64,48.64,0,0,0,1.12,14.59L681,552.4a27.11,27.11,0,0,1-6,23.93l-13.28,15.35a30.69,30.69,0,0,1-8.33,6.8L612,621.31a22.26,22.26,0,0,0-5.28,4.08h0l-34.53-33.07,11.57-15,56-81.58,8.19-31.27,27.3-29.91,29.43-42.75a34.27,34.27,0,0,1,8.14-8.21l5.28-3.83,17-12.32a31.82,31.82,0,0,1,6.36-3.58l19.11-8a24.83,24.83,0,0,1,7-1.79l19.9-2.08a34.51,34.51,0,0,0,4.74-.83l16.19-4.08a18,18,0,0,0,6.09-2.8l25.93-18.42Z"/>
          <line class="lower-highland-cls-1" x1="780.32" y1="165.44" x2="777.72" y2="165.44"/>
          <line class="lower-highland-cls-1" x1="1.21" y1="164.53" x2="1.18" y2="164.53"/>
          <polygon class="lower-highland-cls-4" points="798.07 0.71 798.07 135.53 777.72 165.44 685.38 165.33 686.14 1.23 798.07 0.71"/>
          <line class="lower-highland-cls-1" x1="1.78" y1="260.61" x2="0.93" y2="260.61"/>
          <polygon class="lower-highland-cls-5" points="129.5 462.51 2.98 462.51 2.44 371.67 129.5 462.51"/>
          <polygon class="lower-highland-cls-4" points="483.42 427 444.55 463.19 311.98 462.92 311.95 439.98 311.86 388.75 311.86 388.75 311.82 357.99 311.74 309.55 460.43 308.88 460.5 321.8 460.73 369.63 460.92 406.09 467.76 412.47 483.42 427"/>
          <polygon class="lower-highland-cls-4" points="460.43 308.88 311.74 309.55 311.65 259.43 460.17 258.87 460.43 308.88"/>
          <line class="lower-highland-cls-1" x1="312.14" y1="440.08" x2="311.95" y2="439.97"/>
          <polygon class="lower-highland-cls-4" points="311.74 309.55 261.86 309.78 261.67 259.63 311.65 259.43 311.74 309.55"/>
          <line class="lower-highland-cls-1" x1="311.49" y1="164.9" x2="311.23" y2="3.6"/>
          <polygon class="lower-highland-cls-4" points="611.07 308.2 520.04 308.62 519.62 308.2 519.22 308.62 460.43 308.88 460.17 258.87 610.84 258.29 611.07 308.2"/>
          <line class="lower-highland-cls-1" x1="522.35" y1="463.19" x2="483.42" y2="427"/>
          <line class="lower-highland-cls-1" x1="611.07" y1="309.56" x2="611.07" y2="309.16"/>
          <polygon class="lower-highland-cls-4" points="564.83 351.26 545.09 369.63 501.63 326.98 519.22 308.62 520.04 308.62 564.83 351.26"/>
          <polygon class="lower-highland-cls-4" points="611.07 308.2 599.33 319.12 599.28 319.17 583.81 333.57 564.83 351.26 520.04 308.62 611.07 308.2"/>
          <polygon class="lower-highland-cls-3" points="620.95 336.59 619.26 338.11 619.26 363.94 618.25 364.98 583.81 333.57 599.28 319.17 620.95 336.59"/>
          <polygon class="lower-highland-cls-3" points="618.25 364.98 600.26 383.43 564.83 351.26 583.81 333.57 618.25 364.98"/>
          <polygon class="lower-highland-cls-3" points="600.26 383.43 581.01 403.18 545.09 369.63 564.83 351.26 600.26 383.43"/>
          <polyline class="lower-highland-cls-4" points="479.95 503.93 479.68 503.67 438.17 463.19"/>
          <polygon class="lower-highland-cls-5" points="684.96 258.02 684.78 295.96 675.22 308.2 649.29 308.2 649.29 258.15 684.96 258.02"/>
          <line class="lower-highland-cls-1" x1="757.12" y1="406.09" x2="718.03" y2="379.77"/>
          <line class="lower-highland-cls-1" x1="635.42" y1="324.16" x2="634.98" y2="323.86"/>
          <line class="lower-highland-cls-1" x1="312.14" y1="358.16" x2="311.82" y2="357.97"/>
          <line class="lower-highland-cls-1" x1="311.87" y1="388.75" x2="311.86" y2="388.75"/>
          <polyline class="lower-highland-cls-1" points="243.56 386.04 261.64 388.42 311.87 414.25"/>
          <polygon class="lower-highland-cls-4" points="237.07 335.3 237.07 348.99 175.65 348.99 175.31 335.09 237.07 335.3"/>
          <line class="lower-highland-cls-1" x1="175.31" y1="335.09" x2="175.31" y2="335.05"/>
          <polygon class="lower-highland-cls-4" points="302.21 352.47 297.13 365.3 268.46 348.99 237.07 348.99 237.07 335.3 272.56 335.39 302.21 352.47"/>
          <line class="lower-highland-cls-1" x1="479.95" y1="503.93" x2="479.68" y2="503.67"/>
          <polygon class="lower-highland-cls-2" points="693.29 363.13 517.24 539.67 489.37 512.97 667.31 345.63 693.29 363.13"/>
          <path class="lower-highland-cls-2" d="M704.56,370.66l-.45.2a32.08,32.08,0,0,0-13.32,11.72L667,419.69l-36.85,53L622,494.46l-53.23,78.86-6.5,9.52-45-43.15L693.29,363.15Z"/>
          <line class="lower-highland-cls-1" x1="730.57" y1="440.94" x2="685.66" y2="370.78"/>
          <polygon class="lower-highland-cls-4" points="545.09 369.63 526.62 386.81 484.22 345.13 501.63 326.98 545.09 369.63"/>
          <line class="lower-highland-cls-1" x1="505.26" y1="406.69" x2="542.82" y2="441.44"/>
          <line class="lower-highland-cls-1" x1="239.04" y1="462.74" x2="238.96" y2="462.66"/>
          <polyline class="lower-highland-cls-1" points="201.57 477.64 231.61 478.15 247.99 497.18 261.64 487.67"/>
          <path class="lower-highland-cls-5" d="M898.38,91.68V206.91L864.77,293l-18.51,8a38.79,38.79,0,0,0-12.71,8.86l-13.77,14.48A28.45,28.45,0,0,1,807,332.07l-21.18,6-19.55,3.25a32.47,32.47,0,0,0-9.55,3.17l-35,18.07-17.08,8.08-11.21-7.53-25.93-17.5,31.12-29.27,99.64-153.63L835,130.09Z"/>
          <path class="lower-highland-cls-2" d="M475.86,581.76h0l-2.73,7.42c-3.63,5.62-10.67,7.55-17.36,8.08l-12,1a26,26,0,0,1-19.91-7l-2.23-2.1a16.1,16.1,0,0,0-2.87-2.17c-4.95-2.91-4.48-3.36,1.21-8.75l.28-.27,3.34-3.15a10.56,10.56,0,0,1,4.82-2.59l24.26-5.73a17.19,17.19,0,0,1,10.7.92h0a15.49,15.49,0,0,1,6.92,5.83Z"/>
          <polygon class="lower-highland-cls-5" points="507.33 374.82 467.76 412.47 460.92 406.09 460.73 369.63 480.24 349.27 507.33 374.82"/>
          <path class="lower-highland-cls-6" d="M716,381.21l-2,1.36a44,44,0,0,0-10.4,10.66l-27.59,40.07a23.13,23.13,0,0,1-2,2.47l-21.06,23.11A31.08,31.08,0,0,0,646,472l-3.9,15a53.21,53.21,0,0,1-7.6,16.63l-50.68,73.88v.08l-10.37,13.38a1.72,1.72,0,0,1-2.41.31l-.14-.12-7.51-7.19a1.71,1.71,0,0,1-.23-2.2l5.68-8.29,52-77.1a18.07,18.07,0,0,0,1.94-3.74l6.82-18.11a14.27,14.27,0,0,1,1.64-3.11l35.84-51.57,24-37.5a30.37,30.37,0,0,1,12.63-11.11h0a1.73,1.73,0,0,1,1.69.12L716,378.46a1.7,1.7,0,0,1,.39,2.38A1.35,1.35,0,0,1,716,381.21Z"/>
          <path class="lower-highland-cls-6" d="M577.51,655.79l-10.32,10.75-8.29-20a34.42,34.42,0,0,1-1.71-5.28l-3.41-14.44a3.87,3.87,0,0,0-6.2-2.11l-43.41,35-17.57-9.26L518,625.17l.49-.38,27-19.58a19.57,19.57,0,0,0,4.67-4.8l12.07-17.67,9.94,9.52L565,601.5a17.54,17.54,0,0,0-3.55,12.94l2.18,17.42a28.29,28.29,0,0,0,6.09,14.29Z"/>
          <path class="lower-highland-cls-6" d="M864.79,293l-11.25,28.82-7.44,2.31a37.31,37.31,0,0,0-10.58,5.23l-18.85,13.42a32,32,0,0,1-10.82,5L792.42,351a37.41,37.41,0,0,1-5.15.91l-16.38,1.71a47.32,47.32,0,0,0-13.36,3.43L743,363.26a46.83,46.83,0,0,0-9.35,5.25L718,379.81l-13.53-9.11,17.13-8.08,33.44-17.25a44.24,44.24,0,0,1,13-4.31L784,338.41a32.12,32.12,0,0,0,3.54-.79l17.13-4.88a37.25,37.25,0,0,0,16.8-10.16L832,311.48a49.88,49.88,0,0,1,16.38-11.41Z"/>
          <polygon class="lower-highland-cls-5" points="649.29 306.84 649.29 310.92 634.98 323.88 620.95 336.59 599.28 319.17 599.33 319.12 611.07 309.18 613.8 306.84 649.29 306.84"/>
          <polygon class="lower-highland-cls-1" points="649.29 310.92 635.42 324.17 621.76 337.21 620.95 336.59 634.98 323.88 649.29 310.92"/>
          <rect class="lower-highland-cls-5" x="611.07" y="242.94" width="20.47" height="14.96"/>
          <polygon class="lower-highland-cls-4" points="312.14 463.19 312.14 558.36 339.44 573.32 343.54 550.21 383.12 547.49 396.77 535.25 475.94 525.73 489.29 513.12 437.46 462.43 312.14 463.19"/>
          <polygon class="lower-highland-cls-3" points="467.76 441.59 432.26 406.09 460.92 406.09 482.76 427.84 467.76 441.59"/>
          <g>
            <path class="lower-highland-cls-7" d="M37.09,14.77h.51a4.62,4.62,0,0,0,1.05-.11,2.48,2.48,0,0,0,.86-.37,1.78,1.78,0,0,0,.59-.67,2.09,2.09,0,0,0,.22-1,2.14,2.14,0,0,0-.18-.88,2,2,0,0,0-.51-.68,2.31,2.31,0,0,0-.74-.44A2.51,2.51,0,0,0,38,10.5a2.36,2.36,0,0,0-2.21,1.36l-1-.52A3.53,3.53,0,0,1,36.18,10a3.94,3.94,0,0,1,1.9-.45,4.11,4.11,0,0,1,1.36.2,3.32,3.32,0,0,1,1.08.6,2.8,2.8,0,0,1,.75,1,3.08,3.08,0,0,1,.27,1.36A2.62,2.62,0,0,1,41,14.39a2.73,2.73,0,0,1-1.45.92h0a3,3,0,0,1,1.67,1,2.71,2.71,0,0,1,.67,1.92,3.44,3.44,0,0,1-.3,1.48,3.33,3.33,0,0,1-.81,1.09,3.51,3.51,0,0,1-1.19.68,4.34,4.34,0,0,1-1.36.23A4,4,0,0,1,36,21.05a3.82,3.82,0,0,1-1.54-1.77l1.12-.41a2.54,2.54,0,0,0,1,1.36,2.83,2.83,0,0,0,2.53.3,2.47,2.47,0,0,0,.82-.49,2.39,2.39,0,0,0,.56-.77,2.45,2.45,0,0,0,.22-1,2.21,2.21,0,0,0-.26-1.1,2.07,2.07,0,0,0-.68-.72,2.94,2.94,0,0,0-1-.39,5.06,5.06,0,0,0-1.12-.12h-.53Z"/>
            <path class="lower-highland-cls-7" d="M50.52,15.21a3,3,0,0,1,1.57,1.09,3.19,3.19,0,0,1,.63,2,3.08,3.08,0,0,1-.3,1.36,3.26,3.26,0,0,1-.81,1,3.66,3.66,0,0,1-1.19.67,4.36,4.36,0,0,1-2.84,0,3.66,3.66,0,0,1-1.19-.67,3.26,3.26,0,0,1-.81-1,3.08,3.08,0,0,1-.3-1.36,3.45,3.45,0,0,1,.16-1.09,3.19,3.19,0,0,1,.46-.9,2.94,2.94,0,0,1,.7-.68,3.19,3.19,0,0,1,.87-.42h0a2.3,2.3,0,0,1-.71-.38,2.49,2.49,0,0,1-.55-.6,3.09,3.09,0,0,1-.35-.76,2.86,2.86,0,0,1-.14-.86A3,3,0,0,1,46,11.32a2.88,2.88,0,0,1,.64-1,3.28,3.28,0,0,1,1.09-.56,3.7,3.7,0,0,1,2.51,0,3.26,3.26,0,0,1,1.05.63,2.92,2.92,0,0,1,.71,1,3,3,0,0,1,.26,1.28,2.86,2.86,0,0,1-.14.86,3.09,3.09,0,0,1-.35.76,2.49,2.49,0,0,1-.55.6,2.3,2.3,0,0,1-.71.38Zm-4.09,3a2.71,2.71,0,0,0,.18,1,2.19,2.19,0,0,0,.52.79,2.46,2.46,0,0,0,.81.52,3,3,0,0,0,2.07,0,2.46,2.46,0,0,0,.81-.52,2.19,2.19,0,0,0,.52-.79,2.71,2.71,0,0,0,.18-1,2.52,2.52,0,0,0-.18-1,2.24,2.24,0,0,0-.52-.76,2.36,2.36,0,0,0-.81-.5,3.11,3.11,0,0,0-2.07,0,2.36,2.36,0,0,0-.81.5,2.24,2.24,0,0,0-.52.76,2.52,2.52,0,0,0-.15,1Zm.41-5.53a2,2,0,0,0,.16.83,2,2,0,0,0,.46.65,2.14,2.14,0,0,0,.68.44,2.2,2.2,0,0,0,2.33-.44,2,2,0,0,0,.46-.65,2,2,0,0,0,.16-.83,2.24,2.24,0,0,0-.16-.86,2.05,2.05,0,0,0-.45-.68,2.09,2.09,0,0,0-.67-.45,2.26,2.26,0,0,0-1.69,0,2.09,2.09,0,0,0-.67.45,2,2,0,0,0-.45.68,2.24,2.24,0,0,0-.15.87Z"/>
            <path class="lower-highland-cls-7" d="M59.79,14.62H57.57v4.46a2.52,2.52,0,0,0,.08.71,1,1,0,0,0,.23.44.81.81,0,0,0,.37.22,1.74,1.74,0,0,0,.46,0,2,2,0,0,0,.48,0,2.46,2.46,0,0,0,.48-.18v1a3.29,3.29,0,0,1-.61.18,3.92,3.92,0,0,1-.7,0,2.88,2.88,0,0,1-.66-.08,1.65,1.65,0,0,1-.64-.31,1.69,1.69,0,0,1-.48-.63,2.4,2.4,0,0,1-.19-1V14.59H54.93v-.92h1.58V11.54h1.05v2.15h2.16Z"/>
            <path class="lower-highland-cls-7" d="M63.82,14.95a2.3,2.3,0,0,1,1-1.06,3.18,3.18,0,0,1,1.54-.39,2.74,2.74,0,0,1,2.18.87,3.42,3.42,0,0,1,.72,2.28v4.68H68.19V17.11a5.59,5.59,0,0,0-.1-1.09,2.28,2.28,0,0,0-.34-.84,1.61,1.61,0,0,0-.64-.54,2.3,2.3,0,0,0-1-.19,2.16,2.16,0,0,0-.86.18,2.1,2.1,0,0,0-.75.54,2.72,2.72,0,0,0-.52.92,4.06,4.06,0,0,0-.19,1.36v3.87H62.66V9h1.12v6Z"/>
            <path class="lower-highland-cls-7" d="M83.4,21.32H82.14l5-11.56h1.15l5,11.56H91.89l-1.28-3H84.67Zm1.71-4.08h5.1l-2.55-6.12Z"/>
            <path class="lower-highland-cls-7" d="M99,21.32H97.82L94.69,13.7h1.24l2.48,6.46h0l2.51-6.46h1.2Z"/>
            <path class="lower-highland-cls-7" d="M112,17.29v.24a2.59,2.59,0,0,1,0,.27h-6.36a3,3,0,0,0,.23,1.07,2.72,2.72,0,0,0,.59.88,2.84,2.84,0,0,0,.89.6,2.93,2.93,0,0,0,2.59-.18,3,3,0,0,0,1-.92l.83.65a4.09,4.09,0,0,1-1.52,1.24,4.26,4.26,0,0,1-1.77.38,4.11,4.11,0,0,1-1.58-.3,3.7,3.7,0,0,1-1.26-.84,4,4,0,0,1-.83-1.28,4.16,4.16,0,0,1-.3-1.6,4.27,4.27,0,0,1,.3-1.6,3.86,3.86,0,0,1,.82-1.28,3.77,3.77,0,0,1,1.23-.84,3.82,3.82,0,0,1,1.53-.3,3.92,3.92,0,0,1,1.58.3,3.28,3.28,0,0,1,1.15.82,3.49,3.49,0,0,1,.7,1.2A4.44,4.44,0,0,1,112,17.29Zm-1.19-.37a2.71,2.71,0,0,0-.63-1.71,2.37,2.37,0,0,0-1.84-.71,2.59,2.59,0,0,0-1,.2,2.77,2.77,0,0,0-1.41,1.36,2.58,2.58,0,0,0-.25.94Z"/>
          </g>
          <g>
            <path class="lower-highland-cls-7" d="M31.63,153h.51a4.62,4.62,0,0,0,1.05-.11,2.48,2.48,0,0,0,.86-.37,1.78,1.78,0,0,0,.59-.67,2.09,2.09,0,0,0,.22-1,2.14,2.14,0,0,0-.18-.88,2,2,0,0,0-.51-.68,2.31,2.31,0,0,0-.74-.44,2.51,2.51,0,0,0-.87-.15,2.36,2.36,0,0,0-2.21,1.36l-1-.52a3.53,3.53,0,0,1,1.36-1.36,3.94,3.94,0,0,1,1.9-.45A4.11,4.11,0,0,1,34,148a3.32,3.32,0,0,1,1.08.6,2.8,2.8,0,0,1,.75,1,3.08,3.08,0,0,1,.27,1.36,2.62,2.62,0,0,1-.57,1.73,2.73,2.73,0,0,1-1.45.92h0a3,3,0,0,1,1.67,1,2.71,2.71,0,0,1,.67,1.92,3.44,3.44,0,0,1-.3,1.48,3.33,3.33,0,0,1-.81,1.09,3.51,3.51,0,0,1-1.19.68,4.34,4.34,0,0,1-1.36.23,4,4,0,0,1-2.22-.61,3.82,3.82,0,0,1-1.45-1.75l1.12-.41a2.54,2.54,0,0,0,1,1.36,2.83,2.83,0,0,0,2.53.3,2.47,2.47,0,0,0,.82-.49,2.39,2.39,0,0,0,.56-.77,2.45,2.45,0,0,0,.22-1,2.21,2.21,0,0,0-.26-1.1,2.07,2.07,0,0,0-.68-.72,2.94,2.94,0,0,0-1-.39,5.06,5.06,0,0,0-1.12-.12h-.63Z"/>
            <path class="lower-highland-cls-7" d="M46.56,149H41.73l-.08,3.58a4.59,4.59,0,0,1,.79-.19,5.25,5.25,0,0,1,.81,0,4.19,4.19,0,0,1,1.5.26,3.52,3.52,0,0,1,1.19.75,3.33,3.33,0,0,1,.78,1.16,3.79,3.79,0,0,1,.27,1.47,4.24,4.24,0,0,1-.27,1.54,3.51,3.51,0,0,1-2,2,4.11,4.11,0,0,1-1.57.3,3.79,3.79,0,0,1-3.47-2.13l1.06-.48a2.57,2.57,0,0,0,.94,1.14,2.46,2.46,0,0,0,1.36.42,2.84,2.84,0,0,0,1.09-.2,2.51,2.51,0,0,0,.86-.57,2.64,2.64,0,0,0,.56-.87,3.06,3.06,0,0,0,0-2.24,2.57,2.57,0,0,0-.6-.87,2.73,2.73,0,0,0-.91-.56,3.25,3.25,0,0,0-1.15-.19,4.59,4.59,0,0,0-1.24.18,5.92,5.92,0,0,0-1.17.46l.11-6h5.91Z"/>
            <path class="lower-highland-cls-7" d="M54.33,152.85H52.11v4.46a2.52,2.52,0,0,0,.08.71,1,1,0,0,0,.23.44.81.81,0,0,0,.37.22,1.74,1.74,0,0,0,.46,0,2,2,0,0,0,.48,0,2.46,2.46,0,0,0,.48-.18v1a3.29,3.29,0,0,1-.61.18,3.92,3.92,0,0,1-.7,0,2.88,2.88,0,0,1-.66-.08,1.65,1.65,0,0,1-.64-.31,1.69,1.69,0,0,1-.48-.63,2.4,2.4,0,0,1-.19-1v-4.76H49.47v-.92h1.58v-2.09h1.05V152h2.16Z"/>
            <path class="lower-highland-cls-7" d="M58.36,153.18a2.3,2.3,0,0,1,1-1.06,3.18,3.18,0,0,1,1.54-.39,2.74,2.74,0,0,1,2.18.87,3.42,3.42,0,0,1,.72,2.28v4.68H62.73v-4.23a5.59,5.59,0,0,0-.1-1.09,2.28,2.28,0,0,0-.34-.84,1.61,1.61,0,0,0-.64-.54,2.3,2.3,0,0,0-1-.19,2.16,2.16,0,0,0-.86.18,2.1,2.1,0,0,0-.75.54,2.72,2.72,0,0,0-.52.92,4.06,4.06,0,0,0-.19,1.36v3.92H57.2V147.22h1.12v6Z"/>
            <path class="lower-highland-cls-7" d="M77.94,159.55H76.68l5-11.56h1.15l5,11.56H86.45l-1.28-3h-6Zm1.71-4.08h5.1l-2.55-6.13Z"/>
            <path class="lower-highland-cls-7" d="M93.59,159.55H92.36l-3.13-7.64h1.24L93,158.37h0l2.51-6.46h1.2Z"/>
            <path class="lower-highland-cls-7" d="M106.53,155.52v.24a2.59,2.59,0,0,1,0,.27h-6.36a3,3,0,0,0,.23,1.07,2.72,2.72,0,0,0,.59.88,2.84,2.84,0,0,0,.89.6,2.93,2.93,0,0,0,2.59-.18,3,3,0,0,0,1-.92l.83.65a4.09,4.09,0,0,1-1.52,1.24,4.26,4.26,0,0,1-1.77.38,4.11,4.11,0,0,1-1.58-.3,3.7,3.7,0,0,1-1.26-.84,4,4,0,0,1-.83-1.28,4.16,4.16,0,0,1-.3-1.6,4.27,4.27,0,0,1,.3-1.6,3.86,3.86,0,0,1,.82-1.28,3.77,3.77,0,0,1,1.23-.84,3.82,3.82,0,0,1,1.53-.3,3.92,3.92,0,0,1,1.58.3,3.28,3.28,0,0,1,1.15.82,3.49,3.49,0,0,1,.7,1.2A4.44,4.44,0,0,1,106.53,155.52Zm-1.13-.35a2.71,2.71,0,0,0-.7-1.78,2.37,2.37,0,0,0-1.84-.71,2.59,2.59,0,0,0-1,.2,2.77,2.77,0,0,0-1.41,1.36,2.58,2.58,0,0,0-.25.94Z"/>
          </g>
          <g>
            <path class="lower-highland-cls-7" d="M36,247.26h.51a4.62,4.62,0,0,0,1.05-.11,2.48,2.48,0,0,0,.86-.37,1.78,1.78,0,0,0,.59-.67,2.09,2.09,0,0,0,.22-1,2.14,2.14,0,0,0-.18-.88,2,2,0,0,0-.51-.68,2.31,2.31,0,0,0-.74-.44A2.51,2.51,0,0,0,37,243a2.36,2.36,0,0,0-2.21,1.36l-1-.52a3.53,3.53,0,0,1,1.36-1.36A3.94,3.94,0,0,1,37,242a4.11,4.11,0,0,1,1.36.2,3.32,3.32,0,0,1,1.08.6,2.8,2.8,0,0,1,.75,1,3.08,3.08,0,0,1,.27,1.36,2.62,2.62,0,0,1-.57,1.73,2.73,2.73,0,0,1-1.46.82h0a3,3,0,0,1,1.67,1,2.71,2.71,0,0,1,.67,1.92,3.44,3.44,0,0,1-.3,1.48,3.33,3.33,0,0,1-.81,1.09,3.51,3.51,0,0,1-1.19.68,4.34,4.34,0,0,1-1.36.23,4,4,0,0,1-2.22-.61,3.83,3.83,0,0,1-1.57-1.66l1.12-.41a2.54,2.54,0,0,0,1,1.36A2.83,2.83,0,0,0,38,253a2.47,2.47,0,0,0,.82-.49,2.39,2.39,0,0,0,.56-.77,2.45,2.45,0,0,0,.22-1,2.21,2.21,0,0,0-.26-1.1,2.07,2.07,0,0,0-.68-.72,2.94,2.94,0,0,0-1-.39,5.06,5.06,0,0,0-1.12-.12H36Z"/>
            <path class="lower-highland-cls-7" d="M46.65,247.26h.51a4.62,4.62,0,0,0,1.05-.11,2.48,2.48,0,0,0,.86-.37,1.78,1.78,0,0,0,.59-.67,2.09,2.09,0,0,0,.22-1,2.14,2.14,0,0,0-.18-.88,2,2,0,0,0-.51-.68,2.31,2.31,0,0,0-.74-.44,2.51,2.51,0,0,0-.87-.15,2.36,2.36,0,0,0-2.21,1.36l-1-.52a3.53,3.53,0,0,1,1.36-1.36,3.94,3.94,0,0,1,1.9-.45,4.11,4.11,0,0,1,1.36.2,3.32,3.32,0,0,1,1.08.6,2.8,2.8,0,0,1,.75,1,3.08,3.08,0,0,1,.27,1.36,2.62,2.62,0,0,1-.57,1.73,2.73,2.73,0,0,1-1.45.92h0a3,3,0,0,1,1.67,1,2.71,2.71,0,0,1,.67,1.92,3.44,3.44,0,0,1-.3,1.48,3.33,3.33,0,0,1-.81,1.09,3.51,3.51,0,0,1-1.19.68,4.34,4.34,0,0,1-1.36.23,4,4,0,0,1-2.22-.61,3.83,3.83,0,0,1-1.61-1.77l1.12-.41a2.54,2.54,0,0,0,1,1.36,2.83,2.83,0,0,0,2.53.3,2.47,2.47,0,0,0,.82-.49,2.39,2.39,0,0,0,.56-.77,2.45,2.45,0,0,0,.22-1,2.21,2.21,0,0,0-.26-1.1,2.07,2.07,0,0,0-.68-.72,2.94,2.94,0,0,0-1-.39,5.06,5.06,0,0,0-1.12-.12h-.46Z"/>
            <path class="lower-highland-cls-7" d="M55.22,247.07v-.88h1v1.31h0a2.73,2.73,0,0,1,2.46-1.5h.74l-.15,1.06h-.79a2.29,2.29,0,0,0-.85.16,1.83,1.83,0,0,0-.71.52,2.72,2.72,0,0,0-.49.9,4.06,4.06,0,0,0-.19,1.36v3.9H55.1v-6A2.37,2.37,0,0,0,55.22,247.07Z"/>
            <path class="lower-highland-cls-7" d="M68.25,252.54A3.14,3.14,0,0,1,67,253.65a3.72,3.72,0,0,1-1.62.38,4.11,4.11,0,0,1-1.62-.31,3.71,3.71,0,0,1-1.24-.84,3.83,3.83,0,0,1-.81-1.28,4.51,4.51,0,0,1,0-3.17,3.83,3.83,0,0,1,.81-1.28,3.74,3.74,0,0,1,1.24-.84,4.11,4.11,0,0,1,1.62-.31,3.66,3.66,0,0,1,1.62.38,3.16,3.16,0,0,1,1.28,1.13h0v-6h1.12v12.33H68.25v-1.29ZM62.58,250a3.63,3.63,0,0,0,.19,1.2,2.92,2.92,0,0,0,.56,1,2.58,2.58,0,0,0,.91.65,3,3,0,0,0,1.23.23,2.88,2.88,0,0,0,2.73-1.85,3.45,3.45,0,0,0,0-2.43,3,3,0,0,0-.61-1,2.83,2.83,0,0,0-.93-.65,3.15,3.15,0,0,0-2.4,0,2.73,2.73,0,0,0-.91.67,2.92,2.92,0,0,0-.56,1A3.62,3.62,0,0,0,62.58,250Z"/>
            <path class="lower-highland-cls-7" d="M83.61,253.82h-1.3l5-11.56h1.15l5,11.56H92.09l-1.28-3H84.87Zm1.71-4.08h5.1l-2.55-6.12Z"/>
            <path class="lower-highland-cls-7" d="M99.24,253.82H98l-3.13-7.64h1.24l2.48,6.46h0l2.51-6.46h1.2Z"/>
            <path class="lower-highland-cls-7" d="M112.16,249.78V250a2.59,2.59,0,0,1,0,.27h-6.35a3,3,0,0,0,.23,1.07,2.72,2.72,0,0,0,.59.88,2.84,2.84,0,0,0,.89.6,2.93,2.93,0,0,0,2.59-.18,3,3,0,0,0,1-.92l.83.65a4.09,4.09,0,0,1-1.52,1.24,4.26,4.26,0,0,1-1.77.38,4.11,4.11,0,0,1-1.58-.3,3.7,3.7,0,0,1-1.26-.84,4,4,0,0,1-.83-1.28,4.16,4.16,0,0,1-.3-1.6,4.27,4.27,0,0,1,.3-1.6,3.86,3.86,0,0,1,.82-1.28,3.77,3.77,0,0,1,1.23-.84,3.82,3.82,0,0,1,1.53-.3,3.92,3.92,0,0,1,1.58.3,3.28,3.28,0,0,1,1.15.82,3.49,3.49,0,0,1,.7,1.2A4.44,4.44,0,0,1,112.16,249.78Zm-1.13-.35a2.71,2.71,0,0,0-.7-1.78,2.37,2.37,0,0,0-1.84-.71,2.59,2.59,0,0,0-1,.2,3.1,3.1,0,0,0-1.32,1.36,2.58,2.58,0,0,0-.25.94Z"/>
          </g>
          <g>
            <path class="lower-highland-cls-7" d="M34.54,301.2H35a4.62,4.62,0,0,0,1.05-.11,2.48,2.48,0,0,0,.86-.37,1.78,1.78,0,0,0,.59-.67,2.09,2.09,0,0,0,.22-1,2.14,2.14,0,0,0-.18-.88,2,2,0,0,0-.51-.68,2.31,2.31,0,0,0-.74-.44,2.51,2.51,0,0,0-.87-.15,2.36,2.36,0,0,0-2.21,1.36l-1-.52a3.53,3.53,0,0,1,1.36-1.36,3.94,3.94,0,0,1,1.9-.45,4.11,4.11,0,0,1,1.36.2,3.32,3.32,0,0,1,1.08.6,2.8,2.8,0,0,1,.75,1,3.08,3.08,0,0,1,.27,1.36,2.62,2.62,0,0,1-.57,1.73,2.73,2.73,0,0,1-1.45.92h0a3,3,0,0,1,1.67,1,2.71,2.71,0,0,1,.67,1.92,3.44,3.44,0,0,1-.3,1.48,3.33,3.33,0,0,1-.81,1.09,3.51,3.51,0,0,1-1.19.68,4.34,4.34,0,0,1-1.36.23,4,4,0,0,1-2.22-.61A3.82,3.82,0,0,1,32,305.72l1.12-.41a2.54,2.54,0,0,0,1,1.36,2.83,2.83,0,0,0,2.53.3,2.47,2.47,0,0,0,.82-.49,2.39,2.39,0,0,0,.56-.77,2.45,2.45,0,0,0,.22-1,2.21,2.21,0,0,0-.26-1.1,2.07,2.07,0,0,0-.68-.72,2.94,2.94,0,0,0-1-.39,5.06,5.06,0,0,0-1.12-.12h-.51Z"/>
            <path class="lower-highland-cls-7" d="M49.88,307.75h-7.4v-1.22l4.75-4.79q.26-.26.52-.56a4.85,4.85,0,0,0,.45-.63,3.18,3.18,0,0,0,.31-.69,2.55,2.55,0,0,0,.11-.76,2.25,2.25,0,0,0-.18-.91,2,2,0,0,0-.51-.69,2.31,2.31,0,0,0-.74-.44,2.51,2.51,0,0,0-.87-.15,2.26,2.26,0,0,0-1.57.58,2.63,2.63,0,0,0-.82,1.48l-1.16-.23a3.32,3.32,0,0,1,.44-1.13,3.44,3.44,0,0,1,.79-.9,3.65,3.65,0,0,1,1.05-.58,3.77,3.77,0,0,1,1.28-.22,4.32,4.32,0,0,1,1.36.2,3.21,3.21,0,0,1,1.11.6,3,3,0,0,1,.75,1,3.17,3.17,0,0,1,.29,1.36,3.31,3.31,0,0,1-.15,1,4.45,4.45,0,0,1-.41.9,5.24,5.24,0,0,1-.6.8q-.34.38-.72.76l-4.18,4.08h6.14Z"/>
            <path class="lower-highland-cls-7" d="M54.73,300.11v1.31h0a2.52,2.52,0,0,1,1.06-1.09,3.12,3.12,0,0,1,1.56-.42,2.74,2.74,0,0,1,2.18.87,3.43,3.43,0,0,1,.72,2.28v4.68H59.14v-4.23a5.59,5.59,0,0,0-.1-1.09,2.28,2.28,0,0,0-.34-.84,1.6,1.6,0,0,0-.64-.54,2.3,2.3,0,0,0-1-.19,2.16,2.16,0,0,0-.86.18,2.1,2.1,0,0,0-.75.54,2.72,2.72,0,0,0-.52.92,4.06,4.06,0,0,0-.19,1.36v3.92H53.61v-7.64Z"/>
            <path class="lower-highland-cls-7" d="M70.67,306.46a3.14,3.14,0,0,1-1.28,1.11,3.72,3.72,0,0,1-1.62.38,4.11,4.11,0,0,1-1.62-.31,3.71,3.71,0,0,1-1.24-.84,3.83,3.83,0,0,1-.81-1.28,4.51,4.51,0,0,1,0-3.17,3.83,3.83,0,0,1,.81-1.28,3.74,3.74,0,0,1,1.24-.84,4.11,4.11,0,0,1,1.62-.31,3.66,3.66,0,0,1,1.62.38,3.16,3.16,0,0,1,1.28,1.13h0v-6h1.12v12.33H70.67v-1.29ZM65,303.93a3.63,3.63,0,0,0,.19,1.2,2.92,2.92,0,0,0,.57,1,2.58,2.58,0,0,0,.91.65,3,3,0,0,0,1.23.23,2.88,2.88,0,0,0,2.73-1.85,3.45,3.45,0,0,0,0-2.43,3,3,0,0,0-.61-1,2.83,2.83,0,0,0-.93-.65,3.15,3.15,0,0,0-2.4,0,2.73,2.73,0,0,0-.91.67,2.92,2.92,0,0,0-.56,1,3.62,3.62,0,0,0-.23,1.14Z"/>
            <path class="lower-highland-cls-7" d="M86,307.75h-1.3l5-11.56h1.15l5,11.56H94.49l-1.28-3H87.28Zm1.71-4.08h5.1l-2.5-6.16Z"/>
            <path class="lower-highland-cls-7" d="M101.65,307.75h-1.23l-3.13-7.64h1.21l2.48,6.46h0l2.51-6.46h1.2Z"/>
            <path class="lower-highland-cls-7" d="M114.59,303.71V304a2.59,2.59,0,0,1,0,.27h-6.37a3,3,0,0,0,.23,1.07,2.72,2.72,0,0,0,.59.88,2.84,2.84,0,0,0,.89.6,2.93,2.93,0,0,0,2.59-.18,3,3,0,0,0,1-.92l.83.65a4.09,4.09,0,0,1-1.52,1.24A4.26,4.26,0,0,1,111,308a4.11,4.11,0,0,1-1.58-.3,3.7,3.7,0,0,1-1.26-.84,4,4,0,0,1-.83-1.28,4.16,4.16,0,0,1-.3-1.6,4.27,4.27,0,0,1,.3-1.6,3.86,3.86,0,0,1,.82-1.28,3.77,3.77,0,0,1,1.23-.84,3.82,3.82,0,0,1,1.53-.3,3.92,3.92,0,0,1,1.58.3,3.28,3.28,0,0,1,1.15.82,3.49,3.49,0,0,1,.7,1.2A4.44,4.44,0,0,1,114.59,303.71Zm-1.13-.35a2.71,2.71,0,0,0-.7-1.78,2.37,2.37,0,0,0-1.84-.71,2.59,2.59,0,0,0-1,.2,2.77,2.77,0,0,0-1.41,1.36,2.58,2.58,0,0,0-.25.94Z"/>
          </g>
          <g>
            <path class="lower-highland-cls-7" d="M33.35,371.72a2.85,2.85,0,0,0-.31-1.24,2.94,2.94,0,0,0-1-1.06,3.06,3.06,0,0,0-.79-.38,2.52,2.52,0,0,0-.89-.12,2,2,0,0,0-.86.23,2,2,0,0,0-.74.67,1.79,1.79,0,0,0-.34.87,2.07,2.07,0,0,0,.12.83,3.25,3.25,0,0,0,.42.79l.59.8c.26.34.52.68.76,1a4.39,4.39,0,0,1,.57,1.11,2.86,2.86,0,0,1,.14,1.21,2.93,2.93,0,0,1-.56,1.36,3.05,3.05,0,0,1-2.42,1.41,3.59,3.59,0,0,1-1.36-.18,4.91,4.91,0,0,1-1.24-.61,5.33,5.33,0,0,1-.81-.68,4.69,4.69,0,0,1-.64-.83,4.07,4.07,0,0,1-.42-.94,3.9,3.9,0,0,1-.16-1h1.27a3.09,3.09,0,0,0,.29,1.45A3,3,0,0,0,26,377.67a3.19,3.19,0,0,0,.82.39,2.55,2.55,0,0,0,.93.12,2.36,2.36,0,0,0,.9-.24,2.14,2.14,0,0,0,1.12-1.63,2.1,2.1,0,0,0-.14-.91,3.78,3.78,0,0,0-.49-.88l-.67-.9q-.37-.47-.7-1a3.76,3.76,0,0,1-.49-1,2.82,2.82,0,0,1-.07-1.16,3.33,3.33,0,0,1,1.62-2.23,3.07,3.07,0,0,1,1.28-.33,3.7,3.7,0,0,1,1.36.2,4.94,4.94,0,0,1,1.17.58,4.43,4.43,0,0,1,1.36,1.48,3.38,3.38,0,0,1,.48,1.52Z"/>
            <path class="lower-highland-cls-7" d="M30.39,386.2l-.91-.63L36,376.06l.91.63-.75,1.09h0a3.05,3.05,0,0,1,1.69-.22,3.67,3.67,0,0,1,1.54.6,4.09,4.09,0,0,1,1.17,1.17,3.72,3.72,0,0,1,.55,1.36,3.85,3.85,0,0,1,0,1.5,4.53,4.53,0,0,1-1.8,2.61,3.84,3.84,0,0,1-1.36.6,3.75,3.75,0,0,1-1.52,0,4.1,4.1,0,0,1-1.52-.67,3.65,3.65,0,0,1-1.11-1.22,3.09,3.09,0,0,1-.42-1.63h0Zm9.1-3.15a3.61,3.61,0,0,0,.52-1.1,2.91,2.91,0,0,0,.1-1.13,2.71,2.71,0,0,0-.37-1.06,3.13,3.13,0,0,0-2-1.36,2.84,2.84,0,0,0-1.13,0,3,3,0,0,0-1.06.46,3.49,3.49,0,0,0-1.36,2,3,3,0,0,0,0,1.14,2.88,2.88,0,0,0,1.24,1.92,3,3,0,0,0,1.15.5,2.58,2.58,0,0,0,1.12,0,3,3,0,0,0,1-.49,3.61,3.61,0,0,0,.76-.9Z"/>
            <path class="lower-highland-cls-7" d="M49.24,389.42l-.14.2-.18.22-5.24-3.58a2.92,2.92,0,0,0-.42,1,2.71,2.71,0,0,0,0,1.06,2.78,2.78,0,0,0,.4,1,2.92,2.92,0,0,0,2.24,1.32,3,3,0,0,0,1.36-.22l.31,1a4.11,4.11,0,0,1-2,.16,4.27,4.27,0,0,1-1.68-.69,4.09,4.09,0,0,1-1.13-1.14,3.69,3.69,0,0,1-.56-1.36,4.06,4.06,0,0,1,0-1.52,4.22,4.22,0,0,1,.66-1.5,4.29,4.29,0,0,1,1.15-1.16,3.87,3.87,0,0,1,1.36-.58,3.79,3.79,0,0,1,2.92.61,3.88,3.88,0,0,1,1.13,1.14,3.27,3.27,0,0,1,.48,1.36,3.49,3.49,0,0,1-.11,1.36A4.48,4.48,0,0,1,49.24,389.42Zm-.72-.94a2.71,2.71,0,0,0,.44-1.86A2.35,2.35,0,0,0,47.83,385a2.59,2.59,0,0,0-1-.41,2.74,2.74,0,0,0-1,0,2.82,2.82,0,0,0-.93.34,2.59,2.59,0,0,0-.74.64Z"/>
            <path class="lower-highland-cls-7" d="M57.89,395.32l-.14.2-.18.22-5.24-3.58a3,3,0,0,0-.42,1,2.71,2.71,0,0,0,0,1.06,2.79,2.79,0,0,0,.4,1,2.92,2.92,0,0,0,2.24,1.36,3,3,0,0,0,1.36-.22l.31,1a4.19,4.19,0,0,1-2,.16,4.24,4.24,0,0,1-1.68-.69,4.09,4.09,0,0,1-1.13-1.14,3.68,3.68,0,0,1-.56-1.36,4.06,4.06,0,0,1,0-1.52,4.17,4.17,0,0,1,.66-1.5,4.25,4.25,0,0,1,1.15-1.16,3.9,3.9,0,0,1,1.36-.58,3.57,3.57,0,0,1,2.85.61,3.91,3.91,0,0,1,1.13,1.14,3.25,3.25,0,0,1,.48,1.36,3.49,3.49,0,0,1-.11,1.36A4.41,4.41,0,0,1,57.89,395.32Zm-.72-.94a2.71,2.71,0,0,0,.44-1.86,2.35,2.35,0,0,0-1.12-1.62,2.57,2.57,0,0,0-1-.41,2.74,2.74,0,0,0-1,0,2.82,2.82,0,0,0-.93.34,2.63,2.63,0,0,0-.74.64Z"/>
            <path class="lower-highland-cls-7" d="M62.3,395.06c.18-.27.33-.53.46-.75l.87.6c-.1.18-.22.38-.35.6l-.34.52h0a2.66,2.66,0,0,1,1.36-.34,2.74,2.74,0,0,1,1.45.49l.31.23a2.15,2.15,0,0,1,.26.26l-.72.79-.23-.24a3.08,3.08,0,0,0-.35-.29,2.27,2.27,0,0,0-.79-.34,1.84,1.84,0,0,0-.87,0,2.73,2.73,0,0,0-.91.46,4.08,4.08,0,0,0-.9,1l-2.14,3.3-.91-.63,3.39-4.91Z"/>
            <path class="lower-highland-cls-7" d="M79.41,401l2.85,1.94a6.57,6.57,0,0,1,1,.86,3.59,3.59,0,0,1,.72,1.07,2.59,2.59,0,0,1,.2,1.24,2.81,2.81,0,0,1-.53,1.36,2.44,2.44,0,0,1-1.36,1,2.64,2.64,0,0,1-1.75-.11h0a3,3,0,0,1,1.05,1.78,2.71,2.71,0,0,1-.53,2.08,2.84,2.84,0,0,1-2.28,1.26,4.11,4.11,0,0,1-1.49-.23,6.49,6.49,0,0,1-1.61-.83l-2.83-1.93Zm-5,9.35,1.8,1.24a6,6,0,0,0,1.08.58,3.16,3.16,0,0,0,1.06.24,2.1,2.1,0,0,0,1.06-.19,2.23,2.23,0,0,0,1.13-2.56A3.68,3.68,0,0,0,79,408l-2-1.36Zm3.11-4.51,2,1.36a3.88,3.88,0,0,0,.76.41,2.4,2.4,0,0,0,.85.18,1.78,1.78,0,0,0,.83-.19,2,2,0,0,0,.72-.67A1.86,1.86,0,0,0,83,406a1.82,1.82,0,0,0-.14-.86,2.54,2.54,0,0,0-.53-.79,5.26,5.26,0,0,0-.83-.69l-1.69-1.16Z"/>
            <path class="lower-highland-cls-7" d="M83.31,417.65l-.91-.63,7-10.25.91.63Z"/>
            <path class="lower-highland-cls-7" d="M89.27,421.72l-1-.69L90,413l1,.71-1.62,6.8h0l5.73-3.92,1,.68Z"/>
            <path class="lower-highland-cls-7" d="M100.13,427.53a3.15,3.15,0,0,1-1.68.19,3.71,3.71,0,0,1-1.54-.6A4.09,4.09,0,0,1,95.73,426a3.68,3.68,0,0,1-.55-1.36,3.83,3.83,0,0,1,0-1.51,4.54,4.54,0,0,1,1.8-2.61,3.86,3.86,0,0,1,1.36-.6,3.75,3.75,0,0,1,1.52,0,4.1,4.1,0,0,1,1.52.67,3.64,3.64,0,0,1,1.12,1.22,3.14,3.14,0,0,1,.41,1.66h0l3.41-5,.91.63-7,10.17-.91-.63.74-1.06Zm-3.25-5.29a3.66,3.66,0,0,0-.52,1.1,2.91,2.91,0,0,0-.1,1.13,2.56,2.56,0,0,0,.38,1,3,3,0,0,0,.87.88,2.88,2.88,0,0,0,3.3,0,3.47,3.47,0,0,0,1.36-2,3,3,0,0,0,0-1.16,2.79,2.79,0,0,0-.4-1.06,2.9,2.9,0,0,0-.83-.86,3,3,0,0,0-1.15-.49,2.74,2.74,0,0,0-1.12,0,2.94,2.94,0,0,0-1,.49,3.63,3.63,0,0,0-.79.91Z"/>
          </g>
          <g>
            <path class="lower-highland-cls-7" d="M141.06,456.86h-7.4v-1.22l4.75-4.79q.26-.26.52-.56a4.85,4.85,0,0,0,.45-.63,3.18,3.18,0,0,0,.31-.69,2.55,2.55,0,0,0,.11-.76,2.25,2.25,0,0,0-.18-.91,2,2,0,0,0-.51-.69,2.31,2.31,0,0,0-.74-.44,2.51,2.51,0,0,0-.87-.15,2.26,2.26,0,0,0-1.57.58,2.63,2.63,0,0,0-.82,1.48l-1.12-.26a3.32,3.32,0,0,1,.44-1.13,3.44,3.44,0,0,1,.79-.9,3.65,3.65,0,0,1,1.05-.58,3.77,3.77,0,0,1,1.28-.22,4.32,4.32,0,0,1,1.36.2,3.21,3.21,0,0,1,1.11.6,3,3,0,0,1,.75,1,3.17,3.17,0,0,1,.29,1.36,3.31,3.31,0,0,1-.15,1,4.45,4.45,0,0,1-.41.9,5.24,5.24,0,0,1-.6.8q-.34.38-.72.76L135,455.73h6.14Z"/>
            <path class="lower-highland-cls-7" d="M149.67,451.81h0a2,2,0,0,1-.74.31,3.92,3.92,0,0,1-.91.11,3.71,3.71,0,0,1-1.36-.26,3.4,3.4,0,0,1-1.12-.72,3.29,3.29,0,0,1-.75-1.13,3.75,3.75,0,0,1-.27-1.44,3.83,3.83,0,0,1,.27-1.48,3.22,3.22,0,0,1,.79-1.16,3.71,3.71,0,0,1,1.2-.75,4.36,4.36,0,0,1,3,0,3.74,3.74,0,0,1,1.2.75,3.24,3.24,0,0,1,.79,1.16,3.83,3.83,0,0,1,.27,1.48,4.4,4.4,0,0,1-.31,1.66,10.29,10.29,0,0,1-.74,1.47l-3.17,5.07h-1.36Zm1.13-3.17a2.89,2.89,0,0,0-.19-1,2.42,2.42,0,0,0-.53-.84,2.54,2.54,0,0,0-.82-.56,2.74,2.74,0,0,0-2.1,0,2.54,2.54,0,0,0-.82.56,2.42,2.42,0,0,0-.53.84,2.89,2.89,0,0,0-.19,1,2.94,2.94,0,0,0,.18,1,2.41,2.41,0,0,0,.52.83,2.33,2.33,0,0,0,.82.54,3,3,0,0,0,2.14,0,2.33,2.33,0,0,0,.82-.54,2.41,2.41,0,0,0,.52-.83,2.94,2.94,0,0,0,.19-1Z"/>
            <path class="lower-highland-cls-7" d="M159,450.15h-2.16v4.46a2.52,2.52,0,0,0,.08.71,1,1,0,0,0,.23.44.81.81,0,0,0,.37.22,1.74,1.74,0,0,0,.46,0,2,2,0,0,0,.48,0,2.46,2.46,0,0,0,.48-.18v1a3.29,3.29,0,0,1-.61.18,3.92,3.92,0,0,1-.7,0,2.88,2.88,0,0,1-.66-.08,1.65,1.65,0,0,1-.64-.31,1.69,1.69,0,0,1-.48-.63,2.4,2.4,0,0,1-.19-1v-4.76h-1.58v-.92h1.58v-2.15h1.12v2.15h2.16Z"/>
            <path class="lower-highland-cls-7" d="M163,450.48a2.3,2.3,0,0,1,1-1.06,3.18,3.18,0,0,1,1.54-.39,2.74,2.74,0,0,1,2.18.87,3.42,3.42,0,0,1,.72,2.28v4.68h-1.12v-4.23a5.59,5.59,0,0,0-.1-1.09,2.28,2.28,0,0,0-.34-.84,1.61,1.61,0,0,0-.64-.54,2.3,2.3,0,0,0-1-.19,2.16,2.16,0,0,0-.86.18,2.1,2.1,0,0,0-.75.54,2.72,2.72,0,0,0-.52.92A4.06,4.06,0,0,0,163,453v3.92h-1.12V444.55H163v6Z"/>
            <path class="lower-highland-cls-7" d="M182.6,456.86h-1.3l5-11.56h1.15l5,11.56h-1.36l-1.28-3h-6Zm1.71-4.08h5.1l-2.55-6.13Z"/>
            <path class="lower-highland-cls-7" d="M198.24,456.86H197l-3.13-7.64h1.24l2.48,6.5h0l2.51-6.46h1.2Z"/>
            <path class="lower-highland-cls-7" d="M211.18,452.8V453a2.59,2.59,0,0,1,0,.27h-6.36a3,3,0,0,0,.23,1.07,2.72,2.72,0,0,0,.59.88,2.84,2.84,0,0,0,.89.6,2.93,2.93,0,0,0,2.55-.11,3,3,0,0,0,1-.92l.83.65a4.09,4.09,0,0,1-1.52,1.24,4.26,4.26,0,0,1-1.77.38,4.11,4.11,0,0,1-1.58-.3,3.7,3.7,0,0,1-1.26-.84,4,4,0,0,1-.83-1.28,4.16,4.16,0,0,1-.29-1.65,4.27,4.27,0,0,1,.3-1.6,3.86,3.86,0,0,1,.82-1.28,3.77,3.77,0,0,1,1.23-.84,3.82,3.82,0,0,1,1.53-.3,3.92,3.92,0,0,1,1.58.3,3.28,3.28,0,0,1,1.15.82,3.49,3.49,0,0,1,.7,1.2A4.44,4.44,0,0,1,211.18,452.8Zm-1.13-.35a2.71,2.71,0,0,0-.7-1.78,2.37,2.37,0,0,0-1.84-.71,2.59,2.59,0,0,0-1,.2,2.77,2.77,0,0,0-1.41,1.36,2.58,2.58,0,0,0-.25.94Z"/>
          </g>
          <g>
            <path class="lower-highland-cls-7" d="M175.59,46.27a4.87,4.87,0,0,1-.71.83,4.63,4.63,0,0,1-1,.69,5.39,5.39,0,0,1-1.21.48,5.7,5.7,0,0,1-1.45.18,6.33,6.33,0,0,1-2.43-.46,5.68,5.68,0,0,1-3.17-3.18,6.41,6.41,0,0,1-.45-2.43,6.31,6.31,0,0,1,.46-2.43,5.75,5.75,0,0,1,3.18-3.18,6.22,6.22,0,0,1,2.4-.46,6,6,0,0,1,2.4.5,4.93,4.93,0,0,1,1,.57,3.38,3.38,0,0,1,.74.76l-1,.72a3,3,0,0,0-.48-.56,3.3,3.3,0,0,0-.71-.49,4.54,4.54,0,0,0-.89-.34,4,4,0,0,0-1-.14,4.83,4.83,0,0,0-2,.41,4.57,4.57,0,0,0-1.52,1.1,4.8,4.8,0,0,0-1,1.6,5.62,5.62,0,0,0-.33,1.92,5.5,5.5,0,0,0,.34,1.92,4.88,4.88,0,0,0,1,1.6,4.54,4.54,0,0,0,1.52,1.1,4.79,4.79,0,0,0,2,.41,4.55,4.55,0,0,0,1.9-.41,3.6,3.6,0,0,0,1.5-1.36Z"/>
            <path class="lower-highland-cls-7" d="M170.73,65.51h-1.12V53.28h1.12Z"/>
            <path class="lower-highland-cls-7" d="M172.11,78.06a1.91,1.91,0,0,0-.52-1.47,2.18,2.18,0,0,0-1.53-.49,3.3,3.3,0,0,0-1.28.24,3.07,3.07,0,0,0-1,.65l-.63-.73a3.67,3.67,0,0,1,1.26-.79,4.73,4.73,0,0,1,1.76-.31,3.82,3.82,0,0,1,1.16.18,2.73,2.73,0,0,1,1,.52,2.33,2.33,0,0,1,.64.87,3,3,0,0,1,.23,1.22v3.33q0,.44,0,.91a6.23,6.23,0,0,0,.1.8h-1a1.58,1.58,0,0,0-.08-.6,6.13,6.13,0,0,1,0-.64h0a3.23,3.23,0,0,1-1.19,1.1,3.52,3.52,0,0,1-1.6.34,3.56,3.56,0,0,1-.91-.12,2.52,2.52,0,0,1-.85-.39A2.26,2.26,0,0,1,167,82a2.14,2.14,0,0,1-.26-1.07,2,2,0,0,1,.45-1.36,2.73,2.73,0,0,1,1.2-.77,7.1,7.1,0,0,1,1.73-.33q1-.07,2-.07Zm-.33,1.13h-1.36a6.07,6.07,0,0,0-1.26.23,2.38,2.38,0,0,0-.93.5,1.11,1.11,0,0,0-.35.87,1.36,1.36,0,0,0,.15.68,1.27,1.27,0,0,0,.42.45,1.79,1.79,0,0,0,.59.24,2.88,2.88,0,0,0,.64.07,2.53,2.53,0,0,0,1.05-.2,2.22,2.22,0,0,0,.76-.56,2.46,2.46,0,0,0,.48-.8,2.83,2.83,0,0,0,.16-1v-.57Z"/>
            <path class="lower-highland-cls-7" d="M170.3,99.23h0l2.38-6.44h1.21l-3.82,9.61a4.08,4.08,0,0,1-.87,1.36,2.08,2.08,0,0,1-1.53.53,5.11,5.11,0,0,1-1-.1l.11-1a2.59,2.59,0,0,0,.82.14,1.18,1.18,0,0,0,.9-.35,3,3,0,0,0,.57-1l.63-1.6-3.28-7.61h1.24Z"/>
            <path class="lower-highland-cls-7" d="M172.73,118.54a2.84,2.84,0,0,0-1-.84,3,3,0,0,0-1.36-.31,3.05,3.05,0,0,0-.87.14,2.52,2.52,0,0,0-.81.39,2.06,2.06,0,0,0-.59.68,2,2,0,0,0-.22,1,1.78,1.78,0,0,0,.22.91,2,2,0,0,0,.56.61,3.24,3.24,0,0,0,.81.42l.94.33,1.21.42a4.37,4.37,0,0,1,1.11.6,2.87,2.87,0,0,1,.81.92,2.94,2.94,0,0,1,.31,1.43,3.16,3.16,0,0,1-.33,1.5,3.12,3.12,0,0,1-.86,1,3.55,3.55,0,0,1-1.2.6,4.9,4.9,0,0,1-1.36.19,5.29,5.29,0,0,1-1.05-.11,4.76,4.76,0,0,1-1-.31,4.1,4.1,0,0,1-.89-.54,3.91,3.91,0,0,1-.72-.75l1-.75a3.11,3.11,0,0,0,1.05,1,3,3,0,0,0,1.6.42,3.11,3.11,0,0,0,.9-.14,2.53,2.53,0,0,0,.83-.42,2.34,2.34,0,0,0,.6-.71,2.17,2.17,0,0,0,0-2,2.12,2.12,0,0,0-.63-.67,3.86,3.86,0,0,0-.9-.45l-1.06-.35c-.38-.12-.76-.26-1.13-.41a3.84,3.84,0,0,1-1-.6,2.82,2.82,0,0,1-.71-.91,3.31,3.31,0,0,1,0-2.72,3,3,0,0,1,.87-1,3.68,3.68,0,0,1,1.2-.57,4.88,4.88,0,0,1,1.3-.18,4.48,4.48,0,0,1,2,.42,3.45,3.45,0,0,1,1.26,1Z"/>
            <path class="lower-highland-cls-7" d="M172.52,138.93h-2.16v4.46a2.52,2.52,0,0,0,.08.71,1,1,0,0,0,.23.44.81.81,0,0,0,.37.22,1.74,1.74,0,0,0,.46,0,2,2,0,0,0,.48,0,2.46,2.46,0,0,0,.48-.18v1a3.29,3.29,0,0,1-.61.18,3.92,3.92,0,0,1-.7,0,2.88,2.88,0,0,1-.66-.08,1.65,1.65,0,0,1-.64-.31,1.69,1.69,0,0,1-.48-.63,2.4,2.4,0,0,1-.19-1v-4.73h-1.58V138h1.58v-2.15h1.12V138h2.16Z"/>
          </g>
          <g>
            <path class="lower-highland-cls-7" d="M269.13,43.87h-1.3l5-11.56H274l5,11.56h-1.36l-1.28-3H270.5Zm1.71-4.08H276l-2.55-6.13Z"/>
            <path class="lower-highland-cls-7" d="M274,61.3H272.9V49H274Z"/>
            <path class="lower-highland-cls-7" d="M276.37,72.83a2.11,2.11,0,0,0-.81-.72,2.41,2.41,0,0,0-1.16-.29,3,3,0,0,0-1.21.23,2.73,2.73,0,0,0-.93.65,2.87,2.87,0,0,0-.59,1,3.55,3.55,0,0,0-.2,1.21,3.47,3.47,0,0,0,.2,1.21,3,3,0,0,0,.59,1,2.63,2.63,0,0,0,1,.68,3,3,0,0,0,1.21.23,2.45,2.45,0,0,0,2.07-1l.83.63a3.61,3.61,0,0,1-1.2,1,3.77,3.77,0,0,1-1.71.35,4.51,4.51,0,0,1-1.69-.3,3.74,3.74,0,0,1-1.28-.84,3.83,3.83,0,0,1-.83-1.28,4.48,4.48,0,0,1,0-3.2,3.82,3.82,0,0,1,.83-1.28,3.74,3.74,0,0,1,1.28-.84,4.51,4.51,0,0,1,1.69-.3,4,4,0,0,1,1.57.34,3.07,3.07,0,0,1,1.28,1Z"/>
            <path class="lower-highland-cls-7" d="M277.56,92.32a4.16,4.16,0,0,1-.3,1.6A3.79,3.79,0,0,1,275.11,96a4.67,4.67,0,0,1-3.29,0,3.79,3.79,0,0,1-2.14-2.12,4.38,4.38,0,0,1,0-3.2,3.63,3.63,0,0,1,2.18-2.11,4.67,4.67,0,0,1,3.29,0,3.79,3.79,0,0,1,2.14,2.12A4.16,4.16,0,0,1,277.56,92.32Zm-1.17,0a3.5,3.5,0,0,0-.2-1.2,3,3,0,0,0-.59-1,2.73,2.73,0,0,0-.91-.67,2.9,2.9,0,0,0-1.21-.24,2.85,2.85,0,0,0-1.2.24,2.73,2.73,0,0,0-.91.67,3,3,0,0,0-.59,1,3.63,3.63,0,0,0,0,2.39,2.93,2.93,0,0,0,.59,1,2.73,2.73,0,0,0,.91.65,2.93,2.93,0,0,0,1.2.23,3,3,0,0,0,1.21-.23,2.65,2.65,0,0,0,.91-.65,2.93,2.93,0,0,0,.59-1,3.5,3.5,0,0,0,.19-1.2Z"/>
            <path class="lower-highland-cls-7" d="M275.8,106.86h-2.16v4.46a2.52,2.52,0,0,0,.08.71,1,1,0,0,0,.23.44.81.81,0,0,0,.37.22,1.74,1.74,0,0,0,.46,0,2,2,0,0,0,.48,0,2.46,2.46,0,0,0,.48-.18v1a3.29,3.29,0,0,1-.61.18,3.92,3.92,0,0,1-.7,0,2.88,2.88,0,0,1-.66-.08,1.65,1.65,0,0,1-.64-.31,1.69,1.69,0,0,1-.48-.63,2.4,2.4,0,0,1-.19-1v-4.76h-1.58v-.92h1.58v-2.13h1.12v2.15h2.16Z"/>
            <path class="lower-highland-cls-7" d="M275.8,124.29h-2.16v4.45a2.52,2.52,0,0,0,.08.71,1,1,0,0,0,.23.44.81.81,0,0,0,.37.22,1.74,1.74,0,0,0,.46,0,2,2,0,0,0,.48,0,2.46,2.46,0,0,0,.48-.18v1a3.29,3.29,0,0,1-.61.18,3.92,3.92,0,0,1-.7,0,2.88,2.88,0,0,1-.66-.08,1.65,1.65,0,0,1-.64-.31,1.69,1.69,0,0,1-.48-.63,2.4,2.4,0,0,1-.19-1v-4.76h-1.58v-.92h1.58v-2.07h1.12v2.15h2.16Z"/>
            <path class="lower-highland-cls-7" d="M276,149.1a2.84,2.84,0,0,0-1-.84,3,3,0,0,0-1.36-.31,3.05,3.05,0,0,0-.87.14,2.52,2.52,0,0,0-.81.39,2.06,2.06,0,0,0-.59.68,2,2,0,0,0-.22,1,1.78,1.78,0,0,0,.22.91,2,2,0,0,0,.56.61,3.24,3.24,0,0,0,.81.42l.94.33,1.21.42a4.37,4.37,0,0,1,1.11.6,2.87,2.87,0,0,1,.81.92,2.94,2.94,0,0,1,.31,1.43,3.16,3.16,0,0,1-.33,1.5,3.12,3.12,0,0,1-.86,1,3.55,3.55,0,0,1-1.2.6,4.9,4.9,0,0,1-1.36.19,5.29,5.29,0,0,1-1.05-.11,4.76,4.76,0,0,1-1-.31,4.1,4.1,0,0,1-.89-.54,3.91,3.91,0,0,1-.72-.75l1-.75a3.11,3.11,0,0,0,1.05,1,3,3,0,0,0,1.6.42,3.11,3.11,0,0,0,.9-.14,2.53,2.53,0,0,0,.83-.42,2.34,2.34,0,0,0,.6-.71,2.17,2.17,0,0,0,0-2,2.12,2.12,0,0,0-.63-.67,3.86,3.86,0,0,0-.9-.45l-1.06-.35c-.38-.12-.76-.26-1.13-.41a3.84,3.84,0,0,1-1-.6,2.82,2.82,0,0,1-.71-.91,3.31,3.31,0,0,1,0-2.72,3,3,0,0,1,.87-1,3.68,3.68,0,0,1,1.2-.57,4.88,4.88,0,0,1,1.3-.18,4.48,4.48,0,0,1,2,.42,3.45,3.45,0,0,1,1.26,1Z"/>
            <path class="lower-highland-cls-7" d="M275.8,169.51h-2.16V174a2.52,2.52,0,0,0,.08.71,1,1,0,0,0,.23.44.81.81,0,0,0,.37.22,1.74,1.74,0,0,0,.46,0,2,2,0,0,0,.48,0,2.46,2.46,0,0,0,.48-.18v1a3.29,3.29,0,0,1-.61.18,3.92,3.92,0,0,1-.7,0,2.88,2.88,0,0,1-.66-.08,1.65,1.65,0,0,1-.64-.31,1.69,1.69,0,0,1-.48-.63,2.4,2.4,0,0,1-.19-1v-4.76h-1.58v-.92h1.58v-2.15h1.12v2.15h2.16Z"/>
          </g>
          <g>
            <path class="lower-highland-cls-7" d="M328,35.32l-6.82,9.52H328v1h-8.35v-1l6.82-9.52h-6.61v-1H328Z"/>
            <path class="lower-highland-cls-7" d="M326.26,63.31V62h0a2.52,2.52,0,0,1-1.06,1.09,3.11,3.11,0,0,1-1.56.42,2.74,2.74,0,0,1-2.18-.87,3.42,3.42,0,0,1-.72-2.28V55.67h1.12V59.9a5.58,5.58,0,0,0,.1,1.09,2.28,2.28,0,0,0,.34.84,1.6,1.6,0,0,0,.64.54,2.29,2.29,0,0,0,1,.19,2.16,2.16,0,0,0,.86-.18,2.12,2.12,0,0,0,.75-.54,2.72,2.72,0,0,0,.52-.92,4.06,4.06,0,0,0,.19-1.36V55.67h1.12v7.64Z"/>
            <path class="lower-highland-cls-7" d="M321.69,73.1V74.4h0a2.52,2.52,0,0,1,1.06-1.09,3.12,3.12,0,0,1,1.56-.42,2.74,2.74,0,0,1,2.18.87,3.43,3.43,0,0,1,.72,2.28v4.68h-1.12V76.51a5.59,5.59,0,0,0-.1-1.09,2.28,2.28,0,0,0-.34-.84A1.6,1.6,0,0,0,325,74a2.3,2.3,0,0,0-1-.19,2.16,2.16,0,0,0-.86.18,2.1,2.1,0,0,0-.75.54,2.72,2.72,0,0,0-.52.92,4.06,4.06,0,0,0-.19,1.36v3.92h-1.12v-6q0-.31,0-.8t0-.88Z"/>
            <path class="lower-highland-cls-7" d="M324.76,87.59a.73.73,0,0,1-.25.56.78.78,0,0,1-1.11-1.1l0,0a.78.78,0,0,1,1.08,0A.72.72,0,0,1,324.76,87.59Zm-.23,10.55H323.4V90.51h1.12Z"/>
            <path class="lower-highland-cls-7" d="M326.46,116.27a2.84,2.84,0,0,0-1-.84,3,3,0,0,0-1.36-.31,3.05,3.05,0,0,0-.87.14,2.52,2.52,0,0,0-.81.39,2.06,2.06,0,0,0-.59.68,2,2,0,0,0-.22,1,1.78,1.78,0,0,0,.22.91,2,2,0,0,0,.56.61,3.24,3.24,0,0,0,.81.42l.94.33,1.21.42a4.37,4.37,0,0,1,1.11.6,2.87,2.87,0,0,1,.81.92,2.94,2.94,0,0,1,.31,1.43,3.16,3.16,0,0,1-.33,1.5,3.12,3.12,0,0,1-.86,1,3.55,3.55,0,0,1-1.2.6,4.9,4.9,0,0,1-1.36.19,5.29,5.29,0,0,1-1.05-.11,4.76,4.76,0,0,1-1-.31,4.1,4.1,0,0,1-.89-.54,3.91,3.91,0,0,1-.72-.75l1-.75a3.11,3.11,0,0,0,1.05,1,3,3,0,0,0,1.6.42,3.11,3.11,0,0,0,.9-.14,2.53,2.53,0,0,0,.83-.42,2.34,2.34,0,0,0,.6-.71,2.17,2.17,0,0,0,0-2,2.12,2.12,0,0,0-.63-.67,3.86,3.86,0,0,0-.9-.45l-1.06-.35c-.38-.12-.76-.26-1.13-.41a3.84,3.84,0,0,1-1-.6,2.82,2.82,0,0,1-.71-.91,3.31,3.31,0,0,1,0-2.72,3,3,0,0,1,.87-1,3.68,3.68,0,0,1,1.2-.57,4.88,4.88,0,0,1,1.3-.18,4.48,4.48,0,0,1,2,.42,3.45,3.45,0,0,1,1.26,1Z"/>
            <path class="lower-highland-cls-7" d="M326.3,136.67h-2.16v4.46a2.52,2.52,0,0,0,.08.71,1,1,0,0,0,.23.44.81.81,0,0,0,.37.22,1.74,1.74,0,0,0,.46,0,2,2,0,0,0,.48,0,2.46,2.46,0,0,0,.48-.18v1a3.29,3.29,0,0,1-.61.18,3.92,3.92,0,0,1-.7,0,2.88,2.88,0,0,1-.66-.08,1.65,1.65,0,0,1-.64-.31,1.69,1.69,0,0,1-.48-.63,2.4,2.4,0,0,1-.19-1v-4.76h-1.58v-.92H323v-2.13h1.12v2.15h2.16Z"/>
          </g>
          <g>
            <path class="lower-highland-cls-7" d="M473.33,49h-1.17V38.44h-3.88v-1h8.94v1h-3.89Z"/>
            <path class="lower-highland-cls-7" d="M476.51,62.33v.24a2.6,2.6,0,0,1,0,.27h-6.36a3,3,0,0,0,.23,1.07,2.72,2.72,0,0,0,.59.88,2.84,2.84,0,0,0,.89.6,2.93,2.93,0,0,0,2.59-.18,3,3,0,0,0,1-.92l.83.65a4.09,4.09,0,0,1-1.52,1.24,4.26,4.26,0,0,1-1.77.38,4.11,4.11,0,0,1-1.58-.3,3.7,3.7,0,0,1-1.26-.84,4,4,0,0,1-.83-1.28,4.16,4.16,0,0,1-.3-1.6,4.27,4.27,0,0,1,.3-1.6,3.86,3.86,0,0,1,.82-1.28,3.77,3.77,0,0,1,1.23-.84,3.82,3.82,0,0,1,1.53-.3,3.92,3.92,0,0,1,1.58.3,3.28,3.28,0,0,1,1.15.82,3.49,3.49,0,0,1,.7,1.2A4.44,4.44,0,0,1,476.51,62.33ZM475.38,62a2.71,2.71,0,0,0-.7-1.78,2.37,2.37,0,0,0-1.84-.71,2.59,2.59,0,0,0-1,.2,2.77,2.77,0,0,0-1.41,1.36,2.58,2.58,0,0,0-.25.94Z"/>
            <path class="lower-highland-cls-7" d="M470.41,86.68l.35.07h.35a1.11,1.11,0,0,0,.56-.12.84.84,0,0,0,.33-.34,1.53,1.53,0,0,0,.15-.52,5.06,5.06,0,0,0,0-.67v-9h1.12v9.15a3.93,3.93,0,0,1-.1.88,2,2,0,0,1-.34.76,1.76,1.76,0,0,1-.67.54,2.45,2.45,0,0,1-1.08.2h-.42a2.37,2.37,0,0,1-.46-.1Zm3.13-13.45a.72.72,0,0,1-.25.56.78.78,0,0,1-1.08,0,.76.76,0,0,1-.05-1.08l.05-.05a.77.77,0,0,1,1.08,0A.72.72,0,0,1,473.54,73.23Z"/>
            <path class="lower-highland-cls-7" d="M476.84,97.41a4.16,4.16,0,0,1-.3,1.6,3.79,3.79,0,0,1-2.14,2.12,4.67,4.67,0,0,1-3.29,0A3.79,3.79,0,0,1,469,99a4.38,4.38,0,0,1,0-3.2,3.79,3.79,0,0,1,2.14-2.12,4.67,4.67,0,0,1,3.29,0,3.79,3.79,0,0,1,2.14,2.12A4.16,4.16,0,0,1,476.84,97.41Zm-1.17,0a3.5,3.5,0,0,0-.2-1.2,3,3,0,0,0-.59-1,2.73,2.73,0,0,0-.91-.67,2.9,2.9,0,0,0-1.21-.24,2.85,2.85,0,0,0-1.2.24,2.73,2.73,0,0,0-.91.67,3,3,0,0,0-.59,1,3.63,3.63,0,0,0,0,2.39,2.93,2.93,0,0,0,.59,1,2.73,2.73,0,0,0,.91.65,2.93,2.93,0,0,0,1.2.23,3,3,0,0,0,1.21-.23,2.65,2.65,0,0,0,.91-.65,2.93,2.93,0,0,0,.59-1,3.5,3.5,0,0,0,.19-1.2Z"/>
            <path class="lower-highland-cls-7" d="M470.47,111v1.31h0a2.52,2.52,0,0,1,1.06-1.09,3.12,3.12,0,0,1,1.56-.42,2.74,2.74,0,0,1,2.18.87A3.43,3.43,0,0,1,476,114v4.68h-1.12v-4.19a5.59,5.59,0,0,0-.1-1.09,2.28,2.28,0,0,0-.34-.84,1.6,1.6,0,0,0-.64-.54,2.3,2.3,0,0,0-1-.19,2.16,2.16,0,0,0-.86.18,2.1,2.1,0,0,0-.75.54,2.72,2.72,0,0,0-.52.92,4.06,4.06,0,0,0-.19,1.36v3.92h-1.12v-6q0-.31,0-.8t0-.88Z"/>
            <path class="lower-highland-cls-7" d="M475.24,136.77a2.84,2.84,0,0,0-1-.84,3,3,0,0,0-1.36-.31,3.05,3.05,0,0,0-.87.14,2.52,2.52,0,0,0-.81.39,2.06,2.06,0,0,0-.59.68,2,2,0,0,0-.22,1,1.78,1.78,0,0,0,.22.91,2,2,0,0,0,.56.61,3.24,3.24,0,0,0,.81.42l.94.33,1.21.42a4.37,4.37,0,0,1,1.11.6,2.87,2.87,0,0,1,.81.92,2.94,2.94,0,0,1,.31,1.43,3.16,3.16,0,0,1-.33,1.5,3.12,3.12,0,0,1-.86,1,3.55,3.55,0,0,1-1.2.6,4.9,4.9,0,0,1-1.36.19,5.29,5.29,0,0,1-1.05-.11,4.76,4.76,0,0,1-1-.31,4.1,4.1,0,0,1-.89-.54A3.91,3.91,0,0,1,469,145l1-.75a3.11,3.11,0,0,0,1.05,1,3,3,0,0,0,1.6.42,3.11,3.11,0,0,0,.9-.14,2.53,2.53,0,0,0,.83-.42,2.34,2.34,0,0,0,.6-.71,2.17,2.17,0,0,0,0-2,2.12,2.12,0,0,0-.63-.67,3.85,3.85,0,0,0-.9-.45l-1.06-.35c-.38-.12-.76-.26-1.13-.41a3.84,3.84,0,0,1-1-.6,2.82,2.82,0,0,1-.71-.91,3.31,3.31,0,0,1,0-2.72,3,3,0,0,1,.87-1,3.68,3.68,0,0,1,1.2-.57,4.88,4.88,0,0,1,1.3-.18,4.48,4.48,0,0,1,2,.42,3.45,3.45,0,0,1,1.26,1Z"/>
            <path class="lower-highland-cls-7" d="M475.08,157.18h-2.16v4.46a2.52,2.52,0,0,0,.08.71,1,1,0,0,0,.23.44.81.81,0,0,0,.37.22,1.74,1.74,0,0,0,.46,0,2,2,0,0,0,.48,0,2.46,2.46,0,0,0,.48-.18v1a3.29,3.29,0,0,1-.61.18,3.92,3.92,0,0,1-.7,0,2.88,2.88,0,0,1-.66-.08,1.65,1.65,0,0,1-.64-.31,1.69,1.69,0,0,1-.48-.63,2.4,2.4,0,0,1-.19-1v-4.76h-1.58v-.92h1.58v-2.15h1.12v2.15H475Z"/>
          </g>
          <g>
            <path class="lower-highland-cls-7" d="M615.59,28.34h3.28a6.38,6.38,0,0,1,1.61.19,3.56,3.56,0,0,1,1.24.57,2.59,2.59,0,0,1,.79,1,3.12,3.12,0,0,1,.27,1.36,3,3,0,0,1-.29,1.36,2.64,2.64,0,0,1-.81,1,3.65,3.65,0,0,1-1.24.58,6.23,6.23,0,0,1-1.61.19h-2.06V39.9H615.6Zm1.17,5.19h2a3.49,3.49,0,0,0,2.12-.54,1.83,1.83,0,0,0,.72-1.56,1.76,1.76,0,0,0-.75-1.58,3.74,3.74,0,0,0-2.09-.5h-2Z"/>
            <path class="lower-highland-cls-7" d="M622.56,53.28v.24a2.6,2.6,0,0,1,0,.27H616.2a3,3,0,0,0,.23,1.07,2.72,2.72,0,0,0,.59.88,2.84,2.84,0,0,0,.89.6,2.93,2.93,0,0,0,2.59-.18,3,3,0,0,0,1-.92l.83.65a4.09,4.09,0,0,1-1.52,1.24,4.26,4.26,0,0,1-1.77.38,4.11,4.11,0,0,1-1.58-.3,3.7,3.7,0,0,1-1.26-.84,4,4,0,0,1-.83-1.28,4.16,4.16,0,0,1-.3-1.6,4.27,4.27,0,0,1,.3-1.6,3.86,3.86,0,0,1,.82-1.28,3.77,3.77,0,0,1,1.23-.84,3.82,3.82,0,0,1,1.53-.3,3.92,3.92,0,0,1,1.58.3,3.28,3.28,0,0,1,1.15.82,3.49,3.49,0,0,1,.7,1.2A4.44,4.44,0,0,1,622.56,53.28Zm-1.13-.35a2.71,2.71,0,0,0-.7-1.78,2.37,2.37,0,0,0-1.84-.71,2.59,2.59,0,0,0-1,.2A2.77,2.77,0,0,0,616.45,52a2.58,2.58,0,0,0-.25.94Z"/>
            <path class="lower-highland-cls-7" d="M621.7,68.84a2.11,2.11,0,0,0-.81-.72,2.41,2.41,0,0,0-1.16-.29,3,3,0,0,0-1.21.23,2.73,2.73,0,0,0-.93.65,2.87,2.87,0,0,0-.59,1,3.55,3.55,0,0,0-.2,1.21,3.47,3.47,0,0,0,.2,1.21,3,3,0,0,0,.59,1,2.63,2.63,0,0,0,.91.65,3,3,0,0,0,1.21.23,2.45,2.45,0,0,0,2.07-1l.86.69a3.61,3.61,0,0,1-1.2,1,3.77,3.77,0,0,1-1.71.35,4.51,4.51,0,0,1-1.69-.3,3.74,3.74,0,0,1-1.28-.84,3.83,3.83,0,0,1-.83-1.28,4.48,4.48,0,0,1,0-3.2,3.82,3.82,0,0,1,.83-1.28,3.74,3.74,0,0,1,1.28-.84,4.51,4.51,0,0,1,1.69-.3,4,4,0,0,1,1.57.34,3.07,3.07,0,0,1,1.28,1Z"/>
            <path class="lower-highland-cls-7" d="M622.89,88.34a4.16,4.16,0,0,1-.3,1.6,3.79,3.79,0,0,1-2.14,2.12,4.67,4.67,0,0,1-3.29,0A3.79,3.79,0,0,1,615,89.94a4.38,4.38,0,0,1,0-3.2,3.79,3.79,0,0,1,2.14-2.12,4.67,4.67,0,0,1,3.29,0,3.79,3.79,0,0,1,2.14,2.12A4.16,4.16,0,0,1,622.89,88.34Zm-1.17,0a3.5,3.5,0,0,0-.2-1.2,3,3,0,0,0-.59-1,2.73,2.73,0,0,0-.91-.67,2.9,2.9,0,0,0-1.21-.24,2.85,2.85,0,0,0-1.2.24,2.73,2.73,0,0,0-.91.67,3,3,0,0,0-.59,1,3.63,3.63,0,0,0,0,2.39,2.93,2.93,0,0,0,.59,1,2.73,2.73,0,0,0,.91.65,2.93,2.93,0,0,0,1.2.23,3,3,0,0,0,1.21-.23,2.65,2.65,0,0,0,.91-.65,2.93,2.93,0,0,0,.59-1,3.5,3.5,0,0,0,.19-1.2Z"/>
            <path class="lower-highland-cls-7" d="M620.72,103.76A2,2,0,0,0,620,103a2.16,2.16,0,0,0-1.13-.3,2.74,2.74,0,0,0-.59,0,1.61,1.61,0,0,0-.52.22,1.16,1.16,0,0,0-.37.38,1,1,0,0,0-.14.54.92.92,0,0,0,.44.83,4.24,4.24,0,0,0,1.36.48,4.68,4.68,0,0,1,2,.8,1.75,1.75,0,0,1,.64,1.36,2.12,2.12,0,0,1-.91,1.84,2.74,2.74,0,0,1-.93.41,4.54,4.54,0,0,1-1,.12,4.11,4.11,0,0,1-1.69-.35,3.11,3.11,0,0,1-1.36-1.13l.89-.65a2.51,2.51,0,0,0,2.13,1.2,3.49,3.49,0,0,0,.68,0,1.57,1.57,0,0,0,.57-.23,1.17,1.17,0,0,0,.55-1,1,1,0,0,0-.59-.91,7.62,7.62,0,0,0-1.68-.56l-.72-.2a2.49,2.49,0,0,1-.71-.35,2,2,0,0,1-.55-.6,1.73,1.73,0,0,1-.22-.9,1.94,1.94,0,0,1,.85-1.69,2.73,2.73,0,0,1,.87-.39,3.93,3.93,0,0,1,1-.14,3.59,3.59,0,0,1,1.56.35,2.52,2.52,0,0,1,1.13,1Z"/>
            <path class="lower-highland-cls-7" d="M621.29,127.7a2.84,2.84,0,0,0-1-.84,3,3,0,0,0-1.36-.31,3.05,3.05,0,0,0-.87.14,2.52,2.52,0,0,0-.81.39,2.06,2.06,0,0,0-.59.68,2,2,0,0,0-.22,1,1.78,1.78,0,0,0,.22.91,2,2,0,0,0,.56.61,3.24,3.24,0,0,0,.81.42l.94.33,1.21.42a4.37,4.37,0,0,1,1.11.6,2.87,2.87,0,0,1,.81.92,2.94,2.94,0,0,1,.31,1.43,3.16,3.16,0,0,1-.33,1.5,3.12,3.12,0,0,1-.86,1,3.55,3.55,0,0,1-1.2.6,4.9,4.9,0,0,1-1.36.19,5.29,5.29,0,0,1-1.05-.11,4.76,4.76,0,0,1-1-.31,4.1,4.1,0,0,1-.89-.54A3.91,3.91,0,0,1,615,136l1-.75a3.11,3.11,0,0,0,1.05,1,3,3,0,0,0,1.6.42,3.11,3.11,0,0,0,.9-.14,2.53,2.53,0,0,0,.83-.42,2.34,2.34,0,0,0,.6-.71,2.17,2.17,0,0,0,0-2,2.12,2.12,0,0,0-.63-.67,3.85,3.85,0,0,0-.9-.45l-1.06-.35c-.38-.12-.76-.26-1.13-.41a3.84,3.84,0,0,1-1-.6,2.82,2.82,0,0,1-.71-.91,3.31,3.31,0,0,1,0-2.72,3,3,0,0,1,.87-1,3.68,3.68,0,0,1,1.2-.57,4.88,4.88,0,0,1,1.3-.18,4.48,4.48,0,0,1,2,.42,3.45,3.45,0,0,1,1.26,1Z"/>
            <path class="lower-highland-cls-7" d="M621.13,148.11H619v4.42a2.52,2.52,0,0,0,.08.71,1,1,0,0,0,.23.44.81.81,0,0,0,.37.22,1.74,1.74,0,0,0,.46,0,2,2,0,0,0,.48,0,2.46,2.46,0,0,0,.48-.18v1a3.29,3.29,0,0,1-.61.18,3.92,3.92,0,0,1-.7,0,2.88,2.88,0,0,1-.66-.08,1.65,1.65,0,0,1-.64-.31,1.69,1.69,0,0,1-.48-.63,2.4,2.4,0,0,1-.19-1V148h-1.58v-.92h1.58V145h1.12v2.15h2.16Z"/>
          </g>
          <g>
            <path class="lower-highland-cls-7" d="M665.79,33.66a6.31,6.31,0,0,1-.46,2.43,5.75,5.75,0,0,1-3.18,3.18,6.53,6.53,0,0,1-4.8,0,5.75,5.75,0,0,1-3.18-3.18,6.68,6.68,0,0,1,0-4.87A5.75,5.75,0,0,1,657.34,28a6.53,6.53,0,0,1,4.8,0,5.75,5.75,0,0,1,3.18,3.18A6.31,6.31,0,0,1,665.79,33.66Zm-1.24,0a5.64,5.64,0,0,0-.33-1.92,4.78,4.78,0,0,0-1-1.6,4.54,4.54,0,0,0-1.52-1.1,5.15,5.15,0,0,0-4,0,4.56,4.56,0,0,0-1.52,1.1,4.81,4.81,0,0,0-1,1.6,5.8,5.8,0,0,0,0,3.85,4.71,4.71,0,0,0,1,1.59,4.63,4.63,0,0,0,1.52,1.09,5.14,5.14,0,0,0,4,0,4.6,4.6,0,0,0,1.52-1.09,4.7,4.7,0,0,0,1-1.59,5.64,5.64,0,0,0,.33-1.92Z"/>
            <path class="lower-highland-cls-7" d="M661.67,51a2,2,0,0,0-.75-.77,2.16,2.16,0,0,0-1.13-.3,2.74,2.74,0,0,0-.59,0,1.61,1.61,0,0,0-.52.22,1.16,1.16,0,0,0-.37.38,1,1,0,0,0-.14.54.92.92,0,0,0,.44.83,4.24,4.24,0,0,0,1.36.48,4.68,4.68,0,0,1,2,.8,1.75,1.75,0,0,1,.64,1.36,2.12,2.12,0,0,1-.91,1.84,2.74,2.74,0,0,1-.93.41,4.53,4.53,0,0,1-1,.12,4.11,4.11,0,0,1-1.69-.35,3.11,3.11,0,0,1-1.36-1.13l.89-.65A2.51,2.51,0,0,0,659.7,56a3.49,3.49,0,0,0,.68,0,1.57,1.57,0,0,0,.57-.23,1.17,1.17,0,0,0,.55-1,1,1,0,0,0-.59-.91,7.62,7.62,0,0,0-1.68-.56l-.72-.2a2.49,2.49,0,0,1-.71-.35,2,2,0,0,1-.55-.6,1.74,1.74,0,0,1-.22-.9,1.94,1.94,0,0,1,.85-1.69,2.73,2.73,0,0,1,.87-.39,3.93,3.93,0,0,1,1-.14,3.59,3.59,0,0,1,1.56.35,2.52,2.52,0,0,1,1.13,1Z"/>
            <path class="lower-highland-cls-7" d="M661.68,69.35a1.91,1.91,0,0,0-.52-1.47,2.18,2.18,0,0,0-1.53-.49,3.3,3.3,0,0,0-1.28.24,3.07,3.07,0,0,0-1,.65l-.57-.73a3.67,3.67,0,0,1,1.26-.79,4.73,4.73,0,0,1,1.76-.31,3.82,3.82,0,0,1,1.16.18,2.73,2.73,0,0,1,1,.52,2.33,2.33,0,0,1,.64.87,3,3,0,0,1,.23,1.22v4.26a6.23,6.23,0,0,0,.1.8h-1a1.58,1.58,0,0,0-.08-.6,6.15,6.15,0,0,1,0-.64h0a3.23,3.23,0,0,1-1.19,1.1,3.52,3.52,0,0,1-1.6.34,3.56,3.56,0,0,1-.91-.12,2.52,2.52,0,0,1-.85-.39,2.26,2.26,0,0,1-.64-.72,2.14,2.14,0,0,1-.26-1.07,2,2,0,0,1,.45-1.36,2.73,2.73,0,0,1,1.2-.77,7.1,7.1,0,0,1,1.73-.33q1-.07,2-.07Zm-.33,1.13H660a6.07,6.07,0,0,0-1.26.23,2.38,2.38,0,0,0-.93.5,1.11,1.11,0,0,0-.35.87,1.35,1.35,0,0,0,.15.68,1.27,1.27,0,0,0,.42.45,1.79,1.79,0,0,0,.59.24,2.88,2.88,0,0,0,.64.07,2.53,2.53,0,0,0,1.05-.2,2.22,2.22,0,0,0,.76-.56,2.46,2.46,0,0,0,.48-.8,2.83,2.83,0,0,0,.16-1v-.57Z"/>
            <path class="lower-highland-cls-7" d="M656.45,93.25a3.7,3.7,0,0,0,1.26,1,3.89,3.89,0,0,0,3.07.18,2.4,2.4,0,0,0,.93-.64,2.55,2.55,0,0,0,.52-1,4.06,4.06,0,0,0,.16-1.17V90.22h0a2.93,2.93,0,0,1-1.26,1.11,3.75,3.75,0,0,1-1.65.39,4.33,4.33,0,0,1-1.62-.3,3.71,3.71,0,0,1-1.24-.8,3.59,3.59,0,0,1-.81-1.24,4.16,4.16,0,0,1-.29-1.55,4.06,4.06,0,0,1,.29-1.54,3.86,3.86,0,0,1,.81-1.25,3.74,3.74,0,0,1,1.24-.84,4.11,4.11,0,0,1,1.62-.31,3.7,3.7,0,0,1,1.64.39,3,3,0,0,1,1.26,1.13h0V84.06h1.12v7.57a5.55,5.55,0,0,1-.18,1.36,3.34,3.34,0,0,1-.64,1.29,3.6,3.6,0,0,1-1.27,1,4.74,4.74,0,0,1-2.07.39,5.18,5.18,0,0,1-2-.41,4.9,4.9,0,0,1-1.65-1.13Zm.22-5.44a3.32,3.32,0,0,0,.19,1.14,2.87,2.87,0,0,0,.56,1,2.63,2.63,0,0,0,.91.64,3,3,0,0,0,1.23.23,3.21,3.21,0,0,0,1.17-.22A2.68,2.68,0,0,0,662.28,89a3.22,3.22,0,0,0,.22-1.21,3,3,0,0,0-1.77-2.72,2.84,2.84,0,0,0-1.17-.24,2.94,2.94,0,0,0-1.23.24,2.73,2.73,0,0,0-.91.65,2.88,2.88,0,0,0-.56,1,3.32,3.32,0,0,0-.18,1.1Z"/>
            <path class="lower-highland-cls-7" d="M663.51,105.09v.24a2.6,2.6,0,0,1,0,.27h-6.36a3,3,0,0,0,.23,1.07,2.72,2.72,0,0,0,.59.88,2.84,2.84,0,0,0,.89.6,2.93,2.93,0,0,0,2.59-.18,3,3,0,0,0,1-.92l.83.65a4.09,4.09,0,0,1-1.52,1.24,4.26,4.26,0,0,1-1.77.38,4.11,4.11,0,0,1-1.58-.3,3.7,3.7,0,0,1-1.26-.84,4,4,0,0,1-.83-1.28,4.16,4.16,0,0,1-.3-1.6,4.27,4.27,0,0,1,.3-1.6,3.86,3.86,0,0,1,.82-1.28,3.77,3.77,0,0,1,1.23-.84,3.82,3.82,0,0,1,1.53-.3,3.92,3.92,0,0,1,1.58.3,3.28,3.28,0,0,1,1.15.82,3.49,3.49,0,0,1,.7,1.2A4.44,4.44,0,0,1,663.51,105.09Zm-1.13-.35a2.71,2.71,0,0,0-.7-1.78,2.37,2.37,0,0,0-1.84-.71,2.59,2.59,0,0,0-1,.2,2.77,2.77,0,0,0-1.41,1.36,2.58,2.58,0,0,0-.25.94Z"/>
            <path class="lower-highland-cls-7" d="M662.24,127.25a2.84,2.84,0,0,0-1-.84,3,3,0,0,0-1.36-.31,3.05,3.05,0,0,0-.87.14,2.52,2.52,0,0,0-.81.39,2.06,2.06,0,0,0-.59.68,2,2,0,0,0-.22,1,1.78,1.78,0,0,0,.22.91,2,2,0,0,0,.56.61,3.24,3.24,0,0,0,.81.42l.94.33,1.21.42a4.37,4.37,0,0,1,1.11.6,2.87,2.87,0,0,1,.81.92,2.94,2.94,0,0,1,.31,1.43,3.16,3.16,0,0,1-.33,1.5,3.12,3.12,0,0,1-.86,1,3.55,3.55,0,0,1-1.2.6,4.9,4.9,0,0,1-1.36.19,5.29,5.29,0,0,1-1.05-.11,4.76,4.76,0,0,1-1-.31,4.1,4.1,0,0,1-.89-.54,3.91,3.91,0,0,1-.72-.75l1-.75a3.11,3.11,0,0,0,1.05,1,3,3,0,0,0,1.6.42,3.11,3.11,0,0,0,.9-.14,2.53,2.53,0,0,0,.83-.42,2.34,2.34,0,0,0,.6-.71,2.17,2.17,0,0,0,0-2,2.12,2.12,0,0,0-.63-.67,3.85,3.85,0,0,0-.9-.45l-1.06-.35c-.38-.12-.76-.26-1.13-.41a3.84,3.84,0,0,1-1-.6,2.82,2.82,0,0,1-.71-.91,3.31,3.31,0,0,1,0-2.72,3,3,0,0,1,.87-1,3.68,3.68,0,0,1,1.2-.57,4.88,4.88,0,0,1,1.3-.18,4.48,4.48,0,0,1,2,.42,3.45,3.45,0,0,1,1.26,1Z"/>
            <path class="lower-highland-cls-7" d="M662.08,147.66h-2.16v4.46a2.52,2.52,0,0,0,.08.71,1,1,0,0,0,.23.44.81.81,0,0,0,.37.22,1.74,1.74,0,0,0,.46,0,2,2,0,0,0,.48,0,2.46,2.46,0,0,0,.48-.18v1a3.29,3.29,0,0,1-.61.18,3.92,3.92,0,0,1-.7,0,2.88,2.88,0,0,1-.66-.08,1.65,1.65,0,0,1-.64-.31,1.69,1.69,0,0,1-.48-.63,2.4,2.4,0,0,1-.19-1v-4.76h-1.58v-.92h1.58v-2.15h1.12v2.15H662Z"/>
          </g>
          <g>
            <path class="lower-highland-cls-7" d="M701.47,38.52h0V28.69h1.17V40.25h-1.47l-6.74-9.94h0v9.94h-1.17V28.69h1.47Z"/>
            <path class="lower-highland-cls-7" d="M699.9,52.72a1.91,1.91,0,0,0-.52-1.47,2.18,2.18,0,0,0-1.53-.49,3.3,3.3,0,0,0-1.28.24,3.07,3.07,0,0,0-1,.65l-.63-.73a3.67,3.67,0,0,1,1.26-.79,4.73,4.73,0,0,1,1.76-.31,3.82,3.82,0,0,1,1.16.18,2.73,2.73,0,0,1,1,.52,2.32,2.32,0,0,1,.64.87,3,3,0,0,1,.23,1.22v4.3a6.24,6.24,0,0,0,.1.8h-1a1.58,1.58,0,0,0-.08-.6,6.15,6.15,0,0,1,0-.64h0a3.23,3.23,0,0,1-1.19,1.1,3.52,3.52,0,0,1-1.6.34,3.56,3.56,0,0,1-.91-.12,2.52,2.52,0,0,1-.85-.39,2.26,2.26,0,0,1-.64-.72,2.14,2.14,0,0,1-.26-1.07,2,2,0,0,1,.45-1.36,2.73,2.73,0,0,1,1.2-.77,7.1,7.1,0,0,1,1.73-.33q1-.07,2-.07Zm-.33,1.13h-1.36a6.07,6.07,0,0,0-1.26.23,2.38,2.38,0,0,0-.93.5,1.11,1.11,0,0,0-.35.87,1.35,1.35,0,0,0,.15.68,1.27,1.27,0,0,0,.42.45,1.79,1.79,0,0,0,.59.24,2.88,2.88,0,0,0,.64.07,2.53,2.53,0,0,0,1.05-.2,2.22,2.22,0,0,0,.76-.56,2.46,2.46,0,0,0,.48-.8,2.83,2.83,0,0,0,.16-1v-.57Z"/>
            <path class="lower-highland-cls-7" d="M698.59,75h-1.23l-3.13-7.64h1.24L698,73.85h0l2.5-6.39h1.2Z"/>
            <path class="lower-highland-cls-7" d="M699.9,87.58a1.91,1.91,0,0,0-.52-1.47,2.18,2.18,0,0,0-1.53-.49,3.3,3.3,0,0,0-1.28.24,3.07,3.07,0,0,0-1,.65l-.63-.73A3.67,3.67,0,0,1,696.2,85a4.73,4.73,0,0,1,1.76-.31,3.82,3.82,0,0,1,1.16.18,2.73,2.73,0,0,1,1,.52,2.33,2.33,0,0,1,.64.87,3,3,0,0,1,.23,1.22v4.24a6.24,6.24,0,0,0,.1.8h-1a1.58,1.58,0,0,0-.08-.6,6.15,6.15,0,0,1,0-.64h0a3.23,3.23,0,0,1-1.19,1.1,3.52,3.52,0,0,1-1.6.34,3.56,3.56,0,0,1-.91-.12,2.52,2.52,0,0,1-.85-.39,2.26,2.26,0,0,1-.64-.72,2.14,2.14,0,0,1-.26-1.07A2,2,0,0,1,695,89a2.73,2.73,0,0,1,1.2-.77,7.1,7.1,0,0,1,1.73-.33q1-.07,2-.07Zm-.33,1.13h-1.36a6.07,6.07,0,0,0-1.26.23,2.38,2.38,0,0,0-.93.5,1.11,1.11,0,0,0-.35.87,1.35,1.35,0,0,0,.15.68,1.27,1.27,0,0,0,.42.45,1.79,1.79,0,0,0,.59.24,2.88,2.88,0,0,0,.64.07,2.53,2.53,0,0,0,1.05-.2,2.22,2.22,0,0,0,.76-.56,2.46,2.46,0,0,0,.48-.8,2.83,2.83,0,0,0,.16-1v-.57Z"/>
            <path class="lower-highland-cls-7" d="M695.63,112.81l.35.07h.35a1.11,1.11,0,0,0,.56-.12.84.84,0,0,0,.33-.34,1.53,1.53,0,0,0,.15-.52,5.06,5.06,0,0,0,0-.67v-9h1.12v9.15a3.93,3.93,0,0,1-.1.88,2,2,0,0,1-.34.76,1.76,1.76,0,0,1-.67.54,2.45,2.45,0,0,1-1.08.2h-.42a2.37,2.37,0,0,1-.46-.1Zm3.13-13.45a.72.72,0,0,1-.25.56.78.78,0,0,1-1.08,0,.76.76,0,0,1-.05-1.08l.05-.05a.77.77,0,0,1,1.08,0A.72.72,0,0,1,698.75,99.37Z"/>
            <path class="lower-highland-cls-7" d="M702.06,123.55a4.16,4.16,0,0,1-.3,1.6,3.79,3.79,0,0,1-2.14,2.12,4.67,4.67,0,0,1-3.29,0,3.79,3.79,0,0,1-2.14-2.12,4.38,4.38,0,0,1,0-3.2,3.43,3.43,0,0,1,2.18-2.07,4.67,4.67,0,0,1,3.29,0A3.79,3.79,0,0,1,701.8,122,4.16,4.16,0,0,1,702.06,123.55Zm-1.17,0a3.49,3.49,0,0,0-.2-1.2,3,3,0,0,0-.59-1,2.73,2.73,0,0,0-.91-.67,2.9,2.9,0,0,0-1.21-.24,2.85,2.85,0,0,0-1.2.24,2.73,2.73,0,0,0-.91.67,3,3,0,0,0-.59,1,3.63,3.63,0,0,0,0,2.39,2.93,2.93,0,0,0,.59,1,2.73,2.73,0,0,0,.91.65,2.93,2.93,0,0,0,1.2.23,3,3,0,0,0,1.21-.23,2.65,2.65,0,0,0,.91-.65,2.93,2.93,0,0,0,.59-1,3.5,3.5,0,0,0,.19-1.2Z"/>
            <path class="lower-highland-cls-7" d="M700.46,145.47a2.84,2.84,0,0,0-1-.84,3,3,0,0,0-1.36-.31,3.06,3.06,0,0,0-.87.14,2.52,2.52,0,0,0-.81.39,2.06,2.06,0,0,0-.59.68,2,2,0,0,0-.22,1,1.78,1.78,0,0,0,.22.91,2,2,0,0,0,.56.61,3.24,3.24,0,0,0,.81.42l.94.33,1.21.42a4.37,4.37,0,0,1,1.11.6,2.87,2.87,0,0,1,.81.92,2.94,2.94,0,0,1,.31,1.43,3.16,3.16,0,0,1-.33,1.5,3.12,3.12,0,0,1-.86,1,3.55,3.55,0,0,1-1.2.6,4.9,4.9,0,0,1-1.36.19,5.29,5.29,0,0,1-1.05-.11,4.76,4.76,0,0,1-1-.31,4.1,4.1,0,0,1-.89-.54,3.91,3.91,0,0,1-.72-.75l1-.75a3.11,3.11,0,0,0,1.05,1,3,3,0,0,0,1.6.42,3.11,3.11,0,0,0,.9-.14,2.53,2.53,0,0,0,.83-.42,2.34,2.34,0,0,0,.6-.71,2.17,2.17,0,0,0,0-2,2.12,2.12,0,0,0-.63-.67,3.85,3.85,0,0,0-.9-.45l-1.06-.35c-.38-.12-.76-.26-1.13-.41a3.84,3.84,0,0,1-1-.6,2.82,2.82,0,0,1-.71-.91,3.31,3.31,0,0,1,0-2.72,3,3,0,0,1,.87-1,3.68,3.68,0,0,1,1.2-.57,4.88,4.88,0,0,1,1.3-.18,4.48,4.48,0,0,1,2,.42,3.45,3.45,0,0,1,1.26,1Z"/>
            <path class="lower-highland-cls-7" d="M700.3,165.89h-2.16v4.46a2.52,2.52,0,0,0,.08.71,1,1,0,0,0,.23.44.81.81,0,0,0,.37.22,1.74,1.74,0,0,0,.46,0,2,2,0,0,0,.48,0,2.46,2.46,0,0,0,.48-.18v1a3.29,3.29,0,0,1-.61.18,3.92,3.92,0,0,1-.7,0,2.88,2.88,0,0,1-.66-.08,1.65,1.65,0,0,1-.64-.31,1.69,1.69,0,0,1-.48-.63,2.4,2.4,0,0,1-.19-1v-4.76h-1.58v-.92H697v-2.15h1.12v2.15h2.16Z"/>
          </g>
          <g>
            <path class="lower-highland-cls-7" d="M432.52,453l2.54-2.34a6.51,6.51,0,0,1,1.06-.8,3.57,3.57,0,0,1,1.2-.46,2.64,2.64,0,0,1,1.26.08,2.85,2.85,0,0,1,1.23.83,2.42,2.42,0,0,1,.67,1.55,2.6,2.6,0,0,1-.49,1.67h0a3.07,3.07,0,0,1,2-.63,2.73,2.73,0,0,1,1.92,1,2.83,2.83,0,0,1,.74,2.49,4.07,4.07,0,0,1-.56,1.36,6.49,6.49,0,0,1-1.16,1.36l-2.51,2.32Zm4.31,2.91,1.75-1.6a3.86,3.86,0,0,0,.56-.65,2.37,2.37,0,0,0,.35-.79,1.8,1.8,0,0,0,0-.86,1.93,1.93,0,0,0-.49-.86,1.87,1.87,0,0,0-.81-.54,1.82,1.82,0,0,0-.86,0,2.57,2.57,0,0,0-.89.34,5.29,5.29,0,0,0-.86.65l-1.5,1.36Zm3.74,4.08,1.61-1.48a5.89,5.89,0,0,0,.81-.91,3.12,3.12,0,0,0,.48-1,2.07,2.07,0,0,0,0-1,2.24,2.24,0,0,0-2.25-1.66,3.7,3.7,0,0,0-2,1.07l-1.76,1.63Z"/>
            <path class="lower-highland-cls-7" d="M451.79,445.75a4.21,4.21,0,0,1,.87,1.36,3.86,3.86,0,0,1,.25,1.51,3.81,3.81,0,0,1-.38,1.5,4.67,4.67,0,0,1-2.38,2.24,3.79,3.79,0,0,1-3-.11A4.41,4.41,0,0,1,445,449.9a3.83,3.83,0,0,1-.25-1.51,3.77,3.77,0,0,1,.38-1.5,4.34,4.34,0,0,1,1-1.36,4.41,4.41,0,0,1,1.36-.9,3.79,3.79,0,0,1,3,.11A4.19,4.19,0,0,1,451.79,445.75Zm-.86.8a3.55,3.55,0,0,0-1-.75,3,3,0,0,0-1.09-.33,2.74,2.74,0,0,0-1.12.14,2.92,2.92,0,0,0-1.05.64,2.84,2.84,0,0,0-.71,1,2.71,2.71,0,0,0-.22,1.1,2.94,2.94,0,0,0,.25,1.11,3.62,3.62,0,0,0,1.64,1.75,2.94,2.94,0,0,0,1.09.33,2.74,2.74,0,0,0,1.12-.14,3.17,3.17,0,0,0,1.76-1.63,2.62,2.62,0,0,0,.23-1.1,2.93,2.93,0,0,0-.23-1.11,3.56,3.56,0,0,0-.71-1Z"/>
            <path class="lower-highland-cls-7" d="M461,442.4l-.51-.48-.44-.45h0a2.49,2.49,0,0,1,0,1.52,3.1,3.1,0,0,1-.86,1.36,2.74,2.74,0,0,1-2.2.84A3.44,3.44,0,0,1,455,444l-3.19-3.44.82-.75,2.88,3.1a5.64,5.64,0,0,0,.82.73,2.27,2.27,0,0,0,.82.39,1.6,1.6,0,0,0,.85,0,2.27,2.27,0,0,0,.87-.54,2.15,2.15,0,0,0,.51-.71,2.1,2.1,0,0,0,.18-.91,2.71,2.71,0,0,0-.25-1,4.08,4.08,0,0,0-.76-1.11l-2.73-2.87.82-.75,4.09,4.36.56.57.64.61Z"/>
            <path class="lower-highland-cls-7" d="M465.61,438.2l-.82.75-8.41-9.07.82-.75Z"/>
            <path class="lower-highland-cls-7" d="M472.36,430.22a3.12,3.12,0,0,1-.18,1.69,3.71,3.71,0,0,1-.94,1.36,4.1,4.1,0,0,1-1.36.87,3.73,3.73,0,0,1-1.49.22,3.85,3.85,0,0,1-1.46-.39,4.53,4.53,0,0,1-2.16-2.32,3.83,3.83,0,0,1-.27-1.48,3.7,3.7,0,0,1,.33-1.47,4.08,4.08,0,0,1,1-1.36,3.65,3.65,0,0,1,1.45-.82,3.18,3.18,0,0,1,1.71,0h0l-4.09-4.42.82-.75,8.41,9.05-.82.75-.87-1Zm-5.9,2a3.67,3.67,0,0,0,1,.75,2.94,2.94,0,0,0,1.08.34,2.59,2.59,0,0,0,1.11-.14,3,3,0,0,0,1.06-.65,2.88,2.88,0,0,0,1-2.08,2.94,2.94,0,0,0-.2-1.13,3.46,3.46,0,0,0-1.65-1.78,3,3,0,0,0-1.12-.3,2.85,2.85,0,0,0-1.13.15,2.9,2.9,0,0,0-1,.63,2.94,2.94,0,0,0-.74,1,2.63,2.63,0,0,0-.22,1.1,2.93,2.93,0,0,0,.25,1.1A3.68,3.68,0,0,0,466.47,432.21Z"/>
            <path class="lower-highland-cls-7" d="M479.45,419.93l.16.18.18.22-4.67,4.3a2.93,2.93,0,0,0,.9.64,2.74,2.74,0,0,0,1,.24,2.84,2.84,0,0,0,1.05-.16,2.9,2.9,0,0,0,1.79-1.94A3,3,0,0,0,480,422L481,422a4.06,4.06,0,0,1-.27,1.93,4.24,4.24,0,0,1-1.05,1.48,4.1,4.1,0,0,1-1.36.84,3.71,3.71,0,0,1-1.49.23,4,4,0,0,1-1.47-.37,4.16,4.16,0,0,1-1.36-1,4.24,4.24,0,0,1-.87-1.36,3.83,3.83,0,0,1-.27-1.5,3.71,3.71,0,0,1,.33-1.44,3.77,3.77,0,0,1,.91-1.25,3.91,3.91,0,0,1,1.36-.86,3.29,3.29,0,0,1,1.36-.18,3.5,3.5,0,0,1,1.36.41A4.45,4.45,0,0,1,479.45,419.93Zm-1.08.5a2.73,2.73,0,0,0-1.73-.84,2.37,2.37,0,0,0-1.83.72,2.56,2.56,0,0,0-.61.84,2.71,2.71,0,0,0-.23,1,2.79,2.79,0,0,0,.12,1,2.59,2.59,0,0,0,.46.86Z"/>
            <path class="lower-highland-cls-7" d="M480.16,415.58l-.64-.61.78-.72.51.48.44.45h0a2.91,2.91,0,0,1,.79-2.81l.3-.24.3-.19.61.88L483,413a3.25,3.25,0,0,0-.35.29,2.26,2.26,0,0,0-.52.69,1.82,1.82,0,0,0-.18.86,2.71,2.71,0,0,0,.25,1,4.08,4.08,0,0,0,.75,1.09l2.73,2.87-.82.75-4.09-4.36Z"/>
            <path class="lower-highland-cls-7" d="M495.13,397.78a2.86,2.86,0,0,0-1.28,0,3,3,0,0,0-1.26.73,3,3,0,0,0-.55.68,2.48,2.48,0,0,0-.31.84,2,2,0,0,0,0,.88,2,2,0,0,0,.49.86,1.77,1.77,0,0,0,.78.53,2,2,0,0,0,.83,0,3.2,3.2,0,0,0,.87-.23l.91-.39,1.19-.52a4.41,4.41,0,0,1,1.21-.31,2.9,2.9,0,0,1,1.23.14,3,3,0,0,1,1.2.84,3.17,3.17,0,0,1,.78,1.36,3.1,3.1,0,0,1,.08,1.36,3.57,3.57,0,0,1-.48,1.26,4.9,4.9,0,0,1-.87,1.07,5.2,5.2,0,0,1-.85.64,4.73,4.73,0,0,1-1,.44,4.11,4.11,0,0,1-1,.2,4,4,0,0,1-1,0l.23-1.24a3.12,3.12,0,0,0,1.49,0,3,3,0,0,0,1.46-.77,3.1,3.1,0,0,0,.52-.75,2.48,2.48,0,0,0,.31-.87,2.38,2.38,0,0,0,0-.92,2.19,2.19,0,0,0-1.36-1.45,2.14,2.14,0,0,0-.91,0,3.86,3.86,0,0,0-1,.29l-1,.46q-.55.26-1.11.46a3.86,3.86,0,0,1-1.13.24,2.82,2.82,0,0,1-1.13-.18,3,3,0,0,1-1.11-.79,2.91,2.91,0,0,1-.74-1.28,3,3,0,0,1,0-1.36,3.62,3.62,0,0,1,.49-1.22,4.9,4.9,0,0,1,.83-1,4.48,4.48,0,0,1,1.76-1.06,3.47,3.47,0,0,1,1.6-.14Z"/>
            <path class="lower-highland-cls-7" d="M503,394.53,501.46,396l3,3.26a2.52,2.52,0,0,0,.53.46,1,1,0,0,0,.46.16.84.84,0,0,0,.42-.1,1.76,1.76,0,0,0,.37-.27,1.88,1.88,0,0,0,.31-.38,2.27,2.27,0,0,0,.23-.46l.7.68a3.22,3.22,0,0,1-.33.54,3.91,3.91,0,0,1-.48.52,2.89,2.89,0,0,1-.53.38,1.67,1.67,0,0,1-.68.2,1.71,1.71,0,0,1-.78-.12,2.41,2.41,0,0,1-.85-.63l-3.25-3.49-1.16,1.07-.63-.68,1.16-1.07-1.47-1.55.82-.75,1.47,1.58,1.58-1.47Z"/>
          </g>
          <g>
            <path class="lower-highland-cls-7" d="M487.38,487.34a4.82,4.82,0,0,1,0,1.09,4.62,4.62,0,0,1-.22,1.17,5.43,5.43,0,0,1-.55,1.17,5.69,5.69,0,0,1-.93,1.13,6.31,6.31,0,0,1-2.06,1.36,5.75,5.75,0,0,1-2.27.41,5.82,5.82,0,0,1-2.24-.52,6.48,6.48,0,0,1-2-1.44,6.35,6.35,0,0,1-1.36-2.07,5.73,5.73,0,0,1,.1-4.49,6.17,6.17,0,0,1,1.36-2,6,6,0,0,1,2.09-1.36,5,5,0,0,1,1.11-.26,3.4,3.4,0,0,1,1.06,0l-.22,1.2a2.92,2.92,0,0,0-.74,0,3.26,3.26,0,0,0-.86.14,4.58,4.58,0,0,0-.89.37,4,4,0,0,0-.85.63,4.8,4.8,0,0,0-1.17,1.69,4.55,4.55,0,0,0-.33,1.84,4.8,4.8,0,0,0,.42,1.81,5.65,5.65,0,0,0,1.09,1.62A5.54,5.54,0,0,0,479.5,492a4.91,4.91,0,0,0,1.8.5,4.53,4.53,0,0,0,1.86-.24,4.75,4.75,0,0,0,1.73-1.09,4.49,4.49,0,0,0,1.09-1.6,3.56,3.56,0,0,0,.18-2Z"/>
            <path class="lower-highland-cls-7" d="M493,479l.18.18.18.22-4.59,4.38a3,3,0,0,0,.91.63,2.74,2.74,0,0,0,1,.23,2.85,2.85,0,0,0,1.05-.18,2.91,2.91,0,0,0,1.75-1.92,3,3,0,0,0,0-1.36l1.06-.11a4.15,4.15,0,0,1-.23,1.94,4.26,4.26,0,0,1-1,1.5,4.1,4.1,0,0,1-1.36.87,3.73,3.73,0,0,1-1.49.26,4,4,0,0,1-1.49-.35,4.2,4.2,0,0,1-1.36-1,4.29,4.29,0,0,1-.9-1.36,3.85,3.85,0,0,1-.29-1.48,3.73,3.73,0,0,1,.3-1.45,3.79,3.79,0,0,1,.89-1.26,3.89,3.89,0,0,1,1.36-.87,3.27,3.27,0,0,1,1.36-.2,3.5,3.5,0,0,1,1.36.38A4.45,4.45,0,0,1,493,479Zm-1.06.52a2.73,2.73,0,0,0-1.75-.82,2.37,2.37,0,0,0-1.83.76,2.56,2.56,0,0,0-.6.86,2.8,2.8,0,0,0-.08,2,2.58,2.58,0,0,0,.48.84Z"/>
            <path class="lower-highland-cls-7" d="M493.75,473.28l.51.46.45.44h0a2.51,2.51,0,0,1,0-1.52,3.1,3.1,0,0,1,.83-1.36,2.74,2.74,0,0,1,2.18-.88,3.47,3.47,0,0,1,2.12,1.14l3.25,3.39-.81.76-2.93-3.06a5.6,5.6,0,0,0-.83-.72,2.27,2.27,0,0,0-.82-.38,1.6,1.6,0,0,0-.85,0,2.29,2.29,0,0,0-.86.56,2.12,2.12,0,0,0-.49.72,2.09,2.09,0,0,0-.16.91,2.71,2.71,0,0,0,.27,1,4.08,4.08,0,0,0,.78,1.1l2.73,2.83-.81.76-4.09-4.3-.56-.57L493,474Z"/>
            <path class="lower-highland-cls-7" d="M503.91,464.95l-1.56,1.48,3.08,3.22a2.55,2.55,0,0,0,.55.45,1,1,0,0,0,.46.15.82.82,0,0,0,.41-.1,1.77,1.77,0,0,0,.37-.27,2,2,0,0,0,.3-.38,2.51,2.51,0,0,0,.22-.46l.71.67a3.22,3.22,0,0,1-.33.54,3.84,3.84,0,0,1-.46.52,2.87,2.87,0,0,1-.53.39,1.66,1.66,0,0,1-.68.22,1.7,1.7,0,0,1-.78-.11,2.4,2.4,0,0,1-.85-.61l-3.3-3.44-1.15,1.1-.64-.67,1.15-1.1L499.39,465l.81-.76,1.49,1.55,1.56-1.48Z"/>
            <path class="lower-highland-cls-7" d="M505.87,462.95l-.64-.6.76-.73.52.46.44.44h0a2.94,2.94,0,0,1,.78-2.81l.29-.26.3-.19.63.87-.29.18-.35.29a2.3,2.3,0,0,0-.51.71,1.83,1.83,0,0,0-.16.86,2.71,2.71,0,0,0,.27,1,4.08,4.08,0,0,0,.78,1.07l2.73,2.83-.81.76-4.09-4.3Z"/>
            <path class="lower-highland-cls-7" d="M515.55,456.23a1.93,1.93,0,0,0-1.36-.71,2.17,2.17,0,0,0-1.43.69,3.28,3.28,0,0,0-.75,1.06,3,3,0,0,0-.27,1.16l-1-.1a3.66,3.66,0,0,1,.35-1.43,4.68,4.68,0,0,1,1.05-1.44,3.84,3.84,0,0,1,1-.68,2.74,2.74,0,0,1,1-.29,2.34,2.34,0,0,1,1.06.19,3,3,0,0,1,1,.72l2.32,2.42c.2.22.42.42.66.64a6.33,6.33,0,0,0,.63.52l-.72.69-.48-.38a4.72,4.72,0,0,1-.46-.44h0a3.22,3.22,0,0,1-.1,1.62,3.51,3.51,0,0,1-.93,1.36,3.6,3.6,0,0,1-.74.53,2.53,2.53,0,0,1-.9.3,2.27,2.27,0,0,1-1-.08,2.16,2.16,0,0,1-.93-.61,2,2,0,0,1-.64-1.36,2.71,2.71,0,0,1,.34-1.36,7,7,0,0,1,1-1.36q.66-.72,1.36-1.44Zm.55,1q-.49.48-1,1a6.09,6.09,0,0,0-.75,1,2.37,2.37,0,0,0-.33,1,1.11,1.11,0,0,0,.34.87,1.36,1.36,0,0,0,.59.39,1.26,1.26,0,0,0,.61,0,1.81,1.81,0,0,0,.59-.22,2.85,2.85,0,0,0,.52-.39,2.5,2.5,0,0,0,.61-.87,2.18,2.18,0,0,0,.18-.92,2.47,2.47,0,0,0-.22-.91,2.84,2.84,0,0,0-.55-.8l-.4-.41Z"/>
            <path class="lower-highland-cls-7" d="M523.44,455.55l-.81.76-8.56-8.91.81-.76Z"/>
            <path class="lower-highland-cls-7" d="M531.32,434.64a2.85,2.85,0,0,0-1.28,0,3,3,0,0,0-1.26.75,3,3,0,0,0-.53.69,2.52,2.52,0,0,0-.3.84,2.06,2.06,0,0,0,0,.88,2,2,0,0,0,.51.84,1.77,1.77,0,0,0,.79.52,2,2,0,0,0,.83,0,3.2,3.2,0,0,0,.87-.24l.9-.41L533,438a4.41,4.41,0,0,1,1.21-.33,2.89,2.89,0,0,1,1.23.12,3,3,0,0,1,1.21.82,3.18,3.18,0,0,1,.79,1.36,3.11,3.11,0,0,1,.1,1.36,3.51,3.51,0,0,1-.45,1.26,4.83,4.83,0,0,1-.85,1.09,5.21,5.21,0,0,1-.83.65,4.76,4.76,0,0,1-.94.46,4.11,4.11,0,0,1-1,.22,3.92,3.92,0,0,1-1,0l.22-1.24a3.14,3.14,0,0,0,1.49,0,3,3,0,0,0,1.45-.8,3.12,3.12,0,0,0,.56-.72,2.53,2.53,0,0,0,.3-.87,2.33,2.33,0,0,0,0-.92,1.92,1.92,0,0,0-.51-.87,1.94,1.94,0,0,0-.87-.56,2.12,2.12,0,0,0-.91,0,3.85,3.85,0,0,0-1,.3l-1,.48q-.53.27-1.11.49a3.82,3.82,0,0,1-1.13.26,2.84,2.84,0,0,1-1.15-.16,3.34,3.34,0,0,1-1.87-2,3,3,0,0,1,0-1.36,3.66,3.66,0,0,1,.46-1.24,4.86,4.86,0,0,1,.81-1,4.45,4.45,0,0,1,1.75-1.09,3.47,3.47,0,0,1,1.6-.15Z"/>
            <path class="lower-highland-cls-7" d="M539.18,431.24l-1.56,1.5,3.08,3.22a2.54,2.54,0,0,0,.55.45,1,1,0,0,0,.46.15.82.82,0,0,0,.41-.1,1.77,1.77,0,0,0,.37-.27,2,2,0,0,0,.3-.38,2.51,2.51,0,0,0,.22-.46l.71.67a3.22,3.22,0,0,1-.33.54,3.92,3.92,0,0,1-.46.52,2.87,2.87,0,0,1-.53.39,1.66,1.66,0,0,1-.68.22,1.71,1.71,0,0,1-.78-.11,2.42,2.42,0,0,1-.85-.61l-3.3-3.44-1.15,1.1L535,434l1.15-1.1-1.47-1.62.81-.76L537,432l1.56-1.5Z"/>
          </g>
          <g>
            <path class="lower-highland-cls-7" d="M706,296.15l-.56,1-10.18-5.53.56-1Z"/>
            <path class="lower-highland-cls-7" d="M706.37,288.27l-1.82,3.21-.82-.45,1.76-3.21Z"/>
            <path class="lower-highland-cls-7" d="M714.3,281.06l-3.54,6.47-1.08-.58-1.94-6.44c-.07-.23-.15-.48-.25-.72a4.87,4.87,0,0,0-.34-.69,3.18,3.18,0,0,0-.46-.6,2.57,2.57,0,0,0-.61-.46,2.26,2.26,0,0,0-.89-.29,2.06,2.06,0,0,0-.85.11,2.34,2.34,0,0,0-.74.44,2.48,2.48,0,0,0-.56.69,2.24,2.24,0,0,0-.25,1.65,2.64,2.64,0,0,0,.91,1.36l-.76.91a3.32,3.32,0,0,1-.78-.92,3.43,3.43,0,0,1-.41-1.11,3.62,3.62,0,0,1,0-1.21,3.76,3.76,0,0,1,.42-1.22,4.27,4.27,0,0,1,.82-1.07,3.21,3.21,0,0,1,1.06-.68,3,3,0,0,1,1.24-.18,3.2,3.2,0,0,1,1.36.41,3.33,3.33,0,0,1,.83.63,4.42,4.42,0,0,1,.6.79,5.2,5.2,0,0,1,.42.91q.18.49.33,1l1.64,5.63,2.93-5.44Z"/>
            <path class="lower-highland-cls-7" d="M709.89,267.15l-2.31,4.23,3.11,1.78a4.59,4.59,0,0,1,.2-.79,5.25,5.25,0,0,1,.33-.73,4.18,4.18,0,0,1,.94-1.18,3.55,3.55,0,0,1,1.23-.69,3.38,3.38,0,0,1,1.36-.14,3.83,3.83,0,0,1,1.36.46,4.27,4.27,0,0,1,1.23,1,3.54,3.54,0,0,1,.71,1.26,3.59,3.59,0,0,1,.14,1.45,4.07,4.07,0,0,1-.49,1.51,3.77,3.77,0,0,1-1.53,1.59,3.83,3.83,0,0,1-2,.44l.1-1.16a2.59,2.59,0,0,0,1.46-.27,2.44,2.44,0,0,0,1.09-1,2.81,2.81,0,0,0,.34-1,2.46,2.46,0,0,0-.1-1,2.72,2.72,0,0,0-.51-.91,2.92,2.92,0,0,0-.86-.71,2.89,2.89,0,0,0-1.12-.35,2.56,2.56,0,0,0-1.06.11,2.73,2.73,0,0,0-.93.53,3.2,3.2,0,0,0-.72.91,4.45,4.45,0,0,0-.44,1.17,5.91,5.91,0,0,0-.15,1.25l-5.2-3,2.83-5.17Z"/>
          </g>
          <g>
            <path class="lower-highland-cls-7" d="M507.85,521.26,510.2,519a6.36,6.36,0,0,1,1.28-1,3.6,3.6,0,0,1,1.28-.45,2.62,2.62,0,0,1,1.24.14,3.13,3.13,0,0,1,1.16.77,3,3,0,0,1,.75,1.17,2.71,2.71,0,0,1,.11,1.25,3.63,3.63,0,0,1-.48,1.28,6.22,6.22,0,0,1-1,1.26l-1.47,1.44,3.77,3.83-.85.82Zm4.49,2.88,1.36-1.36a3.46,3.46,0,0,0,1.13-1.86,1.83,1.83,0,0,0-.59-1.62,1.76,1.76,0,0,0-1.64-.61,3.72,3.72,0,0,0-1.84,1.1l-1.36,1.36Z"/>
            <path class="lower-highland-cls-7" d="M524.38,521.37l-.79.77-8.76-8.81.79-.77Z"/>
            <path class="lower-highland-cls-7" d="M527.23,511.62a1.93,1.93,0,0,0-1.36-.69,2.16,2.16,0,0,0-1.36.72,3.3,3.3,0,0,0-.74,1.06,3.08,3.08,0,0,0-.26,1.17l-1-.1a3.67,3.67,0,0,1,.34-1.43,4.7,4.7,0,0,1,1-1.44,3.79,3.79,0,0,1,1-.69,2.74,2.74,0,0,1,1-.3,2.37,2.37,0,0,1,1.06.18,3.08,3.08,0,0,1,1,.72l2.35,2.39c.2.2.42.42.67.63a6.26,6.26,0,0,0,.63.5l-.71.69-.48-.38a6.13,6.13,0,0,1-.63-.48h0a3.21,3.21,0,0,1-.07,1.62,3.75,3.75,0,0,1-1.65,1.9,2.53,2.53,0,0,1-.89.31,2.27,2.27,0,0,1-1-.07,2.16,2.16,0,0,1-.94-.6,2.06,2.06,0,0,1-.66-1.36,2.71,2.71,0,0,1,.31-1.36,7,7,0,0,1,1-1.44q.64-.73,1.36-1.47Zm.56,1c-.33.33-.64.65-1,1a5.94,5.94,0,0,0-.74,1,2.35,2.35,0,0,0-.31,1,1.11,1.11,0,0,0,.35.87,1.37,1.37,0,0,0,.6.38,1.27,1.27,0,0,0,.61,0,1.79,1.79,0,0,0,.59-.23,3,3,0,0,0,.52-.39,2.53,2.53,0,0,0,.6-.87,2.22,2.22,0,0,0,.16-.94,2.45,2.45,0,0,0-.23-.91,2.83,2.83,0,0,0-.52-.8l-.4-.41Z"/>
            <path class="lower-highland-cls-7" d="M531.94,504.56,530.4,506l3.13,3.18a2.57,2.57,0,0,0,.55.45,1,1,0,0,0,.48.15.84.84,0,0,0,.41-.11,1.69,1.69,0,0,0,.37-.29,2,2,0,0,0,.3-.38,2.51,2.51,0,0,0,.22-.46l.71.65a3.41,3.41,0,0,1-.31.56,4.08,4.08,0,0,1-.45.53,2.82,2.82,0,0,1-.53.39,1.64,1.64,0,0,1-.67.23,1.73,1.73,0,0,1-.78-.11,2.4,2.4,0,0,1-.86-.6l-3.34-3.4-1.13,1.1-.66-.67,1.13-1.1-1.52-1.5.79-.77,1.52,1.54,1.54-1.51Z"/>
            <path class="lower-highland-cls-7" d="M536.31,500.31l-1.54,1.51,3.13,3.18a2.5,2.5,0,0,0,.55.45,1,1,0,0,0,.48.15.79.79,0,0,0,.41-.11,1.69,1.69,0,0,0,.37-.27,1.94,1.94,0,0,0,.3-.38,2.42,2.42,0,0,0,.22-.46l.71.65a3.35,3.35,0,0,1-.31.56,4.08,4.08,0,0,1-.45.53,3,3,0,0,1-.53.39,1.67,1.67,0,0,1-.67.22,1.73,1.73,0,0,1-.78-.11,2.4,2.4,0,0,1-.86-.6l-3.34-3.4-1.13,1.1-.66-.67,1.13-1.1-1.52-1.54.79-.77,1.52,1.54,1.54-1.51Z"/>
            <path class="lower-highland-cls-7" d="M545.2,495.36l.18.18.18.2L541,500.16a3,3,0,0,0,.91.61,2.74,2.74,0,0,0,1,.22,2.83,2.83,0,0,0,1.05-.19,2.91,2.91,0,0,0,1.73-1.93,3,3,0,0,0,0-1.36l1.05-.11a4.06,4.06,0,0,1-.22,1.94,4.23,4.23,0,0,1-1,1.51,4.1,4.1,0,0,1-1.36.88,3.68,3.68,0,0,1-1.49.27,4.11,4.11,0,0,1-1.49-.33,4.19,4.19,0,0,1-1.36-.94,4.28,4.28,0,0,1-.91-1.36,3.9,3.9,0,0,1-.31-1.48,3.78,3.78,0,0,1,.29-1.45,3.83,3.83,0,0,1,.87-1.28,3.92,3.92,0,0,1,1.36-.9,3.27,3.27,0,0,1,1.36-.22,3.55,3.55,0,0,1,1.36.37A4.49,4.49,0,0,1,545.2,495.36Zm-1.06.53a2.73,2.73,0,0,0-1.75-.79,2.37,2.37,0,0,0-1.82.77,2.58,2.58,0,0,0-.6.87,2.76,2.76,0,0,0-.05,1.94,2.59,2.59,0,0,0,.48.84Z"/>
            <path class="lower-highland-cls-7" d="M555.26,477.67a2.85,2.85,0,0,0-1.28.07,3,3,0,0,0-1.24.76,3,3,0,0,0-.53.69,2.51,2.51,0,0,0-.3.84,2.06,2.06,0,0,0,0,.88,2,2,0,0,0,.52.84,1.8,1.8,0,0,0,.79.5,2,2,0,0,0,.83,0,3.29,3.29,0,0,0,.86-.26l.9-.42L557,481a4.35,4.35,0,0,1,1.2-.34,2.89,2.89,0,0,1,1.23.11,3,3,0,0,1,1.23.8,3.17,3.17,0,0,1,.81,1.36,3.09,3.09,0,0,1,.11,1.36,3.54,3.54,0,0,1-.44,1.28,4.87,4.87,0,0,1-.85,1.09,5.29,5.29,0,0,1-.82.65,4.74,4.74,0,0,1-.94.46,4.11,4.11,0,0,1-1,.23,4,4,0,0,1-1,0l.2-1.25a3.12,3.12,0,0,0,1.49,0,3,3,0,0,0,1.36-.82,3.1,3.1,0,0,0,.55-.72,2.54,2.54,0,0,0,.29-.88,2.32,2.32,0,0,0,0-.92,1.9,1.9,0,0,0-.51-.86A2,2,0,0,0,559,482a2.15,2.15,0,0,0-.91,0,3.94,3.94,0,0,0-1,.31l-1,.49c-.35.18-.72.34-1.09.49a3.83,3.83,0,0,1-1.13.27,2.74,2.74,0,0,1-1.15-.15,3.32,3.32,0,0,1-1.88-2,3,3,0,0,1-.07-1.36,3.66,3.66,0,0,1,.45-1.24,4.9,4.9,0,0,1,.79-1,4.47,4.47,0,0,1,1.73-1.1,3.47,3.47,0,0,1,1.6-.18Z"/>
            <path class="lower-highland-cls-7" d="M563.08,474.2l-1.54,1.51,3.13,3.18a2.58,2.58,0,0,0,.55.45,1,1,0,0,0,.48.15.81.81,0,0,0,.41-.11,1.69,1.69,0,0,0,.37-.27,1.93,1.93,0,0,0,.3-.38,2.44,2.44,0,0,0,.22-.46l.71.65a3.38,3.38,0,0,1-.31.56,4.08,4.08,0,0,1-.45.53,2.87,2.87,0,0,1-.53.39,1.64,1.64,0,0,1-.67.22,1.71,1.71,0,0,1-.78-.11,2.39,2.39,0,0,1-.86-.6l-3.34-3.4-1.13,1.1L559,477l1.13-1.1-1.52-1.54.79-.77,1.52,1.54,1.54-1.51Z"/>
          </g>
          <g>
            <path class="lower-highland-cls-7" d="M553.69,565.07l1.87-2.72a6.32,6.32,0,0,1,1.08-1.21,3.58,3.58,0,0,1,1.17-.68,2.6,2.6,0,0,1,1.24-.1,3.15,3.15,0,0,1,1.28.56,3,3,0,0,1,1,1,2.71,2.71,0,0,1,.33,1.21,3.62,3.62,0,0,1-.23,1.36,6.07,6.07,0,0,1-.76,1.43l-1.19,1.69,4.42,3.07-.67,1Zm4.94,2,1.15-1.63a3.46,3.46,0,0,0,.76-2,1.83,1.83,0,0,0-.87-1.48,1.77,1.77,0,0,0-1.72-.29,3.71,3.71,0,0,0-1.61,1.36l-1.15,1.63Z"/>
            <path class="lower-highland-cls-7" d="M569.89,562.13l-.64.91L559.09,556l.64-.91Z"/>
            <path class="lower-highland-cls-7" d="M570.94,552a1.93,1.93,0,0,0-1.52-.42,2.16,2.16,0,0,0-1.27,1,3.3,3.3,0,0,0-.53,1.18,3,3,0,0,0,0,1.2l-1,.08a3.68,3.68,0,0,1,0-1.41,4.7,4.7,0,0,1,.75-1.62,3.83,3.83,0,0,1,.81-.86,2.73,2.73,0,0,1,1-.49,2.36,2.36,0,0,1,1.08,0,3.06,3.06,0,0,1,1.13.52l2.73,1.92.76.5a6.57,6.57,0,0,0,.71.38l-.57.82-.55-.29-.55-.34h0a3.22,3.22,0,0,1,.23,1.6,3.76,3.76,0,0,1-1.26,2.16,2.58,2.58,0,0,1-.82.46,2.26,2.26,0,0,1-1,.11,2.15,2.15,0,0,1-1-.41,2.05,2.05,0,0,1-.89-1.17,2.71,2.71,0,0,1,0-1.36A7.06,7.06,0,0,1,570,554q.49-.84,1.09-1.7Zm.74.91c-.26.38-.51.76-.75,1.17a6,6,0,0,0-.53,1.16,2.38,2.38,0,0,0-.12,1,1.11,1.11,0,0,0,.51.79,1.37,1.37,0,0,0,.66.27,1.26,1.26,0,0,0,.61-.08,1.79,1.79,0,0,0,.53-.34,2.85,2.85,0,0,0,.44-.49,2.56,2.56,0,0,0,.44-1,2.23,2.23,0,0,0,0-1,2.47,2.47,0,0,0-.4-.84,2.83,2.83,0,0,0-.7-.68l-.46-.33Z"/>
            <path class="lower-highland-cls-7" d="M574.24,544.2,573,546l3.67,2.56a2.54,2.54,0,0,0,.63.34,1,1,0,0,0,.49,0,.82.82,0,0,0,.38-.18,1.72,1.72,0,0,0,.31-.34,1.89,1.89,0,0,0,.22-.44,2.41,2.41,0,0,0,.12-.5l.82.52a3.35,3.35,0,0,1-.2.6,4.08,4.08,0,0,1-.35.6,2.83,2.83,0,0,1-.44.49,1.64,1.64,0,0,1-.63.34,1.69,1.69,0,0,1-.79,0,2.41,2.41,0,0,1-1-.44l-3.92-2.72-.91,1.36-.76-.53.91-1.36L569.82,545l.64-.91,1.77,1.24,1.24-1.77Z"/>
            <path class="lower-highland-cls-7" d="M577.74,539.21,576.5,541l3.67,2.56a2.51,2.51,0,0,0,.63.34,1,1,0,0,0,.49,0,.81.81,0,0,0,.38-.18,1.76,1.76,0,0,0,.31-.34,1.94,1.94,0,0,0,.22-.44,2.44,2.44,0,0,0,.12-.5l.82.52a3.46,3.46,0,0,1-.22.6,4.08,4.08,0,0,1-.35.6,2.89,2.89,0,0,1-.45.49,1.63,1.63,0,0,1-.61.34,1.69,1.69,0,0,1-.79,0,2.41,2.41,0,0,1-1-.44l-3.92-2.72-.91,1.36-.76-.53.91-1.36L573.3,540l.64-.91,1.77,1.24L577,538.6Z"/>
            <path class="lower-highland-cls-7" d="M585.56,532.71l.2.14.22.18-3.63,5.19a3,3,0,0,0,1,.44,2.74,2.74,0,0,0,1.06,0,2.82,2.82,0,0,0,1-.38,2.91,2.91,0,0,0,1.36-2.22,3,3,0,0,0-.2-1.36l1-.31a4.06,4.06,0,0,1,.15,1.94A4.23,4.23,0,0,1,587,538a4.09,4.09,0,0,1-1.15,1.11,3.71,3.71,0,0,1-1.36.54,4,4,0,0,1-1.52,0,4.2,4.2,0,0,1-1.49-.67,4.29,4.29,0,0,1-1.15-1.16,3.88,3.88,0,0,1-.57-1.36,3.75,3.75,0,0,1,.63-2.9,3.91,3.91,0,0,1,1.16-1.13A3.3,3.3,0,0,1,583,532a3.58,3.58,0,0,1,1.36.12A4.52,4.52,0,0,1,585.56,532.71Zm-.94.72a2.74,2.74,0,0,0-1.87-.45,2.35,2.35,0,0,0-1.64,1.1,2.58,2.58,0,0,0-.42,1A2.93,2.93,0,0,0,581,537a2.59,2.59,0,0,0,.63.73Z"/>
            <path class="lower-highland-cls-7" d="M597.57,522.63l-.68,1L587.33,517l2-2.72a7.15,7.15,0,0,1,1-1.2,3.58,3.58,0,0,1,1.16-.73,2.55,2.55,0,0,1,1.26-.14,3.21,3.21,0,0,1,1.36.58,2.81,2.81,0,0,1,1.21,1.88,3,3,0,0,1,0,1.11,4.07,4.07,0,0,1-.44,1.13l6.47.38-.82,1.18-6.28-.46-1.12,1.6ZM592.29,519l1.17-1.67a3.91,3.91,0,0,0,.83-2.09,1.73,1.73,0,0,0-.83-1.51,2,2,0,0,0-.91-.38,1.74,1.74,0,0,0-.86.12,2.73,2.73,0,0,0-.82.54,5.68,5.68,0,0,0-.78.91l-1.2,1.71Z"/>
            <path class="lower-highland-cls-7" d="M595.18,507.57a.73.73,0,0,1,.33.52.79.79,0,0,1-1.55.28v0a.78.78,0,0,1,.61-.88A.74.74,0,0,1,595.18,507.57Zm8.57,6.24-.64.91-6.29-4.36.64-.91Z"/>
            <path class="lower-highland-cls-7" d="M607.89,507.91l-.7,1-8.08-1.81.71-1,6.74,1.66h0l-3.86-5.81.68-1Z"/>
            <path class="lower-highland-cls-7" d="M612,495l.2.14.22.18-3.63,5.25a3,3,0,0,0,1,.42,2.74,2.74,0,0,0,1.06,0,2.85,2.85,0,0,0,1-.38,3,3,0,0,0,1.34-2.23A3,3,0,0,0,613,497l1-.31a4.13,4.13,0,0,1,.15,1.94,4.22,4.22,0,0,1-.71,1.67,4.09,4.09,0,0,1-1.15,1.11,3.68,3.68,0,0,1-1.36.54,4,4,0,0,1-1.52,0,4.2,4.2,0,0,1-1.49-.67,4.32,4.32,0,0,1-1.15-1.16,3.88,3.88,0,0,1-.57-1.36,3.74,3.74,0,0,1,.63-2.9,3.92,3.92,0,0,1,1.16-1.13,3.28,3.28,0,0,1,1.36-.48,3.55,3.55,0,0,1,1.36.12A4.46,4.46,0,0,1,612,495Zm-.94.72a2.74,2.74,0,0,0-1.87-.45,2.35,2.35,0,0,0-1.64,1.1,2.58,2.58,0,0,0-.42,1,2.71,2.71,0,0,0,0,1,2.78,2.78,0,0,0,.33.92,2.57,2.57,0,0,0,.63.73Z"/>
            <path class="lower-highland-cls-7" d="M611.74,490.62l-.75-.46.61-.87.59.35.52.34h0a2.71,2.71,0,0,1,.18-2.87l.23-.3a2,2,0,0,1,.26-.24l.79.73-.25.23a3.24,3.24,0,0,0-.29.35,2.27,2.27,0,0,0-.35.79,1.83,1.83,0,0,0,0,.87,2.71,2.71,0,0,0,.45.91,4.09,4.09,0,0,0,1,.9l3.22,2.23-.64.91-4.89-3.43Z"/>
          </g>
          <polygon class="lower-highland-cls-3" points="260.28 289.16 311.23 289.16 312.14 309.56 261.64 309.56 260.28 289.16"/>
          <polygon class="lower-highland-cls-3" points="460.17 289.16 460.92 308.2 312.14 309.56 310.78 289.16 460.17 289.16"/>
          <polygon class="lower-highland-cls-3" points="261.64 309.56 261.64 329.95 310.78 329.95 312.14 309.56 261.64 309.56"/>
          <polygon class="lower-highland-cls-3" points="460.92 329.95 460.92 308.2 312.14 309.56 310.78 329.95 460.92 329.95"/>
        </g>
      </g>
    </g>
    <g id="landmarks">
      <!-- potter -->
      <image id="15" transform="translate(161.76 166.42) scale(0.16 0.15)" xlink:href="/assets/maps/denvericons/024-home.png" ng-click="$ctrl.getLandmark(15)"  data-toggle="modal" data-target=".bs-example-modal-lg"/>
      <!-- scottishhighland -->
      <image id="23" transform="translate(242.31 349.65) scale(0.15 0.14)" xlink:href="/assets/maps/denvericons/024-home.png" ng-click="$ctrl.getLandmark(23)"  data-toggle="modal" data-target=".bs-example-modal-lg"/>
      <!-- north -->
      <image id="30" width="256" height="256" transform="translate(95.01 352.95) scale(0.2 0.21)" xlink:href="/assets/maps/denvericons/023-school.png" ng-click="$ctrl.getLandmark(30)"  data-toggle="modal" data-target=".bs-example-modal-lg"/>
      <!-- oakeshome -->
      <image id="24" width="256" height="256" transform="translate(62.07 309.45) scale(0.13 0.14)" xlink:href="/assets/maps/denvericons/020-condo.png" ng-click="$ctrl.getLandmark(24)"  data-toggle="modal" data-target=".bs-example-modal-lg"/>
      <!-- patsys -->
      <image id="29" width="256" height="256" transform="translate(624.28 110.68) scale(0.1 0.1)" xlink:href="/assets/maps/denvericons/013-online-store.png" ng-click="$ctrl.getLandmark(29)"  data-toggle="modal" data-target=".bs-example-modal-lg"/>
      <!-- mount carmel -->
      <image id="25" transform="translate(611.07 167.74) scale(0.26 0.22)" xlink:href="/assets/maps/denvericons/014-monastery.png" ng-click="$ctrl.getLandmark(25)"  data-toggle="modal" data-target=".bs-example-modal-lg"/>
      <!-- st patricks -->
      <image id="32" transform="translate(523.17 190.24) scale(0.26 0.22)" xlink:href="/assets/maps/denvericons/014-monastery.png" ng-click="$ctrl.getLandmark(32)"  data-toggle="modal" data-target=".bs-example-modal-lg"/>
      <!-- guadalupa -->
      <image id="26" transform="translate(705.05 163.98) scale(0.26 0.22)" xlink:href="/assets/maps/denvericons/014-monastery.png" ng-click="$ctrl.getLandmark(26)"  data-toggle="modal" data-target=".bs-example-modal-lg"/>
      <!-- carbon coffee -->
      <image id="27" transform="translate(592.25 416.37) scale(0.15 0.14)" xlink:href="/assets/maps/denvericons/011-cafe.png" ng-click="$ctrl.getLandmark(27)"  data-toggle="modal" data-target=".bs-example-modal-lg"/>
      <!-- panaderia rosales -->
      <image id="14" transform="translate(163.01 266.52) scale(0.15 0.18)" xlink:href="/assets/maps/denvericons/011-cafe.png" ng-click="$ctrl.getLandmark(14)"  data-toggle="modal" data-target=".bs-example-modal-lg"/>
      <!-- linger -->
      <image id="28" width="256" height="256" transform="matrix(-0.15, 0, 0, 0.13, 461.36, 388.95)" xlink:href="/assets/maps/denvericons/012-store-1.png" ng-click="$ctrl.getLandmark(28)"  data-toggle="modal" data-target=".bs-example-modal-lg"/>
      <!-- lumber baron -->
      <image id="31" width="256" height="256" transform="translate(192.98 70.89) scale(0.15 0.14)" xlink:href="/assets/maps/denvericons/003-motel.png" ng-click="$ctrl.getLandmark(31)"  data-toggle="modal" data-target=".bs-example-modal-lg"/>
    </g>
  </g>
</svg>
