<svg xmlns="http://www.w3.org/2000/svg" xmlns:xlink="http://www.w3.org/1999/xlink" viewBox="0 0 984.5 717.5">

  <defs>
    <style>
      .sloans_lake-cls-1 {
        fill: none;
      }

      .sloans_lake-cls-1, .sloans_lake-cls-2, .sloans_lake-cls-3, .sloans_lake-cls-4 {
        stroke: #000;
        stroke-miterlimit: 10;
        stroke-width: 0.5px;
      }

      .sloans_lake-cls-2 {
        fill: #a0c4d0;
      }

      .sloans_lake-cls-3 {
        fill: #769e6c;
      }

      .sloans_lake-cls-4 {
        fill: #619cb0;
      }

      .sloans_lake-cls-5 {
        fill: #5d5f60;
      }
    </style>
  </defs>
  <title>sloans_lake_final</title>
  <g id="Layer_2" data-name="Layer 2">
    <g id="neighborhoods">
      <g id="sloanslake">
        <g id="SloansLake-2" data-name="SloansLake">
          <path class="sloans_lake-cls-1" d="M817.63,495.09v57.16h.16Z"/>
          <polygon class="sloans_lake-cls-2" points="984.25 661.75 984.25 717.25 818.25 717.25 818.1 661.75 984.25 661.75"/>
          <polygon class="sloans_lake-cls-2" points="818.25 717.25 0.25 717.25 0.25 661.75 818.1 661.75 818.25 717.25"/>
          <polygon class="sloans_lake-cls-2" points="984.25 552.25 984.25 661.75 818.1 661.75 817.79 552.25 984.25 552.25"/>
          <polygon class="sloans_lake-cls-2" points="984.25 333.25 984.25 552.25 817.79 552.25 817.63 495.09 817.63 494.75 817.18 333.25 984.25 333.25"/>
          <polygon class="sloans_lake-cls-2" points="984.25 164.58 984.25 333.25 817.18 333.25 816.71 164.58 984.25 164.58"/>
          <polygon class="sloans_lake-cls-2" points="984.25 0.25 984.25 164.58 816.71 164.58 816.25 0.59 984.25 0.25"/>
          <polygon class="sloans_lake-cls-2" points="816.71 164.58 655.4 164.58 655.25 0.92 816.25 0.59 816.71 164.58"/>
          <path class="sloans_lake-cls-2" d="M655.25.92l-166,.33V164.58H655.4Zm-54,32.33h-39l.5-32h38.5Z"/>
          <polygon class="sloans_lake-cls-2" points="491.25 497.25 450.25 497.25 423.25 484.25 395.25 484.25 378.25 473.25 365.25 457.25 365.25 333.25 490.26 333.25 491.25 497.25"/>
          <polygon class="sloans_lake-cls-2" points="489.25 1.26 489.25 164.58 325.58 164.58 325.58 1.59 489.25 1.26"/>
          <polygon class="sloans_lake-cls-2" points="255.25 164.58 255.25 245.25 0.25 244.77 0.25 164.58 255.25 164.58"/>
          <polygon class="sloans_lake-cls-2" points="325.58 1.59 325.58 164.58 0.25 164.58 0.25 2.25 325.58 1.59"/>
          <path class="sloans_lake-cls-3" d="M573.25,552.25v-55h-123l-27-13h-28l-17-11-13-16V164.58h-110v80.67l-255-.48v417h617V552.25Zm-1,80-12,15-40,6-28-14-34-10-38-4-35,5-106-61-19-23h-17l-13,15-2,13-15,23-56,20-44,9-65-62-22-45-10-114,10-47,2-25,8-30,12-5,16-8,71,17,42-9,17,9h19l15,9h18l1-8-11-5-23-5-11-8v-19l20-5h33l10,10,20,15,14,12,55,128-5,22-14,18,14,13h16l42,8,51,21,50,22,43,37,14,8,12,34Z"/>
          <polygon class="sloans_lake-cls-2" points="655.55 333.25 490.26 333.25 489.25 164.58 655.4 164.58 655.55 333.25"/>
          <polygon class="sloans_lake-cls-2" points="818.1 661.75 617.25 661.75 617.25 552.25 817.79 552.25 818.1 661.75"/>
          <polygon class="sloans_lake-cls-2" points="655.75 552.25 573.25 552.25 573.25 497.25 491.25 497.25 490.26 333.25 655.55 333.25 655.75 552.25"/>
          <polygon class="sloans_lake-cls-2" points="817.18 333.25 655.55 333.25 655.4 164.58 816.71 164.58 817.18 333.25"/>
          <polygon class="sloans_lake-cls-2" points="817.63 494.75 762.25 495.25 762.25 552.25 655.75 552.25 655.55 333.25 817.18 333.25 817.63 494.75"/>
          <polygon class="sloans_lake-cls-2" points="490.26 333.25 365.25 333.25 365.25 164.58 489.25 164.58 490.26 333.25"/>
          <line class="sloans_lake-cls-1" x1="491.25" y1="497.5" x2="491.25" y2="497.25"/>
          <path class="sloans_lake-cls-4" d="M565.25,580.25l-14-8-43-37-50-22-51-21-42-8h-16l-14-13,14-18,5-22-55-128-14-12-20-15-10-10h-33l-20,5v19l11,8,23,5,11,5-1,8h-18l-15-9h-19l-17-9-42,9-71-17-16,8-12,5-8,30-2,25-10,47,10,114,22,45,65,62,44-9,56-20,15-23,2-13,13-15h17l19,23,106,61,35-5,38,4,34,10,28,14,40-6,12-15,5-18Zm-247-76-22,17h-13l7-24,16-21h12Z"/>
          <polygon class="sloans_lake-cls-3" points="318.25 476.25 318.25 504.25 296.25 521.25 283.25 521.25 290.25 497.25 306.25 476.25 318.25 476.25"/>
          <polygon class="sloans_lake-cls-3" points="817.63 494.75 817.63 552.25 762.25 552.25 762.25 495.25 817.63 494.75"/>
          <polygon class="sloans_lake-cls-3" points="601.25 1.26 601.25 33.25 562.25 33.25 562.75 1.26 601.25 1.26"/>
          <line class="sloans_lake-cls-1" x1="491.25" y1="717.25" x2="491.25" y2="661.75"/>
          <line class="sloans_lake-cls-1" x1="655.75" y1="717.25" x2="655.75" y2="661.75"/>
          <g>
            <path class="sloans_lake-cls-5" d="M53.91,24.25h-9v-1.5l5.8-5.86q.32-.32.63-.69a6.07,6.07,0,0,0,.55-.77,3.91,3.91,0,0,0,.38-.85,3.13,3.13,0,0,0,.14-.93,2.76,2.76,0,0,0-.22-1.12,2.46,2.46,0,0,0-.61-.85,2.83,2.83,0,0,0-.9-.54A3.06,3.06,0,0,0,49.61,11a2.75,2.75,0,0,0-1.92.71,3.24,3.24,0,0,0-1,1.81l-1.44-.28a4.1,4.1,0,0,1,.53-1.38,4.24,4.24,0,0,1,1-1.1A4.42,4.42,0,0,1,48.07,10a4.55,4.55,0,0,1,1.56-.26,5.23,5.23,0,0,1,1.63.25,3.9,3.9,0,0,1,1.34.74,3.59,3.59,0,0,1,.92,1.22,3.9,3.9,0,0,1,.35,1.69,4,4,0,0,1-.19,1.26,5.38,5.38,0,0,1-.5,1.1,6.36,6.36,0,0,1-.73,1q-.42.47-.88.93L46.47,23H54Z"/>
            <path class="sloans_lake-cls-5" d="M64.43,18.07h0a2.48,2.48,0,0,1-.9.38,4.75,4.75,0,0,1-1.12.14,4.52,4.52,0,0,1-1.75-.34,4.16,4.16,0,0,1-1.41-.91A4,4,0,0,1,58.34,16,4.63,4.63,0,0,1,58,14.19a4.74,4.74,0,0,1,.34-1.81,4,4,0,0,1,1-1.41,4.56,4.56,0,0,1,1.46-.91,5.31,5.31,0,0,1,3.68,0,4.55,4.55,0,0,1,1.46.91,4,4,0,0,1,1,1.41,4.74,4.74,0,0,1,.3,1.81,5.38,5.38,0,0,1-.38,2A12.58,12.58,0,0,1,66,18l-3.86,6.26H60.45Zm1.38-3.88a3.55,3.55,0,0,0-.23-1.28,3,3,0,0,0-.65-1,3.11,3.11,0,0,0-1-.68,3.4,3.4,0,0,0-2.56,0,3.11,3.11,0,0,0-1,.68,3,3,0,0,0-.65,1,3.55,3.55,0,0,0-.23,1.28,3.59,3.59,0,0,0,.22,1.27,3,3,0,0,0,.63,1,2.84,2.84,0,0,0,1,.67,3.71,3.71,0,0,0,2.62,0,2.86,2.86,0,0,0,1-.67,3,3,0,0,0,.63-1A3.61,3.61,0,0,0,65.81,14.19Z"/>
            <path class="sloans_lake-cls-5" d="M75.79,16H73.15v5.46a3.07,3.07,0,0,0,.1.86,1.22,1.22,0,0,0,.29.53,1,1,0,0,0,.45.26,2.14,2.14,0,0,0,.56.07,2.35,2.35,0,0,0,.59-.08,2.93,2.93,0,0,0,.59-.22l.06,1.18a4,4,0,0,1-.75.21,4.79,4.79,0,0,1-.85.07,3.42,3.42,0,0,1-.8-.1,2,2,0,0,1-.78-.38,2.07,2.07,0,0,1-.59-.76,2.94,2.94,0,0,1-.23-1.26V16H69.85V14.89h1.94V12.25h1.36v2.64h2.64Z"/>
            <path class="sloans_lake-cls-5" d="M80.71,16.43A2.82,2.82,0,0,1,82,15.13a3.86,3.86,0,0,1,1.88-.48,3.29,3.29,0,0,1,2.67,1.06,4.21,4.21,0,0,1,.89,2.8v5.74H86.05V19.07a6.85,6.85,0,0,0-.12-1.34,2.81,2.81,0,0,0-.41-1,2,2,0,0,0-.78-.67,2.78,2.78,0,0,0-1.23-.24,2.63,2.63,0,0,0-1,.22,2.59,2.59,0,0,0-.91.67A3.35,3.35,0,0,0,81,17.85a5,5,0,0,0-.24,1.63v4.77H79.31V9.13h1.36v7.3Z"/>
            <path class="sloans_lake-cls-5" d="M104.63,24.25h-1.58l6.12-14.16h1.4l6.08,14.16h-1.6l-1.56-3.72h-7.32Zm2.08-5h6.24l-3.12-7.52Z"/>
            <path class="sloans_lake-cls-5" d="M123.73,24.25h-1.48l-3.82-9.36h1.52l3,7.92h0L126,14.89h1.46Z"/>
            <path class="sloans_lake-cls-5" d="M139.53,19.25v.3a3,3,0,0,1,0,.34h-7.78a3.63,3.63,0,0,0,.28,1.32,3.33,3.33,0,0,0,.72,1.08,3.47,3.47,0,0,0,1.08.73A3.57,3.57,0,0,0,137,22.8a3.66,3.66,0,0,0,1.17-1.13l1,.8A5.08,5.08,0,0,1,137.32,24a5.17,5.17,0,0,1-2.17.46,5,5,0,0,1-1.93-.37,4.52,4.52,0,0,1-1.53-1,4.86,4.86,0,0,1-1-1.56,5.1,5.1,0,0,1-.37-2,5.22,5.22,0,0,1,.36-2,4.72,4.72,0,0,1,1-1.56,4.59,4.59,0,0,1,1.5-1,4.66,4.66,0,0,1,1.86-.37A4.79,4.79,0,0,1,137,15a4,4,0,0,1,1.4,1,4.31,4.31,0,0,1,.85,1.47A5.5,5.5,0,0,1,139.53,19.25Zm-1.38-.44a3.38,3.38,0,0,0-.85-2.19,2.88,2.88,0,0,0-2.25-.87,3.14,3.14,0,0,0-1.26.25,3.36,3.36,0,0,0-1.72,1.66,3.16,3.16,0,0,0-.3,1.15Z"/>
          </g>
          <g>
            <path class="sloans_lake-cls-5" d="M46.36,151.78h-9v-1.53l5.8-5.86q.32-.32.63-.69a6.07,6.07,0,0,0,.55-.77,3.91,3.91,0,0,0,.38-.85,3.13,3.13,0,0,0,.14-.93,2.76,2.76,0,0,0-.22-1.12,2.46,2.46,0,0,0-.61-.85,2.83,2.83,0,0,0-.9-.54,3.06,3.06,0,0,0-1.07-.19,2.75,2.75,0,0,0-1.92.71,3.24,3.24,0,0,0-1,1.81l-1.42-.28a4.1,4.1,0,0,1,.53-1.38,4.24,4.24,0,0,1,1-1.1,4.42,4.42,0,0,1,1.29-.72,4.55,4.55,0,0,1,1.56-.26,5.23,5.23,0,0,1,1.63.25,3.9,3.9,0,0,1,1.34.74,3.59,3.59,0,0,1,.92,1.22,3.9,3.9,0,0,1,.35,1.69,4,4,0,0,1-.19,1.26,5.38,5.38,0,0,1-.5,1.1,6.36,6.36,0,0,1-.73,1q-.42.47-.88.93l-5.1,5.06h7.5Z"/>
            <path class="sloans_lake-cls-5" d="M53.25,143.8h0a2.5,2.5,0,0,1,.9-.38,4.8,4.8,0,0,1,1.12-.14,4.5,4.5,0,0,1,1.71.32,4.16,4.16,0,0,1,1.37.89,4.06,4.06,0,0,1,.91,1.38,4.65,4.65,0,0,1,.33,1.77,4.71,4.71,0,0,1-.34,1.82,4,4,0,0,1-1,1.4,4.55,4.55,0,0,1-1.46.91,5.29,5.29,0,0,1-3.68,0,4.56,4.56,0,0,1-1.46-.91,4,4,0,0,1-1-1.4,4.71,4.71,0,0,1-.34-1.82,5.38,5.38,0,0,1,.38-2,12.5,12.5,0,0,1,.9-1.8l3.86-6.22h1.8Zm-1.38,3.88A3.52,3.52,0,0,0,52.1,149a3,3,0,0,0,.65,1,3.08,3.08,0,0,0,1,.68,3.4,3.4,0,0,0,2.56,0,3.08,3.08,0,0,0,1-.68,3,3,0,0,0,.65-1,3.54,3.54,0,0,0,.23-1.29,3.61,3.61,0,0,0-.22-1.27,3,3,0,0,0-.63-1,2.83,2.83,0,0,0-1-.67,3.69,3.69,0,0,0-2.62,0,2.81,2.81,0,0,0-1,.67,3,3,0,0,0-.63,1,3.59,3.59,0,0,0-.19,1.27Z"/>
            <path class="sloans_lake-cls-5" d="M68.25,143.56H65.6V149a3.07,3.07,0,0,0,.1.86,1.22,1.22,0,0,0,.29.53,1,1,0,0,0,.45.26,2.14,2.14,0,0,0,.56.07,2.35,2.35,0,0,0,.59-.08,2.93,2.93,0,0,0,.59-.22l.06,1.18a4,4,0,0,1-.75.21,4.79,4.79,0,0,1-.85.07,3.42,3.42,0,0,1-.8-.1,2,2,0,0,1-.78-.38,2.07,2.07,0,0,1-.59-.76,2.94,2.94,0,0,1-.23-1.26v-5.84H62.3v-1.14h2v-2.64h1.36v2.64h2.64Z"/>
            <path class="sloans_lake-cls-5" d="M73.16,144a2.82,2.82,0,0,1,1.26-1.3,3.86,3.86,0,0,1,1.88-.48A3.29,3.29,0,0,1,79,143.25a4.21,4.21,0,0,1,.89,2.8v5.74H78.5v-5.18a6.85,6.85,0,0,0-.12-1.34,2.81,2.81,0,0,0-.41-1,2,2,0,0,0-.78-.67,2.78,2.78,0,0,0-1.23-.24,2.63,2.63,0,0,0-1,.22,2.59,2.59,0,0,0-.91.67,3.35,3.35,0,0,0-.64,1.14,5,5,0,0,0-.24,1.63v4.8H71.76V136.66h1.36V144Z"/>
            <path class="sloans_lake-cls-5" d="M97.08,151.78H95.5l6.12-14.16H103l6.08,14.16h-1.6l-1.56-3.72H98.62Zm2.08-5h6.24l-3.15-7.53Z"/>
            <path class="sloans_lake-cls-5" d="M116.18,151.78h-1.5l-3.82-9.36h1.52l3,7.92h0l3.06-7.92h1.46Z"/>
            <path class="sloans_lake-cls-5" d="M132,146.82v.3a3,3,0,0,1,0,.34h-7.73a3.63,3.63,0,0,0,.28,1.32,3.33,3.33,0,0,0,.72,1.08,3.47,3.47,0,0,0,1.08.73,3.57,3.57,0,0,0,3.17-.22,3.66,3.66,0,0,0,1.17-1.13l1,.8a5.08,5.08,0,0,1-1.85,1.52,5.17,5.17,0,0,1-2.17.46,5,5,0,0,1-1.93-.37,4.52,4.52,0,0,1-1.53-1,4.86,4.86,0,0,1-1-1.56,5.1,5.1,0,0,1-.37-2,5.22,5.22,0,0,1,.36-2,4.72,4.72,0,0,1,1-1.56,4.59,4.59,0,0,1,1.5-1,4.66,4.66,0,0,1,1.86-.37,4.79,4.79,0,0,1,1.94.37,4,4,0,0,1,1.4,1,4.31,4.31,0,0,1,.85,1.47A5.5,5.5,0,0,1,132,146.82Zm-1.38-.44a3.38,3.38,0,0,0-.85-2.19,2.88,2.88,0,0,0-2.25-.87,3.14,3.14,0,0,0-1.26.25,3.36,3.36,0,0,0-1.72,1.66,3.16,3.16,0,0,0-.3,1.15Z"/>
          </g>
          <g>
            <path class="sloans_lake-cls-5" d="M42.25,217.11h4.22a8,8,0,0,1,1.62.17,4.41,4.41,0,0,1,1.47.58A3.2,3.2,0,0,1,50.62,219a3.44,3.44,0,0,1,.41,1.76,3,3,0,0,1-.68,2,3.21,3.21,0,0,1-1.83,1.09h0a3.73,3.73,0,0,1,2.29,1.07,3.34,3.34,0,0,1,.91,2.47,3.47,3.47,0,0,1-1.47,2.89,5,5,0,0,1-1.66.79,7.94,7.94,0,0,1-2.2.28H42.25Zm1.44,6.2h2.9a4.73,4.73,0,0,0,1-.12,2.93,2.93,0,0,0,1-.41,2.21,2.21,0,0,0,.71-.77,2.38,2.38,0,0,0,.27-1.18,2.28,2.28,0,0,0-.27-1.15,2.25,2.25,0,0,0-.73-.77,3.16,3.16,0,0,0-1.08-.43,6.4,6.4,0,0,0-1.32-.13h-2.5Zm0,6.72h2.68a7.23,7.23,0,0,0,1.49-.15,3.85,3.85,0,0,0,1.24-.48,2.57,2.57,0,0,0,.85-.86,2.74,2.74,0,0,0-.63-3.36,4.52,4.52,0,0,0-2.69-.69H43.69Z"/>
            <path class="sloans_lake-cls-5" d="M59.46,229.81h0l2.9-7.9h1.48l-4.59,11.78a5,5,0,0,1-1.07,1.73,2.53,2.53,0,0,1-1.87.65,6.19,6.19,0,0,1-1.22-.12l.14-1.24a3.15,3.15,0,0,0,1,.16,1.43,1.43,0,0,0,1.1-.43,3.71,3.71,0,0,0,.7-1.23l.76-2-4-9.34h1.46Z"/>
            <path class="sloans_lake-cls-5" d="M67.34,223a8.77,8.77,0,0,0-.06-1.08h1.3a4.25,4.25,0,0,0,.06.84,3.18,3.18,0,0,1,0,.76h0a3.24,3.24,0,0,1,1.2-1.33,3.28,3.28,0,0,1,1.8-.51h.47a2.59,2.59,0,0,1,.43.08l-.18,1.3A2.69,2.69,0,0,0,72,223a4,4,0,0,0-.56,0,2.76,2.76,0,0,0-1,.2,2.23,2.23,0,0,0-.87.63,3.31,3.31,0,0,0-.6,1.1,5,5,0,0,0-.23,1.61v4.74H67.36V224Q67.36,223.59,67.34,223Z"/>
            <path class="sloans_lake-cls-5" d="M84.86,226.59a5.12,5.12,0,0,1-.37,2,4.73,4.73,0,0,1-1,1.56,4.67,4.67,0,0,1-1.58,1,5.38,5.38,0,0,1-2,.37,5.32,5.32,0,0,1-2-.37,4.62,4.62,0,0,1-2.66-2.6,5.37,5.37,0,0,1,0-3.92A4.61,4.61,0,0,1,77.86,222a5.32,5.32,0,0,1,2-.37,5.38,5.38,0,0,1,2,.37,4.62,4.62,0,0,1,2.61,2.59A5.11,5.11,0,0,1,84.86,226.59Zm-1.44,0a4.3,4.3,0,0,0-.25-1.47,3.6,3.6,0,0,0-.71-1.2,3.36,3.36,0,0,0-1.12-.81,3.54,3.54,0,0,0-1.48-.3,3.46,3.46,0,0,0-1.47.3,3.38,3.38,0,0,0-1.11.81,3.6,3.6,0,0,0-.71,1.2,4.45,4.45,0,0,0,0,2.94,3.61,3.61,0,0,0,.68,1.19,3.27,3.27,0,0,0,1.11.8,3.57,3.57,0,0,0,1.47.29,3.64,3.64,0,0,0,1.48-.29,3.25,3.25,0,0,0,1.12-.8,3.61,3.61,0,0,0,.71-1.2A4.3,4.3,0,0,0,83.42,226.59Z"/>
            <path class="sloans_lake-cls-5" d="M90.36,221.91a4.25,4.25,0,0,0,.06.84,3.18,3.18,0,0,1,0,.76h0a3.08,3.08,0,0,1,1.3-1.33,3.79,3.79,0,0,1,1.9-.51,3.29,3.29,0,0,1,2.67,1.06,4.21,4.21,0,0,1,.89,2.8v5.72h-1.3v-5.18a6.85,6.85,0,0,0-.12-1.34,2.81,2.81,0,0,0-.41-1,2,2,0,0,0-.78-.67,2.79,2.79,0,0,0-1.23-.24,2.63,2.63,0,0,0-1,.22,2.59,2.59,0,0,0-.91.67,3.35,3.35,0,0,0-.64,1.14,5,5,0,0,0-.24,1.63v4.77H89.14V224q0-.38,0-1a8.47,8.47,0,0,0-.06-1.08Z"/>
            <path class="sloans_lake-cls-5" d="M114.92,217.11h4a7.75,7.75,0,0,1,2,.23,4.33,4.33,0,0,1,1.51.7,3.16,3.16,0,0,1,1,1.18,3.83,3.83,0,0,1,.34,1.67,3.74,3.74,0,0,1-.35,1.67,3.23,3.23,0,0,1-1,1.18,4.45,4.45,0,0,1-1.52.71,7.55,7.55,0,0,1-2,.24h-2.52v6.56h-1.44Zm1.44,6.36h2.44a4.25,4.25,0,0,0,2.58-.66,2.25,2.25,0,0,0,.88-1.92,2.15,2.15,0,0,0-.91-1.93,4.54,4.54,0,0,0-2.55-.61h-2.44Z"/>
            <path class="sloans_lake-cls-5" d="M129.25,231.25h-1.36v-15.1h1.36Z"/>
          </g>
          <g>
            <path class="sloans_lake-cls-5" d="M31,684.75H29.53V672.37L27,674.55l-.88-1,3.6-3H31Z"/>
            <path class="sloans_lake-cls-5" d="M46.73,671.91,41,684.75H39.41l5.84-12.88H38.33v-1.28h8.4Z"/>
            <path class="sloans_lake-cls-5" d="M55.75,676.53H53.11V682a3.07,3.07,0,0,0,.1.86,1.22,1.22,0,0,0,.29.53,1,1,0,0,0,.45.26,2.14,2.14,0,0,0,.56.07,2.35,2.35,0,0,0,.59-.08,2.93,2.93,0,0,0,.59-.22l.06,1.18a4,4,0,0,1-.75.21,4.79,4.79,0,0,1-.85.07,3.42,3.42,0,0,1-.8-.1,2,2,0,0,1-.78-.38,2.07,2.07,0,0,1-.59-.76,2.94,2.94,0,0,1-.23-1.26v-5.84H49.81v-1.14h1.94v-2.64h1.36v2.64h2.64Z"/>
            <path class="sloans_lake-cls-5" d="M60.67,676.93a2.82,2.82,0,0,1,1.26-1.3,3.86,3.86,0,0,1,1.88-.48,3.29,3.29,0,0,1,2.66,1.1,4.21,4.21,0,0,1,.89,2.8v5.74H66v-5.18a6.85,6.85,0,0,0-.12-1.34,2.81,2.81,0,0,0-.41-1,2,2,0,0,0-.78-.67,2.78,2.78,0,0,0-1.23-.24,2.63,2.63,0,0,0-1,.22,2.59,2.59,0,0,0-.91.67,3.35,3.35,0,0,0-.64,1.14,5,5,0,0,0-.24,1.63v4.8H59.25V669.63h1.36v7.3Z"/>
            <path class="sloans_lake-cls-5" d="M84.58,684.75H83l6.12-14.16h1.4l6.08,14.16H95L93.44,681H86.13Zm2.08-5H92.9l-3.12-7.52Z"/>
            <path class="sloans_lake-cls-5" d="M103.68,684.75h-1.5l-3.82-9.36h1.52l3,7.92h0l3.06-7.92h1.46Z"/>
            <path class="sloans_lake-cls-5" d="M119.49,679.79v.3a3,3,0,0,1,0,.34h-7.76a3.63,3.63,0,0,0,.28,1.32,3.33,3.33,0,0,0,.72,1.08,3.47,3.47,0,0,0,1.08.73,3.57,3.57,0,0,0,3.17-.22,3.66,3.66,0,0,0,1.17-1.13l1,.8a5.08,5.08,0,0,1-1.85,1.52,5.17,5.17,0,0,1-2.17.46,5,5,0,0,1-1.93-.37,4.52,4.52,0,0,1-1.53-1,4.86,4.86,0,0,1-1-1.56,5.1,5.1,0,0,1-.37-2,5.22,5.22,0,0,1,.36-2,4.72,4.72,0,0,1,1-1.56,4.59,4.59,0,0,1,1.5-1,4.66,4.66,0,0,1,1.86-.37,4.79,4.79,0,0,1,1.94.37,4,4,0,0,1,1.4,1,4.31,4.31,0,0,1,.85,1.47A5.5,5.5,0,0,1,119.49,679.79Zm-1.38-.44a3.38,3.38,0,0,0-.85-2.19,2.88,2.88,0,0,0-2.25-.87,3.14,3.14,0,0,0-1.26.25A3.36,3.36,0,0,0,112,678.2a3.16,3.16,0,0,0-.3,1.15Z"/>
          </g>
          <g>
            <path class="sloans_lake-cls-5" d="M392.06,323.77h-9v-1.52l5.8-5.86q.32-.32.63-.69a6.07,6.07,0,0,0,.55-.77,3.91,3.91,0,0,0,.38-.85,3.13,3.13,0,0,0,.14-.93,2.76,2.76,0,0,0-.22-1.12,2.46,2.46,0,0,0-.61-.85,2.83,2.83,0,0,0-.9-.54,3.06,3.06,0,0,0-1.07-.19,2.75,2.75,0,0,0-1.92.71,3.24,3.24,0,0,0-1,1.81l-1.42-.28a4.1,4.1,0,0,1,.53-1.38,4.24,4.24,0,0,1,1-1.1,4.42,4.42,0,0,1,1.29-.72,4.55,4.55,0,0,1,1.56-.26,5.23,5.23,0,0,1,1.63.25,3.9,3.9,0,0,1,1.34.74,3.59,3.59,0,0,1,.92,1.22,3.9,3.9,0,0,1,.35,1.69,4,4,0,0,1-.19,1.26,5.38,5.38,0,0,1-.5,1.1,6.36,6.36,0,0,1-.73,1q-.42.47-.88.93l-5.1,5.06h7.5Z"/>
            <path class="sloans_lake-cls-5" d="M399.25,315.73h.62a5.64,5.64,0,0,0,1.28-.14,3.06,3.06,0,0,0,1-.45,2.2,2.2,0,0,0,.71-.81,2.57,2.57,0,0,0,.26-1.2,2.64,2.64,0,0,0-.22-1.09,2.5,2.5,0,0,0-.61-.84,2.82,2.82,0,0,0-.9-.54,3,3,0,0,0-1.07-.19,2.88,2.88,0,0,0-2.7,1.66l-1.22-.64a4.3,4.3,0,0,1,1.68-1.69,4.8,4.8,0,0,1,2.32-.55,5,5,0,0,1,1.59.25,4,4,0,0,1,1.33.73,3.45,3.45,0,0,1,.91,1.19,3.79,3.79,0,0,1,.33,1.63,3.21,3.21,0,0,1-.7,2.11,3.33,3.33,0,0,1-1.76,1.13h0a3.67,3.67,0,0,1,2,1.17,3.4,3.4,0,0,1,.81,2.35,4.23,4.23,0,0,1-.37,1.81,4.09,4.09,0,0,1-1,1.34,4.31,4.31,0,0,1-1.45.84,5.29,5.29,0,0,1-1.75.29,4.9,4.9,0,0,1-2.72-.75,4.67,4.67,0,0,1-1.76-2.15l1.36-.5a3.12,3.12,0,0,0,1.2,1.59,3.46,3.46,0,0,0,3.09.36,3,3,0,0,0,1-.6,2.93,2.93,0,0,0,.69-1,3,3,0,0,0,.26-1.28,2.71,2.71,0,0,0-.31-1.35,2.53,2.53,0,0,0-.83-.89,3.61,3.61,0,0,0-1.18-.49,6.14,6.14,0,0,0-1.36-.15h-.58Z"/>
            <path class="sloans_lake-cls-5" d="M409.7,315.49a8.76,8.76,0,0,0-.06-1.08h1.3a4.25,4.25,0,0,0,.06.84,3.18,3.18,0,0,1,0,.76h0a3.24,3.24,0,0,1,1.2-1.33,3.28,3.28,0,0,1,1.8-.51h.47a2.59,2.59,0,0,1,.43.08l-.18,1.3a2.69,2.69,0,0,0-.4-.08,4,4,0,0,0-.56,0,2.76,2.76,0,0,0-1,.2,2.23,2.23,0,0,0-.87.63,3.31,3.31,0,0,0-.6,1.1,5,5,0,0,0-.23,1.61v4.79H409.7v-7.3Q409.72,316.09,409.7,315.49Z"/>
            <path class="sloans_lake-cls-5" d="M425.62,322.19a3.85,3.85,0,0,1-1.56,1.36,4.54,4.54,0,0,1-2,.46,5,5,0,0,1-2-.38,4.55,4.55,0,0,1-1.52-1,4.7,4.7,0,0,1-1-1.56,5.56,5.56,0,0,1,0-3.88,4.7,4.7,0,0,1,1-1.56,4.52,4.52,0,0,1,1.52-1,5,5,0,0,1,2-.38,4.46,4.46,0,0,1,2,.47,3.87,3.87,0,0,1,1.56,1.39h0v-7.46H427v15.12h-1.36Zm-6.94-3.1a4.44,4.44,0,0,0,.24,1.47,3.56,3.56,0,0,0,.69,1.2,3.15,3.15,0,0,0,1.11.8,3.7,3.7,0,0,0,1.5.29,3.51,3.51,0,0,0,3.33-2.27,4.24,4.24,0,0,0,0-3,3.68,3.68,0,0,0-.75-1.2,3.45,3.45,0,0,0-1.14-.8,3.54,3.54,0,0,0-1.44-.29,3.59,3.59,0,0,0-1.5.3,3.25,3.25,0,0,0-1.11.81,3.56,3.56,0,0,0-.69,1.2A4.44,4.44,0,0,0,418.68,319.09Z"/>
            <path class="sloans_lake-cls-5" d="M444.36,323.77h-1.58l6.12-14.16h1.35l6.08,14.16h-1.6l-1.48-3.72h-7.32Zm2.08-5h6.24l-3.12-7.52Z"/>
            <path class="sloans_lake-cls-5" d="M463.46,323.77H462l-3.82-9.36h1.52l3,7.92h0l3.06-7.92h1.53Z"/>
            <path class="sloans_lake-cls-5" d="M479.25,318.81v.3a3,3,0,0,1,0,.34h-7.76a3.63,3.63,0,0,0,.28,1.32,3.33,3.33,0,0,0,.72,1.08,3.47,3.47,0,0,0,1.08.73,3.57,3.57,0,0,0,3.17-.22,3.66,3.66,0,0,0,1.17-1.13l1,.8a5.08,5.08,0,0,1-1.85,1.52,5.17,5.17,0,0,1-2.17.46,5,5,0,0,1-1.93-.37,4.52,4.52,0,0,1-1.53-1,4.86,4.86,0,0,1-1-1.56,5.1,5.1,0,0,1-.37-2,5.22,5.22,0,0,1,.36-2,4.72,4.72,0,0,1,1-1.56,4.59,4.59,0,0,1,1.5-1,4.66,4.66,0,0,1,1.86-.37,4.79,4.79,0,0,1,1.94.37,4,4,0,0,1,1.4,1A4.31,4.31,0,0,1,479,317,5.5,5.5,0,0,1,479.25,318.81Zm-1.38-.44a3.38,3.38,0,0,0-.85-2.19,2.88,2.88,0,0,0-2.25-.87,3.14,3.14,0,0,0-1.26.25,3.36,3.36,0,0,0-1.72,1.66,3.16,3.16,0,0,0-.3,1.15Z"/>
          </g>
          <g>
            <path class="sloans_lake-cls-5" d="M666.43,543.25H665V530.88l-2.56,2.18-.88-1,3.6-3h1.28Z"/>
            <path class="sloans_lake-cls-5" d="M679.85,537.08h0a2.48,2.48,0,0,1-.9.38,4.75,4.75,0,0,1-1.12.14,4.52,4.52,0,0,1-1.71-.32,4.16,4.16,0,0,1-1.37-.89,4,4,0,0,1-.91-1.38,4.63,4.63,0,0,1-.33-1.77,4.74,4.74,0,0,1,.34-1.81,4,4,0,0,1,1-1.41,4.56,4.56,0,0,1,1.46-.91,5.31,5.31,0,0,1,3.68,0,4.55,4.55,0,0,1,1.46.91,4,4,0,0,1,1,1.41,4.74,4.74,0,0,1,.34,1.81,5.38,5.38,0,0,1-.38,2,12.58,12.58,0,0,1-.9,1.8l-4,6.21h-1.66Zm1.38-3.88a3.55,3.55,0,0,0-.23-1.28,3,3,0,0,0-.65-1,3.11,3.11,0,0,0-1-.68,3.4,3.4,0,0,0-2.56,0,3.11,3.11,0,0,0-1,.68,3,3,0,0,0-.65,1,3.55,3.55,0,0,0-.23,1.28,3.59,3.59,0,0,0,.22,1.27,3,3,0,0,0,.63,1,2.84,2.84,0,0,0,1,.67,3.71,3.71,0,0,0,2.62,0,2.86,2.86,0,0,0,1-.67,3,3,0,0,0,.63-1,3.61,3.61,0,0,0,.24-1.27Z"/>
            <path class="sloans_lake-cls-5" d="M691.25,535h-2.64v5.46a3.07,3.07,0,0,0,.1.86,1.22,1.22,0,0,0,.29.53,1,1,0,0,0,.45.26,2.14,2.14,0,0,0,.56.07,2.35,2.35,0,0,0,.59-.08,2.93,2.93,0,0,0,.59-.22l.06,1.18a4,4,0,0,1-.75.21,4.79,4.79,0,0,1-.85.07,3.42,3.42,0,0,1-.8-.1,2,2,0,0,1-.78-.38,2.07,2.07,0,0,1-.59-.76,2.94,2.94,0,0,1-.23-1.26V535h-2V533.9h2v-2.65h1.36v2.64h2.64Z"/>
            <path class="sloans_lake-cls-5" d="M696.13,535.44a2.82,2.82,0,0,1,1.26-1.3,3.86,3.86,0,0,1,1.88-.48,3.29,3.29,0,0,1,2.67,1.06,4.21,4.21,0,0,1,.89,2.8v5.73h-1.36v-5.18a6.85,6.85,0,0,0-.12-1.34,2.81,2.81,0,0,0-.41-1,2,2,0,0,0-.78-.67,2.78,2.78,0,0,0-1.23-.24,2.63,2.63,0,0,0-1,.22,2.59,2.59,0,0,0-.91.67,3.35,3.35,0,0,0-.64,1.14,5,5,0,0,0-.24,1.63v4.77h-1.36V528.14h1.36v7.3Z"/>
            <path class="sloans_lake-cls-5" d="M720,543.25h-1.58l6.12-14.16H726l6.08,14.16h-1.6l-1.56-3.72h-7.32Zm2.08-5h6.24l-3.12-7.55Z"/>
            <path class="sloans_lake-cls-5" d="M739.15,543.25h-1.5l-3.82-9.36h1.52l3,7.92h0l3.06-7.92h1.46Z"/>
            <path class="sloans_lake-cls-5" d="M755,538.25v.3a3,3,0,0,1,0,.34h-7.76a3.63,3.63,0,0,0,.28,1.32,3.33,3.33,0,0,0,.72,1.08,3.47,3.47,0,0,0,1.08.73,3.57,3.57,0,0,0,3.17-.22,3.66,3.66,0,0,0,1.17-1.13l1,.8a5.08,5.08,0,0,1-1.85,1.52,5.17,5.17,0,0,1-2.17.46,5,5,0,0,1-1.93-.37,4.52,4.52,0,0,1-1.53-1,4.86,4.86,0,0,1-1-1.56,5.1,5.1,0,0,1-.37-2,5.22,5.22,0,0,1,.36-2,4.72,4.72,0,0,1,1-1.56,4.59,4.59,0,0,1,1.5-1,4.66,4.66,0,0,1,1.86-.37,4.79,4.79,0,0,1,1.94.37,4,4,0,0,1,1.4,1,4.31,4.31,0,0,1,.85,1.47A5.5,5.5,0,0,1,755,538.25Zm-1.38-.44a3.38,3.38,0,0,0-.85-2.19,2.88,2.88,0,0,0-2.25-.87,3.14,3.14,0,0,0-1.26.25,3.36,3.36,0,0,0-1.72,1.66,3.16,3.16,0,0,0-.3,1.15Z"/>
          </g>
          <g>
            <path class="sloans_lake-cls-5" d="M15.31,29.74a3.45,3.45,0,0,0-1.18-1,3.61,3.61,0,0,0-1.74-.39,3.73,3.73,0,0,0-1.06.16,3.07,3.07,0,0,0-1,.49,2.52,2.52,0,0,0-.71.83A2.45,2.45,0,0,0,9.35,31a2.19,2.19,0,0,0,.26,1.12,2.47,2.47,0,0,0,.69.75,4,4,0,0,0,1,.51l1.15.4q.74.24,1.49.52a5.36,5.36,0,0,1,1.35.73,3.54,3.54,0,0,1,1,1.14,3.6,3.6,0,0,1,.38,1.75,3.89,3.89,0,0,1-.4,1.83,3.83,3.83,0,0,1-1,1.27,4.35,4.35,0,0,1-1.48.74,6,6,0,0,1-1.67.24,6.47,6.47,0,0,1-1.28-.13,5.83,5.83,0,0,1-1.22-.39,4.93,4.93,0,0,1-1.08-.66,4.79,4.79,0,0,1-.88-.92L8.9,39a3.8,3.8,0,0,0,1.2,1.26,3.65,3.65,0,0,0,2,.51,3.78,3.78,0,0,0,1.1-.17,3.09,3.09,0,0,0,1-.52,2.87,2.87,0,0,0,.74-.86,2.67,2.67,0,0,0,0-2.42,2.57,2.57,0,0,0-.77-.82,4.71,4.71,0,0,0-1.1-.55L11.77,35q-.7-.22-1.38-.5a4.66,4.66,0,0,1-1.22-.73,3.42,3.42,0,0,1-.92-1.13,4.06,4.06,0,0,1,.09-3.37A3.71,3.71,0,0,1,9.41,28a4.48,4.48,0,0,1,1.46-.7,6,6,0,0,1,1.58-.22,5.45,5.45,0,0,1,2.46.51,4.22,4.22,0,0,1,1.54,1.21Z"/>
            <path class="sloans_lake-cls-5" d="M9.62,55.16a2.82,2.82,0,0,1,1.26-1.3,3.86,3.86,0,0,1,1.88-.48,3.29,3.29,0,0,1,2.67,1.06,4.21,4.21,0,0,1,.89,2.8V63H15V57.8a6.85,6.85,0,0,0-.12-1.34,2.81,2.81,0,0,0-.41-1,2,2,0,0,0-.78-.67,2.78,2.78,0,0,0-1.23-.24,2.63,2.63,0,0,0-1,.22,2.59,2.59,0,0,0-.91.67,3.35,3.35,0,0,0-.64,1.14,5,5,0,0,0-.24,1.63V63H8.25V47.86H9.61v7.3Z"/>
            <path class="sloans_lake-cls-5" d="M16.81,79.38v.3a3,3,0,0,1,0,.34H9a3.63,3.63,0,0,0,.28,1.32A3.33,3.33,0,0,0,10,82.42a3.47,3.47,0,0,0,1.08.73,3.57,3.57,0,0,0,3.14-.22,3.66,3.66,0,0,0,1.17-1.13l1,.8a5.08,5.08,0,0,1-1.85,1.52,5.17,5.17,0,0,1-2.17.46,5,5,0,0,1-1.88-.33,4.52,4.52,0,0,1-1.53-1,4.86,4.86,0,0,1-1-1.56,5.1,5.1,0,0,1-.37-2,5.22,5.22,0,0,1,.36-2,4.72,4.72,0,0,1,1-1.56,4.59,4.59,0,0,1,1.5-1,4.66,4.66,0,0,1,1.86-.37,4.79,4.79,0,0,1,1.94.37,4,4,0,0,1,1.4,1,4.31,4.31,0,0,1,.85,1.47A5.5,5.5,0,0,1,16.81,79.38Zm-1.38-.44a3.38,3.38,0,0,0-.85-2.19,2.88,2.88,0,0,0-2.25-.87,3.14,3.14,0,0,0-1.26.25,3.36,3.36,0,0,0-1.72,1.66A3.16,3.16,0,0,0,9,78.94Z"/>
            <path class="sloans_lake-cls-5" d="M10.39,97.42a8.77,8.77,0,0,0-.06-1.08h1.3a4.25,4.25,0,0,0,.06.84,3.18,3.18,0,0,1,0,.76h0a3.24,3.24,0,0,1,1.2-1.33,3.28,3.28,0,0,1,1.8-.51h.47a2.59,2.59,0,0,1,.43.08l-.18,1.3a2.69,2.69,0,0,0-.4-.08,4,4,0,0,0-.56,0,2.76,2.76,0,0,0-1,.2,2.23,2.23,0,0,0-.87.63,3.31,3.31,0,0,0-.6,1.1,5,5,0,0,0-.23,1.61v4.79H10.41v-7.3Q10.41,98,10.39,97.42Z"/>
            <path class="sloans_lake-cls-5" d="M13.17,114.1a.89.89,0,0,1-.3.69,1,1,0,0,1-1.37-1.33l.05-.05a.94.94,0,0,1,1.32,0A.89.89,0,0,1,13.17,114.1Zm-.28,13H11.53v-9.36h1.36Z"/>
            <path class="sloans_lake-cls-5" d="M15.34,146.84a3.85,3.85,0,0,1-1.56,1.36,4.54,4.54,0,0,1-2,.46,5,5,0,0,1-2-.38,4.55,4.55,0,0,1-1.53-1,4.7,4.7,0,0,1-1-1.56,5.56,5.56,0,0,1,0-3.88,4.7,4.7,0,0,1,1-1.56,4.52,4.52,0,0,1,1.52-1,5,5,0,0,1,2-.38,4.46,4.46,0,0,1,2,.47,3.87,3.87,0,0,1,1.56,1.39h0v-7.48h1.36v15.12H15.38v-1.58Zm-6.94-3.1a4.44,4.44,0,0,0,.24,1.51,3.56,3.56,0,0,0,.69,1.2,3.15,3.15,0,0,0,1.11.8,3.7,3.7,0,0,0,1.5.29,3.51,3.51,0,0,0,3.31-2.29,4.24,4.24,0,0,0,0-3,3.68,3.68,0,0,0-.75-1.2,3.45,3.45,0,0,0-1.14-.8,3.54,3.54,0,0,0-1.44-.29,3.59,3.59,0,0,0-1.5.3,3.25,3.25,0,0,0-1.11.81,3.56,3.56,0,0,0-.69,1.2,4.44,4.44,0,0,0-.22,1.47Z"/>
            <path class="sloans_lake-cls-5" d="M14.57,163.72a2.35,2.35,0,0,0-.64-1.81,2.63,2.63,0,0,0-1.86-.6,4,4,0,0,0-1.56.3,3.74,3.74,0,0,0-1.22.8l-.76-.9a4.48,4.48,0,0,1,1.53-1,5.75,5.75,0,0,1,2.15-.38,4.64,4.64,0,0,1,1.42.21,3.35,3.35,0,0,1,1.16.63,2.86,2.86,0,0,1,.78,1.06,3.72,3.72,0,0,1,.28,1.5v5.22a8.09,8.09,0,0,0,.12,1H14.79c0-.23-.07-.47-.1-.74a7.63,7.63,0,0,1,0-.78h0a4,4,0,0,1-1.45,1.35,4.28,4.28,0,0,1-2,.41,4.37,4.37,0,0,1-1.11-.15,3.09,3.09,0,0,1-1-.49,2.76,2.76,0,0,1-.78-.88A2.63,2.63,0,0,1,8,167.15a2.52,2.52,0,0,1,.55-1.72,3.31,3.31,0,0,1,1.47-.94,8.67,8.67,0,0,1,2.11-.4q1.19-.09,2.47-.09Zm-.4,1.38q-.84,0-1.69.07a7.4,7.4,0,0,0-1.54.28,2.91,2.91,0,0,0-1.13.61,1.36,1.36,0,0,0-.44,1.06,1.7,1.7,0,0,0,.19.84,1.54,1.54,0,0,0,.51.55,2.19,2.19,0,0,0,.71.3,3.53,3.53,0,0,0,.79.09,3.11,3.11,0,0,0,1.28-.25,2.72,2.72,0,0,0,.94-.68,3,3,0,0,0,.58-1,3.49,3.49,0,0,0,.2-1.18v-.7Z"/>
            <path class="sloans_lake-cls-5" d="M9.42,181.78a4.25,4.25,0,0,0,.06.84,3.18,3.18,0,0,1,0,.76h0a3.08,3.08,0,0,1,1.3-1.33,3.79,3.79,0,0,1,1.9-.51,3.29,3.29,0,0,1,2.67,1.06,4.21,4.21,0,0,1,.89,2.8v5.74h-1.3V186a6.85,6.85,0,0,0-.12-1.34,2.81,2.81,0,0,0-.41-1,2,2,0,0,0-.78-.67,2.79,2.79,0,0,0-1.23-.24,2.63,2.63,0,0,0-1,.22,2.59,2.59,0,0,0-.91.67,3.35,3.35,0,0,0-.64,1.14,5,5,0,0,0-.24,1.63v4.8H8.2v-8.3a8.47,8.47,0,0,0-.06-1.08Z"/>
            <path class="sloans_lake-cls-5" d="M7.73,211.06h4.22a8,8,0,0,1,1.62.17,4.41,4.41,0,0,1,1.47.58,3.2,3.2,0,0,1,1.06,1.11,3.44,3.44,0,0,1,.41,1.76,3,3,0,0,1-.68,2A3.21,3.21,0,0,1,14,217.77h0a3.73,3.73,0,0,1,2.25,1.06,3.34,3.34,0,0,1,.91,2.47,3.47,3.47,0,0,1-1.42,2.85,5,5,0,0,1-1.66.79,7.94,7.94,0,0,1-2.2.28H7.73Zm1.44,6.19h2.9a4.73,4.73,0,0,0,1-.12,2.93,2.93,0,0,0,1-.41,2.21,2.21,0,0,0,.71-.77,2.38,2.38,0,0,0,.27-1.18,2.28,2.28,0,0,0-.27-1.15,2.25,2.25,0,0,0-.73-.77,3.16,3.16,0,0,0-1.08-.43,6.4,6.4,0,0,0-1.32-.13H9.17Zm0,6.72h2.68a7.23,7.23,0,0,0,1.49-.15,3.85,3.85,0,0,0,1.24-.48,2.57,2.57,0,0,0,.85-.86,2.74,2.74,0,0,0-.63-3.36,4.52,4.52,0,0,0-2.69-.69H9.17Z"/>
            <path class="sloans_lake-cls-5" d="M17.2,241.9a5.12,5.12,0,0,1-.37,2,4.73,4.73,0,0,1-1,1.56,4.67,4.67,0,0,1-1.58,1,5.38,5.38,0,0,1-2,.37,5.32,5.32,0,0,1-2-.37,4.62,4.62,0,0,1-2.61-2.59,5.37,5.37,0,0,1,0-3.92,4.61,4.61,0,0,1,2.61-2.59,5.32,5.32,0,0,1,2-.37,5.38,5.38,0,0,1,2,.37A4.62,4.62,0,0,1,16.86,240,5.11,5.11,0,0,1,17.2,241.9Zm-1.44,0a4.3,4.3,0,0,0-.25-1.47,3.6,3.6,0,0,0-.71-1.2,3.36,3.36,0,0,0-1.12-.81,3.54,3.54,0,0,0-1.48-.3,3.46,3.46,0,0,0-1.47.3,3.38,3.38,0,0,0-1.11.81,3.6,3.6,0,0,0-.71,1.2,4.45,4.45,0,0,0,0,2.94,3.61,3.61,0,0,0,.71,1.2,3.27,3.27,0,0,0,1.11.8,3.57,3.57,0,0,0,1.47.29,3.64,3.64,0,0,0,1.48-.29,3.25,3.25,0,0,0,1.12-.8,3.61,3.61,0,0,0,.71-1.2A4.3,4.3,0,0,0,15.76,241.9Z"/>
            <path class="sloans_lake-cls-5" d="M15,267.94a4.25,4.25,0,0,0-.06-.84,3.18,3.18,0,0,1,0-.76h0a3.09,3.09,0,0,1-1.3,1.33,3.8,3.8,0,0,1-1.9.51,3.29,3.29,0,0,1-2.67-1.06,4.21,4.21,0,0,1-.89-2.8v-5.74H9.54v5.18a6.85,6.85,0,0,0,.12,1.34,2.82,2.82,0,0,0,.41,1,2,2,0,0,0,.78.67,2.81,2.81,0,0,0,1.23.24,2.61,2.61,0,0,0,1-.22,2.58,2.58,0,0,0,.91-.67,3.35,3.35,0,0,0,.64-1.14,5,5,0,0,0,.24-1.63v-4.8h1.38v8.3a5.94,5.94,0,0,0,.06,1.08Z"/>
            <path class="sloans_lake-cls-5" d="M12.89,289.25H11.53V274.18h1.36Z"/>
            <path class="sloans_lake-cls-5" d="M16.81,305.7v.3a3,3,0,0,1,0,.34H9a3.63,3.63,0,0,0,.28,1.32,3.33,3.33,0,0,0,.72,1.08,3.47,3.47,0,0,0,1.08.73,3.57,3.57,0,0,0,3.14-.22,3.66,3.66,0,0,0,1.17-1.13l1,.8a5.08,5.08,0,0,1-1.85,1.52,5.17,5.17,0,0,1-2.17.46,5,5,0,0,1-1.93-.37,4.52,4.52,0,0,1-1.53-1,4.86,4.86,0,0,1-1-1.56,5.1,5.1,0,0,1-.37-2,5.22,5.22,0,0,1,.36-2,4.72,4.72,0,0,1,1-1.56,4.59,4.59,0,0,1,1.5-1,4.66,4.66,0,0,1,1.86-.37,4.79,4.79,0,0,1,1.94.37,4,4,0,0,1,1.4,1,4.31,4.31,0,0,1,.85,1.47A5.5,5.5,0,0,1,16.81,305.7Zm-1.38-.45a3.38,3.38,0,0,0-.85-2.19,2.88,2.88,0,0,0-2.25-.87,3.14,3.14,0,0,0-1.26.25,3.36,3.36,0,0,0-1.72,1.66,3.16,3.16,0,0,0-.3,1.15Z"/>
            <path class="sloans_lake-cls-5" d="M13,332h-1.5l-3.82-9.36H9.17l3,7.92h0l3.06-7.92h1.46Z"/>
            <path class="sloans_lake-cls-5" d="M14.57,347.32a2.35,2.35,0,0,0-.64-1.81,2.63,2.63,0,0,0-1.86-.6,4,4,0,0,0-1.56.3,3.74,3.74,0,0,0-1.22.8l-.76-.9a4.48,4.48,0,0,1,1.53-1,5.75,5.75,0,0,1,2.15-.38,4.64,4.64,0,0,1,1.42.21,3.35,3.35,0,0,1,1.16.63,2.86,2.86,0,0,1,.78,1.06,3.72,3.72,0,0,1,.28,1.5v5.24a8.09,8.09,0,0,0,.12,1H14.79c0-.23-.07-.47-.1-.74a7.63,7.63,0,0,1,0-.78h0a4,4,0,0,1-1.53,1.4,4.28,4.28,0,0,1-2,.41,4.37,4.37,0,0,1-1.11-.15,3.09,3.09,0,0,1-1-.49,2.76,2.76,0,0,1-.78-.88A2.63,2.63,0,0,1,8,350.82a2.52,2.52,0,0,1,.55-1.72,3.31,3.31,0,0,1,1.47-.94,8.67,8.67,0,0,1,2.11-.4q1.19-.09,2.47-.09Zm-.4,1.38q-.84,0-1.69.07a7.4,7.4,0,0,0-1.54.28,2.91,2.91,0,0,0-1.13.61,1.36,1.36,0,0,0-.44,1.06,1.7,1.7,0,0,0,.19.84,1.54,1.54,0,0,0,.51.55,2.19,2.19,0,0,0,.71.3,3.53,3.53,0,0,0,.79.09,3.11,3.11,0,0,0,1.28-.25,2.72,2.72,0,0,0,.94-.68,3,3,0,0,0,.58-1,3.49,3.49,0,0,0,.2-1.18v-.7Z"/>
            <path class="sloans_lake-cls-5" d="M10.39,366.46a8.77,8.77,0,0,0-.06-1.08h1.3a4.25,4.25,0,0,0,.06.84,3.18,3.18,0,0,1,0,.76h0a3.24,3.24,0,0,1,1.2-1.33,3.28,3.28,0,0,1,1.8-.51h.47a2.59,2.59,0,0,1,.43.08l-.18,1.3a2.69,2.69,0,0,0-.4-.08,4,4,0,0,0-.56,0,2.76,2.76,0,0,0-1,.2,2.23,2.23,0,0,0-.87.63,3.31,3.31,0,0,0-.6,1.1,5,5,0,0,0-.23,1.61v4.79H10.41v-7.3Q10.41,367.06,10.39,366.46Z"/>
            <path class="sloans_lake-cls-5" d="M15.34,394.52a3.85,3.85,0,0,1-1.56,1.36,4.54,4.54,0,0,1-2,.46,5,5,0,0,1-2-.38,4.55,4.55,0,0,1-1.52-1,4.7,4.7,0,0,1-1-1.56,5.56,5.56,0,0,1,0-3.88,4.7,4.7,0,0,1,1-1.56,4.52,4.52,0,0,1,1.52-1,5,5,0,0,1,2-.38,4.46,4.46,0,0,1,2,.47,3.87,3.87,0,0,1,1.56,1.39h0v-7.38H16.7v15.12H15.38V394.6Zm-6.94-3.1a4.44,4.44,0,0,0,.24,1.47,3.56,3.56,0,0,0,.69,1.2,3.15,3.15,0,0,0,1.11.8,3.7,3.7,0,0,0,1.5.29,3.51,3.51,0,0,0,3.31-2.27,4.24,4.24,0,0,0,0-3,3.68,3.68,0,0,0-.75-1.2,3.45,3.45,0,0,0-1.14-.8,3.54,3.54,0,0,0-1.44-.29,3.59,3.59,0,0,0-1.5.3,3.25,3.25,0,0,0-1.11.81,3.56,3.56,0,0,0-.69,1.2,4.44,4.44,0,0,0-.22,1.49Z"/>
          </g>
          <g>
            <path class="sloans_lake-cls-5" d="M962.36,86.25h-1.44V72.14h8.54v1.28h-7.1v4.9H969V79.6h-6.6Z"/>
            <path class="sloans_lake-cls-5" d="M969.25,102.7v.3a3,3,0,0,1,0,.34h-7.76a3.63,3.63,0,0,0,.28,1.32,3.33,3.33,0,0,0,.72,1.08,3.47,3.47,0,0,0,1.08.73,3.57,3.57,0,0,0,3.17-.22,3.66,3.66,0,0,0,1.17-1.13l1,.8a5.08,5.08,0,0,1-1.85,1.52,5.17,5.17,0,0,1-2.17.46,5,5,0,0,1-1.93-.37,4.52,4.52,0,0,1-1.53-1,4.86,4.86,0,0,1-1-1.56,5.1,5.1,0,0,1-.37-2,5.22,5.22,0,0,1,.36-2,4.72,4.72,0,0,1,1-1.56,4.59,4.59,0,0,1,1.5-1,4.66,4.66,0,0,1,1.86-.37,4.79,4.79,0,0,1,1.94.37,4,4,0,0,1,1.4,1,4.31,4.31,0,0,1,.85,1.47A5.5,5.5,0,0,1,969.25,102.7Zm-1.38-.44a3.38,3.38,0,0,0-.85-2.19,2.88,2.88,0,0,0-2.25-.87,3.14,3.14,0,0,0-1.26.25,3.36,3.36,0,0,0-1.72,1.66,3.16,3.16,0,0,0-.3,1.15Z"/>
            <path class="sloans_lake-cls-5" d="M967.79,127.44a3.85,3.85,0,0,1-1.56,1.36,4.54,4.54,0,0,1-2,.46,5,5,0,0,1-2-.38,4.55,4.55,0,0,1-1.52-1,4.7,4.7,0,0,1-1-1.56,5.56,5.56,0,0,1,0-3.88,4.7,4.7,0,0,1,1-1.56,4.52,4.52,0,0,1,1.52-1,5,5,0,0,1,2-.38,4.46,4.46,0,0,1,2,.47,3.87,3.87,0,0,1,1.56,1.39h0V114h1.36V129.1h-1.36v-1.66Zm-6.94-3.1a4.44,4.44,0,0,0,.24,1.47,3.56,3.56,0,0,0,.69,1.2,3.15,3.15,0,0,0,1.11.8,3.7,3.7,0,0,0,1.5.29,3.51,3.51,0,0,0,3.33-2.27,4.24,4.24,0,0,0,0-3,3.68,3.68,0,0,0-.75-1.2,3.45,3.45,0,0,0-1.14-.8,3.54,3.54,0,0,0-1.44-.29,3.59,3.59,0,0,0-1.5.3,3.25,3.25,0,0,0-1.11.81,3.56,3.56,0,0,0-.69,1.2A4.44,4.44,0,0,0,960.85,124.34Z"/>
            <path class="sloans_lake-cls-5" d="M969.25,145.42v.3a3,3,0,0,1,0,.34h-7.76a3.63,3.63,0,0,0,.28,1.32,3.33,3.33,0,0,0,.72,1.08,3.47,3.47,0,0,0,1.08.73,3.57,3.57,0,0,0,3.17-.22,3.66,3.66,0,0,0,1.17-1.13l1,.8a5.08,5.08,0,0,1-1.85,1.52,5.17,5.17,0,0,1-2.17.46,5,5,0,0,1-1.93-.37,4.52,4.52,0,0,1-1.53-1,4.86,4.86,0,0,1-1-1.56,5.1,5.1,0,0,1-.37-2,5.22,5.22,0,0,1,.36-2,4.72,4.72,0,0,1,1-1.56,4.59,4.59,0,0,1,1.5-1,4.66,4.66,0,0,1,1.86-.37,4.79,4.79,0,0,1,1.94.37,4,4,0,0,1,1.4,1,4.31,4.31,0,0,1,.85,1.47A5.5,5.5,0,0,1,969.25,145.42Zm-1.38-.44a3.38,3.38,0,0,0-.85-2.19,2.88,2.88,0,0,0-2.25-.87,3.14,3.14,0,0,0-1.26.25,3.36,3.36,0,0,0-1.72,1.66,3.16,3.16,0,0,0-.3,1.15Z"/>
            <path class="sloans_lake-cls-5" d="M962.84,163.46a8.78,8.78,0,0,0-.06-1.08h1.3a4.25,4.25,0,0,0,.06.84,3.18,3.18,0,0,1,0,.76h0a3.24,3.24,0,0,1,1.2-1.33,3.28,3.28,0,0,1,1.8-.51h.47a2.59,2.59,0,0,1,.43.08l-.18,1.3a2.69,2.69,0,0,0-.4-.08,4,4,0,0,0-.56,0,2.76,2.76,0,0,0-1,.2,2.23,2.23,0,0,0-.87.63,3.31,3.31,0,0,0-.6,1.1,5,5,0,0,0-.23,1.61v4.79h-1.36v-7.3Q962.86,164.06,962.84,163.46Z"/>
            <path class="sloans_lake-cls-5" d="M967,187a2.35,2.35,0,0,0-.64-1.81,2.63,2.63,0,0,0-1.86-.6,4,4,0,0,0-1.56.3,3.74,3.74,0,0,0-1.22.8l-.76-.9a4.48,4.48,0,0,1,1.53-1,5.75,5.75,0,0,1,2.15-.38,4.64,4.64,0,0,1,1.42.21,3.35,3.35,0,0,1,1.16.63,2.86,2.86,0,0,1,.78,1.06,3.72,3.72,0,0,1,.28,1.5v5.22a8.09,8.09,0,0,0,.12,1h-1.17c0-.23-.07-.47-.1-.74a7.63,7.63,0,0,1,0-.78h0a4,4,0,0,1-1.45,1.35,4.28,4.28,0,0,1-2,.41,4.37,4.37,0,0,1-1.11-.15,3.09,3.09,0,0,1-1-.49,2.76,2.76,0,0,1-.78-.88,2.63,2.63,0,0,1-.31-1.32,2.52,2.52,0,0,1,.55-1.72,3.31,3.31,0,0,1,1.47-.94,8.67,8.67,0,0,1,2.11-.4q1.19-.09,2.47-.09Zm-.4,1.38q-.84,0-1.69.07a7.4,7.4,0,0,0-1.54.28,2.91,2.91,0,0,0-1.13.61,1.36,1.36,0,0,0-.44,1.06,1.7,1.7,0,0,0,.19.84,1.54,1.54,0,0,0,.51.55,2.19,2.19,0,0,0,.71.3,3.53,3.53,0,0,0,.79.09,3.11,3.11,0,0,0,1.28-.25,2.72,2.72,0,0,0,.95-.72,3,3,0,0,0,.58-1,3.49,3.49,0,0,0,.2-1.18v-.7Z"/>
            <path class="sloans_lake-cls-5" d="M965.34,214.46H964V199.34h1.36Z"/>
            <path class="sloans_lake-cls-5" d="M960.18,234.38h4.22a8,8,0,0,1,1.62.17,4.41,4.41,0,0,1,1.47.58,3.2,3.2,0,0,1,1.06,1.12A3.44,3.44,0,0,1,969,238a3,3,0,0,1-.68,2,3.21,3.21,0,0,1-1.83,1.09h0a3.73,3.73,0,0,1,2.29,1.07,3.34,3.34,0,0,1,.91,2.47,3.47,3.47,0,0,1-1.42,2.85,5,5,0,0,1-1.66.79,7.94,7.94,0,0,1-2.2.28h-4.19Zm1.44,6.2h2.9a4.73,4.73,0,0,0,1-.12,2.93,2.93,0,0,0,1-.41,2.21,2.21,0,0,0,.73-.8,2.38,2.38,0,0,0,.27-1.18,2.28,2.28,0,0,0-.27-1.15,2.25,2.25,0,0,0-.73-.77,3.16,3.16,0,0,0-1.08-.43,6.4,6.4,0,0,0-1.32-.13h-2.5Zm0,6.72h2.68a7.23,7.23,0,0,0,1.49-.15,3.85,3.85,0,0,0,1.24-.48,2.57,2.57,0,0,0,.85-.86,2.74,2.74,0,0,0-.63-3.36,4.52,4.52,0,0,0-2.69-.69h-2.94Z"/>
            <path class="sloans_lake-cls-5" d="M969.65,265.25a5.12,5.12,0,0,1-.37,2,4.73,4.73,0,0,1-1,1.56,4.67,4.67,0,0,1-1.58,1,5.38,5.38,0,0,1-2,.37,5.32,5.32,0,0,1-2-.37,4.62,4.62,0,0,1-2.61-2.59,5.37,5.37,0,0,1,0-3.92,4.61,4.61,0,0,1,2.61-2.59,5.32,5.32,0,0,1,2-.37,5.38,5.38,0,0,1,2,.37,4.62,4.62,0,0,1,2.55,2.54A5.11,5.11,0,0,1,969.65,265.25Zm-1.4,0a4.3,4.3,0,0,0-.25-1.47,3.6,3.6,0,0,0-.71-1.2,3.36,3.36,0,0,0-1.12-.81,3.54,3.54,0,0,0-1.48-.3,3.46,3.46,0,0,0-1.47.3,3.38,3.38,0,0,0-1.11.81,3.6,3.6,0,0,0-.71,1.2,4.45,4.45,0,0,0,0,2.94,3.61,3.61,0,0,0,.71,1.2,3.27,3.27,0,0,0,1.11.8,3.57,3.57,0,0,0,1.47.29,3.64,3.64,0,0,0,1.48-.29,3.25,3.25,0,0,0,1.12-.8,3.61,3.61,0,0,0,.71-1.2A4.3,4.3,0,0,0,968.25,265.25Z"/>
            <path class="sloans_lake-cls-5" d="M967.45,291.25a4.25,4.25,0,0,0-.06-.84,3.18,3.18,0,0,1,0-.76h0a3.09,3.09,0,0,1-1.3,1.33,3.8,3.8,0,0,1-1.9.51,3.29,3.29,0,0,1-2.67-1.06,4.21,4.21,0,0,1-.89-2.8v-5.74H962v5.18a6.85,6.85,0,0,0,.12,1.34,2.82,2.82,0,0,0,.41,1,2,2,0,0,0,.78.67,2.81,2.81,0,0,0,1.23.24,2.61,2.61,0,0,0,1-.22,2.58,2.58,0,0,0,.91-.67,3.35,3.35,0,0,0,.64-1.14,5,5,0,0,0,.24-1.63v-4.8h1.36v8.3a5.94,5.94,0,0,0,.06,1.08Z"/>
            <path class="sloans_lake-cls-5" d="M965.34,312.62H964V297.5h1.36Z"/>
            <path class="sloans_lake-cls-5" d="M969.25,329v.3a3,3,0,0,1,0,.34h-7.76a3.63,3.63,0,0,0,.28,1.32,3.33,3.33,0,0,0,.72,1.08,3.47,3.47,0,0,0,1.08.73,3.57,3.57,0,0,0,3.17-.22,3.66,3.66,0,0,0,1.17-1.13l1,.8a5.08,5.08,0,0,1-1.85,1.52,5.17,5.17,0,0,1-2.17.46,5,5,0,0,1-1.93-.37,4.52,4.52,0,0,1-1.53-1,4.86,4.86,0,0,1-1-1.56,5.1,5.1,0,0,1-.37-2,5.22,5.22,0,0,1,.36-2,4.72,4.72,0,0,1,1-1.56,4.59,4.59,0,0,1,1.5-1,4.66,4.66,0,0,1,1.86-.37,4.79,4.79,0,0,1,1.94.37,4,4,0,0,1,1.4,1,4.31,4.31,0,0,1,.85,1.47A5.5,5.5,0,0,1,969.25,329Zm-1.38-.44a3.38,3.38,0,0,0-.85-2.19,2.88,2.88,0,0,0-2.25-.87,3.14,3.14,0,0,0-1.26.25,3.36,3.36,0,0,0-1.72,1.66,3.16,3.16,0,0,0-.3,1.15Z"/>
            <path class="sloans_lake-cls-5" d="M965.42,355.34h-1.5L960.1,346h1.52l3,7.92h0l3.06-7.92h1.57Z"/>
            <path class="sloans_lake-cls-5" d="M967,370.64a2.35,2.35,0,0,0-.64-1.81,2.63,2.63,0,0,0-1.86-.6,4,4,0,0,0-1.56.3,3.74,3.74,0,0,0-1.22.8l-.76-.9a4.48,4.48,0,0,1,1.53-1,5.75,5.75,0,0,1,2.15-.38,4.64,4.64,0,0,1,1.42.21,3.35,3.35,0,0,1,1.16.63A2.86,2.86,0,0,1,968,369a3.72,3.72,0,0,1,.28,1.5v5.22a8.08,8.08,0,0,0,.12,1h-1.17c0-.23-.07-.47-.1-.74a7.63,7.63,0,0,1,0-.78h0a4,4,0,0,1-1.45,1.35,4.28,4.28,0,0,1-2,.41,4.37,4.37,0,0,1-1.11-.15,3.09,3.09,0,0,1-1-.49,2.76,2.76,0,0,1-.78-.88,2.63,2.63,0,0,1-.31-1.32,2.52,2.52,0,0,1,.55-1.72,3.31,3.31,0,0,1,1.47-.94,8.67,8.67,0,0,1,2.11-.4q1.19-.09,2.47-.09Zm-.4,1.38q-.84,0-1.69.07a7.4,7.4,0,0,0-1.54.28,2.91,2.91,0,0,0-1.13.61,1.36,1.36,0,0,0-.44,1.06,1.7,1.7,0,0,0,.19.84,1.54,1.54,0,0,0,.51.55,2.19,2.19,0,0,0,.71.3,3.53,3.53,0,0,0,.79.09,3.11,3.11,0,0,0,1.28-.25,2.72,2.72,0,0,0,.94-.68,3,3,0,0,0,.58-1,3.49,3.49,0,0,0,.2-1.18V372Z"/>
            <path class="sloans_lake-cls-5" d="M962.84,389.78a8.78,8.78,0,0,0-.06-1.08h1.3a4.25,4.25,0,0,0,.06.84,3.18,3.18,0,0,1,0,.76h0a3.24,3.24,0,0,1,1.2-1.33,3.28,3.28,0,0,1,1.8-.51h.47a2.59,2.59,0,0,1,.43.08l-.18,1.3a2.69,2.69,0,0,0-.4-.08,4,4,0,0,0-.56,0,2.76,2.76,0,0,0-1,.2,2.23,2.23,0,0,0-.87.63,3.31,3.31,0,0,0-.6,1.1,5,5,0,0,0-.18,1.56V398h-1.36v-7.3Q962.86,390.38,962.84,389.78Z"/>
            <path class="sloans_lake-cls-5" d="M967.79,417.84a3.85,3.85,0,0,1-1.56,1.36,4.54,4.54,0,0,1-2,.46,5,5,0,0,1-2-.38,4.55,4.55,0,0,1-1.52-1,4.7,4.7,0,0,1-1-1.56,5.56,5.56,0,0,1,0-3.88,4.7,4.7,0,0,1,1-1.56,4.52,4.52,0,0,1,1.52-1,5,5,0,0,1,2-.38,4.46,4.46,0,0,1,2,.47,3.87,3.87,0,0,1,1.56,1.39h0v-7.51h1.36v15.12h-1.36v-1.53Zm-6.94-3.1a4.44,4.44,0,0,0,.24,1.47,3.56,3.56,0,0,0,.69,1.2,3.15,3.15,0,0,0,1.11.8,3.7,3.7,0,0,0,1.5.29,3.51,3.51,0,0,0,3.33-2.27,4.24,4.24,0,0,0,0-3A3.68,3.68,0,0,0,967,412a3.45,3.45,0,0,0-1.14-.8,3.54,3.54,0,0,0-1.44-.29,3.59,3.59,0,0,0-1.5.3,3.25,3.25,0,0,0-1.11.81,3.56,3.56,0,0,0-.69,1.2A4.44,4.44,0,0,0,960.85,414.74Z"/>
          </g>
          <g>
            <path class="sloans_lake-cls-5" d="M829.39,106.25H828V92.08h1.44Z"/>
            <path class="sloans_lake-cls-5" d="M826.85,119.32a8.78,8.78,0,0,0-.06-1.08h1.3a4.25,4.25,0,0,0,.06.84,3.18,3.18,0,0,1,0,.76h0a3.24,3.24,0,0,1,1.2-1.33,3.28,3.28,0,0,1,1.8-.51h.47a2.59,2.59,0,0,1,.43.08l-.18,1.3a2.69,2.69,0,0,0-.4-.08,4,4,0,0,0-.56,0,2.76,2.76,0,0,0-1,.2,2.23,2.23,0,0,0-.87.63,3.31,3.31,0,0,0-.6,1.1,5,5,0,0,0-.23,1.61v4.79h-1.36v-7.38Q826.87,119.92,826.85,119.32Z"/>
            <path class="sloans_lake-cls-5" d="M829.43,149h-1.5l-3.82-9.36h1.52l3,7.92h0l3.06-7.92h1.56Z"/>
            <path class="sloans_lake-cls-5" d="M829.63,157.36a.89.89,0,0,1-.3.69,1,1,0,0,1-1.37-1.33l.05-.05a.94.94,0,0,1,1.32,0A.89.89,0,0,1,829.63,157.36Zm-.28,13H828V161h1.36Z"/>
            <path class="sloans_lake-cls-5" d="M825.88,182.32a4.25,4.25,0,0,0,.06.84,3.18,3.18,0,0,1,0,.76h0a3.08,3.08,0,0,1,1.3-1.33,3.79,3.79,0,0,1,1.9-.51,3.29,3.29,0,0,1,2.67,1.06,4.21,4.21,0,0,1,.89,2.8v5.74h-1.36V186.5a6.85,6.85,0,0,0-.12-1.34,2.81,2.81,0,0,0-.41-1,2,2,0,0,0-.78-.67,2.79,2.79,0,0,0-1.23-.24,2.63,2.63,0,0,0-1,.22,2.59,2.59,0,0,0-.91.67,3.35,3.35,0,0,0-.64,1.11,5,5,0,0,0-.24,1.63v4.8h-1.36v-7.3q0-.38,0-1a8.45,8.45,0,0,0-.06-1.08Z"/>
            <path class="sloans_lake-cls-5" d="M824.65,214.92a4.51,4.51,0,0,0,1.53,1.22,4.73,4.73,0,0,0,3.75.21,2.94,2.94,0,0,0,1.13-.79,3.15,3.15,0,0,0,.63-1.17,5,5,0,0,0,.2-1.43V211.2h0a3.57,3.57,0,0,1-1.53,1.36,4.56,4.56,0,0,1-2,.48,5.26,5.26,0,0,1-2-.36,4.5,4.5,0,0,1-1.52-1,4.42,4.42,0,0,1-1-1.51,5.28,5.28,0,0,1,0-3.78,4.74,4.74,0,0,1,1-1.54,4.52,4.52,0,0,1,1.52-1,5,5,0,0,1,2-.38,4.5,4.5,0,0,1,2,.48,3.68,3.68,0,0,1,1.49,1.3h0v-1.62h1.4v9.28a6.86,6.86,0,0,1-.21,1.62,4.1,4.1,0,0,1-.78,1.58,4.42,4.42,0,0,1-1.55,1.2,5.8,5.8,0,0,1-2.54.48,6.3,6.3,0,0,1-2.48-.5,6,6,0,0,1-2-1.38Zm.26-6.68a4.06,4.06,0,0,0,.24,1.4,3.51,3.51,0,0,0,.69,1.16,3.2,3.2,0,0,0,1.11.79,3.7,3.7,0,0,0,1.5.29,3.89,3.89,0,0,0,1.44-.26,3.28,3.28,0,0,0,1.14-.74,3.4,3.4,0,0,0,.75-1.15,3.94,3.94,0,0,0,.27-1.49,3.65,3.65,0,0,0-2.16-3.36,3.44,3.44,0,0,0-1.44-.3,3.59,3.59,0,0,0-1.5.3,3.33,3.33,0,0,0-1.11.8,3.53,3.53,0,0,0-.69,1.16,4.07,4.07,0,0,0-.24,1.41Z"/>
            <path class="sloans_lake-cls-5" d="M831.77,235.25a3.45,3.45,0,0,0-1.18-1,3.61,3.61,0,0,0-1.74-.39,3.73,3.73,0,0,0-1.06.16,3.07,3.07,0,0,0-1,.49,2.52,2.52,0,0,0-.71.83,2.45,2.45,0,0,0-.27,1.18,2.19,2.19,0,0,0,.26,1.12,2.47,2.47,0,0,0,.69.75,4,4,0,0,0,1,.51l1.15.4q.74.24,1.49.52a5.36,5.36,0,0,1,1.35.73,3.54,3.54,0,0,1,1,1.14,3.6,3.6,0,0,1,.38,1.75,3.89,3.89,0,0,1-.4,1.83,3.83,3.83,0,0,1-1,1.27,4.35,4.35,0,0,1-1.48.74,6,6,0,0,1-1.67.24,6.47,6.47,0,0,1-1.28-.13,5.83,5.83,0,0,1-1.22-.39,4.93,4.93,0,0,1-1.08-.66,4.79,4.79,0,0,1-.88-.92l1.24-.92a3.8,3.8,0,0,0,1.29,1.27,3.65,3.65,0,0,0,2,.51,3.78,3.78,0,0,0,1.1-.17,3.09,3.09,0,0,0,1-.52,2.87,2.87,0,0,0,.74-.86,2.67,2.67,0,0,0,0-2.42,2.57,2.57,0,0,0-.77-.82,4.71,4.71,0,0,0-1.1-.55l-1.3-.44q-.7-.22-1.38-.5a4.66,4.66,0,0,1-1.22-.73,3.42,3.42,0,0,1-.87-1.11,4.06,4.06,0,0,1,.08-3.38,3.71,3.71,0,0,1,1.07-1.22,4.48,4.48,0,0,1,1.46-.7,6,6,0,0,1,1.58-.22,5.45,5.45,0,0,1,2.46.51,4.22,4.22,0,0,1,1.54,1.21Z"/>
            <path class="sloans_lake-cls-5" d="M831.52,260.25h-2.64v5.46a3.07,3.07,0,0,0,.1.86,1.22,1.22,0,0,0,.29.53,1,1,0,0,0,.45.26,2.14,2.14,0,0,0,.56.07,2.35,2.35,0,0,0,.59-.08,2.93,2.93,0,0,0,.59-.22l.06,1.18a4,4,0,0,1-.75.21,4.79,4.79,0,0,1-.85.07,3.42,3.42,0,0,1-.8-.1,2,2,0,0,1-.78-.38,2.07,2.07,0,0,1-.59-.76,2.94,2.94,0,0,1-.23-1.26v-5.84h-1.94v-1.14h1.94v-2.64h1.36v2.64h2.64Z"/>
          </g>
          <g>
            <path class="sloans_lake-cls-5" d="M666.39,107.59H673v1.28h-8V94.71h1.44Z"/>
            <path class="sloans_lake-cls-5" d="M673.16,125.55a5.12,5.12,0,0,1-.37,2,4.73,4.73,0,0,1-1,1.56,4.67,4.67,0,0,1-1.58,1,5.38,5.38,0,0,1-2,.37,5.32,5.32,0,0,1-2-.37,4.62,4.62,0,0,1-2.61-2.59,5.37,5.37,0,0,1,0-3.92,4.61,4.61,0,0,1,2.61-2.59,5.32,5.32,0,0,1,2-.37,5.38,5.38,0,0,1,2,.37,4.62,4.62,0,0,1,2.61,2.59A5.11,5.11,0,0,1,673.16,125.55Zm-1.44,0a4.3,4.3,0,0,0-.25-1.47,3.6,3.6,0,0,0-.71-1.2,3.36,3.36,0,0,0-1.12-.81,3.54,3.54,0,0,0-1.48-.3,3.46,3.46,0,0,0-1.47.3,3.38,3.38,0,0,0-1.11.81,3.6,3.6,0,0,0-.71,1.2,4.45,4.45,0,0,0,0,2.94,3.61,3.61,0,0,0,.71,1.2,3.27,3.27,0,0,0,1.11.8,3.57,3.57,0,0,0,1.47.29,3.64,3.64,0,0,0,1.48-.29,3.25,3.25,0,0,0,1.12-.8,3.61,3.61,0,0,0,.71-1.2A4.3,4.3,0,0,0,671.72,125.55Z"/>
            <path class="sloans_lake-cls-5" d="M662.69,142.25l2.26,7.6h0l2.52-7.6h1.32l2.56,7.6h0l2.24-7.6H675l-3,9.36h-1.48l-2.5-7.58h0l-2.46,7.58h-1.48l-2.86-9.36Z"/>
            <path class="sloans_lake-cls-5" d="M672.77,168v.3a3,3,0,0,1,0,.34H665a3.63,3.63,0,0,0,.28,1.32A3.33,3.33,0,0,0,666,171a3.47,3.47,0,0,0,1.08.73,3.57,3.57,0,0,0,3.17-.22,3.66,3.66,0,0,0,1.17-1.13l1,.8a5.08,5.08,0,0,1-1.85,1.52,5.17,5.17,0,0,1-2.17.46,5,5,0,0,1-1.93-.37,4.52,4.52,0,0,1-1.53-1,4.86,4.86,0,0,1-1-1.56,5.1,5.1,0,0,1-.37-2,5.22,5.22,0,0,1,.36-2,4.72,4.72,0,0,1,1-1.56,4.59,4.59,0,0,1,1.5-1,4.66,4.66,0,0,1,1.86-.37,4.79,4.79,0,0,1,1.94.37,4,4,0,0,1,1.4,1,4.31,4.31,0,0,1,.85,1.47A5.5,5.5,0,0,1,672.77,168Zm-1.38-.44a3.38,3.38,0,0,0-.85-2.19,2.88,2.88,0,0,0-2.25-.87,3.14,3.14,0,0,0-1.26.25,3.36,3.36,0,0,0-1.72,1.66,3.16,3.16,0,0,0-.3,1.15Z"/>
            <path class="sloans_lake-cls-5" d="M668.85,194.31h-1.36V179.19h1.36Z"/>
            <path class="sloans_lake-cls-5" d="M668.85,215.67h-1.36V200.55h1.36Z"/>
            <path class="sloans_lake-cls-5" d="M663.69,235.59h4.22a8,8,0,0,1,1.62.17,4.41,4.41,0,0,1,1.47.58,3.2,3.2,0,0,1,1.06,1.11,3.44,3.44,0,0,1,.41,1.76,3,3,0,0,1-.68,2A3.21,3.21,0,0,1,670,242.3h0a3.73,3.73,0,0,1,2.29,1.07,3.34,3.34,0,0,1,.91,2.47,3.47,3.47,0,0,1-1.42,2.85,5,5,0,0,1-1.66.79,7.94,7.94,0,0,1-2.2.28h-4.19Zm1.44,6.2H668a4.73,4.73,0,0,0,1-.12,2.93,2.93,0,0,0,1-.41,2.21,2.21,0,0,0,.71-.77,2.38,2.38,0,0,0,.27-1.18,2.28,2.28,0,0,0-.27-1.15,2.25,2.25,0,0,0-.73-.77,3.16,3.16,0,0,0-1.08-.43,6.4,6.4,0,0,0-1.32-.13h-2.5Zm0,6.72h2.68a7.23,7.23,0,0,0,1.49-.15,3.85,3.85,0,0,0,1.24-.48,2.57,2.57,0,0,0,.85-.86,2.74,2.74,0,0,0-.63-3.36,4.52,4.52,0,0,0-2.69-.69h-2.94Z"/>
            <path class="sloans_lake-cls-5" d="M668.85,271.11h-1.36V256h1.36Z"/>
            <path class="sloans_lake-cls-5" d="M668.93,292.47h-1.5l-3.82-9.36h1.52l3,7.92h0l3.06-7.92h1.46Z"/>
            <path class="sloans_lake-cls-5" d="M671.3,312.25a3.85,3.85,0,0,1-1.56,1.36,4.54,4.54,0,0,1-2,.46,5,5,0,0,1-2-.38,4.55,4.55,0,0,1-1.52-1,4.7,4.7,0,0,1-1-1.56,5.56,5.56,0,0,1,0-3.88,4.7,4.7,0,0,1,1-1.56,4.52,4.52,0,0,1,1.52-1,5,5,0,0,1,2-.38,4.46,4.46,0,0,1,2,.47,3.87,3.87,0,0,1,1.56,1.39h0v-7.38h1.36v15.12H671.3Zm-6.94-3.1a4.44,4.44,0,0,0,.24,1.47,3.56,3.56,0,0,0,.69,1.2,3.15,3.15,0,0,0,1.11.8,3.7,3.7,0,0,0,1.5.29,3.51,3.51,0,0,0,3.33-2.27,4.24,4.24,0,0,0,0-3,3.68,3.68,0,0,0-.75-1.2,3.45,3.45,0,0,0-1.14-.8,3.54,3.54,0,0,0-1.44-.29,3.59,3.59,0,0,0-1.5.3,3.25,3.25,0,0,0-1.11.81,3.56,3.56,0,0,0-.69,1.2A4.44,4.44,0,0,0,664.36,309.15Z"/>
          </g>
          <g>
            <path class="sloans_lake-cls-5" d="M504.25,96.25h4a7.75,7.75,0,0,1,2,.23,4.33,4.33,0,0,1,1.51.7,3.16,3.16,0,0,1,1,1.18,3.83,3.83,0,0,1,.34,1.67,3.74,3.74,0,0,1-.35,1.67,3.23,3.23,0,0,1-1,1.18,4.45,4.45,0,0,1-1.52.71,7.55,7.55,0,0,1-2,.24h-2.52v6.58h-1.46Zm1.44,6.36h2.44a4.25,4.25,0,0,0,2.58-.66,2.25,2.25,0,0,0,.88-1.92,2.15,2.15,0,0,0-.91-1.93,4.54,4.54,0,0,0-2.55-.61h-2.44Z"/>
            <path class="sloans_lake-cls-5" d="M512.78,126.82v.3a3,3,0,0,1,0,.34H505a3.63,3.63,0,0,0,.28,1.32,3.33,3.33,0,0,0,.72,1.08,3.47,3.47,0,0,0,1.08.73,3.57,3.57,0,0,0,3.17-.22,3.66,3.66,0,0,0,1.17-1.13l1,.8a5.08,5.08,0,0,1-1.85,1.52,5.17,5.17,0,0,1-2.17.46,5,5,0,0,1-1.93-.37,4.52,4.52,0,0,1-1.53-1,4.86,4.86,0,0,1-1-1.56,5.1,5.1,0,0,1-.37-2,5.22,5.22,0,0,1,.36-2,4.72,4.72,0,0,1,1-1.56,4.59,4.59,0,0,1,1.5-1,4.66,4.66,0,0,1,1.86-.37,4.79,4.79,0,0,1,1.94.37,4,4,0,0,1,1.4,1,4.31,4.31,0,0,1,.85,1.47A5.5,5.5,0,0,1,512.78,126.82Zm-1.38-.44a3.38,3.38,0,0,0-.85-2.19,2.88,2.88,0,0,0-2.25-.87,3.14,3.14,0,0,0-1.26.25,3.36,3.36,0,0,0-1.72,1.66,3.16,3.16,0,0,0-.3,1.15Z"/>
            <path class="sloans_lake-cls-5" d="M506.36,144.85a8.77,8.77,0,0,0-.06-1.08h1.3a4.25,4.25,0,0,0,.06.84,3.18,3.18,0,0,1,0,.76h0a3.24,3.24,0,0,1,1.2-1.33,3.28,3.28,0,0,1,1.8-.51h.47a2.59,2.59,0,0,1,.43.08l-.18,1.3a2.69,2.69,0,0,0-.4-.08,4,4,0,0,0-.56,0,2.76,2.76,0,0,0-1,.2,2.23,2.23,0,0,0-.87.63,3.31,3.31,0,0,0-.6,1.1,5,5,0,0,0-.23,1.61v4.79h-1.36v-7.3Q506.38,145.46,506.36,144.85Z"/>
            <path class="sloans_lake-cls-5" d="M506.36,166.25a8.77,8.77,0,0,0-.06-1.08h1.3a4.25,4.25,0,0,0,.06.84,3.18,3.18,0,0,1,0,.76h0a3.24,3.24,0,0,1,1.2-1.33,3.28,3.28,0,0,1,1.8-.51h.47a2.59,2.59,0,0,1,.43.08l-.18,1.3a2.69,2.69,0,0,0-.4-.08,4,4,0,0,0-.56,0,2.76,2.76,0,0,0-1,.2,2.23,2.23,0,0,0-.87.63,3.31,3.31,0,0,0-.6,1.1,5,5,0,0,0-.23,1.61v4.79h-1.36v-7.3Q506.38,166.82,506.36,166.25Z"/>
            <path class="sloans_lake-cls-5" d="M508.32,194.4h0l2.9-7.9h1.48l-4.62,11.75A5,5,0,0,1,507,200a2.53,2.53,0,0,1-1.87.65,6.19,6.19,0,0,1-1.22-.12l.14-1.24a3.15,3.15,0,0,0,1,.16,1.43,1.43,0,0,0,1.1-.43,3.71,3.71,0,0,0,.7-1.23l.76-2-4-9.34h1.52Z"/>
            <path class="sloans_lake-cls-5" d="M511.25,218.05a3.45,3.45,0,0,0-1.18-1,3.61,3.61,0,0,0-1.74-.39,3.73,3.73,0,0,0-1.06.16,3.07,3.07,0,0,0-1,.49,2.52,2.52,0,0,0-.71.83,2.45,2.45,0,0,0-.27,1.18,2.19,2.19,0,0,0,.26,1.12,2.47,2.47,0,0,0,.69.75,4,4,0,0,0,1,.51l1.15.4q.74.24,1.49.52a5.36,5.36,0,0,1,1.35.73,3.54,3.54,0,0,1,1,1.14,3.6,3.6,0,0,1,.38,1.75,3.89,3.89,0,0,1-.4,1.83,3.83,3.83,0,0,1-1,1.27,4.35,4.35,0,0,1-1.48.74,6,6,0,0,1-1.67.24,6.47,6.47,0,0,1-1.28-.13,5.83,5.83,0,0,1-1.22-.39,4.93,4.93,0,0,1-1.08-.66,4.79,4.79,0,0,1-.88-.92l1.24-.92a3.8,3.8,0,0,0,1.29,1.27,3.65,3.65,0,0,0,2,.51,3.78,3.78,0,0,0,1.1-.17,3.09,3.09,0,0,0,1-.52,2.87,2.87,0,0,0,.74-.86,2.67,2.67,0,0,0,0-2.42,2.57,2.57,0,0,0-.77-.82,4.71,4.71,0,0,0-1.1-.55l-1.3-.44q-.7-.22-1.38-.5a4.66,4.66,0,0,1-1.22-.73,3.42,3.42,0,0,1-.87-1.11,4.06,4.06,0,0,1,.08-3.38,3.71,3.71,0,0,1,1.07-1.22,4.48,4.48,0,0,1,1.46-.7,6,6,0,0,1,1.58-.22A5.45,5.45,0,0,1,511,216a4.22,4.22,0,0,1,1.54,1.21Z"/>
            <path class="sloans_lake-cls-5" d="M511,243.08h-2.64v5.46a3.07,3.07,0,0,0,.1.86,1.22,1.22,0,0,0,.29.53,1,1,0,0,0,.45.26,2.14,2.14,0,0,0,.56.07,2.35,2.35,0,0,0,.59-.08A2.93,2.93,0,0,0,511,250l.06,1.18a4,4,0,0,1-.75.21,4.79,4.79,0,0,1-.85.07,3.42,3.42,0,0,1-.8-.1,2,2,0,0,1-.78-.38,2.07,2.07,0,0,1-.59-.76,2.94,2.94,0,0,1-.23-1.26v-5.84h-1.94v-1.14H507v-2.69h1.36v2.64H511Z"/>
          </g>
          <g>
            <path class="sloans_lake-cls-5" d="M340.41,21.38H339V8.5h-4.72V7.25h10.9V8.5h-4.74Z"/>
            <path class="sloans_lake-cls-5" d="M344.25,37.78v.3a3,3,0,0,1,0,.34h-7.76a3.63,3.63,0,0,0,.28,1.32,3.33,3.33,0,0,0,.72,1.08,3.47,3.47,0,0,0,1.08.73,3.57,3.57,0,0,0,3.17-.22,3.66,3.66,0,0,0,1.17-1.13l1,.8a5.08,5.08,0,0,1-1.85,1.52,5.17,5.17,0,0,1-2.17.46,5,5,0,0,1-1.93-.37,4.52,4.52,0,0,1-1.53-1,4.86,4.86,0,0,1-1-1.56,5.1,5.1,0,0,1-.37-2,5.22,5.22,0,0,1,.36-2,4.72,4.72,0,0,1,1-1.56,4.59,4.59,0,0,1,1.5-1,4.66,4.66,0,0,1,1.86-.37,4.79,4.79,0,0,1,1.94.37,4,4,0,0,1,1.4,1A4.31,4.31,0,0,1,344,36,5.5,5.5,0,0,1,344.25,37.78Zm-1.38-.44a3.38,3.38,0,0,0-.85-2.19,2.88,2.88,0,0,0-2.25-.87,3.14,3.14,0,0,0-1.26.25,3.36,3.36,0,0,0-1.72,1.66,3.16,3.16,0,0,0-.3,1.15Z"/>
            <path class="sloans_lake-cls-5" d="M336.9,54.74a4.25,4.25,0,0,0,.06.84,3.18,3.18,0,0,1,0,.76h0a3.08,3.08,0,0,1,1.3-1.33,3.79,3.79,0,0,1,1.9-.51,3.29,3.29,0,0,1,2.67,1.06,4.21,4.21,0,0,1,.89,2.8V64.1h-1.36V58.92a6.85,6.85,0,0,0-.12-1.34,2.81,2.81,0,0,0-.41-1,2,2,0,0,0-.78-.67,2.79,2.79,0,0,0-1.23-.24,2.63,2.63,0,0,0-1,.22,2.59,2.59,0,0,0-.91.67,3.35,3.35,0,0,0-.64,1.14,5,5,0,0,0-.24,1.63v4.8h-1.36v-8.3a8.47,8.47,0,0,0-.06-1.08Z"/>
            <path class="sloans_lake-cls-5" d="M336.9,76.1a4.25,4.25,0,0,0,.06.84,3.18,3.18,0,0,1,0,.76h0a3.08,3.08,0,0,1,1.3-1.33,3.79,3.79,0,0,1,1.9-.51,3.29,3.29,0,0,1,2.67,1.06,4.21,4.21,0,0,1,.89,2.8v5.74h-1.36V80.25a6.85,6.85,0,0,0-.12-1.34,2.81,2.81,0,0,0-.41-1,2,2,0,0,0-.78-.67,2.79,2.79,0,0,0-1.23-.24,2.63,2.63,0,0,0-1,.22,2.59,2.59,0,0,0-.91.67,3.35,3.35,0,0,0-.64,1.14,5,5,0,0,0-.24,1.63v4.8h-1.36v-8.3a8.47,8.47,0,0,0-.06-1.08Z"/>
            <path class="sloans_lake-cls-5" d="M339.83,105.36h0l2.9-7.9h1.52l-4.66,11.79a5,5,0,0,1-1.07,1.73,2.53,2.53,0,0,1-1.87.65,6.19,6.19,0,0,1-1.22-.12l.14-1.24a3.15,3.15,0,0,0,1,.16,1.43,1.43,0,0,0,1.1-.43,3.71,3.71,0,0,0,.7-1.23l.76-2-4-9.34h1.52Z"/>
            <path class="sloans_lake-cls-5" d="M342,121a2.4,2.4,0,0,0-.91-1,2.62,2.62,0,0,0-1.39-.37,3.29,3.29,0,0,0-.72.08,2,2,0,0,0-.64.26,1.42,1.42,0,0,0-.45.46,1.25,1.25,0,0,0-.17.66,1.13,1.13,0,0,0,.54,1,5.17,5.17,0,0,0,1.7.59,5.7,5.7,0,0,1,2.45,1,2.15,2.15,0,0,1,.79,1.75,2.59,2.59,0,0,1-1.12,2.25,3.27,3.27,0,0,1-1.13.5,5.44,5.44,0,0,1-1.27.15,5.07,5.07,0,0,1-2.06-.44,3.81,3.81,0,0,1-1.64-1.38l1.08-.8a3.06,3.06,0,0,0,2.6,1.46,4.25,4.25,0,0,0,.84-.08,1.91,1.91,0,0,0,.7-.28,1.53,1.53,0,0,0,.48-.51,1.51,1.51,0,0,0,.18-.77,1.19,1.19,0,0,0-.71-1.11,9.27,9.27,0,0,0-2-.69q-.42-.1-.89-.25a3,3,0,0,1-.87-.44,2.38,2.38,0,0,1-.66-.73,2.13,2.13,0,0,1-.26-1.1,2.52,2.52,0,0,1,.28-1.23,2.45,2.45,0,0,1,.75-.84,3.36,3.36,0,0,1,1.07-.49,4.8,4.8,0,0,1,1.24-.16,4.36,4.36,0,0,1,1.9.44,3.08,3.08,0,0,1,1.38,1.24Z"/>
            <path class="sloans_lake-cls-5" d="M344.68,144.86a5.12,5.12,0,0,1-.37,2,4.73,4.73,0,0,1-1,1.56,4.67,4.67,0,0,1-1.58,1,5.38,5.38,0,0,1-2,.37,5.32,5.32,0,0,1-2-.37,4.62,4.62,0,0,1-2.61-2.59,5.37,5.37,0,0,1,0-3.92,4.61,4.61,0,0,1,2.61-2.59,5.32,5.32,0,0,1,2-.37,5.38,5.38,0,0,1,2,.37,4.62,4.62,0,0,1,2.61,2.59A5.11,5.11,0,0,1,344.68,144.86Zm-1.44,0a4.3,4.3,0,0,0-.25-1.47,3.6,3.6,0,0,0-.71-1.2,3.36,3.36,0,0,0-1.12-.81,3.54,3.54,0,0,0-1.48-.3,3.46,3.46,0,0,0-1.47.3,3.38,3.38,0,0,0-1.11.81,3.6,3.6,0,0,0-.71,1.2,4.45,4.45,0,0,0,0,2.94,3.61,3.61,0,0,0,.71,1.2,3.27,3.27,0,0,0,1.11.8,3.57,3.57,0,0,0,1.47.29,3.64,3.64,0,0,0,1.48-.29,3.25,3.25,0,0,0,1.12-.8,3.61,3.61,0,0,0,.71-1.2,4.3,4.3,0,0,0,.26-1.47Z"/>
            <path class="sloans_lake-cls-5" d="M336.9,161.54a4.25,4.25,0,0,0,.06.84,3.18,3.18,0,0,1,0,.76h0a3.08,3.08,0,0,1,1.3-1.33,3.79,3.79,0,0,1,2-.56,3.29,3.29,0,0,1,2.67,1.06,4.21,4.21,0,0,1,.89,2.8v5.74h-1.36v-5.18a6.85,6.85,0,0,0-.12-1.34,2.81,2.81,0,0,0-.41-1,2,2,0,0,0-.78-.67,2.79,2.79,0,0,0-1.23-.24,2.63,2.63,0,0,0-1,.22,2.59,2.59,0,0,0-.91.67,3.35,3.35,0,0,0-.64,1.14,5,5,0,0,0-.24,1.63v4.8h-1.36v-8.3a8.47,8.47,0,0,0-.06-1.08Z"/>
            <path class="sloans_lake-cls-5" d="M342.79,193.1a3.45,3.45,0,0,0-1.18-1,3.61,3.61,0,0,0-1.74-.39,3.73,3.73,0,0,0-1.06.16,3.07,3.07,0,0,0-1,.49,2.52,2.52,0,0,0-.71.83,2.45,2.45,0,0,0-.27,1.18,2.19,2.19,0,0,0,.26,1.12,2.47,2.47,0,0,0,.69.75,4,4,0,0,0,1,.51l1.15.4q.74.24,1.49.52a5.36,5.36,0,0,1,1.35.73,3.54,3.54,0,0,1,1,1.14,3.6,3.6,0,0,1,.38,1.75,3.89,3.89,0,0,1-.4,1.83,3.83,3.83,0,0,1-1,1.27,4.35,4.35,0,0,1-1.48.74,6,6,0,0,1-1.67.24,6.47,6.47,0,0,1-1.35-.12,5.83,5.83,0,0,1-1.22-.39,4.93,4.93,0,0,1-1.08-.66,4.79,4.79,0,0,1-.88-.92l1.24-.92a3.8,3.8,0,0,0,1.29,1.27,3.65,3.65,0,0,0,2,.51,3.78,3.78,0,0,0,1.1-.17,3.09,3.09,0,0,0,1-.52,2.87,2.87,0,0,0,.74-.86,2.67,2.67,0,0,0,0-2.42,2.57,2.57,0,0,0-.77-.82,4.71,4.71,0,0,0-1.1-.55l-1.3-.44q-.7-.22-1.38-.5a4.66,4.66,0,0,1-1.22-.73,3.42,3.42,0,0,1-.87-1.11,4.06,4.06,0,0,1,.08-3.38,3.71,3.71,0,0,1,1.07-1.22,4.48,4.48,0,0,1,1.46-.7,6,6,0,0,1,1.58-.22,5.45,5.45,0,0,1,2.46.51,4.22,4.22,0,0,1,1.54,1.21Z"/>
            <path class="sloans_lake-cls-5" d="M342.54,218.12H339.9v5.46a3.07,3.07,0,0,0,.1.86,1.22,1.22,0,0,0,.29.53,1,1,0,0,0,.45.26,2.14,2.14,0,0,0,.56.07,2.35,2.35,0,0,0,.59-.08,2.93,2.93,0,0,0,.59-.22l.06,1.18a4,4,0,0,1-.75.21,4.79,4.79,0,0,1-.85.07,3.42,3.42,0,0,1-.8-.1,2,2,0,0,1-.78-.38,2.07,2.07,0,0,1-.59-.76,2.94,2.94,0,0,1-.23-1.26v-5.84H336.6V217h1.94v-2.64h1.36V217h2.64Z"/>
          </g>
        </g>
      </g>
    </g>
    <g id="landmarks">
      <image id="34" width="256" height="256" transform="translate(198.78 628.27) scale(0.33 0.32)" xlink:href="/assets/maps/denvericons/020-condo.png" ng-click="$ctrl.getLandmark(34)"/>

      <image id="33" width="256" height="256" transform="translate(181.38 416.41) scale(0.25 0.26)" xlink:href="/assets/maps/denvericons/018-rowing.png" ng-click="$ctrl.getLandmark(33)"/>
    </g>
  </g>
</svg>
