<svg xmlns="http://www.w3.org/2000/svg" xmlns:xlink="http://www.w3.org/1999/xlink" viewBox="0 0 984.5 435.68">
  <defs>
    <style>
      .cls-1 {
        fill: #ff7378;
      }

      .cls-1, .cls-3, .cls-4 {
        stroke: #000;
        stroke-miterlimit: 10;
        stroke-width: 0.5px;
      }

      .cls-2 {
        fill: none;
      }

      .cls-3 {
        fill: #ffd5d5;
      }

      .cls-4 {
        fill: #769e6c;
      }

      .cls-5 {
        fill: #5d5f60;
      }
    </style>
  </defs>
  <title>west_highland_final</title>
  <g id="Layer_2" data-name="Layer 2">
    <g id="neighborhoods">
      <g id="westhighland">
        <g id="westhighland-2" data-name="westhighland">
          <polygon class="cls-1" points="161.44 147.82 0.25 147.82 0.25 0.25 160.32 0.25 160.89 76.5 161.44 147.82"/>
          <polygon class="cls-1" points="162.48 286.73 0.25 286.73 0.25 147.82 161.44 147.82 161.95 216.16 93.54 216.16 93.54 251.44 161.95 251.44 161.95 216.53 162.48 286.73"/>
          <polygon class="cls-1" points="163.6 435.14 0.25 435.43 0.25 286.73 162.48 286.73 163.6 435.14"/>
          <polygon class="cls-1" points="324.66 434.88 163.6 435.14 162.48 286.73 324.2 286.73 324.66 434.88"/>
          <rect class="cls-2" x="93.54" y="216.16" width="68.41" height="35.28"/>
          <polygon class="cls-1" points="484.61 147.82 323.79 147.82 323.34 0.25 484.39 0.25 484.61 147.82"/>
          <polygon class="cls-1" points="323.79 147.82 161.44 147.82 160.89 76.5 160.32 0.25 323.34 0.25 323.79 147.82"/>
          <polygon class="cls-1" points="644.37 147.82 484.61 147.82 484.39 0.25 643.48 0.25 644.37 147.82"/>
          <polygon class="cls-1" points="485.04 434.61 324.66 434.88 324.2 286.73 484.83 286.73 485.04 434.61"/>
          <polygon class="cls-1" points="646.1 434.32 485.04 434.61 484.83 286.73 582.6 286.73 582.6 301.85 645.29 301.85 646.1 434.32"/>
          <polygon class="cls-1" points="804.54 286.73 804.54 434.05 646.1 434.32 645.29 301.85 729.9 301.85 729.9 286.73 804.54 286.73"/>
          <polygon class="cls-1" points="984.25 366.25 984.25 433.75 804.54 434.05 804.54 286.73 847.75 286.73 888.99 318.65 922.38 330.42 938.47 339.74 984.25 366.25"/>
          <rect class="cls-3" x="582.6" y="266.57" width="147.31" height="35.28"/>
          <polygon class="cls-1" points="807.15 0.25 805.6 147.82 644.37 147.82 643.48 0.25 807.15 0.25"/>
          <polygon class="cls-1" points="984.25 0.25 984.25 147.82 805.6 147.82 807.15 0.25 984.25 0.25"/>
          <rect class="cls-1" x="887.03" y="147.82" width="97.22" height="38.09"/>
          <polygon class="cls-1" points="984.25 185.92 984.25 243.04 940.06 232.96 918.45 221.2 887.03 217.84 887.03 185.92 984.25 185.92"/>
          <polygon class="cls-1" points="887.03 185.92 887.03 214.06 818.93 185.92 887.03 185.92"/>
          <polygon class="cls-1" points="984.25 290.09 984.25 366.25 938.47 339.74 938.09 313.61 896.85 298.49 885.06 291.77 864.66 274.13 885.06 261.53 912.56 283.37 936.13 290.09 984.25 290.09"/>
          <path class="cls-4" d="M984.25,243v47h-44a29.41,29.41,0,0,1-8.05-1.12l-13.41-3.82a31.8,31.8,0,0,1-11.06-5.61l-22.68-18-7.86-15.12v-7a25.28,25.28,0,0,1,5-14.95l4.81-6.58,26.58,2.84a24.17,24.17,0,0,1,9,2.76l14.17,7.71a27.8,27.8,0,0,0,7.11,2.67Z"/>
          <polygon class="cls-1" points="324.2 286.73 162.48 286.73 161.95 216.53 161.95 216.16 161.44 147.82 323.79 147.82 324.2 286.73"/>
          <polygon class="cls-1" points="484.83 286.73 324.2 286.73 323.79 147.82 484.61 147.82 484.83 286.73"/>
          <polygon class="cls-1" points="847.75 286.73 729.9 286.73 729.9 266.57 645.07 266.57 644.37 147.82 805.6 147.82 805.19 185.92 804.91 213.34 804.54 248.08 830.52 271.32 846.31 285.45 847.75 286.73"/>
          <polygon class="cls-1" points="645.07 266.57 582.6 266.57 582.6 286.73 484.83 286.73 484.61 147.82 644.37 147.82 645.07 266.57"/>
          <polyline class="cls-2" points="729.9 286.73 645.21 286.73 582.6 286.73"/>
          <line class="cls-2" x1="163.6" y1="435.43" x2="163.6" y2="435.14"/>
          <line class="cls-2" x1="324.66" y1="435.43" x2="324.66" y2="434.88"/>
          <line class="cls-2" x1="646.1" y1="435.43" x2="646.1" y2="434.32"/>
          <polyline class="cls-2" points="645.29 301.85 645.21 286.73 645.07 266.57"/>
          <line class="cls-2" x1="804.54" y1="434.61" x2="804.54" y2="434.05"/>
          <path class="cls-1" d="M877.21,235.15V246.4l7.86,15.12-20.41,12.6-18.34,11.32-15.79-14.13,44.72-24.92-70.33-33.07.27-27.42h13.75L887,214.06v3.78L879.61,228A12.1,12.1,0,0,0,877.21,235.15Z"/>
          <polygon class="cls-1" points="938.47 339.74 922.38 330.42 888.99 318.65 847.75 286.73 846.31 285.45 864.66 274.13 885.06 291.77 896.85 298.49 938.09 313.61 938.47 339.74"/>
          <polygon class="cls-1" points="875.24 246.4 830.52 271.32 804.54 248.08 804.91 213.34 875.24 246.4"/>
          <line class="cls-2" x1="830.52" y1="271.32" x2="829.3" y2="271.99"/>
          <line class="cls-2" x1="804.91" y1="213.34" x2="802.57" y2="212.24"/>
          <polygon class="cls-1" points="887.03 147.82 887.03 185.92 805.19 185.92 805.6 147.82 887.03 147.82"/>
          <line class="cls-2" x1="805.19" y1="185.92" x2="804.54" y2="185.92"/>
          <line class="cls-2" x1="582.6" y1="266.57" x2="580.63" y2="266.57"/>
          <rect class="cls-4" x="93.54" y="216.16" width="68.41" height="35.28"/>
          <polygon class="cls-2" points="287.99 36.38 287.99 76.7 160.89 76.5 160.89 36.38 287.99 36.38"/>
          <rect class="cls-3" x="161.44" y="36.37" width="126.55" height="40.33"/>
          <g>
            <path class="cls-5" d="M17.32,33.2a4,4,0,0,0-1.36-1,4.86,4.86,0,0,0-2-.39,5.06,5.06,0,0,0-1.26.17,3.89,3.89,0,0,0-1.16.49,2.7,2.7,0,0,0-.84.84,2.18,2.18,0,0,0-.31,1.19,2,2,0,0,0,.31,1.13,2.7,2.7,0,0,0,.81.76,5,5,0,0,0,1.16.52l1.3.34,1.75.52a6.68,6.68,0,0,1,1.59.74,3.78,3.78,0,0,1,1.16,1.14,3.21,3.21,0,0,1,.45,1.76,3.45,3.45,0,0,1-.47,1.85,4.06,4.06,0,0,1-1.24,1.28,5.49,5.49,0,0,1-1.73.74,8.15,8.15,0,0,1-2,.24A8.85,8.85,0,0,1,12,45.41,7.7,7.7,0,0,1,10.6,45a6.14,6.14,0,0,1-1.28-.67,5.43,5.43,0,0,1-1.22-.94l1.45-.92a4.23,4.23,0,0,0,1.51,1.28,4.87,4.87,0,0,0,2.3.52,5.16,5.16,0,0,0,1.3-.17,3.92,3.92,0,0,0,1.3-.54,3.06,3.06,0,0,0,.86-.87,2.35,2.35,0,0,0,0-2.44,2.81,2.81,0,0,0-.86-.82,6,6,0,0,0-1.32-.55l-1.53-.44c-.55-.15-1.1-.32-1.63-.5a5.75,5.75,0,0,1-1.41-.74,3.61,3.61,0,0,1-1-1.13,3.56,3.56,0,0,1,0-3.36,4,4,0,0,1,1.26-1.23A5.68,5.68,0,0,1,12,30.76a8.08,8.08,0,0,1,2-.27,7.36,7.36,0,0,1,2.91.52,4.92,4.92,0,0,1,1.81,1.23Z"/>
            <path class="cls-5" d="M10.62,58.82A3.07,3.07,0,0,1,12,57.51,5.17,5.17,0,0,1,14.25,57,4.29,4.29,0,0,1,17.4,58.1a3.84,3.84,0,0,1,1,2.82V66.7H16.91V61.48a6,6,0,0,0-.14-1.34,2.59,2.59,0,0,0-.47-1.08,2.26,2.26,0,0,0-.92-.67,3.8,3.8,0,0,0-1.37-.2,3.56,3.56,0,0,0-1.24.22,3.05,3.05,0,0,0-1.08.67,3.26,3.26,0,0,0-.75,1.14,4.37,4.37,0,0,0-.27,1.68v4.84H9V51.46h1.61v7.36Z"/>
            <path class="cls-5" d="M19.09,83.24v.3a2.75,2.75,0,0,1,0,.34H9.93a3.22,3.22,0,0,0,.33,1.33,3.37,3.37,0,0,0,.84,1.09,4.18,4.18,0,0,0,1.28.74,4.84,4.84,0,0,0,3.73-.22,4.09,4.09,0,0,0,1.37-1.14l1.2.81A5.8,5.8,0,0,1,16.51,88a7,7,0,0,1-2.55.47,6.77,6.77,0,0,1-2.28-.37,5.45,5.45,0,0,1-1.81-1,4.94,4.94,0,0,1-1.2-1.58,4.51,4.51,0,0,1-.43-2,4.63,4.63,0,0,1,.43-2,4.75,4.75,0,0,1,1.18-1.58,5.53,5.53,0,0,1,1.77-1,6.29,6.29,0,0,1,2.2-.37,6.46,6.46,0,0,1,2.28.37,4.77,4.77,0,0,1,1.65,1,4.22,4.22,0,0,1,1,1.48A4.79,4.79,0,0,1,19.09,83.24Zm-1.63-.44a3.11,3.11,0,0,0-1-2.2,3.73,3.73,0,0,0-2.65-.87,4.26,4.26,0,0,0-1.49.25,4,4,0,0,0-1.2.69,3.42,3.42,0,0,0-.82,1,2.83,2.83,0,0,0-.35,1.16Z"/>
            <path class="cls-5" d="M11.52,101.43v-1.09h1.53V102h0a4,4,0,0,1,3.54-1.85h1.06l-.22,1.31H16.3a3.77,3.77,0,0,0-1.22.2,2.65,2.65,0,0,0-1,.64,3.25,3.25,0,0,0-.71,1.11,4.37,4.37,0,0,0-.27,1.68v4.82H11.54v-7.44Q11.54,102,11.52,101.43Z"/>
            <path class="cls-5" d="M14.8,118.25a.85.85,0,0,1-.35.69,1.26,1.26,0,0,1-1.55,0,.86.86,0,0,1,0-1.35l0,0a1.26,1.26,0,0,1,1.55,0A.84.84,0,0,1,14.8,118.25Zm-.33,13.06H12.86v-9.44h1.61Z"/>
            <path class="cls-5" d="M17.36,151.25a4.38,4.38,0,0,1-1.85,1.38,6.06,6.06,0,0,1-2.32.52,6.77,6.77,0,0,1-2.34-.39,5.46,5.46,0,0,1-1.79-1,4.7,4.7,0,0,1-1.16-1.58,4.84,4.84,0,0,1,0-3.91,4.7,4.7,0,0,1,1.16-1.58,5.5,5.5,0,0,1,1.79-1,6.77,6.77,0,0,1,2.34-.39,6,6,0,0,1,2.34.47,4.41,4.41,0,0,1,1.85,1.39h0v-7.48H19v15.24H17.4v-1.6Zm-8.17-3.14a3.91,3.91,0,0,0,.27,1.48,3.52,3.52,0,0,0,.81,1.21,3.75,3.75,0,0,0,1.32.81,5,5,0,0,0,1.77.29,4.19,4.19,0,0,0,3.93-2.29,3.65,3.65,0,0,0-.88-4.22,4.13,4.13,0,0,0-1.34-.81,4.8,4.8,0,0,0-1.69-.29,4.85,4.85,0,0,0-1.77.3,4,4,0,0,0-1.32.82,3.52,3.52,0,0,0-.81,1.21A3.91,3.91,0,0,0,9.19,148.11Z"/>
            <path class="cls-5" d="M16.45,168.27a2.17,2.17,0,0,0-.75-1.81,3.48,3.48,0,0,0-2.2-.6,5.44,5.44,0,0,0-1.85.3,4.54,4.54,0,0,0-1.43.81l-.9-.91a5.47,5.47,0,0,1,1.81-1,7.8,7.8,0,0,1,2.53-.39,6.34,6.34,0,0,1,1.67.22,4.17,4.17,0,0,1,1.37.64,3,3,0,0,1,.92,1.08,3.28,3.28,0,0,1,.33,1.51v5.26a6.67,6.67,0,0,0,.14,1H16.71a1.7,1.7,0,0,0-.12-.74,6.51,6.51,0,0,1,0-.79h0a4.45,4.45,0,0,1-1.71,1.36,5.78,5.78,0,0,1-2.3.42,5.92,5.92,0,0,1-1.32-.15,3.92,3.92,0,0,1-1.22-.49,3,3,0,0,1-.92-.89,2.35,2.35,0,0,1-.37-1.33,2.31,2.31,0,0,1,.65-1.68,4,4,0,0,1,1.73-1,11.72,11.72,0,0,1,2.49-.4q1.39-.08,2.91-.08ZM16,169.67H14a10,10,0,0,0-1.81.29,3.63,3.63,0,0,0-1.34.62,1.28,1.28,0,0,0-.51,1.08,1.48,1.48,0,0,0,.22.84,1.69,1.69,0,0,0,.61.55,2.82,2.82,0,0,0,.84.3,4.8,4.8,0,0,0,.92.08,4.17,4.17,0,0,0,1.51-.25,3.22,3.22,0,0,0,1.1-.69,3,3,0,0,0,.69-1,3.06,3.06,0,0,0,.24-1.19v-.71Z"/>
            <path class="cls-5" d="M10.38,186.47v1.61h0A3.47,3.47,0,0,1,12,186.76a5.07,5.07,0,0,1,2.24-.52,4.29,4.29,0,0,1,3.14,1.08,3.85,3.85,0,0,1,1,2.82v5.78H16.89v-5.23a6,6,0,0,0-.14-1.34,2.61,2.61,0,0,0-.49-1,2.24,2.24,0,0,0-.92-.67,3.79,3.79,0,0,0-1.45-.24,3.56,3.56,0,0,0-1.24.22,3.05,3.05,0,0,0-1.08.67,3.26,3.26,0,0,0-.75,1.14,4.37,4.37,0,0,0-.27,1.68v4.84H9V186.5Z"/>
            <path class="cls-5" d="M8.4,216h5a11,11,0,0,1,2,.17,5.72,5.72,0,0,1,1.73.59,3.51,3.51,0,0,1,1.26,1.13,3.08,3.08,0,0,1,.49,1.78,2.75,2.75,0,0,1-.81,2,3.94,3.94,0,0,1-2.16,1.09h0a4.75,4.75,0,0,1,2.69,1.08,3.09,3.09,0,0,1,1.06,2.49,3.37,3.37,0,0,1-1.67,2.87,6.38,6.38,0,0,1-2,.79,10.87,10.87,0,0,1-2.59.29h-5Zm1.67,6.25h3.44a6.46,6.46,0,0,0,1.24-.12A3.79,3.79,0,0,0,16,221.7a2.38,2.38,0,0,0,.84-.77,2.12,2.12,0,0,0,.31-1.19,2,2,0,0,0-.31-1.16,2.47,2.47,0,0,0-.86-.77,4,4,0,0,0-1.28-.44,8.77,8.77,0,0,0-1.55-.13h-3Zm0,6.72h3.18a9.85,9.85,0,0,0,1.75-.15,5,5,0,0,0,1.45-.49,2.82,2.82,0,0,0,1-.87,2.49,2.49,0,0,0-.75-3.36,6,6,0,0,0-3.16-.69H10.07Z"/>
            <path class="cls-5" d="M19.56,247.08a4.51,4.51,0,0,1-.43,2,4.79,4.79,0,0,1-1.2,1.55,5.68,5.68,0,0,1-1.87,1,7.28,7.28,0,0,1-2.38.37,7.21,7.21,0,0,1-2.36-.37,5.68,5.68,0,0,1-1.87-1A4.78,4.78,0,0,1,8.24,249a4.7,4.7,0,0,1,0-3.95,4.78,4.78,0,0,1,1.22-1.58,5.68,5.68,0,0,1,1.87-1,7.21,7.21,0,0,1,2.36-.37,7.28,7.28,0,0,1,2.38.37,5.68,5.68,0,0,1,1.87,1,4.78,4.78,0,0,1,1.22,1.58A4.5,4.5,0,0,1,19.56,247.08Zm-1.69,0a3.78,3.78,0,0,0-.29-1.48,3.58,3.58,0,0,0-.84-1.21,4,4,0,0,0-1.32-.82,4.78,4.78,0,0,0-1.75-.3,4.68,4.68,0,0,0-1.73.3,4,4,0,0,0-1.32.82,3.58,3.58,0,0,0-.84,1.21,3.89,3.89,0,0,0,0,3,3.57,3.57,0,0,0,.84,1.21,4,4,0,0,0,1.32.81,4.83,4.83,0,0,0,1.73.29,4.92,4.92,0,0,0,1.75-.29,3.85,3.85,0,0,0,1.32-.81,3.57,3.57,0,0,0,.84-1.21,3.8,3.8,0,0,0,.35-1.48Z"/>
            <path class="cls-5" d="M17,273.34v-1.61h0a3.4,3.4,0,0,1-1.53,1.34,5,5,0,0,1-2.24.52,4.29,4.29,0,0,1-3.14-1.08,3.84,3.84,0,0,1-1-2.82v-5.78h1.61v5.18a6,6,0,0,0,.14,1.34,2.61,2.61,0,0,0,.49,1,2.24,2.24,0,0,0,.92.67,3.77,3.77,0,0,0,1.45.24,3.56,3.56,0,0,0,1.24-.22,3.07,3.07,0,0,0,1.08-.67,3.26,3.26,0,0,0,.75-1.14,4.37,4.37,0,0,0,.27-1.68v-4.84h1.61v9.44Z"/>
            <path class="cls-5" d="M14.47,294.86H12.86V279.62h1.61Z"/>
            <path class="cls-5" d="M19.09,311.4v.3a2.75,2.75,0,0,1,0,.34H9.93a3.22,3.22,0,0,0,.33,1.33,3.37,3.37,0,0,0,.84,1.09,4.18,4.18,0,0,0,1.28.74,4.84,4.84,0,0,0,3.73-.22,4.09,4.09,0,0,0,1.37-1.14l1.2.81a5.8,5.8,0,0,1-2.18,1.53,7,7,0,0,1-2.55.47,6.77,6.77,0,0,1-2.28-.37,5.45,5.45,0,0,1-1.81-1,4.94,4.94,0,0,1-1.2-1.58,4.51,4.51,0,0,1-.43-2,4.63,4.63,0,0,1,.43-2,4.75,4.75,0,0,1,1.18-1.58,5.53,5.53,0,0,1,1.77-1,6.29,6.29,0,0,1,2.2-.37,6.46,6.46,0,0,1,2.28.37,4.77,4.77,0,0,1,1.65,1,4.22,4.22,0,0,1,1,1.48A4.79,4.79,0,0,1,19.09,311.4ZM17.46,311a3.11,3.11,0,0,0-1-2.2,3.73,3.73,0,0,0-2.65-.87,4.26,4.26,0,0,0-1.49.25,4,4,0,0,0-1.2.69,3.42,3.42,0,0,0-.82,1A2.83,2.83,0,0,0,9.93,311Z"/>
            <path class="cls-5" d="M14.57,338H12.8L8.3,328.5h1.77l3.57,8h0l3.61-8H19Z"/>
            <path class="cls-5" d="M16.45,353.37a2.17,2.17,0,0,0-.75-1.81,3.48,3.48,0,0,0-2.2-.6,5.44,5.44,0,0,0-1.85.3,4.54,4.54,0,0,0-1.43.81l-.9-.91a5.47,5.47,0,0,1,1.81-1,7.78,7.78,0,0,1,2.53-.44,6.34,6.34,0,0,1,1.67.22,4.17,4.17,0,0,1,1.37.64,3,3,0,0,1,.92,1.08,3.28,3.28,0,0,1,.33,1.51v5.26a6.67,6.67,0,0,0,.14,1H16.71a1.7,1.7,0,0,0-.12-.74,6.51,6.51,0,0,1,0-.79h0a4.45,4.45,0,0,1-1.71,1.36,5.78,5.78,0,0,1-2.3.42,5.92,5.92,0,0,1-1.32-.15,3.92,3.92,0,0,1-1.22-.49,3,3,0,0,1-.92-.89,2.35,2.35,0,0,1-.37-1.33,2.31,2.31,0,0,1,.65-1.68,4,4,0,0,1,1.73-1,11.72,11.72,0,0,1,2.49-.4q1.39-.08,2.91-.08ZM16,354.78H14a10,10,0,0,0-1.81.29,3.63,3.63,0,0,0-1.34.62,1.28,1.28,0,0,0-.51,1.08,1.48,1.48,0,0,0,.22.84,1.69,1.69,0,0,0,.61.55,2.82,2.82,0,0,0,.84.3,4.8,4.8,0,0,0,.92.08,4.17,4.17,0,0,0,1.51-.25,3.22,3.22,0,0,0,1.1-.69,3,3,0,0,0,.69-1,3.06,3.06,0,0,0,.24-1.19v-.64Z"/>
            <path class="cls-5" d="M11.52,372.66v-1.09h1.53v1.61h0a4,4,0,0,1,3.54-1.85h1.06l-.22,1.31H16.3a3.77,3.77,0,0,0-1.22.2,2.65,2.65,0,0,0-1,.64,3.25,3.25,0,0,0-.71,1.11,4.37,4.37,0,0,0-.27,1.68v4.82H11.54v-7.36Q11.54,373.26,11.52,372.66Z"/>
            <path class="cls-5" d="M17.36,401a4.38,4.38,0,0,1-1.85,1.38,6.09,6.09,0,0,1-2.34.47,6.77,6.77,0,0,1-2.34-.39,5.46,5.46,0,0,1-1.79-1,4.7,4.7,0,0,1-1.16-1.58,4.84,4.84,0,0,1,0-3.91A4.7,4.7,0,0,1,9,394.3a5.5,5.5,0,0,1,1.79-1,6.77,6.77,0,0,1,2.34-.39,6,6,0,0,1,2.34.47,4.41,4.41,0,0,1,1.85,1.39h0v-7.44H19v15.24H17.4v-1.6Zm-8.17-3.13a3.91,3.91,0,0,0,.27,1.48,3.52,3.52,0,0,0,.81,1.21,3.75,3.75,0,0,0,1.32.81,5,5,0,0,0,1.77.29,4.19,4.19,0,0,0,3.93-2.29,3.65,3.65,0,0,0-.88-4.22,4.13,4.13,0,0,0-1.34-.81,4.8,4.8,0,0,0-1.69-.29,4.85,4.85,0,0,0-1.77.3,4,4,0,0,0-1.32.82,3.52,3.52,0,0,0-.81,1.21A3.91,3.91,0,0,0,9.19,397.83Z"/>
          </g>
          <g>
            <path class="cls-5" d="M962.88,54.82h-1.69V40.58h10.06v1.29h-8.37v4.94h7.86V48.1h-7.86Z"/>
            <path class="cls-5" d="M971,71.36v.3a2.76,2.76,0,0,1,0,.34h-9.15a3.22,3.22,0,0,0,.33,1.33,3.37,3.37,0,0,0,.84,1.09,4.18,4.18,0,0,0,1.28.74,4.84,4.84,0,0,0,3.73-.22,4.09,4.09,0,0,0,1.37-1.14l1.2.81a5.8,5.8,0,0,1-2.18,1.53,7,7,0,0,1-2.55.47,6.77,6.77,0,0,1-2.28-.37,5.45,5.45,0,0,1-1.81-1,4.94,4.94,0,0,1-1.2-1.58,4.51,4.51,0,0,1-.43-2,4.63,4.63,0,0,1,.43-2,4.75,4.75,0,0,1,1.18-1.58,5.53,5.53,0,0,1,1.77-1,6.29,6.29,0,0,1,2.2-.37A6.46,6.46,0,0,1,968,67a4.77,4.77,0,0,1,1.65,1,4.22,4.22,0,0,1,1,1.48A4.79,4.79,0,0,1,971,71.36Zm-1.63-.44a3.11,3.11,0,0,0-1-2.2,3.73,3.73,0,0,0-2.65-.87,4.26,4.26,0,0,0-1.49.25,4,4,0,0,0-1.2.69,3.42,3.42,0,0,0-.82,1,2.83,2.83,0,0,0-.35,1.16Z"/>
            <path class="cls-5" d="M969.28,96.29a4.38,4.38,0,0,1-1.85,1.38,6.09,6.09,0,0,1-2.34.47,6.77,6.77,0,0,1-2.34-.39,5.46,5.46,0,0,1-1.79-1,4.7,4.7,0,0,1-1.16-1.58,4.84,4.84,0,0,1,0-3.91A4.7,4.7,0,0,1,961,89.64a5.5,5.5,0,0,1,1.79-1,6.77,6.77,0,0,1,2.34-.39,6,6,0,0,1,2.34.47,4.41,4.41,0,0,1,1.85,1.39h0V82.58h1.61V97.82h-1.61V96.29Zm-8.17-3.13a3.91,3.91,0,0,0,.27,1.48,3.52,3.52,0,0,0,.81,1.21,3.76,3.76,0,0,0,1.32.81,5,5,0,0,0,1.77.29,4.19,4.19,0,0,0,3.93-2.29,3.65,3.65,0,0,0-.88-4.22,4.13,4.13,0,0,0-1.34-.81,5.23,5.23,0,0,0-3.46,0,4,4,0,0,0-1.32.82,3.52,3.52,0,0,0-.81,1.21,3.91,3.91,0,0,0-.31,1.48Z"/>
            <path class="cls-5" d="M971,114.51v.3a2.76,2.76,0,0,1,0,.34h-9.15a3.22,3.22,0,0,0,.33,1.33,3.37,3.37,0,0,0,.84,1.09,4.18,4.18,0,0,0,1.28.74,4.84,4.84,0,0,0,3.73-.22,4.09,4.09,0,0,0,1.37-1.14l1.2.81a5.8,5.8,0,0,1-2.18,1.53,7,7,0,0,1-2.55.47,6.77,6.77,0,0,1-2.28-.37,5.45,5.45,0,0,1-1.81-1,4.94,4.94,0,0,1-1.2-1.58,4.51,4.51,0,0,1-.43-2,4.63,4.63,0,0,1,.43-2,4.75,4.75,0,0,1,1.18-1.58,5.53,5.53,0,0,1,1.77-1,6.29,6.29,0,0,1,2.2-.37,6.46,6.46,0,0,1,2.28.37,4.77,4.77,0,0,1,1.65,1,4.22,4.22,0,0,1,1,1.48A4.79,4.79,0,0,1,971,114.51Zm-1.63-.44a3.11,3.11,0,0,0-1-2.2,3.73,3.73,0,0,0-2.65-.87,4.26,4.26,0,0,0-1.49.25,4,4,0,0,0-1.2.69,3.42,3.42,0,0,0-.82,1,2.83,2.83,0,0,0-.35,1.16Z"/>
            <path class="cls-5" d="M963.45,132.6v-1.09H965v1.61h0a4.06,4.06,0,0,1,3.55-1.81h1.06l-.22,1.31h-1.14a3.77,3.77,0,0,0-1.22.2,2.65,2.65,0,0,0-1,.64,3.25,3.25,0,0,0-.71,1.11,4.37,4.37,0,0,0-.27,1.68v4.82h-1.61v-7.48A5.6,5.6,0,0,0,963.45,132.6Z"/>
            <path class="cls-5" d="M968.38,156.38a2.17,2.17,0,0,0-.75-1.81,3.48,3.48,0,0,0-2.2-.6,5.44,5.44,0,0,0-1.85.3,4.54,4.54,0,0,0-1.43.81l-.9-.91a5.47,5.47,0,0,1,1.81-1,7.8,7.8,0,0,1,2.53-.39,6.34,6.34,0,0,1,1.67.22,4.17,4.17,0,0,1,1.37.64,3,3,0,0,1,.92,1.08,3.28,3.28,0,0,1,.33,1.51v5.26a6.67,6.67,0,0,0,.14,1h-1.49a1.7,1.7,0,0,0-.12-.74,6.53,6.53,0,0,1,0-.79h0a4.45,4.45,0,0,1-1.71,1.36,5.78,5.78,0,0,1-2.3.42,5.92,5.92,0,0,1-1.32-.15,3.92,3.92,0,0,1-1.22-.49,3,3,0,0,1-.92-.89,2.82,2.82,0,0,1,.37-3,4,4,0,0,1,1.73-1,11.72,11.72,0,0,1,2.49-.4q1.39-.08,2.91-.08Zm-.47,1.39h-2a10,10,0,0,0-1.81.29,3.63,3.63,0,0,0-1.34.62,1.28,1.28,0,0,0-.51,1.08,1.48,1.48,0,0,0,.22.84,1.69,1.69,0,0,0,.61.55,2.82,2.82,0,0,0,.84.3,4.8,4.8,0,0,0,.92.08,4.17,4.17,0,0,0,1.51-.25,3.22,3.22,0,0,0,1.1-.69,3,3,0,0,0,.69-1,3.06,3.06,0,0,0,.24-1.19v-.71Z"/>
            <path class="cls-5" d="M966.4,184h-1.61V168.78h1.61Z"/>
            <path class="cls-5" d="M960.31,204.11h5a11,11,0,0,1,2,.17,5.72,5.72,0,0,1,1.73.59,3.51,3.51,0,0,1,1.26,1.13,3.08,3.08,0,0,1,.49,1.78,2.75,2.75,0,0,1-.81,2,3.94,3.94,0,0,1-2.16,1.09h0a4.75,4.75,0,0,1,2.69,1.08,3.09,3.09,0,0,1,1.06,2.49,3.37,3.37,0,0,1-1.67,2.87,6.38,6.38,0,0,1-2,.79,10.87,10.87,0,0,1-2.59.29h-4.93Zm1.69,6.25h3.42a6.47,6.47,0,0,0,1.16-.08,3.76,3.76,0,0,0,1.14-.42,2.38,2.38,0,0,0,.84-.77,2.12,2.12,0,0,0,.31-1.19,2,2,0,0,0-.31-1.16,2.47,2.47,0,0,0-.86-.77,4,4,0,0,0-1.28-.44,8.77,8.77,0,0,0-1.55-.13h-2.95Zm0,6.72h3.16a9.85,9.85,0,0,0,1.75-.15,5,5,0,0,0,1.45-.49,2.82,2.82,0,0,0,1-.87,2.49,2.49,0,0,0-.75-3.36,6,6,0,0,0-3.16-.69H962Z"/>
            <path class="cls-5" d="M971.46,235.2a4.51,4.51,0,0,1-.43,2,4.78,4.78,0,0,1-1.22,1.58,5.68,5.68,0,0,1-1.87,1,7.76,7.76,0,0,1-4.73,0,5.68,5.68,0,0,1-1.87-1,4.78,4.78,0,0,1-1.22-1.58,4.7,4.7,0,0,1,0-3.95,4.78,4.78,0,0,1,1.22-1.58,5.68,5.68,0,0,1,1.87-1,7.76,7.76,0,0,1,4.73,0,5.68,5.68,0,0,1,1.87,1,4.78,4.78,0,0,1,1.22,1.58A4.51,4.51,0,0,1,971.46,235.2Zm-1.69,0a3.78,3.78,0,0,0-.29-1.48,3.58,3.58,0,0,0-.84-1.21,4,4,0,0,0-1.32-.82,4.78,4.78,0,0,0-1.75-.3,4.68,4.68,0,0,0-1.73.3,4,4,0,0,0-1.32.82,3.58,3.58,0,0,0-.84,1.21,3.89,3.89,0,0,0,0,3,3.57,3.57,0,0,0,.84,1.21,4,4,0,0,0,1.32.81,4.83,4.83,0,0,0,1.73.29,4.92,4.92,0,0,0,1.75-.29,3.85,3.85,0,0,0,1.32-.81,3.57,3.57,0,0,0,.84-1.21A3.78,3.78,0,0,0,969.77,235.2Z"/>
            <path class="cls-5" d="M968.87,261.44v-1.61h0a3.4,3.4,0,0,1-1.53,1.34,5,5,0,0,1-2.24.52,4.29,4.29,0,0,1-3.14-1.08,3.84,3.84,0,0,1-1-2.82V252h1.61v5.23a6,6,0,0,0,.14,1.34,2.61,2.61,0,0,0,.49,1,2.24,2.24,0,0,0,.92.67,3.77,3.77,0,0,0,1.45.24,3.56,3.56,0,0,0,1.24-.22,3.07,3.07,0,0,0,1.08-.67,3.26,3.26,0,0,0,.75-1.14,4.37,4.37,0,0,0,.27-1.68V252h1.61v9.44Z"/>
            <path class="cls-5" d="M966.4,283h-1.61V267.74h1.61Z"/>
            <path class="cls-5" d="M971,299.52v.3a2.76,2.76,0,0,1,0,.34h-9.15a3.22,3.22,0,0,0,.33,1.33,3.37,3.37,0,0,0,.84,1.09,4.18,4.18,0,0,0,1.28.74,4.84,4.84,0,0,0,3.73-.22,4.09,4.09,0,0,0,1.37-1.14l1.2.81a5.8,5.8,0,0,1-2.18,1.53,7,7,0,0,1-2.55.47,6.77,6.77,0,0,1-2.28-.37,5.45,5.45,0,0,1-1.81-1,4.94,4.94,0,0,1-1.2-1.58,4.51,4.51,0,0,1-.43-2,4.63,4.63,0,0,1,.43-2,4.75,4.75,0,0,1,1.18-1.58,5.53,5.53,0,0,1,1.77-1,6.29,6.29,0,0,1,2.2-.37,6.46,6.46,0,0,1,2.28.37,4.77,4.77,0,0,1,1.65,1,4.22,4.22,0,0,1,1,1.48A4.79,4.79,0,0,1,971,299.52Zm-1.63-.44a3.11,3.11,0,0,0-1-2.2,3.73,3.73,0,0,0-2.65-.87,4.26,4.26,0,0,0-1.49.25,4,4,0,0,0-1.2.69,3.42,3.42,0,0,0-.82,1,2.83,2.83,0,0,0-.35,1.16Z"/>
            <path class="cls-5" d="M966.57,326h-1.77l-4.5-9.44h1.79l3.5,7.93h0l3.61-8h1.73Z"/>
            <path class="cls-5" d="M968.38,341.47a2.17,2.17,0,0,0-.75-1.81,3.48,3.48,0,0,0-2.2-.6,5.44,5.44,0,0,0-1.85.3,4.54,4.54,0,0,0-1.43.81l-.9-.91a5.47,5.47,0,0,1,1.81-1,7.8,7.8,0,0,1,2.53-.39,6.34,6.34,0,0,1,1.67.22,4.17,4.17,0,0,1,1.37.64,3,3,0,0,1,.92,1.08,3.28,3.28,0,0,1,.33,1.51v5.26a6.67,6.67,0,0,0,.14,1h-1.49a1.7,1.7,0,0,0-.12-.74,6.53,6.53,0,0,1,0-.79h0a4.45,4.45,0,0,1-1.71,1.36,5.78,5.78,0,0,1-2.3.42,5.92,5.92,0,0,1-1.32-.15,3.92,3.92,0,0,1-1.22-.49,3,3,0,0,1-.92-.89,2.35,2.35,0,0,1-.37-1.33,2.31,2.31,0,0,1,.65-1.68,4,4,0,0,1,1.73-1,11.72,11.72,0,0,1,2.49-.4q1.39-.08,2.91-.08Zm-.47,1.39h-2a10,10,0,0,0-1.81.29,3.62,3.62,0,0,0-1.34.62,1.28,1.28,0,0,0-.51,1.08,1.48,1.48,0,0,0,.22.84,1.69,1.69,0,0,0,.61.55,2.82,2.82,0,0,0,.84.3,4.8,4.8,0,0,0,.92.08,4.17,4.17,0,0,0,1.51-.25,3.22,3.22,0,0,0,1.1-.69,3,3,0,0,0,.69-1,3.06,3.06,0,0,0,.24-1.19v-.71Z"/>
            <path class="cls-5" d="M963.45,360.78v-1.09H965v1.61h0a4,4,0,0,1,3.54-1.85h1.06l-.22,1.31h-1.14a3.77,3.77,0,0,0-1.22.2,2.65,2.65,0,0,0-1,.64,3.25,3.25,0,0,0-.71,1.11,4.37,4.37,0,0,0-.27,1.68v4.82h-1.61v-7.36A5.5,5.5,0,0,0,963.45,360.78Z"/>
            <path class="cls-5" d="M969.28,389.06a4.38,4.38,0,0,1-1.85,1.38,6.09,6.09,0,0,1-2.34.47,6.77,6.77,0,0,1-2.34-.39,5.46,5.46,0,0,1-1.79-1,4.7,4.7,0,0,1-1.16-1.58,4.84,4.84,0,0,1,0-3.91A4.7,4.7,0,0,1,961,382.4a5.5,5.5,0,0,1,1.79-1,6.77,6.77,0,0,1,2.34-.39,6,6,0,0,1,2.34.47,4.41,4.41,0,0,1,1.85,1.39h0V375.4h1.61v15.24h-1.61v-1.58Zm-8.17-3.13a3.91,3.91,0,0,0,.27,1.48,3.52,3.52,0,0,0,.81,1.21,3.76,3.76,0,0,0,1.32.81,5,5,0,0,0,1.77.29,4.19,4.19,0,0,0,3.93-2.29,3.65,3.65,0,0,0-.88-4.22,4.13,4.13,0,0,0-1.34-.81,5.23,5.23,0,0,0-3.46,0,4,4,0,0,0-1.32.82,3.52,3.52,0,0,0-.81,1.21,3.91,3.91,0,0,0-.31,1.48Z"/>
          </g>
          <g>
            <path class="cls-5" d="M171.48,203.64h0l4.16-12.28h2l4.16,12.28h0l4.09-12.28h1.79l-4.73,14.28h-2l-4.2-12.27h0l-4.2,12.27h-2l-4.93-14.28h1.79Z"/>
            <path class="cls-5" d="M182.57,222.46a4.51,4.51,0,0,1-.43,2,4.79,4.79,0,0,1-1.22,1.58,5.71,5.71,0,0,1-1.94,1.06,7.76,7.76,0,0,1-4.73,0,5.68,5.68,0,0,1-1.87-1,4.79,4.79,0,0,1-1.22-1.58,4.7,4.7,0,0,1,0-3.95,4.79,4.79,0,0,1,1.22-1.58,5.68,5.68,0,0,1,1.87-1,7.76,7.76,0,0,1,4.73,0,5.68,5.68,0,0,1,1.87,1,4.79,4.79,0,0,1,1.22,1.58A4.54,4.54,0,0,1,182.57,222.46Zm-1.69,0a3.78,3.78,0,0,0-.29-1.48,3.58,3.58,0,0,0-.84-1.21,4,4,0,0,0-1.32-.82,4.78,4.78,0,0,0-1.75-.3,4.68,4.68,0,0,0-1.73.3,4,4,0,0,0-1.32.82,3.58,3.58,0,0,0-.84,1.21,3.89,3.89,0,0,0,0,3,3.57,3.57,0,0,0,.84,1.21A4,4,0,0,0,175,226a4.83,4.83,0,0,0,1.73.29,4.92,4.92,0,0,0,1.75-.29,3.85,3.85,0,0,0,1.32-.81,3.57,3.57,0,0,0,.84-1.21,3.8,3.8,0,0,0,.35-1.48Z"/>
            <path class="cls-5" d="M177.49,248.71h-1.61V233.47h1.61Z"/>
            <path class="cls-5" d="M180,262h-2.59v8.28H175.8V262h-2.3v-1.14h2.32v-2.59a3.44,3.44,0,0,1,.92-2.54,3.84,3.84,0,0,1,2.83-.92h.67a3.93,3.93,0,0,1,.67.12l-.27,1.21-.51-.1h-.59a2.61,2.61,0,0,0-1,.18,1.43,1.43,0,0,0-.63.52,2,2,0,0,0-.31.77,5.12,5.12,0,0,0,0,.94v2.42h2.59Z"/>
            <path class="cls-5" d="M180,283.49h-2.59v8.28H175.8v-8.28h-2.3v-1.14h2.32v-2.59a3.44,3.44,0,0,1,.92-2.54,3.84,3.84,0,0,1,2.83-.92h.67a3.93,3.93,0,0,1,.67.12l-.27,1.21-.51-.1h-.59a2.61,2.61,0,0,0-1,.18,1.43,1.43,0,0,0-.63.52,2,2,0,0,0-.31.77,5.12,5.12,0,0,0,0,.94v2.42h2.59Z"/>
            <path class="cls-5" d="M180.34,320.57a3.91,3.91,0,0,0-1.36-1.08,4.86,4.86,0,0,0-2-.39,5.06,5.06,0,0,0-1.26.17,3.89,3.89,0,0,0-1.16.49,2.7,2.7,0,0,0-.84.84,2.18,2.18,0,0,0-.31,1.19,2,2,0,0,0,.31,1.13,2.7,2.7,0,0,0,.81.76,5,5,0,0,0,1.16.52l1.36.4,1.75.52a6.68,6.68,0,0,1,1.59.74,3.78,3.78,0,0,1,1.16,1.14,3.21,3.21,0,0,1,.45,1.76,3.45,3.45,0,0,1-.47,1.85,4.06,4.06,0,0,1-1.24,1.28,5.49,5.49,0,0,1-1.73.74,8.15,8.15,0,0,1-2,.24,8.82,8.82,0,0,1-1.51-.13,7.7,7.7,0,0,1-1.43-.39,6.14,6.14,0,0,1-1.28-.67,5.26,5.26,0,0,1-1-.92l1.45-.92a4.23,4.23,0,0,0,1.51,1.28,4.87,4.87,0,0,0,2.3.52,5.16,5.16,0,0,0,1.3-.17,3.89,3.89,0,0,0,1.2-.52,3.06,3.06,0,0,0,.86-.87,2.35,2.35,0,0,0,0-2.44,2.84,2.84,0,0,0-.9-.82,6,6,0,0,0-1.3-.55l-1.53-.44c-.55-.15-1.1-.32-1.63-.5a5.79,5.79,0,0,1-1.53-.77,3.61,3.61,0,0,1-1-1.13,3.56,3.56,0,0,1,0-3.36,4,4,0,0,1,1.26-1.23,5.71,5.71,0,0,1,1.73-.71,8.1,8.1,0,0,1,1.87-.22,7.36,7.36,0,0,1,2.91.52,4.92,4.92,0,0,1,1.81,1.23Z"/>
            <path class="cls-5" d="M180,345.79h-3v5.51a2.7,2.7,0,0,0,.12.87,1.18,1.18,0,0,0,.33.54,1.21,1.21,0,0,0,.53.27,2.91,2.91,0,0,0,.67,0,3.28,3.28,0,0,0,.69,0,3.93,3.93,0,0,0,.69-.22V354a5.34,5.34,0,0,1-.88.22,6.56,6.56,0,0,1-1,0,4.79,4.79,0,0,1-.94-.1,2.56,2.56,0,0,1-.92-.39,2.15,2.15,0,0,1-.69-.77,2.6,2.6,0,0,1-.27-1.28v-5.88h-2.24V344.7h2.28V342H177v2.65h3.1Z"/>
          </g>
          <g>
            <path class="cls-5" d="M339.25,205.68h-1.69v-13H332v-1.29h12.86v1.29h-5.6Z"/>
            <path class="cls-5" d="M343.83,222.21v.3a2.74,2.74,0,0,1,0,.34h-9.15a3.22,3.22,0,0,0,.33,1.33,3.37,3.37,0,0,0,.84,1.09,4.18,4.18,0,0,0,1.28.74,4.84,4.84,0,0,0,3.73-.22,4.09,4.09,0,0,0,1.37-1.14l1.2.81a5.8,5.8,0,0,1-2.18,1.53,7,7,0,0,1-2.55.47,6.77,6.77,0,0,1-2.28-.37,5.45,5.45,0,0,1-1.81-1,4.94,4.94,0,0,1-1.2-1.58,4.51,4.51,0,0,1-.43-2,4.63,4.63,0,0,1,.43-2,4.75,4.75,0,0,1,1.18-1.58,5.53,5.53,0,0,1,1.77-1,6.29,6.29,0,0,1,2.2-.37,6.46,6.46,0,0,1,2.28.37,4.77,4.77,0,0,1,1.65,1,4.22,4.22,0,0,1,1,1.48A4.79,4.79,0,0,1,343.83,222.21Zm-1.63-.44a3.11,3.11,0,0,0-1-2.2,3.73,3.73,0,0,0-2.65-.87,4.26,4.26,0,0,0-1.49.25,4,4,0,0,0-1.2.69,3.42,3.42,0,0,0-.82,1,2.83,2.83,0,0,0-.35,1.16Z"/>
            <path class="cls-5" d="M335.1,239.31v1.61h0a3.4,3.4,0,0,1,1.53-1.34,5.07,5.07,0,0,1,2.24-.52,4.29,4.29,0,0,1,3.14,1.08,3.85,3.85,0,0,1,1,2.82v5.78h-1.61v-5.23a6,6,0,0,0-.14-1.34,2.61,2.61,0,0,0-.49-1,2.24,2.24,0,0,0-.92-.67,3.79,3.79,0,0,0-1.45-.24,3.56,3.56,0,0,0-1.24.22,3.05,3.05,0,0,0-1.08.67,3.26,3.26,0,0,0-.75,1.14,4.37,4.37,0,0,0-.27,1.68v4.84h-1.61v-9.44Z"/>
            <path class="cls-5" d="M335.1,260.84v1.61h0a3.4,3.4,0,0,1,1.53-1.34,5.07,5.07,0,0,1,2.24-.52,4.29,4.29,0,0,1,3.14,1.08,3.85,3.85,0,0,1,1,2.82v5.78h-1.61v-5.21a6,6,0,0,0-.14-1.34,2.61,2.61,0,0,0-.49-1,2.24,2.24,0,0,0-.92-.67,3.79,3.79,0,0,0-1.45-.24,3.56,3.56,0,0,0-1.24.22,3.05,3.05,0,0,0-1.08.67,3.26,3.26,0,0,0-.75,1.14,4.37,4.37,0,0,0-.27,1.68v4.84h-1.61v-9.44Z"/>
            <path class="cls-5" d="M338.56,290.34h0l3.42-8h1.75l-5.5,11.88a5,5,0,0,1-1.26,1.68,3.31,3.31,0,0,1-2.2.66,8.53,8.53,0,0,1-1.43-.12l.16-1.24a4.28,4.28,0,0,0,1.18.17A1.85,1.85,0,0,0,336,295a3.63,3.63,0,0,0,.82-1.24l.9-2L333,282.33h1.79Z"/>
            <path class="cls-5" d="M341.15,306.15a2.64,2.64,0,0,0-1.08-1,3.52,3.52,0,0,0-1.63-.37,4.59,4.59,0,0,0-.84,0,2.54,2.54,0,0,0-.75.27,1.56,1.56,0,0,0-.53.47,1.12,1.12,0,0,0-.2.67,1.11,1.11,0,0,0,.63,1,6.8,6.8,0,0,0,2,.59,7.4,7.4,0,0,1,2.89,1,2.06,2.06,0,0,1,.92,1.68,2.52,2.52,0,0,1-1.32,2.27,4.29,4.29,0,0,1-1.34.5,7.55,7.55,0,0,1-1.49.15,6.75,6.75,0,0,1-2.44-.44,4.39,4.39,0,0,1-2-1.39l1.28-.81a3.78,3.78,0,0,0,3.06,1.48,5.85,5.85,0,0,0,1,0,2.49,2.49,0,0,0,.82-.29,1.4,1.4,0,0,0,.79-1.29,1.2,1.2,0,0,0-.84-1.13,12.27,12.27,0,0,0-2.42-.69l-1-.25a3.84,3.84,0,0,1-1-.44,2.59,2.59,0,0,1-.79-.74,1.91,1.91,0,0,1-.31-1.11,2.24,2.24,0,0,1,.33-1.24,2.69,2.69,0,0,1,.88-.84,4.27,4.27,0,0,1,1.26-.49,6.53,6.53,0,0,1,1.45-.17,5.88,5.88,0,0,1,2.24.44,3.51,3.51,0,0,1,1.63,1.24Z"/>
            <path class="cls-5" d="M344.28,330.16a4.51,4.51,0,0,1-.43,2,4.78,4.78,0,0,1-1.22,1.58,5.68,5.68,0,0,1-1.87,1,7.76,7.76,0,0,1-4.73,0,5.68,5.68,0,0,1-1.87-1,4.78,4.78,0,0,1-1.22-1.58,4.7,4.7,0,0,1,0-3.95,4.78,4.78,0,0,1,1.22-1.58,5.68,5.68,0,0,1,1.87-1,7.76,7.76,0,0,1,4.73,0,5.68,5.68,0,0,1,1.87,1,4.78,4.78,0,0,1,1.22,1.58A4.51,4.51,0,0,1,344.28,330.16Zm-1.69,0a3.78,3.78,0,0,0-.29-1.48,3.58,3.58,0,0,0-.84-1.21,4,4,0,0,0-1.32-.82,4.78,4.78,0,0,0-1.75-.3,4.68,4.68,0,0,0-1.73.3,4,4,0,0,0-1.32.82,3.58,3.58,0,0,0-.84,1.21,3.89,3.89,0,0,0,0,3,3.57,3.57,0,0,0,.84,1.21,4,4,0,0,0,1.32.81,4.83,4.83,0,0,0,1.73.29,4.92,4.92,0,0,0,1.75-.29,3.85,3.85,0,0,0,1.32-.81,3.57,3.57,0,0,0,.84-1.21A3.78,3.78,0,0,0,342.59,330.16Z"/>
            <path class="cls-5" d="M335.1,347v1.61h0a3.4,3.4,0,0,1,1.53-1.34,5.07,5.07,0,0,1,2.24-.52,4.29,4.29,0,0,1,3.14,1.08,3.85,3.85,0,0,1,1,2.82v5.83h-1.61v-5.23a6,6,0,0,0-.14-1.34,2.61,2.61,0,0,0-.49-1,2.24,2.24,0,0,0-.92-.67,3.79,3.79,0,0,0-1.45-.24,3.56,3.56,0,0,0-1.24.22,3.05,3.05,0,0,0-1.08.67,3.26,3.26,0,0,0-.75,1.14,4.37,4.37,0,0,0-.27,1.68v4.81h-1.61V347Z"/>
            <path class="cls-5" d="M342,378.79a4,4,0,0,0-1.39-1,4.86,4.86,0,0,0-2-.39,5.06,5.06,0,0,0-1.26.17,3.89,3.89,0,0,0-1.16.49,2.7,2.7,0,0,0-.84.84,2.18,2.18,0,0,0-.31,1.19,2,2,0,0,0,.31,1.13,2.7,2.7,0,0,0,.81.76,5,5,0,0,0,1.16.52l1.36.4,1.75.52a6.68,6.68,0,0,1,1.59.74,3.78,3.78,0,0,1,1.16,1.14,3.21,3.21,0,0,1,.45,1.76,3.45,3.45,0,0,1-.47,1.85,4.06,4.06,0,0,1-1.24,1.28,5.49,5.49,0,0,1-1.73.74,8.15,8.15,0,0,1-2,.24,8.82,8.82,0,0,1-1.51-.13,7.7,7.7,0,0,1-1.43-.39,6.14,6.14,0,0,1-1.28-.67,5.26,5.26,0,0,1-1-.92l1.45-.92a4.23,4.23,0,0,0,1.51,1.28,4.87,4.87,0,0,0,2.3.52,5.16,5.16,0,0,0,1.3-.17,3.89,3.89,0,0,0,1.2-.52,3.06,3.06,0,0,0,.86-.87,2.35,2.35,0,0,0,0-2.44,2.84,2.84,0,0,0-.9-.82,6,6,0,0,0-1.3-.55l-1.53-.44c-.55-.15-1.1-.32-1.63-.5a5.77,5.77,0,0,1-1.43-.74,3.61,3.61,0,0,1-1-1.13,3.56,3.56,0,0,1,0-3.36,4,4,0,0,1,1.26-1.23,5.71,5.71,0,0,1,1.73-.71,8.1,8.1,0,0,1,1.87-.22,7.36,7.36,0,0,1,2.91.52,4.92,4.92,0,0,1,1.81,1.23Z"/>
            <path class="cls-5" d="M341.76,404h-3.1v5.51a2.7,2.7,0,0,0,.12.87,1.18,1.18,0,0,0,.33.54,1.21,1.21,0,0,0,.53.27,2.91,2.91,0,0,0,.67,0,3.28,3.28,0,0,0,.69,0,3.93,3.93,0,0,0,.69-.22v1.19a5.34,5.34,0,0,1-.88.22,6.56,6.56,0,0,1-1,0,4.79,4.79,0,0,1-.94-.1,2.5,2.5,0,0,1-.79-.39,2.15,2.15,0,0,1-.69-.77,2.6,2.6,0,0,1-.27-1.28V404h-2.28v-1.14h2.28v-2.69h1.61v2.65h3.1Z"/>
          </g>
          <g>
            <path class="cls-5" d="M502,194h4.71a10.63,10.63,0,0,1,2.32.24,5.54,5.54,0,0,1,1.79.71,3.35,3.35,0,0,1,1.14,1.19,3.39,3.39,0,0,1,.39,1.68,3.29,3.29,0,0,1-.41,1.68,3.44,3.44,0,0,1-1.16,1.19,5.68,5.68,0,0,1-1.79.72,10.38,10.38,0,0,1-2.32.24h-3v6.64h-1.69Zm1.69,6.42h2.87a5.67,5.67,0,0,0,3-.67,2.15,2.15,0,0,0,1-1.93,2.09,2.09,0,0,0-1.08-1.95,6.1,6.1,0,0,0-3-.62h-2.87Z"/>
            <path class="cls-5" d="M512.07,224.83v.3a2.76,2.76,0,0,1,0,.34h-9.15a3.22,3.22,0,0,0,.33,1.33,3.37,3.37,0,0,0,.84,1.09,4.18,4.18,0,0,0,1.28.74,4.84,4.84,0,0,0,3.73-.22,4.09,4.09,0,0,0,1.37-1.14l1.2.81a5.8,5.8,0,0,1-2.18,1.53,7,7,0,0,1-2.55.47,6.77,6.77,0,0,1-2.28-.37,5.45,5.45,0,0,1-1.81-1,4.94,4.94,0,0,1-1.2-1.58,4.51,4.51,0,0,1-.43-2,4.63,4.63,0,0,1,.43-2,4.75,4.75,0,0,1,1.18-1.58,5.53,5.53,0,0,1,1.77-1,6.29,6.29,0,0,1,2.2-.37,6.46,6.46,0,0,1,2.28.37,4.77,4.77,0,0,1,1.65,1,4.22,4.22,0,0,1,1,1.48A4.79,4.79,0,0,1,512.07,224.83Zm-1.63-.44a3.11,3.11,0,0,0-1-2.2,3.73,3.73,0,0,0-2.65-.87,4.26,4.26,0,0,0-1.49.25,4,4,0,0,0-1.2.69,3.42,3.42,0,0,0-.82,1,2.83,2.83,0,0,0-.35,1.16Z"/>
            <path class="cls-5" d="M504.51,243v-1.09H506v1.61h0a4,4,0,0,1,3.54-1.85h1.06l-.22,1.31h-1.14a3.77,3.77,0,0,0-1.22.2,2.65,2.65,0,0,0-1,.64,3.25,3.25,0,0,0-.71,1.11,4.37,4.37,0,0,0-.27,1.68v4.82h-1.61v-7.36A5.5,5.5,0,0,0,504.51,243Z"/>
            <path class="cls-5" d="M504.51,264.55v-1.09H506v1.61h0a4,4,0,0,1,3.54-1.85h1.06l-.22,1.31h-1.14a3.77,3.77,0,0,0-1.22.2,2.65,2.65,0,0,0-1,.64,3.25,3.25,0,0,0-.71,1.11,4.37,4.37,0,0,0-.27,1.68V273h-1.61v-7.36A5.5,5.5,0,0,0,504.51,264.55Z"/>
            <path class="cls-5" d="M506.82,293h0l3.42-8H512l-5.5,11.88a5,5,0,0,1-1.26,1.68,3.26,3.26,0,0,1-2.18.77,8.53,8.53,0,0,1-1.43-.12l.16-1.24a4.28,4.28,0,0,0,1.18.17,1.85,1.85,0,0,0,1.3-.44,3.63,3.63,0,0,0,.82-1.24l.9-2-4.71-9.41h1.79Z"/>
            <path class="cls-5" d="M510.3,316.81a4,4,0,0,0-1.39-1,4.86,4.86,0,0,0-2-.39,5.06,5.06,0,0,0-1.26.17,3.89,3.89,0,0,0-1.16.49,2.7,2.7,0,0,0-.84.84,2.18,2.18,0,0,0-.31,1.19,2,2,0,0,0,.31,1.13,2.7,2.7,0,0,0,.81.76,5,5,0,0,0,1.16.52l1.36.4,1.75.52a6.68,6.68,0,0,1,1.59.74,3.78,3.78,0,0,1,1.16,1.14,3.21,3.21,0,0,1,.45,1.76,3.45,3.45,0,0,1-.47,1.85,4.06,4.06,0,0,1-1.24,1.28,5.49,5.49,0,0,1-1.73.74,8.15,8.15,0,0,1-2,.24A8.82,8.82,0,0,1,505,329a7.69,7.69,0,0,1-1.43-.39,6.14,6.14,0,0,1-1.28-.67,5.26,5.26,0,0,1-1-.92l1.45-.92a4.23,4.23,0,0,0,1.51,1.28,4.87,4.87,0,0,0,2.3.52,5.16,5.16,0,0,0,1.3-.17,3.89,3.89,0,0,0,1.2-.52,3.06,3.06,0,0,0,.86-.87,2.35,2.35,0,0,0,0-2.44,2.84,2.84,0,0,0-.9-.82,6,6,0,0,0-1.3-.55l-1.53-.44c-.55-.15-1.1-.32-1.63-.5a5.77,5.77,0,0,1-1.43-.74,3.61,3.61,0,0,1-1-1.13,3.56,3.56,0,0,1,0-3.36,4,4,0,0,1,1.26-1.23,5.71,5.71,0,0,1,1.73-.71,8.1,8.1,0,0,1,1.87-.22,7.36,7.36,0,0,1,2.91.52,4.92,4.92,0,0,1,1.81,1.23Z"/>
            <path class="cls-5" d="M510,342h-3v5.51a2.7,2.7,0,0,0,.12.87,1.18,1.18,0,0,0,.33.54,1.21,1.21,0,0,0,.53.27,2.91,2.91,0,0,0,.67,0,3.28,3.28,0,0,0,.69,0A3.93,3.93,0,0,0,510,349v1.19a5.34,5.34,0,0,1-.88.22,6.57,6.57,0,0,1-1,0,4.79,4.79,0,0,1-.94-.1,2.56,2.56,0,0,1-.92-.39,2.15,2.15,0,0,1-.69-.77,2.6,2.6,0,0,1-.27-1.28V342h-2.24v-1.14h2.28v-2.65H507v2.65h3.1Z"/>
          </g>
          <g>
            <path class="cls-5" d="M659.06,21.81h7.86V23.1h-9.47V8.82h1.69Z"/>
            <path class="cls-5" d="M667,39.9a4.51,4.51,0,0,1-.43,2,4.78,4.78,0,0,1-1.22,1.58,5.68,5.68,0,0,1-1.87,1,7.76,7.76,0,0,1-4.73,0,5.68,5.68,0,0,1-1.87-1,4.78,4.78,0,0,1-1.22-1.58,4.7,4.7,0,0,1,0-3.95,4.78,4.78,0,0,1,1.22-1.58,5.68,5.68,0,0,1,1.87-1,7.76,7.76,0,0,1,4.73,0,5.68,5.68,0,0,1,1.87,1,4.78,4.78,0,0,1,1.22,1.58A4.51,4.51,0,0,1,667,39.9Zm-1.69,0a3.78,3.78,0,0,0-.29-1.48,3.58,3.58,0,0,0-.84-1.21,4,4,0,0,0-1.32-.82,4.78,4.78,0,0,0-1.75-.3,4.68,4.68,0,0,0-1.73.3,4,4,0,0,0-1.32.82,3.58,3.58,0,0,0-.84,1.21,3.89,3.89,0,0,0,0,3,3.57,3.57,0,0,0,.84,1.21,4,4,0,0,0,1.32.81,4.83,4.83,0,0,0,1.73.29,4.92,4.92,0,0,0,1.75-.29,3.85,3.85,0,0,0,1.32-.81,3.57,3.57,0,0,0,.84-1.21A3.78,3.78,0,0,0,665.34,39.9Z"/>
            <path class="cls-5" d="M654.7,56.72l2.67,7.66h0l3-7.66h1.55l3,7.66h0l2.63-7.66h1.69l-3.5,9.44h-1.63l-2.95-7.65h0l-2.95,7.65h-1.75L653,56.72Z"/>
            <path class="cls-5" d="M666.58,82.7V83a2.76,2.76,0,0,1,0,.34h-9.15a3.22,3.22,0,0,0,.33,1.33,3.37,3.37,0,0,0,.84,1.09,4.18,4.18,0,0,0,1.28.74,4.84,4.84,0,0,0,3.73-.22A4.09,4.09,0,0,0,665,85.14l1.2.81A5.8,5.8,0,0,1,664,87.47a7,7,0,0,1-2.55.47,6.77,6.77,0,0,1-2.28-.37,5.45,5.45,0,0,1-1.81-1,4.94,4.94,0,0,1-1.2-1.58,4.51,4.51,0,0,1-.43-2,4.63,4.63,0,0,1,.43-2,4.75,4.75,0,0,1,1.18-1.58,5.53,5.53,0,0,1,1.77-1,6.29,6.29,0,0,1,2.2-.37,6.46,6.46,0,0,1,2.28.37,4.77,4.77,0,0,1,1.65,1,4.22,4.22,0,0,1,1,1.48A4.79,4.79,0,0,1,666.58,82.7ZM665,82.26a3.11,3.11,0,0,0-1-2.2,3.73,3.73,0,0,0-2.65-.87,4.26,4.26,0,0,0-1.49.25,4,4,0,0,0-1.2.69,3.42,3.42,0,0,0-.82,1,2.83,2.83,0,0,0-.35,1.16Z"/>
            <path class="cls-5" d="M662,109.23h-1.61V94H662Z"/>
            <path class="cls-5" d="M662,130.75h-1.61V115.51H662Z"/>
            <path class="cls-5" d="M655.88,150.85h5a11,11,0,0,1,2,.17,5.72,5.72,0,0,1,1.73.59,3.51,3.51,0,0,1,1.26,1.13,3.08,3.08,0,0,1,.49,1.78,2.75,2.75,0,0,1-.81,2,3.94,3.94,0,0,1-2.16,1.09h0a4.75,4.75,0,0,1,2.69,1.08,3.09,3.09,0,0,1,1.06,2.49A3.37,3.37,0,0,1,665.4,164a6.38,6.38,0,0,1-2,.79,10.87,10.87,0,0,1-2.59.29h-4.93Zm1.69,6.25H661a6.46,6.46,0,0,0,1.24-.12,3.76,3.76,0,0,0,1.14-.42,2.38,2.38,0,0,0,.84-.77,2.12,2.12,0,0,0,.31-1.19,2,2,0,0,0-.31-1.16,2.47,2.47,0,0,0-.86-.77,4,4,0,0,0-1.28-.44,8.77,8.77,0,0,0-1.55-.13h-2.95Zm0,6.72h3.16a9.85,9.85,0,0,0,1.75-.15,5,5,0,0,0,1.45-.49,2.82,2.82,0,0,0,1-.87,2.49,2.49,0,0,0-.75-3.36,6,6,0,0,0-3.16-.69h-3.46Z"/>
            <path class="cls-5" d="M662,186.65h-1.61V171.42H662Z"/>
            <path class="cls-5" d="M662.14,208.18h-1.77l-4.5-9.44h1.79l3.57,8h0l3.61-8h1.73Z"/>
            <path class="cls-5" d="M664.85,228.12A4.38,4.38,0,0,1,663,229.5a6.09,6.09,0,0,1-2.34.47,6.77,6.77,0,0,1-2.34-.39,5.46,5.46,0,0,1-1.79-1,4.7,4.7,0,0,1-1.16-1.58,4.84,4.84,0,0,1,0-3.91,4.7,4.7,0,0,1,1.16-1.58,5.5,5.5,0,0,1,1.79-1,6.77,6.77,0,0,1,2.34-.39,6,6,0,0,1,2.34.47,4.41,4.41,0,0,1,1.85,1.39h0v-7.43h1.61v15.24h-1.61v-1.6ZM656.68,225a3.91,3.91,0,0,0,.27,1.48,3.52,3.52,0,0,0,.81,1.21,3.76,3.76,0,0,0,1.32.81,5,5,0,0,0,1.77.29,4.19,4.19,0,0,0,3.93-2.29,3.65,3.65,0,0,0-.88-4.22,4.13,4.13,0,0,0-1.34-.81,5.23,5.23,0,0,0-3.46,0,4,4,0,0,0-1.32.82,3.52,3.52,0,0,0-.81,1.21,3.91,3.91,0,0,0-.31,1.48Z"/>
          </g>
          <g>
            <path class="cls-5" d="M784.44,26.7h-1.69V12.43h1.69Z"/>
            <path class="cls-5" d="M781.44,39.89V38.79H783v1.61h0a4,4,0,0,1,3.54-1.85h1.06l-.22,1.31h-1.14a3.77,3.77,0,0,0-1.22.2,2.65,2.65,0,0,0-1,.64,3.25,3.25,0,0,0-.71,1.11A4.37,4.37,0,0,0,783,43.5v4.82h-1.61V40.88A4,4,0,0,0,781.44,39.89Z"/>
            <path class="cls-5" d="M784.48,69.76h-1.77l-4.5-9.44H780l3.57,8h0l3.61-8h1.73Z"/>
            <path class="cls-5" d="M784.72,78.23a.85.85,0,0,1-.35.69,1.26,1.26,0,0,1-1.55,0,.86.86,0,0,1,0-1.35l0,0a1.26,1.26,0,0,1,1.55,0A.84.84,0,0,1,784.72,78.23Zm-.33,13.07h-1.61V81.86h1.61Z"/>
            <path class="cls-5" d="M780.3,103.4V105h0a3.4,3.4,0,0,1,1.53-1.34,5.07,5.07,0,0,1,2.24-.52,4.29,4.29,0,0,1,3.14,1.08,3.85,3.85,0,0,1,1,2.82v5.78h-1.61v-5.21a6,6,0,0,0-.14-1.34,2.61,2.61,0,0,0-.49-1,2.24,2.24,0,0,0-.92-.67,3.79,3.79,0,0,0-1.45-.24,3.56,3.56,0,0,0-1.24.22,3.05,3.05,0,0,0-1.08.67,3.26,3.26,0,0,0-.75,1.14,4.37,4.37,0,0,0-.27,1.68v4.79h-1.61V103.4Z"/>
            <path class="cls-5" d="M778.85,136.35a5.27,5.27,0,0,0,1.81,1.23,6.44,6.44,0,0,0,4.42.22,3.52,3.52,0,0,0,1.34-.79,3.05,3.05,0,0,0,.75-1.18,4.37,4.37,0,0,0,.24-1.44v-1.87h0a4.08,4.08,0,0,1-1.81,1.38,6.13,6.13,0,0,1-2.38.49,7.14,7.14,0,0,1-2.34-.37,5.51,5.51,0,0,1-1.79-1,4.43,4.43,0,0,1-1.16-1.53,4.51,4.51,0,0,1-.41-1.92,4.4,4.4,0,0,1,.41-1.9,4.76,4.76,0,0,1,1.16-1.55,5.5,5.5,0,0,1,1.79-1,6.77,6.77,0,0,1,2.34-.39,6,6,0,0,1,2.36.49,4.2,4.2,0,0,1,1.81,1.39h0v-1.68H789v9.36a6,6,0,0,1-.26,1.68,3.93,3.93,0,0,1-.92,1.6,5.16,5.16,0,0,1-1.83,1.21,7.81,7.81,0,0,1-3,.49,8.52,8.52,0,0,1-2.93-.5,7.19,7.19,0,0,1-2.38-1.39Zm.31-6.72a3.58,3.58,0,0,0,.27,1.41,3.47,3.47,0,0,0,.81,1.18,3.85,3.85,0,0,0,1.32.79,5,5,0,0,0,1.77.29A5.29,5.29,0,0,0,785,133a4.05,4.05,0,0,0,1.34-.74,3.36,3.36,0,0,0,.88-1.16,3.49,3.49,0,0,0,.31-1.5,3.7,3.7,0,0,0-2.55-3.36,4.66,4.66,0,0,0-1.69-.3,4.85,4.85,0,0,0-1.77.3,4,4,0,0,0-1.32.81,3.49,3.49,0,0,0-.81,1.18,3.58,3.58,0,0,0-.26,1.28Z"/>
            <path class="cls-5" d="M787.23,156.75a4,4,0,0,0-1.39-1,4.86,4.86,0,0,0-2-.39,5.06,5.06,0,0,0-1.26.17,3.89,3.89,0,0,0-1.16.49,2.7,2.7,0,0,0-.84.84,2.18,2.18,0,0,0-.31,1.19,2,2,0,0,0,.31,1.13,2.7,2.7,0,0,0,.81.76,5,5,0,0,0,1.16.52l1.36.4,1.75.52a6.68,6.68,0,0,1,1.59.74,3.78,3.78,0,0,1,1.16,1.14,3.21,3.21,0,0,1,.45,1.76,3.45,3.45,0,0,1-.47,1.85,4.06,4.06,0,0,1-1.24,1.28,5.49,5.49,0,0,1-1.73.74,8.14,8.14,0,0,1-2,.24,8.82,8.82,0,0,1-1.51-.13,7.69,7.69,0,0,1-1.43-.39,6.14,6.14,0,0,1-1.28-.67,5.26,5.26,0,0,1-1-.92l1.45-.92a4.23,4.23,0,0,0,1.51,1.28,4.87,4.87,0,0,0,2.3.52,5.16,5.16,0,0,0,1.3-.17,3.9,3.9,0,0,0,1.2-.52,3.06,3.06,0,0,0,.86-.87,2.35,2.35,0,0,0,0-2.44,2.84,2.84,0,0,0-.9-.82,6,6,0,0,0-1.3-.55l-1.53-.44c-.55-.15-1.1-.32-1.63-.5a5.77,5.77,0,0,1-1.43-.74,3.61,3.61,0,0,1-1-1.13,3.56,3.56,0,0,1,0-3.36,4,4,0,0,1,1.26-1.23,5.71,5.71,0,0,1,1.73-.71,8.1,8.1,0,0,1,1.87-.22,7.36,7.36,0,0,1,2.91.52,4.92,4.92,0,0,1,1.81,1.23Z"/>
            <path class="cls-5" d="M786.94,182h-3v5.51a2.7,2.7,0,0,0,.12.87,1.18,1.18,0,0,0,.33.54,1.21,1.21,0,0,0,.53.27,2.91,2.91,0,0,0,.67,0,3.28,3.28,0,0,0,.69,0,3.93,3.93,0,0,0,.69-.22v1.19a5.34,5.34,0,0,1-.88.22,6.56,6.56,0,0,1-1,0,4.79,4.79,0,0,1-.94-.1,2.56,2.56,0,0,1-.92-.39,2.15,2.15,0,0,1-.69-.77,2.6,2.6,0,0,1-.27-1.28v-5.88H780v-1.14h2.28v-2.65h1.65v2.65H787Z"/>
          </g>
          <g>
            <path class="cls-5" d="M175.58,132.45h.73a7.7,7.7,0,0,0,1.51-.13,3.89,3.89,0,0,0,1.24-.45,2.35,2.35,0,0,0,.84-.82,2.28,2.28,0,0,0,.31-1.21,2.33,2.33,0,0,0-.26-1.09,2.57,2.57,0,0,0-.73-.84,3.48,3.48,0,0,0-1.06-.54,4.14,4.14,0,0,0-1.26-.18,3.49,3.49,0,0,0-3.18,1.68l-1.43-.64a4.79,4.79,0,0,1,2-1.68,6.41,6.41,0,0,1,2.75-.62,6.81,6.81,0,0,1,2,.25,5,5,0,0,1,1.55.74,3.59,3.59,0,0,1,1.08,1.19,3.35,3.35,0,0,1,.39,1.68,3,3,0,0,1-.82,2.13A4.13,4.13,0,0,1,179,133h0a4.54,4.54,0,0,1,2.4,1.18,3.07,3.07,0,0,1,1,2.37,3.74,3.74,0,0,1-.43,1.83,4.23,4.23,0,0,1-1.16,1.34,5.31,5.31,0,0,1-1.71.84,7.18,7.18,0,0,1-2,.29,6.52,6.52,0,0,1-3.2-.76,5.08,5.08,0,0,1-2.18-2l1.61-.5a3.21,3.21,0,0,0,1.41,1.68,4.66,4.66,0,0,0,3.63.37,3.72,3.72,0,0,0,1.18-.6,3,3,0,0,0,.81-1,2.67,2.67,0,0,0,.31-1.29,2.42,2.42,0,0,0-.37-1.36,2.77,2.77,0,0,0-1-.89,4.65,4.65,0,0,0-1.39-.49,8.42,8.42,0,0,0-1.61-.15h-.73Z"/>
            <path class="cls-5" d="M197,127.56h-7l-.12,4.42a7.52,7.52,0,0,1,1.14-.24,8.79,8.79,0,0,1,1.16,0,6.93,6.93,0,0,1,2.16.32,5.25,5.25,0,0,1,1.71.92,4.1,4.1,0,0,1,1.51,3.24,4.59,4.59,0,0,1-.39,1.9,4.74,4.74,0,0,1-2.87,2.5,6.77,6.77,0,0,1-2.26.37,6.13,6.13,0,0,1-3.06-.71,5,5,0,0,1-2-1.9l1.53-.59a3.34,3.34,0,0,0,1.36,1.41,4,4,0,0,0,2,.52,4.68,4.68,0,0,0,1.57-.25,3.71,3.71,0,0,0,1.24-.71,3.25,3.25,0,0,0,.81-1.08,3.29,3.29,0,0,0,0-2.77,3.21,3.21,0,0,0-.86-1.08,4.09,4.09,0,0,0-1.32-.69,5.37,5.37,0,0,0-1.65-.24,7.62,7.62,0,0,0-1.79.22,9.4,9.4,0,0,0-1.69.57l.26-7.46H197Z"/>
            <path class="cls-5" d="M208.19,132.27h-3.1v5.51a2.7,2.7,0,0,0,.12.87,1.18,1.18,0,0,0,.33.54,1.21,1.21,0,0,0,.53.27,2.91,2.91,0,0,0,.67,0,3.28,3.28,0,0,0,.69,0,3.93,3.93,0,0,0,.69-.22v1.19a5.34,5.34,0,0,1-.88.22,6.56,6.56,0,0,1-1,0,4.79,4.79,0,0,1-.94-.1,2.56,2.56,0,0,1-.92-.39,2.15,2.15,0,0,1-.69-.77,2.6,2.6,0,0,1-.27-1.28v-5.88h-2.22v-1.14h2.28v-2.64h1.61v2.65h3.1Z"/>
            <path class="cls-5" d="M214,132.67a3.1,3.1,0,0,1,1.49-1.31,5.17,5.17,0,0,1,2.22-.49,4.29,4.29,0,0,1,3.14,1.08,3.84,3.84,0,0,1,1,2.82v5.78h-1.65v-5.23a6,6,0,0,0-.14-1.34,2.61,2.61,0,0,0-.49-1,2.26,2.26,0,0,0-.92-.67,3.79,3.79,0,0,0-1.45-.24,3.56,3.56,0,0,0-1.24.22,3.05,3.05,0,0,0-1.08.67,3.26,3.26,0,0,0-.75,1.14,4.37,4.37,0,0,0-.27,1.68v4.81h-1.51V125.31H214Z"/>
            <path class="cls-5" d="M250.79,128.57a4,4,0,0,0-1.39-1,4.86,4.86,0,0,0-2-.39,5.06,5.06,0,0,0-1.26.17,3.89,3.89,0,0,0-1.16.49,2.7,2.7,0,0,0-.84.84,2.18,2.18,0,0,0-.31,1.19,2,2,0,0,0,.31,1.13,2.7,2.7,0,0,0,.81.76,5,5,0,0,0,1.16.52l1.36.4,1.75.52a6.68,6.68,0,0,1,1.59.74A3.78,3.78,0,0,1,252,135a3.21,3.21,0,0,1,.45,1.76,3.45,3.45,0,0,1-.47,1.85,4.06,4.06,0,0,1-1.24,1.28,5.49,5.49,0,0,1-1.73.74,8.15,8.15,0,0,1-2,.24,8.82,8.82,0,0,1-1.51-.13,7.7,7.7,0,0,1-1.43-.39,6.14,6.14,0,0,1-1.28-.67,5.26,5.26,0,0,1-1-.92l1.45-.92a4.23,4.23,0,0,0,1.51,1.28,4.87,4.87,0,0,0,2.3.52,5.16,5.16,0,0,0,1.3-.17,3.9,3.9,0,0,0,1.2-.52,3.06,3.06,0,0,0,.86-.87,2.35,2.35,0,0,0,0-2.44,2.84,2.84,0,0,0-.9-.82,6,6,0,0,0-1.3-.55l-1.53-.44c-.55-.15-1.1-.32-1.63-.5a5.77,5.77,0,0,1-1.43-.74,3.61,3.61,0,0,1-1-1.13,3.56,3.56,0,0,1,0-3.36,4,4,0,0,1,1.26-1.23,5.71,5.71,0,0,1,1.73-.71,8.1,8.1,0,0,1,1.87-.22,7.36,7.36,0,0,1,2.91.52,4.92,4.92,0,0,1,1.81,1.23Z"/>
            <path class="cls-5" d="M262.34,132.27h-3.1v5.51a2.7,2.7,0,0,0,.12.87,1.18,1.18,0,0,0,.33.54,1.21,1.21,0,0,0,.53.27,2.91,2.91,0,0,0,.67,0,3.28,3.28,0,0,0,.69,0,3.93,3.93,0,0,0,.69-.22v1.19a5.34,5.34,0,0,1-.88.22,6.56,6.56,0,0,1-1,0,4.79,4.79,0,0,1-.94-.1,2.56,2.56,0,0,1-.92-.39,2.15,2.15,0,0,1-.69-.77,2.6,2.6,0,0,1-.27-1.28v-5.88h-2.28v-1.14h2.28v-2.64h1.61v2.65h3.1Z"/>
          </g>
          <g>
            <path class="cls-5" d="M374.78,271.34h.73a7.7,7.7,0,0,0,1.51-.13,3.89,3.89,0,0,0,1.24-.45,2.35,2.35,0,0,0,.84-.82,2.28,2.28,0,0,0,.31-1.21,2.33,2.33,0,0,0-.26-1.09,2.57,2.57,0,0,0-.73-.84,3.48,3.48,0,0,0-1.06-.54,4.14,4.14,0,0,0-1.26-.18,3.49,3.49,0,0,0-3.18,1.68l-1.43-.64a4.79,4.79,0,0,1,2-1.68,6.45,6.45,0,0,1,2.73-.55,6.81,6.81,0,0,1,2,.25,5,5,0,0,1,1.55.74,3.59,3.59,0,0,1,1.08,1.19,3.35,3.35,0,0,1,.39,1.68,3,3,0,0,1-.82,2.13,4,4,0,0,1-2.08,1.14h0a4.54,4.54,0,0,1,2.4,1.18,3.07,3.07,0,0,1,1,2.37,3.74,3.74,0,0,1-.43,1.83,4.23,4.23,0,0,1-1.16,1.34,5.31,5.31,0,0,1-1.71.84,7.18,7.18,0,0,1-2,.29,6.52,6.52,0,0,1-3.2-.76,5,5,0,0,1-2.08-2.17l1.61-.5a3.21,3.21,0,0,0,1.41,1.68,4.66,4.66,0,0,0,3.63.37,3.72,3.72,0,0,0,1.18-.6,3,3,0,0,0,.81-1,2.67,2.67,0,0,0,.31-1.29,2.42,2.42,0,0,0-.37-1.36,2.77,2.77,0,0,0-1-.89,4.65,4.65,0,0,0-1.39-.49,8.42,8.42,0,0,0-1.61-.15H375Z"/>
            <path class="cls-5" d="M396.87,279.45H386.23v-1.51l6.83-5.91q.37-.32.75-.69a6.12,6.12,0,0,0,.65-.77,3.68,3.68,0,0,0,.45-.86,2.74,2.74,0,0,0,.16-.94,2.44,2.44,0,0,0-.26-1.13,2.58,2.58,0,0,0-.73-.86,3.48,3.48,0,0,0-1.06-.54,4.14,4.14,0,0,0-1.26-.18,3.57,3.57,0,0,0-2.26.72,3.16,3.16,0,0,0-1.18,1.83l-1.67-.29a3.78,3.78,0,0,1,.63-1.39,4.54,4.54,0,0,1,1.14-1.11,5.55,5.55,0,0,1,1.51-.72,6.23,6.23,0,0,1,1.85-.27,7.16,7.16,0,0,1,2,.25,4.9,4.9,0,0,1,1.59.74,3.76,3.76,0,0,1,1.08,1.23,3.46,3.46,0,0,1,.41,1.68,3.55,3.55,0,0,1-.22,1.28,5.17,5.17,0,0,1-.59,1.11,6.66,6.66,0,0,1-.86,1q-.49.47-1,.94l-6,5H397Z"/>
            <path class="cls-5" d="M403.85,270v1.61h0a3.4,3.4,0,0,1,1.53-1.34,5.07,5.07,0,0,1,2.24-.52,4.29,4.29,0,0,1,3.14,1.08,3.85,3.85,0,0,1,1,2.82v5.78h-1.61v-5.23a6,6,0,0,0-.14-1.34,2.61,2.61,0,0,0-.49-1,2.24,2.24,0,0,0-.92-.67,3.79,3.79,0,0,0-1.45-.24,3.56,3.56,0,0,0-1.24.22,3.05,3.05,0,0,0-1.08.67,3.26,3.26,0,0,0-.75,1.14,4.37,4.37,0,0,0-.27,1.68v4.84h-1.61V270Z"/>
            <path class="cls-5" d="M426.79,277.86a4.38,4.38,0,0,1-1.85,1.38,6.09,6.09,0,0,1-2.34.47,6.77,6.77,0,0,1-2.34-.39,5.46,5.46,0,0,1-1.79-1,4.7,4.7,0,0,1-1.16-1.58,4.84,4.84,0,0,1,0-3.91,4.7,4.7,0,0,1,1.16-1.58,5.5,5.5,0,0,1,1.79-1,6.77,6.77,0,0,1,2.34-.39,6,6,0,0,1,2.34.47,4.41,4.41,0,0,1,1.85,1.39h0V264.2h1.63v15.24h-1.61v-1.6Zm-8.19-3.13a3.91,3.91,0,0,0,.27,1.48,3.52,3.52,0,0,0,.81,1.21,3.76,3.76,0,0,0,1.32.81,5,5,0,0,0,1.77.29,4.19,4.19,0,0,0,3.93-2.29,3.65,3.65,0,0,0-.88-4.22,4.13,4.13,0,0,0-1.34-.81,5.23,5.23,0,0,0-3.46,0,4,4,0,0,0-1.32.82,3.52,3.52,0,0,0-.81,1.21A3.91,3.91,0,0,0,418.6,274.73Z"/>
            <path class="cls-5" d="M457.49,267.41a4,4,0,0,0-1.39-1,4.86,4.86,0,0,0-2-.39,5.06,5.06,0,0,0-1.26.17,3.89,3.89,0,0,0-1.16.49,2.7,2.7,0,0,0-.84.84,2.18,2.18,0,0,0-.31,1.19,2,2,0,0,0,.31,1.13,2.7,2.7,0,0,0,.81.76,5,5,0,0,0,1.16.52l1.36.4,1.75.52a6.68,6.68,0,0,1,1.59.74,3.78,3.78,0,0,1,1.16,1.14,3.21,3.21,0,0,1,.45,1.76,3.45,3.45,0,0,1-.47,1.85,4.06,4.06,0,0,1-1.24,1.28,5.49,5.49,0,0,1-1.73.74,8.15,8.15,0,0,1-2,.24,8.82,8.82,0,0,1-1.51-.13,7.7,7.7,0,0,1-1.43-.39,6.14,6.14,0,0,1-1.28-.67,5.26,5.26,0,0,1-1-.92l1.45-.92a4.23,4.23,0,0,0,1.51,1.28,4.87,4.87,0,0,0,2.3.52,5.16,5.16,0,0,0,1.3-.17,3.89,3.89,0,0,0,1.2-.52,3.06,3.06,0,0,0,.86-.87,2.35,2.35,0,0,0,0-2.44,2.84,2.84,0,0,0-.9-.82,6,6,0,0,0-1.3-.55l-1.53-.44c-.55-.15-1.1-.32-1.63-.5a5.77,5.77,0,0,1-1.43-.74,3.61,3.61,0,0,1-1-1.13,3.56,3.56,0,0,1,0-3.36,4,4,0,0,1,1.26-1.23,5.71,5.71,0,0,1,1.73-.71,8.1,8.1,0,0,1,1.87-.22,7.36,7.36,0,0,1,2.91.52,4.92,4.92,0,0,1,1.81,1.23Z"/>
            <path class="cls-5" d="M469,271.15h-3.1v5.51a2.7,2.7,0,0,0,.12.87,1.18,1.18,0,0,0,.33.54,1.21,1.21,0,0,0,.53.27,2.91,2.91,0,0,0,.67,0,3.28,3.28,0,0,0,.69,0,3.93,3.93,0,0,0,.69-.22v1.19a5.34,5.34,0,0,1-.88.22,6.56,6.56,0,0,1-1,0,4.79,4.79,0,0,1-.94-.1,2.56,2.56,0,0,1-.92-.39,2.15,2.15,0,0,1-.69-.77,2.6,2.6,0,0,1-.27-1.28v-5.88H462V270h2.28v-2.57h1.61v2.65H469Z"/>
          </g>
          <g>
            <path class="cls-5" d="M555.57,426.19H544.93v-1.51l6.83-5.91q.37-.32.75-.69a6.12,6.12,0,0,0,.65-.77,3.68,3.68,0,0,0,.45-.86,2.74,2.74,0,0,0,.16-.94,2.44,2.44,0,0,0-.26-1.13,2.58,2.58,0,0,0-.73-.86,3.48,3.48,0,0,0-1.06-.54,4.14,4.14,0,0,0-1.26-.18,3.57,3.57,0,0,0-2.26.72,3.16,3.16,0,0,0-1.18,1.83l-1.67-.29a3.78,3.78,0,0,1,.63-1.39,4.54,4.54,0,0,1,1.14-1.11,5.55,5.55,0,0,1,1.51-.72,6.23,6.23,0,0,1,1.85-.27,7.16,7.16,0,0,1,2,.25,4.9,4.9,0,0,1,1.59.74,3.76,3.76,0,0,1,1.08,1.23,3.46,3.46,0,0,1,.41,1.68,3.55,3.55,0,0,1-.22,1.28,5.17,5.17,0,0,1-.59,1.11,6.66,6.66,0,0,1-.86,1q-.49.47-1,.94l-6,5h8.84Z"/>
            <path class="cls-5" d="M567.87,420h0a3.18,3.18,0,0,1-1.06.39,6.52,6.52,0,0,1-1.32.13,6.12,6.12,0,0,1-2-.32,5,5,0,0,1-1.61-.89,4.09,4.09,0,0,1-1.47-3.18,4.15,4.15,0,0,1,.39-1.83,4,4,0,0,1,1.14-1.43,5.54,5.54,0,0,1,1.73-.92,7.24,7.24,0,0,1,4.34,0,5.59,5.59,0,0,1,1.73.92,4,4,0,0,1,1.14,1.43,4.15,4.15,0,0,1,.39,1.83,4.77,4.77,0,0,1-.45,2,12.12,12.12,0,0,1-1.06,1.81l-4.56,6.27h-2ZM569.5,416a3.12,3.12,0,0,0-.27-1.29,3,3,0,0,0-.77-1,3.73,3.73,0,0,0-1.18-.69,4.54,4.54,0,0,0-3,0,3.73,3.73,0,0,0-1.18.69,3,3,0,0,0-.77,1A3.12,3.12,0,0,0,562,416a3.18,3.18,0,0,0,.26,1.28,3,3,0,0,0,.75,1,3.44,3.44,0,0,0,1.18.67,5.05,5.05,0,0,0,3.08,0,3.44,3.44,0,0,0,1.18-.67,3,3,0,0,0,.75-1,3.23,3.23,0,0,0,.37-1.28Z"/>
            <path class="cls-5" d="M581.36,417.9h-3.1v5.51a2.7,2.7,0,0,0,.12.87,1.18,1.18,0,0,0,.33.54,1.21,1.21,0,0,0,.53.27,2.91,2.91,0,0,0,.67,0,3.28,3.28,0,0,0,.69,0,3.93,3.93,0,0,0,.69-.22v1.19a5.34,5.34,0,0,1-.88.22,6.57,6.57,0,0,1-1,0,4.79,4.79,0,0,1-.94-.1,2.56,2.56,0,0,1-.92-.39,2.15,2.15,0,0,1-.69-.77,2.6,2.6,0,0,1-.27-1.28v-5.88h-2.22v-1.14h2.28v-2.64h1.61v2.65h3.1Z"/>
            <path class="cls-5" d="M587.15,418.31a3.1,3.1,0,0,1,1.49-1.31,5.17,5.17,0,0,1,2.22-.49,4.29,4.29,0,0,1,3.14,1.08,3.84,3.84,0,0,1,1,2.82v5.78H593.4V421a6,6,0,0,0-.14-1.34,2.61,2.61,0,0,0-.49-1,2.26,2.26,0,0,0-.92-.67,3.79,3.79,0,0,0-1.45-.24,3.56,3.56,0,0,0-1.24.22,3.05,3.05,0,0,0-1.08.67,3.26,3.26,0,0,0-.75,1.14,4.37,4.37,0,0,0-.27,1.68v4.84h-1.51V411h1.61v7.33Z"/>
            <path class="cls-5" d="M624,414.21a4,4,0,0,0-1.39-1,4.86,4.86,0,0,0-2-.39,5.06,5.06,0,0,0-1.26.17,3.89,3.89,0,0,0-1.16.49,2.7,2.7,0,0,0-.84.84,2.18,2.18,0,0,0-.31,1.19,2,2,0,0,0,.31,1.13,2.7,2.7,0,0,0,.81.76,5,5,0,0,0,1.16.52l1.36.4,1.75.52a6.68,6.68,0,0,1,1.59.74,3.78,3.78,0,0,1,1.16,1.14,3.21,3.21,0,0,1,.45,1.76,3.45,3.45,0,0,1-.47,1.85,4.06,4.06,0,0,1-1.24,1.28,5.49,5.49,0,0,1-1.73.74,8.15,8.15,0,0,1-2,.24,8.82,8.82,0,0,1-1.51-.13,7.69,7.69,0,0,1-1.43-.39,6.14,6.14,0,0,1-1.28-.67,5.26,5.26,0,0,1-1-.92l1.45-.92a4.23,4.23,0,0,0,1.51,1.28,4.87,4.87,0,0,0,2.3.52,5.16,5.16,0,0,0,1.3-.17,3.89,3.89,0,0,0,1.2-.52,3.06,3.06,0,0,0,.86-.87,2.35,2.35,0,0,0,0-2.44,2.84,2.84,0,0,0-.9-.82,6,6,0,0,0-1.3-.55l-1.53-.44c-.55-.15-1.1-.32-1.63-.5a5.77,5.77,0,0,1-1.43-.74,3.61,3.61,0,0,1-1-1.13,3.56,3.56,0,0,1,0-3.36,4,4,0,0,1,1.26-1.23,5.71,5.71,0,0,1,1.73-.71,8.1,8.1,0,0,1,1.87-.22,7.36,7.36,0,0,1,2.91.52,4.92,4.92,0,0,1,1.81,1.23Z"/>
            <path class="cls-5" d="M635.51,417.9h-3.1v5.51a2.7,2.7,0,0,0,.12.87,1.18,1.18,0,0,0,.33.54,1.21,1.21,0,0,0,.53.27,2.91,2.91,0,0,0,.67,0,3.28,3.28,0,0,0,.69,0,3.93,3.93,0,0,0,.69-.22v1.19a5.34,5.34,0,0,1-.88.22,6.57,6.57,0,0,1-1,0,4.79,4.79,0,0,1-.94-.1,2.56,2.56,0,0,1-.92-.39A2.15,2.15,0,0,1,631,425a2.6,2.6,0,0,1-.27-1.28v-5.88h-2.28v-1.14h2.28v-2.64h1.61v2.65h3.1Z"/>
          </g>
          <g>
            <path class="cls-5" d="M63.63,14.26h.73a7.7,7.7,0,0,0,1.51-.13A3.88,3.88,0,0,0,67,13.69a2.35,2.35,0,0,0,.84-.82,2.28,2.28,0,0,0,.31-1.21,2.33,2.33,0,0,0-.26-1.09,2.57,2.57,0,0,0-.73-.84,3.48,3.48,0,0,0-1.06-.54A4.14,4.14,0,0,0,64.89,9a3.49,3.49,0,0,0-3.18,1.68L60.27,10a4.79,4.79,0,0,1,2-1.68,6.41,6.41,0,0,1,2.83-.64A6.81,6.81,0,0,1,67,8a5,5,0,0,1,1.55.74,3.59,3.59,0,0,1,1.08,1.19,3.35,3.35,0,0,1,.39,1.68,3,3,0,0,1-.92,2.1A4.05,4.05,0,0,1,67,14.83h0A4.54,4.54,0,0,1,69.42,16a3.07,3.07,0,0,1,1,2.37A3.74,3.74,0,0,1,70,20.21a4.23,4.23,0,0,1-1.16,1.34,5.31,5.31,0,0,1-1.71.84,7.18,7.18,0,0,1-2,.29,6.52,6.52,0,0,1-3.2-.76,5,5,0,0,1-2.08-2.17l1.61-.5a3.21,3.21,0,0,0,1.41,1.68,4.66,4.66,0,0,0,3.63.37,3.72,3.72,0,0,0,1.18-.6,3,3,0,0,0,.81-1,2.67,2.67,0,0,0,.31-1.29,2.42,2.42,0,0,0-.37-1.36,2.77,2.77,0,0,0-1-.89A4.65,4.65,0,0,0,66,15.71a8.42,8.42,0,0,0-1.61-.15h-.73Z"/>
            <path class="cls-5" d="M82.88,14.82a4.39,4.39,0,0,1,2.26,1.34,3.57,3.57,0,0,1,.9,2.45,3.36,3.36,0,0,1-.43,1.68,4.18,4.18,0,0,1-1.16,1.29,5.56,5.56,0,0,1-1.71.82,7.25,7.25,0,0,1-4.09,0,5.56,5.56,0,0,1-1.71-.82,4.18,4.18,0,0,1-1.16-1.29,3.36,3.36,0,0,1-.43-1.68,3.72,3.72,0,0,1,.24-1.34,3.78,3.78,0,0,1,.67-1.11,4,4,0,0,1,1-.84,4.94,4.94,0,0,1,1.26-.52h0a3.51,3.51,0,0,1-1-.47,3.31,3.31,0,0,1-.79-.74,3.61,3.61,0,0,1-.51-.94,3.08,3.08,0,0,1-.2-1.06A3.26,3.26,0,0,1,76.38,10a3.65,3.65,0,0,1,1-1.19A4.84,4.84,0,0,1,78.81,8a6.15,6.15,0,0,1,3.61,0,4.91,4.91,0,0,1,1.51.77A3.7,3.7,0,0,1,85,10a3.3,3.3,0,0,1,.37,1.58,3.08,3.08,0,0,1-.2,1.06,3.61,3.61,0,0,1-.51.94,3.31,3.31,0,0,1-.79.74,3.51,3.51,0,0,1-1,.47ZM77,18.46a2.93,2.93,0,0,0,.26,1.21,2.71,2.71,0,0,0,.75,1,3.65,3.65,0,0,0,1.16.64,5,5,0,0,0,3,0,3.65,3.65,0,0,0,1.16-.64,2.71,2.71,0,0,0,.75-1,2.93,2.93,0,0,0,.26-1.21A2.73,2.73,0,0,0,84,17.27a2.8,2.8,0,0,0-.75-.94,3.52,3.52,0,0,0-1.16-.62,5.17,5.17,0,0,0-3,0,3.52,3.52,0,0,0-1.16.62,2.8,2.8,0,0,0-.75.94,2.71,2.71,0,0,0-.2,1.19Zm.59-6.84a2.22,2.22,0,0,0,.24,1,2.48,2.48,0,0,0,.67.81,3.19,3.19,0,0,0,1,.54,3.57,3.57,0,0,0,3.36-.54,2.48,2.48,0,0,0,.67-.81,2.22,2.22,0,0,0,.24-1,2.43,2.43,0,0,0-.24-1.06,2.54,2.54,0,0,0-.65-.84,3.08,3.08,0,0,0-1-.55,3.75,3.75,0,0,0-2.44,0,3.08,3.08,0,0,0-1,.55,2.53,2.53,0,0,0-.65.84,2.41,2.41,0,0,0-.2,1.06Z"/>
            <path class="cls-5" d="M96.23,14.08H93.11v5.51a2.7,2.7,0,0,0,.12.87,1.18,1.18,0,0,0,.33.54,1.21,1.21,0,0,0,.53.27,2.91,2.91,0,0,0,.67,0,3.28,3.28,0,0,0,.69,0,3.93,3.93,0,0,0,.69-.22v1.19a5.34,5.34,0,0,1-.88.22,6.56,6.56,0,0,1-1,0,4.79,4.79,0,0,1-.94-.1,2.61,2.61,0,0,1-.75-.27,2.15,2.15,0,0,1-.69-.77A2.6,2.6,0,0,1,91.6,20v-6H89.22V12.94H91.5v-2.6h1.61v2.6h3.1Z"/>
            <path class="cls-5" d="M102,14.48a3.1,3.1,0,0,1,1.49-1.31,5.17,5.17,0,0,1,2.22-.49,4.32,4.32,0,0,1,3.12,1,3.84,3.84,0,0,1,1,2.82v5.78h-1.63V17.15a6,6,0,0,0-.14-1.34,2.61,2.61,0,0,0-.49-1,2.26,2.26,0,0,0-.92-.67,3.79,3.79,0,0,0-1.45-.24,3.56,3.56,0,0,0-1.24.22,3.05,3.05,0,0,0-1.08.67,3.26,3.26,0,0,0-.75,1.14,4.37,4.37,0,0,0-.27,1.68v4.84h-1.51V7.12H102Z"/>
            <path class="cls-5" d="M138.83,10.33a4,4,0,0,0-1.39-1,4.86,4.86,0,0,0-2-.39,5.06,5.06,0,0,0-1.26.17,3.89,3.89,0,0,0-1.16.49,2.7,2.7,0,0,0-.84.84,2.18,2.18,0,0,0-.31,1.19,2,2,0,0,0,.31,1.13,2.7,2.7,0,0,0,.81.76,5,5,0,0,0,1.16.52l1.36.4,1.75.52a6.68,6.68,0,0,1,1.59.74A3.78,3.78,0,0,1,140,16.8a3.21,3.21,0,0,1,.45,1.76,3.45,3.45,0,0,1-.47,1.85,4.06,4.06,0,0,1-1.24,1.28,5.49,5.49,0,0,1-1.73.74,8.15,8.15,0,0,1-2,.24,8.82,8.82,0,0,1-1.51-.13,7.7,7.7,0,0,1-1.43-.39,6.14,6.14,0,0,1-1.28-.67,5.26,5.26,0,0,1-1-.92l1.45-.92a4.23,4.23,0,0,0,1.51,1.28,4.87,4.87,0,0,0,2.3.52,5.16,5.16,0,0,0,1.3-.17,3.9,3.9,0,0,0,1.2-.52,3.06,3.06,0,0,0,.86-.87,2.35,2.35,0,0,0,0-2.44,2.84,2.84,0,0,0-.9-.82,6,6,0,0,0-1.3-.55l-1.53-.44c-.55-.15-1.1-.32-1.63-.5a5.77,5.77,0,0,1-1.43-.74,3.61,3.61,0,0,1-1-1.13,3.19,3.19,0,0,1-.39-1.68,3.2,3.2,0,0,1,.49-1.78,4,4,0,0,1,1.12-1.13,5.71,5.71,0,0,1,1.73-.71,8.1,8.1,0,0,1,1.87-.22,7.36,7.36,0,0,1,2.91.52,4.92,4.92,0,0,1,1.81,1.23Z"/>
            <path class="cls-5" d="M150.38,14.08h-3.1v5.51a2.7,2.7,0,0,0,.12.87,1.18,1.18,0,0,0,.33.54,1.21,1.21,0,0,0,.53.27,2.91,2.91,0,0,0,.67,0,3.28,3.28,0,0,0,.69,0,3.93,3.93,0,0,0,.69-.22v1.19a5.34,5.34,0,0,1-.88.22,6.56,6.56,0,0,1-1,0,4.79,4.79,0,0,1-.94-.1,2.56,2.56,0,0,1-.92-.39,2.15,2.15,0,0,1-.69-.77,2.6,2.6,0,0,1-.27-1.28V14.08h-2.2V12.94h2.2v-2.6h1.61v2.6h3.1Z"/>
          </g>
        </g>
      </g>
    </g>
    <g id="landmarks">
      <image id="highlands_garden_village" width="256" height="256" transform="translate(252.44 1.89) scale(0.28 0.24)" xlink:href="../../../../../../../denvericons/024-home.png"/>
      <image id="Highlands_32" width="256" height="256" transform="translate(586.99 213.21) scale(0.22 0.2)" xlink:href="../../../../../../../denvericons/020-condo.png"/>
      <image id="elitch_garden_theatre" width="256" height="256" transform="translate(194.2 63.48) scale(0.15 0.12)" xlink:href="../../../../../../../denvericons/007-stage.png"/>
      <image id="little_sisters_of_the_poor" width="256" height="256" transform="translate(541.06 334.19) scale(0.24 0.2)" xlink:href="../../../../../../../denvericons/008-flag.png"/>
      <image id="woodbury_library" width="256" height="256" transform="translate(905.97 239.55) scale(0.16 0.14)" xlink:href="../../../../../../../denvericons/005-bank.png"/>
    </g>
  </g>
</svg>
